<svg width="16" height="17" viewBox="0 0 16 17" fill="none" xmlns="http://www.w3.org/2000/svg">
<g clip-path="url(#clip0_375_5738)">
<path d="M8.46875 11.0993L9.68235 10.2497L8.46875 9.40019V11.0993ZM8.46875 7.59995L9.68235 6.7504L8.46875 5.90088V7.59995Z" fill="#585858"/>
<path d="M13.6493 2.85071C12.9091 2.10576 12.029 1.51456 11.0594 1.11113C10.0899 0.707694 9.05014 0.5 8.00001 0.5C6.94989 0.5 5.91013 0.707694 4.94059 1.11113C3.97106 1.51456 3.09088 2.10576 2.35074 2.85071C1.60578 3.59085 1.01457 4.47102 0.611134 5.44056C0.207696 6.4101 0 7.44986 0 8.49999C0 9.55011 0.207696 10.5899 0.611134 11.5594C1.01457 12.5289 1.60578 13.4091 2.35074 14.1493C3.09088 14.8942 3.97106 15.4854 4.94059 15.8888C5.91013 16.2923 6.94989 16.5 8.00001 16.5C9.05014 16.5 10.0899 16.2923 11.0594 15.8888C12.029 15.4854 12.9091 14.8942 13.6493 14.1493C14.3942 13.4091 14.9854 12.5289 15.3889 11.5594C15.7923 10.5899 16 9.55011 16 8.49999C16 7.44986 15.7923 6.41011 15.3889 5.44057C14.9854 4.47103 14.3942 3.59086 13.6493 2.85071ZM10.7683 9.8657C11.0348 10.0522 11.0344 10.4473 10.7683 10.6336L8.26876 12.3832C7.95876 12.6003 7.53134 12.3779 7.53134 11.9993V9.37564L6.01039 10.3896C5.79565 10.5328 5.50452 10.4757 5.36049 10.2596C5.21692 10.0443 5.27513 9.75329 5.49049 9.60972L7.15513 8.49994L5.49049 7.39016C5.27513 7.24659 5.21692 6.95562 5.36049 6.74025C5.50408 6.52486 5.79506 6.46672 6.01039 6.61028L7.53134 7.62424V5.00066C7.53134 4.62127 7.95926 4.40003 8.26876 4.61674L10.7683 6.36639C11.0348 6.55289 11.0344 6.948 10.7683 7.13424L8.81727 8.49997L10.7683 9.8657Z" fill="#585858"/>
</g>
<defs>
<clipPath id="clip0_375_5738">
<rect width="16" height="16" fill="white" transform="translate(0 0.5)"/>
</clipPath>
</defs>
</svg>
