<svg width="24" height="25" viewBox="0 0 24 25" fill="none" xmlns="http://www.w3.org/2000/svg">
<path d="M22.8568 11.0088C22.7164 10.7749 21.3312 10.1765 21.3312 10.1765C21.5721 10.0521 21.7368 10.0264 21.7368 9.51174C21.7368 8.95033 21.734 8.7632 21.3597 8.7632H20.09C20.0848 8.75197 20.0792 8.74027 20.0741 8.72858C19.2544 6.93864 19.1445 6.48624 17.922 5.87712C16.2823 5.06168 13.2081 5.02051 12.003 5.02051C10.7978 5.02051 7.72367 5.06168 6.08531 5.87712C4.86145 6.4853 4.89186 6.79829 3.93326 8.72858C3.93326 8.73372 3.92344 8.74729 3.91455 8.7632H2.64344C2.27198 8.7632 2.26917 8.95033 2.26917 9.51174C2.26917 10.0264 2.43385 10.0521 2.67479 10.1765C2.67479 10.1765 1.33631 10.8217 1.14917 11.0088C0.962037 11.1959 0.774902 12.5059 0.774902 14.7515C0.774902 16.9971 0.962037 19.2427 0.962037 19.2427H1.52063C1.52063 19.8977 1.61701 19.9913 1.89771 19.9913H5.6404C5.9211 19.9913 6.01467 19.8977 6.01467 19.2427H17.9913C17.9913 19.8977 18.0848 19.9913 18.3655 19.9913H22.2018C22.3889 19.9913 22.4825 19.8509 22.4825 19.2427H23.0439C23.0439 19.2427 23.231 16.9503 23.231 14.7515C23.231 12.5527 22.9971 11.2427 22.8568 11.0088ZM5.88648 13.1113C5.03442 13.2044 4.178 13.2522 3.32087 13.2544C2.36555 13.2544 2.3328 13.3157 2.26543 12.7192C2.24009 12.4462 2.2481 12.1711 2.28929 11.9L2.31876 11.7573H2.45911C3.02052 11.7573 3.54777 11.7812 4.54332 12.0745C5.04967 12.2265 5.52593 12.4648 5.95104 12.7791C6.15502 12.9269 6.2018 13.0673 6.2018 13.0673L5.88648 13.1113ZM17.4495 16.4797L17.2427 16.9971H6.76321C6.76321 16.9971 6.78145 16.9686 6.52929 16.4741C6.34215 16.1082 6.57607 15.8743 6.94613 15.7414C7.66286 15.4832 9.75736 14.7515 12.003 14.7515C14.2486 14.7515 16.3847 15.3821 17.079 15.7414C17.3363 15.8743 17.6558 15.9679 17.4495 16.4825V16.4797ZM5.42613 10.0923C5.27502 10.101 5.12358 10.1021 4.97233 10.0956C5.09443 9.87852 5.16227 9.63665 5.28157 9.38402C5.65584 8.5887 6.08391 7.68858 6.84601 7.30916C7.9473 6.76086 10.2299 6.51384 12.003 6.51384C13.7761 6.51384 16.0586 6.75899 17.1599 7.30916C17.922 7.68858 18.3482 8.58916 18.7244 9.38402C18.8446 9.63899 18.9115 9.88273 19.0369 10.1012C18.9433 10.1064 18.8357 10.1012 18.5789 10.0923H5.42613ZM21.6937 12.7174C21.5936 13.3012 21.6872 13.2544 20.6851 13.2544C19.8279 13.2522 18.9715 13.2044 18.1195 13.1113C17.9861 13.0874 17.9482 12.8624 18.0549 12.7791C18.4779 12.4614 18.9548 12.2227 19.4626 12.0745C20.4582 11.7812 21.0186 11.7419 21.5721 11.7616C21.6093 11.763 21.6446 11.7781 21.6713 11.804C21.698 11.8299 21.7141 11.8648 21.7167 11.9019C21.7431 12.1742 21.7354 12.4488 21.6937 12.7192V12.7174Z" fill="#69BB41"/>
</svg>
