<svg width="25" height="25" viewBox="0 0 25 25" fill="none" xmlns="http://www.w3.org/2000/svg">
<path d="M22.5 15.9222V19C22.5 19.4659 22.5 19.6989 22.4239 19.8827C22.3224 20.1277 22.1277 20.3224 21.8827 20.4239C21.6989 20.5 21.4659 20.5 21 20.5C20.5341 20.5 20.3011 20.5 20.1173 20.4239C19.8723 20.3224 19.6776 20.1277 19.5761 19.8827C19.5 19.6989 19.5 19.4659 19.5 19C19.5 18.5341 19.5 18.3011 19.4239 18.1173C19.3224 17.8723 19.1277 17.6776 18.8827 17.5761C18.6989 17.5 18.4659 17.5 18 17.5H7C6.53406 17.5 6.30109 17.5 6.11732 17.5761C5.87229 17.6776 5.67761 17.8723 5.57612 18.1173C5.5 18.3011 5.5 18.5341 5.5 19C5.5 19.4659 5.5 19.6989 5.42388 19.8827C5.32239 20.1277 5.12771 20.3224 4.88268 20.4239C4.69891 20.5 4.46594 20.5 4 20.5C3.53406 20.5 3.30109 20.5 3.11732 20.4239C2.87229 20.3224 2.67761 20.1277 2.57612 19.8827C2.5 19.6989 2.5 19.4659 2.5 19V15.9222C2.5 14.72 2.5 14.1188 2.67163 13.552C2.84326 12.9851 3.17671 12.4849 3.8436 11.4846L4.5 10.5L5.46154 8.19231C6.20726 6.40257 6.58013 5.5077 7.3359 5.00385C8.09167 4.5 9.06112 4.5 11 4.5H14C15.9389 4.5 16.9083 4.5 17.6641 5.00385C18.4199 5.5077 18.7927 6.40257 19.5385 8.19231L20.5 10.5L21.1564 11.4846C21.8233 12.4849 22.1567 12.9851 22.3284 13.552C22.5 14.1188 22.5 14.72 22.5 15.9222Z" stroke="#585858" stroke-width="1.5" stroke-linecap="round" stroke-linejoin="round"/>
<path d="M2.5 9L4.5 10.5L6.26114 10.9403C6.41978 10.9799 6.58269 11 6.74621 11H18.2538C18.4173 11 18.5802 10.9799 18.7389 10.9403L20.5 10.5L22.5 9" stroke="#585858" stroke-width="1.5" stroke-linecap="round" stroke-linejoin="round"/>
<path d="M18.5 14.5V14.51" stroke="#585858" stroke-width="2" stroke-linecap="round" stroke-linejoin="round"/>
<path d="M6.5 14.5V14.51" stroke="#585858" stroke-width="2" stroke-linecap="round" stroke-linejoin="round"/>
</svg>
