<svg width="16" height="17" viewBox="0 0 16 17" fill="none" xmlns="http://www.w3.org/2000/svg">
<path d="M5.33333 11.1668H10.1755C13.1672 11.1668 13.6222 9.28736 14.174 6.54622C14.3332 5.75557 14.4128 5.36025 14.2214 5.09688C14.1093 4.94274 13.9373 4.8788 13.6667 4.85229M4 4.8335H5" stroke="#6D6D6D" stroke-width="1.5" stroke-linecap="round"/>
<path d="M7.34341 2.09124C8.05848 1.66478 8.68261 1.83664 9.05761 2.11039C9.21134 2.22264 9.28821 2.27876 9.33341 2.27876C9.37861 2.27876 9.45548 2.22264 9.60921 2.11039C9.98421 1.83664 10.6083 1.66478 11.3234 2.09124C12.2619 2.65092 12.4743 4.49735 10.3095 6.05511C9.89721 6.35181 9.69108 6.50016 9.33341 6.50016C8.97574 6.50016 8.76961 6.35181 8.35728 6.05511C6.19254 4.49735 6.4049 2.65092 7.34341 2.09124Z" stroke="#6D6D6D" stroke-width="1.5" stroke-linecap="round"/>
<path d="M5.33341 11.1668L3.5859 2.84345C3.43751 2.24989 2.9042 1.8335 2.29238 1.8335H1.66675" stroke="#6D6D6D" stroke-width="1.5" stroke-linecap="round"/>
<path d="M5.92 11.1665H5.64571C4.73681 11.1665 4 11.934 4 12.8808C4 13.0386 4.1228 13.1665 4.27429 13.1665H11.6667" stroke="#6D6D6D" stroke-width="1.5" stroke-linecap="round" stroke-linejoin="round"/>
<path d="M7 15.1665C7.55228 15.1665 8 14.7188 8 14.1665C8 13.6142 7.55228 13.1665 7 13.1665C6.44772 13.1665 6 13.6142 6 14.1665C6 14.7188 6.44772 15.1665 7 15.1665Z" stroke="#6D6D6D" stroke-width="1.5"/>
<path d="M11.6667 15.1665C12.219 15.1665 12.6667 14.7188 12.6667 14.1665C12.6667 13.6142 12.219 13.1665 11.6667 13.1665C11.1145 13.1665 10.6667 13.6142 10.6667 14.1665C10.6667 14.7188 11.1145 15.1665 11.6667 15.1665Z" stroke="#6D6D6D" stroke-width="1.5"/>
</svg>
