<svg width="16" height="17" viewBox="0 0 16 17" fill="none" xmlns="http://www.w3.org/2000/svg">
<path d="M10.6663 1.83337V4.50004M5.33301 1.83337V4.50004" stroke="#585858" stroke-width="1.5" stroke-linecap="round" stroke-linejoin="round"/>
<path d="M14 8.49996C14 5.9858 14 4.72873 13.2189 3.94767C12.4379 3.16663 11.1808 3.16663 8.66667 3.16663H7.33333C4.81917 3.16663 3.5621 3.16663 2.78105 3.94767C2 4.72873 2 5.9858 2 8.49996V9.83329C2 12.3474 2 13.6046 2.78105 14.3856C3.5621 15.1666 4.81917 15.1666 7.33333 15.1666" stroke="#585858" stroke-width="1.5" stroke-linecap="round" stroke-linejoin="round"/>
<path d="M2 7.16663H14" stroke="#585858" stroke-width="1.5" stroke-linecap="round" stroke-linejoin="round"/>
<path d="M12.1784 12.9674L11.3337 12.5V11.3446M14.0003 12.5C14.0003 13.9728 12.8064 15.1667 11.3337 15.1667C9.86093 15.1667 8.66699 13.9728 8.66699 12.5C8.66699 11.0273 9.86093 9.83337 11.3337 9.83337C12.8064 9.83337 14.0003 11.0273 14.0003 12.5Z" stroke="#585858" stroke-width="1.5" stroke-linecap="round" stroke-linejoin="round"/>
</svg>
