<svg width="16" height="16" viewBox="0 0 16 16" fill="none" xmlns="http://www.w3.org/2000/svg">
<path fill-rule="evenodd" clip-rule="evenodd" d="M14.0003 6.42522V10.7999C14.0003 11.382 13.9993 11.7383 13.9775 12.0049C13.9674 12.1291 13.9546 12.2043 13.9439 12.2499C13.9388 12.2716 13.9345 12.285 13.9319 12.2922C13.9294 12.2991 13.9277 12.3026 13.9277 12.3026C13.8637 12.428 13.7618 12.53 13.6363 12.5939C13.6363 12.5939 13.6329 12.5957 13.6259 12.5982C13.6187 12.6007 13.6054 12.605 13.5837 12.6101C13.538 12.6209 13.4629 12.6336 13.3387 12.6438C13.0721 12.6655 12.7157 12.6666 12.1337 12.6666H3.86699C3.28494 12.6666 2.92859 12.6655 2.66197 12.6438C2.53777 12.6336 2.46263 12.6209 2.41699 12.6101C2.39528 12.605 2.38193 12.6007 2.37471 12.5982C2.36778 12.5957 2.36433 12.5939 2.36433 12.5939C2.23889 12.53 2.1369 12.428 2.07299 12.3026C2.07299 12.3026 2.07123 12.2991 2.06876 12.2922C2.06618 12.285 2.0619 12.2716 2.05679 12.2499C2.04604 12.2043 2.03329 12.1291 2.02315 12.0049C2.00136 11.7383 2.00033 11.382 2.00033 10.7999V6.42522C2.00033 5.8961 2.00119 5.57219 2.01928 5.32908C2.02772 5.21578 2.03833 5.14669 2.04737 5.10435C2.05167 5.08418 2.05528 5.0717 2.05746 5.06496C2.05855 5.06156 2.05937 5.05932 2.05986 5.05805L2.06069 5.05606C2.12729 4.91038 2.24412 4.79355 2.3898 4.72695L2.3918 4.72612C2.39306 4.72563 2.3953 4.72481 2.3987 4.72372C2.40544 4.72154 2.41792 4.71793 2.43809 4.71363C2.48043 4.70459 2.54952 4.69398 2.66282 4.68554C2.90593 4.66745 3.22984 4.66659 3.75896 4.66659L3.76576 4.66669C3.80923 4.66751 4.02411 4.67155 4.23901 4.61915C4.4544 4.56663 4.65715 4.47167 4.83538 4.33982C5.01321 4.20828 5.14767 4.04061 5.17486 4.0067L5.17914 4.00141L5.73178 3.33824C6.13067 2.85957 6.18174 2.81503 6.22006 2.78806C6.28391 2.74313 6.35515 2.70976 6.43054 2.68948C6.47579 2.6773 6.5427 2.66659 7.16579 2.66659H8.83486C9.45795 2.66659 9.52486 2.6773 9.57011 2.68948C9.6455 2.70976 9.71674 2.74313 9.78059 2.78806C9.81891 2.81503 9.86998 2.85957 10.2689 3.33824L10.8215 4.00141L10.8258 4.0067C10.853 4.0406 10.9874 4.20827 11.1653 4.33982C11.3435 4.47167 11.5463 4.56663 11.7616 4.61915C11.9765 4.67155 12.1914 4.66751 12.2349 4.66669L12.2417 4.66659C12.7708 4.66659 13.0947 4.66745 13.3378 4.68554C13.4511 4.69398 13.5202 4.70459 13.5626 4.71363C13.5827 4.71793 13.5952 4.72154 13.602 4.72372C13.6054 4.72481 13.6076 4.72563 13.6089 4.72612L13.6109 4.72695C13.7565 4.79355 13.8734 4.91038 13.94 5.05606L13.9408 5.05805C13.9413 5.05932 13.9421 5.06156 13.9432 5.06496C13.9454 5.0717 13.949 5.08418 13.9533 5.10435C13.9623 5.14669 13.9729 5.21578 13.9814 5.32908C13.9995 5.57219 14.0003 5.8961 14.0003 6.42522ZM0.666992 6.42522C0.666992 5.4069 0.666992 4.89774 0.848073 4.50167C1.04788 4.06463 1.39837 3.71414 1.83541 3.51433C2.23148 3.33325 2.74064 3.33325 3.75896 3.33325C3.84249 3.33325 3.88425 3.33325 3.92316 3.32376C3.96624 3.31326 4.00679 3.29427 4.04244 3.2679C4.07463 3.24408 4.10137 3.212 4.15484 3.14783L4.70748 2.48466C5.06018 2.06143 5.23653 1.84981 5.4527 1.69768C5.64424 1.56288 5.85797 1.46278 6.08414 1.40193C6.3394 1.33325 6.61487 1.33325 7.16579 1.33325H8.83486C9.38579 1.33325 9.66125 1.33325 9.91651 1.40193C10.1427 1.46278 10.3564 1.56288 10.548 1.69768C10.7641 1.84981 10.9405 2.06143 11.2932 2.48466L11.8458 3.14783C11.8993 3.212 11.926 3.24408 11.9582 3.2679C11.9939 3.29427 12.0344 3.31326 12.0775 3.32376C12.1164 3.33325 12.1582 3.33325 12.2417 3.33325C13.26 3.33325 13.7692 3.33325 14.1652 3.51433C14.6023 3.71414 14.9528 4.06463 15.1526 4.50167C15.3337 4.89774 15.3337 5.4069 15.3337 6.42522V10.7999C15.3337 11.92 15.3337 12.4801 15.1157 12.9079C14.9239 13.2842 14.618 13.5902 14.2416 13.7819C13.8138 13.9999 13.2538 13.9999 12.1337 13.9999H3.86699C2.74689 13.9999 2.18683 13.9999 1.75901 13.7819C1.38269 13.5902 1.07673 13.2842 0.884979 12.9079C0.666992 12.4801 0.666992 11.92 0.666992 10.7999V6.42522ZM10.0003 8.33325C10.0003 9.43782 9.1049 10.3333 8.00033 10.3333C6.89576 10.3333 6.00033 9.43782 6.00033 8.33325C6.00033 7.22868 6.89576 6.33325 8.00033 6.33325C9.1049 6.33325 10.0003 7.22868 10.0003 8.33325ZM11.3337 8.33325C11.3337 10.1742 9.84127 11.6666 8.00033 11.6666C6.15938 11.6666 4.66699 10.1742 4.66699 8.33325C4.66699 6.4923 6.15938 4.99992 8.00033 4.99992C9.84127 4.99992 11.3337 6.4923 11.3337 8.33325Z" fill="#FBF0EA"/>
</svg>
