<svg width="16" height="17" viewBox="0 0 16 17" fill="none" xmlns="http://www.w3.org/2000/svg">
<path d="M8 11.5C9.38071 11.5 10.5 10.3807 10.5 9C10.5 7.61929 9.38071 6.5 8 6.5C6.61929 6.5 5.5 7.61929 5.5 9C5.5 10.3807 6.61929 11.5 8 11.5Z" fill="#585858"/>
<path d="M13.5 4.50001H12.118C12.0251 4.50031 11.934 4.47456 11.855 4.42568C11.7759 4.37681 11.7122 4.30677 11.671 4.22351L11.2235 3.32901C11.0997 3.07928 10.9084 2.86924 10.6713 2.72272C10.4342 2.57619 10.1607 2.49904 9.882 2.50001H6.118C5.83927 2.49904 5.56584 2.57619 5.32873 2.72272C5.09162 2.86924 4.90031 3.07928 4.7765 3.32901L4.3265 4.22351C4.28547 4.30639 4.22213 4.37618 4.1436 4.42502C4.06508 4.47387 3.97448 4.49984 3.882 4.50001H2.5C2.10218 4.50001 1.72064 4.65804 1.43934 4.93935C1.15804 5.22065 1 5.60218 1 6.00001V13C1 13.3978 1.15804 13.7794 1.43934 14.0607C1.72064 14.342 2.10218 14.5 2.5 14.5H13.5C13.8978 14.5 14.2794 14.342 14.5607 14.0607C14.842 13.7794 15 13.3978 15 13V6.00001C15 5.60218 14.842 5.22065 14.5607 4.93935C14.2794 4.65804 13.8978 4.50001 13.5 4.50001ZM8 12.5C7.30777 12.5 6.63108 12.2947 6.0555 11.9102C5.47993 11.5256 5.03133 10.9789 4.76642 10.3394C4.50152 9.69986 4.4322 8.99613 4.56725 8.31719C4.7023 7.63826 5.03564 7.01462 5.52513 6.52514C6.01461 6.03565 6.63825 5.70231 7.31718 5.56726C7.99612 5.43221 8.69985 5.50152 9.33939 5.76643C9.97893 6.03134 10.5256 6.47994 10.9101 7.05551C11.2947 7.63109 11.5 8.30777 11.5 9.00001C11.4989 9.92794 11.1299 10.8176 10.4737 11.4737C9.81756 12.1299 8.92793 12.499 8 12.5ZM13 7.00001C12.9011 7.00001 12.8044 6.97068 12.7222 6.91574C12.64 6.8608 12.5759 6.78271 12.5381 6.69135C12.5002 6.59999 12.4903 6.49945 12.5096 6.40246C12.5289 6.30547 12.5765 6.21638 12.6464 6.14646C12.7164 6.07653 12.8055 6.02891 12.9025 6.00962C12.9994 5.99032 13.1 6.00023 13.1913 6.03807C13.2827 6.07591 13.3608 6.14 13.4157 6.22222C13.4707 6.30445 13.5 6.40112 13.5 6.50001C13.5 6.63262 13.4473 6.75979 13.3536 6.85356C13.2598 6.94733 13.1326 7.00001 13 7.00001Z" fill="#585858"/>
</svg>
