<svg width="24" height="24" viewBox="0 0 24 24" fill="none" xmlns="http://www.w3.org/2000/svg">
<path d="M22.56 3.83997H1.44C0.646078 3.83997 0 4.48604 0 5.27997V18.72C0 19.5139 0.646078 20.16 1.44 20.16H22.56C23.3539 20.16 24 19.5139 24 18.72V5.27997C24 4.48604 23.3539 3.83997 22.56 3.83997ZM23.04 18.72C23.04 18.984 22.824 19.2 22.56 19.2H1.44C1.17506 19.2 0.96 18.984 0.96 18.72V5.27997C0.96 5.01498 1.17506 4.79997 1.44 4.79997H22.56C22.824 4.79997 23.04 5.01498 23.04 5.27997V18.72Z" fill="#F4F4F4"/>
<path d="M0.480469 8.15991H23.5205V10.0799H0.480469V8.15991Z" fill="#F4F4F4"/>
<path d="M23.52 7.67993H0.48C0.215062 7.67993 0 7.89495 0 8.15993V10.0799C0 10.3449 0.215062 10.5599 0.48 10.5599H23.52C23.7849 10.5599 24 10.3449 24 10.0799V8.15993C24 7.89495 23.7849 7.67993 23.52 7.67993ZM23.04 9.59993H0.96V8.63993H23.04V9.59993ZM12.96 13.4399H4.32C4.05506 13.4399 3.84 13.655 3.84 13.9199C3.84 14.1849 4.05506 14.3999 4.32 14.3999H12.96C13.2249 14.3999 13.44 14.1849 13.44 13.9199C13.44 13.6549 13.2249 13.4399 12.96 13.4399ZM9.12 15.3599H4.32C4.05506 15.3599 3.84 15.575 3.84 15.8399C3.84 16.1049 4.05506 16.3199 4.32 16.3199H9.12C9.38494 16.3199 9.6 16.1049 9.6 15.8399C9.6 15.575 9.38494 15.3599 9.12 15.3599Z" fill="#F4F4F4"/>
</svg>
