<svg width="24" height="24" viewBox="0 0 24 24" fill="none" xmlns="http://www.w3.org/2000/svg">
<g clip-path="url(#clip0_608_693)">
<path d="M17.1504 10.05C16.4142 10.0645 15.6937 9.83608 15.1004 9.4C14.9893 9.32612 14.8645 9.27522 14.7334 9.25031C14.6023 9.22539 14.4676 9.22695 14.3371 9.25491C14.2067 9.28287 14.0831 9.33665 13.9738 9.41309C13.8644 9.48953 13.7714 9.58708 13.7004 9.7C13.6215 9.79378 13.5627 9.90267 13.5274 10.02C13.4921 10.1373 13.4811 10.2606 13.4952 10.3823C13.5092 10.504 13.548 10.6216 13.6091 10.7278C13.6701 10.834 13.7522 10.9266 13.8504 11C14.4938 11.4515 15.2272 11.7585 16.0004 11.9V13C16.0004 13.2652 16.1057 13.5196 16.2933 13.7071C16.4808 13.8946 16.7352 14 17.0004 14C17.2656 14 17.5199 13.8946 17.7075 13.7071C17.895 13.5196 18.0004 13.2652 18.0004 13V11.9C18.5489 11.8191 19.0663 11.5949 19.5004 11.25C19.8138 11.0199 20.068 10.7185 20.2418 10.3707C20.4157 10.023 20.5043 9.6388 20.5004 9.25C20.5004 7.4 18.8004 6.8 17.3504 6.5C15.9004 6.2 15.6004 5.85 15.6004 5.6C15.6004 5.35 15.7004 5.3 15.8504 5.15C16.1262 5.0017 16.4377 4.93249 16.7504 4.95C17.3313 4.94496 17.9024 5.1007 18.4004 5.4C18.5016 5.4826 18.6196 5.54217 18.7461 5.57458C18.8727 5.60699 19.0048 5.61145 19.1333 5.58766C19.2617 5.56387 19.3835 5.5124 19.49 5.43682C19.5966 5.36124 19.6854 5.26337 19.7504 5.15C19.8361 5.04776 19.8993 4.9286 19.9359 4.80031C19.9725 4.67201 19.9816 4.53744 19.9628 4.40537C19.9439 4.2733 19.8974 4.14668 19.8264 4.03376C19.7553 3.92084 19.6613 3.82416 19.5504 3.75C19.0749 3.45653 18.5495 3.25314 18.0004 3.15V2C18.0004 1.73478 17.895 1.48043 17.7075 1.29289C17.5199 1.10536 17.2656 1 17.0004 1C16.7352 1 16.4808 1.10536 16.2933 1.29289C16.1057 1.48043 16.0004 1.73478 16.0004 2V3.1C14.5004 3.35 13.5004 4.35 13.5004 5.7C13.5004 7.05 15.1504 8.15 16.7504 8.45C18.3504 8.75 18.4004 9.1 18.4004 9.35C18.4004 9.6 17.8504 10.05 17.1504 10.05Z" fill="white"/>
<path d="M21.1 15.85C20.8222 15.626 20.5013 15.4615 20.1572 15.3669C19.8131 15.2723 19.4533 15.2495 19.1 15.3L14.15 16.2C14.1526 15.8917 14.0918 15.5861 13.9714 15.3023C13.851 15.0185 13.6735 14.7624 13.45 14.55L9.9 11H2.5C2.23478 11 1.98043 11.1054 1.79289 11.2929C1.60536 11.4804 1.5 11.7348 1.5 12V16.5C1.5 16.7652 1.60536 17.0196 1.79289 17.2071C1.98043 17.3946 2.23478 17.5 2.5 17.5H4.15L9.75 22.05L19.95 20.2C20.4108 20.11 20.837 19.8921 21.1797 19.5711C21.5225 19.2502 21.7679 18.8392 21.8879 18.3853C22.0079 17.9314 21.9976 17.4528 21.8583 17.0044C21.719 16.556 21.4562 16.156 21.1 15.85ZM19.6 18.25L10.25 19.95L5 15.6V13H9.1L12.05 15.95C12.1296 16.0296 12.1743 16.1375 12.1743 16.25C12.1743 16.3625 12.1296 16.4704 12.05 16.55C11.9704 16.6296 11.8625 16.6743 11.75 16.6743C11.6375 16.6743 11.5296 16.6296 11.45 16.55L9.7 14.8C9.50743 14.6556 9.26922 14.5855 9.02911 14.6025C8.789 14.6196 8.5631 14.7227 8.39289 14.8929C8.22268 15.0631 8.11958 15.289 8.10252 15.5291C8.08545 15.7692 8.15557 16.0074 8.3 16.2L10.05 17.95C10.2681 18.1798 10.5323 18.3609 10.8252 18.4816C11.1182 18.6022 11.4333 18.6596 11.75 18.65C12.0561 18.6487 12.36 18.598 12.65 18.5L19.45 17.3C19.5913 17.2802 19.7347 17.3161 19.85 17.4C19.8991 17.4438 19.9379 17.4979 19.9638 17.5584C19.9898 17.6188 20.0021 17.6842 20 17.75C20.0024 17.867 19.9636 17.9811 19.8905 18.0724C19.8174 18.1638 19.7146 18.2266 19.6 18.25Z" fill="white"/>
</g>
<defs>
<clipPath id="clip0_608_693">
<rect width="24" height="24" fill="white"/>
</clipPath>
</defs>
</svg>
