<svg width="14" height="15" viewBox="0 0 14 15" fill="none" xmlns="http://www.w3.org/2000/svg">
<g clip-path="url(#clip0_6_5511)">
<path d="M8.61994 2.34038L3.59994 1.26038C3.53621 1.24409 3.46985 1.2408 3.40482 1.25071C3.33979 1.26061 3.27742 1.28352 3.22142 1.31804C3.16543 1.35257 3.11697 1.39802 3.07891 1.45168C3.04086 1.50534 3.01401 1.56611 2.99994 1.63038L1.63995 8.04038L0.629945 12.7504C0.603062 12.8763 0.626805 13.0077 0.696042 13.1162C0.765278 13.2248 0.874446 13.3017 0.999945 13.3304L2.19995 13.5904C2.26298 13.6035 2.328 13.6042 2.39128 13.5922C2.45455 13.5802 2.51485 13.5559 2.56872 13.5206C2.62258 13.4853 2.66896 13.4397 2.70521 13.3865C2.74145 13.3333 2.76685 13.2734 2.77994 13.2104L3.77994 8.53038L7.21994 9.27038C7.73235 9.38056 8.26289 9.37493 8.77284 9.2539C9.28279 9.13286 9.75928 8.89948 10.1675 8.57078C10.5757 8.24208 10.9054 7.82637 11.1325 7.35399C11.3596 6.88161 11.4783 6.36449 11.4799 5.84038C11.4765 5.01758 11.1905 4.22093 10.6699 3.58378C10.1493 2.94664 9.42556 2.50768 8.61994 2.34038V2.34038ZM7.25995 7.00038L4.25995 6.35038L4.80995 3.75038L7.80995 4.40038C8.15207 4.47464 8.45069 4.68176 8.6401 4.9762C8.82951 5.27063 8.8942 5.62825 8.81994 5.97038C8.74568 6.3125 8.53856 6.61112 8.24412 6.80053C7.94969 6.98994 7.59207 7.05464 7.24995 6.98038L7.25995 7.00038Z" stroke="#000001" stroke-linecap="round" stroke-linejoin="round"/>
<path d="M5.16016 14.25L5.78016 11.35L8.78016 11.98C11.0202 12.47 13.3802 10.12 13.4102 7.69C13.4105 7.28494 13.3429 6.88268 13.2102 6.5" stroke="#000001" stroke-linecap="round" stroke-linejoin="round"/>
</g>
<defs>
<clipPath id="clip0_6_5511">
<rect width="14" height="14" fill="white" transform="translate(0 0.75)"/>
</clipPath>
</defs>
</svg>
