<svg width="14" height="15" viewBox="0 0 14 15" fill="none" xmlns="http://www.w3.org/2000/svg">
<g clip-path="url(#clip0_6_5264)">
<path d="M7 13.2695C10.3137 13.2695 13 10.5832 13 7.26953C13 3.95582 10.3137 1.26953 7 1.26953C3.68629 1.26953 1 3.95582 1 7.26953C1 10.5832 3.68629 13.2695 7 13.2695Z" stroke="#000001" stroke-linecap="round" stroke-linejoin="round"/>
<path d="M10.0703 12.4297C11.0135 12.8501 11.8583 13.4632 12.5503 14.2297" stroke="#000001" stroke-linecap="round" stroke-linejoin="round"/>
<path d="M1.44922 14.2297C2.14124 13.4632 2.98601 12.8501 3.92922 12.4297" stroke="#000001" stroke-linecap="round" stroke-linejoin="round"/>
<path d="M7 10.2695C8.65685 10.2695 10 8.92639 10 7.26953C10 5.61268 8.65685 4.26953 7 4.26953C5.34315 4.26953 4 5.61268 4 7.26953C4 8.92639 5.34315 10.2695 7 10.2695Z" stroke="#000001" stroke-linecap="round" stroke-linejoin="round"/>
<path d="M7 7.76953C7.27614 7.76953 7.5 7.54567 7.5 7.26953C7.5 6.99339 7.27614 6.76953 7 6.76953C6.72386 6.76953 6.5 6.99339 6.5 7.26953C6.5 7.54567 6.72386 7.76953 7 7.76953Z" stroke="#000001" stroke-linecap="round" stroke-linejoin="round"/>
</g>
<defs>
<clipPath id="clip0_6_5264">
<rect width="14" height="14" fill="white" transform="translate(0 0.75)"/>
</clipPath>
</defs>
</svg>
