<svg width="14" height="15" viewBox="0 0 14 15" fill="none" xmlns="http://www.w3.org/2000/svg">
<g clip-path="url(#clip0_6_5490)">
<path d="M3 14.25V6.25C3 5.18913 3.42143 4.17172 4.17157 3.42157C4.92172 2.67143 5.93913 2.25 7 2.25C8.06087 2.25 9.07828 2.67143 9.82843 3.42157C10.5786 4.17172 11 5.18913 11 6.25V14.25" stroke="#000001" stroke-linecap="round" stroke-linejoin="round"/>
<path d="M3 11.75H11" stroke="#000001" stroke-linecap="round" stroke-linejoin="round"/>
<path d="M0.5 10.75V8.75C0.5 8.21957 0.710714 7.71086 1.08579 7.33579C1.46086 6.96071 1.96957 6.75 2.5 6.75H11.5C12.0304 6.75 12.5391 6.96071 12.9142 7.33579C13.2893 7.71086 13.5 8.21957 13.5 8.75V10.75" stroke="#000001" stroke-linecap="round" stroke-linejoin="round"/>
<path d="M10.9993 1.25L9.2793 2.97" stroke="#000001" stroke-linecap="round" stroke-linejoin="round"/>
<path d="M3 1.25L4.72 2.97" stroke="#000001" stroke-linecap="round" stroke-linejoin="round"/>
</g>
<defs>
<clipPath id="clip0_6_5490">
<rect width="14" height="14" fill="white" transform="translate(0 0.75)"/>
</clipPath>
</defs>
</svg>
