<svg width="14" height="15" viewBox="0 0 14 15" fill="none" xmlns="http://www.w3.org/2000/svg">
<g clip-path="url(#clip0_6_5515)">
<path d="M12.8703 9.37975L12.7803 9.30975C12.9207 8.80144 12.9947 8.27707 13.0003 7.74975C13.0003 6.15845 12.3681 4.63232 11.2429 3.50711C10.1177 2.38189 8.59155 1.74975 7.00025 1.74975C6.47672 1.75294 5.95577 1.82352 5.45025 1.95975L5.38025 1.86975C4.81606 1.40493 4.0915 1.18104 3.36344 1.24654C2.63537 1.31205 1.96241 1.66169 1.49025 2.21975C0.932193 2.6919 0.582558 3.36487 0.517051 4.09293C0.451545 4.82099 0.675438 5.54556 1.14025 6.10975L1.22025 6.16975C1.07585 6.68405 1.00184 7.21556 1.00025 7.74975C1.00025 9.34105 1.6324 10.8672 2.75761 11.9924C3.88283 13.1176 5.40896 13.7497 7.00025 13.7497C7.53444 13.7482 8.06595 13.6741 8.58025 13.5297L8.64025 13.6097C9.20445 14.0746 9.92901 14.2985 10.6571 14.2329C11.3851 14.1674 12.0581 13.8178 12.5303 13.2597C13.0839 12.7865 13.4297 12.1148 13.4933 11.3892C13.5569 10.6637 13.3332 9.94209 12.8703 9.37975V9.37975Z" stroke="#000001" stroke-linecap="round" stroke-linejoin="round"/>
<path d="M7.15091 4.81954C7.57091 4.81954 8.60091 4.96954 8.60091 5.55954C8.60496 5.62734 8.59542 5.69527 8.57285 5.75934C8.55028 5.8234 8.51515 5.88231 8.4695 5.93261C8.42386 5.98291 8.36863 6.02359 8.30705 6.05226C8.24547 6.08092 8.17879 6.097 8.11091 6.09954C7.80091 6.09954 7.57091 5.87954 7.11091 5.87954C6.65091 5.87954 6.51091 6.04954 6.51091 6.35954C6.52091 7.12954 9.00091 6.63954 9.00091 8.54954C8.99488 8.7887 8.94016 9.02412 8.84008 9.24141C8.74 9.45871 8.59667 9.65332 8.41885 9.81336C8.24103 9.9734 8.03245 10.0955 7.80585 10.1722C7.57925 10.2489 7.33938 10.2786 7.10091 10.2595C6.53091 10.2595 5.31091 10.1295 5.31091 9.42954C5.30681 9.36271 5.31645 9.29576 5.33924 9.2328C5.36202 9.16984 5.39746 9.11222 5.44338 9.0635C5.48929 9.01477 5.54471 8.97597 5.6062 8.94949C5.66769 8.92301 5.73396 8.90941 5.80091 8.90954C6.15091 8.90954 6.56091 9.19954 7.05091 9.19954C7.14316 9.21226 7.23706 9.20531 7.32644 9.17916C7.41581 9.153 7.49864 9.10823 7.56948 9.04778C7.64031 8.98733 7.69756 8.91258 7.73745 8.82843C7.77733 8.74428 7.79896 8.65264 7.80091 8.55954C7.80091 7.68954 5.33091 8.20954 5.33091 6.49954C5.3345 6.26795 5.38509 6.0395 5.47962 5.82806C5.57415 5.61661 5.71066 5.42657 5.88085 5.26947C6.05104 5.11237 6.25138 4.99148 6.4697 4.91414C6.68802 4.8368 6.91978 4.80461 7.15091 4.81954ZM7.15091 3.81954C6.78724 3.802 6.42377 3.8582 6.08237 3.98476C5.74098 4.11132 5.4287 4.30561 5.16433 4.55597C4.89997 4.80633 4.68897 5.10757 4.54402 5.44157C4.39908 5.77558 4.32319 6.13545 4.32091 6.49954C4.30841 6.8044 4.3628 7.1083 4.48028 7.3899C4.59775 7.67149 4.77546 7.92395 5.00091 8.12954C4.78338 8.26889 4.60494 8.46138 4.48246 8.68884C4.35999 8.9163 4.2975 9.17122 4.30091 9.42954C4.30091 10.5595 5.37091 11.2595 7.09091 11.2595C7.46194 11.2812 7.8335 11.2274 8.18316 11.1015C8.53282 10.9755 8.85332 10.78 9.1253 10.5267C9.39728 10.2734 9.61509 9.96761 9.76559 9.62779C9.91609 9.28796 9.99614 8.92116 10.0009 8.54954C10.0155 8.19357 9.94827 7.839 9.80438 7.51309C9.66049 7.18717 9.44378 6.8986 9.17091 6.66954C9.45257 6.36918 9.60672 5.97126 9.60091 5.55954C9.60091 4.35954 8.33091 3.81954 7.15091 3.81954Z" fill="#000001"/>
</g>
<defs>
<clipPath id="clip0_6_5515">
<rect width="14" height="14" fill="white" transform="translate(0 0.75)"/>
</clipPath>
</defs>
</svg>
