<svg width="14" height="15" viewBox="0 0 14 15" fill="none" xmlns="http://www.w3.org/2000/svg">
<g clip-path="url(#clip0_6_5350)">
<path d="M13.5 3.25V2.25C13.5 1.98478 13.3946 1.73043 13.2071 1.54289C13.0196 1.35536 12.7652 1.25 12.5 1.25H1.5C1.23478 1.25 0.98043 1.35536 0.792893 1.54289C0.605357 1.73043 0.5 1.98478 0.5 2.25V3.25" stroke="#000001" stroke-linecap="round" stroke-linejoin="round"/>
<path d="M0.5 12.25V13.25C0.5 13.5152 0.605357 13.7696 0.792893 13.9571C0.98043 14.1446 1.23478 14.25 1.5 14.25H12.5C12.7652 14.25 13.0196 14.1446 13.2071 13.9571C13.3946 13.7696 13.5 13.5152 13.5 13.25V12.5" stroke="#000001" stroke-linecap="round" stroke-linejoin="round"/>
<path d="M10.5 5.75H13.5" stroke="#000001" stroke-linecap="round" stroke-linejoin="round"/>
<path d="M12 5.75V9.75" stroke="#000001" stroke-linecap="round" stroke-linejoin="round"/>
<path d="M6.5 5.75V9.75H8.5" stroke="#000001" stroke-linecap="round" stroke-linejoin="round"/>
<path d="M3.5 9.75V7.25C3.5 6.85218 3.34196 6.47064 3.06066 6.18934C2.77936 5.90804 2.39782 5.75 2 5.75C1.60218 5.75 1.22064 5.90804 0.93934 6.18934C0.658035 6.47064 0.5 6.85218 0.5 7.25V9.75" stroke="#000001" stroke-linecap="round" stroke-linejoin="round"/>
<path d="M0.5 8.25H3.5" stroke="#000001" stroke-linecap="round" stroke-linejoin="round"/>
</g>
<defs>
<clipPath id="clip0_6_5350">
<rect width="14" height="14" fill="white" transform="translate(0 0.75)"/>
</clipPath>
</defs>
</svg>
