<svg width="14" height="15" viewBox="0 0 14 15" fill="none" xmlns="http://www.w3.org/2000/svg">
<g clip-path="url(#clip0_6_5321)">
<path d="M13.5 13.25C13.5 13.5152 13.3946 13.7696 13.2071 13.9571C13.0196 14.1446 12.7652 14.25 12.5 14.25H1.5C1.23478 14.25 0.98043 14.1446 0.792893 13.9571C0.605357 13.7696 0.5 13.5152 0.5 13.25V5.66C0.501105 5.39766 0.605256 5.14626 0.79 4.96L4.21 1.54C4.39626 1.35526 4.64766 1.2511 4.91 1.25H12.5C12.7652 1.25 13.0196 1.35536 13.2071 1.54289C13.3946 1.73043 13.5 1.98478 13.5 2.25V13.25Z" stroke="#000001" stroke-linecap="round" stroke-linejoin="round"/>
<path d="M10.5 14.25V9.75C10.5 9.61739 10.4473 9.49021 10.3536 9.39645C10.2598 9.30268 10.1326 9.25 10 9.25H4C3.86739 9.25 3.74021 9.30268 3.64645 9.39645C3.55268 9.49021 3.5 9.61739 3.5 9.75V14.25" stroke="#000001" stroke-linecap="round" stroke-linejoin="round"/>
<path d="M10.5 1.25V4.75C10.5 4.88261 10.4473 5.00979 10.3536 5.10355C10.2598 5.19732 10.1326 5.25 10 5.25H6C5.86739 5.25 5.74021 5.19732 5.64645 5.10355C5.55268 5.00979 5.5 4.88261 5.5 4.75V1.25" stroke="#000001" stroke-linecap="round" stroke-linejoin="round"/>
</g>
<defs>
<clipPath id="clip0_6_5321">
<rect width="14" height="14" fill="white" transform="translate(0 0.75)"/>
</clipPath>
</defs>
</svg>
