<svg width="14" height="15" viewBox="0 0 14 15" fill="none" xmlns="http://www.w3.org/2000/svg">
<g clip-path="url(#clip0_6_5540)">
<path d="M12.5 6.25H1.5C0.947715 6.25 0.5 6.69772 0.5 7.25V13.25C0.5 13.8023 0.947715 14.25 1.5 14.25H12.5C13.0523 14.25 13.5 13.8023 13.5 13.25V7.25C13.5 6.69772 13.0523 6.25 12.5 6.25Z" stroke="#000001" stroke-linecap="round" stroke-linejoin="round"/>
<path d="M7 6.25V1.25" stroke="#000001" stroke-linecap="round" stroke-linejoin="round"/>
<path d="M10 11.75C10.8284 11.75 11.5 11.0784 11.5 10.25C11.5 9.42157 10.8284 8.75 10 8.75C9.17157 8.75 8.5 9.42157 8.5 10.25C8.5 11.0784 9.17157 11.75 10 11.75Z" stroke="#000001" stroke-linecap="round" stroke-linejoin="round"/>
<path d="M4 11.75C4.82843 11.75 5.5 11.0784 5.5 10.25C5.5 9.42157 4.82843 8.75 4 8.75C3.17157 8.75 2.5 9.42157 2.5 10.25C2.5 11.0784 3.17157 11.75 4 11.75Z" stroke="#000001" stroke-linecap="round" stroke-linejoin="round"/>
</g>
<defs>
<clipPath id="clip0_6_5540">
<rect width="14" height="14" fill="white" transform="translate(0 0.75)"/>
</clipPath>
</defs>
</svg>
