<svg width="14" height="15" viewBox="0 0 14 15" fill="none" xmlns="http://www.w3.org/2000/svg">
<g clip-path="url(#clip0_6_5127)">
<path d="M12.93 12.0897C8.99655 11.5297 5.00354 11.5297 1.07004 12.0897C0.999595 12.0997 0.927831 12.0945 0.859546 12.0745C0.791262 12.0545 0.72803 12.0202 0.674075 11.9738C0.620121 11.9275 0.576687 11.8701 0.546675 11.8056C0.516664 11.7411 0.500766 11.6709 0.500044 11.5997V3.23975C0.499081 3.16808 0.513853 3.09707 0.543318 3.03173C0.572783 2.96639 0.616223 2.90831 0.670576 2.86159C0.724928 2.81486 0.788869 2.78063 0.857891 2.76131C0.926912 2.74198 0.999332 2.73804 1.07004 2.74975C5.00425 3.29975 8.99584 3.29975 12.93 2.74975C12.9999 2.73818 13.0715 2.7419 13.1398 2.76065C13.2081 2.7794 13.2715 2.81274 13.3257 2.85836C13.3799 2.90399 13.4235 2.96081 13.4536 3.02493C13.4837 3.08904 13.4995 3.15892 13.5 3.22975V11.5897C13.5008 11.6617 13.4859 11.733 13.4565 11.7988C13.4271 11.8645 13.3839 11.9231 13.3298 11.9706C13.2757 12.018 13.2119 12.0533 13.1429 12.0738C13.0739 12.0944 13.0013 12.0998 12.93 12.0897V12.0897Z" stroke="#000001" stroke-linecap="round" stroke-linejoin="round"/>
<path d="M7 11.6699V14.1699" stroke="#000001" stroke-linecap="round" stroke-linejoin="round"/>
<path d="M4.5 14.1699H9.5" stroke="#000001" stroke-linecap="round" stroke-linejoin="round"/>
</g>
<defs>
<clipPath id="clip0_6_5127">
<rect width="14" height="14" fill="white" transform="translate(0 0.75)"/>
</clipPath>
</defs>
</svg>
