<svg width="14" height="15" viewBox="0 0 14 15" fill="none" xmlns="http://www.w3.org/2000/svg">
<g clip-path="url(#clip0_6_5294)">
<path d="M12.5 1.75H1.5C0.947715 1.75 0.5 2.19772 0.5 2.75V6.75C0.5 7.30228 0.947715 7.75 1.5 7.75H12.5C13.0523 7.75 13.5 7.30228 13.5 6.75V2.75C13.5 2.19772 13.0523 1.75 12.5 1.75Z" stroke="#000001" stroke-linecap="round" stroke-linejoin="round"/>
<path d="M3.5 5.25C3.77614 5.25 4 5.02614 4 4.75C4 4.47386 3.77614 4.25 3.5 4.25C3.22386 4.25 3 4.47386 3 4.75C3 5.02614 3.22386 5.25 3.5 5.25Z" stroke="#000001" stroke-linecap="round" stroke-linejoin="round"/>
<path d="M7.5 4.75H11" stroke="#000001" stroke-linecap="round" stroke-linejoin="round"/>
<path d="M1.5 7.75C1.23478 7.75 0.98043 7.85536 0.792893 8.04289C0.605357 8.23043 0.5 8.48478 0.5 8.75V12.75C0.5 13.0152 0.605357 13.2696 0.792893 13.4571C0.98043 13.6446 1.23478 13.75 1.5 13.75H12.5C12.7652 13.75 13.0196 13.6446 13.2071 13.4571C13.3946 13.2696 13.5 13.0152 13.5 12.75V8.75C13.5 8.48478 13.3946 8.23043 13.2071 8.04289C13.0196 7.85536 12.7652 7.75 12.5 7.75" stroke="#000001" stroke-linecap="round" stroke-linejoin="round"/>
<path d="M3.5 11.25C3.77614 11.25 4 11.0261 4 10.75C4 10.4739 3.77614 10.25 3.5 10.25C3.22386 10.25 3 10.4739 3 10.75C3 11.0261 3.22386 11.25 3.5 11.25Z" stroke="#000001" stroke-linecap="round" stroke-linejoin="round"/>
<path d="M7.5 10.75H11" stroke="#000001" stroke-linecap="round" stroke-linejoin="round"/>
</g>
<defs>
<clipPath id="clip0_6_5294">
<rect width="14" height="14" fill="white" transform="translate(0 0.75)"/>
</clipPath>
</defs>
</svg>
