<svg width="14" height="15" viewBox="0 0 14 15" fill="none" xmlns="http://www.w3.org/2000/svg">
<g clip-path="url(#clip0_6_5526)">
<path d="M7 6.57023H13.5V2.07022C13.5007 1.99954 13.4861 1.92953 13.4573 1.86501C13.4284 1.80049 13.3859 1.74298 13.3327 1.69643C13.2795 1.64988 13.2169 1.6154 13.1491 1.59534C13.0813 1.57528 13.01 1.57012 12.94 1.58022L7 2.29022V6.57023Z" stroke="#000001" stroke-linecap="round" stroke-linejoin="round"/>
<path d="M5.00001 6.56996V2.45996L0.940013 2.95996C0.818058 2.9747 0.705796 3.03382 0.624643 3.12604C0.54349 3.21825 0.499126 3.33712 0.500013 3.45996V6.56996H5.00001Z" stroke="#000001" stroke-linecap="round" stroke-linejoin="round"/>
<path d="M5 8.57031H0.5V11.5703C0.500467 11.6896 0.542748 11.805 0.619487 11.8963C0.696225 11.9877 0.802564 12.0493 0.92 12.0703L5 12.7503V8.57031Z" stroke="#000001" stroke-linecap="round" stroke-linejoin="round"/>
<path d="M7 8.57031V12.9703L12.92 13.9203C12.9912 13.9319 13.0641 13.9279 13.1336 13.9086C13.2031 13.8893 13.2676 13.8552 13.3227 13.8087C13.3778 13.7622 13.4222 13.7042 13.4528 13.6389C13.4834 13.5736 13.4995 13.5024 13.5 13.4303V8.57031H7Z" stroke="#000001" stroke-linecap="round" stroke-linejoin="round"/>
</g>
<defs>
<clipPath id="clip0_6_5526">
<rect width="14" height="14" fill="white" transform="translate(0 0.75)"/>
</clipPath>
</defs>
</svg>
