<svg width="14" height="15" viewBox="0 0 14 15" fill="none" xmlns="http://www.w3.org/2000/svg">
<g clip-path="url(#clip0_6_5369)">
<path d="M11.75 10.75C12.0961 10.75 12.4345 10.8526 12.7222 11.0449C13.01 11.2372 13.2343 11.5105 13.3668 11.8303C13.4992 12.1501 13.5339 12.5019 13.4664 12.8414C13.3989 13.1809 13.2322 13.4927 12.9874 13.7374C12.7427 13.9822 12.4309 14.1489 12.0914 14.2164C11.7519 14.2839 11.4001 14.2492 11.0803 14.1168C10.7605 13.9843 10.4872 13.76 10.2949 13.4722C10.1026 13.1845 10 12.8461 10 12.5V3C10 2.65388 10.1026 2.31554 10.2949 2.02775C10.4872 1.73997 10.7605 1.51566 11.0803 1.38321C11.4001 1.25076 11.7519 1.2161 12.0914 1.28363C12.4309 1.35115 12.7427 1.51782 12.9874 1.76256C13.2322 2.00731 13.3989 2.31913 13.4664 2.65859C13.5339 2.99806 13.4992 3.34993 13.3668 3.6697C13.2343 3.98947 13.01 4.26278 12.7222 4.45507C12.4345 4.64737 12.0961 4.75 11.75 4.75H2.25C1.90388 4.75 1.56554 4.64737 1.27775 4.45507C0.989967 4.26278 0.765665 3.98947 0.633212 3.6697C0.500758 3.34993 0.466102 2.99806 0.533627 2.65859C0.601151 2.31913 0.767822 2.00731 1.01256 1.76256C1.25731 1.51782 1.56913 1.35115 1.90859 1.28363C2.24806 1.2161 2.59993 1.25076 2.9197 1.38321C3.23947 1.51566 3.51278 1.73997 3.70507 2.02775C3.89737 2.31554 4 2.65388 4 3V12.5C4 12.8461 3.89737 13.1845 3.70507 13.4722C3.51278 13.76 3.23947 13.9843 2.9197 14.1168C2.59993 14.2492 2.24806 14.2839 1.90859 14.2164C1.56913 14.1489 1.25731 13.9822 1.01256 13.7374C0.767822 13.4927 0.601151 13.1809 0.533627 12.8414C0.466102 12.5019 0.500758 12.1501 0.633212 11.8303C0.765665 11.5105 0.989967 11.2372 1.27775 11.0449C1.56554 10.8526 1.90388 10.75 2.25 10.75H11.75Z" stroke="#000001" stroke-linecap="round" stroke-linejoin="round"/>
</g>
<defs>
<clipPath id="clip0_6_5369">
<rect width="14" height="14" fill="white" transform="translate(0 0.75)"/>
</clipPath>
</defs>
</svg>
