<svg width="14" height="15" viewBox="0 0 14 15" fill="none" xmlns="http://www.w3.org/2000/svg">
<path d="M12.82 4.5L10 5.75V4.25C10 3.98478 9.89464 3.73043 9.70711 3.54289C9.51957 3.35536 9.26522 3.25 9 3.25H1.5C1.23478 3.25 0.98043 3.35536 0.792893 3.54289C0.605357 3.73043 0.5 3.98478 0.5 4.25V11.25C0.5 11.5152 0.605357 11.7696 0.792893 11.9571C0.98043 12.1446 1.23478 12.25 1.5 12.25H9C9.26522 12.25 9.51957 12.1446 9.70711 11.9571C9.89464 11.7696 10 11.5152 10 11.25V9.75L12.82 11C12.896 11.0293 12.9781 11.0397 13.059 11.03C13.1399 11.0204 13.2173 10.9912 13.2843 10.9448C13.3513 10.8985 13.406 10.8365 13.4436 10.7642C13.4812 10.6919 13.5006 10.6115 13.5 10.53V4.97C13.5006 4.88851 13.4812 4.80811 13.4436 4.73581C13.406 4.66351 13.3513 4.60149 13.2843 4.55516C13.2173 4.50882 13.1399 4.47958 13.059 4.46996C12.9781 4.46035 12.896 4.47066 12.82 4.5V4.5Z" stroke="#000001" stroke-linecap="round" stroke-linejoin="round"/>
</svg>
