<svg width="14" height="15" viewBox="0 0 14 15" fill="none" xmlns="http://www.w3.org/2000/svg">
<path d="M2.49979 8.75L0.719791 11.3C0.639499 11.4564 0.601845 11.6311 0.610623 11.8067C0.619401 11.9823 0.674301 12.1524 0.769791 12.3C0.859861 12.4441 0.985173 12.5629 1.1339 12.6451C1.28262 12.7274 1.44985 12.7703 1.61979 12.77H12.3798C12.5497 12.7703 12.717 12.7274 12.8657 12.6451C13.0144 12.5629 13.1397 12.4441 13.2298 12.3C13.3176 12.148 13.3638 11.9755 13.3638 11.8C13.3638 11.6245 13.3176 11.452 13.2298 11.3L11.4998 8.75" stroke="#000001" stroke-linecap="round" stroke-linejoin="round"/>
<path d="M3.5 2.75C3.23478 2.75 2.98043 2.85536 2.79289 3.04289C2.60536 3.23043 2.5 3.48478 2.5 3.75V8.75H11.5V3.75C11.5 3.48478 11.3946 3.23043 11.2071 3.04289C11.0196 2.85536 10.7652 2.75 10.5 2.75H3.5Z" stroke="#000001" stroke-linecap="round" stroke-linejoin="round"/>
</svg>
