<svg width="14" height="15" viewBox="0 0 14 15" fill="none" xmlns="http://www.w3.org/2000/svg">
<g clip-path="url(#clip0_6_5202)">
<path d="M11.5 2.75H13C13.1326 2.75 13.2598 2.80268 13.3536 2.89645C13.4473 2.99021 13.5 3.11739 13.5 3.25V11.25C13.5 11.3826 13.4473 11.5098 13.3536 11.6036C13.2598 11.6973 13.1326 11.75 13 11.75H1C0.867392 11.75 0.740215 11.6973 0.646447 11.6036C0.552678 11.5098 0.5 11.3826 0.5 11.25V3.25C0.5 3.11739 0.552678 2.99021 0.646447 2.89645C0.740215 2.80268 0.867392 2.75 1 2.75H2.5" stroke="#000001" stroke-linecap="round" stroke-linejoin="round"/>
<path d="M6 11.75L5 14.25" stroke="#000001" stroke-linecap="round" stroke-linejoin="round"/>
<path d="M8 11.75L9 14.25" stroke="#000001" stroke-linecap="round" stroke-linejoin="round"/>
<path d="M4 14.25H10" stroke="#000001" stroke-linecap="round" stroke-linejoin="round"/>
<path d="M6.45016 3.10986C6.49321 2.99898 6.56876 2.90371 6.66691 2.83653C6.76506 2.76935 6.88122 2.7334 7.00016 2.7334C7.1191 2.7334 7.23526 2.76935 7.33341 2.83653C7.43156 2.90371 7.50711 2.99898 7.55016 3.10986L8.19016 4.74986H9.90016C10.0217 4.75165 10.14 4.78973 10.2398 4.85922C10.3396 4.92871 10.4163 5.02644 10.4602 5.13986C10.4939 5.24626 10.4968 5.36005 10.4685 5.46803C10.4402 5.576 10.3818 5.67373 10.3002 5.74986L8.79016 7.08986L9.43016 8.36986C9.4881 8.48223 9.50773 8.61046 9.48606 8.73501C9.4644 8.85957 9.40263 8.97364 9.31016 9.05986C9.21994 9.14991 9.10299 9.20831 8.9768 9.22634C8.85062 9.24437 8.72198 9.22104 8.61016 9.15986L7.00016 8.27986L5.39016 9.15986C5.27834 9.22104 5.14971 9.24437 5.02352 9.22634C4.89733 9.20831 4.78038 9.14991 4.69016 9.05986C4.59769 8.97364 4.53592 8.85957 4.51426 8.73501C4.4926 8.61046 4.51223 8.48223 4.57016 8.36986L5.21016 7.08986L3.70016 5.74986C3.61078 5.67048 3.54763 5.56582 3.51905 5.44974C3.49048 5.33367 3.49784 5.21165 3.54016 5.09986C3.59006 4.99392 3.6694 4.90459 3.7687 4.84252C3.868 4.78046 3.98307 4.74829 4.10016 4.74986H5.81016L6.45016 3.10986Z" stroke="#000001" stroke-linecap="round" stroke-linejoin="round"/>
</g>
<defs>
<clipPath id="clip0_6_5202">
<rect width="14" height="14" fill="white" transform="translate(0 0.75)"/>
</clipPath>
</defs>
</svg>
