<svg width="14" height="15" viewBox="0 0 14 15" fill="none" xmlns="http://www.w3.org/2000/svg">
<path d="M3.99996 10.1503C3.28589 10.7111 2.4663 11.1226 1.58996 11.3603C1.49343 11.3953 1.41003 11.4592 1.3511 11.5433C1.29216 11.6274 1.26054 11.7276 1.26054 11.8303C1.26054 11.933 1.29216 12.0331 1.3511 12.1172C1.41003 12.2013 1.49343 12.2652 1.58996 12.3003C8.50996 15.1403 12.91 10.7503 12.24 5.88027L13.36 3.56027H12.06C10.44 1.57027 6.13996 1.67027 6.84996 5.91027C6.84996 5.91027 4.54996 6.32027 1.60996 3.43027C1.54195 3.36312 1.45612 3.31688 1.36264 3.297C1.26916 3.27713 1.17195 3.28447 1.08251 3.31814C0.993067 3.35181 0.915151 3.41041 0.857985 3.48699C0.80082 3.56358 0.766801 3.65494 0.759956 3.75027C0.449088 5.02812 0.60466 6.37497 1.19866 7.5483C1.79266 8.72163 2.78605 9.64433 3.99996 10.1503V10.1503Z" stroke="#000001" stroke-linecap="round" stroke-linejoin="round"/>
</svg>
