<svg width="14" height="15" viewBox="0 0 14 15" fill="none" xmlns="http://www.w3.org/2000/svg">
<path d="M13.5 7.25H0.5V12.25C0.5 12.5152 0.605357 12.7696 0.792893 12.9571C0.98043 13.1446 1.23478 13.25 1.5 13.25H4.5C4.65021 13.2493 4.79832 13.2148 4.93336 13.149C5.06839 13.0832 5.18687 12.9879 5.28 12.87L6.59 11.24C6.63685 11.1816 6.69622 11.1345 6.76372 11.1021C6.83122 11.0697 6.90513 11.0529 6.98 11.0529C7.05487 11.0529 7.12878 11.0697 7.19628 11.1021C7.26378 11.1345 7.32315 11.1816 7.37 11.24L8.7 12.87C8.79313 12.9879 8.91161 13.0832 9.04664 13.149C9.18167 13.2148 9.32979 13.2493 9.48 13.25H12.48C12.7452 13.25 12.9996 13.1446 13.1871 12.9571C13.3746 12.7696 13.48 12.5152 13.48 12.25L13.5 7.25Z" stroke="#000001" stroke-linecap="round" stroke-linejoin="round"/>
<path d="M13.5 7.24977L10.79 2.74977C10.7015 2.60049 10.5757 2.47681 10.4249 2.3909C10.2741 2.30499 10.1035 2.2598 9.93 2.25977H4.07C3.89646 2.2598 3.72591 2.30499 3.57512 2.3909C3.42434 2.47681 3.29851 2.60049 3.21 2.74977L0.5 7.24977" stroke="#000001" stroke-linecap="round" stroke-linejoin="round"/>
</svg>
