<svg width="14" height="15" viewBox="0 0 14 15" fill="none" xmlns="http://www.w3.org/2000/svg">
<path d="M13.5 6.25C13.5 6.11739 13.4473 5.99021 13.3536 5.89645C13.2598 5.80268 13.1326 5.75 13 5.75H12V4.75C12 4.48478 11.8946 4.23043 11.7071 4.04289C11.5196 3.85536 11.2652 3.75 11 3.75H1.5C1.23478 3.75 0.98043 3.85536 0.792893 4.04289C0.605357 4.23043 0.5 4.48478 0.5 4.75V10.75C0.5 11.0152 0.605357 11.2696 0.792893 11.4571C0.98043 11.6446 1.23478 11.75 1.5 11.75H11C11.2652 11.75 11.5196 11.6446 11.7071 11.4571C11.8946 11.2696 12 11.0152 12 10.75V9.75H13C13.1326 9.75 13.2598 9.69732 13.3536 9.60355C13.4473 9.50979 13.5 9.38261 13.5 9.25V6.25Z" stroke="#000001" stroke-linecap="round" stroke-linejoin="round"/>
<path d="M3.25 6.25V9.25" stroke="#000001" stroke-linecap="round" stroke-linejoin="round"/>
<path d="M6.25 6.25V9.25" stroke="#000001" stroke-linecap="round" stroke-linejoin="round"/>
<path d="M9.25 6.25V9.25" stroke="#000001" stroke-linecap="round" stroke-linejoin="round"/>
</svg>
