<svg width="14" height="15" viewBox="0 0 14 15" fill="none" xmlns="http://www.w3.org/2000/svg">
<path d="M3 10.25L0.5 7.75L3 5.25" stroke="#000001" stroke-linecap="round" stroke-linejoin="round"/>
<path d="M11 10.25L13.5 7.75L11 5.25" stroke="#000001" stroke-linecap="round" stroke-linejoin="round"/>
<path d="M9 8.25C9.27614 8.25 9.5 8.02614 9.5 7.75C9.5 7.47386 9.27614 7.25 9 7.25C8.72386 7.25 8.5 7.47386 8.5 7.75C8.5 8.02614 8.72386 8.25 9 8.25Z" stroke="#000001" stroke-linecap="round" stroke-linejoin="round"/>
<path d="M5 8.25C5.27614 8.25 5.5 8.02614 5.5 7.75C5.5 7.47386 5.27614 7.25 5 7.25C4.72386 7.25 4.5 7.47386 4.5 7.75C4.5 8.02614 4.72386 8.25 5 8.25Z" stroke="#000001" stroke-linecap="round" stroke-linejoin="round"/>
</svg>
