<svg width="14" height="15" viewBox="0 0 14 15" fill="none" xmlns="http://www.w3.org/2000/svg">
<g clip-path="url(#clip0_6_5132)">
<path d="M12.5 3.75H1.5C0.947715 3.75 0.5 4.19772 0.5 4.75V13.25C0.5 13.8023 0.947715 14.25 1.5 14.25H12.5C13.0523 14.25 13.5 13.8023 13.5 13.25V4.75C13.5 4.19772 13.0523 3.75 12.5 3.75Z" stroke="#000001" stroke-linecap="round" stroke-linejoin="round"/>
<path d="M10 6.25H4C3.44772 6.25 3 6.69772 3 7.25V10.75C3 11.3023 3.44772 11.75 4 11.75H10C10.5523 11.75 11 11.3023 11 10.75V7.25C11 6.69772 10.5523 6.25 10 6.25Z" stroke="#000001" stroke-linecap="round" stroke-linejoin="round"/>
<path d="M5 1.25L7 3.75L9 1.25" stroke="#000001" stroke-linecap="round" stroke-linejoin="round"/>
</g>
<defs>
<clipPath id="clip0_6_5132">
<rect width="14" height="14" fill="white" transform="translate(0 0.75)"/>
</clipPath>
</defs>
</svg>
