<svg width="14" height="15" viewBox="0 0 14 15" fill="none" xmlns="http://www.w3.org/2000/svg">
<g clip-path="url(#clip0_6_5563)">
<path d="M12.5 10.25C12.5 7.25 10.04 5.25 7 5.25C3.96 5.25 1.5 7.25 1.5 10.25V14.25H12.5V10.25Z" stroke="#000001" stroke-linecap="round" stroke-linejoin="round"/>
<path d="M7 5.25V1.25" stroke="#000001" stroke-linecap="round" stroke-linejoin="round"/>
<path d="M1.5 11.25H12.5" stroke="#000001" stroke-linecap="round" stroke-linejoin="round"/>
<path d="M5 11.25V14.25" stroke="#000001" stroke-linecap="round" stroke-linejoin="round"/>
<path d="M9 11.25V14.25" stroke="#000001" stroke-linecap="round" stroke-linejoin="round"/>
<path d="M5 9.25C5.27614 9.25 5.5 9.02614 5.5 8.75C5.5 8.47386 5.27614 8.25 5 8.25C4.72386 8.25 4.5 8.47386 4.5 8.75C4.5 9.02614 4.72386 9.25 5 9.25Z" stroke="#000001" stroke-linecap="round" stroke-linejoin="round"/>
<path d="M9 9.25C9.27614 9.25 9.5 9.02614 9.5 8.75C9.5 8.47386 9.27614 8.25 9 8.25C8.72386 8.25 8.5 8.47386 8.5 8.75C8.5 9.02614 8.72386 9.25 9 9.25Z" stroke="#000001" stroke-linecap="round" stroke-linejoin="round"/>
</g>
<defs>
<clipPath id="clip0_6_5563">
<rect width="14" height="14" fill="white" transform="translate(0 0.75)"/>
</clipPath>
</defs>
</svg>
