<svg width="14" height="15" viewBox="0 0 14 15" fill="none" xmlns="http://www.w3.org/2000/svg">
<g clip-path="url(#clip0_6_5505)">
<path d="M11.3601 6.5799H8.87008C8.80225 6.57988 8.73511 6.5934 8.67257 6.61965C8.61004 6.6459 8.55336 6.68437 8.50587 6.73279C8.45838 6.78121 8.42103 6.83862 8.39599 6.90166C8.37096 6.96469 8.35875 7.03209 8.36008 7.0999V8.5099C8.36008 8.64516 8.41381 8.77488 8.50945 8.87052C8.6051 8.96616 8.73482 9.0199 8.87008 9.0199H10.1601C10.1673 9.40641 10.093 9.79011 9.9419 10.146C9.79083 10.5018 9.56643 10.8218 9.28334 11.0851C9.00026 11.3483 8.66485 11.549 8.29899 11.6739C7.93313 11.7988 7.54506 11.8451 7.16008 11.8099C4.92008 11.8099 3.84008 9.9099 3.84008 7.7499C3.84008 5.5899 5.00008 3.6899 7.16008 3.6899C8.11368 3.65825 9.04809 3.96264 9.80008 4.5499C9.86018 4.58923 9.9282 4.61487 9.99932 4.625C10.0704 4.63513 10.1429 4.6295 10.2116 4.60851C10.2803 4.58752 10.3435 4.55168 10.3968 4.50354C10.4502 4.45539 10.4922 4.39611 10.5201 4.3299L11.1501 2.8899C11.2019 2.78376 11.2153 2.66293 11.1879 2.54803C11.1605 2.43313 11.0942 2.33129 11.0001 2.2599C9.85335 1.57419 8.53579 1.22747 7.20008 1.2599C3.56008 1.2499 1.08008 4.0799 1.08008 7.7499C1.08008 11.4199 3.57008 14.2499 7.16008 14.2499C10.7501 14.2499 12.9201 11.6899 12.9201 8.2499C12.9201 7.1499 12.4801 6.5799 11.3601 6.5799Z" stroke="#000001" stroke-linecap="round" stroke-linejoin="round"/>
</g>
<defs>
<clipPath id="clip0_6_5505">
<rect width="14" height="14" fill="white" transform="translate(0 0.75)"/>
</clipPath>
</defs>
</svg>
