<svg width="14" height="15" viewBox="0 0 14 15" fill="none" xmlns="http://www.w3.org/2000/svg">
<g clip-path="url(#clip0_6_5172)">
<path d="M11.5 2.75H13C13.1326 2.75 13.2598 2.80268 13.3536 2.89645C13.4473 2.99021 13.5 3.11739 13.5 3.25V11.25C13.5 11.3826 13.4473 11.5098 13.3536 11.6036C13.2598 11.6973 13.1326 11.75 13 11.75H1C0.867392 11.75 0.740215 11.6973 0.646447 11.6036C0.552678 11.5098 0.5 11.3826 0.5 11.25V3.25C0.5 3.11739 0.552678 2.99021 0.646447 2.89645C0.740215 2.80268 0.867392 2.75 1 2.75H2.5" stroke="#000001" stroke-linecap="round" stroke-linejoin="round"/>
<path d="M6 11.75L5 14.25" stroke="#000001" stroke-linecap="round" stroke-linejoin="round"/>
<path d="M8 11.75L9 14.25" stroke="#000001" stroke-linecap="round" stroke-linejoin="round"/>
<path d="M4 14.25H10" stroke="#000001" stroke-linecap="round" stroke-linejoin="round"/>
<path d="M7 8.75C8.65685 8.75 10 7.40685 10 5.75C10 4.09315 8.65685 2.75 7 2.75C5.34315 2.75 4 4.09315 4 5.75C4 7.40685 5.34315 8.75 7 8.75Z" stroke="#000001" stroke-linecap="round" stroke-linejoin="round"/>
<path d="M4.88086 7.86988L9.12086 3.62988" stroke="#000001" stroke-linecap="round" stroke-linejoin="round"/>
</g>
<defs>
<clipPath id="clip0_6_5172">
<rect width="14" height="14" fill="white" transform="translate(0 0.75)"/>
</clipPath>
</defs>
</svg>
