<svg width="14" height="15" viewBox="0 0 14 15" fill="none" xmlns="http://www.w3.org/2000/svg">
<g clip-path="url(#clip0_6_5344)">
<path d="M12.5 6.25H1.5C0.947715 6.25 0.5 6.69772 0.5 7.25V13.25C0.5 13.8023 0.947715 14.25 1.5 14.25H12.5C13.0523 14.25 13.5 13.8023 13.5 13.25V7.25C13.5 6.69772 13.0523 6.25 12.5 6.25Z" stroke="#000001" stroke-linecap="round" stroke-linejoin="round"/>
<path d="M3.5 11.5H10.5" stroke="#000001" stroke-linecap="round" stroke-linejoin="round"/>
<path d="M3.5 9H10.5" stroke="#000001" stroke-linecap="round" stroke-linejoin="round"/>
<path d="M3.5 6.25V5.25C3.5 4.71957 3.71071 4.21086 4.08579 3.83579C4.46086 3.46071 4.96957 3.25 5.5 3.25H9.5C10.0304 3.25 10.5391 3.03929 10.9142 2.66421C11.2893 2.28914 11.5 1.78043 11.5 1.25" stroke="#000001" stroke-linecap="round" stroke-linejoin="round"/>
</g>
<defs>
<clipPath id="clip0_6_5344">
<rect width="14" height="14" fill="white" transform="translate(0 0.75)"/>
</clipPath>
</defs>
</svg>
