<svg width="14" height="15" viewBox="0 0 14 15" fill="none" xmlns="http://www.w3.org/2000/svg">
<g clip-path="url(#clip0_6_5521)">
<path d="M0.94 2.75026L12.94 1.37026C13.01 1.36016 13.0813 1.36532 13.1491 1.38538C13.2169 1.40543 13.2795 1.43992 13.3327 1.48647C13.3859 1.53302 13.4284 1.59053 13.4573 1.65505C13.4861 1.71957 13.5007 1.78958 13.5 1.86026V13.6803C13.4995 13.7524 13.4834 13.8236 13.4528 13.8889C13.4222 13.9542 13.3778 14.0121 13.3227 14.0587C13.2676 14.1052 13.2031 14.1393 13.1336 14.1585C13.0641 14.1778 12.9912 14.1818 12.92 14.1703L0.92 12.3303C0.802564 12.3092 0.696225 12.2477 0.619487 12.1563C0.542748 12.0649 0.500467 11.9496 0.5 11.8303V3.21026C0.50849 3.09442 0.557051 2.98514 0.637342 2.9012C0.717633 2.81726 0.824644 2.76389 0.94 2.75026V2.75026Z" stroke="#000001" stroke-linecap="round" stroke-linejoin="round"/>
<path d="M6 2.12988V13.1099" stroke="#000001" stroke-linecap="round" stroke-linejoin="round"/>
<path d="M13.5 7.51074H0.5" stroke="#000001" stroke-linecap="round" stroke-linejoin="round"/>
</g>
<defs>
<clipPath id="clip0_6_5521">
<rect width="14" height="14" fill="white" transform="translate(0 0.75)"/>
</clipPath>
</defs>
</svg>
