<svg width="14" height="15" viewBox="0 0 14 15" fill="none" xmlns="http://www.w3.org/2000/svg">
<g clip-path="url(#clip0_6_5436)">
<path d="M7 11.25C8.933 11.25 10.5 9.683 10.5 7.75C10.5 5.817 8.933 4.25 7 4.25C5.067 4.25 3.5 5.817 3.5 7.75C3.5 9.683 5.067 11.25 7 11.25Z" stroke="#000001" stroke-linecap="round" stroke-linejoin="round"/>
<path d="M9 4.88V2.25C9 1.98478 8.89464 1.73043 8.70711 1.54289C8.51957 1.35536 8.26522 1.25 8 1.25H6C5.73478 1.25 5.48043 1.35536 5.29289 1.54289C5.10536 1.73043 5 1.98478 5 2.25V4.88" stroke="#000001" stroke-linecap="round" stroke-linejoin="round"/>
<path d="M9 10.6201V13.2501C9 13.5153 8.89464 13.7697 8.70711 13.9572C8.51957 14.1448 8.26522 14.2501 8 14.2501H6C5.73478 14.2501 5.48043 14.1448 5.29289 13.9572C5.10536 13.7697 5 13.5153 5 13.2501V10.6201" stroke="#000001" stroke-linecap="round" stroke-linejoin="round"/>
</g>
<defs>
<clipPath id="clip0_6_5436">
<rect width="14" height="14" fill="white" transform="translate(0 0.75)"/>
</clipPath>
</defs>
</svg>
