<svg width="14" height="15" viewBox="0 0 14 15" fill="none" xmlns="http://www.w3.org/2000/svg">
<g clip-path="url(#clip0_6_5282)">
<path d="M10.5 11.75H12.5C12.7652 11.75 13.0196 11.6446 13.2071 11.4571C13.3946 11.2696 13.5 11.0152 13.5 10.75V6.25C13.5 5.98478 13.3946 5.73043 13.2071 5.54289C13.0196 5.35536 12.7652 5.25 12.5 5.25H1.5C1.23478 5.25 0.98043 5.35536 0.792893 5.54289C0.605357 5.73043 0.5 5.98478 0.5 6.25V10.75C0.5 11.0152 0.605357 11.2696 0.792893 11.4571C0.98043 11.6446 1.23478 11.75 1.5 11.75H3.5" stroke="#000001" stroke-linecap="round" stroke-linejoin="round"/>
<path d="M3.5 10.25V13.75C3.5 13.8826 3.55268 14.0098 3.64645 14.1036C3.74021 14.1973 3.86739 14.25 4 14.25H10C10.1326 14.25 10.2598 14.1973 10.3536 14.1036C10.4473 14.0098 10.5 13.8826 10.5 13.75V10.25H3.5Z" stroke="#000001" stroke-linecap="round" stroke-linejoin="round"/>
<path d="M10.5 5.25V1.75C10.5 1.61739 10.4473 1.49021 10.3536 1.39645C10.2598 1.30268 10.1326 1.25 10 1.25H4C3.86739 1.25 3.74021 1.30268 3.64645 1.39645C3.55268 1.49021 3.5 1.61739 3.5 1.75V5.25" stroke="#000001" stroke-linecap="round" stroke-linejoin="round"/>
<path d="M11 7.75H10" stroke="#000001" stroke-linecap="round" stroke-linejoin="round"/>
</g>
<defs>
<clipPath id="clip0_6_5282">
<rect width="14" height="14" fill="white" transform="translate(0 0.75)"/>
</clipPath>
</defs>
</svg>
