<svg width="14" height="15" viewBox="0 0 14 15" fill="none" xmlns="http://www.w3.org/2000/svg">
<path d="M11.5 2.75H2.5C1.39543 2.75 0.5 3.64543 0.5 4.75V10.75C0.5 11.8546 1.39543 12.75 2.5 12.75H11.5C12.6046 12.75 13.5 11.8546 13.5 10.75V4.75C13.5 3.64543 12.6046 2.75 11.5 2.75Z" stroke="#000001" stroke-linecap="round" stroke-linejoin="round"/>
<path d="M5.31072 10.0702V5.87022C5.30863 5.79932 5.32592 5.72918 5.36073 5.66737C5.39554 5.60556 5.44655 5.55442 5.50827 5.51944C5.56999 5.48447 5.64008 5.46699 5.71099 5.46889C5.78191 5.47079 5.85096 5.492 5.91072 5.53022L9.51072 7.63022C9.57087 7.66552 9.62074 7.71592 9.6554 7.77644C9.69006 7.83696 9.70829 7.90548 9.70829 7.97522C9.70829 8.04496 9.69006 8.11349 9.6554 8.17401C9.62074 8.23453 9.57087 8.28493 9.51072 8.32022L5.91072 10.4202C5.84964 10.4555 5.78033 10.474 5.70981 10.4738C5.63929 10.4737 5.57007 10.4549 5.50915 10.4193C5.44824 10.3838 5.3978 10.3328 5.36295 10.2715C5.3281 10.2102 5.31008 10.1407 5.31072 10.0702V10.0702Z" stroke="#000001" stroke-linecap="round" stroke-linejoin="round"/>
</svg>
