<svg width="14" height="15" viewBox="0 0 14 15" fill="none" xmlns="http://www.w3.org/2000/svg">
<g clip-path="url(#clip0_6_5507)">
<path d="M3.53969 2.45969C3.5424 2.80902 3.40757 3.14539 3.16432 3.39612C2.92107 3.64686 2.58894 3.79182 2.23969 3.79969C1.89116 3.7869 1.56087 3.64071 1.31706 3.39132C1.07326 3.14193 0.934582 2.80841 0.929688 2.45969C0.944838 2.11992 1.08862 1.79863 1.33187 1.56095C1.57513 1.32326 1.89966 1.18696 2.23969 1.17969C2.57872 1.1871 2.90211 1.32373 3.14375 1.56166C3.38539 1.79958 3.52702 2.12081 3.53969 2.45969ZM1.06969 6.17969C1.06969 5.40969 1.55969 5.52969 2.23969 5.52969C2.91969 5.52969 3.39969 5.40969 3.39969 6.17969V13.6797C3.39969 14.4597 2.90969 14.2997 2.23969 14.2997C1.56969 14.2997 1.06969 14.4597 1.06969 13.6797V6.17969Z" stroke="#000001" stroke-linecap="round" stroke-linejoin="round"/>
<path d="M5.41992 6.17996C5.41992 5.74996 5.57992 5.58996 5.82992 5.53996C6.07992 5.48996 6.93992 5.53996 7.23992 5.53996C7.53992 5.53996 7.65992 6.02996 7.64992 6.39996C7.90654 6.05555 8.24724 5.78276 8.63944 5.60767C9.03163 5.43259 9.46219 5.36107 9.88992 5.39996C10.3099 5.37428 10.7307 5.43726 11.1248 5.58479C11.5189 5.73232 11.8775 5.96112 12.1774 6.25631C12.4773 6.5515 12.7118 6.90648 12.8655 7.29819C13.0193 7.6899 13.0889 8.10958 13.0699 8.52996V13.65C13.0699 14.43 12.5899 14.27 11.9099 14.27C11.2299 14.27 10.7499 14.43 10.7499 13.65V9.64996C10.7675 9.44409 10.7406 9.23685 10.671 9.04232C10.6014 8.84778 10.4907 8.6705 10.3465 8.52251C10.2023 8.37453 10.028 8.2593 9.83531 8.18467C9.64265 8.11003 9.43618 8.07773 9.22992 8.08996C9.02462 8.08475 8.82056 8.1232 8.63124 8.20278C8.44192 8.28235 8.27166 8.40124 8.13174 8.55156C7.99182 8.70188 7.88542 8.88021 7.8196 9.07474C7.75378 9.26927 7.73003 9.47556 7.74992 9.67996V13.68C7.74992 14.46 7.25992 14.3 6.57992 14.3C5.89992 14.3 5.41992 14.46 5.41992 13.68V6.17996Z" stroke="#000001" stroke-linecap="round" stroke-linejoin="round"/>
</g>
<defs>
<clipPath id="clip0_6_5507">
<rect width="14" height="14" fill="white" transform="translate(0 0.75)"/>
</clipPath>
</defs>
</svg>
