<svg width="14" height="15" viewBox="0 0 14 15" fill="none" xmlns="http://www.w3.org/2000/svg">
<path d="M6.99945 12.9999C7.72295 12.9999 8.30945 12.4134 8.30945 11.6899C8.30945 10.9664 7.72295 10.3799 6.99945 10.3799C6.27596 10.3799 5.68945 10.9664 5.68945 11.6899C5.68945 12.4134 6.27596 12.9999 6.99945 12.9999Z" stroke="#000001" stroke-linecap="round" stroke-linejoin="round"/>
<path d="M4.5293 8.75013C4.85447 8.4163 5.24321 8.15098 5.67259 7.96981C6.10196 7.78865 6.56327 7.69531 7.0293 7.69531C7.49532 7.69531 7.95663 7.78865 8.38601 7.96981C8.81538 8.15098 9.20412 8.4163 9.5293 8.75013" stroke="#000001" stroke-linecap="round" stroke-linejoin="round"/>
<path d="M2.35938 7.05987C2.96809 6.44761 3.69184 5.96172 4.489 5.63017C5.28616 5.29862 6.14101 5.12793 7.00438 5.12793C7.86774 5.12793 8.72259 5.29862 9.51975 5.63017C10.3169 5.96172 11.0407 6.44761 11.6494 7.05987" stroke="#000001" stroke-linecap="round" stroke-linejoin="round"/>
<path d="M0.5 5.20021C1.35343 4.34634 2.36674 3.66898 3.48204 3.20684C4.59733 2.7447 5.79275 2.50684 7 2.50684C8.20725 2.50684 9.40267 2.7447 10.518 3.20684C11.6333 3.66898 12.6466 4.34634 13.5 5.20021" stroke="#000001" stroke-linecap="round" stroke-linejoin="round"/>
</svg>
