<svg width="14" height="15" viewBox="0 0 14 15" fill="none" xmlns="http://www.w3.org/2000/svg">
<g clip-path="url(#clip0_6_5501)">
<path d="M0.5 13.25V2.25C0.5 1.98478 0.605357 1.73043 0.792893 1.54289C0.98043 1.35536 1.23478 1.25 1.5 1.25H12.5C12.7652 1.25 13.0196 1.35536 13.2071 1.54289C13.3946 1.73043 13.5 1.98478 13.5 2.25V13.25C13.5 13.5152 13.3946 13.7696 13.2071 13.9571C13.0196 14.1446 12.7652 14.25 12.5 14.25H9.5V9.51H10.21C10.3718 9.51 10.5269 9.44573 10.6413 9.33134C10.7557 9.21694 10.82 9.06178 10.82 8.9V8.13C10.82 8.04989 10.8042 7.97057 10.7736 7.89656C10.7429 7.82255 10.698 7.75531 10.6413 7.69866C10.5847 7.64202 10.5174 7.59709 10.4434 7.56643C10.3694 7.53578 10.2901 7.52 10.21 7.52H9.54V6.58C9.54 5.74 9.92 5.74 10.3 5.74H10.79C10.8705 5.74332 10.9507 5.72891 11.025 5.69781C11.0993 5.66671 11.1659 5.61966 11.22 5.56C11.2781 5.50468 11.3241 5.43789 11.3551 5.36388C11.3861 5.28986 11.4014 5.21023 11.4 5.13V4.39C11.4027 4.30857 11.3893 4.22741 11.3605 4.15117C11.3318 4.07492 11.2884 4.00508 11.2326 3.94564C11.1769 3.88621 11.11 3.83833 11.0358 3.80476C10.9616 3.77119 10.8814 3.75258 10.8 3.75H9.65C9.31445 3.73738 8.98016 3.79776 8.67021 3.92696C8.36027 4.05615 8.08207 4.25109 7.85483 4.4983C7.62758 4.74552 7.45671 5.03911 7.35401 5.35881C7.25131 5.67851 7.21924 6.01669 7.26 6.35V7.52H6.62C6.53906 7.51867 6.45866 7.53347 6.38349 7.56353C6.30832 7.59359 6.23989 7.63831 6.18219 7.69509C6.12448 7.75187 6.07865 7.81956 6.04737 7.89423C6.01609 7.9689 5.99999 8.04905 6 8.13V8.9C5.99999 8.98095 6.01609 9.0611 6.04737 9.13577C6.07865 9.21044 6.12448 9.27813 6.18219 9.33491C6.23989 9.39169 6.30832 9.43641 6.38349 9.46647C6.45866 9.49653 6.53906 9.51133 6.62 9.51H7.26V14.25H1.5C1.23478 14.25 0.98043 14.1446 0.792893 13.9571C0.605357 13.7696 0.5 13.5152 0.5 13.25Z" stroke="#000001" stroke-linecap="round" stroke-linejoin="round"/>
</g>
<defs>
<clipPath id="clip0_6_5501">
<rect width="14" height="14" fill="white" transform="translate(0 0.75)"/>
</clipPath>
</defs>
</svg>
