<svg width="14" height="15" viewBox="0 0 14 15" fill="none" xmlns="http://www.w3.org/2000/svg">
<g clip-path="url(#clip0_6_5338)">
<path d="M10.5 14.25C11.2956 14.25 12.0587 13.9339 12.6213 13.3713C13.1839 12.8087 13.5 12.0456 13.5 11.25C13.5 10.4544 13.1839 9.69129 12.6213 9.12868C12.0587 8.56607 11.2956 8.25 10.5 8.25H3.5C2.70435 8.25 1.94129 8.56607 1.37868 9.12868C0.81607 9.69129 0.5 10.4544 0.5 11.25C0.5 12.0456 0.81607 12.8087 1.37868 13.3713C1.94129 13.9339 2.70435 14.25 3.5 14.25H10.5Z" stroke="#000001" stroke-linecap="round" stroke-linejoin="round"/>
<path d="M0.580078 10.5404L2.17008 2.85041C2.26358 2.39186 2.51493 1.98061 2.88036 1.68826C3.2458 1.39591 3.70219 1.24097 4.17008 1.25041H9.87008C10.338 1.24097 10.7944 1.39591 11.1598 1.68826C11.5252 1.98061 11.7766 2.39186 11.8701 2.85041L13.4601 10.5404" stroke="#000001" stroke-linecap="round" stroke-linejoin="round"/>
<path d="M3.5 11.25H6.5" stroke="#000001" stroke-linecap="round" stroke-linejoin="round"/>
<path d="M10.5 11.75C10.7761 11.75 11 11.5261 11 11.25C11 10.9739 10.7761 10.75 10.5 10.75C10.2239 10.75 10 10.9739 10 11.25C10 11.5261 10.2239 11.75 10.5 11.75Z" stroke="#000001" stroke-linecap="round" stroke-linejoin="round"/>
</g>
<defs>
<clipPath id="clip0_6_5338">
<rect width="14" height="14" fill="white" transform="translate(0 0.75)"/>
</clipPath>
</defs>
</svg>
