<svg width="14" height="15" viewBox="0 0 14 15" fill="none" xmlns="http://www.w3.org/2000/svg">
<g clip-path="url(#clip0_6_5109)">
<path d="M0.5 14.25L13.5 1.25" stroke="#000001" stroke-linecap="round" stroke-linejoin="round"/>
<path d="M5.50001 9.25C5.18894 9.01767 4.93651 8.71583 4.76288 8.36856C4.58925 8.0213 4.49923 7.63825 4.50001 7.25V3.75C4.50001 3.08696 4.7634 2.45107 5.23224 1.98223C5.70108 1.51339 6.33696 1.25 7.00001 1.25C7.66305 1.25 8.29893 1.51339 8.76777 1.98223C9.23661 2.45107 9.50001 3.08696 9.50001 3.75V5.25" stroke="#000001" stroke-linecap="round" stroke-linejoin="round"/>
<path d="M9.27 8.29004C9.01458 8.84856 8.5625 9.29351 8 9.54004" stroke="#000001" stroke-linecap="round" stroke-linejoin="round"/>
<path d="M3.58002 11.17C3.08309 10.7497 2.68414 10.2258 2.41119 9.63501C2.13825 9.0442 1.99791 8.40081 2.00002 7.75V7.75" stroke="#000001" stroke-linecap="round" stroke-linejoin="round"/>
<path d="M11.9995 7.75C12.0008 8.34132 11.8853 8.92707 11.6596 9.47363C11.4339 10.0202 11.1025 10.5168 10.6844 10.9349C10.2662 11.353 9.76965 11.6845 9.22309 11.9101C8.67653 12.1358 8.09077 12.2513 7.49945 12.25H6.49945C6.31292 12.26 6.12599 12.26 5.93945 12.25" stroke="#000001" stroke-linecap="round" stroke-linejoin="round"/>
<path d="M7 12.25V14.25" stroke="#000001" stroke-linecap="round" stroke-linejoin="round"/>
</g>
<defs>
<clipPath id="clip0_6_5109">
<rect width="14" height="14" fill="white" transform="translate(0 0.75)"/>
</clipPath>
</defs>
</svg>
