<svg width="14" height="15" viewBox="0 0 14 15" fill="none" xmlns="http://www.w3.org/2000/svg">
<g clip-path="url(#clip0_6_5314)">
<path d="M12.5 3.75H1.5C0.947715 3.75 0.5 4.19772 0.5 4.75V8.75C0.5 9.30228 0.947715 9.75 1.5 9.75H12.5C13.0523 9.75 13.5 9.30228 13.5 8.75V4.75C13.5 4.19772 13.0523 3.75 12.5 3.75Z" stroke="#000001" stroke-linecap="round" stroke-linejoin="round"/>
<path d="M3.5 7.25C3.77614 7.25 4 7.02614 4 6.75C4 6.47386 3.77614 6.25 3.5 6.25C3.22386 6.25 3 6.47386 3 6.75C3 7.02614 3.22386 7.25 3.5 7.25Z" stroke="#000001" stroke-linecap="round" stroke-linejoin="round"/>
<path d="M6.5 6.75H8.5" stroke="#000001" stroke-linecap="round" stroke-linejoin="round"/>
<path d="M7 9.75V14.25" stroke="#000001" stroke-linecap="round" stroke-linejoin="round"/>
<path d="M2 14.25H12" stroke="#000001" stroke-linecap="round" stroke-linejoin="round"/>
</g>
<defs>
<clipPath id="clip0_6_5314">
<rect width="14" height="14" fill="white" transform="translate(0 0.75)"/>
</clipPath>
</defs>
</svg>
