<svg width="14" height="15" viewBox="0 0 14 15" fill="none" xmlns="http://www.w3.org/2000/svg">
<g clip-path="url(#clip0_6_5159)">
<path d="M11.5 1.25H2.5C1.94772 1.25 1.5 1.69772 1.5 2.25V8.25C1.5 8.80228 1.94772 9.25 2.5 9.25H11.5C12.0523 9.25 12.5 8.80228 12.5 8.25V2.25C12.5 1.69772 12.0523 1.25 11.5 1.25Z" stroke="#000001" stroke-linecap="round" stroke-linejoin="round"/>
<path d="M12.2798 11.8C12.1959 11.6336 12.0672 11.4939 11.9082 11.3967C11.7492 11.2995 11.5662 11.2487 11.3798 11.25H2.61979C2.43343 11.2487 2.25041 11.2995 2.09138 11.3967C1.93236 11.4939 1.80365 11.6336 1.71979 11.8L1.21979 12.8C1.1395 12.9564 1.10184 13.1312 1.11062 13.3067C1.1194 13.4823 1.1743 13.6524 1.26979 13.8C1.35986 13.9441 1.48517 14.0629 1.6339 14.1452C1.78262 14.2274 1.94985 14.2704 2.11979 14.27H11.8798C12.0497 14.2704 12.217 14.2274 12.3657 14.1452C12.5144 14.0629 12.6397 13.9441 12.7298 13.8C12.8176 13.648 12.8638 13.4756 12.8638 13.3C12.8638 13.1245 12.8176 12.952 12.7298 12.8L12.2798 11.8Z" stroke="#000001" stroke-linecap="round" stroke-linejoin="round"/>
<path d="M1.5 6.75H12.5" stroke="#000001" stroke-linecap="round" stroke-linejoin="round"/>
</g>
<defs>
<clipPath id="clip0_6_5159">
<rect width="14" height="14" fill="white" transform="translate(0 0.75)"/>
</clipPath>
</defs>
</svg>
