<svg width="14" height="15" viewBox="0 0 14 15" fill="none" xmlns="http://www.w3.org/2000/svg">
<g clip-path="url(#clip0_6_5503)">
<path d="M7.99992 4.74972C7.99992 3.74972 8.49992 3.74972 8.99992 3.74972H9.59992C9.7001 3.75106 9.79953 3.73232 9.89234 3.6946C9.98516 3.65689 10.0695 3.60096 10.1403 3.53011C10.2112 3.45927 10.2671 3.37495 10.3048 3.28214C10.3425 3.18932 10.3613 3.08989 10.3599 2.98972V2.04972C10.3599 1.94906 10.3399 1.84941 10.3011 1.75655C10.2623 1.66368 10.2054 1.57945 10.1338 1.50875C10.0622 1.43804 9.9772 1.38227 9.88383 1.34467C9.79047 1.30707 9.69056 1.28839 9.58992 1.28972L8.16992 1.26972C7.75645 1.25372 7.34443 1.32764 6.96231 1.48636C6.58018 1.64508 6.23705 1.88483 5.95659 2.18906C5.67613 2.49329 5.46502 2.85475 5.33784 3.2485C5.21065 3.64225 5.17042 4.05891 5.21992 4.46972V5.91972H4.42992C4.22836 5.91972 4.03505 5.99979 3.89252 6.14231C3.74999 6.28484 3.66992 6.47815 3.66992 6.67972V7.61972C3.66992 7.82128 3.74999 8.01459 3.89252 8.15712C4.03505 8.29964 4.22836 8.37972 4.42992 8.37972H5.21992V13.7497C5.21992 13.8823 5.2726 14.0095 5.36637 14.1033C5.46014 14.197 5.58731 14.2497 5.71992 14.2497H7.52992C7.65726 14.2421 7.77686 14.186 7.86424 14.0931C7.95161 14.0001 8.00015 13.8773 7.99992 13.7497V8.37972H8.87992C9.08149 8.37972 9.2748 8.29964 9.41732 8.15712C9.55985 8.01459 9.63992 7.82128 9.63992 7.61972V6.67972C9.63992 6.47815 9.55985 6.28484 9.41732 6.14231C9.2748 5.99979 9.08149 5.91972 8.87992 5.91972H7.99992V4.74972Z" stroke="#000001" stroke-linecap="round" stroke-linejoin="round"/>
</g>
<defs>
<clipPath id="clip0_6_5503">
<rect width="14" height="14" fill="white" transform="translate(0 0.75)"/>
</clipPath>
</defs>
</svg>
