<svg width="14" height="15" viewBox="0 0 14 15" fill="none" xmlns="http://www.w3.org/2000/svg">
<g clip-path="url(#clip0_6_5104)">
<path d="M9.5 7.25C9.5 7.91304 9.23661 8.54893 8.76777 9.01777C8.29893 9.48661 7.66304 9.75 7 9.75C6.33696 9.75 5.70107 9.48661 5.23223 9.01777C4.76339 8.54893 4.5 7.91304 4.5 7.25V3.75C4.5 3.08696 4.76339 2.45107 5.23223 1.98223C5.70107 1.51339 6.33696 1.25 7 1.25C7.66304 1.25 8.29893 1.51339 8.76777 1.98223C9.23661 2.45107 9.5 3.08696 9.5 3.75V7.25Z" stroke="#000001" stroke-linecap="round" stroke-linejoin="round"/>
<path d="M12 7.75C12.0013 8.34132 11.8858 8.92707 11.6602 9.47363C11.4345 10.0202 11.1031 10.5168 10.6849 10.9349C10.2668 11.353 9.77021 11.6845 9.22364 11.9101C8.67708 12.1358 8.09133 12.2513 7.50001 12.25H6.50001C5.90869 12.2513 5.32294 12.1358 4.77638 11.9101C4.22982 11.6845 3.73322 11.353 3.31509 10.9349C2.89696 10.5168 2.56555 10.0202 2.33987 9.47363C2.11419 8.92707 1.99869 8.34132 2.00001 7.75V7.75" stroke="#000001" stroke-linecap="round" stroke-linejoin="round"/>
<path d="M7 12.25V14.25" stroke="#000001" stroke-linecap="round" stroke-linejoin="round"/>
</g>
<defs>
<clipPath id="clip0_6_5104">
<rect width="14" height="14" fill="white" transform="translate(0 0.75)"/>
</clipPath>
</defs>
</svg>
