<svg width="14" height="15" viewBox="0 0 14 15" fill="none" xmlns="http://www.w3.org/2000/svg">
<g clip-path="url(#clip0_6_5497)">
<path d="M10.1797 8.25007C10.1806 7.72149 10.3497 7.20692 10.6626 6.78084C10.9754 6.35476 11.4157 6.03928 11.9197 5.88007C11.7244 5.52037 11.4555 5.2059 11.1304 4.95721C10.8054 4.70851 10.4315 4.53119 10.0332 4.43681C9.63497 4.34244 9.22128 4.33314 8.81918 4.40952C8.41708 4.4859 8.03562 4.64624 7.69971 4.88007C7.54769 4.96784 7.37524 5.01405 7.19971 5.01405C7.02417 5.01405 6.85172 4.96784 6.69971 4.88007C6.33611 4.64946 5.92834 4.49738 5.50253 4.43358C5.07672 4.36978 4.64227 4.39567 4.22706 4.5096C3.81184 4.62352 3.42502 4.82297 3.09139 5.09514C2.75776 5.36731 2.4847 5.7062 2.28971 6.09007C1.73264 7.11601 1.54215 8.30126 1.74971 9.45007C1.91823 11.0279 2.59975 12.5069 3.68971 13.6601C4.04901 14.0009 4.51768 14.2031 5.01218 14.2306C5.50667 14.2581 5.99486 14.109 6.38971 13.8101C6.61692 13.642 6.89208 13.5513 7.17471 13.5513C7.45733 13.5513 7.73249 13.642 7.95971 13.8101C8.33861 14.1162 8.81372 14.2781 9.30069 14.2671C9.78766 14.2561 10.255 14.0729 10.6197 13.7501C11.443 12.919 12.0298 11.8834 12.3197 10.7501C11.719 10.667 11.1696 10.3668 10.7753 9.90616C10.381 9.44551 10.1691 8.85635 10.1797 8.25007Z" stroke="#000001" stroke-linecap="round" stroke-linejoin="round"/>
<path d="M8.17969 2.75L9.67969 1.25" stroke="#000001" stroke-linecap="round" stroke-linejoin="round"/>
</g>
<defs>
<clipPath id="clip0_6_5497">
<rect width="14" height="14" fill="white" transform="translate(0 0.75)"/>
</clipPath>
</defs>
</svg>
