<svg width="16" height="16" viewBox="0 0 16 16" fill="none" xmlns="http://www.w3.org/2000/svg">
<path d="M14.2222 2.22217H6.66667V7.11106H16V3.99995C16 3.52845 15.8127 3.07626 15.4793 2.74287C15.1459 2.40947 14.6937 2.22217 14.2222 2.22217ZM6.66667 13.7777H14.2222C15.204 13.7777 16 12.9817 16 11.7777V8.88883H6.66667V13.7777ZM0 8.88883V11.7777C0 12.9817 0.796 13.7777 1.77778 13.7777H4.88889V8.88883H0ZM4.88889 2.22217H1.77778C1.30628 2.22217 0.854097 2.40947 0.520699 2.74287C0.187301 3.07626 0 3.52845 0 3.99995L0 7.11106H4.88889V2.22217Z" fill="#C60C30"/>
<path d="M6.66667 2.22217H4.88889V7.11106H0V8.88883H4.88889V13.7777H6.66667V8.88883H16V7.11106H6.66667V2.22217Z" fill="#EEEEEE"/>
</svg>
