<svg width="16" height="17" viewBox="0 0 16 17" fill="none" xmlns="http://www.w3.org/2000/svg">
<path d="M12.0003 12.5H4.00033C3.26395 12.5 2.66699 13.0969 2.66699 13.8333C2.66699 14.5697 3.26395 15.1667 4.00033 15.1667H12.0003C12.7367 15.1667 13.3337 14.5697 13.3337 13.8333C13.3337 13.0969 12.7367 12.5 12.0003 12.5Z" stroke="#585858" stroke-width="1.5" stroke-linecap="round" stroke-linejoin="round"/>
<path d="M8 6.16671C8.3682 6.16671 8.66667 5.86823 8.66667 5.50004C8.66667 5.13185 8.3682 4.83337 8 4.83337M8 6.16671C7.6318 6.16671 7.33333 5.86823 7.33333 5.50004C7.33333 5.13185 7.6318 4.83337 8 4.83337M8 6.16671V4.83337M6.66667 8.83337H9.33333M6 9.50004V9.16671C6 8.43031 6.59695 7.83337 7.33333 7.83337H8.66667C9.40307 7.83337 10 8.43031 10 9.16671V9.50004H6Z" stroke="#585858" stroke-width="1.5" stroke-linecap="round" stroke-linejoin="round"/>
<path d="M11 13.8334V13.84" stroke="#585858" stroke-width="1.5" stroke-linecap="round" stroke-linejoin="round"/>
<path d="M9 13.8334V13.84" stroke="#585858" stroke-width="1.5" stroke-linecap="round" stroke-linejoin="round"/>
<path d="M13.3337 13.8334V5.83337C13.3337 3.94775 13.3337 3.00495 12.7479 2.41916C12.1621 1.83337 11.2193 1.83337 9.33366 1.83337H6.66699C4.78137 1.83337 3.83857 1.83337 3.25278 2.41916C2.66699 3.00495 2.66699 3.94775 2.66699 5.83337V13.8334" stroke="#585858" stroke-width="1.5" stroke-linecap="round" stroke-linejoin="round"/>
</svg>
