<svg width="15" height="15" viewBox="0 0 15 15" fill="none" xmlns="http://www.w3.org/2000/svg">
<g clip-path="url(#clip0_6_5952)">
<path d="M10.9473 4.65039C12.0273 5.11192 13.242 5.14765 14.3473 4.75039" stroke="#000001" stroke-linecap="round" stroke-linejoin="round"/>
<path d="M4.84815 14.2499C5.24504 13.1411 5.20933 11.9235 4.74815 10.8399C4.38717 9.97708 4.2895 9.02677 4.46744 8.10858C4.64539 7.19039 5.09099 6.34537 5.74815 5.67988C6.42182 5.01318 7.27778 4.56084 8.20815 4.37988" stroke="#000001" stroke-linecap="round" stroke-linejoin="round"/>
<path d="M7.44727 11.12C8.38215 10.9375 9.2418 10.4816 9.91727 9.81C10.5756 9.14523 11.022 8.30016 11.2 7.38168C11.378 6.4632 11.2796 5.51257 10.9173 4.65C10.4655 3.56616 10.4405 2.35152 10.8473 1.25" stroke="#000001" stroke-linecap="round" stroke-linejoin="round"/>
<path d="M1.34766 10.7498C2.45341 10.3507 3.67002 10.39 4.74766 10.8598" stroke="#000001" stroke-linecap="round" stroke-linejoin="round"/>
<path d="M5.78711 5.67969L9.91711 9.80969" stroke="#000001" stroke-linecap="round" stroke-linejoin="round"/>
</g>
<defs>
<clipPath id="clip0_6_5952">
<rect width="14" height="14" fill="white" transform="translate(0.847656 0.75)"/>
</clipPath>
</defs>
</svg>
