<svg width="15" height="15" viewBox="0 0 15 15" fill="none" xmlns="http://www.w3.org/2000/svg">
<g clip-path="url(#clip0_6_5963)">
<path d="M3.47734 8.8798C1.69734 11.2398 0.897342 13.2798 1.60734 13.9898C2.60734 14.9898 6.20734 12.9898 9.60734 9.5498C13.0073 6.1098 15.0473 2.5498 14.0473 1.5498C13.4073 0.899797 11.6673 1.5498 9.57734 2.9598" stroke="#000001" stroke-linecap="round" stroke-linejoin="round"/>
<path d="M12.8965 5.66992C13.2451 6.43188 13.3965 7.26922 13.337 8.105C13.2775 8.94079 13.0089 9.74822 12.5559 10.4531C12.1029 11.158 11.4801 11.7377 10.7445 12.1391C10.009 12.5404 9.18439 12.7505 8.34648 12.7499C7.67709 12.7502 7.01429 12.6176 6.39648 12.3599" stroke="#000001" stroke-linecap="round" stroke-linejoin="round"/>
<path d="M4.34766 10.75C3.62552 9.78715 3.27492 8.59611 3.36024 7.39556C3.44556 6.19501 3.96107 5.06553 4.81213 4.21447C5.66319 3.36342 6.79267 2.84791 7.99322 2.76259C9.19377 2.67727 10.3848 3.02786 11.3477 3.75001" stroke="#000001" stroke-linecap="round" stroke-linejoin="round"/>
</g>
<defs>
<clipPath id="clip0_6_5963">
<rect width="14" height="14" fill="white" transform="translate(0.847656 0.75)"/>
</clipPath>
</defs>
</svg>
