<svg width="15" height="15" viewBox="0 0 15 15" fill="none" xmlns="http://www.w3.org/2000/svg">
<g clip-path="url(#clip0_6_5947)">
<path d="M14.3477 6.25C14.3477 9.84 11.3977 14.25 7.84766 14.25C4.29766 14.25 1.34766 9.84 1.34766 6.25C1.34766 2.66 4.25766 1.25 7.84766 1.25C11.4377 1.25 14.3477 2.66 14.3477 6.25Z" stroke="#000001" stroke-linecap="round" stroke-linejoin="round"/>
<path d="M3.59723 5.49958C3.50712 5.91814 3.50412 6.35077 3.58842 6.77055C3.67271 7.19032 3.84251 7.58826 4.08723 7.93958C4.43856 8.1843 4.83649 8.3541 5.25626 8.4384C5.67604 8.52269 6.10867 8.51969 6.52723 8.42958C6.61735 8.01101 6.62035 7.57838 6.53605 7.15861C6.45175 6.73883 6.28196 6.3409 6.03723 5.98958C5.68591 5.74485 5.28798 5.57506 4.86821 5.49076C4.44843 5.40646 4.0158 5.40946 3.59723 5.49958Z" stroke="#000001" stroke-linecap="round" stroke-linejoin="round"/>
<path d="M12.0975 5.49958C12.1877 5.91814 12.1907 6.35077 12.1064 6.77055C12.0221 7.19032 11.8523 7.58826 11.6075 7.93958C11.2562 8.1843 10.8583 8.3541 10.4385 8.4384C10.0187 8.52269 9.58611 8.51969 9.16755 8.42958C9.07743 8.01101 9.07443 7.57838 9.15873 7.15861C9.24303 6.73883 9.41282 6.3409 9.65755 5.98958C10.0089 5.74485 10.4068 5.57506 10.8266 5.49076C11.2463 5.40646 11.679 5.40946 12.0975 5.49958Z" stroke="#000001" stroke-linecap="round" stroke-linejoin="round"/>
</g>
<defs>
<clipPath id="clip0_6_5947">
<rect width="14" height="14" fill="white" transform="translate(0.847656 0.75)"/>
</clipPath>
</defs>
</svg>
