<svg width="16" height="17" viewBox="0 0 16 17" fill="none" xmlns="http://www.w3.org/2000/svg">
<path d="M4.6665 6.1665L6.62785 7.3261C7.7713 8.00217 8.22837 8.00217 9.37184 7.3261L11.3332 6.1665" stroke="#BAB8B9" stroke-width="1.5" stroke-linecap="round" stroke-linejoin="round"/>
<path d="M1.34401 9.48392C1.38759 11.5276 1.40938 12.5495 2.16347 13.3064C2.91755 14.0634 3.96705 14.0897 6.06605 14.1425C7.3597 14.175 8.64063 14.175 9.9343 14.1425C12.0333 14.0897 13.0828 14.0634 13.8368 13.3064C14.591 12.5495 14.6128 11.5276 14.6563 9.48392C14.6704 8.82678 14.6704 8.17352 14.6563 7.51645C14.6128 5.47274 14.591 4.45089 13.8368 3.69394C13.0828 2.93698 12.0333 2.91062 9.9343 2.85788C8.64063 2.82537 7.3597 2.82537 6.06605 2.85787C3.96705 2.9106 2.91755 2.93697 2.16347 3.69393C1.40938 4.45088 1.38759 5.47273 1.34401 7.51638C1.32999 8.17352 1.32999 8.82678 1.34401 9.48392Z" stroke="#BAB8B9" stroke-width="1.5" stroke-linejoin="round"/>
</svg>
