<svg width="15" height="15" viewBox="0 0 15 15" fill="none" xmlns="http://www.w3.org/2000/svg">
<g clip-path="url(#clip0_6_6288)">
<path d="M5.49717 2.99023L5.10717 3.08023C5.14249 3.23394 5.14691 3.39314 5.12016 3.54857C5.09341 3.704 5.03603 3.85257 4.95135 3.98562C4.86668 4.11868 4.7564 4.23358 4.62693 4.32364C4.49746 4.4137 4.35137 4.47713 4.19717 4.51023C3.88448 4.57601 3.55847 4.51648 3.2892 4.34445C3.01993 4.17242 2.8289 3.90161 2.75717 3.59023L1.97717 3.75023C1.8702 3.77357 1.76908 3.81836 1.6799 3.88188C1.59073 3.9454 1.51536 4.02633 1.45834 4.1198C1.40133 4.21327 1.36385 4.31732 1.34818 4.42568C1.33251 4.53404 1.33897 4.64444 1.36717 4.75023C1.36717 4.75023 1.72717 6.42023 2.14717 8.30023" stroke="#000001" stroke-linecap="round" stroke-linejoin="round"/>
<path d="M12.9972 2.98022C12.9375 3.1486 12.8442 3.3031 12.7229 3.43435C12.6017 3.5656 12.4551 3.67088 12.292 3.7438C12.1289 3.81672 11.9527 3.85577 11.774 3.85858C11.5954 3.86139 11.418 3.8279 11.2527 3.76015C11.0874 3.69239 10.9375 3.59178 10.8122 3.4644C10.6869 3.33702 10.5888 3.18554 10.5238 3.01912C10.4587 2.8527 10.4282 2.67481 10.4339 2.49624C10.4397 2.31766 10.4816 2.14211 10.5572 1.98022L9.74723 1.60022C9.53094 1.51008 9.28783 1.50888 9.07066 1.59687C8.85349 1.68487 8.67978 1.85495 8.58723 2.07022L5.22723 9.98022L4.78723 10.9802C4.6971 11.1965 4.69589 11.4396 4.78389 11.6568C4.87188 11.874 5.04196 12.0477 5.25723 12.1402L9.31723 13.8702C9.53352 13.9604 9.77663 13.9616 9.99381 13.8736C10.211 13.7856 10.3847 13.6155 10.4772 13.4002L14.2772 4.46022C14.361 4.25233 14.3633 4.02048 14.2836 3.811C14.2038 3.60151 14.048 3.42982 13.8472 3.33022L12.9972 2.98022Z" stroke="#000001" stroke-linecap="round" stroke-linejoin="round"/>
</g>
<defs>
<clipPath id="clip0_6_6288">
<rect width="14" height="14" fill="white" transform="translate(0.847656 0.75)"/>
</clipPath>
</defs>
</svg>
