<svg width="15" height="15" viewBox="0 0 15 15" fill="none" xmlns="http://www.w3.org/2000/svg">
<g clip-path="url(#clip0_6_6273)">
<path d="M14.3471 11.0398C14.3475 11.167 14.3133 11.2919 14.2482 11.4012C14.183 11.5104 14.0892 11.5998 13.9771 11.6598C13.8668 11.7259 13.7406 11.7608 13.6121 11.7608C13.4835 11.7608 13.3573 11.7259 13.2471 11.6598L8.16705 8.33979C8.06795 8.27652 7.98638 8.1893 7.92987 8.08618C7.87337 7.98307 7.84375 7.86738 7.84375 7.74979C7.84375 7.63221 7.87337 7.51652 7.92987 7.41341C7.98638 7.31029 8.06795 7.22307 8.16705 7.15979L13.2471 3.85979C13.3573 3.7937 13.4835 3.75879 13.6121 3.75879C13.7406 3.75879 13.8668 3.7937 13.9771 3.85979C14.0892 3.91976 14.183 4.00917 14.2482 4.11841C14.3133 4.22765 14.3475 4.35258 14.3471 4.47979V11.0398Z" stroke="#000001" stroke-linecap="round" stroke-linejoin="round"/>
<path d="M7.84705 11.0398C7.84754 11.167 7.81335 11.2919 7.74816 11.4012C7.68297 11.5104 7.58924 11.5998 7.47705 11.6598C7.36678 11.7259 7.24062 11.7608 7.11205 11.7608C6.98349 11.7608 6.85733 11.7259 6.74705 11.6598L1.66705 8.33979C1.56795 8.27652 1.48638 8.1893 1.42987 8.08618C1.37337 7.98307 1.34375 7.86738 1.34375 7.74979C1.34375 7.63221 1.37337 7.51652 1.42987 7.41341C1.48638 7.31029 1.56795 7.22307 1.66705 7.15979L6.74705 3.85979C6.85733 3.7937 6.98349 3.75879 7.11205 3.75879C7.24062 3.75879 7.36678 3.7937 7.47705 3.85979C7.58629 3.91814 7.67809 4.00441 7.74309 4.10982C7.80809 4.21523 7.84397 4.33599 7.84705 4.45979V11.0398Z" stroke="#000001" stroke-linecap="round" stroke-linejoin="round"/>
</g>
<defs>
<clipPath id="clip0_6_6273">
<rect width="14" height="14" fill="white" transform="translate(0.847656 0.75)"/>
</clipPath>
</defs>
</svg>
