<svg width="15" height="15" viewBox="0 0 15 15" fill="none" xmlns="http://www.w3.org/2000/svg">
<g clip-path="url(#clip0_6_6140)">
<path d="M13.3477 1.25H2.34766C1.79537 1.25 1.34766 1.69772 1.34766 2.25V13.25C1.34766 13.8023 1.79537 14.25 2.34766 14.25H13.3477C13.8999 14.25 14.3477 13.8023 14.3477 13.25V2.25C14.3477 1.69772 13.8999 1.25 13.3477 1.25Z" stroke="#000001" stroke-linecap="round" stroke-linejoin="round"/>
<path d="M6.33789 11.3096V7.47964C6.34069 7.42079 6.35789 7.36351 6.38798 7.31285C6.41807 7.2622 6.46014 7.2197 6.5105 7.18909C6.56085 7.15848 6.61794 7.14071 6.67677 7.13732C6.7356 7.13392 6.79436 7.14503 6.84789 7.16964L10.1679 9.07964C10.2217 9.11277 10.266 9.15911 10.2968 9.21425C10.3276 9.26939 10.3438 9.33149 10.3438 9.39464C10.3438 9.4578 10.3276 9.5199 10.2968 9.57504C10.266 9.63017 10.2217 9.67651 10.1679 9.70964L6.84789 11.6296C6.79343 11.652 6.73441 11.6611 6.67574 11.6561C6.61707 11.6511 6.56045 11.6321 6.51057 11.6008C6.46069 11.5695 6.41901 11.5268 6.38897 11.4761C6.35894 11.4255 6.34143 11.3684 6.33789 11.3096V11.3096Z" stroke="#000001" stroke-linecap="round" stroke-linejoin="round"/>
<path d="M1.34766 4.75H14.3477" stroke="#000001" stroke-linecap="round" stroke-linejoin="round"/>
<path d="M4.84766 4.75L6.34766 1.25" stroke="#000001" stroke-linecap="round" stroke-linejoin="round"/>
<path d="M9.34766 4.75L10.8477 1.25" stroke="#000001" stroke-linecap="round" stroke-linejoin="round"/>
</g>
<defs>
<clipPath id="clip0_6_6140">
<rect width="14" height="14" fill="white" transform="translate(0.847656 0.75)"/>
</clipPath>
</defs>
</svg>
