<svg width="15" height="15" viewBox="0 0 15 15" fill="none" xmlns="http://www.w3.org/2000/svg">
<g clip-path="url(#clip0_6_6110)">
<path d="M3.34766 1.25C2.61024 1.24892 1.89826 1.51947 1.34766 2.01V6.49C1.89826 6.98053 2.61024 7.25109 3.34766 7.25C3.51397 7.26524 3.68134 7.26524 3.84766 7.25V13.04C3.84766 13.3715 3.97935 13.6895 4.21377 13.9239C4.44819 14.1583 4.76614 14.29 5.09766 14.29C5.42918 14.29 5.74712 14.1583 5.98154 13.9239C6.21596 13.6895 6.34766 13.3715 6.34766 13.04V4.25C6.34766 3.45435 6.03159 2.69129 5.46898 2.12868C4.90637 1.56607 4.14331 1.25 3.34766 1.25V1.25Z" stroke="#000001" stroke-linecap="round" stroke-linejoin="round"/>
<path d="M12.3477 1.25C13.0851 1.24892 13.7971 1.51947 14.3477 2.01V6.49C13.7971 6.98053 13.0851 7.25109 12.3477 7.25C12.1813 7.26524 12.014 7.26524 11.8477 7.25V13.04C11.8477 13.3715 11.716 13.6895 11.4815 13.9239C11.2471 14.1583 10.9292 14.29 10.5977 14.29C10.2661 14.29 9.94819 14.1583 9.71377 13.9239C9.47935 13.6895 9.34766 13.3715 9.34766 13.04V4.25C9.34766 3.45435 9.66373 2.69129 10.2263 2.12868C10.7889 1.56607 11.552 1.25 12.3477 1.25V1.25Z" stroke="#000001" stroke-linecap="round" stroke-linejoin="round"/>
</g>
<defs>
<clipPath id="clip0_6_6110">
<rect width="14" height="14" fill="white" transform="translate(0.847656 0.75)"/>
</clipPath>
</defs>
</svg>
