<svg width="15" height="15" viewBox="0 0 15 15" fill="none" xmlns="http://www.w3.org/2000/svg">
<g clip-path="url(#clip0_6_6129)">
<path d="M13.2779 4.18023C13.528 4.10729 13.7548 3.97048 13.9359 3.78325C14.117 3.59603 14.2463 3.36486 14.311 3.11251C14.3756 2.86015 14.3734 2.5953 14.3046 2.34404C14.2358 2.09279 14.1028 1.86378 13.9186 1.67957C13.7343 1.49537 13.5053 1.36231 13.2541 1.2935C13.0028 1.2247 12.738 1.22251 12.4856 1.28716C12.2333 1.35182 12.0021 1.48108 11.8149 1.66222C11.6277 1.84337 11.4908 2.07015 11.4179 2.32023C10.3581 1.62217 9.11692 1.25012 7.84789 1.25012C6.57886 1.25012 5.33767 1.62217 4.27789 2.32023C4.20495 2.07015 4.06813 1.84337 3.88091 1.66222C3.69369 1.48108 3.46252 1.35182 3.21016 1.28716C2.9578 1.22251 2.69296 1.2247 2.4417 1.2935C2.19044 1.36231 1.96144 1.49537 1.77723 1.67957C1.59302 1.86378 1.45997 2.09279 1.39116 2.34404C1.32235 2.5953 1.32017 2.86015 1.38482 3.11251C1.44947 3.36486 1.57874 3.59603 1.75988 3.78325C1.94102 3.97048 2.1678 4.10729 2.41789 4.18023C1.72147 5.24078 1.34961 6.48147 1.34789 7.75023C1.34615 8.86085 1.6321 9.95298 2.17789 10.9202C1.87327 11.0683 1.62817 11.3157 1.483 11.6217C1.33782 11.9277 1.30124 12.274 1.37927 12.6036C1.45729 12.9332 1.64528 13.2264 1.91225 13.4348C2.17921 13.6432 2.50922 13.7545 2.84789 13.7502C3.09869 13.7489 3.34522 13.6851 3.5652 13.5647C3.78518 13.4442 3.97169 13.2708 4.10789 13.0602C5.20122 13.8347 6.50803 14.2507 7.84789 14.2507C9.18775 14.2507 10.4946 13.8347 11.5879 13.0602C11.7634 13.3319 12.022 13.5396 12.3252 13.6524C12.6284 13.7651 12.9599 13.7767 13.2703 13.6857C13.5807 13.5946 13.8533 13.4056 14.0475 13.1469C14.2417 12.8882 14.3471 12.5737 14.3479 12.2502C14.3468 11.9733 14.2686 11.7022 14.122 11.4672C13.9753 11.2323 13.7662 11.0429 13.5179 10.9202C14.0637 9.95298 14.3496 8.86085 14.3479 7.75023C14.3462 6.48147 13.9743 5.24078 13.2779 4.18023V4.18023Z" stroke="#000001" stroke-linecap="round" stroke-linejoin="round"/>
<path d="M7.84766 11.25C9.78065 11.25 11.3477 9.683 11.3477 7.75C11.3477 5.817 9.78065 4.25 7.84766 4.25C5.91466 4.25 4.34766 5.817 4.34766 7.75C4.34766 9.683 5.91466 11.25 7.84766 11.25Z" stroke="#000001" stroke-linecap="round" stroke-linejoin="round"/>
<path d="M7.84766 8.25C8.1238 8.25 8.34766 8.02614 8.34766 7.75C8.34766 7.47386 8.1238 7.25 7.84766 7.25C7.57151 7.25 7.34766 7.47386 7.34766 7.75C7.34766 8.02614 7.57151 8.25 7.84766 8.25Z" stroke="#000001" stroke-linecap="round" stroke-linejoin="round"/>
</g>
<defs>
<clipPath id="clip0_6_6129">
<rect width="14" height="14" fill="white" transform="translate(0.847656 0.75)"/>
</clipPath>
</defs>
</svg>
