<svg width="15" height="15" viewBox="0 0 15 15" fill="none" xmlns="http://www.w3.org/2000/svg">
<g clip-path="url(#clip0_6_6217)">
<path d="M14.3477 1.25V14.25" stroke="#000001" stroke-linecap="round" stroke-linejoin="round"/>
<path d="M1.34813 12.4102C1.34764 12.5901 1.39568 12.7668 1.4872 12.9216C1.57871 13.0765 1.71031 13.2038 1.86813 13.2902C2.02015 13.378 2.19259 13.4242 2.36813 13.4242C2.54367 13.4242 2.71611 13.378 2.86813 13.2902L10.0581 8.59019C10.1985 8.49953 10.3139 8.37515 10.3938 8.22842C10.4737 8.08168 10.5155 7.91727 10.5155 7.75019C10.5155 7.58311 10.4737 7.41869 10.3938 7.27195C10.3139 7.12522 10.1985 7.00084 10.0581 6.91019L2.84813 2.25019C2.69611 2.16242 2.52367 2.11621 2.34813 2.11621C2.17259 2.11621 2.00015 2.16242 1.84813 2.25019C1.69031 2.33653 1.55871 2.46385 1.4672 2.61873C1.37568 2.7736 1.32764 2.95029 1.32813 3.13019L1.34813 12.4102Z" stroke="#000001" stroke-linecap="round" stroke-linejoin="round"/>
</g>
<defs>
<clipPath id="clip0_6_6217">
<rect width="14" height="14" fill="white" transform="translate(0.847656 0.75)"/>
</clipPath>
</defs>
</svg>
