<svg width="15" height="15" viewBox="0 0 15 15" fill="none" xmlns="http://www.w3.org/2000/svg">
<g clip-path="url(#clip0_6_6230)">
<path d="M4.84766 1.25H2.34766C1.79537 1.25 1.34766 1.69772 1.34766 2.25V13.25C1.34766 13.8023 1.79537 14.25 2.34766 14.25H4.84766C5.39994 14.25 5.84766 13.8023 5.84766 13.25V2.25C5.84766 1.69772 5.39994 1.25 4.84766 1.25Z" stroke="#000001" stroke-linecap="round" stroke-linejoin="round"/>
<path d="M13.3477 1.25H10.8477C10.2954 1.25 9.84766 1.69772 9.84766 2.25V13.25C9.84766 13.8023 10.2954 14.25 10.8477 14.25H13.3477C13.8999 14.25 14.3477 13.8023 14.3477 13.25V2.25C14.3477 1.69772 13.8999 1.25 13.3477 1.25Z" stroke="#000001" stroke-linecap="round" stroke-linejoin="round"/>
</g>
<defs>
<clipPath id="clip0_6_6230">
<rect width="14" height="14" fill="white" transform="translate(0.847656 0.75)"/>
</clipPath>
</defs>
</svg>
