<svg width="15" height="15" viewBox="0 0 15 15" fill="none" xmlns="http://www.w3.org/2000/svg">
<g clip-path="url(#clip0_6_6134)">
<path d="M11.8477 1.25H3.84766C3.29537 1.25 2.84766 1.69772 2.84766 2.25V13.25C2.84766 13.8023 3.29537 14.25 3.84766 14.25H11.8477C12.3999 14.25 12.8477 13.8023 12.8477 13.25V2.25C12.8477 1.69772 12.3999 1.25 11.8477 1.25Z" stroke="#000001" stroke-linecap="round" stroke-linejoin="round"/>
<path d="M7.84766 12.25C9.22837 12.25 10.3477 11.1307 10.3477 9.75C10.3477 8.36929 9.22837 7.25 7.84766 7.25C6.46694 7.25 5.34766 8.36929 5.34766 9.75C5.34766 11.1307 6.46694 12.25 7.84766 12.25Z" stroke="#000001" stroke-linecap="round" stroke-linejoin="round"/>
<path d="M7.84766 4.75C8.1238 4.75 8.34766 4.52614 8.34766 4.25C8.34766 3.97386 8.1238 3.75 7.84766 3.75C7.57151 3.75 7.34766 3.97386 7.34766 4.25C7.34766 4.52614 7.57151 4.75 7.84766 4.75Z" stroke="#000001" stroke-linecap="round" stroke-linejoin="round"/>
<path d="M7.84766 10.25C8.1238 10.25 8.34766 10.0261 8.34766 9.75C8.34766 9.47386 8.1238 9.25 7.84766 9.25C7.57151 9.25 7.34766 9.47386 7.34766 9.75C7.34766 10.0261 7.57151 10.25 7.84766 10.25Z" stroke="#000001" stroke-linecap="round" stroke-linejoin="round"/>
</g>
<defs>
<clipPath id="clip0_6_6134">
<rect width="14" height="14" fill="white" transform="translate(0.847656 0.75)"/>
</clipPath>
</defs>
</svg>
