<svg width="15" height="15" viewBox="0 0 15 15" fill="none" xmlns="http://www.w3.org/2000/svg">
<g clip-path="url(#clip0_6_6195)">
<path d="M12.8477 5.75V8.75" stroke="#000001" stroke-linecap="round" stroke-linejoin="round"/>
<path d="M11.3477 7.25H14.3477" stroke="#000001" stroke-linecap="round" stroke-linejoin="round"/>
<path d="M3.84766 5.75H2.34766C2.08244 5.75 1.82809 5.85536 1.64055 6.04289C1.45301 6.23043 1.34766 6.48478 1.34766 6.75V8.75C1.34766 9.01522 1.45301 9.26957 1.64055 9.45711C1.82809 9.64464 2.08244 9.75 2.34766 9.75H3.84766V5.75Z" stroke="#000001" stroke-linecap="round" stroke-linejoin="round"/>
<path d="M3.84766 9.75035L7.75766 12.5604C7.90252 12.6606 8.0713 12.7208 8.2469 12.7348C8.4225 12.7489 8.5987 12.7163 8.75766 12.6404C8.93005 12.5629 9.07697 12.4382 9.18139 12.2807C9.28581 12.1232 9.34346 11.9393 9.34766 11.7503V3.75035C9.35193 3.57077 9.30776 3.39335 9.21978 3.23674C9.13179 3.08013 9.00325 2.95011 8.84766 2.86035C8.6887 2.78442 8.5125 2.75183 8.3369 2.76588C8.1613 2.77993 7.99252 2.84012 7.84766 2.94035L3.84766 5.75035" stroke="#000001" stroke-linecap="round" stroke-linejoin="round"/>
</g>
<defs>
<clipPath id="clip0_6_6195">
<rect width="14" height="14" fill="white" transform="translate(0.847656 0.75)"/>
</clipPath>
</defs>
</svg>
