<svg width="15" height="15" viewBox="0 0 15 15" fill="none" xmlns="http://www.w3.org/2000/svg">
<g clip-path="url(#clip0_6_6153)">
<path d="M11.0977 1.25H4.59766C4.04537 1.25 3.59766 1.69772 3.59766 2.25V13.25C3.59766 13.8023 4.04537 14.25 4.59766 14.25H11.0977C11.6499 14.25 12.0977 13.8023 12.0977 13.25V2.25C12.0977 1.69772 11.6499 1.25 11.0977 1.25Z" stroke="#000001" stroke-linecap="round" stroke-linejoin="round"/>
<path d="M6.11754 7.88981V4.56981C6.11487 4.51368 6.12752 4.45789 6.15411 4.40839C6.18071 4.35889 6.22025 4.31755 6.26853 4.2888C6.3168 4.26004 6.37198 4.24494 6.42817 4.24512C6.48436 4.2453 6.53945 4.26074 6.58754 4.28981L9.43754 5.95981C9.48539 5.9868 9.52521 6.02603 9.55291 6.07347C9.58062 6.12092 9.59522 6.17487 9.59522 6.22981C9.59522 6.28475 9.58062 6.3387 9.55291 6.38615C9.52521 6.43359 9.48539 6.47281 9.43754 6.49981L6.58754 8.15981C6.54018 8.18835 6.48605 8.20371 6.43076 8.20429C6.37547 8.20487 6.32103 8.19066 6.27308 8.16311C6.22514 8.13557 6.18543 8.0957 6.15808 8.04765C6.13073 7.99959 6.11673 7.9451 6.11754 7.88981Z" stroke="#000001" stroke-linecap="round" stroke-linejoin="round"/>
<path d="M3.59766 11.25H12.0977" stroke="#000001" stroke-linecap="round" stroke-linejoin="round"/>
</g>
<defs>
<clipPath id="clip0_6_6153">
<rect width="14" height="14" fill="white" transform="translate(0.847656 0.75)"/>
</clipPath>
</defs>
</svg>
