<svg width="15" height="15" viewBox="0 0 15 15" fill="none" xmlns="http://www.w3.org/2000/svg">
<g clip-path="url(#clip0_6_6089)">
<path d="M3.34766 14.1699C4.45223 14.1699 5.34766 13.2745 5.34766 12.1699C5.34766 11.0654 4.45223 10.1699 3.34766 10.1699C2.24309 10.1699 1.34766 11.0654 1.34766 12.1699C1.34766 13.2745 2.24309 14.1699 3.34766 14.1699Z" stroke="#000001" stroke-linecap="round" stroke-linejoin="round"/>
<path d="M12.3477 11.6699C13.4522 11.6699 14.3477 10.7745 14.3477 9.66992C14.3477 8.56535 13.4522 7.66992 12.3477 7.66992C11.2431 7.66992 10.3477 8.56535 10.3477 9.66992C10.3477 10.7745 11.2431 11.6699 12.3477 11.6699Z" stroke="#000001" stroke-linecap="round" stroke-linejoin="round"/>
<path d="M14.3477 9.67021V1.83021C14.3472 1.7537 14.3292 1.67831 14.2951 1.60984C14.2609 1.54138 14.2115 1.48166 14.1507 1.43529C14.0898 1.38892 14.0191 1.35714 13.9441 1.34239C13.869 1.32764 13.7915 1.33031 13.7177 1.35021L5.71766 3.57021C5.61194 3.59867 5.51848 3.66105 5.45164 3.74776C5.3848 3.83447 5.34827 3.94072 5.34766 4.05021V12.1702" stroke="#000001" stroke-linecap="round" stroke-linejoin="round"/>
<path d="M5.34766 6.66992L14.3477 4.16992" stroke="#000001" stroke-linecap="round" stroke-linejoin="round"/>
</g>
<defs>
<clipPath id="clip0_6_6089">
<rect width="14" height="14" fill="white" transform="translate(0.847656 0.75)"/>
</clipPath>
</defs>
</svg>
