<svg width="15" height="15" viewBox="0 0 15 15" fill="none" xmlns="http://www.w3.org/2000/svg">
<g clip-path="url(#clip0_6_6258)">
<path d="M1.34766 1.25V14.25" stroke="#000001" stroke-linecap="round" stroke-linejoin="round"/>
<path d="M14.3471 12.4102C14.3476 12.5901 14.2995 12.7668 14.208 12.9216C14.1165 13.0765 13.9849 13.2038 13.8271 13.2902C13.6751 13.378 13.5026 13.4242 13.3271 13.4242C13.1516 13.4242 12.9791 13.378 12.8271 13.2902L5.6371 8.59019C5.49675 8.49953 5.38136 8.37515 5.30145 8.22842C5.22155 8.08168 5.17969 7.91727 5.17969 7.75019C5.17969 7.58311 5.22155 7.41869 5.30145 7.27195C5.38136 7.12522 5.49675 7.00084 5.6371 6.91019L12.8471 2.25019C12.9991 2.16242 13.1716 2.11621 13.3471 2.11621C13.5226 2.11621 13.6951 2.16242 13.8471 2.25019C14.0049 2.33653 14.1365 2.46385 14.228 2.61873C14.3195 2.7736 14.3676 2.95029 14.3671 3.13019L14.3471 12.4102Z" stroke="#000001" stroke-linecap="round" stroke-linejoin="round"/>
</g>
<defs>
<clipPath id="clip0_6_6258">
<rect width="14" height="14" fill="white" transform="translate(0.847656 0.75)"/>
</clipPath>
</defs>
</svg>
