<svg width="15" height="15" viewBox="0 0 15 15" fill="none" xmlns="http://www.w3.org/2000/svg">
<g clip-path="url(#clip0_6_6245)">
<path d="M14.3477 3.25V12.25" stroke="#000001" stroke-linecap="round" stroke-linejoin="round"/>
<path d="M11.3477 3.25V12.25" stroke="#000001" stroke-linecap="round" stroke-linejoin="round"/>
<path d="M1.34766 11.0398C1.34718 11.167 1.38137 11.2919 1.44656 11.4012C1.51175 11.5104 1.60547 11.5998 1.71766 11.6598C1.82794 11.7259 1.95409 11.7608 2.08266 11.7608C2.21123 11.7608 2.33738 11.7259 2.44766 11.6598L7.52766 8.35979C7.62677 8.29652 7.70834 8.2093 7.76484 8.10618C7.82135 8.00307 7.85097 7.88738 7.85097 7.76979C7.85097 7.65221 7.82135 7.53652 7.76484 7.43341C7.70834 7.33029 7.62677 7.24307 7.52766 7.17979L2.44766 3.85979C2.33738 3.7937 2.21123 3.75879 2.08266 3.75879C1.95409 3.75879 1.82794 3.7937 1.71766 3.85979C1.60547 3.91976 1.51175 4.00917 1.44656 4.11841C1.38137 4.22765 1.34718 4.35258 1.34766 4.47979V11.0398Z" stroke="#000001" stroke-linecap="round" stroke-linejoin="round"/>
</g>
<defs>
<clipPath id="clip0_6_6245">
<rect width="14" height="14" fill="white" transform="translate(0.847656 0.75)"/>
</clipPath>
</defs>
</svg>
