<svg width="15" height="15" viewBox="0 0 15 15" fill="none" xmlns="http://www.w3.org/2000/svg">
<g clip-path="url(#clip0_6_6114)">
<path d="M13.3477 4.75H2.34766C1.79537 4.75 1.34766 5.19772 1.34766 5.75V13.25C1.34766 13.8023 1.79537 14.25 2.34766 14.25H13.3477C13.8999 14.25 14.3477 13.8023 14.3477 13.25V5.75C14.3477 5.19772 13.8999 4.75 13.3477 4.75Z" stroke="#000001" stroke-linecap="round" stroke-linejoin="round"/>
<path d="M2.84766 4.75L14.3477 1.25" stroke="#000001" stroke-linecap="round" stroke-linejoin="round"/>
<path d="M5.34766 12.25C6.17608 12.25 6.84766 11.5784 6.84766 10.75C6.84766 9.92157 6.17608 9.25 5.34766 9.25C4.51923 9.25 3.84766 9.92157 3.84766 10.75C3.84766 11.5784 4.51923 12.25 5.34766 12.25Z" stroke="#000001" stroke-linecap="round" stroke-linejoin="round"/>
<path d="M10.3477 9.5H11.8477" stroke="#000001" stroke-linecap="round" stroke-linejoin="round"/>
<path d="M10.3477 12H11.8477" stroke="#000001" stroke-linecap="round" stroke-linejoin="round"/>
<path d="M1.34766 7.25H14.3477" stroke="#000001" stroke-linecap="round" stroke-linejoin="round"/>
</g>
<defs>
<clipPath id="clip0_6_6114">
<rect width="14" height="14" fill="white" transform="translate(0.847656 0.75)"/>
</clipPath>
</defs>
</svg>
