<svg width="15" height="15" viewBox="0 0 15 15" fill="none" xmlns="http://www.w3.org/2000/svg">
<g clip-path="url(#clip0_6_6205)">
<path d="M1.34766 11.0398C1.34718 11.167 1.38137 11.2919 1.44656 11.4012C1.51175 11.5104 1.60547 11.5998 1.71766 11.6598C1.82794 11.7259 1.95409 11.7608 2.08266 11.7608C2.21123 11.7608 2.33738 11.7259 2.44766 11.6598L7.52766 8.35979C7.62677 8.29652 7.70834 8.2093 7.76484 8.10618C7.82135 8.00307 7.85097 7.88738 7.85097 7.76979C7.85097 7.65221 7.82135 7.53652 7.76484 7.43341C7.70834 7.33029 7.62677 7.24307 7.52766 7.17979L2.44766 3.85979C2.33738 3.7937 2.21123 3.75879 2.08266 3.75879C1.95409 3.75879 1.82794 3.7937 1.71766 3.85979C1.60547 3.91976 1.51175 4.00917 1.44656 4.11841C1.38137 4.22765 1.34718 4.35258 1.34766 4.47979V11.0398Z" stroke="#000001" stroke-linecap="round" stroke-linejoin="round"/>
<path d="M7.84766 11.0398C7.84718 11.167 7.88137 11.2919 7.94656 11.4012C8.01175 11.5104 8.10547 11.5998 8.21766 11.6598C8.32794 11.7259 8.45409 11.7608 8.58266 11.7608C8.71123 11.7608 8.83738 11.7259 8.94766 11.6598L14.0277 8.35979C14.1268 8.29652 14.2083 8.2093 14.2648 8.10618C14.3213 8.00307 14.351 7.88738 14.351 7.76979C14.351 7.65221 14.3213 7.53652 14.2648 7.43341C14.2083 7.33029 14.1268 7.24307 14.0277 7.17979L8.94766 3.85979C8.83738 3.7937 8.71123 3.75879 8.58266 3.75879C8.45409 3.75879 8.32794 3.7937 8.21766 3.85979C8.10843 3.91814 8.01663 4.00441 7.95162 4.10982C7.88662 4.21523 7.85075 4.33599 7.84766 4.45979V11.0398Z" stroke="#000001" stroke-linecap="round" stroke-linejoin="round"/>
<path d="M14.3477 3.25V12.25" stroke="#000001" stroke-linecap="round" stroke-linejoin="round"/>
</g>
<defs>
<clipPath id="clip0_6_6205">
<rect width="14" height="14" fill="white" transform="translate(0.847656 0.75)"/>
</clipPath>
</defs>
</svg>
