<svg width="15" height="15" viewBox="0 0 15 15" fill="none" xmlns="http://www.w3.org/2000/svg">
<g clip-path="url(#clip0_6_6298)">
<path d="M12.6973 13.9501L6.01734 11.4601C5.81961 11.3902 5.64262 11.2718 5.50267 11.1156C5.36273 10.9594 5.26432 10.7706 5.21651 10.5664C5.1687 10.3622 5.17303 10.1493 5.2291 9.94722C5.28516 9.74515 5.39117 9.56043 5.53734 9.41007L9.72734 5.22007C9.88212 5.075 10.071 4.97136 10.2765 4.91875C10.482 4.86615 10.6975 4.86628 10.9029 4.91913C11.1084 4.97199 11.2972 5.07586 11.4518 5.22112C11.6064 5.36638 11.7218 5.54832 11.7873 5.75007L14.2673 12.4301C14.3362 12.6465 14.3433 12.8778 14.2879 13.0981C14.2324 13.3183 14.1166 13.5187 13.9534 13.6766C13.7903 13.8346 13.5862 13.9439 13.3643 13.9922C13.1424 14.0405 12.9114 14.0259 12.6973 13.9501V13.9501Z" stroke="#000001" stroke-linecap="round" stroke-linejoin="round"/>
<path d="M2.89844 7.88028C3.3425 7.63248 3.86253 7.55768 4.35844 7.67028" stroke="#000001" stroke-linecap="round" stroke-linejoin="round"/>
<path d="M5.17814 5.03008C4.89496 4.60318 4.77759 4.08748 4.84814 3.58008" stroke="#000001" stroke-linecap="round" stroke-linejoin="round"/>
<path d="M7.47717 1.47021C7.12667 2.54389 7.1728 3.70765 7.60717 4.75021" stroke="#000001" stroke-linecap="round" stroke-linejoin="round"/>
<path d="M1.84766 4.53027C2.1238 4.53027 2.34766 4.30642 2.34766 4.03027C2.34766 3.75413 2.1238 3.53027 1.84766 3.53027C1.57151 3.53027 1.34766 3.75413 1.34766 4.03027C1.34766 4.30642 1.57151 4.53027 1.84766 4.53027Z" stroke="#000001" stroke-linecap="round" stroke-linejoin="round"/>
</g>
<defs>
<clipPath id="clip0_6_6298">
<rect width="14" height="14" fill="white" transform="translate(0.847656 0.75)"/>
</clipPath>
</defs>
</svg>
