<svg width="15" height="15" viewBox="0 0 15 15" fill="none" xmlns="http://www.w3.org/2000/svg">
<g clip-path="url(#clip0_6_6158)">
<path d="M13.3477 1.25H2.34766C1.79537 1.25 1.34766 1.69772 1.34766 2.25V13.25C1.34766 13.8023 1.79537 14.25 2.34766 14.25H13.3477C13.8999 14.25 14.3477 13.8023 14.3477 13.25V2.25C14.3477 1.69772 13.8999 1.25 13.3477 1.25Z" stroke="#000001" stroke-linecap="round" stroke-linejoin="round"/>
<path d="M6.07812 9.97982V5.65982C6.0785 5.58754 6.09798 5.51664 6.13458 5.45432C6.17119 5.39199 6.22362 5.34045 6.28657 5.30492C6.34951 5.26938 6.42073 5.25112 6.49301 5.25198C6.56528 5.25284 6.63605 5.2728 6.69812 5.30982L10.3981 7.45982C10.4604 7.49581 10.5121 7.54757 10.5481 7.60988C10.5841 7.67219 10.603 7.74287 10.603 7.81482C10.603 7.88677 10.5841 7.95745 10.5481 8.01976C10.5121 8.08207 10.4604 8.13383 10.3981 8.16982L6.69812 10.3298C6.63605 10.3668 6.56528 10.3868 6.49301 10.3877C6.42073 10.3885 6.34951 10.3703 6.28657 10.3347C6.22362 10.2992 6.17119 10.2476 6.13458 10.1853C6.09798 10.123 6.0785 10.0521 6.07812 9.97982V9.97982Z" stroke="#000001" stroke-linecap="round" stroke-linejoin="round"/>
</g>
<defs>
<clipPath id="clip0_6_6158">
<rect width="14" height="14" fill="white" transform="translate(0.847656 0.75)"/>
</clipPath>
</defs>
</svg>
