<svg width="15" height="15" viewBox="0 0 15 15" fill="none" xmlns="http://www.w3.org/2000/svg">
<g clip-path="url(#clip0_6_6147)">
<path d="M6.34766 9.43014V6.07014C6.34766 5.82014 6.57766 5.67014 6.75766 5.79014L9.20766 7.47014C9.25112 7.50274 9.28641 7.54502 9.31071 7.59362C9.33501 7.64222 9.34766 7.69581 9.34766 7.75014C9.34766 7.80448 9.33501 7.85807 9.31071 7.90667C9.28641 7.95527 9.25112 7.99754 9.20766 8.03014L6.75766 9.75014C6.57766 9.83014 6.34766 9.68014 6.34766 9.43014Z" stroke="#000001" stroke-linecap="round" stroke-linejoin="round"/>
<path d="M10.8477 2.25H4.84766C4.29537 2.25 3.84766 2.69772 3.84766 3.25V12.25C3.84766 12.8023 4.29537 13.25 4.84766 13.25H10.8477C11.3999 13.25 11.8477 12.8023 11.8477 12.25V3.25C11.8477 2.69772 11.3999 2.25 10.8477 2.25Z" stroke="#000001" stroke-linecap="round" stroke-linejoin="round"/>
<path d="M1.34766 3.75V11.75" stroke="#000001" stroke-linecap="round" stroke-linejoin="round"/>
<path d="M14.3477 3.75V11.75" stroke="#000001" stroke-linecap="round" stroke-linejoin="round"/>
</g>
<defs>
<clipPath id="clip0_6_6147">
<rect width="14" height="14" fill="white" transform="translate(0.847656 0.75)"/>
</clipPath>
</defs>
</svg>
