<svg width="15" height="15" viewBox="0 0 15 15" fill="none" xmlns="http://www.w3.org/2000/svg">
<g clip-path="url(#clip0_6_6239)">
<path d="M2.34766 13.0997C2.35125 13.3081 2.41187 13.5114 2.52294 13.6877C2.63401 13.864 2.79128 14.0065 2.97766 14.0997C3.16376 14.2049 3.37389 14.2601 3.58766 14.2601C3.80142 14.2601 4.01155 14.2049 4.19766 14.0997L12.8477 8.74971C13.0359 8.65904 13.1947 8.51709 13.3058 8.3402C13.4169 8.1633 13.4759 7.95863 13.4759 7.74971C13.4759 7.5408 13.4169 7.33613 13.3058 7.15923C13.1947 6.98233 13.0359 6.84039 12.8477 6.74971L4.19766 1.43971C4.01155 1.33456 3.80142 1.2793 3.58766 1.2793C3.37389 1.2793 3.16376 1.33456 2.97766 1.43971C2.79128 1.5329 2.63401 1.67539 2.52294 1.85169C2.41187 2.028 2.35125 2.23137 2.34766 2.43971V13.0997Z" stroke="#000001" stroke-linecap="round" stroke-linejoin="round"/>
</g>
<defs>
<clipPath id="clip0_6_6239">
<rect width="14" height="14" fill="white" transform="translate(0.847656 0.75)"/>
</clipPath>
</defs>
</svg>
