<svg width="16" height="16" viewBox="0 0 16 16" fill="none" xmlns="http://www.w3.org/2000/svg">
<path d="M2 4.66675H4" stroke="#F6F6F6" stroke-width="1.5" stroke-linecap="round" stroke-linejoin="round"/>
<path d="M2 11.3333H6" stroke="#F6F6F6" stroke-width="1.5" stroke-linecap="round" stroke-linejoin="round"/>
<path d="M12 11.3333H14" stroke="#F6F6F6" stroke-width="1.5" stroke-linecap="round" stroke-linejoin="round"/>
<path d="M10 4.66675H14" stroke="#F6F6F6" stroke-width="1.5" stroke-linecap="round" stroke-linejoin="round"/>
<path d="M4 4.66675C4 4.04549 4 3.73487 4.10149 3.48983C4.23682 3.16313 4.49639 2.90357 4.82309 2.76824C5.06812 2.66675 5.37875 2.66675 6 2.66675C6.62125 2.66675 6.93187 2.66675 7.17693 2.76824C7.5036 2.90357 7.7632 3.16313 7.89853 3.48983C8 3.73487 8 4.04549 8 4.66675C8 5.288 8 5.59863 7.89853 5.84366C7.7632 6.17036 7.5036 6.42993 7.17693 6.56525C6.93187 6.66675 6.62125 6.66675 6 6.66675C5.37875 6.66675 5.06812 6.66675 4.82309 6.56525C4.49639 6.42993 4.23682 6.17036 4.10149 5.84366C4 5.59863 4 5.288 4 4.66675Z" stroke="#F6F6F6" stroke-width="1.5"/>
<path d="M8 11.3333C8 10.712 8 10.4014 8.10147 10.1563C8.2368 9.82965 8.4964 9.57005 8.82307 9.43472C9.06813 9.33325 9.37873 9.33325 10 9.33325C10.6213 9.33325 10.9319 9.33325 11.1769 9.43472C11.5036 9.57005 11.7632 9.82965 11.8985 10.1563C12 10.4014 12 10.712 12 11.3333C12 11.9545 12 12.2651 11.8985 12.5102C11.7632 12.8369 11.5036 13.0965 11.1769 13.2318C10.9319 13.3333 10.6213 13.3333 10 13.3333C9.37873 13.3333 9.06813 13.3333 8.82307 13.2318C8.4964 13.0965 8.2368 12.8369 8.10147 12.5102C8 12.2651 8 11.9545 8 11.3333Z" stroke="#F6F6F6" stroke-width="1.5"/>
</svg>
