<svg width="15" height="15" viewBox="0 0 15 15" fill="none" xmlns="http://www.w3.org/2000/svg">
<g clip-path="url(#clip0_6_5710)">
<path d="M3.4082 6.75L4.2382 13.37C4.26768 13.6139 4.38591 13.8384 4.57035 14.0007C4.75479 14.163 4.99252 14.2518 5.2382 14.25H10.4682C10.7139 14.2518 10.9516 14.163 11.1361 14.0007C11.3205 13.8384 11.4387 13.6139 11.4682 13.37L12.2882 6.75" stroke="#000001" stroke-linecap="round" stroke-linejoin="round"/>
<path d="M11.8477 3.82011C11.7261 3.82203 11.6052 3.83882 11.4877 3.87011C11.579 3.65149 11.6266 3.41706 11.6277 3.18011C11.6094 2.65843 11.3879 2.16455 11.0105 1.80394C10.6331 1.44333 10.1296 1.24457 9.60766 1.25011C9.24585 1.25108 8.89108 1.35017 8.58114 1.53684C8.2712 1.72351 8.01771 1.99075 7.84766 2.31011C7.67761 1.99075 7.42411 1.72351 7.11417 1.53684C6.80423 1.35017 6.44946 1.25108 6.08766 1.25011C5.56913 1.2498 5.07075 1.45087 4.69763 1.81094C4.3245 2.171 4.1058 2.66191 4.08766 3.18011C4.08871 3.41706 4.13628 3.65149 4.22766 3.87011C4.10367 3.83716 3.97595 3.82035 3.84766 3.82011C3.44983 3.82011 3.0683 3.97815 2.787 4.25945C2.50569 4.54076 2.34766 4.92229 2.34766 5.32011C2.34766 5.71794 2.50569 6.09947 2.787 6.38077C3.0683 6.66208 3.44983 6.82011 3.84766 6.82011C4.07651 6.8205 4.30264 6.77054 4.51003 6.67376C4.71741 6.57698 4.90096 6.43576 5.04766 6.26011C5.15628 6.55427 5.35266 6.80795 5.61022 6.98682C5.86778 7.16568 6.17408 7.26108 6.48766 7.26011C6.76028 7.26578 7.02958 7.19942 7.26837 7.06774C7.50715 6.93606 7.70697 6.74371 7.84766 6.51011C7.9861 6.73598 8.18013 6.9226 8.41121 7.05215C8.6423 7.1817 8.90273 7.24985 9.16766 7.25011C9.48123 7.25108 9.78753 7.15568 10.0451 6.97682C10.3026 6.79795 10.499 6.54427 10.6077 6.25011C10.7544 6.42576 10.9379 6.56698 11.1453 6.66376C11.3527 6.76054 11.5788 6.8105 11.8077 6.81011C12.2055 6.81011 12.587 6.65208 12.8683 6.37077C13.1496 6.08947 13.3077 5.70794 13.3077 5.31011C13.3077 4.91229 13.1496 4.53076 12.8683 4.24945C12.587 3.96815 12.2055 3.81011 11.8077 3.81011L11.8477 3.82011Z" stroke="#000001" stroke-linecap="round" stroke-linejoin="round"/>
</g>
<defs>
<clipPath id="clip0_6_5710">
<rect width="14" height="14" fill="white" transform="translate(0.847656 0.75)"/>
</clipPath>
</defs>
</svg>
