<svg width="15" height="15" viewBox="0 0 15 15" fill="none" xmlns="http://www.w3.org/2000/svg">
<g clip-path="url(#clip0_6_5617)">
<path d="M8.84766 6.75C7.97698 6.75063 7.11885 6.95759 6.3436 7.3539C5.56835 7.75022 4.89805 8.32461 4.38766 9.03L2.34766 7.75L1.34766 8.75L3.34766 12.25V13.25C3.34766 13.5152 3.45301 13.7696 3.64055 13.9571C3.82809 14.1446 4.08244 14.25 4.34766 14.25H13.3477C13.6129 14.25 13.8672 14.1446 14.0548 13.9571C14.2423 13.7696 14.3477 13.5152 14.3477 13.25V12.25C14.3477 10.7913 13.7682 9.39236 12.7367 8.36091C11.7053 7.32946 10.3063 6.75 8.84766 6.75Z" stroke="#000001" stroke-linecap="round" stroke-linejoin="round"/>
<path d="M8.84766 6.75V5.25" stroke="#000001" stroke-linecap="round" stroke-linejoin="round"/>
<path d="M4.84766 8.48V5.25C4.84766 4.18913 5.26908 3.17172 6.01923 2.42157C6.76937 1.67143 7.78679 1.25 8.84766 1.25C9.90852 1.25 10.9259 1.67143 11.6761 2.42157C12.4262 3.17172 12.8477 4.18913 12.8477 5.25V8.48" stroke="#000001" stroke-linecap="round" stroke-linejoin="round"/>
</g>
<defs>
<clipPath id="clip0_6_5617">
<rect width="14" height="14" fill="white" transform="translate(0.847656 0.75)"/>
</clipPath>
</defs>
</svg>
