<svg width="15" height="15" viewBox="0 0 15 15" fill="none" xmlns="http://www.w3.org/2000/svg">
<g clip-path="url(#clip0_6_5626)">
<path d="M9.09766 4.75V1.75C9.09766 1.61739 9.04498 1.49021 8.95121 1.39645C8.85744 1.30268 8.73026 1.25 8.59766 1.25H7.09766C6.96505 1.25 6.83787 1.30268 6.7441 1.39645C6.65034 1.49021 6.59766 1.61739 6.59766 1.75V4.75C6.1361 5.0568 5.7576 5.47301 5.49588 5.96155C5.23417 6.45009 5.09736 6.99578 5.09766 7.55V13.25C5.09766 13.5152 5.20301 13.7696 5.39055 13.9571C5.57809 14.1446 5.83244 14.25 6.09766 14.25H9.59766C9.86287 14.25 10.1172 14.1446 10.3048 13.9571C10.4923 13.7696 10.5977 13.5152 10.5977 13.25V7.55C10.598 6.99578 10.4611 6.45009 10.1994 5.96155C9.93771 5.47301 9.55921 5.0568 9.09766 4.75Z" stroke="#000001" stroke-linecap="round" stroke-linejoin="round"/>
<path d="M5.09766 8.25H10.5977" stroke="#000001" stroke-linecap="round" stroke-linejoin="round"/>
<path d="M10.5977 11.75H5.09766" stroke="#000001" stroke-linecap="round" stroke-linejoin="round"/>
</g>
<defs>
<clipPath id="clip0_6_5626">
<rect width="14" height="14" fill="white" transform="translate(0.847656 0.75)"/>
</clipPath>
</defs>
</svg>
