<svg width="15" height="15" viewBox="0 0 15 15" fill="none" xmlns="http://www.w3.org/2000/svg">
<g clip-path="url(#clip0_6_5590)">
<path d="M12.3477 6.75L11.4577 13.37C11.4282 13.6139 11.3099 13.8384 11.1255 14.0007C10.9411 14.163 10.7033 14.2518 10.4577 14.25H5.22766C4.98198 14.2518 4.74424 14.163 4.55981 14.0007C4.37537 13.8384 4.25713 13.6139 4.22766 13.37L3.34766 6.75" stroke="#000001" stroke-linecap="round" stroke-linejoin="round"/>
<path d="M11.5777 4.43038C11.5081 4.2234 11.3727 4.04489 11.1921 3.9221C11.0115 3.79931 10.7957 3.739 10.5777 3.75038H5.06766C4.85801 3.74984 4.6535 3.8152 4.48303 3.93723C4.31255 4.05925 4.18474 4.23176 4.11766 4.43038L3.34766 6.75038H12.3477L11.5777 4.43038Z" stroke="#000001" stroke-linecap="round" stroke-linejoin="round"/>
<path d="M9.34766 3.75V2.25C9.34766 1.98478 9.2423 1.73043 9.05476 1.54289C8.86723 1.35536 8.61287 1.25 8.34766 1.25H7.34766C7.08244 1.25 6.82809 1.35536 6.64055 1.54289C6.45301 1.73043 6.34766 1.98478 6.34766 2.25V3.75" stroke="#000001" stroke-linecap="round" stroke-linejoin="round"/>
</g>
<defs>
<clipPath id="clip0_6_5590">
<rect width="14" height="14" fill="white" transform="translate(0.847656 0.75)"/>
</clipPath>
</defs>
</svg>
