<svg width="15" height="15" viewBox="0 0 15 15" fill="none" xmlns="http://www.w3.org/2000/svg">
<g clip-path="url(#clip0_6_5755)">
<path d="M2.48353 7.67973L8.95125 2.60657C9.57729 2.11551 10.3728 1.89326 11.1627 1.98871C11.9526 2.08416 12.6722 2.48949 13.1633 3.11553L14.1384 4.35872C14.3021 4.5674 14.3762 4.83255 14.3443 5.09585C14.3125 5.35915 14.1774 5.59903 13.9687 5.76272L4.3537 13.3046C4.14502 13.4683 3.87986 13.5423 3.61656 13.5105C3.35326 13.4787 3.11338 13.3436 2.9497 13.1349L1.97457 11.8917C1.48351 11.2657 1.26126 10.4702 1.35671 9.68032C1.45216 8.89042 1.85749 8.17078 2.48353 7.67973V7.67973Z" stroke="#000001" stroke-linecap="round" stroke-linejoin="round"/>
<path d="M3.7168 6.70996L5.2768 8.70996" stroke="#000001" stroke-linecap="round" stroke-linejoin="round"/>
<path d="M7.30664 3.89062L8.87664 5.89062" stroke="#000001" stroke-linecap="round" stroke-linejoin="round"/>
</g>
<defs>
<clipPath id="clip0_6_5755">
<rect width="14" height="14" fill="white" transform="translate(0.847656 0.75)"/>
</clipPath>
</defs>
</svg>
