<svg width="15" height="15" viewBox="0 0 15 15" fill="none" xmlns="http://www.w3.org/2000/svg">
<g clip-path="url(#clip0_6_5636)">
<path d="M4.84766 1.25H10.8477C11.7759 1.25 12.6662 1.61875 13.3225 2.27513C13.9789 2.9315 14.3477 3.82174 14.3477 4.75C14.3477 5.01522 14.2423 5.26957 14.0548 5.45711C13.8672 5.64464 13.6129 5.75 13.3477 5.75H2.34766C2.08244 5.75 1.82809 5.64464 1.64055 5.45711C1.45301 5.26957 1.34766 5.01522 1.34766 4.75C1.34766 3.82174 1.71641 2.9315 2.37278 2.27513C3.02916 1.61875 3.9194 1.25 4.84766 1.25V1.25Z" stroke="#000001" stroke-linecap="round" stroke-linejoin="round"/>
<path d="M1.34766 8.25H14.3477" stroke="#000001" stroke-linecap="round" stroke-linejoin="round"/>
<path d="M13.8477 10.75H7.84766L6.34766 12.25L3.34766 10.75H1.84766C1.71505 10.75 1.58787 10.8027 1.4941 10.8964C1.40033 10.9902 1.34766 11.1174 1.34766 11.25V11.25C1.34766 12.0456 1.66373 12.8087 2.22634 13.3713C2.78895 13.9339 3.55201 14.25 4.34766 14.25H11.3477C12.1433 14.25 12.9064 13.9339 13.469 13.3713C14.0316 12.8087 14.3477 12.0456 14.3477 11.25C14.3477 11.1174 14.295 10.9902 14.2012 10.8964C14.1074 10.8027 13.9803 10.75 13.8477 10.75Z" stroke="#000001" stroke-linecap="round" stroke-linejoin="round"/>
</g>
<defs>
<clipPath id="clip0_6_5636">
<rect width="14" height="14" fill="white" transform="translate(0.847656 0.75)"/>
</clipPath>
</defs>
</svg>
