<svg width="15" height="15" viewBox="0 0 15 15" fill="none" xmlns="http://www.w3.org/2000/svg">
<g clip-path="url(#clip0_6_5672)">
<path d="M14.337 10.3497C14.3012 10.0152 14.1646 9.6995 13.9453 9.44439C13.7261 9.18929 13.4345 9.00682 13.1092 8.92115C12.7839 8.83549 12.4402 8.85068 12.1238 8.96471C11.8073 9.07873 11.5329 9.28622 11.337 9.55967L10.337 8.55967C10.337 8.55967 10.257 8.50967 10.227 8.47967C10.5789 7.47289 10.6359 6.38656 10.3915 5.34846C10.147 4.31035 9.61118 3.36364 8.84702 2.61967C8.45815 2.19368 7.98474 1.85342 7.45702 1.62062C6.92929 1.38782 6.35882 1.26758 5.78202 1.26758C5.20523 1.26758 4.63476 1.38782 4.10703 1.62062C3.5793 1.85342 3.1059 2.19368 2.71702 2.61967C2.28983 3.00658 1.9477 3.47804 1.71232 4.00415C1.47694 4.53025 1.35346 5.09953 1.3497 5.67588C1.34594 6.25223 1.46198 6.82307 1.69047 7.35221C1.91896 7.88134 2.25492 8.35722 2.67702 8.74967C3.436 9.53607 4.4092 10.0823 5.47584 10.3205C6.54248 10.5587 7.65559 10.4785 8.67702 10.0897C8.67512 10.1163 8.67512 10.143 8.67702 10.1697L9.84702 11.3297C9.64306 11.5016 9.48443 11.721 9.38505 11.9686C9.28566 12.2162 9.24857 12.4844 9.27702 12.7497C9.32211 13.1886 9.53972 13.5917 9.88197 13.8701C10.2242 14.1486 10.6631 14.2798 11.102 14.2347C11.541 14.1896 11.944 13.972 12.2225 13.6297C12.501 13.2875 12.6321 12.8486 12.587 12.4097C12.5751 12.3386 12.5584 12.2685 12.537 12.1997H12.847C13.0679 12.1799 13.2825 12.1159 13.478 12.0113C13.6735 11.9068 13.846 11.7639 13.985 11.5912C14.1241 11.4185 14.227 11.2196 14.2874 11.0063C14.3479 10.793 14.3648 10.5697 14.337 10.3497V10.3497Z" stroke="#000001" stroke-linecap="round" stroke-linejoin="round"/>
</g>
<defs>
<clipPath id="clip0_6_5672">
<rect width="14" height="14" fill="white" transform="translate(0.847656 0.75)"/>
</clipPath>
</defs>
</svg>
