<svg width="15" height="15" viewBox="0 0 15 15" fill="none" xmlns="http://www.w3.org/2000/svg">
<g clip-path="url(#clip0_6_5681)">
<path d="M8.84766 10.75V13.25C8.84766 13.5152 8.7423 13.7696 8.55476 13.9571C8.36723 14.1446 8.11287 14.25 7.84766 14.25C7.58244 14.25 7.32809 14.1446 7.14055 13.9571C6.95301 13.7696 6.84766 13.5152 6.84766 13.25V10.75" stroke="#000001" stroke-linecap="round" stroke-linejoin="round"/>
<path d="M10.5977 3.75C10.1335 3.75 9.68841 3.56563 9.36022 3.23744C9.03203 2.90925 8.84766 2.46413 8.84766 2C8.85004 1.80911 8.88383 1.61992 8.94766 1.44C8.59298 1.32033 8.22193 1.25624 7.84766 1.25C6.9194 1.25 6.02916 1.61875 5.37278 2.27513C4.71641 2.9315 4.34766 3.82174 4.34766 4.75V9.75C4.34766 10.0152 4.45301 10.2696 4.64055 10.4571C4.82809 10.6446 5.08244 10.75 5.34766 10.75H10.3477C10.6129 10.75 10.8672 10.6446 11.0548 10.4571C11.2423 10.2696 11.3477 10.0152 11.3477 9.75V4.75C11.3414 4.37573 11.2773 4.00468 11.1577 3.65C10.9777 3.71383 10.7885 3.74761 10.5977 3.75V3.75Z" stroke="#000001" stroke-linecap="round" stroke-linejoin="round"/>
</g>
<defs>
<clipPath id="clip0_6_5681">
<rect width="14" height="14" fill="white" transform="translate(0.847656 0.75)"/>
</clipPath>
</defs>
</svg>
