<svg width="15" height="15" viewBox="0 0 15 15" fill="none" xmlns="http://www.w3.org/2000/svg">
<g clip-path="url(#clip0_6_5691)">
<path d="M11.2083 7.22949L8.33828 13.9295C8.29775 14.0288 8.22855 14.1139 8.1395 14.1737C8.05044 14.2336 7.94558 14.2655 7.83828 14.2655C7.73098 14.2655 7.62612 14.2336 7.53707 14.1737C7.44801 14.1139 7.37881 14.0288 7.33828 13.9295L4.48828 7.22949" stroke="#000001" stroke-linecap="round" stroke-linejoin="round"/>
<path d="M5.72766 7.63012C6.90402 7.63012 7.85766 6.67648 7.85766 5.50012C7.85766 4.32375 6.90402 3.37012 5.72766 3.37012C4.55129 3.37012 3.59766 4.32375 3.59766 5.50012C3.59766 6.67648 4.55129 7.63012 5.72766 7.63012Z" stroke="#000001" stroke-linecap="round" stroke-linejoin="round"/>
<path d="M5.72852 3.37977C5.72852 2.81751 5.95187 2.27828 6.34945 1.8807C6.74703 1.48312 7.28626 1.25977 7.84852 1.25977C8.41077 1.25977 8.95 1.48312 9.34758 1.8807C9.74516 2.27828 9.96852 2.81751 9.96852 3.37977" stroke="#000001" stroke-linecap="round" stroke-linejoin="round"/>
<path d="M9.97766 7.63012C11.154 7.63012 12.1077 6.67648 12.1077 5.50012C12.1077 4.32375 11.154 3.37012 9.97766 3.37012C8.80129 3.37012 7.84766 4.32375 7.84766 5.50012C7.84766 6.67648 8.80129 7.63012 9.97766 7.63012Z" stroke="#000001" stroke-linecap="round" stroke-linejoin="round"/>
</g>
<defs>
<clipPath id="clip0_6_5691">
<rect width="14" height="14" fill="white" transform="translate(0.847656 0.75)"/>
</clipPath>
</defs>
</svg>
