<svg width="15" height="15" viewBox="0 0 15 15" fill="none" xmlns="http://www.w3.org/2000/svg">
<g clip-path="url(#clip0_6_5724)">
<path d="M6.97787 1.75011L1.84787 11.4001C1.77662 11.5332 1.73251 11.6791 1.7181 11.8294C1.70369 11.9796 1.71926 12.1312 1.76391 12.2754C1.80857 12.4196 1.88141 12.5535 1.97822 12.6693C2.07504 12.7852 2.19388 12.8806 2.32787 12.9501C4.03379 13.8099 5.91753 14.2578 7.82787 14.2578C9.73822 14.2578 11.622 13.8099 13.3279 12.9501C13.4653 12.8842 13.5881 12.7913 13.689 12.6771C13.7899 12.5628 13.8669 12.4295 13.9153 12.285C13.9638 12.1405 13.9828 11.9877 13.9712 11.8357C13.9597 11.6837 13.9177 11.5356 13.8479 11.4001L8.71787 1.75011C8.63066 1.59621 8.50418 1.46821 8.35134 1.37915C8.1985 1.29009 8.02477 1.24316 7.84787 1.24316C7.67098 1.24316 7.49725 1.29009 7.34441 1.37915C7.19157 1.46821 7.06509 1.59621 6.97787 1.75011Z" stroke="#000001" stroke-linecap="round" stroke-linejoin="round"/>
<path d="M13.0874 10.04C11.4543 10.8327 9.66271 11.2446 7.84742 11.2446C6.03213 11.2446 4.2405 10.8327 2.60742 10.04" stroke="#000001" stroke-linecap="round" stroke-linejoin="round"/>
<path d="M6.34766 8.25V8.75" stroke="#000001" stroke-linecap="round" stroke-linejoin="round"/>
<path d="M9.34766 8.25V8.75" stroke="#000001" stroke-linecap="round" stroke-linejoin="round"/>
<path d="M7.84766 5.25V5.75" stroke="#000001" stroke-linecap="round" stroke-linejoin="round"/>
</g>
<defs>
<clipPath id="clip0_6_5724">
<rect width="14" height="14" fill="white" transform="translate(0.847656 0.75)"/>
</clipPath>
</defs>
</svg>
