<svg width="15" height="15" viewBox="0 0 15 15" fill="none" xmlns="http://www.w3.org/2000/svg">
<g clip-path="url(#clip0_6_5648)">
<path d="M6.34766 5.75C6.34766 5.35218 6.50569 4.97064 6.787 4.68934C7.0683 4.40804 7.44983 4.25 7.84766 4.25C8.24548 4.25 8.62701 4.40804 8.90832 4.68934C9.18962 4.97064 9.34766 5.35218 9.34766 5.75V12.75C9.34766 13.1478 9.50569 13.5294 9.787 13.8107C10.0683 14.092 10.4498 14.25 10.8477 14.25C11.2455 14.25 11.627 14.092 11.9083 13.8107C12.1896 13.5294 12.3477 13.1478 12.3477 12.75V5.75C12.3477 4.55653 11.8736 3.41193 11.0296 2.56802C10.1857 1.72411 9.04113 1.25 7.84766 1.25C6.65418 1.25 5.50959 1.72411 4.66568 2.56802C3.82176 3.41193 3.34766 4.55653 3.34766 5.75V6.75C3.34766 7.14782 3.50569 7.52936 3.787 7.81066C4.0683 8.09196 4.44983 8.25 4.84766 8.25C5.24548 8.25 5.62701 8.09196 5.90832 7.81066C6.18962 7.52936 6.34766 7.14782 6.34766 6.75V5.75Z" stroke="#000001" stroke-linecap="round" stroke-linejoin="round"/>
<path d="M9.34766 10.75L12.3477 7.75" stroke="#000001" stroke-linecap="round" stroke-linejoin="round"/>
<path d="M9.26758 5.25961L10.7976 2.34961" stroke="#000001" stroke-linecap="round" stroke-linejoin="round"/>
<path d="M6.70695 4.76988L3.87695 3.62988" stroke="#000001" stroke-linecap="round" stroke-linejoin="round"/>
</g>
<defs>
<clipPath id="clip0_6_5648">
<rect width="14" height="14" fill="white" transform="translate(0.847656 0.75)"/>
</clipPath>
</defs>
</svg>
