<svg width="15" height="15" viewBox="0 0 15 15" fill="none" xmlns="http://www.w3.org/2000/svg">
<g clip-path="url(#clip0_6_5660)">
<path d="M9.93766 1.52L9.84766 1.5L1.59766 6.36C1.52585 6.39788 1.46508 6.45371 1.42127 6.52206C1.37746 6.59041 1.3521 6.66894 1.34766 6.75V13.46C1.34766 13.5926 1.40033 13.7198 1.4941 13.8136C1.58787 13.9073 1.71505 13.96 1.84766 13.96H13.8477C13.9803 13.96 14.1074 13.9073 14.2012 13.8136C14.295 13.7198 14.3477 13.5926 14.3477 13.46V6.46C14.1938 5.28891 13.6908 4.1913 12.9042 3.31017C12.1176 2.42904 11.0839 1.80522 9.93766 1.52V1.52Z" stroke="#000001" stroke-linecap="round" stroke-linejoin="round"/>
<path d="M1.4375 6.5H13.8475" stroke="#000001" stroke-linecap="round" stroke-linejoin="round"/>
<path d="M1.34766 11.17L1.42766 11.1C1.61289 10.911 1.83377 10.7607 2.07753 10.6577C2.32128 10.5547 2.58304 10.5011 2.84766 10.5C3.37809 10.5 3.8868 10.7107 4.26187 11.0858C4.63694 11.4609 4.84766 11.9696 4.84766 12.5C4.84542 13.0296 4.63324 13.5366 4.25766 13.91L4.17766 14" stroke="#000001" stroke-linecap="round" stroke-linejoin="round"/>
<path d="M9.84766 11.5C10.6761 11.5 11.3477 10.8284 11.3477 10C11.3477 9.17157 10.6761 8.5 9.84766 8.5C9.01923 8.5 8.34766 9.17157 8.34766 10C8.34766 10.8284 9.01923 11.5 9.84766 11.5Z" stroke="#000001" stroke-linecap="round" stroke-linejoin="round"/>
</g>
<defs>
<clipPath id="clip0_6_5660">
<rect width="14" height="14" fill="white" transform="translate(0.847656 0.75)"/>
</clipPath>
</defs>
</svg>
