<svg width="15" height="15" viewBox="0 0 15 15" fill="none" xmlns="http://www.w3.org/2000/svg">
<g clip-path="url(#clip0_6_5714)">
<path d="M9.46766 3.25C5.13766 3.25 1.34766 3.9 1.34766 6.75C1.42587 7.46971 1.78472 8.12955 2.34636 8.58635C2.908 9.04315 3.62711 9.26005 4.34766 9.19C4.78547 9.18961 5.21944 9.10825 5.62766 8.95C5.75382 8.89494 5.89 8.86652 6.02766 8.86652C6.16531 8.86652 6.30149 8.89494 6.42766 8.95C7.35888 9.46486 8.40363 9.73979 9.46766 9.75C12.1677 9.75 14.3477 8.29 14.3477 6.5C14.3477 4.71 12.1677 3.25 9.46766 3.25Z" stroke="#000001" stroke-linecap="round" stroke-linejoin="round"/>
<path d="M14.3481 6.5V9C14.3481 10.79 12.1681 12.25 9.46813 12.25C8.40332 12.2646 7.35165 12.0137 6.40812 11.52C6.28196 11.4649 6.14578 11.4365 6.00812 11.4365C5.87047 11.4365 5.73429 11.4649 5.60813 11.52C5.19926 11.6748 4.76531 11.7528 4.32812 11.75C3.60757 11.8201 2.88847 11.6031 2.32683 11.1463C1.76519 10.6895 1.40634 10.0297 1.32812 9.31V6.75" stroke="#000001" stroke-linecap="round" stroke-linejoin="round"/>
<path d="M4.84766 6.75C5.1238 6.75 5.34766 6.52614 5.34766 6.25C5.34766 5.97386 5.1238 5.75 4.84766 5.75C4.57151 5.75 4.34766 5.97386 4.34766 6.25C4.34766 6.52614 4.57151 6.75 4.84766 6.75Z" stroke="#000001" stroke-linecap="round" stroke-linejoin="round"/>
</g>
<defs>
<clipPath id="clip0_6_5714">
<rect width="14" height="14" fill="white" transform="translate(0.847656 0.75)"/>
</clipPath>
</defs>
</svg>
