<svg width="15" height="15" viewBox="0 0 15 15" fill="none" xmlns="http://www.w3.org/2000/svg">
<g clip-path="url(#clip0_6_5703)">
<path d="M10.5977 1.25L8.84766 6.75L14.3477 5C14.3477 4.00544 13.9526 3.05161 13.2493 2.34835C12.546 1.64509 11.5922 1.25 10.5977 1.25Z" stroke="#000001" stroke-linecap="round" stroke-linejoin="round"/>
<path d="M8.34766 1.27L7.84766 1.25C6.56208 1.25 5.30537 1.63122 4.23645 2.34545C3.16753 3.05968 2.33441 4.07484 1.84244 5.26256C1.35047 6.45028 1.22175 7.75721 1.47255 9.01809C1.72336 10.279 2.34242 11.4372 3.25147 12.3462C4.16051 13.2552 5.3187 13.8743 6.57957 14.1251C7.84045 14.3759 9.14738 14.2472 10.3351 13.7552C11.5228 13.2632 12.538 12.4301 13.2522 11.3612C13.9664 10.2923 14.3477 9.03558 14.3477 7.75C14.3477 7.58 14.3477 7.42 14.3477 7.25" stroke="#000001" stroke-linecap="round" stroke-linejoin="round"/>
<path d="M6.34766 10.75C6.6238 10.75 6.84766 10.5261 6.84766 10.25C6.84766 9.97386 6.6238 9.75 6.34766 9.75C6.07151 9.75 5.84766 9.97386 5.84766 10.25C5.84766 10.5261 6.07151 10.75 6.34766 10.75Z" stroke="#000001" stroke-linecap="round" stroke-linejoin="round"/>
<path d="M4.84766 6.25C5.1238 6.25 5.34766 6.02614 5.34766 5.75C5.34766 5.47386 5.1238 5.25 4.84766 5.25C4.57151 5.25 4.34766 5.47386 4.34766 5.75C4.34766 6.02614 4.57151 6.25 4.84766 6.25Z" stroke="#000001" stroke-linecap="round" stroke-linejoin="round"/>
<path d="M11.3477 9.25C11.6238 9.25 11.8477 9.02614 11.8477 8.75C11.8477 8.47386 11.6238 8.25 11.3477 8.25C11.0715 8.25 10.8477 8.47386 10.8477 8.75C10.8477 9.02614 11.0715 9.25 11.3477 9.25Z" stroke="#000001" stroke-linecap="round" stroke-linejoin="round"/>
</g>
<defs>
<clipPath id="clip0_6_5703">
<rect width="14" height="14" fill="white" transform="translate(0.847656 0.75)"/>
</clipPath>
</defs>
</svg>
