<svg width="15" height="15" viewBox="0 0 15 15" fill="none" xmlns="http://www.w3.org/2000/svg">
<g clip-path="url(#clip0_6_5654)">
<path d="M1.4375 6.5H13.8475" stroke="#000001" stroke-linecap="round" stroke-linejoin="round"/>
<path d="M9.93766 1.52L9.84766 1.5L1.59766 6.35C1.52629 6.39095 1.46613 6.44889 1.42252 6.51867C1.37891 6.58844 1.3532 6.6679 1.34766 6.75V8.5C2.34766 8.5 3.84766 8.5 3.84766 10.25C3.84766 12 2.31766 12 1.34766 12V13.5C1.34766 13.6326 1.40033 13.7598 1.4941 13.8536C1.58787 13.9473 1.71505 14 1.84766 14H13.8477C13.9803 14 14.1074 13.9473 14.2012 13.8536C14.295 13.7598 14.3477 13.6326 14.3477 13.5V6.5C14.2013 5.32172 13.7017 4.21535 12.9146 3.32645C12.1274 2.43755 11.0896 1.80778 9.93766 1.52V1.52Z" stroke="#000001" stroke-linecap="round" stroke-linejoin="round"/>
<path d="M10.8477 9.5C11.1238 9.5 11.3477 9.27614 11.3477 9C11.3477 8.72386 11.1238 8.5 10.8477 8.5C10.5715 8.5 10.3477 8.72386 10.3477 9C10.3477 9.27614 10.5715 9.5 10.8477 9.5Z" stroke="#000001" stroke-linecap="round" stroke-linejoin="round"/>
<path d="M7.34766 11.5C7.6238 11.5 7.84766 11.2761 7.84766 11C7.84766 10.7239 7.6238 10.5 7.34766 10.5C7.07151 10.5 6.84766 10.7239 6.84766 11C6.84766 11.2761 7.07151 11.5 7.34766 11.5Z" stroke="#000001" stroke-linecap="round" stroke-linejoin="round"/>
</g>
<defs>
<clipPath id="clip0_6_5654">
<rect width="14" height="14" fill="white" transform="translate(0.847656 0.75)"/>
</clipPath>
</defs>
</svg>
