<svg width="15" height="15" viewBox="0 0 15 15" fill="none" xmlns="http://www.w3.org/2000/svg">
<g clip-path="url(#clip0_6_5641)">
<path d="M13.3477 6.25H2.34766C1.79537 6.25 1.34766 6.69772 1.34766 7.25V13.25C1.34766 13.8023 1.79537 14.25 2.34766 14.25H13.3477C13.8999 14.25 14.3477 13.8023 14.3477 13.25V7.25C14.3477 6.69772 13.8999 6.25 13.3477 6.25Z" stroke="#000001" stroke-linecap="round" stroke-linejoin="round"/>
<path d="M3.84766 4.25V2.25" stroke="#000001" stroke-linecap="round" stroke-linejoin="round"/>
<path d="M7.84766 4.25V2.25" stroke="#000001" stroke-linecap="round" stroke-linejoin="round"/>
<path d="M11.8477 4.25V2.25" stroke="#000001" stroke-linecap="round" stroke-linejoin="round"/>
<path d="M14.3477 10.75H13.8477C13.3172 10.75 12.8085 10.5393 12.4334 10.1642C12.0584 9.78914 11.8477 9.28043 11.8477 8.75C11.8477 9.28043 11.6369 9.78914 11.2619 10.1642C10.8868 10.5393 10.3781 10.75 9.84766 10.75C9.31722 10.75 8.80852 10.5393 8.43344 10.1642C8.05837 9.78914 7.84766 9.28043 7.84766 8.75C7.84766 9.28043 7.63694 9.78914 7.26187 10.1642C6.8868 10.5393 6.37809 10.75 5.84766 10.75C5.31722 10.75 4.80852 10.5393 4.43344 10.1642C4.05837 9.78914 3.84766 9.28043 3.84766 8.75C3.84766 9.28043 3.63694 9.78914 3.26187 10.1642C2.8868 10.5393 2.37809 10.75 1.84766 10.75H1.34766" stroke="#000001" stroke-linecap="round" stroke-linejoin="round"/>
</g>
<defs>
<clipPath id="clip0_6_5641">
<rect width="14" height="14" fill="white" transform="translate(0.847656 0.75)"/>
</clipPath>
</defs>
</svg>
