<svg width="15" height="15" viewBox="0 0 15 15" fill="none" xmlns="http://www.w3.org/2000/svg">
<g clip-path="url(#clip0_6_5697)">
<path d="M3.34766 6.19002V5.25002C3.34766 4.71959 3.55837 4.21088 3.93344 3.83581C4.30852 3.46074 4.81722 3.25002 5.34766 3.25002H11.3977C11.6342 3.23893 11.8657 3.32046 12.0431 3.4773C12.2204 3.63414 12.3297 3.85393 12.3477 4.09002V7.91002C12.3297 8.14611 12.2204 8.36591 12.0431 8.52275C11.8657 8.67958 11.6342 8.76111 11.3977 8.75002H9.64766" stroke="#000001" stroke-linecap="round" stroke-linejoin="round"/>
<path d="M14.3477 9.98957V12.8696C14.3477 13.2356 14.2023 13.5866 13.9435 13.8454C13.6847 14.1042 13.3337 14.2496 12.9677 14.2496H7.63766C7.33735 14.2503 7.04501 14.153 6.80498 13.9726C6.56495 13.7921 6.39035 13.5383 6.30766 13.2496C6.2269 12.9617 6.05418 12.7081 5.81585 12.5276C5.57752 12.347 5.28666 12.2494 4.98766 12.2496H4.42766C3.61079 12.2496 2.82738 11.9251 2.24977 11.3475C1.67216 10.7698 1.34766 9.98644 1.34766 9.16957V5.30957" stroke="#000001" stroke-linecap="round" stroke-linejoin="round"/>
<path d="M12.3477 1.25C12.8781 1.25 13.3868 1.46071 13.7619 1.83579C14.1369 2.21086 14.3477 2.71957 14.3477 3.25V9.99C14.3477 10.356 14.2023 10.707 13.9435 10.9658C13.6847 11.2246 13.3337 11.37 12.9677 11.37H8.84766C8.54735 11.3707 8.25501 11.2735 8.01498 11.093C7.77495 10.9125 7.60035 10.6587 7.51766 10.37V10.37C7.4369 10.0821 7.26418 9.82854 7.02585 9.64798C6.78752 9.46743 6.49666 9.3698 6.19766 9.37H5.40766C4.33088 9.37 3.2982 8.94225 2.5368 8.18085C1.77541 7.41946 1.34766 6.38678 1.34766 5.31C1.34766 4.23322 1.77541 3.20054 2.5368 2.43915C3.2982 1.67775 4.33088 1.25 5.40766 1.25H12.3477Z" stroke="#000001" stroke-linecap="round" stroke-linejoin="round"/>
<path d="M6.17773 6.38965C6.45388 6.38965 6.67773 6.16579 6.67773 5.88965C6.67773 5.61351 6.45388 5.38965 6.17773 5.38965C5.90159 5.38965 5.67773 5.61351 5.67773 5.88965C5.67773 6.16579 5.90159 6.38965 6.17773 6.38965Z" stroke="#000001" stroke-linecap="round" stroke-linejoin="round"/>
</g>
<defs>
<clipPath id="clip0_6_5697">
<rect width="14" height="14" fill="white" transform="translate(0.847656 0.75)"/>
</clipPath>
</defs>
</svg>
