<svg width="15" height="15" viewBox="0 0 15 15" fill="none" xmlns="http://www.w3.org/2000/svg">
<g clip-path="url(#clip0_6_5719)">
<path d="M14.3477 3.75C14.3477 3.4217 14.283 3.09661 14.1574 2.79329C14.0317 2.48998 13.8476 2.21438 13.6154 1.98223C13.3833 1.75009 13.1077 1.56594 12.8044 1.4403C12.5011 1.31466 12.176 1.25 11.8477 1.25H3.84766C3.32295 1.25 2.81154 1.41509 2.38588 1.72189C1.96022 2.0287 1.64187 2.46165 1.47595 2.95943C1.31002 3.45721 1.30492 3.99458 1.46137 4.49542C1.61782 4.99626 1.92789 5.43518 2.34766 5.75V13.25C2.34766 13.5152 2.45301 13.7696 2.64055 13.9571C2.82809 14.1446 3.08244 14.25 3.34766 14.25H12.3477C12.6129 14.25 12.8672 14.1446 13.0548 13.9571C13.2423 13.7696 13.3477 13.5152 13.3477 13.25V5.75C13.6587 5.51767 13.9112 5.21583 14.0848 4.86856C14.2584 4.5213 14.3484 4.13825 14.3477 3.75V3.75Z" stroke="#000001" stroke-linecap="round" stroke-linejoin="round"/>
<path d="M9.34766 4.25L5.34766 8.25" stroke="#000001" stroke-linecap="round" stroke-linejoin="round"/>
<path d="M10.3477 7.25L6.34766 11.25" stroke="#000001" stroke-linecap="round" stroke-linejoin="round"/>
</g>
<defs>
<clipPath id="clip0_6_5719">
<rect width="14" height="14" fill="white" transform="translate(0.847656 0.75)"/>
</clipPath>
</defs>
</svg>
