<svg width="15" height="15" viewBox="0 0 15 15" fill="none" xmlns="http://www.w3.org/2000/svg">
<g clip-path="url(#clip0_6_5731)">
<path d="M6.37695 11.5996L7.21695 13.9496" stroke="#000001" stroke-linecap="round" stroke-linejoin="round"/>
<path d="M2.82812 1.71973L3.16812 2.65973" stroke="#000001" stroke-linecap="round" stroke-linejoin="round"/>
<path d="M6.37695 11.5999L4.62695 11.1699" stroke="#000001" stroke-linecap="round" stroke-linejoin="round"/>
<path d="M6.37695 11.5994L7.44695 10.1494" stroke="#000001" stroke-linecap="round" stroke-linejoin="round"/>
<path d="M5.52734 9.24957L3.77734 8.80957" stroke="#000001" stroke-linecap="round" stroke-linejoin="round"/>
<path d="M5.52734 9.2498L6.60734 7.7998" stroke="#000001" stroke-linecap="round" stroke-linejoin="round"/>
<path d="M4.6875 6.88996L2.9375 6.45996" stroke="#000001" stroke-linecap="round" stroke-linejoin="round"/>
<path d="M4.6875 6.8902L5.7575 5.4502" stroke="#000001" stroke-linecap="round" stroke-linejoin="round"/>
<path d="M3.83789 4.53938L2.08789 4.10938" stroke="#000001" stroke-linecap="round" stroke-linejoin="round"/>
<path d="M3.83789 4.53984L4.91789 3.08984" stroke="#000001" stroke-linecap="round" stroke-linejoin="round"/>
<path d="M10.3588 11L9.79883 13.25" stroke="#000001" stroke-linecap="round" stroke-linejoin="round"/>
<path d="M12.6985 1.5498L12.4785 2.4498" stroke="#000001" stroke-linecap="round" stroke-linejoin="round"/>
<path d="M10.3585 10.9998L9.22852 9.75977" stroke="#000001" stroke-linecap="round" stroke-linejoin="round"/>
<path d="M10.3594 10.9995L11.9294 10.4395" stroke="#000001" stroke-linecap="round" stroke-linejoin="round"/>
<path d="M10.9091 8.74977L9.78906 7.50977" stroke="#000001" stroke-linecap="round" stroke-linejoin="round"/>
<path d="M10.9082 8.74969L12.4882 8.17969" stroke="#000001" stroke-linecap="round" stroke-linejoin="round"/>
<path d="M11.4677 6.49977L10.3477 5.25977" stroke="#000001" stroke-linecap="round" stroke-linejoin="round"/>
<path d="M11.4688 6.49969L13.0487 5.92969" stroke="#000001" stroke-linecap="round" stroke-linejoin="round"/>
<path d="M12.0282 4.24977L10.9082 3.00977" stroke="#000001" stroke-linecap="round" stroke-linejoin="round"/>
<path d="M12.0293 4.24969L13.6093 3.67969" stroke="#000001" stroke-linecap="round" stroke-linejoin="round"/>
</g>
<defs>
<clipPath id="clip0_6_5731">
<rect width="14" height="14" fill="white" transform="translate(0.847656 0.75)"/>
</clipPath>
</defs>
</svg>
