<svg width="15" height="15" viewBox="0 0 15 15" fill="none" xmlns="http://www.w3.org/2000/svg">
<g clip-path="url(#clip0_6_5674)">
<path d="M9.07766 11.8102C10.1768 11.425 11.107 10.6681 11.7077 9.6702C12.0215 10.115 12.4549 10.4617 12.9577 10.6702C13.1096 10.7346 13.2752 10.7603 13.4395 10.7451C13.6039 10.73 13.7619 10.6744 13.8996 10.5833C14.0372 10.4922 14.1502 10.3684 14.2284 10.2231C14.3065 10.0777 14.3475 9.91525 14.3477 9.7502V7.1402C14.3475 6.97514 14.3065 6.81269 14.2284 6.66733C14.1502 6.52197 14.0372 6.39822 13.8996 6.30712C13.7619 6.21602 13.6039 6.16041 13.4395 6.14524C13.2752 6.13007 13.1096 6.15582 12.9577 6.2202C12.4534 6.42628 12.0194 6.77351 11.7077 7.2202C10.7077 5.6602 7.98766 4.4502 5.25766 4.4502C4.21247 4.47372 3.21802 4.90551 2.48723 5.65312C1.75644 6.40073 1.34739 7.40474 1.34766 8.4502C1.41219 9.49539 1.88402 10.4736 2.66183 11.1748C3.43964 11.8759 4.46139 12.2441 5.50766 12.2002C5.80766 12.2002 6.28766 12.2002 6.58766 12.2002" stroke="#000001" stroke-linecap="round" stroke-linejoin="round"/>
<path d="M4.84766 7.94043C5.1238 7.94043 5.34766 7.71657 5.34766 7.44043C5.34766 7.16429 5.1238 6.94043 4.84766 6.94043C4.57151 6.94043 4.34766 7.16429 4.34766 7.44043C4.34766 7.71657 4.57151 7.94043 4.84766 7.94043Z" stroke="#000001" stroke-linecap="round" stroke-linejoin="round"/>
<path d="M4.07812 4.61976C4.84812 3.42976 6.65812 2.08976 10.6681 2.54976C10.2434 3.70185 10.2434 4.96766 10.6681 6.11976" stroke="#000001" stroke-linecap="round" stroke-linejoin="round"/>
<path d="M5.48828 10.28C5.66785 11.1685 6.18511 11.9526 6.93117 12.4674C7.67724 12.9822 8.59392 13.1875 9.48828 13.04L8.47828 9.75" stroke="#000001" stroke-linecap="round" stroke-linejoin="round"/>
</g>
<defs>
<clipPath id="clip0_6_5674">
<rect width="14" height="14" fill="white" transform="translate(0.847656 0.75)"/>
</clipPath>
</defs>
</svg>
