<svg width="15" height="15" viewBox="0 0 15 15" fill="none" xmlns="http://www.w3.org/2000/svg">
<g clip-path="url(#clip0_6_5807)">
<path d="M3.34766 14.25H12.3477" stroke="#000001" stroke-linecap="round" stroke-linejoin="round"/>
<path d="M14.2785 4.1498C14.1768 3.73042 13.9679 3.34467 13.6722 3.03038C13.3765 2.71608 13.0041 2.48403 12.5917 2.35698C12.1793 2.22993 11.741 2.21224 11.3197 2.30565C10.8984 2.39906 10.5086 2.60035 10.1885 2.8898C10.0138 2.40951 9.69554 1.99461 9.27692 1.70143C8.85829 1.40824 8.35959 1.25098 7.84851 1.25098C7.33743 1.25098 6.83873 1.40824 6.42011 1.70143C6.00149 1.99461 5.68322 2.40951 5.50851 2.8898C5.18845 2.60035 4.79865 2.39906 4.37734 2.30565C3.95604 2.21224 3.51769 2.22993 3.10529 2.35698C2.69288 2.48403 2.32057 2.71608 2.02486 3.03038C1.72916 3.34467 1.52021 3.73042 1.41851 4.1498C1.33906 4.47708 1.32627 4.81699 1.38093 5.14931C1.43558 5.48163 1.55655 5.79955 1.73664 6.08414C1.91672 6.36873 2.15224 6.61416 2.42915 6.80583C2.70607 6.9975 3.01873 7.13149 3.34851 7.1998V10.7498C3.34851 11.015 3.45387 11.2694 3.64141 11.4569C3.82894 11.6444 4.0833 11.7498 4.34851 11.7498H11.3485C11.6137 11.7498 11.8681 11.6444 12.0556 11.4569C12.2432 11.2694 12.3485 11.015 12.3485 10.7498V7.1998C12.6783 7.13149 12.991 6.9975 13.2679 6.80583C13.5448 6.61416 13.7803 6.36873 13.9604 6.08414C14.1405 5.79955 14.2614 5.48163 14.3161 5.14931C14.3708 4.81699 14.358 4.47708 14.2785 4.1498V4.1498Z" stroke="#000001" stroke-linecap="round" stroke-linejoin="round"/>
<path d="M3.34766 9.25H12.3477" stroke="#000001" stroke-linecap="round" stroke-linejoin="round"/>
</g>
<defs>
<clipPath id="clip0_6_5807">
<rect width="14" height="14" fill="white" transform="translate(0.847656 0.75)"/>
</clipPath>
</defs>
</svg>
