<svg width="16" height="17" viewBox="0 0 16 17" fill="none" xmlns="http://www.w3.org/2000/svg">
<path d="M2.6665 7.8335V13.8335C2.6665 14.5699 3.26346 15.1668 3.99984 15.1668H11.9998C12.7362 15.1668 13.3332 14.5699 13.3332 13.8335V7.8335" stroke="#F6F6F6" stroke-width="1.5" stroke-linecap="round" stroke-linejoin="round"/>
<path d="M8 4.3335V5.16683H5.66667C4.74619 5.16683 4 4.42064 4 3.50016V3.3335C4 2.50507 4.67157 1.8335 5.5 1.8335C6.88073 1.8335 8 2.95278 8 4.3335Z" stroke="#F6F6F6" stroke-width="1.5" stroke-linecap="round" stroke-linejoin="round"/>
<path d="M8 4.3335V5.16683H10.3333C11.2538 5.16683 12 4.42064 12 3.50016V3.3335C12 2.50507 11.3284 1.8335 10.5 1.8335C9.11927 1.8335 8 2.95278 8 4.3335Z" stroke="#F6F6F6" stroke-width="1.5" stroke-linecap="round" stroke-linejoin="round"/>
<path d="M13.6294 5.1665H2.37387C1.98587 5.1665 1.67105 5.46395 1.67007 5.83148L1.66651 7.16482C1.66553 7.53364 1.98091 7.83317 2.37031 7.83317H13.6294C14.018 7.83317 14.3332 7.5347 14.3332 7.1665V5.83317C14.3332 5.46498 14.018 5.1665 13.6294 5.1665Z" stroke="#F6F6F6" stroke-width="1.5" stroke-linejoin="round"/>
<path d="M8 7.8335V15.1668" stroke="#F6F6F6" stroke-width="1.5" stroke-linecap="round" stroke-linejoin="round"/>
</svg>
