<svg width="24" height="25" viewBox="0 0 24 25" fill="none" xmlns="http://www.w3.org/2000/svg">
<rect y="0.5" width="24" height="24" rx="12" fill="#454545"/>
<path d="M16.3513 8.66675C16.6475 8.66674 16.8965 8.66673 17.0995 8.68145C17.3101 8.69673 17.5147 8.72997 17.7097 8.82001C17.9305 8.92198 18.1277 9.07497 18.2715 9.27415C18.4073 9.46234 18.458 9.66508 18.4801 9.85982C18.5001 10.0361 18.5 10.2475 18.5 10.4761V10.5241C18.5 10.7526 18.5001 10.964 18.4801 11.1403C18.458 11.3351 18.4073 11.5378 18.2715 11.726C18.1277 11.9252 17.9305 12.0781 17.7097 12.1801C17.5147 12.2702 17.3101 12.3034 17.0995 12.3187C16.8965 12.3334 16.6475 12.3334 16.3513 12.3334H7.64872C7.35247 12.3334 7.10353 12.3334 6.90055 12.3187C6.68986 12.3034 6.48529 12.2702 6.29035 12.1801C6.06956 12.0781 5.87227 11.9252 5.72853 11.726C5.59271 11.5378 5.54199 11.3351 5.51993 11.1403C5.49995 10.964 5.49998 10.7526 5.5 10.5241V10.4761C5.49998 10.2475 5.49995 10.0361 5.51993 9.85982C5.54199 9.66508 5.59271 9.46234 5.72853 9.27415C5.87227 9.07497 6.06956 8.92198 6.29035 8.82001C6.48529 8.72997 6.68986 8.69673 6.90055 8.68145C7.10353 8.66673 7.35246 8.66674 7.64871 8.66675H16.3513Z" fill="#FFE21B"/>
<path d="M6.5246 13.1122C6.34902 13.0827 6.26123 13.0679 6.21399 13.1078C6.16675 13.1478 6.16675 13.2296 6.16675 13.3934V14.5364C6.16674 15.6048 6.16673 16.4574 6.25664 17.1261C6.34952 17.817 6.54652 18.3859 6.99662 18.836C7.44671 19.2861 8.01565 19.4831 8.70649 19.576C9.37522 19.6659 10.2279 19.6659 11.2963 19.6659C11.3167 19.6659 11.3334 19.6492 11.3334 19.6287V13.4326C11.3334 13.3068 11.3334 13.244 11.2943 13.2049C11.2553 13.1659 11.1925 13.1659 11.0667 13.1659H7.62615C7.34838 13.1659 7.07378 13.1659 6.84035 13.149C6.74344 13.142 6.63714 13.1312 6.5246 13.1122Z" fill="#FFE21B"/>
<path d="M12.9334 13.1659C12.8077 13.1659 12.7449 13.1659 12.7058 13.2049C12.6667 13.244 12.6667 13.3069 12.6667 13.4326V19.6287C12.6667 19.6493 12.6834 19.6659 12.7039 19.6659C13.7723 19.6659 14.6249 19.6659 15.2937 19.576C15.9845 19.4831 16.5535 19.2861 17.0035 18.8361C17.4536 18.3859 17.6506 17.817 17.7435 17.1261C17.8334 16.4575 17.8334 15.6048 17.8334 14.5364V13.3935C17.8334 13.2297 17.8334 13.1478 17.7861 13.1079C17.7389 13.0679 17.6511 13.0827 17.4755 13.1123C17.363 13.1313 17.2567 13.142 17.1598 13.149C16.9263 13.1659 16.6518 13.1659 16.374 13.1659H12.9334Z" fill="#FFE21B"/>
<path fill-rule="evenodd" clip-rule="evenodd" d="M9.19039 5.33325C8.16473 5.33325 7.33325 6.16473 7.33325 7.1904C7.33325 8.74205 8.59112 9.99992 10.1428 9.99992H11.9999H13.8571C15.4087 9.99992 16.6666 8.74205 16.6666 7.1904C16.6666 6.16473 15.8351 5.33325 14.8095 5.33325H14.5713C13.5234 5.33325 12.5917 5.83105 11.9999 6.60308C11.4081 5.83105 10.4764 5.33325 9.42849 5.33325H9.19039ZM11.3333 8.57135C11.3333 7.51938 10.4805 6.66659 9.42849 6.66659H9.19039C8.90111 6.66659 8.66659 6.90111 8.66659 7.1904C8.66659 8.00567 9.3275 8.66658 10.1428 8.66658H11.3333V8.57135ZM12.6666 8.66658H13.8571C14.6723 8.66658 15.3333 8.00567 15.3333 7.1904C15.3333 6.90111 15.0987 6.66659 14.8095 6.66659H14.5713C13.5194 6.66659 12.6666 7.51938 12.6666 8.57135V8.66658Z" fill="#FFE21B"/>
</svg>
