<svg width="24" height="24" viewBox="0 0 24 24" fill="none" xmlns="http://www.w3.org/2000/svg">
<path d="M21.429 5.98742C19.156 4.67542 16.2495 5.45492 14.9365 7.72792L11.625 13.4634C10.667 15.1194 11.9005 15.6984 13.2755 16.5229L16.4615 18.3619C17.5405 18.9844 18.9185 18.6149 19.5405 17.5374L22.944 11.6429C24.088 9.66242 23.4095 7.13092 21.429 5.98742Z" fill="#E64A19"/>
<path d="M17.6825 8.36156L14.4965 6.52256C12.738 5.54606 11.742 5.48156 11.0195 6.62956L6.32047 14.7671C5.00847 17.0386 5.78947 19.9436 8.06097 21.2526C10.0415 22.3961 12.573 21.7176 13.7165 19.7371L18.5055 11.4421C19.1305 10.3636 18.7615 8.98406 17.6825 8.36156Z" fill="#FBC02D"/>
<path d="M18.2955 4.17799L16.0575 2.88549C13.5825 1.45699 10.4175 2.30399 8.98898 4.77899L4.72848 12.1585C4.09898 13.247 4.47298 14.6405 5.56148 15.2685L8.06748 16.7155C9.30498 17.4305 10.887 17.0065 11.602 15.7685L16.4695 7.33849C17.478 5.59249 19.71 4.99399 21.4565 6.00249L18.2955 4.17799Z" fill="#43A047"/>
<path d="M9.59451 6.8906L7.17551 5.4971C6.09651 4.8761 4.71851 5.2441 4.09651 6.3201L1.19451 11.3351C-0.233992 13.8031 0.613009 16.9611 3.08801 18.3856L4.92951 19.4461L7.16301 20.7326L8.13251 21.2901C6.41151 20.1381 5.86501 17.8301 6.91751 16.0126L7.66901 14.7146L10.421 9.9596C11.0415 8.8871 10.672 7.5116 9.59451 6.8906Z" fill="#1E88E5"/>
</svg>
