<svg width="16" height="16" viewBox="0 0 16 16" fill="none" xmlns="http://www.w3.org/2000/svg">
<g clip-path="url(#clip0_6_13221)">
<path fill-rule="evenodd" clip-rule="evenodd" d="M1.01822 11.5854C0.472753 10.5091 0.160034 9.29453 0.160034 8C0.160034 6.70544 0.472753 5.49091 1.01822 4.41453C2.33457 1.79638 5.03275 0 8.16003 0C10.32 0 12.1237 0.792719 13.5128 2.08728L11.2218 4.37819C10.3855 3.59272 9.33819 3.18544 8.16003 3.18544C6.08003 3.18544 4.31275 4.58909 3.68003 6.48C3.52003 6.96 3.42547 7.46906 3.42547 8C3.42547 8.53091 3.52003 9.04 3.68003 9.52L3.67057 9.52725H3.68003C4.31275 11.4182 6.08003 12.8218 8.16003 12.8218C9.23638 12.8218 10.1455 12.5309 10.8582 12.0509C11.7091 11.4836 12.2764 10.64 12.4655 9.64363H8.16003V6.54544H15.6946C15.7891 7.06909 15.84 7.61453 15.84 8.18181C15.84 10.6182 14.9673 12.6691 13.4546 14.0654C12.1309 15.2872 10.32 16 8.16003 16C5.03275 16 2.33457 14.2036 1.01822 11.5927V11.5854Z" fill="#F6F6F6"/>
</g>
<defs>
<clipPath id="clip0_6_13221">
<rect width="16" height="16" fill="white"/>
</clipPath>
</defs>
</svg>
