<svg width="15" height="15" viewBox="0 0 15 15" fill="none" xmlns="http://www.w3.org/2000/svg">
<g clip-path="url(#clip0_6_6309)">
<path d="M4.34766 14.2499C4.34766 14.2499 10.8477 7.1399 10.8477 4.2499C10.8709 3.84986 10.8092 3.44942 10.6667 3.07491C10.5242 2.70039 10.304 2.36029 10.0206 2.07693C9.73727 1.79358 9.39716 1.5734 9.02265 1.43086C8.64814 1.28832 8.2477 1.22665 7.84766 1.2499C7.44761 1.22665 7.04717 1.28832 6.67266 1.43086C6.29815 1.5734 5.95804 1.79358 5.67469 2.07693C5.39134 2.36029 5.17115 2.70039 5.02862 3.07491C4.88608 3.44942 4.82441 3.84986 4.84766 4.2499C4.84766 7.1399 11.3477 14.2499 11.3477 14.2499" stroke="#000001" stroke-linecap="round" stroke-linejoin="round"/>
</g>
<defs>
<clipPath id="clip0_6_6309">
<rect width="14" height="14" fill="white" transform="translate(0.847656 0.75)"/>
</clipPath>
</defs>
</svg>
