<svg width="15" height="15" viewBox="0 0 15 15" fill="none" xmlns="http://www.w3.org/2000/svg">
<g clip-path="url(#clip0_6_6311)">
<path d="M7.84766 3.89014V5.39014" stroke="#000001" stroke-linecap="round" stroke-linejoin="round"/>
<path d="M9.35673 7.90014C9.82838 7.55709 10.2102 7.10517 10.4696 6.58284C10.729 6.06051 10.8584 5.48323 10.8467 4.90014C10.9077 4.03836 10.6272 3.1872 10.0659 2.53046C9.50459 1.87373 8.70748 1.46414 7.84673 1.39014C6.98684 1.46165 6.18975 1.86912 5.62821 2.52426C5.06666 3.17939 4.78589 4.02942 4.84673 4.89014C4.83506 5.47323 4.96444 6.05051 5.22387 6.57284C5.4833 7.09517 5.86508 7.54709 6.33673 7.89014L3.12673 11.5701C3.05113 11.6616 3.00977 11.7765 3.00977 11.8951C3.00977 12.0138 3.05113 12.1287 3.12673 12.2201L4.49673 13.9201C4.5407 13.9794 4.59802 14.0275 4.66404 14.0605C4.73006 14.0935 4.80292 14.1105 4.87673 14.1101C4.95005 14.1109 5.0227 14.0961 5.08991 14.0668C5.15713 14.0375 5.21739 13.9944 5.26673 13.9401C6.23792 12.8417 7.10185 11.653 7.84673 10.3901C8.59795 11.6538 9.4686 12.8426 10.4467 13.9401C10.4961 13.9944 10.5563 14.0375 10.6236 14.0668C10.6908 14.0961 10.7634 14.1109 10.8367 14.1101C10.9105 14.1105 10.9834 14.0935 11.0494 14.0605C11.1154 14.0275 11.1728 13.9794 11.2167 13.9201L12.5867 12.2201C12.6616 12.1303 12.7025 12.0171 12.7025 11.9001C12.7025 11.7832 12.6616 11.67 12.5867 11.5801L9.35673 7.90014Z" stroke="#000001" stroke-linecap="round" stroke-linejoin="round"/>
</g>
<defs>
<clipPath id="clip0_6_6311">
<rect width="14" height="14" fill="white" transform="translate(0.847656 0.75)"/>
</clipPath>
</defs>
</svg>
