<svg width="17" height="16" viewBox="0 0 17 16" fill="none" xmlns="http://www.w3.org/2000/svg">
<path d="M10.5 11.3333C9.96701 11.7482 9.26681 11.9999 8.50001 11.9999C7.73315 11.9999 7.03302 11.7482 6.5 11.3333" stroke="#403E3E" stroke-width="1.5" stroke-linecap="round"/>
<path d="M2.06727 8.80892C1.83192 7.27738 1.71425 6.51167 2.00379 5.83284C2.29332 5.154 2.93569 4.68954 4.22043 3.76063L5.18033 3.06659C6.77853 1.91103 7.57762 1.33325 8.49969 1.33325C9.42169 1.33325 10.2208 1.91103 11.819 3.06659L12.7789 3.76063C14.0637 4.68954 14.706 5.154 14.9956 5.83284C15.2851 6.51167 15.1674 7.27738 14.9321 8.80892L14.7314 10.1149C14.3978 12.2859 14.231 13.3714 13.4524 14.019C12.6738 14.6666 11.5354 14.6666 9.25889 14.6666H7.74049C5.4639 14.6666 4.32561 14.6666 3.54701 14.019C2.7684 13.3714 2.60159 12.2859 2.26796 10.1149L2.06727 8.80892Z" stroke="#403E3E" stroke-width="1.5" stroke-linejoin="round"/>
</svg>
