<svg width="25" height="25" viewBox="0 0 25 25" fill="none" xmlns="http://www.w3.org/2000/svg">
<path d="M9.49931 22.5L9.24868 18.9911C9.11393 17.1046 10.608 15.5 12.4993 15.5C14.3906 15.5 15.8847 17.1046 15.7499 18.9911L15.4993 22.5" stroke="#585858" stroke-width="1.5"/>
<path d="M2.85139 13.7135C2.49837 11.4162 2.32186 10.2676 2.75617 9.24938C3.19047 8.23112 4.15403 7.53443 6.08114 6.14106L7.52099 5.1C9.91829 3.36667 11.1169 2.5 12.5 2.5C13.883 2.5 15.0817 3.36667 17.479 5.1L18.9188 6.14106C20.846 7.53443 21.8095 8.23112 22.2438 9.24938C22.6781 10.2676 22.5016 11.4162 22.1486 13.7135L21.8476 15.6724C21.3471 18.9289 21.0969 20.5572 19.929 21.5286C18.7611 22.5 17.0536 22.5 13.6388 22.5H11.3612C7.94634 22.5 6.23891 22.5 5.071 21.5286C3.90309 20.5572 3.65287 18.9289 3.15243 15.6724L2.85139 13.7135Z" stroke="#585858" stroke-width="1.5" stroke-linejoin="round"/>
</svg>
