<svg width="15" height="14" viewBox="0 0 15 14" fill="none" xmlns="http://www.w3.org/2000/svg">
<g clip-path="url(#clip0_6_4857)">
<path d="M14 5C14 4.73478 13.8946 4.48043 13.7071 4.29289C13.5196 4.10536 13.2652 4 13 4H11L9.5 2H5.5L4 4H2C1.73478 4 1.48043 4.10536 1.29289 4.29289C1.10536 4.48043 1 4.73478 1 5V11C1 11.2652 1.10536 11.5196 1.29289 11.7071C1.48043 11.8946 1.73478 12 2 12H13C13.2652 12 13.5196 11.8946 13.7071 11.7071C13.8946 11.5196 14 11.2652 14 11V5Z" stroke="#000001" stroke-linecap="round" stroke-linejoin="round"/>
<path d="M7.5 9.75C8.74264 9.75 9.75 8.74264 9.75 7.5C9.75 6.25736 8.74264 5.25 7.5 5.25C6.25736 5.25 5.25 6.25736 5.25 7.5C5.25 8.74264 6.25736 9.75 7.5 9.75Z" stroke="#000001" stroke-linecap="round" stroke-linejoin="round"/>
</g>
<defs>
<clipPath id="clip0_6_4857">
<rect width="14" height="14" fill="white" transform="translate(0.5)"/>
</clipPath>
</defs>
</svg>
