<svg width="15" height="14" viewBox="0 0 15 14" fill="none" xmlns="http://www.w3.org/2000/svg">
<g clip-path="url(#clip0_6_4807)">
<path d="M4.5 12.5L13 12.5C13.5523 12.5 14 12.0523 14 11.5L14 5C14 4.44771 13.5523 4 13 4L4.5 4C3.94771 4 3.5 4.44771 3.5 5L3.5 11.5C3.5 12.0523 3.94771 12.5 4.5 12.5Z" stroke="#000001" stroke-linecap="round" stroke-linejoin="round"/>
<path d="M1 10V2.5C1 2.23478 1.10536 1.98043 1.29289 1.79289C1.48043 1.60536 1.73478 1.5 2 1.5H11" stroke="#000001" stroke-linecap="round" stroke-linejoin="round"/>
<path d="M4.09961 12.4198L8.02961 8.26984C8.12256 8.16769 8.23566 8.08591 8.36178 8.02964C8.48791 7.97337 8.62432 7.94383 8.76242 7.94289C8.90052 7.94195 9.03732 7.96963 9.1642 8.02418C9.29108 8.07873 9.40528 8.15897 9.49961 8.25984L13.4496 12.3998" stroke="#000001" stroke-linecap="round" stroke-linejoin="round"/>
</g>
<defs>
<clipPath id="clip0_6_4807">
<rect width="14" height="14" fill="white" transform="translate(0.5)"/>
</clipPath>
</defs>
</svg>
