<svg width="15" height="14" viewBox="0 0 15 14" fill="none" xmlns="http://www.w3.org/2000/svg">
<g clip-path="url(#clip0_6_4829)">
<path d="M13.31 11.2C13.3828 11.2369 13.4633 11.2562 13.545 11.2562C13.6267 11.2562 13.7072 11.2369 13.78 11.2C13.8478 11.1553 13.9034 11.0944 13.9418 11.0228C13.9802 10.9512 14.0002 10.8712 14 10.79V3.26003C14.0002 3.17881 13.9802 3.09882 13.9418 3.02725C13.9034 2.95568 13.8478 2.89478 13.78 2.85003C13.7112 2.80516 13.6327 2.77723 13.551 2.76854C13.4693 2.75985 13.3867 2.77064 13.31 2.80003C11.4752 3.59139 9.49815 3.99959 7.5 3.99959C5.50185 3.99959 3.52476 3.59139 1.69 2.80003C1.61328 2.77064 1.53069 2.75985 1.44899 2.76854C1.3673 2.77723 1.28882 2.80516 1.22 2.85003C1.15222 2.89478 1.09663 2.95568 1.05823 3.02725C1.01983 3.09882 0.999819 3.17881 1 3.26003V10.74C0.999819 10.8212 1.01983 10.9012 1.05823 10.9728C1.09663 11.0444 1.15222 11.1053 1.22 11.15C1.29284 11.1869 1.37335 11.2062 1.455 11.2062C1.53666 11.2062 1.61716 11.1869 1.69 11.15C3.52817 10.3666 5.50701 9.96686 7.50516 9.97546C9.50331 9.98406 11.4786 10.4008 13.31 11.2V11.2Z" stroke="#000001" stroke-linecap="round" stroke-linejoin="round"/>
</g>
<defs>
<clipPath id="clip0_6_4829">
<rect width="14" height="14" fill="white" transform="translate(0.5)"/>
</clipPath>
</defs>
</svg>
