<svg width="15" height="14" viewBox="0 0 15 14" fill="none" xmlns="http://www.w3.org/2000/svg">
<path d="M4.7504 0.5L2.5004 5.81C2.46928 5.88575 2.45724 5.96798 2.46534 6.04947C2.47345 6.13096 2.50144 6.20922 2.54687 6.27736C2.59229 6.34549 2.65376 6.40143 2.72586 6.44025C2.79797 6.47908 2.87851 6.49959 2.9604 6.5H5.7504L3.7504 13.5L12.3404 5.36C12.4118 5.29124 12.4611 5.20284 12.4821 5.106C12.5031 5.00917 12.4949 4.90827 12.4584 4.81612C12.422 4.72397 12.359 4.64473 12.2775 4.58844C12.1959 4.53216 12.0995 4.50137 12.0004 4.5H8.2504L10.2504 0.5H4.7504Z" stroke="#000001" stroke-linecap="round" stroke-linejoin="round"/>
</svg>
