<svg width="15" height="14" viewBox="0 0 15 14" fill="none" xmlns="http://www.w3.org/2000/svg">
<path d="M7.5 8.5V13.5" stroke="#000001" stroke-linecap="round" stroke-linejoin="round"/>
<path d="M7.5 8.5L3 13.5" stroke="#000001" stroke-linecap="round" stroke-linejoin="round"/>
<path d="M7.5 8.5L12 13.5" stroke="#000001" stroke-linecap="round" stroke-linejoin="round"/>
<path d="M12 0.5H3C2.44772 0.5 2 0.947715 2 1.5V7.5C2 8.05228 2.44772 8.5 3 8.5H12C12.5523 8.5 13 8.05228 13 7.5V1.5C13 0.947715 12.5523 0.5 12 0.5Z" stroke="#000001" stroke-linecap="round" stroke-linejoin="round"/>
<path d="M7.5 6C8.32843 6 9 5.32843 9 4.5C9 3.67157 8.32843 3 7.5 3C6.67157 3 6 3.67157 6 4.5C6 5.32843 6.67157 6 7.5 6Z" stroke="#000001" stroke-linecap="round" stroke-linejoin="round"/>
</svg>
