<svg width="16" height="17" viewBox="0 0 16 17" fill="none" xmlns="http://www.w3.org/2000/svg">
<path d="M10 1.16699C11.8668 1.16699 12.8006 1.16696 13.5137 1.53027C14.1406 1.84979 14.6502 2.35945 14.9697 2.98633C15.333 3.69937 15.333 4.63316 15.333 6.5V10.5C15.333 12.3668 15.333 13.3006 14.9697 14.0137C14.6502 14.6406 14.1406 15.1502 13.5137 15.4697C12.8006 15.833 11.8668 15.833 10 15.833H6C4.13316 15.833 3.19937 15.833 2.48633 15.4697C1.85945 15.1502 1.34979 14.6406 1.03027 14.0137C0.666962 13.3006 0.666992 12.3668 0.666992 10.5V6.5C0.666992 4.63316 0.666962 3.69937 1.03027 2.98633C1.34979 2.35945 1.85945 1.84979 2.48633 1.53027C3.19937 1.16696 4.13316 1.16699 6 1.16699H10ZM11.5332 8.46387C11.2637 8.24338 10.8696 8.26792 10.6289 8.51953L4.91211 14.4941C5.22298 14.4977 5.58077 14.5 6 14.5H10C10.9554 14.5 11.5921 14.4989 12.0811 14.459C12.5542 14.4203 12.771 14.3521 12.9082 14.2822C13.2845 14.0905 13.5905 13.7845 13.7822 13.4082C13.8521 13.271 13.9203 13.0542 13.959 12.5811C13.9989 12.0921 14 11.4554 14 10.5V10.4824L11.5332 8.46387ZM6 2.5C5.04458 2.5 4.4079 2.50107 3.91895 2.54102C3.44577 2.5797 3.229 2.64787 3.0918 2.71777C2.71554 2.90951 2.40951 3.21554 2.21777 3.5918C2.14787 3.729 2.0797 3.94577 2.04102 4.41895C2.00107 4.9079 2 5.54458 2 6.5V10.5C2 11.4554 2.00107 12.0921 2.04102 12.5811C2.0797 13.0542 2.14787 13.271 2.21777 13.4082C2.40951 13.7845 2.71554 14.0905 3.0918 14.2822C3.12752 14.3004 3.16914 14.3175 3.21875 14.335L9.66504 7.59766C10.387 6.84291 11.5685 6.77044 12.377 7.43164L14 8.75879V6.5C14 5.54458 13.9989 4.9079 13.959 4.41895C13.9203 3.94577 13.8521 3.729 13.7822 3.5918C13.5905 3.21554 13.2845 2.90951 12.9082 2.71777C12.771 2.64787 12.5542 2.5797 12.0811 2.54102C11.5921 2.50107 10.9554 2.5 10 2.5H6ZM5.66699 3.83301C6.95551 3.83318 8 4.87844 8 6.16699C7.99982 7.4554 6.9554 8.49982 5.66699 8.5C4.37844 8.5 3.33318 7.45551 3.33301 6.16699C3.33301 4.87833 4.37833 3.83301 5.66699 3.83301ZM5.66699 5.16699C5.11471 5.16699 4.66699 5.61471 4.66699 6.16699C4.66717 6.71913 5.11482 7.16699 5.66699 7.16699C6.21902 7.16682 6.66682 6.71902 6.66699 6.16699C6.66699 5.61482 6.21913 5.16717 5.66699 5.16699Z" fill="#BAB8B9"/>
</svg>
