<svg width="15" height="14" viewBox="0 0 15 14" fill="none" xmlns="http://www.w3.org/2000/svg">
<g clip-path="url(#clip0_6_4861)">
<path d="M13 3.75H2C1.44772 3.75 1 4.19772 1 4.75V11.75C1 12.3023 1.44772 12.75 2 12.75H13C13.5523 12.75 14 12.3023 14 11.75V4.75C14 4.19772 13.5523 3.75 13 3.75Z" stroke="#000001" stroke-linecap="round" stroke-linejoin="round"/>
<path d="M7.5 10.25C8.60457 10.25 9.5 9.35457 9.5 8.25C9.5 7.14543 8.60457 6.25 7.5 6.25C6.39543 6.25 5.5 7.14543 5.5 8.25C5.5 9.35457 6.39543 10.25 7.5 10.25Z" stroke="#000001" stroke-linecap="round" stroke-linejoin="round"/>
<path d="M10 3.75V2.25C10 1.98478 9.89464 1.73043 9.70711 1.54289C9.51957 1.35536 9.26522 1.25 9 1.25H6C5.73478 1.25 5.48043 1.35536 5.29289 1.54289C5.10536 1.73043 5 1.98478 5 2.25V3.75" stroke="#000001" stroke-linecap="round" stroke-linejoin="round"/>
</g>
<defs>
<clipPath id="clip0_6_4861">
<rect width="14" height="14" fill="white" transform="translate(0.5)"/>
</clipPath>
</defs>
</svg>
