<svg width="15" height="14" viewBox="0 0 15 14" fill="none" xmlns="http://www.w3.org/2000/svg">
<g clip-path="url(#clip0_6_4819)">
<path d="M2 13.5L13 13.5C13.5523 13.5 14 13.0523 14 12.5L14 1.5C14 0.947715 13.5523 0.5 13 0.5L2 0.5C1.44771 0.5 1 0.947715 1 1.5L1 12.5C1 13.0523 1.44771 13.5 2 13.5Z" stroke="#000001" stroke-linecap="round" stroke-linejoin="round"/>
<path d="M1 11H14" stroke="#000001" stroke-linecap="round" stroke-linejoin="round"/>
<path d="M4.33984 11.0002L9.54984 6.12021C9.63969 6.04537 9.75292 6.00439 9.86984 6.00439C9.98677 6.00439 10.1 6.04537 10.1898 6.12021L13.9998 8.85021" stroke="#000001" stroke-linecap="round" stroke-linejoin="round"/>
<path d="M5 6C5.82843 6 6.5 5.32843 6.5 4.5C6.5 3.67157 5.82843 3 5 3C4.17157 3 3.5 3.67157 3.5 4.5C3.5 5.32843 4.17157 6 5 6Z" stroke="#000001" stroke-linecap="round" stroke-linejoin="round"/>
</g>
<defs>
<clipPath id="clip0_6_4819">
<rect width="14" height="14" fill="white" transform="translate(0.5)"/>
</clipPath>
</defs>
</svg>
