<svg width="15" height="14" viewBox="0 0 15 14" fill="none" xmlns="http://www.w3.org/2000/svg">
<g clip-path="url(#clip0_6_4827)">
<path d="M11.7 1.19006C11.7369 1.11722 11.7562 1.03672 11.7562 0.955061C11.7562 0.873407 11.7369 0.792901 11.7 0.720061C11.6509 0.644706 11.582 0.584318 11.5009 0.545513C11.4198 0.506708 11.3295 0.490983 11.24 0.500061H3.76003C3.67881 0.499879 3.59882 0.519889 3.52725 0.558291C3.45568 0.596694 3.39478 0.652284 3.35003 0.720061C3.30516 0.788883 3.27723 0.867356 3.26854 0.949052C3.25985 1.03075 3.27064 1.11334 3.30003 1.19006C4.09139 3.02482 4.49959 5.00191 4.49959 7.00006C4.49959 8.99821 4.09139 10.9753 3.30003 12.8101C3.27064 12.8868 3.25985 12.9694 3.26854 13.0511C3.27723 13.1328 3.30516 13.2112 3.35003 13.2801C3.39478 13.3478 3.45568 13.4034 3.52725 13.4418C3.59882 13.4802 3.67881 13.5002 3.76003 13.5001H11.24C11.3212 13.5002 11.4012 13.4802 11.4728 13.4418C11.5444 13.4034 11.6053 13.3478 11.65 13.2801C11.6869 13.2072 11.7062 13.1267 11.7062 13.0451C11.7062 12.9634 11.6869 12.8829 11.65 12.8101C10.8666 10.9719 10.4669 8.99305 10.4755 6.9949C10.4841 4.99675 10.9008 3.02142 11.7 1.19006V1.19006Z" stroke="#000001" stroke-linecap="round" stroke-linejoin="round"/>
</g>
<defs>
<clipPath id="clip0_6_4827">
<rect width="14" height="14" fill="white" transform="translate(0.5)"/>
</clipPath>
</defs>
</svg>
