<svg width="15" height="14" viewBox="0 0 15 14" fill="none" xmlns="http://www.w3.org/2000/svg">
<g clip-path="url(#clip0_6_4847)">
<path d="M5.75 0.5H1.5C1.22386 0.5 1 0.723858 1 1V5.25C1 5.52614 1.22386 5.75 1.5 5.75H5.75C6.02614 5.75 6.25 5.52614 6.25 5.25V1C6.25 0.723858 6.02614 0.5 5.75 0.5Z" stroke="#000001" stroke-linecap="round" stroke-linejoin="round"/>
<path d="M13.5 0.5H9.25C8.97386 0.5 8.75 0.723858 8.75 1V5.25C8.75 5.52614 8.97386 5.75 9.25 5.75H13.5C13.7761 5.75 14 5.52614 14 5.25V1C14 0.723858 13.7761 0.5 13.5 0.5Z" stroke="#000001" stroke-linecap="round" stroke-linejoin="round"/>
<path d="M5.75 8.25H1.5C1.22386 8.25 1 8.47386 1 8.75V13C1 13.2761 1.22386 13.5 1.5 13.5H5.75C6.02614 13.5 6.25 13.2761 6.25 13V8.75C6.25 8.47386 6.02614 8.25 5.75 8.25Z" stroke="#000001" stroke-linecap="round" stroke-linejoin="round"/>
<path d="M13.5 8.25H9.25C8.97386 8.25 8.75 8.47386 8.75 8.75V13C8.75 13.2761 8.97386 13.5 9.25 13.5H13.5C13.7761 13.5 14 13.2761 14 13V8.75C14 8.47386 13.7761 8.25 13.5 8.25Z" stroke="#000001" stroke-linecap="round" stroke-linejoin="round"/>
<path d="M1 3.5H6.25" stroke="#000001" stroke-linecap="round" stroke-linejoin="round"/>
<path d="M8.75 3.5H14" stroke="#000001" stroke-linecap="round" stroke-linejoin="round"/>
<path d="M8.75 11.25H14" stroke="#000001" stroke-linecap="round" stroke-linejoin="round"/>
<path d="M1 11.25H6.25" stroke="#000001" stroke-linecap="round" stroke-linejoin="round"/>
</g>
<defs>
<clipPath id="clip0_6_4847">
<rect width="14" height="14" fill="white" transform="translate(0.5)"/>
</clipPath>
</defs>
</svg>
