<svg width="25" height="24" viewBox="0 0 25 24" fill="none" xmlns="http://www.w3.org/2000/svg">
<g clip-path="url(#clip0_339_5348)">
<path d="M17.9533 24C17.7853 24 17.6133 23.979 17.4433 23.934L1.9803 19.793C1.47048 19.6516 1.03663 19.3155 0.772162 18.8573C0.507693 18.399 0.433764 17.8553 0.566296 17.343L2.5173 10.071C2.55326 9.94491 2.63734 9.83796 2.75142 9.77324C2.8655 9.70852 3.00044 9.69122 3.12716 9.72506C3.25387 9.75891 3.36222 9.84119 3.42884 9.95417C3.49546 10.0671 3.51501 10.2018 3.4833 10.329L1.5333 17.599C1.3943 18.129 1.7123 18.681 2.2433 18.828L17.7003 22.967C17.955 23.0348 18.2263 22.9988 18.4544 22.8668C18.6826 22.7348 18.8491 22.5177 18.9173 22.2631L19.6983 19.369C19.7154 19.3056 19.7448 19.2462 19.7848 19.1941C19.8249 19.142 19.8748 19.0984 19.9317 19.0656C19.9886 19.0328 20.0514 19.0116 20.1166 19.0031C20.1817 18.9946 20.2479 18.999 20.3113 19.016C20.3747 19.0331 20.4342 19.0625 20.4862 19.1026C20.5383 19.1426 20.582 19.1925 20.6148 19.2494C20.6475 19.3064 20.6688 19.3692 20.6773 19.4343C20.6858 19.4995 20.6814 19.5656 20.6643 19.629L19.8843 22.519C19.7706 22.9442 19.5196 23.3198 19.1704 23.5877C18.8212 23.8555 18.3934 24.0004 17.9533 24Z" fill="#585858"/>
<path d="M22.5 18H6.5C5.397 18 4.5 17.103 4.5 16V4C4.5 2.897 5.397 2 6.5 2H22.5C23.603 2 24.5 2.897 24.5 4V16C24.5 17.103 23.603 18 22.5 18ZM6.5 3C5.949 3 5.5 3.449 5.5 4V16C5.5 16.551 5.949 17 6.5 17H22.5C23.051 17 23.5 16.551 23.5 16V4C23.5 3.449 23.051 3 22.5 3H6.5Z" fill="#585858"/>
<path d="M9.50021 9C8.39721 9 7.50021 8.103 7.50021 7C7.50021 5.897 8.39721 5 9.50021 5C10.6032 5 11.5002 5.897 11.5002 7C11.5002 8.103 10.6032 9 9.50021 9ZM9.50021 6C8.94921 6 8.50021 6.449 8.50021 7C8.50021 7.551 8.94921 8 9.50021 8C10.0512 8 10.5002 7.551 10.5002 7C10.5002 6.449 10.0512 6 9.50021 6ZM5.07021 16.93C4.97139 16.93 4.8748 16.9007 4.79262 16.8458C4.71045 16.7909 4.64638 16.7129 4.6085 16.6217C4.57063 16.5304 4.56064 16.4299 4.57981 16.333C4.59898 16.2361 4.64644 16.147 4.71621 16.077L9.43921 11.354C10.0052 10.788 10.9942 10.788 11.5602 11.354L12.9662 12.76L16.8582 8.09C16.9979 7.92246 17.1725 7.78736 17.3697 7.69411C17.5669 7.60085 17.7821 7.55168 18.0002 7.55H18.0112C18.2275 7.54988 18.4413 7.59656 18.6379 7.68684C18.8345 7.77711 19.0093 7.90884 19.1502 8.073L24.3802 14.175C24.4238 14.2247 24.4571 14.2826 24.4782 14.3453C24.4992 14.4079 24.5077 14.4741 24.503 14.5401C24.4983 14.6061 24.4806 14.6704 24.4508 14.7295C24.4211 14.7885 24.3799 14.8411 24.3298 14.8841C24.2796 14.9272 24.2214 14.9599 24.1585 14.9802C24.0956 15.0006 24.0292 15.0084 23.9634 15.0029C23.8975 14.9975 23.8333 14.9791 23.7746 14.9487C23.7158 14.9184 23.6637 14.8767 23.6212 14.826L18.3912 8.724C18.3444 8.66904 18.2861 8.62499 18.2205 8.59493C18.1548 8.56487 18.0834 8.54954 18.0112 8.55C17.9383 8.55195 17.8665 8.56894 17.8004 8.59992C17.7343 8.63089 17.6754 8.67518 17.6272 8.73L13.3842 13.821C13.3397 13.8745 13.2845 13.918 13.2222 13.9488C13.1598 13.9797 13.0917 13.9971 13.0222 14C12.9527 14.0043 12.8831 13.9935 12.8182 13.9683C12.7532 13.9431 12.6946 13.9041 12.6462 13.854L10.8532 12.061C10.7577 11.9706 10.6312 11.9201 10.4997 11.9201C10.3682 11.9201 10.2417 11.9706 10.1462 12.061L5.42321 16.784C5.37687 16.8304 5.32184 16.8671 5.26126 16.8922C5.20069 16.9172 5.13576 16.9301 5.07021 16.93Z" fill="#585858"/>
</g>
<defs>
<clipPath id="clip0_339_5348">
<rect width="24" height="24" fill="white" transform="translate(0.5)"/>
</clipPath>
</defs>
</svg>
