<svg width="15" height="14" viewBox="0 0 15 14" fill="none" xmlns="http://www.w3.org/2000/svg">
<g clip-path="url(#clip0_6_4792)">
<path d="M7.5 13.5C11.0899 13.5 14 10.5899 14 7C14 3.41015 11.0899 0.5 7.5 0.5C3.91015 0.5 1 3.41015 1 7C1 10.5899 3.91015 13.5 7.5 13.5Z" stroke="#000001" stroke-linecap="round" stroke-linejoin="round"/>
<path d="M7.5 9.5C8.88071 9.5 10 8.38071 10 7C10 5.61929 8.88071 4.5 7.5 4.5C6.11929 4.5 5 5.61929 5 7C5 8.38071 6.11929 9.5 7.5 9.5Z" stroke="#000001" stroke-linecap="round" stroke-linejoin="round"/>
<path d="M5 7V1" stroke="#000001" stroke-linecap="round" stroke-linejoin="round"/>
<path d="M7.5 4.5H13.5" stroke="#000001" stroke-linecap="round" stroke-linejoin="round"/>
<path d="M10 7V13" stroke="#000001" stroke-linecap="round" stroke-linejoin="round"/>
<path d="M7.5 9.5H1.5" stroke="#000001" stroke-linecap="round" stroke-linejoin="round"/>
</g>
<defs>
<clipPath id="clip0_6_4792">
<rect width="14" height="14" fill="white" transform="translate(0.5)"/>
</clipPath>
</defs>
</svg>
