<svg width="14" height="14" viewBox="0 0 14 14" fill="none" xmlns="http://www.w3.org/2000/svg">
<g clip-path="url(#clip0_6_2542)">
<path d="M3.5 10H1C0.723858 10 0.5 10.2239 0.5 10.5V13C0.5 13.2761 0.723858 13.5 1 13.5H3.5C3.77614 13.5 4 13.2761 4 13V10.5C4 10.2239 3.77614 10 3.5 10Z" stroke="#000001" stroke-linecap="round" stroke-linejoin="round"/>
<path d="M13 10H10.5C10.2239 10 10 10.2239 10 10.5V13C10 13.2761 10.2239 13.5 10.5 13.5H13C13.2761 13.5 13.5 13.2761 13.5 13V10.5C13.5 10.2239 13.2761 10 13 10Z" stroke="#000001" stroke-linecap="round" stroke-linejoin="round"/>
<path d="M8.5 0.5H5.5C5.22386 0.5 5 0.723858 5 1V4C5 4.27614 5.22386 4.5 5.5 4.5H8.5C8.77614 4.5 9 4.27614 9 4V1C9 0.723858 8.77614 0.5 8.5 0.5Z" stroke="#000001" stroke-linecap="round" stroke-linejoin="round"/>
<path d="M4 12H10" stroke="#000001" stroke-linecap="round" stroke-linejoin="round"/>
<path d="M5.09 4.29004L2.5 10" stroke="#000001" stroke-linecap="round" stroke-linejoin="round"/>
<path d="M8.91016 4.29004L11.5002 10" stroke="#000001" stroke-linecap="round" stroke-linejoin="round"/>
</g>
<defs>
<clipPath id="clip0_6_2542">
<rect width="14" height="14" fill="white"/>
</clipPath>
</defs>
</svg>
