<svg width="14" height="14" viewBox="0 0 14 14" fill="none" xmlns="http://www.w3.org/2000/svg">
<path d="M8.5 1.5H1.5C0.947715 1.5 0.5 1.94772 0.5 2.5V4.5C0.5 5.05228 0.947715 5.5 1.5 5.5H8.5C9.05229 5.5 9.5 5.05228 9.5 4.5V2.5C9.5 1.94772 9.05229 1.5 8.5 1.5Z" stroke="#000001" stroke-linecap="round" stroke-linejoin="round"/>
<path d="M12.5 8.5H5.5C4.94772 8.5 4.5 8.94772 4.5 9.5V11.5C4.5 12.0523 4.94772 12.5 5.5 12.5H12.5C13.0523 12.5 13.5 12.0523 13.5 11.5V9.5C13.5 8.94772 13.0523 8.5 12.5 8.5Z" stroke="#000001" stroke-linecap="round" stroke-linejoin="round"/>
</svg>
