<svg width="15" height="14" viewBox="0 0 15 14" fill="none" xmlns="http://www.w3.org/2000/svg">
<g clip-path="url(#clip0_6_1644)">
<path d="M13.5195 6.49998C13.5201 5.47184 13.2565 4.4608 12.7539 3.56385C12.2514 2.66691 11.5268 1.91414 10.6497 1.37777C9.77253 0.841402 8.77228 0.539428 7.74487 0.500815C6.71745 0.462203 5.69736 0.688249 4.78243 1.15727C3.86751 1.62629 3.08845 2.32254 2.52001 3.17924C1.95156 4.03594 1.61279 5.02434 1.5362 6.04962C1.45961 7.0749 1.64777 8.10266 2.08263 9.03431C2.51748 9.96596 3.18445 10.7702 4.01953 11.37V12.5C4.01953 12.7652 4.12489 13.0195 4.31243 13.2071C4.49996 13.3946 4.75432 13.5 5.01953 13.5H10.0195C10.2847 13.5 10.5391 13.3946 10.7266 13.2071C10.9142 13.0195 11.0195 12.7652 11.0195 12.5V11.37C11.7927 10.8147 12.4226 10.0835 12.8573 9.23671C13.292 8.38991 13.519 7.45184 13.5195 6.49998V6.49998Z" stroke="#000001" stroke-linecap="round" stroke-linejoin="round"/>
<path d="M5.01953 7.5C5.29567 7.5 5.51953 7.27614 5.51953 7C5.51953 6.72386 5.29567 6.5 5.01953 6.5C4.74339 6.5 4.51953 6.72386 4.51953 7C4.51953 7.27614 4.74339 7.5 5.01953 7.5Z" stroke="#000001" stroke-linecap="round" stroke-linejoin="round"/>
<path d="M10.0195 7.5C10.2957 7.5 10.5195 7.27614 10.5195 7C10.5195 6.72386 10.2957 6.5 10.0195 6.5C9.74339 6.5 9.51953 6.72386 9.51953 7C9.51953 7.27614 9.74339 7.5 10.0195 7.5Z" stroke="#000001" stroke-linecap="round" stroke-linejoin="round"/>
<path d="M6.51953 11.5V13.5" stroke="#000001" stroke-linecap="round" stroke-linejoin="round"/>
<path d="M8.51953 11.5V13.5" stroke="#000001" stroke-linecap="round" stroke-linejoin="round"/>
</g>
<defs>
<clipPath id="clip0_6_1644">
<rect width="14" height="14" fill="white" transform="translate(0.519531)"/>
</clipPath>
</defs>
</svg>
