<svg width="14" height="14" viewBox="0 0 14 14" fill="none" xmlns="http://www.w3.org/2000/svg">
<g clip-path="url(#clip0_6_2699)">
<path d="M3 0.5L0.5 3H12.5C12.7652 3 13.0196 3.10536 13.2071 3.29289C13.3946 3.48043 13.5 3.73478 13.5 4V6C13.5 6.26522 13.3946 6.51957 13.2071 6.70711C13.0196 6.89464 12.7652 7 12.5 7H1.5C1.23478 7 0.98043 7.10536 0.792893 7.29289C0.605357 7.48043 0.5 7.73478 0.5 8V10C0.5 10.2652 0.605357 10.5196 0.792893 10.7071C0.98043 10.8946 1.23478 11 1.5 11H13.5L11 13.5" stroke="#000001" stroke-linecap="round" stroke-linejoin="round"/>
</g>
<defs>
<clipPath id="clip0_6_2699">
<rect width="14" height="14" fill="white"/>
</clipPath>
</defs>
</svg>
