<svg width="15" height="14" viewBox="0 0 15 14" fill="none" xmlns="http://www.w3.org/2000/svg">
<g clip-path="url(#clip0_6_3185)">
<path d="M12.7504 10.48C11.5888 10.4729 10.4499 10.157 9.45057 9.56463C8.45126 8.97228 7.62746 8.12482 7.06364 7.10913C6.49982 6.09345 6.21627 4.94609 6.24207 3.78469C6.26786 2.6233 6.60207 1.48965 7.21042 0.5C5.6076 0.781382 4.16692 1.64934 3.16901 2.9348C2.17111 4.22026 1.68746 5.83116 1.81227 7.4537C1.93708 9.07624 2.66142 10.5942 3.84418 11.7119C5.02694 12.8297 6.58342 13.4671 8.21042 13.5C9.32354 13.5028 10.4185 13.218 11.3892 12.6731C12.3598 12.1282 13.1732 11.3418 13.7504 10.39C13.4198 10.4446 13.0855 10.4747 12.7504 10.48V10.48Z" stroke="#000001" stroke-linecap="round" stroke-linejoin="round"/>
</g>
<defs>
<clipPath id="clip0_6_3185">
<rect width="14" height="14" fill="white" transform="translate(0.75)"/>
</clipPath>
</defs>
</svg>
