<svg width="14" height="14" viewBox="0 0 14 14" fill="none" xmlns="http://www.w3.org/2000/svg">
<g clip-path="url(#clip0_6_2256)">
<path d="M3.5 13.5H13.5" stroke="#000001" stroke-linecap="round" stroke-linejoin="round"/>
<path d="M12.3205 6.21046C12.4109 6.12283 12.4828 6.01792 12.5319 5.90197C12.581 5.78601 12.6063 5.66138 12.6063 5.53546C12.6063 5.40954 12.581 5.28491 12.5319 5.16895C12.4828 5.053 12.4109 4.94809 12.3205 4.86046L8.25046 0.78046C8.06554 0.608964 7.82266 0.513672 7.57046 0.513672C7.31826 0.513672 7.07537 0.608964 6.89046 0.78046L0.78046 6.89046C0.608964 7.07537 0.513672 7.31826 0.513672 7.57046C0.513672 7.82266 0.608964 8.06554 0.78046 8.25046L3.22046 10.6805C3.30644 10.772 3.41024 10.8449 3.52546 10.8948C3.64069 10.9446 3.7649 10.9704 3.89046 10.9705H7.17046C7.2977 10.9718 7.42382 10.9467 7.54087 10.8968C7.65791 10.8468 7.76333 10.7732 7.85046 10.6805L12.3205 6.21046Z" stroke="#000001" stroke-linecap="round" stroke-linejoin="round"/>
</g>
<defs>
<clipPath id="clip0_6_2256">
<rect width="14" height="14" fill="white"/>
</clipPath>
</defs>
</svg>
