<svg width="14" height="14" viewBox="0 0 14 14" fill="none" xmlns="http://www.w3.org/2000/svg">
<g clip-path="url(#clip0_6_2013)">
<path d="M11.5 0.5H12.5C12.7652 0.5 13.0196 0.605357 13.2071 0.792893C13.3946 0.98043 13.5 1.23478 13.5 1.5V2.5" stroke="#000001" stroke-linecap="round" stroke-linejoin="round"/>
<path d="M0.5 2.5V1.5C0.5 1.23478 0.605357 0.98043 0.792893 0.792893C0.98043 0.605357 1.23478 0.5 1.5 0.5H2.5" stroke="#000001" stroke-linecap="round" stroke-linejoin="round"/>
<path d="M5.5 0.5H8.5" stroke="#000001" stroke-linecap="round" stroke-linejoin="round"/>
<path d="M13.5 5.5V8.25" stroke="#000001" stroke-linecap="round" stroke-linejoin="round"/>
<path d="M0.5 5.5V8.5" stroke="#000001" stroke-linecap="round" stroke-linejoin="round"/>
<path d="M0.5 11.5V12.5C0.5 12.7652 0.605357 13.0196 0.792893 13.2071C0.98043 13.3946 1.23478 13.5 1.5 13.5H2.5" stroke="#000001" stroke-linecap="round" stroke-linejoin="round"/>
<path d="M5.5 13.5H8.25" stroke="#000001" stroke-linecap="round" stroke-linejoin="round"/>
<path d="M8 11.5C9.933 11.5 11.5 9.933 11.5 8C11.5 6.067 9.933 4.5 8 4.5C6.067 4.5 4.5 6.067 4.5 8C4.5 9.933 6.067 11.5 8 11.5Z" stroke="#000001" stroke-linecap="round" stroke-linejoin="round"/>
<path d="M10.4707 10.4702L13.0007 13.0002" stroke="#000001" stroke-linecap="round" stroke-linejoin="round"/>
</g>
<defs>
<clipPath id="clip0_6_2013">
<rect width="14" height="14" fill="white"/>
</clipPath>
</defs>
</svg>
