<svg width="15" height="14" viewBox="0 0 15 14" fill="none" xmlns="http://www.w3.org/2000/svg">
<g clip-path="url(#clip0_6_3317)">
<path d="M5.75 5C6.99264 5 8 3.99264 8 2.75C8 1.50736 6.99264 0.5 5.75 0.5C4.50736 0.5 3.5 1.50736 3.5 2.75C3.5 3.99264 4.50736 5 5.75 5Z" stroke="#000001" stroke-linecap="round" stroke-linejoin="round"/>
<path d="M6.75003 6.61019C6.09062 6.45796 5.40533 6.45675 4.74539 6.60666C4.08545 6.75658 3.46793 7.05373 2.93901 7.47591C2.41009 7.89808 1.98344 8.43436 1.69096 9.04465C1.39849 9.65494 1.24775 10.3234 1.25003 11.0002V12.5002H6.75003" stroke="#000001" stroke-linecap="round" stroke-linejoin="round"/>
<path d="M11.4191 13.47C11.3092 13.5098 11.1889 13.5098 11.0791 13.47C10.2451 13.1397 9.5295 12.5665 9.02494 11.8248C8.52038 11.0832 8.25009 10.2071 8.24907 9.31005V8.00005C8.24465 7.93324 8.25456 7.86627 8.27812 7.8036C8.30169 7.74093 8.33837 7.68402 8.38571 7.63668C8.43305 7.58934 8.48996 7.55266 8.55262 7.5291C8.61529 7.50553 8.68227 7.49563 8.74907 7.50005H13.7491C13.8159 7.49563 13.8829 7.50553 13.9455 7.5291C14.0082 7.55266 14.0651 7.58934 14.1124 7.63668C14.1598 7.68402 14.1965 7.74093 14.22 7.8036C14.2436 7.86627 14.2535 7.93324 14.2491 8.00005V9.31005C14.2481 10.2071 13.9778 11.0832 13.4732 11.8248C12.9686 12.5665 12.2531 13.1397 11.4191 13.47V13.47Z" stroke="#000001" stroke-linecap="round" stroke-linejoin="round"/>
</g>
<defs>
<clipPath id="clip0_6_3317">
<rect width="14" height="14" fill="white" transform="translate(0.75)"/>
</clipPath>
</defs>
</svg>
