<svg width="15" height="14" viewBox="0 0 15 14" fill="none" xmlns="http://www.w3.org/2000/svg">
<path d="M9.75 1.92983C10.204 1.66768 10.7188 1.52908 11.243 1.52784C11.7673 1.5266 12.2827 1.66275 12.7379 1.92275C13.1932 2.18274 13.5723 2.55749 13.8376 3.00965C14.1029 3.46181 14.2451 3.9756 14.25 4.49983C14.2479 4.87951 14.1767 5.25563 14.04 5.60983" stroke="#000001" stroke-linecap="round" stroke-linejoin="round"/>
<path d="M11.7229 7.16977C11.5697 7.15945 11.416 7.15945 11.2629 7.16977C11.0994 6.40115 10.677 5.71195 10.0663 5.21744C9.45564 4.72294 8.69366 4.45312 7.90786 4.45312C7.12205 4.45312 6.36007 4.72294 5.74937 5.21744C5.13867 5.71195 4.71628 6.40115 4.55286 7.16977C4.40303 7.15944 4.25268 7.15944 4.10286 7.16977C3.73915 7.14748 3.37474 7.19987 3.03204 7.32372C2.68935 7.44757 2.37563 7.64025 2.11021 7.88991C1.84479 8.13956 1.63328 8.4409 1.4887 8.77538C1.34412 9.10986 1.26953 9.47038 1.26953 9.83477C1.26953 10.1992 1.34412 10.5597 1.4887 10.8942C1.63328 11.2286 1.84479 11.53 2.11021 11.7796C2.37563 12.0293 2.68935 12.222 3.03204 12.3458C3.37474 12.4697 3.73915 12.5221 4.10286 12.4998H11.7229C12.4014 12.4582 13.0386 12.1593 13.5044 11.6641C13.9702 11.1689 14.2295 10.5146 14.2295 9.83477C14.2295 9.15492 13.9702 8.50067 13.5044 8.00545C13.0386 7.51024 12.4014 7.21136 11.7229 7.16977V7.16977Z" stroke="#000001" stroke-linecap="round" stroke-linejoin="round"/>
</svg>
