<svg width="14" height="14" viewBox="0 0 14 14" fill="none" xmlns="http://www.w3.org/2000/svg">
<g clip-path="url(#clip0_6_4155)">
<path d="M6.14931 0.529796C6.08885 0.49368 6.01974 0.474609 5.94931 0.474609C5.87889 0.474609 5.80978 0.49368 5.74931 0.529796C5.69944 0.56931 5.66579 0.62574 5.65474 0.6884C5.64368 0.751059 5.65598 0.815599 5.68931 0.869796C6.91931 2.9998 7.17931 5.8998 5.49931 7.4998C4.85294 6.95662 4.33978 6.2724 3.99931 5.4998C3.37804 5.84485 2.86317 6.35349 2.51058 6.97052C2.158 7.58754 1.98117 8.28937 1.99931 8.9998C2.02468 9.62608 2.17505 10.241 2.44159 10.8083C2.70812 11.3756 3.08544 11.8838 3.55133 12.3031C4.01722 12.7224 4.56228 13.0443 5.15442 13.2498C5.74656 13.4553 6.37383 13.5403 6.99931 13.4998C10.2193 13.4998 11.8893 11.4998 11.9993 8.9998C12.1293 5.9998 9.99931 2.3098 6.14931 0.529796Z" stroke="#000001" stroke-linecap="round" stroke-linejoin="round"/>
<path d="M9.5 9C9.5 9.53043 9.28929 10.0391 8.91421 10.4142C8.53914 10.7893 8.03043 11 7.5 11" stroke="#000001" stroke-linecap="round" stroke-linejoin="round"/>
</g>
<defs>
<clipPath id="clip0_6_4155">
<rect width="14" height="14" fill="white"/>
</clipPath>
</defs>
</svg>
