<svg width="14" height="14" viewBox="0 0 14 14" fill="none" xmlns="http://www.w3.org/2000/svg">
<g clip-path="url(#clip0_6_3356)">
<path d="M13.5009 8L9.38086 13.5L6.63086 11.44" stroke="#000001" stroke-linecap="round" stroke-linejoin="round"/>
<path d="M5 5C6.24264 5 7.25 3.99264 7.25 2.75C7.25 1.50736 6.24264 0.5 5 0.5C3.75736 0.5 2.75 1.50736 2.75 2.75C2.75 3.99264 3.75736 5 5 5Z" stroke="#000001" stroke-linecap="round" stroke-linejoin="round"/>
<path d="M3 12.5H0.5V11C0.500782 10.1105 0.765127 9.24125 1.25965 8.50196C1.75417 7.76266 2.45668 7.1865 3.27846 6.84623C4.10024 6.50596 5.00442 6.41685 5.87682 6.59016C6.74921 6.76346 7.55068 7.19141 8.18 7.81995" stroke="#000001" stroke-linecap="round" stroke-linejoin="round"/>
</g>
<defs>
<clipPath id="clip0_6_3356">
<rect width="14" height="14" fill="white"/>
</clipPath>
</defs>
</svg>
