<svg width="15" height="14" viewBox="0 0 15 14" fill="none" xmlns="http://www.w3.org/2000/svg">
<g clip-path="url(#clip0_6_2189)">
<path d="M3.86914 5.84977L6.40914 1.78977C6.50758 1.62929 6.6459 1.49705 6.81063 1.40592C6.97537 1.3148 7.16089 1.26789 7.34914 1.26977V1.26977C7.4974 1.26441 7.64523 1.28884 7.78389 1.34159C7.92255 1.39435 8.04923 1.47436 8.15644 1.57691C8.26365 1.67946 8.34921 1.80246 8.40807 1.93864C8.46693 2.07482 8.4979 2.22141 8.49914 2.36977V5.27977H12.8891C13.0514 5.28503 13.2106 5.32456 13.3565 5.39578C13.5023 5.46699 13.6314 5.56827 13.7353 5.69295C13.8392 5.81763 13.9156 5.96289 13.9593 6.11919C14.003 6.27548 14.0132 6.43926 13.9891 6.59977L13.1891 11.7598C13.155 12.0355 13.0214 12.2893 12.8133 12.4735C12.6052 12.6576 12.337 12.7594 12.0591 12.7598H5.49914C5.18686 12.761 4.87863 12.6891 4.59914 12.5498L3.87914 12.1898" stroke="#000001" stroke-linecap="round" stroke-linejoin="round"/>
<path d="M3.86914 5.84961V12.1596" stroke="#000001" stroke-linecap="round" stroke-linejoin="round"/>
<path d="M1.5 5.84961H3.87V12.1596H1.5C1.36739 12.1596 1.24021 12.1069 1.14645 12.0132C1.05268 11.9194 1 11.7922 1 11.6596V6.34961C1 6.217 1.05268 6.08982 1.14645 5.99606C1.24021 5.90229 1.36739 5.84961 1.5 5.84961V5.84961Z" stroke="#000001" stroke-linecap="round" stroke-linejoin="round"/>
</g>
<defs>
<clipPath id="clip0_6_2189">
<rect width="14" height="14" fill="white" transform="translate(0.5)"/>
</clipPath>
</defs>
</svg>
