<svg width="14" height="14" viewBox="0 0 14 14" fill="none" xmlns="http://www.w3.org/2000/svg">
<g clip-path="url(#clip0_6_4225)">
<path d="M7 5V8" stroke="#000001" stroke-linecap="round" stroke-linejoin="round"/>
<path d="M7 11.5C7.27614 11.5 7.5 11.2761 7.5 11C7.5 10.7239 7.27614 10.5 7 10.5C6.72386 10.5 6.5 10.7239 6.5 11C6.5 11.2761 6.72386 11.5 7 11.5Z" stroke="#000001" stroke-linecap="round" stroke-linejoin="round"/>
<path d="M7.89088 1.0499C7.80696 0.886097 7.67947 0.748632 7.52244 0.652642C7.3654 0.556651 7.18493 0.505859 7.00088 0.505859C6.81683 0.505859 6.63636 0.556651 6.47933 0.652642C6.32229 0.748632 6.1948 0.886097 6.11088 1.0499L0.61088 12.0499C0.53417 12.2021 0.497648 12.3714 0.504783 12.5418C0.511917 12.7121 0.562471 12.8777 0.651643 13.023C0.740816 13.1683 0.865646 13.2884 1.01428 13.3718C1.16291 13.4553 1.33042 13.4994 1.50088 13.4999H12.5009C12.6713 13.4994 12.8388 13.4553 12.9875 13.3718C13.1361 13.2884 13.2609 13.1683 13.3501 13.023C13.4393 12.8777 13.4898 12.7121 13.497 12.5418C13.5041 12.3714 13.4676 12.2021 13.3909 12.0499L7.89088 1.0499Z" stroke="#000001" stroke-linecap="round" stroke-linejoin="round"/>
</g>
<defs>
<clipPath id="clip0_6_4225">
<rect width="14" height="14" fill="white"/>
</clipPath>
</defs>
</svg>
