<svg width="15" height="14" viewBox="0 0 15 14" fill="none" xmlns="http://www.w3.org/2000/svg">
<g clip-path="url(#clip0_6_3181)">
<path d="M12.53 9.37998C12.8729 9.26551 13.1869 9.07802 13.4504 8.83045C13.7139 8.58288 13.9205 8.28112 14.056 7.94596C14.1916 7.61081 14.2529 7.25024 14.2356 6.88913C14.2183 6.52802 14.1229 6.17494 13.956 5.85426C13.789 5.53358 13.5545 5.25292 13.2687 5.03163C12.9828 4.81035 12.6523 4.6537 12.3 4.57249C11.9477 4.49128 11.582 4.48745 11.2281 4.56125C10.8742 4.63505 10.5405 4.78473 10.25 4.99998C10.2505 4.16371 10.018 3.34383 9.57858 2.63234C9.13912 1.92084 8.5101 1.34588 7.76208 0.97196C7.01406 0.59804 6.17665 0.439955 5.34379 0.515444C4.51094 0.590932 3.7156 0.897007 3.047 1.39933C2.3784 1.90165 1.86301 2.58034 1.55864 3.35925C1.25427 4.13816 1.17297 4.98648 1.32386 5.80902C1.47475 6.63157 1.85186 7.39579 2.41289 8.01595C2.97391 8.63612 3.69664 9.08768 4.5 9.31998" stroke="#000001" stroke-linecap="round" stroke-linejoin="round"/>
<path d="M8.75 8L6.75 10.5H9.75L7.75 13.5" stroke="#000001" stroke-linecap="round" stroke-linejoin="round"/>
</g>
<defs>
<clipPath id="clip0_6_3181">
<rect width="14" height="14" fill="white" transform="translate(0.75)"/>
</clipPath>
</defs>
</svg>
