<svg width="14" height="14" viewBox="0 0 14 14" fill="none" xmlns="http://www.w3.org/2000/svg">
<g clip-path="url(#clip0_6_1847)">
<path d="M4.75 11.9999H1.5C1.23478 11.9999 0.98043 11.8946 0.792893 11.707C0.605357 11.5195 0.5 11.2652 0.5 10.9999V1.49994C0.5 1.23472 0.605357 0.980366 0.792893 0.792829C0.98043 0.605293 1.23478 0.499936 1.5 0.499936H5.19C5.41843 0.493281 5.64226 0.565069 5.82421 0.70335C6.00615 0.84163 6.13525 1.03806 6.19 1.25994L6.47 2.49994H12.47C12.7352 2.49994 12.9896 2.60529 13.1771 2.79283C13.3646 2.98037 13.47 3.23472 13.47 3.49994V5.24994" stroke="#000001" stroke-linecap="round" stroke-linejoin="round"/>
<path d="M10.25 13.5C12.0449 13.5 13.5 12.0449 13.5 10.25C13.5 8.45507 12.0449 7 10.25 7C8.45507 7 7 8.45507 7 10.25C7 12.0449 8.45507 13.5 10.25 13.5Z" stroke="#000001" stroke-linecap="round" stroke-linejoin="round"/>
<path d="M7.94922 12.5497L12.5492 7.94971" stroke="#000001" stroke-linecap="round" stroke-linejoin="round"/>
</g>
<defs>
<clipPath id="clip0_6_1847">
<rect width="14" height="14" fill="white"/>
</clipPath>
</defs>
</svg>
