<svg width="14" height="14" viewBox="0 0 14 14" fill="none" xmlns="http://www.w3.org/2000/svg">
<path d="M1 3C1.27614 3 1.5 2.77614 1.5 2.5C1.5 2.22386 1.27614 2 1 2C0.723858 2 0.5 2.22386 0.5 2.5C0.5 2.77614 0.723858 3 1 3Z" stroke="#000001" stroke-linecap="round" stroke-linejoin="round"/>
<path d="M4.5 2.5H13.5" stroke="#000001" stroke-linecap="round" stroke-linejoin="round"/>
<path d="M1 7.5C1.27614 7.5 1.5 7.27614 1.5 7C1.5 6.72386 1.27614 6.5 1 6.5C0.723858 6.5 0.5 6.72386 0.5 7C0.5 7.27614 0.723858 7.5 1 7.5Z" stroke="#000001" stroke-linecap="round" stroke-linejoin="round"/>
<path d="M4.5 7H13.5" stroke="#000001" stroke-linecap="round" stroke-linejoin="round"/>
<path d="M1 12C1.27614 12 1.5 11.7761 1.5 11.5C1.5 11.2239 1.27614 11 1 11C0.723858 11 0.5 11.2239 0.5 11.5C0.5 11.7761 0.723858 12 1 12Z" stroke="#000001" stroke-linecap="round" stroke-linejoin="round"/>
<path d="M4.5 11.5H13.5" stroke="#000001" stroke-linecap="round" stroke-linejoin="round"/>
</svg>
