<svg width="14" height="14" viewBox="0 0 14 14" fill="none" xmlns="http://www.w3.org/2000/svg">
<g clip-path="url(#clip0_6_4099)">
<path d="M1.5 5.54004H12.5V12.54C12.5 12.8053 12.3946 13.0596 12.2071 13.2471C12.0196 13.4347 11.7652 13.54 11.5 13.54H2.5C2.23478 13.54 1.98043 13.4347 1.79289 13.2471C1.60536 13.0596 1.5 12.8053 1.5 12.54V5.54004V5.54004Z" stroke="#000001" stroke-linecap="round" stroke-linejoin="round"/>
<path d="M13.5 4.54004V2.54004C13.5 1.98775 13.0523 1.54004 12.5 1.54004L1.5 1.54004C0.947715 1.54004 0.5 1.98775 0.5 2.54004V4.54004C0.5 5.09232 0.947715 5.54004 1.5 5.54004L12.5 5.54004C13.0523 5.54004 13.5 5.09232 13.5 4.54004Z" stroke="#000001" stroke-linecap="round" stroke-linejoin="round"/>
<path d="M5.5 8.54004H8.5" stroke="#000001" stroke-linecap="round" stroke-linejoin="round"/>
</g>
<defs>
<clipPath id="clip0_6_4099">
<rect width="14" height="14" fill="white"/>
</clipPath>
</defs>
</svg>
