<svg width="15" height="14" viewBox="0 0 15 14" fill="none" xmlns="http://www.w3.org/2000/svg">
<g clip-path="url(#clip0_6_3147)">
<path d="M11.75 6.5C11.2092 6.50072 10.6831 6.67609 10.25 7C10.25 6.10999 9.98608 5.23996 9.49162 4.49994C8.99715 3.75991 8.29434 3.18314 7.47208 2.84254C6.64981 2.50195 5.74501 2.41283 4.8721 2.58647C3.99918 2.7601 3.19736 3.18868 2.56802 3.81802C1.93869 4.44736 1.5101 5.24918 1.33647 6.1221C1.16283 6.99501 1.25195 7.89981 1.59254 8.72208C1.93314 9.54434 2.50991 10.2471 3.24994 10.7416C3.98996 11.2361 4.85999 11.5 5.75 11.5H11.75C12.413 11.5 13.0489 11.2366 13.5178 10.7678C13.9866 10.2989 14.25 9.66304 14.25 9C14.25 8.33696 13.9866 7.70108 13.5178 7.23223C13.0489 6.76339 12.413 6.5 11.75 6.5V6.5Z" stroke="#000001" stroke-linecap="round" stroke-linejoin="round"/>
</g>
<defs>
<clipPath id="clip0_6_3147">
<rect width="14" height="14" fill="white" transform="translate(0.75)"/>
</clipPath>
</defs>
</svg>
