<svg width="14" height="14" viewBox="0 0 14 14" fill="none" xmlns="http://www.w3.org/2000/svg">
<g clip-path="url(#clip0_6_3141)">
<path d="M2 3.5C2.82843 3.5 3.5 2.82843 3.5 2C3.5 1.17157 2.82843 0.5 2 0.5C1.17157 0.5 0.5 1.17157 0.5 2C0.5 2.82843 1.17157 3.5 2 3.5Z" stroke="#000001" stroke-linecap="round" stroke-linejoin="round"/>
<path d="M13.5008 1.83999C12.6773 1.55028 11.8004 1.44379 10.9314 1.52794C10.0625 1.61209 9.22234 1.88486 8.46967 2.32721C7.717 2.76956 7.06993 3.37083 6.57362 4.08906C6.07731 4.8073 5.74372 5.62519 5.59613 6.48565C5.44854 7.34612 5.4905 8.22843 5.71909 9.071C5.94768 9.91358 6.35738 10.6961 6.91962 11.364C7.48185 12.0319 8.18306 12.569 8.97432 12.938C9.76557 13.3069 10.6278 13.4987 11.5008 13.5C12.182 13.501 12.8583 13.386 13.5008 13.16" stroke="#000001" stroke-linecap="round" stroke-linejoin="round"/>
</g>
<defs>
<clipPath id="clip0_6_3141">
<rect width="14" height="14" fill="white"/>
</clipPath>
</defs>
</svg>
