<svg width="15" height="14" viewBox="0 0 15 14" fill="none" xmlns="http://www.w3.org/2000/svg">
<g clip-path="url(#clip0_6_1253)">
<path d="M2.01953 10.5H13.0195V12.5C13.0195 12.7652 12.9142 13.0196 12.7266 13.2071C12.5391 13.3946 12.2847 13.5 12.0195 13.5H3.01953C2.75431 13.5 2.49996 13.3946 2.31242 13.2071C2.12489 13.0196 2.01953 12.7652 2.01953 12.5V10.5Z" stroke="#000001" stroke-linecap="round" stroke-linejoin="round"/>
<path d="M11.0195 6.5C10.7543 6.5 10.5 6.39464 10.3124 6.20711C10.1249 6.01957 10.0195 5.76522 10.0195 5.5V3C10.0195 2.33696 9.75614 1.70107 9.2873 1.23223C8.81846 0.763392 8.18257 0.5 7.51953 0.5C6.85649 0.5 6.22061 0.763392 5.75176 1.23223C5.28292 1.70107 5.01953 2.33696 5.01953 3V5.5C5.01953 5.76522 4.91417 6.01957 4.72664 6.20711C4.5391 6.39464 4.28475 6.5 4.01953 6.5H3.01953C2.4891 6.5 1.98039 6.71071 1.60532 7.08579C1.23024 7.46086 1.01953 7.96957 1.01953 8.5V9.5C1.01953 9.76522 1.12489 10.0196 1.31242 10.2071C1.49996 10.3946 1.75431 10.5 2.01953 10.5H13.0195C13.2847 10.5 13.5391 10.3946 13.7266 10.2071C13.9142 10.0196 14.0195 9.76522 14.0195 9.5V8.5C14.0195 7.96957 13.8088 7.46086 13.4337 7.08579C13.0587 6.71071 12.55 6.5 12.0195 6.5H11.0195Z" stroke="#000001" stroke-linecap="round" stroke-linejoin="round"/>
</g>
<defs>
<clipPath id="clip0_6_1253">
<rect width="14" height="14" fill="white" transform="translate(0.519531)"/>
</clipPath>
</defs>
</svg>
