<svg width="14" height="14" viewBox="0 0 14 14" fill="none" xmlns="http://www.w3.org/2000/svg">
<g clip-path="url(#clip0_6_4209)">
<path d="M7 10.9902C8.933 10.9902 10.5 9.42323 10.5 7.49023C10.5 5.55724 8.933 3.99023 7 3.99023C5.067 3.99023 3.5 5.55724 3.5 7.49023C3.5 9.42323 5.067 10.9902 7 10.9902Z" stroke="#000001" stroke-linecap="round" stroke-linejoin="round"/>
<path d="M9.34969 1.31006C9.81332 1.77464 10.1288 2.36622 10.2564 3.01005C10.3839 3.65388 10.3178 4.32107 10.0663 4.92733C9.81483 5.53358 9.3893 6.05169 8.84347 6.4162C8.29765 6.7807 7.65603 6.97524 6.99969 6.97524C6.34334 6.97524 5.70173 6.7807 5.1559 6.4162C4.61008 6.05169 4.18454 5.53358 3.93306 4.92733C3.68158 4.32107 3.61543 3.65388 3.74298 3.01005C3.87054 2.36622 4.18606 1.77464 4.64969 1.31006" stroke="#000001" stroke-linecap="round" stroke-linejoin="round"/>
<path d="M0.5 8.50021C0.67047 7.86638 1.02499 7.29729 1.51877 6.86486C2.01254 6.43244 2.62342 6.15607 3.2742 6.07069C3.92499 5.98531 4.58648 6.09475 5.17509 6.38517C5.7637 6.67559 6.25302 7.13397 6.58122 7.70239C6.90942 8.2708 7.06177 8.92374 7.01902 9.57871C6.97627 10.2337 6.74035 10.8613 6.34105 11.3822C5.94175 11.9031 5.397 12.294 4.77564 12.5055C4.15427 12.7169 3.48417 12.7395 2.85 12.5702" stroke="#000001" stroke-linecap="round" stroke-linejoin="round"/>
<path d="M11.1507 12.5702C10.5165 12.7395 9.84641 12.7169 9.22505 12.5055C8.60368 12.294 8.05893 11.9031 7.65963 11.3822C7.26034 10.8613 7.02441 10.2337 6.98166 9.57871C6.93891 8.92374 7.09126 8.2708 7.41946 7.70239C7.74766 7.13397 8.23698 6.67559 8.82559 6.38517C9.41421 6.09475 10.0757 5.98531 10.7265 6.07069C11.3773 6.15607 11.9881 6.43244 12.4819 6.86486C12.9757 7.29729 13.3302 7.86638 13.5007 8.50021" stroke="#000001" stroke-linecap="round" stroke-linejoin="round"/>
</g>
<defs>
<clipPath id="clip0_6_4209">
<rect width="14" height="14" fill="white"/>
</clipPath>
</defs>
</svg>
