<svg width="15" height="14" viewBox="0 0 15 14" fill="none" xmlns="http://www.w3.org/2000/svg">
<g clip-path="url(#clip0_6_1677)">
<path d="M12.8091 5.3999C13.1891 5.7399 13.5091 6.0699 13.7491 6.3299C13.915 6.51365 14.0068 6.75238 14.0068 6.9999C14.0068 7.24742 13.915 7.48615 13.7491 7.6699C12.6991 8.7999 10.3091 10.9999 7.51914 10.9999H7.11914" stroke="#000001" stroke-linecap="round" stroke-linejoin="round"/>
<path d="M4.38889 10.13C3.23052 9.48125 2.18386 8.65067 1.28889 7.67C1.12305 7.48625 1.03125 7.24752 1.03125 7C1.03125 6.75248 1.12305 6.51375 1.28889 6.33C2.33889 5.2 4.72889 3 7.51889 3C8.61866 3.02299 9.695 3.32216 10.6489 3.87" stroke="#000001" stroke-linecap="round" stroke-linejoin="round"/>
<path d="M13.0195 1.5L2.01953 12.5" stroke="#000001" stroke-linecap="round" stroke-linejoin="round"/>
<path d="M6.10953 8.41C5.73394 8.03665 5.52176 7.52958 5.51953 7C5.51953 6.46957 5.73024 5.96086 6.10532 5.58579C6.48039 5.21071 6.9891 5 7.51953 5C8.04911 5.00223 8.55618 5.21441 8.92953 5.59" stroke="#000001" stroke-linecap="round" stroke-linejoin="round"/>
<path d="M9.25953 8C9.08152 8.3043 8.82623 8.55614 8.51953 8.73" stroke="#000001" stroke-linecap="round" stroke-linejoin="round"/>
</g>
<defs>
<clipPath id="clip0_6_1677">
<rect width="14" height="14" fill="white" transform="translate(0.519531)"/>
</clipPath>
</defs>
</svg>
