<svg width="14" height="14" viewBox="0 0 14 14" fill="none" xmlns="http://www.w3.org/2000/svg">
<path d="M5.5 13.5V8.25C5.5 7.91848 5.6317 7.60054 5.86612 7.36612C6.10054 7.1317 6.41848 7 6.75 7V7C7.08152 7 7.39946 7.1317 7.63388 7.36612C7.8683 7.60054 8 7.91848 8 8.25V11H10C10.5304 11 11.0391 11.2107 11.4142 11.5858C11.7893 11.9609 12 12.4696 12 13V13.5" stroke="#000001" stroke-linecap="round" stroke-linejoin="round"/>
<path d="M3.39 8.60995C2.72605 7.94552 2.27401 7.09914 2.09102 6.17783C1.90802 5.25651 2.00229 4.30163 2.36191 3.43388C2.72153 2.56614 3.33035 1.8245 4.11141 1.30272C4.89247 0.780935 5.81069 0.502441 6.75 0.502441C7.68931 0.502441 8.60754 0.780935 9.38859 1.30272C10.1697 1.8245 10.7785 2.56614 11.1381 3.43388C11.4977 4.30163 11.592 5.25651 11.409 6.17783C11.226 7.09914 10.7739 7.94552 10.11 8.60995" stroke="#000001" stroke-linecap="round" stroke-linejoin="round"/>
</svg>
