<svg width="14" height="14" viewBox="0 0 14 14" fill="none" xmlns="http://www.w3.org/2000/svg">
<g clip-path="url(#clip0_6_1954)">
<path d="M4.85057 7.03767L6.97189 9.15899C7.06378 9.25088 7.11541 9.37552 7.11541 9.50547C7.11541 9.63543 7.06378 9.76006 6.97189 9.85196L3.84648 12.9774C3.47141 13.3524 2.9627 13.5632 2.43227 13.5632C1.90183 13.5632 1.39312 13.3524 1.01805 12.9774V12.9774C0.642979 12.6023 0.432266 12.0936 0.432266 11.5632C0.432266 11.0327 0.642979 10.524 1.01805 10.1489L4.14346 7.02353C4.19014 6.97677 4.24579 6.93994 4.30707 6.91525C4.36834 6.89055 4.43398 6.8785 4.50003 6.87982C4.56609 6.88114 4.63119 6.89581 4.69143 6.92293C4.75167 6.95006 4.8058 6.98909 4.85057 7.03767Z" stroke="#000001" stroke-linecap="round" stroke-linejoin="round"/>
<path d="M5.9082 8.08986L10.3882 3.60986" stroke="#000001" stroke-linecap="round" stroke-linejoin="round"/>
<path d="M10.7388 3.95L10.0488 3.26V1.88L12.1188 0.5L13.4988 1.88L12.1188 3.95H10.7388Z" stroke="#000001" stroke-linecap="round" stroke-linejoin="round"/>
</g>
<defs>
<clipPath id="clip0_6_1954">
<rect width="14" height="14" fill="white"/>
</clipPath>
</defs>
</svg>
