<svg width="14" height="14" viewBox="0 0 14 14" fill="none" xmlns="http://www.w3.org/2000/svg">
<path d="M9.5 13.5V11H11.5C11.7652 11 12.0196 10.8946 12.2071 10.7071C12.3946 10.5195 12.5 10.2652 12.5 9.99996V5.99996C12.4998 5.02248 12.2391 4.06272 11.7448 3.21946C11.2505 2.3762 10.5403 1.67992 9.6875 1.20229C8.83466 0.724665 7.86995 0.482948 6.89266 0.502024C5.91538 0.521101 4.96083 0.800282 4.12728 1.31083C3.29374 1.82137 2.61132 2.54484 2.15026 3.40674C1.68921 4.26865 1.46619 5.23786 1.50415 6.21459C1.54212 7.19133 1.8397 8.1403 2.36626 8.96382C2.89282 9.78734 3.62934 10.4556 4.5 10.9V13.5" stroke="#000001" stroke-linecap="round" stroke-linejoin="round"/>
</svg>
