<svg width="14" height="14" viewBox="0 0 14 14" fill="none" xmlns="http://www.w3.org/2000/svg">
<g clip-path="url(#clip0_6_4272)">
<path d="M6.5 9C7.88071 9 9 7.88071 9 6.5C9 5.11929 7.88071 4 6.5 4C5.11929 4 4 5.11929 4 6.5C4 7.88071 5.11929 9 6.5 9Z" stroke="#000001" stroke-linecap="round" stroke-linejoin="round"/>
<path d="M9.99953 10L8.26953 8.27002" stroke="#000001" stroke-linecap="round" stroke-linejoin="round"/>
<path d="M12.5 0.5H1.5C0.947715 0.5 0.5 0.947715 0.5 1.5V12.5C0.5 13.0523 0.947715 13.5 1.5 13.5H12.5C13.0523 13.5 13.5 13.0523 13.5 12.5V1.5C13.5 0.947715 13.0523 0.5 12.5 0.5Z" stroke="#000001" stroke-linecap="round" stroke-linejoin="round"/>
</g>
<defs>
<clipPath id="clip0_6_4272">
<rect width="14" height="14" fill="white"/>
</clipPath>
</defs>
</svg>
