<svg width="15" height="14" viewBox="0 0 15 14" fill="none" xmlns="http://www.w3.org/2000/svg">
<g clip-path="url(#clip0_6_1658)">
<path d="M2.01953 0.5H5.01953C5.28475 0.5 5.5391 0.605357 5.72664 0.792893C5.91417 0.98043 6.01953 1.23478 6.01953 1.5V11C6.01953 11.663 5.75614 12.2989 5.2873 12.7678C4.81846 13.2366 4.18257 13.5 3.51953 13.5V13.5C3.19123 13.5 2.86614 13.4353 2.56282 13.3097C2.25951 13.1841 1.98391 12.9999 1.75176 12.7678C1.28292 12.2989 1.01953 11.663 1.01953 11V1.5C1.01953 1.23478 1.12489 0.98043 1.31242 0.792893C1.49996 0.605357 1.75431 0.5 2.01953 0.5V0.5Z" stroke="#000001" stroke-linecap="round" stroke-linejoin="round"/>
<path d="M6.01906 4.99976L9.51906 1.47976C9.70642 1.29351 9.95988 1.18896 10.2241 1.18896C10.4882 1.18896 10.7417 1.29351 10.9291 1.47976L13.0391 3.59976C13.2253 3.78712 13.3299 4.04057 13.3299 4.30476C13.3299 4.56894 13.2253 4.8224 13.0391 5.00976L5.28906 12.7698" stroke="#000001" stroke-linecap="round" stroke-linejoin="round"/>
<path d="M9.51953 8.5H13.0195C13.2847 8.5 13.5391 8.60536 13.7266 8.79289C13.9142 8.98043 14.0195 9.23478 14.0195 9.5V12.5C14.0195 12.7652 13.9142 13.0196 13.7266 13.2071C13.5391 13.3946 13.2847 13.5 13.0195 13.5H3.51953" stroke="#000001" stroke-linecap="round" stroke-linejoin="round"/>
<path d="M1.01953 4.5H6.01953" stroke="#000001" stroke-linecap="round" stroke-linejoin="round"/>
<path d="M1.01953 8.5H6.01953" stroke="#000001" stroke-linecap="round" stroke-linejoin="round"/>
</g>
<defs>
<clipPath id="clip0_6_1658">
<rect width="14" height="14" fill="white" transform="translate(0.519531)"/>
</clipPath>
</defs>
</svg>
