<svg width="15" height="14" viewBox="0 0 15 14" fill="none" xmlns="http://www.w3.org/2000/svg">
<g clip-path="url(#clip0_6_1546)">
<path d="M6.01953 12.5001C6.29588 12.2453 6.51644 11.9361 6.66731 11.5919C6.81817 11.2477 6.89606 10.8759 6.89606 10.5001C6.89606 10.1242 6.81817 9.75247 6.66731 9.40824C6.51644 9.06401 6.29588 8.75478 6.01953 8.50006C5.76481 8.22371 5.45558 8.00315 5.11135 7.85229C4.76712 7.70142 4.39537 7.62354 4.01953 7.62354C3.6437 7.62354 3.27194 7.70142 2.92771 7.85229C2.58348 8.00315 2.27425 8.22371 2.01953 8.50006C1.01953 9.50006 1.01953 13.5001 1.01953 13.5001C1.01953 13.5001 5.01953 13.5001 6.01953 12.5001Z" stroke="#000001" stroke-linecap="round" stroke-linejoin="round"/>
<path d="M13.4386 1.08018C13.0922 0.738175 12.6329 0.534255 12.1469 0.506641C11.6609 0.479026 11.1815 0.629615 10.7986 0.930178L5.01859 5.00018L4.30859 7.64018C4.96021 7.72273 5.5638 8.02628 6.01859 8.50018C6.49249 8.95498 6.79605 9.55856 6.87859 10.2102L9.51859 9.50018L13.5886 3.72018C13.8892 3.33726 14.0397 2.85786 14.0121 2.37185C13.9845 1.88584 13.7806 1.42659 13.4386 1.08018V1.08018Z" stroke="#000001" stroke-linecap="round" stroke-linejoin="round"/>
<path d="M1.01953 13.5L4.26953 10.25" stroke="#000001" stroke-linecap="round" stroke-linejoin="round"/>
</g>
<defs>
<clipPath id="clip0_6_1546">
<rect width="14" height="14" fill="white" transform="translate(0.519531)"/>
</clipPath>
</defs>
</svg>
