<svg width="14" height="14" viewBox="0 0 14 14" fill="none" xmlns="http://www.w3.org/2000/svg">
<g clip-path="url(#clip0_6_3901)">
<path d="M1.91054 9.5L0.610537 12.05C0.522769 12.202 0.476563 12.3745 0.476562 12.55C0.476562 12.7255 0.522769 12.898 0.610537 13.05C0.702374 13.197 0.830856 13.3177 0.983378 13.4001C1.1359 13.4825 1.30722 13.5238 1.48054 13.52H12.4805C12.6539 13.5238 12.8252 13.4825 12.9777 13.4001C13.1302 13.3177 13.2587 13.197 13.3505 13.05C13.4383 12.898 13.4845 12.7255 13.4845 12.55C13.4845 12.3745 13.4383 12.202 13.3505 12.05L12.0905 9.5H1.91054Z" stroke="#000001" stroke-linecap="round" stroke-linejoin="round"/>
<path d="M5 4.5L7 6.5L9 4.5" stroke="#000001" stroke-linecap="round" stroke-linejoin="round"/>
<path d="M7 6.5V0.5" stroke="#000001" stroke-linecap="round" stroke-linejoin="round"/>
<path d="M2.50001 4.62988C2.3474 4.71799 2.22079 4.84485 2.13299 4.99763C2.04518 5.15041 1.99931 5.32367 2.00001 5.49988V9.49988H12V5.49988C12.0007 5.32367 11.9548 5.15041 11.867 4.99763C11.7792 4.84485 11.6526 4.71799 11.5 4.62988" stroke="#000001" stroke-linecap="round" stroke-linejoin="round"/>
</g>
<defs>
<clipPath id="clip0_6_3901">
<rect width="14" height="14" fill="white"/>
</clipPath>
</defs>
</svg>
