<svg width="14" height="14" viewBox="0 0 14 14" fill="none" xmlns="http://www.w3.org/2000/svg">
<g clip-path="url(#clip0_6_2036)">
<path d="M4.2793 5.25024C4.35728 4.55305 4.5972 3.88375 4.97988 3.29578C5.36256 2.70781 5.87741 2.21746 6.48333 1.86387C7.08924 1.51028 7.76943 1.30326 8.46959 1.25932C9.16975 1.21539 9.87049 1.33576 10.5158 1.61083C11.1612 1.88591 11.7333 2.30806 12.1865 2.84358C12.6397 3.3791 12.9614 4.01316 13.1259 4.69513C13.2904 5.3771 13.2932 6.0881 13.1341 6.77135C12.9749 7.45459 12.6582 8.09117 12.2093 8.63024" stroke="#000001" stroke-linecap="round" stroke-linejoin="round"/>
<path d="M8.75 3.75V5.75H10.25" stroke="#000001" stroke-linecap="round" stroke-linejoin="round"/>
<path d="M0.75 7.75H4.75C5.0783 7.75 5.40339 7.81466 5.70671 7.9403C6.01002 8.06594 6.28562 8.25009 6.51777 8.48223C6.74991 8.71438 6.93406 8.98998 7.0597 9.29329C7.18534 9.59661 7.25 9.9217 7.25 10.25V10.25" stroke="#000001" stroke-linecap="round" stroke-linejoin="round"/>
<path d="M4.25 10.25H9.25C9.78043 10.25 10.2891 10.4607 10.6642 10.8358C11.0393 11.2109 11.25 11.7196 11.25 12.25C11.25 12.3826 11.1973 12.5098 11.1036 12.6036C11.0098 12.6973 10.8826 12.75 10.75 12.75H0.75" stroke="#000001" stroke-linecap="round" stroke-linejoin="round"/>
</g>
<defs>
<clipPath id="clip0_6_2036">
<rect width="14" height="14" fill="white"/>
</clipPath>
</defs>
</svg>
