<svg width="14" height="14" viewBox="0 0 14 14" fill="none" xmlns="http://www.w3.org/2000/svg">
<g clip-path="url(#clip0_6_1532)">
<path d="M8.5 9.5C8.76522 9.5 9.01957 9.39464 9.20711 9.20711C9.39464 9.01957 9.5 8.76522 9.5 8.5" stroke="#000001" stroke-linecap="round" stroke-linejoin="round"/>
<path d="M4.5 9.5H6" stroke="#000001" stroke-linecap="round" stroke-linejoin="round"/>
<path d="M9.5 4.5V6" stroke="#000001" stroke-linecap="round" stroke-linejoin="round"/>
<path d="M5.5 4.5C5.23478 4.5 4.98043 4.60536 4.79289 4.79289C4.60536 4.98043 4.5 5.23478 4.5 5.5" stroke="#000001" stroke-linecap="round" stroke-linejoin="round"/>
<path d="M0.5 1.5C0.5 1.23478 0.605357 0.98043 0.792893 0.792893C0.98043 0.605357 1.23478 0.5 1.5 0.5H8.5C8.76522 0.5 9.01957 0.605357 9.20711 0.792893C9.39464 0.98043 9.5 1.23478 9.5 1.5V4.5H12.5C12.7652 4.5 13.0196 4.60536 13.2071 4.79289C13.3946 4.98043 13.5 5.23478 13.5 5.5V12.5C13.5 12.7652 13.3946 13.0196 13.2071 13.2071C13.0196 13.3946 12.7652 13.5 12.5 13.5H5.5C5.23478 13.5 4.98043 13.3946 4.79289 13.2071C4.60536 13.0196 4.5 12.7652 4.5 12.5V9.5H1.5C1.23478 9.5 0.98043 9.39464 0.792893 9.20711C0.605357 9.01957 0.5 8.76522 0.5 8.5V1.5Z" stroke="#000001" stroke-linecap="round" stroke-linejoin="round"/>
<path d="M8 4.5H9.5" stroke="#000001" stroke-linecap="round" stroke-linejoin="round"/>
<path d="M4.5 8V9.5" stroke="#000001" stroke-linecap="round" stroke-linejoin="round"/>
</g>
<defs>
<clipPath id="clip0_6_1532">
<rect width="14" height="14" fill="white"/>
</clipPath>
</defs>
</svg>
