<svg width="15" height="14" viewBox="0 0 15 14" fill="none" xmlns="http://www.w3.org/2000/svg">
<g clip-path="url(#clip0_6_3259)">
<path d="M11.75 8.5C11.2092 8.50072 10.6831 8.67609 10.25 9C10.25 8.10999 9.98608 7.23996 9.49162 6.49994C8.99715 5.75991 8.29434 5.18314 7.47208 4.84254C6.64981 4.50195 5.74501 4.41283 4.8721 4.58647C3.99918 4.7601 3.19736 5.18868 2.56802 5.81802C1.93869 6.44736 1.5101 7.24918 1.33647 8.1221C1.16283 8.99501 1.25195 9.89981 1.59254 10.7221C1.93314 11.5443 2.50991 12.2471 3.24994 12.7416C3.98996 13.2361 4.85999 13.5 5.75 13.5H11.75C12.413 13.5 13.0489 13.2366 13.5178 12.7678C13.9866 12.2989 14.25 11.663 14.25 11C14.25 10.337 13.9866 9.70108 13.5178 9.23223C13.0489 8.76339 12.413 8.5 11.75 8.5Z" stroke="#000001" stroke-linecap="round" stroke-linejoin="round"/>
<path d="M12 5C13.2426 5 14.25 3.99264 14.25 2.75C14.25 1.50736 13.2426 0.5 12 0.5C10.7574 0.5 9.75 1.50736 9.75 2.75C9.75 3.99264 10.7574 5 12 5Z" stroke="#000001" stroke-linecap="round" stroke-linejoin="round"/>
</g>
<defs>
<clipPath id="clip0_6_3259">
<rect width="14" height="14" fill="white" transform="translate(0.75)"/>
</clipPath>
</defs>
</svg>
