<svg width="14" height="14" viewBox="0 0 14 14" fill="none" xmlns="http://www.w3.org/2000/svg">
<g clip-path="url(#clip0_6_3577)">
<path d="M12.5 0.5H1.5C1.23478 0.5 0.98043 0.605357 0.792893 0.792893C0.605357 0.98043 0.5 1.23478 0.5 1.5V10C0.5 10.2652 0.605357 10.5196 0.792893 10.7071C0.98043 10.8946 1.23478 11 1.5 11H3.5V13.5L6.62 11H12.5C12.7652 11 13.0196 10.8946 13.2071 10.7071C13.3946 10.5196 13.5 10.2652 13.5 10V1.5C13.5 1.23478 13.3946 0.98043 13.2071 0.792893C13.0196 0.605357 12.7652 0.5 12.5 0.5Z" stroke="#000001" stroke-linecap="round" stroke-linejoin="round"/>
<path d="M5.5 4.5C5.5 4.20333 5.58797 3.91332 5.7528 3.66665C5.91762 3.41997 6.15189 3.22771 6.42597 3.11418C6.70006 3.00065 7.00166 2.97094 7.29264 3.02882C7.58361 3.0867 7.85088 3.22956 8.06066 3.43934C8.27044 3.64912 8.4133 3.91639 8.47118 4.20737C8.52906 4.49834 8.49935 4.79994 8.38582 5.07403C8.27229 5.34811 8.08003 5.58238 7.83336 5.7472C7.58668 5.91203 7.29667 6 7 6V6.5" stroke="#000001" stroke-linecap="round" stroke-linejoin="round"/>
<path d="M7 9C6.86193 9 6.75 8.88807 6.75 8.75C6.75 8.61193 6.86193 8.5 7 8.5" stroke="#000001" stroke-linecap="round" stroke-linejoin="round"/>
<path d="M7 9C7.13807 9 7.25 8.88807 7.25 8.75C7.25 8.61193 7.13807 8.5 7 8.5" stroke="#000001" stroke-linecap="round" stroke-linejoin="round"/>
</g>
<defs>
<clipPath id="clip0_6_3577">
<rect width="14" height="14" fill="white"/>
</clipPath>
</defs>
</svg>
