<svg width="14" height="14" viewBox="0 0 14 14" fill="none" xmlns="http://www.w3.org/2000/svg">
<g clip-path="url(#clip0_6_3133)">
<path d="M10.5 7.99992C10.5023 7.37584 10.3377 6.7625 10.0233 6.22342C9.70888 5.68433 9.25603 5.23913 8.71168 4.93392C8.16732 4.62872 7.55126 4.47461 6.92732 4.48757C6.30338 4.50053 5.69425 4.68008 5.16303 5.00763C4.63182 5.33518 4.19785 5.7988 3.90607 6.35047C3.6143 6.90215 3.47534 7.5218 3.50359 8.14524C3.53184 8.76868 3.72626 9.37322 4.06673 9.89625C4.4072 10.4193 4.88132 10.8418 5.43998 11.1199V12.8399C5.44258 12.9416 5.48482 13.0383 5.55768 13.1092C5.63054 13.1802 5.72825 13.22 5.82998 13.2199H8.16998C8.2717 13.22 8.36941 13.1802 8.44227 13.1092C8.51513 13.0383 8.55737 12.9416 8.55998 12.8399V11.0899C9.13622 10.8031 9.62219 10.3629 9.96446 9.8177C10.3067 9.27255 10.492 8.64356 10.5 7.99992V7.99992Z" stroke="#000001" stroke-linecap="round" stroke-linejoin="round"/>
<path d="M7 0.810059V2.31006" stroke="#000001" stroke-linecap="round" stroke-linejoin="round"/>
<path d="M11.0014 2.24023L9.94141 3.31023" stroke="#000001" stroke-linecap="round" stroke-linejoin="round"/>
<path d="M13.2812 5.33984H11.7812" stroke="#000001" stroke-linecap="round" stroke-linejoin="round"/>
<path d="M3 2.24023L4.06 3.31023" stroke="#000001" stroke-linecap="round" stroke-linejoin="round"/>
<path d="M0.720703 5.33984H2.2207" stroke="#000001" stroke-linecap="round" stroke-linejoin="round"/>
</g>
<defs>
<clipPath id="clip0_6_3133">
<rect width="14" height="14" fill="white"/>
</clipPath>
</defs>
</svg>
