<svg width="14" height="14" viewBox="0 0 14 14" fill="none" xmlns="http://www.w3.org/2000/svg">
<g clip-path="url(#clip0_6_3166)">
<path d="M0.5 13.5L13.5 0.5" stroke="#000001" stroke-linecap="round" stroke-linejoin="round"/>
<path d="M4.84961 13.0001C5.53849 13.3748 6.31334 13.563 7.09736 13.546C7.88138 13.529 8.64735 13.3074 9.31935 12.9032C9.99135 12.499 10.5461 11.9262 10.9285 11.2415C11.3109 10.5569 11.5078 9.78422 11.4996 9.00006C11.4536 8.32816 11.2841 7.67051 10.9996 7.06006" stroke="#000001" stroke-linecap="round" stroke-linejoin="round"/>
<path d="M9.6 4.4C8.37 2.34 7 0.5 7 0.5C7 0.5 2.5 6.51 2.5 9C2.50669 9.69676 2.67802 10.3821 3 11" stroke="#000001" stroke-linecap="round" stroke-linejoin="round"/>
</g>
<defs>
<clipPath id="clip0_6_3166">
<rect width="14" height="14" fill="white"/>
</clipPath>
</defs>
</svg>
