<svg width="14" height="14" viewBox="0 0 14 14" fill="none" xmlns="http://www.w3.org/2000/svg">
<g clip-path="url(#clip0_6_4184)">
<path d="M7 0.5C8.13778 0.5 9.22896 0.951981 10.0335 1.75651C10.838 2.56104 11.29 3.65222 11.29 4.79C11.29 9.56 13.03 10.5 13.5 10.5H0.5C0.98 10.5 2.71 9.55 2.71 4.79C2.71 3.65222 3.16198 2.56104 3.96651 1.75651C4.77104 0.951981 5.86222 0.5 7 0.5V0.5Z" stroke="#000001" stroke-linecap="round" stroke-linejoin="round"/>
<path d="M5.5 12.3301C5.58644 12.6621 5.7806 12.9561 6.05205 13.1659C6.32351 13.3757 6.6569 13.4896 7 13.4896C7.3431 13.4896 7.67649 13.3757 7.94795 13.1659C8.2194 12.9561 8.41356 12.6621 8.5 12.3301" stroke="#000001" stroke-linecap="round" stroke-linejoin="round"/>
</g>
<defs>
<clipPath id="clip0_6_4184">
<rect width="14" height="14" fill="white"/>
</clipPath>
</defs>
</svg>
