<svg width="14" height="14" viewBox="0 0 14 14" fill="none" xmlns="http://www.w3.org/2000/svg">
<path d="M7 13.3903C7.65661 13.3903 8.30679 13.2609 8.91342 13.0097C9.52004 12.7584 10.0712 12.3901 10.5355 11.9258C10.9998 11.4615 11.3681 10.9103 11.6194 10.3037C11.8707 9.69706 12 9.04688 12 8.39027V5.61027C12.0001 4.38196 11.548 3.1966 10.73 2.28027" stroke="#000001" stroke-linecap="round" stroke-linejoin="round"/>
<path d="M2 6.72021V8.39022C1.99967 9.37451 2.28985 10.337 2.8342 11.1571C3.37854 11.9771 4.15282 12.6183 5.06 13.0002" stroke="#000001" stroke-linecap="round" stroke-linejoin="round"/>
<path d="M9.49961 1.28021C8.35122 0.617202 6.98648 0.437529 5.70562 0.780719C4.42475 1.12391 3.33267 1.96185 2.66961 3.11021C2.39659 3.58174 2.20396 4.09543 2.09961 4.63021" stroke="#000001" stroke-linecap="round" stroke-linejoin="round"/>
<path d="M6.48047 3.51041C6.84827 3.43405 7.22851 3.44122 7.59317 3.53139C7.95783 3.62156 8.2976 3.79242 8.58743 4.03139C8.87726 4.27035 9.10975 4.57132 9.26778 4.91211C9.4258 5.25289 9.50532 5.6248 9.50047 6.00041V7.61041" stroke="#000001" stroke-linecap="round" stroke-linejoin="round"/>
<path d="M8.86032 9.71C8.52007 10.089 8.07218 10.355 7.57659 10.4725C7.081 10.59 6.56135 10.5533 6.08719 10.3673C5.61303 10.1813 5.20698 9.85498 4.92339 9.43192C4.6398 9.00885 4.49219 8.50926 4.50032 8V6C4.49842 5.65655 4.56647 5.3163 4.70032 5" stroke="#000001" stroke-linecap="round" stroke-linejoin="round"/>
<path d="M7 6.11035V7.78035" stroke="#000001" stroke-linecap="round" stroke-linejoin="round"/>
</svg>
