<svg width="14" height="14" viewBox="0 0 14 14" fill="none" xmlns="http://www.w3.org/2000/svg">
<g clip-path="url(#clip0_6_3448)">
<path d="M4.5 0.5H1.5C0.947715 0.5 0.5 0.947715 0.5 1.5V4.5C0.5 5.05228 0.947715 5.5 1.5 5.5H4.5C5.05228 5.5 5.5 5.05228 5.5 4.5V1.5C5.5 0.947715 5.05228 0.5 4.5 0.5Z" stroke="#000001" stroke-linecap="round" stroke-linejoin="round"/>
<path d="M12.5 0.5H9.5C8.94772 0.5 8.5 0.947715 8.5 1.5V4.5C8.5 5.05228 8.94772 5.5 9.5 5.5H12.5C13.0523 5.5 13.5 5.05228 13.5 4.5V1.5C13.5 0.947715 13.0523 0.5 12.5 0.5Z" stroke="#000001" stroke-linecap="round" stroke-linejoin="round"/>
<path d="M4.5 8.5H1.5C0.947715 8.5 0.5 8.94772 0.5 9.5V12.5C0.5 13.0523 0.947715 13.5 1.5 13.5H4.5C5.05228 13.5 5.5 13.0523 5.5 12.5V9.5C5.5 8.94772 5.05228 8.5 4.5 8.5Z" stroke="#000001" stroke-linecap="round" stroke-linejoin="round"/>
<path d="M12.5 8.5H9.5C8.94772 8.5 8.5 8.94772 8.5 9.5V12.5C8.5 13.0523 8.94772 13.5 9.5 13.5H12.5C13.0523 13.5 13.5 13.0523 13.5 12.5V9.5C13.5 8.94772 13.0523 8.5 12.5 8.5Z" stroke="#000001" stroke-linecap="round" stroke-linejoin="round"/>
</g>
<defs>
<clipPath id="clip0_6_3448">
<rect width="14" height="14" fill="white"/>
</clipPath>
</defs>
</svg>
