<svg width="14" height="14" viewBox="0 0 14 14" fill="none" xmlns="http://www.w3.org/2000/svg">
<g clip-path="url(#clip0_6_3205)">
<path d="M3.25 11C3.11193 11 3 10.8881 3 10.75C3 10.6119 3.11193 10.5 3.25 10.5" stroke="#000001" stroke-linecap="round" stroke-linejoin="round"/>
<path d="M3.25 11C3.38807 11 3.5 10.8881 3.5 10.75C3.5 10.6119 3.38807 10.5 3.25 10.5" stroke="#000001" stroke-linecap="round" stroke-linejoin="round"/>
<path d="M7.25 11C7.11193 11 7 10.8881 7 10.75C7 10.6119 7.11193 10.5 7.25 10.5" stroke="#000001" stroke-linecap="round" stroke-linejoin="round"/>
<path d="M7.25 11C7.38807 11 7.5 10.8881 7.5 10.75C7.5 10.6119 7.38807 10.5 7.25 10.5" stroke="#000001" stroke-linecap="round" stroke-linejoin="round"/>
<path d="M10.75 11C10.6119 11 10.5 10.8881 10.5 10.75C10.5 10.6119 10.6119 10.5 10.75 10.5" stroke="#000001" stroke-linecap="round" stroke-linejoin="round"/>
<path d="M10.75 11C10.8881 11 11 10.8881 11 10.75C11 10.6119 10.8881 10.5 10.75 10.5" stroke="#000001" stroke-linecap="round" stroke-linejoin="round"/>
<path d="M12.75 13.5C12.6119 13.5 12.5 13.3881 12.5 13.25C12.5 13.1119 12.6119 13 12.75 13" stroke="#000001" stroke-linecap="round" stroke-linejoin="round"/>
<path d="M12.75 13.5C12.8881 13.5 13 13.3881 13 13.25C13 13.1119 12.8881 13 12.75 13" stroke="#000001" stroke-linecap="round" stroke-linejoin="round"/>
<path d="M9 13.5C8.86193 13.5 8.75 13.3881 8.75 13.25C8.75 13.1119 8.86193 13 9 13" stroke="#000001" stroke-linecap="round" stroke-linejoin="round"/>
<path d="M9 13.5C9.13807 13.5 9.25 13.3881 9.25 13.25C9.25 13.1119 9.13807 13 9 13" stroke="#000001" stroke-linecap="round" stroke-linejoin="round"/>
<path d="M5 13.5C4.86193 13.5 4.75 13.3881 4.75 13.25C4.75 13.1119 4.86193 13 5 13" stroke="#000001" stroke-linecap="round" stroke-linejoin="round"/>
<path d="M5 13.5C5.13807 13.5 5.25 13.3881 5.25 13.25C5.25 13.1119 5.13807 13 5 13" stroke="#000001" stroke-linecap="round" stroke-linejoin="round"/>
<path d="M1.25 13.5C1.11193 13.5 1 13.3881 1 13.25C1 13.1119 1.11193 13 1.25 13" stroke="#000001" stroke-linecap="round" stroke-linejoin="round"/>
<path d="M1.25 13.5C1.38807 13.5 1.5 13.3881 1.5 13.25C1.5 13.1119 1.38807 13 1.25 13" stroke="#000001" stroke-linecap="round" stroke-linejoin="round"/>
<path d="M10.9995 8.00014C11.3548 8.00119 11.7063 7.92648 12.0304 7.781C12.3546 7.63552 12.644 7.42261 12.8795 7.15647C13.1149 6.89033 13.2908 6.57706 13.3956 6.23756C13.5004 5.89806 13.5317 5.54011 13.4872 5.18759C13.4428 4.83506 13.3238 4.49606 13.138 4.19317C12.9522 3.89028 12.7041 3.63046 12.41 3.43104C12.1159 3.23162 11.7827 3.09718 11.4326 3.03667C11.0825 2.97616 10.7235 2.99098 10.3795 3.08014C10.1796 2.33656 9.74011 1.67965 9.12905 1.21116C8.518 0.742678 7.7695 0.48877 6.99952 0.48877C6.22954 0.48877 5.48105 0.742678 4.86999 1.21116C4.25893 1.67965 3.81941 2.33656 3.61952 3.08014C3.27558 2.99098 2.91658 2.97616 2.56646 3.03667C2.21633 3.09718 1.88313 3.23162 1.58906 3.43104C1.29498 3.63046 1.0468 3.89028 0.861042 4.19317C0.675286 4.49606 0.556228 4.83506 0.511804 5.18759C0.467381 5.54011 0.498612 5.89806 0.603415 6.23756C0.708219 6.57706 0.884188 6.89033 1.11959 7.15647C1.355 7.42261 1.64443 7.63552 1.96859 7.781C2.29276 7.92648 2.64421 8.00119 2.99952 8.00014H10.9995Z" stroke="#000001" stroke-linecap="round" stroke-linejoin="round"/>
</g>
<defs>
<clipPath id="clip0_6_3205">
<rect width="14" height="14" fill="white"/>
</clipPath>
</defs>
</svg>
