<svg width="14" height="14" viewBox="0 0 14 14" fill="none" xmlns="http://www.w3.org/2000/svg">
<g clip-path="url(#clip0_6_3484)">
<path d="M7 13.5V8.25C7 7.91848 7.1317 7.60054 7.36612 7.36612C7.60054 7.1317 7.91848 7 8.25 7V7C8.58152 7 8.89946 7.1317 9.13388 7.36612C9.3683 7.60054 9.5 7.91848 9.5 8.25V11H11.5C12.0304 11 12.5391 11.2107 12.9142 11.5858C13.2893 11.9609 13.5 12.4696 13.5 13V13.5" stroke="#000001" stroke-linecap="round" stroke-linejoin="round"/>
<path d="M1 1.5C1.27614 1.5 1.5 1.27614 1.5 1C1.5 0.723858 1.27614 0.5 1 0.5C0.723858 0.5 0.5 0.723858 0.5 1C0.5 1.27614 0.723858 1.5 1 1.5Z" stroke="#000001" stroke-linecap="round" stroke-linejoin="round"/>
<path d="M5 1.5C5.27614 1.5 5.5 1.27614 5.5 1C5.5 0.723858 5.27614 0.5 5 0.5C4.72386 0.5 4.5 0.723858 4.5 1C4.5 1.27614 4.72386 1.5 5 1.5Z" stroke="#000001" stroke-linecap="round" stroke-linejoin="round"/>
<path d="M9 1.5C9.27614 1.5 9.5 1.27614 9.5 1C9.5 0.723858 9.27614 0.5 9 0.5C8.72386 0.5 8.5 0.723858 8.5 1C8.5 1.27614 8.72386 1.5 9 1.5Z" stroke="#000001" stroke-linecap="round" stroke-linejoin="round"/>
<path d="M1 5C1.27614 5 1.5 4.77614 1.5 4.5C1.5 4.22386 1.27614 4 1 4C0.723858 4 0.5 4.22386 0.5 4.5C0.5 4.77614 0.723858 5 1 5Z" stroke="#000001" stroke-linecap="round" stroke-linejoin="round"/>
<path d="M5 5C5.27614 5 5.5 4.77614 5.5 4.5C5.5 4.22386 5.27614 4 5 4C4.72386 4 4.5 4.22386 4.5 4.5C4.5 4.77614 4.72386 5 5 5Z" stroke="#000001" stroke-linecap="round" stroke-linejoin="round"/>
<path d="M9 5C9.27614 5 9.5 4.77614 9.5 4.5C9.5 4.22386 9.27614 4 9 4C8.72386 4 8.5 4.22386 8.5 4.5C8.5 4.77614 8.72386 5 9 5Z" stroke="#000001" stroke-linecap="round" stroke-linejoin="round"/>
<path d="M1 8.5C1.27614 8.5 1.5 8.27614 1.5 8C1.5 7.72386 1.27614 7.5 1 7.5C0.723858 7.5 0.5 7.72386 0.5 8C0.5 8.27614 0.723858 8.5 1 8.5Z" stroke="#000001" stroke-linecap="round" stroke-linejoin="round"/>
<path d="M5 8.5C4.86739 8.5 4.74021 8.44732 4.64645 8.35355C4.55268 8.25979 4.5 8.13261 4.5 8C4.5 7.86739 4.55268 7.74021 4.64645 7.64645C4.74021 7.55268 4.86739 7.5 5 7.5V8.5Z" stroke="#000001" stroke-linecap="round" stroke-linejoin="round"/>
</g>
<defs>
<clipPath id="clip0_6_3484">
<rect width="14" height="14" fill="white"/>
</clipPath>
</defs>
</svg>
