<svg width="14" height="14" viewBox="0 0 14 14" fill="none" xmlns="http://www.w3.org/2000/svg">
<g clip-path="url(#clip0_6_2492)">
<path d="M3 7.5H11" stroke="#000001" stroke-linecap="round" stroke-linejoin="round"/>
<path d="M7 5.5V7.5" stroke="#000001" stroke-linecap="round" stroke-linejoin="round"/>
<path d="M4.5 7.5C4.5 9.82 6.66 11.78 9.5 13.5" stroke="#000001" stroke-linecap="round" stroke-linejoin="round"/>
<path d="M9.5 7.5C9.55 9.82 7.34 11.78 4.5 13.5" stroke="#000001" stroke-linecap="round" stroke-linejoin="round"/>
<path d="M0.5 4C0.5 3.07174 0.868749 2.1815 1.52513 1.52513C2.1815 0.868749 3.07174 0.5 4 0.5" stroke="#000001" stroke-linecap="round" stroke-linejoin="round"/>
<path d="M0.5 4C0.5 3.07174 0.868749 2.1815 1.52513 1.52513C2.1815 0.868749 3.07174 0.5 4 0.5" stroke="#000001" stroke-linecap="round" stroke-linejoin="round"/>
<path d="M3 4C3 3.73478 3.10536 3.48043 3.29289 3.29289C3.48043 3.10536 3.73478 3 4 3" stroke="#000001" stroke-linecap="round" stroke-linejoin="round"/>
<path d="M3 4C3 3.73478 3.10536 3.48043 3.29289 3.29289C3.48043 3.10536 3.73478 3 4 3" stroke="#000001" stroke-linecap="round" stroke-linejoin="round"/>
<path d="M10 0.5C10.9283 0.5 11.8185 0.868749 12.4749 1.52513C13.1313 2.1815 13.5 3.07174 13.5 4" stroke="#000001" stroke-linecap="round" stroke-linejoin="round"/>
<path d="M10 0.5C10.9283 0.5 11.8185 0.868749 12.4749 1.52513C13.1313 2.1815 13.5 3.07174 13.5 4" stroke="#000001" stroke-linecap="round" stroke-linejoin="round"/>
<path d="M10 3C10.2652 3 10.5196 3.10536 10.7071 3.29289C10.8946 3.48043 11 3.73478 11 4" stroke="#000001" stroke-linecap="round" stroke-linejoin="round"/>
<path d="M10 3C10.2652 3 10.5196 3.10536 10.7071 3.29289C10.8946 3.48043 11 3.73478 11 4" stroke="#000001" stroke-linecap="round" stroke-linejoin="round"/>
</g>
<defs>
<clipPath id="clip0_6_2492">
<rect width="14" height="14" fill="white"/>
</clipPath>
</defs>
</svg>
