<svg width="15" height="14" viewBox="0 0 15 14" fill="none" xmlns="http://www.w3.org/2000/svg">
<g clip-path="url(#clip0_6_1244)">
<path d="M6.64953 12.0598C5.11953 13.5998 2.51953 14.1098 1.01953 12.5698C3.01953 10.4998 1.01953 9.49983 2.51953 7.99983C2.78292 7.70644 3.10336 7.46983 3.46129 7.30448C3.81921 7.13912 4.2071 7.04849 4.60123 7.03811C4.99537 7.02774 5.38749 7.09785 5.75361 7.24415C6.11974 7.39045 6.45219 7.60987 6.73064 7.88901C7.00909 8.16814 7.2277 8.50112 7.37311 8.86761C7.51852 9.23409 7.58767 9.62637 7.57633 10.0205C7.565 10.4146 7.47341 10.8023 7.30718 11.1598C7.14095 11.5173 6.90357 11.8372 6.60953 12.0998L6.64953 12.0598Z" stroke="#000001" stroke-linecap="round" stroke-linejoin="round"/>
<path d="M13.4387 1.07977C13.2447 0.88707 13.0133 0.736179 12.7588 0.636421C12.5042 0.536663 12.2319 0.490156 11.9587 0.499773C11.6856 0.507195 11.417 0.570473 11.1693 0.685704C10.9217 0.800936 10.7002 0.965678 10.5187 1.16977L5.13867 7.16977C5.71559 7.28401 6.24303 7.57393 6.64867 7.99977C7.01351 8.36312 7.27868 8.81426 7.41867 9.30977L13.3487 3.99977C13.5516 3.81937 13.7156 3.59955 13.8308 3.3537C13.946 3.10785 14.0099 2.84113 14.0187 2.56977C14.0297 2.29488 13.9838 2.02067 13.884 1.76429C13.7842 1.50791 13.6326 1.27488 13.4387 1.07977V1.07977Z" stroke="#000001" stroke-linecap="round" stroke-linejoin="round"/>
</g>
<defs>
<clipPath id="clip0_6_1244">
<rect width="14" height="14" fill="white" transform="translate(0.519531)"/>
</clipPath>
</defs>
</svg>
