<svg width="15" height="14" viewBox="0 0 15 14" fill="none" xmlns="http://www.w3.org/2000/svg">
<g clip-path="url(#clip0_6_1994)">
<path d="M2.5 6C3.32843 6 4 5.32843 4 4.5C4 3.67157 3.32843 3 2.5 3C1.67157 3 1 3.67157 1 4.5C1 5.32843 1.67157 6 2.5 6Z" stroke="#000001" stroke-linecap="round" stroke-linejoin="round"/>
<path d="M2.5 6V13.5" stroke="#000001" stroke-linecap="round" stroke-linejoin="round"/>
<path d="M2.5 0.5V3" stroke="#000001" stroke-linecap="round" stroke-linejoin="round"/>
<path d="M12.5 6C13.3284 6 14 5.32843 14 4.5C14 3.67157 13.3284 3 12.5 3C11.6716 3 11 3.67157 11 4.5C11 5.32843 11.6716 6 12.5 6Z" stroke="#000001" stroke-linecap="round" stroke-linejoin="round"/>
<path d="M12.5 3V0.5" stroke="#000001" stroke-linecap="round" stroke-linejoin="round"/>
<path d="M12.5 13.5V6" stroke="#000001" stroke-linecap="round" stroke-linejoin="round"/>
<path d="M7.5 8.5C8.32843 8.5 9 7.82843 9 7C9 6.17157 8.32843 5.5 7.5 5.5C6.67157 5.5 6 6.17157 6 7C6 7.82843 6.67157 8.5 7.5 8.5Z" stroke="#000001" stroke-linecap="round" stroke-linejoin="round"/>
<path d="M7.5 0.5V5.5" stroke="#000001" stroke-linecap="round" stroke-linejoin="round"/>
<path d="M7.5 8.5V13.5" stroke="#000001" stroke-linecap="round" stroke-linejoin="round"/>
</g>
<defs>
<clipPath id="clip0_6_1994">
<rect width="14" height="14" fill="white" transform="translate(0.5)"/>
</clipPath>
</defs>
</svg>
