<svg width="14" height="14" viewBox="0 0 14 14" fill="none" xmlns="http://www.w3.org/2000/svg">
<g clip-path="url(#clip0_6_1879)">
<path d="M7.45964 1.99997C7.40961 1.92363 7.34136 1.86094 7.26106 1.81756C7.18076 1.77418 7.09092 1.75146 6.99964 1.75146C6.90837 1.75146 6.81853 1.77418 6.73823 1.81756C6.65792 1.86094 6.58968 1.92363 6.53964 1.99997L0.539644 11.5C0.495759 11.576 0.472656 11.6622 0.472656 11.75C0.472656 11.8377 0.495759 11.924 0.539644 12C0.588826 12.0772 0.65685 12.1407 0.73732 12.1844C0.81779 12.2282 0.908061 12.2507 0.999644 12.25H12.9996C13.0912 12.2507 13.1815 12.2282 13.262 12.1844C13.3424 12.1407 13.4105 12.0772 13.4596 12C13.5035 11.924 13.5266 11.8377 13.5266 11.75C13.5266 11.6622 13.5035 11.576 13.4596 11.5L7.45964 1.99997Z" stroke="#000001" stroke-linecap="round" stroke-linejoin="round"/>
</g>
<defs>
<clipPath id="clip0_6_1879">
<rect width="14" height="14" fill="white"/>
</clipPath>
</defs>
</svg>
