<svg width="14" height="14" viewBox="0 0 14 14" fill="none" xmlns="http://www.w3.org/2000/svg">
<g clip-path="url(#clip0_6_2651)">
<path d="M0.5 11L3 13.5V2.5C3 1.96957 3.21071 1.46086 3.58579 1.08579C3.96086 0.710714 4.46957 0.5 5 0.5C5.53043 0.5 6.03914 0.710714 6.41421 1.08579C6.78929 1.46086 7 1.96957 7 2.5V11.5C7 12.0304 7.21071 12.5391 7.58579 12.9142C7.96086 13.2893 8.46957 13.5 9 13.5C9.53043 13.5 10.0391 13.2893 10.4142 12.9142C10.7893 12.5391 11 12.0304 11 11.5V0.5L13.5 3" stroke="#000001" stroke-linecap="round" stroke-linejoin="round"/>
</g>
<defs>
<clipPath id="clip0_6_2651">
<rect width="14" height="14" fill="white"/>
</clipPath>
</defs>
</svg>
