<svg width="14" height="14" viewBox="0 0 14 14" fill="none" xmlns="http://www.w3.org/2000/svg">
<g clip-path="url(#clip0_6_2372)">
<path d="M13.5 1H8" stroke="#000001" stroke-linecap="round" stroke-linejoin="round"/>
<path d="M13.5 4H8" stroke="#000001" stroke-linecap="round" stroke-linejoin="round"/>
<path d="M13.5 7H8" stroke="#000001" stroke-linecap="round" stroke-linejoin="round"/>
<path d="M13.5 13H8" stroke="#000001" stroke-linecap="round" stroke-linejoin="round"/>
<path d="M13.5 10H8" stroke="#000001" stroke-linecap="round" stroke-linejoin="round"/>
<path d="M0.5 1.5L0.5 5.5C0.5 5.77614 0.723858 6 1 6H5C5.27614 6 5.5 5.77614 5.5 5.5V1.5C5.5 1.22386 5.27614 1 5 1H1C0.723858 1 0.5 1.22386 0.5 1.5Z" stroke="#000001" stroke-linecap="round" stroke-linejoin="round"/>
<path d="M0.5 8.5L0.5 12.5C0.5 12.7761 0.723858 13 1 13H5C5.27614 13 5.5 12.7761 5.5 12.5V8.5C5.5 8.22386 5.27614 8 5 8H1C0.723858 8 0.5 8.22386 0.5 8.5Z" stroke="#000001" stroke-linecap="round" stroke-linejoin="round"/>
</g>
<defs>
<clipPath id="clip0_6_2372">
<rect width="14" height="14" fill="white"/>
</clipPath>
</defs>
</svg>
