<svg width="14" height="14" viewBox="0 0 14 14" fill="none" xmlns="http://www.w3.org/2000/svg">
<g clip-path="url(#clip0_6_3381)">
<path d="M7 9.5C8.38071 9.5 9.5 8.38071 9.5 7C9.5 5.61929 8.38071 4.5 7 4.5C5.61929 4.5 4.5 5.61929 4.5 7C4.5 8.38071 5.61929 9.5 7 9.5Z" stroke="#000001" stroke-linecap="round" stroke-linejoin="round"/>
<path d="M2.73047 13.3996C3.17671 12.6671 3.80388 12.0618 4.55168 11.6417C5.29947 11.2216 6.14276 11.001 7.00047 11.001C7.85818 11.001 8.70146 11.2216 9.44926 11.6417C10.1971 12.0618 10.8242 12.6671 11.2705 13.3996" stroke="#000001" stroke-linecap="round" stroke-linejoin="round"/>
<path d="M13.5 6.94C13.501 6.8012 13.473 6.66372 13.4179 6.53632C13.3628 6.40892 13.2818 6.29438 13.18 6.2L7.00002 0.5L0.820023 6.2C0.718248 6.29438 0.637236 6.40892 0.582143 6.53632C0.52705 6.66372 0.499084 6.8012 0.500023 6.94V12.5C0.500023 12.7652 0.60538 13.0196 0.792916 13.2071C0.980452 13.3946 1.23481 13.5 1.50002 13.5H12.5C12.7652 13.5 13.0196 13.3946 13.2071 13.2071C13.3947 13.0196 13.5 12.7652 13.5 12.5V6.94Z" stroke="#000001" stroke-linecap="round" stroke-linejoin="round"/>
</g>
<defs>
<clipPath id="clip0_6_3381">
<rect width="14" height="14" fill="white"/>
</clipPath>
</defs>
</svg>
