<svg width="15" height="14" viewBox="0 0 15 14" fill="none" xmlns="http://www.w3.org/2000/svg">
<g clip-path="url(#clip0_6_1569)">
<path d="M10.2496 7.64998L13.5196 5.53998C13.647 5.46273 13.7555 5.358 13.8372 5.23345C13.9189 5.10889 13.9717 4.96766 13.9919 4.82006C14.012 4.67246 13.9989 4.52224 13.9535 4.38035C13.9081 4.23847 13.8316 4.10851 13.7296 3.99998L10.5196 0.789981C10.4111 0.687946 10.2811 0.611447 10.1392 0.566074C9.99736 0.5207 9.84713 0.507598 9.69953 0.527725C9.55193 0.547851 9.4107 0.600699 9.28614 0.682405C9.16159 0.764111 9.05686 0.872613 8.97961 0.999981L6.81961 4.22998L2.32961 5.22998C2.22693 5.2549 2.13265 5.30648 2.05631 5.37952C1.97997 5.45256 1.92426 5.54447 1.89484 5.64595C1.86541 5.74742 1.8633 5.85487 1.88872 5.95742C1.91414 6.05998 1.96619 6.154 2.03961 6.22998L8.18961 12.39C8.26746 12.4604 8.36217 12.5096 8.46458 12.5327C8.567 12.5558 8.67364 12.5521 8.77421 12.522C8.87477 12.4918 8.96584 12.4362 9.03862 12.3605C9.11139 12.2848 9.1634 12.1916 9.18961 12.09L10.2496 7.64998Z" stroke="#000001" stroke-linecap="round" stroke-linejoin="round"/>
<path d="M5.10953 9.37988L1.01953 13.4999" stroke="#000001" stroke-linecap="round" stroke-linejoin="round"/>
</g>
<defs>
<clipPath id="clip0_6_1569">
<rect width="14" height="14" fill="white" transform="translate(0.519531)"/>
</clipPath>
</defs>
</svg>
