<svg width="14" height="14" viewBox="0 0 14 14" fill="none" xmlns="http://www.w3.org/2000/svg">
<g clip-path="url(#clip0_6_1266)">
<path d="M4.5 13C6.70914 13 8.5 11.2091 8.5 9C8.5 6.79086 6.70914 5 4.5 5C2.29086 5 0.5 6.79086 0.5 9C0.5 11.2091 2.29086 13 4.5 13Z" stroke="#000001" stroke-linecap="round" stroke-linejoin="round"/>
<path d="M9.5 13C11.7091 13 13.5 11.2091 13.5 9C13.5 6.79086 11.7091 5 9.5 5C7.29086 5 5.5 6.79086 5.5 9C5.5 11.2091 7.29086 13 9.5 13Z" stroke="#000001" stroke-linecap="round" stroke-linejoin="round"/>
<path d="M7 9C9.20914 9 11 7.20914 11 5C11 2.79086 9.20914 1 7 1C4.79086 1 3 2.79086 3 5C3 7.20914 4.79086 9 7 9Z" stroke="#000001" stroke-linecap="round" stroke-linejoin="round"/>
</g>
<defs>
<clipPath id="clip0_6_1266">
<rect width="14" height="14" fill="white"/>
</clipPath>
</defs>
</svg>
