<svg width="15" height="14" viewBox="0 0 15 14" fill="none" xmlns="http://www.w3.org/2000/svg">
<g clip-path="url(#clip0_6_1416)">
<path d="M14.0195 2.5V1.5C14.0195 1.23478 13.9142 0.98043 13.7266 0.792893C13.5391 0.605357 13.2847 0.5 13.0195 0.5H12.0195" stroke="#000001" stroke-linecap="round" stroke-linejoin="round"/>
<path d="M9.01953 0.5H6.01953" stroke="#000001" stroke-linecap="round" stroke-linejoin="round"/>
<path d="M1.01953 2.5V1.5C1.01953 1.23478 1.12489 0.98043 1.31242 0.792893C1.49996 0.605357 1.75431 0.5 2.01953 0.5H3.01953" stroke="#000001" stroke-linecap="round" stroke-linejoin="round"/>
<path d="M1.01953 9.5V12.5C1.01953 12.7652 1.12489 13.0196 1.31242 13.2071C1.49996 13.3946 1.75431 13.5 2.01953 13.5H13.0195C13.2847 13.5 13.5391 13.3946 13.7266 13.2071C13.9142 13.0196 14.0195 12.7652 14.0195 12.5V9.5" stroke="#000001" stroke-linecap="round" stroke-linejoin="round"/>
<path d="M1.01953 5.5V7H14.0195V5.5" stroke="#000001" stroke-linecap="round" stroke-linejoin="round"/>
</g>
<defs>
<clipPath id="clip0_6_1416">
<rect width="14" height="14" fill="white" transform="translate(0.519531)"/>
</clipPath>
</defs>
</svg>
