<svg width="15" height="14" viewBox="0 0 15 14" fill="none" xmlns="http://www.w3.org/2000/svg">
<path d="M5.72919 2.25L6.15919 1.14C6.23171 0.952064 6.35929 0.790411 6.52524 0.676212C6.69118 0.562014 6.88775 0.500595 7.08919 0.5H7.90919C8.11063 0.500595 8.30719 0.562014 8.47314 0.676212C8.63908 0.790411 8.76667 0.952064 8.83919 1.14L9.26919 2.25L10.7292 3.09L11.9092 2.91C12.1057 2.88333 12.3056 2.91567 12.4837 3.00292C12.6618 3.09017 12.8099 3.22838 12.9092 3.4L13.3092 4.1C13.4117 4.27435 13.4589 4.47568 13.4446 4.67742C13.4303 4.87916 13.3552 5.07183 13.2292 5.23L12.4992 6.16V7.84L13.2492 8.77C13.3752 8.92817 13.4503 9.12084 13.4646 9.32258C13.4789 9.52432 13.4317 9.72565 13.3292 9.9L12.9292 10.6C12.8299 10.7716 12.6818 10.9098 12.5037 10.9971C12.3256 11.0843 12.1257 11.1167 11.9292 11.09L10.7492 10.91L9.28919 11.75L8.85919 12.86C8.78667 13.0479 8.65908 13.2096 8.49314 13.3238C8.32719 13.438 8.13063 13.4994 7.92919 13.5H7.08919C6.88775 13.4994 6.69118 13.438 6.52524 13.3238C6.35929 13.2096 6.23171 13.0479 6.15919 12.86L5.72919 11.75L4.26919 10.91L3.08919 11.09C2.8927 11.1167 2.69273 11.0843 2.51467 10.9971C2.33661 10.9098 2.18851 10.7716 2.08919 10.6L1.68919 9.9C1.58669 9.72565 1.53946 9.52432 1.55375 9.32258C1.56803 9.12084 1.64315 8.92817 1.76919 8.77L2.49919 7.84V6.16L1.74919 5.23C1.62315 5.07183 1.54803 4.87916 1.53375 4.67742C1.51946 4.47568 1.56669 4.27435 1.66919 4.1L2.06919 3.4C2.16851 3.22838 2.31661 3.09017 2.49467 3.00292C2.67273 2.91567 2.8727 2.88333 3.06919 2.91L4.24919 3.09L5.72919 2.25ZM5.49919 7C5.49919 7.39556 5.61649 7.78224 5.83625 8.11114C6.05601 8.44004 6.36837 8.69638 6.73382 8.84776C7.09927 8.99913 7.50141 9.03874 7.88937 8.96157C8.27733 8.8844 8.6337 8.69392 8.9134 8.41421C9.19311 8.13451 9.38359 7.77814 9.46076 7.39018C9.53793 7.00222 9.49832 6.60009 9.34695 6.23463C9.19557 5.86918 8.93923 5.55682 8.61033 5.33706C8.28143 5.1173 7.89475 5 7.49919 5C6.96875 5 6.46005 5.21071 6.08497 5.58579C5.7099 5.96086 5.49919 6.46957 5.49919 7V7Z" stroke="#000001" stroke-linecap="round" stroke-linejoin="round"/>
</svg>
