<svg width="14" height="14" viewBox="0 0 14 14" fill="none" xmlns="http://www.w3.org/2000/svg">
<g clip-path="url(#clip0_6_1329)">
<path d="M0.5 7H13.5C13.5 8.72391 12.8152 10.3772 11.5962 11.5962C10.3772 12.8152 8.72391 13.5 7 13.5C5.27609 13.5 3.62279 12.8152 2.40381 11.5962C1.18482 10.3772 0.5 8.72391 0.5 7V7Z" stroke="#000001" stroke-linecap="round" stroke-linejoin="round"/>
<path d="M13.0002 4.39C12.8013 3.92708 12.546 3.49045 12.2402 3.09C11.9506 2.68889 11.615 2.32307 11.2402 2" stroke="#000001" stroke-linecap="round" stroke-linejoin="round"/>
<path d="M1.05078 4.39C1.24972 3.92708 1.50498 3.49045 1.81078 3.09C2.11289 2.68662 2.46202 2.32071 2.85078 2" stroke="#000001" stroke-linecap="round" stroke-linejoin="round"/>
<path d="M8.5 0.670069C7.51285 0.44331 6.48715 0.44331 5.5 0.670069" stroke="#000001" stroke-linecap="round" stroke-linejoin="round"/>
</g>
<defs>
<clipPath id="clip0_6_1329">
<rect width="14" height="14" fill="white"/>
</clipPath>
</defs>
</svg>
