<svg width="14" height="14" viewBox="0 0 14 14" fill="none" xmlns="http://www.w3.org/2000/svg">
<path d="M9.5 0.5H4.5C3.94772 0.5 3.5 0.947715 3.5 1.5V3.5C3.5 4.05228 3.94772 4.5 4.5 4.5H9.5C10.0523 4.5 10.5 4.05228 10.5 3.5V1.5C10.5 0.947715 10.0523 0.5 9.5 0.5Z" stroke="#000001" stroke-linecap="round" stroke-linejoin="round"/>
<path d="M11.5 9.5H2.5C1.94772 9.5 1.5 9.94772 1.5 10.5V12.5C1.5 13.0523 1.94772 13.5 2.5 13.5H11.5C12.0523 13.5 12.5 13.0523 12.5 12.5V10.5C12.5 9.94772 12.0523 9.5 11.5 9.5Z" stroke="#000001" stroke-linecap="round" stroke-linejoin="round"/>
<path d="M7 4.5V9.5" stroke="#000001" stroke-linecap="round" stroke-linejoin="round"/>
</svg>
