<svg width="14" height="14" viewBox="0 0 14 14" fill="none" xmlns="http://www.w3.org/2000/svg">
<path d="M5 5H1C0.723858 5 0.5 5.22386 0.5 5.5V8.5C0.5 8.77614 0.723858 9 1 9H5C5.27614 9 5.5 8.77614 5.5 8.5V5.5C5.5 5.22386 5.27614 5 5 5Z" stroke="#000001" stroke-linecap="round" stroke-linejoin="round"/>
<path d="M10.5 5H8.5C8.22386 5 8 5.22386 8 5.5V8.5C8 8.77614 8.22386 9 8.5 9H10.5C10.7761 9 11 8.77614 11 8.5V5.5C11 5.22386 10.7761 5 10.5 5Z" stroke="#000001" stroke-linecap="round" stroke-linejoin="round"/>
<path d="M13.5 5V9" stroke="#000001" stroke-linecap="round" stroke-linejoin="round"/>
</svg>
