<svg width="14" height="14" viewBox="0 0 14 14" fill="none" xmlns="http://www.w3.org/2000/svg">
<path d="M8 12.5C7.99948 12.6705 7.9554 12.838 7.87194 12.9866C7.78847 13.1352 7.6684 13.2601 7.52312 13.3492C7.37784 13.4384 7.21217 13.489 7.04186 13.4961C6.87154 13.5032 6.70223 13.4667 6.55 13.39L2.55 11.39C2.38509 11.3069 2.2464 11.1798 2.14932 11.0227C2.05224 10.8656 2.00056 10.6847 2 10.5V0.5L7.45 3.22C7.61644 3.30386 7.75612 3.43257 7.85331 3.59159C7.95049 3.75062 8.0013 3.93364 8 4.12V12.5Z" stroke="#000001" stroke-linecap="round" stroke-linejoin="round"/>
<path d="M2 0.5H11C11.2652 0.5 11.5196 0.605357 11.7071 0.792893C11.8946 0.98043 12 1.23478 12 1.5V10.5C12 10.7652 11.8946 11.0196 11.7071 11.2071C11.5196 11.3946 11.2652 11.5 11 11.5H8" stroke="#000001" stroke-linecap="round" stroke-linejoin="round"/>
</svg>
