<svg width="15" height="14" viewBox="0 0 15 14" fill="none" xmlns="http://www.w3.org/2000/svg">
<g clip-path="url(#clip0_6_1494)">
<path d="M9.01953 5C9.57182 5 10.0195 4.55228 10.0195 4C10.0195 3.44772 9.57182 3 9.01953 3C8.46725 3 8.01953 3.44772 8.01953 4C8.01953 4.55228 8.46725 5 9.01953 5Z" stroke="#000001" stroke-linecap="round" stroke-linejoin="round"/>
<path d="M5.01953 10C5.29567 10 5.51953 9.77614 5.51953 9.5C5.51953 9.22386 5.29567 9 5.01953 9C4.74339 9 4.51953 9.22386 4.51953 9.5C4.51953 9.77614 4.74339 10 5.01953 10Z" stroke="#000001" stroke-linecap="round" stroke-linejoin="round"/>
<path d="M5.01953 6.5C5.57182 6.5 6.01953 6.05228 6.01953 5.5C6.01953 4.94772 5.57182 4.5 5.01953 4.5C4.46725 4.5 4.01953 4.94772 4.01953 5.5C4.01953 6.05228 4.46725 6.5 5.01953 6.5Z" stroke="#000001" stroke-linecap="round" stroke-linejoin="round"/>
<path d="M10.0394 12.28C10.0283 12.086 9.96087 11.8995 9.84544 11.7432C9.73 11.587 9.57154 11.4677 9.38943 11.4C8.93713 11.2513 8.5527 10.9462 8.30525 10.5395C8.05781 10.1327 7.96357 9.65106 8.0395 9.18105C8.11542 8.71105 8.35652 8.28354 8.71945 7.9754C9.08238 7.66726 9.54333 7.49869 10.0194 7.5H11.8894C12.2102 7.5009 12.5264 7.42464 12.8115 7.27767C13.0965 7.1307 13.3421 6.91732 13.5274 6.65554C13.7127 6.39375 13.8323 6.09124 13.8762 5.77353C13.9201 5.45581 13.8869 5.1322 13.7794 4.83C13.3817 3.70697 12.6829 2.71485 11.7595 1.96205C10.8361 1.20924 9.72358 0.724704 8.54345 0.561374C7.36331 0.398044 6.16099 0.562205 5.06783 1.03592C3.97467 1.50964 3.03274 2.27468 2.34494 3.24748C1.65714 4.22027 1.24993 5.36339 1.16781 6.55194C1.08568 7.74049 1.3318 8.92875 1.87927 9.9869C2.42673 11.045 3.25449 11.9324 4.27211 12.5519C5.28972 13.1715 6.45804 13.4995 7.64943 13.5C8.23779 13.5016 8.82348 13.4209 9.38943 13.26C9.59729 13.2018 9.7773 13.0707 9.89662 12.8908C10.0159 12.7109 10.0666 12.4942 10.0394 12.28V12.28Z" stroke="#000001" stroke-linecap="round" stroke-linejoin="round"/>
</g>
<defs>
<clipPath id="clip0_6_1494">
<rect width="14" height="14" fill="white" transform="translate(0.519531)"/>
</clipPath>
</defs>
</svg>
