<svg width="14" height="14" viewBox="0 0 14 14" fill="none" xmlns="http://www.w3.org/2000/svg">
<g clip-path="url(#clip0_6_2434)">
<path d="M10.0806 8.66992C10.3227 8.95231 10.5046 9.2812 10.615 9.63641C10.7255 9.99162 10.7621 10.3656 10.7228 10.7355C10.6835 11.1054 10.569 11.4634 10.3863 11.7874C10.2037 12.1115 9.95671 12.3948 9.66062 12.6199C8.8756 13.1557 7.95553 13.4596 7.00581 13.4968C6.05608 13.5339 5.1151 13.3028 4.29062 12.8299L3.39062 12.3199" stroke="#000001" stroke-linecap="round" stroke-linejoin="round"/>
<path d="M10.0006 1.32032C8.00057 0.330317 4.23057 -0.259683 3.38057 2.54032C3.25806 2.95067 3.24434 3.38582 3.34077 3.80307C3.43719 4.22032 3.64044 4.60533 3.93057 4.92032C4.72766 5.54296 5.60149 6.06054 6.53057 6.46032" stroke="#000001" stroke-linecap="round" stroke-linejoin="round"/>
<path d="M0.5 6.5H13.5" stroke="#000001" stroke-linecap="round" stroke-linejoin="round"/>
</g>
<defs>
<clipPath id="clip0_6_2434">
<rect width="14" height="14" fill="white"/>
</clipPath>
</defs>
</svg>
