<svg width="14" height="14" viewBox="0 0 14 14" fill="none" xmlns="http://www.w3.org/2000/svg">
<g clip-path="url(#clip0_6_3755)">
<path d="M11.5 0.5H12.5C12.7652 0.5 13.0196 0.605357 13.2071 0.792893C13.3946 0.98043 13.5 1.23478 13.5 1.5V2.5" stroke="#000001" stroke-linecap="round" stroke-linejoin="round"/>
<path d="M0.5 2.5V1.5C0.5 1.23478 0.605357 0.98043 0.792893 0.792893C0.98043 0.605357 1.23478 0.5 1.5 0.5H2.5" stroke="#000001" stroke-linecap="round" stroke-linejoin="round"/>
<path d="M5.5 0.5H8.5" stroke="#000001" stroke-linecap="round" stroke-linejoin="round"/>
<path d="M13.5 5.5V8.5" stroke="#000001" stroke-linecap="round" stroke-linejoin="round"/>
<path d="M0.5 5.5V8.5" stroke="#000001" stroke-linecap="round" stroke-linejoin="round"/>
<path d="M7 5.5V8.5" stroke="#000001" stroke-linecap="round" stroke-linejoin="round"/>
<path d="M8.5 7H5.5" stroke="#000001" stroke-linecap="round" stroke-linejoin="round"/>
<path d="M13.5 7H11.5" stroke="#000001" stroke-linecap="round" stroke-linejoin="round"/>
<path d="M2.5 7H0.5" stroke="#000001" stroke-linecap="round" stroke-linejoin="round"/>
<path d="M11.5 13.5H12.5C12.7652 13.5 13.0196 13.3946 13.2071 13.2071C13.3946 13.0196 13.5 12.7652 13.5 12.5V11.5" stroke="#000001" stroke-linecap="round" stroke-linejoin="round"/>
<path d="M0.5 11.5V12.5C0.5 12.7652 0.605357 13.0196 0.792893 13.2071C0.98043 13.3946 1.23478 13.5 1.5 13.5H2.5" stroke="#000001" stroke-linecap="round" stroke-linejoin="round"/>
<path d="M5.5 13.5H8.5" stroke="#000001" stroke-linecap="round" stroke-linejoin="round"/>
<path d="M7 0.5V2.5" stroke="#000001" stroke-linecap="round" stroke-linejoin="round"/>
<path d="M7 11.5V13.5" stroke="#000001" stroke-linecap="round" stroke-linejoin="round"/>
</g>
<defs>
<clipPath id="clip0_6_3755">
<rect width="14" height="14" fill="white"/>
</clipPath>
</defs>
</svg>
