<svg width="15" height="14" viewBox="0 0 15 14" fill="none" xmlns="http://www.w3.org/2000/svg">
<g clip-path="url(#clip0_6_2194)">
<path d="M7.99016 1.08992L9.58016 4.29992C9.61632 4.38139 9.6732 4.45197 9.74514 4.5046C9.81708 4.55724 9.90156 4.59011 9.99016 4.59992L13.5002 5.11992C13.6018 5.13298 13.6976 5.17469 13.7764 5.24017C13.8552 5.30566 13.9138 5.39221 13.9452 5.48973C13.9767 5.58725 13.9798 5.69171 13.9541 5.7909C13.9284 5.89009 13.875 5.97993 13.8002 6.04992L11.2702 8.55992C11.2056 8.62025 11.1571 8.69576 11.1292 8.77959C11.1012 8.86343 11.0947 8.95291 11.1102 9.03992L11.7202 12.5699C11.7378 12.6714 11.7267 12.7757 11.6879 12.8711C11.6492 12.9665 11.5845 13.0491 11.5011 13.1096C11.4178 13.17 11.3191 13.2058 11.2164 13.2129C11.1137 13.2201 11.0111 13.1982 10.9202 13.1499L7.76016 11.4799C7.67924 11.4402 7.5903 11.4195 7.50016 11.4195C7.41001 11.4195 7.32107 11.4402 7.24016 11.4799L4.08016 13.1499C3.98924 13.1982 3.88659 13.2201 3.78388 13.2129C3.68117 13.2058 3.58253 13.17 3.49917 13.1096C3.41581 13.0491 3.35109 12.9665 3.31238 12.8711C3.27366 12.7757 3.26249 12.6714 3.28016 12.5699L3.89016 8.99992C3.90562 8.91291 3.89908 8.82343 3.87113 8.73959C3.84319 8.65576 3.79473 8.58025 3.73016 8.51992L1.17016 6.04992C1.09442 5.97802 1.04116 5.88569 1.01682 5.78413C0.992483 5.68258 0.998119 5.57614 1.03304 5.47772C1.06797 5.3793 1.13068 5.29311 1.21359 5.22961C1.29649 5.1661 1.39604 5.128 1.50016 5.11992L5.01016 4.59992C5.09875 4.59011 5.18323 4.55724 5.25517 4.5046C5.32711 4.45197 5.38399 4.38139 5.42016 4.29992L7.01016 1.08992C7.05345 0.996428 7.1226 0.917275 7.20942 0.861803C7.29624 0.806331 7.39712 0.776855 7.50016 0.776855C7.60319 0.776855 7.70407 0.806331 7.79089 0.861803C7.87771 0.917275 7.94686 0.996428 7.99016 1.08992V1.08992Z" stroke="#000001" stroke-linecap="round" stroke-linejoin="round"/>
</g>
<defs>
<clipPath id="clip0_6_2194">
<rect width="14" height="14" fill="white" transform="translate(0.5)"/>
</clipPath>
</defs>
</svg>
