<svg width="14" height="14" viewBox="0 0 14 14" fill="none" xmlns="http://www.w3.org/2000/svg">
<g clip-path="url(#clip0_6_4109)">
<path d="M1.5 0.5H12.5C12.7652 0.5 13.0196 0.605357 13.2071 0.792893C13.3946 0.98043 13.5 1.23478 13.5 1.5V11.5C13.5 12.0304 13.2893 12.5391 12.9142 12.9142C12.5391 13.2893 12.0304 13.5 11.5 13.5H2.5C1.96957 13.5 1.46086 13.2893 1.08579 12.9142C0.710714 12.5391 0.5 12.0304 0.5 11.5V1.5C0.5 1.23478 0.605357 0.98043 0.792893 0.792893C0.98043 0.605357 1.23478 0.5 1.5 0.5V0.5Z" stroke="#000001" stroke-linecap="round" stroke-linejoin="round"/>
<path d="M0.5 7H13.5" stroke="#000001" stroke-linecap="round" stroke-linejoin="round"/>
<path d="M7 4C7.27614 4 7.5 3.77614 7.5 3.5C7.5 3.22386 7.27614 3 7 3C6.72386 3 6.5 3.22386 6.5 3.5C6.5 3.77614 6.72386 4 7 4Z" stroke="#000001" stroke-linecap="round" stroke-linejoin="round"/>
<path d="M7 10.5C7.27614 10.5 7.5 10.2761 7.5 10C7.5 9.72386 7.27614 9.5 7 9.5C6.72386 9.5 6.5 9.72386 6.5 10C6.5 10.2761 6.72386 10.5 7 10.5Z" stroke="#000001" stroke-linecap="round" stroke-linejoin="round"/>
</g>
<defs>
<clipPath id="clip0_6_4109">
<rect width="14" height="14" fill="white"/>
</clipPath>
</defs>
</svg>
