<svg width="15" height="14" viewBox="0 0 15 14" fill="none" xmlns="http://www.w3.org/2000/svg">
<g clip-path="url(#clip0_6_1485)">
<path d="M13.1603 1.87015L12.3203 4.35015C12.2913 4.4075 12.2762 4.47088 12.2762 4.53515C12.2762 4.59942 12.2913 4.66279 12.3203 4.72015L13.8903 6.82015C13.9354 6.88025 13.9627 6.95186 13.969 7.02675C13.9753 7.10164 13.9603 7.17679 13.9259 7.24359C13.8915 7.31039 13.8389 7.36613 13.7742 7.40443C13.7096 7.44274 13.6354 7.46204 13.5603 7.46015H10.9403C10.8761 7.46203 10.8131 7.47828 10.756 7.5077C10.6989 7.53712 10.6491 7.57896 10.6103 7.63015L9.15029 9.73015C9.10747 9.79153 9.04828 9.83967 8.97946 9.86909C8.91064 9.89852 8.83495 9.90804 8.76098 9.89658C8.68702 9.88512 8.61775 9.85314 8.56106 9.80427C8.50437 9.7554 8.46253 9.69161 8.44029 9.62015L7.66029 7.12015C7.64249 7.05835 7.6093 7.00208 7.56383 6.95661C7.51836 6.91113 7.46209 6.87794 7.40029 6.86015L4.90029 6.08015C4.82882 6.05791 4.76503 6.01606 4.71616 5.95937C4.6673 5.90268 4.63532 5.83342 4.62386 5.75945C4.6124 5.68549 4.62192 5.6098 4.65134 5.54098C4.68076 5.47215 4.7289 5.41297 4.79029 5.37015L6.93029 3.86015C6.98148 3.82133 7.02331 3.77154 7.05273 3.71444C7.08215 3.65733 7.0984 3.59436 7.10029 3.53015V0.910147C7.10308 0.841332 7.1236 0.774404 7.15984 0.715843C7.19609 0.657281 7.24685 0.609071 7.30719 0.575881C7.36754 0.54269 7.43543 0.525643 7.5043 0.526391C7.57317 0.527138 7.64068 0.545655 7.70029 0.580147L9.80029 2.15015C9.8536 2.18717 9.91494 2.21102 9.97927 2.21971C10.0436 2.2284 10.1091 2.2217 10.1703 2.20015L12.6503 1.36015C12.7214 1.33515 12.7981 1.33076 12.8717 1.34749C12.9452 1.36421 13.0125 1.40137 13.0658 1.45468C13.1191 1.50798 13.1562 1.57527 13.1729 1.64878C13.1897 1.72229 13.1853 1.79902 13.1603 1.87015V1.87015Z" stroke="#000001" stroke-linecap="round" stroke-linejoin="round"/>
<path d="M7.55953 6.95996L1.01953 13.5" stroke="#000001" stroke-linecap="round" stroke-linejoin="round"/>
</g>
<defs>
<clipPath id="clip0_6_1485">
<rect width="14" height="14" fill="white" transform="translate(0.519531)"/>
</clipPath>
</defs>
</svg>
