<svg width="14" height="14" viewBox="0 0 14 14" fill="none" xmlns="http://www.w3.org/2000/svg">
<path d="M4.07908 7.25C3.70938 6.6484 3.51367 5.95611 3.51367 5.25C3.51367 4.54389 3.70938 3.8516 4.07908 3.25" stroke="#000001" stroke-linecap="round" stroke-linejoin="round"/>
<path d="M4.44922 7.41992C4.72536 7.41992 4.94922 7.19606 4.94922 6.91992C4.94922 6.64378 4.72536 6.41992 4.44922 6.41992C4.17308 6.41992 3.94922 6.64378 3.94922 6.91992C3.94922 7.19606 4.17308 7.41992 4.44922 7.41992Z" stroke="#000001" stroke-linecap="round" stroke-linejoin="round"/>
<path d="M1.06931 7.25C0.699619 6.6484 0.503906 5.95611 0.503906 5.25C0.503906 4.54389 0.699619 3.8516 1.06931 3.25" stroke="#000001" stroke-linecap="round" stroke-linejoin="round"/>
<path d="M1.43945 7.41992C1.7156 7.41992 1.93945 7.19606 1.93945 6.91992C1.93945 6.64378 1.7156 6.41992 1.43945 6.41992C1.16331 6.41992 0.939453 6.64378 0.939453 6.91992C0.939453 7.19606 1.16331 7.41992 1.43945 7.41992Z" stroke="#000001" stroke-linecap="round" stroke-linejoin="round"/>
<path d="M9.91797 6.75C10.2877 7.3516 10.4834 8.04389 10.4834 8.75C10.4834 9.45611 10.2877 10.1484 9.91797 10.75" stroke="#000001" stroke-linecap="round" stroke-linejoin="round"/>
<path d="M9.54883 7.58008C9.82497 7.58008 10.0488 7.35622 10.0488 7.08008C10.0488 6.80394 9.82497 6.58008 9.54883 6.58008C9.27269 6.58008 9.04883 6.80394 9.04883 7.08008C9.04883 7.35622 9.27269 7.58008 9.54883 7.58008Z" stroke="#000001" stroke-linecap="round" stroke-linejoin="round"/>
<path d="M12.9277 6.75C13.2974 7.3516 13.4931 8.04389 13.4931 8.75C13.4931 9.45611 13.2974 10.1484 12.9277 10.75" stroke="#000001" stroke-linecap="round" stroke-linejoin="round"/>
<path d="M12.5586 7.58008C12.8347 7.58008 13.0586 7.35622 13.0586 7.08008C13.0586 6.80394 12.8347 6.58008 12.5586 6.58008C12.2825 6.58008 12.0586 6.80394 12.0586 7.08008C12.0586 7.35622 12.2825 7.58008 12.5586 7.58008Z" stroke="#000001" stroke-linecap="round" stroke-linejoin="round"/>
</svg>
