<svg width="14" height="14" viewBox="0 0 14 14" fill="none" xmlns="http://www.w3.org/2000/svg">
<g clip-path="url(#clip0_6_2868)">
<path d="M5.00084 10.43C4.58233 10.7886 4.05191 10.9902 3.50084 11C3.09726 11.0387 2.6901 10.9877 2.30853 10.8506C1.92696 10.7135 1.58043 10.4938 1.29374 10.2071C1.00705 9.92042 0.787296 9.57388 0.65022 9.19231C0.513143 8.81075 0.462134 8.40359 0.500845 8C0.462134 7.59641 0.513143 7.18925 0.65022 6.80769C0.787296 6.42612 1.00705 6.07958 1.29374 5.79289C1.58043 5.5062 1.92696 5.28645 2.30853 5.14937C2.6901 5.0123 3.09726 4.96129 3.50084 5C6.25084 5 7.75084 11 10.5008 11C10.9044 11.0387 11.3116 10.9877 11.6932 10.8506C12.0747 10.7135 12.4213 10.4938 12.708 10.2071C12.9946 9.92042 13.2144 9.57388 13.3515 9.19231C13.4885 8.81075 13.5396 8.40359 13.5008 8C13.5396 7.59641 13.4885 7.18925 13.3515 6.80769C13.2144 6.42612 12.9946 6.07958 12.708 5.79289C12.4213 5.5062 12.0747 5.28645 11.6932 5.14937C11.3116 5.0123 10.9044 4.96129 10.5008 5H8.50084L10.5008 3" stroke="#000001" stroke-linecap="round" stroke-linejoin="round"/>
</g>
<defs>
<clipPath id="clip0_6_2868">
<rect width="14" height="14" fill="white"/>
</clipPath>
</defs>
</svg>
