<svg width="14" height="14" viewBox="0 0 14 14" fill="none" xmlns="http://www.w3.org/2000/svg">
<g clip-path="url(#clip0_6_3129)">
<path d="M11.4999 4.99983C11.5054 4.19659 11.2959 3.40651 10.893 2.7116C10.4901 2.0167 9.90851 1.44231 9.20866 1.04806C8.50881 0.65381 7.71619 0.454075 6.91309 0.46959C6.10998 0.485104 5.32566 0.715303 4.64156 1.13629C3.95746 1.55727 3.39852 2.1537 3.02275 2.86364C2.64699 3.57359 2.4681 4.37117 2.50467 5.1736C2.54123 5.97602 2.79191 6.75403 3.23069 7.42686C3.66947 8.09969 4.28034 8.6428 4.99989 8.99983V10.4998C4.99989 10.6324 5.05257 10.7596 5.14634 10.8534C5.24011 10.9471 5.36729 10.9998 5.49989 10.9998H8.49989C8.6325 10.9998 8.75968 10.9471 8.85345 10.8534C8.94722 10.7596 8.99989 10.6324 8.99989 10.4998V8.99983C9.74737 8.63155 10.3773 8.06211 10.819 7.3555C11.2606 6.64888 11.4964 5.83309 11.4999 4.99983V4.99983Z" stroke="#000001" stroke-linecap="round" stroke-linejoin="round"/>
<path d="M5 13.5H9" stroke="#000001" stroke-linecap="round" stroke-linejoin="round"/>
</g>
<defs>
<clipPath id="clip0_6_3129">
<rect width="14" height="14" fill="white"/>
</clipPath>
</defs>
</svg>
