<svg width="15" height="14" viewBox="0 0 15 14" fill="none" xmlns="http://www.w3.org/2000/svg">
<g clip-path="url(#clip0_6_1144)">
<path d="M2.01953 2.5C1.75431 2.5 1.49996 2.60536 1.31242 2.79289C1.12489 2.98043 1.01953 3.23478 1.01953 3.5V12.5C1.01953 12.7652 1.12489 13.0196 1.31242 13.2071C1.49996 13.3946 1.75431 13.5 2.01953 13.5H13.0195C13.2847 13.5 13.5391 13.3946 13.7266 13.2071C13.9142 13.0196 14.0195 12.7652 14.0195 12.5V3.5C14.0195 3.23478 13.9142 2.98043 13.7266 2.79289C13.5391 2.60536 13.2847 2.5 13.0195 2.5H11.0195" stroke="#000001" stroke-linecap="round" stroke-linejoin="round"/>
<path d="M4.01953 0.5V4.5" stroke="#000001" stroke-linecap="round" stroke-linejoin="round"/>
<path d="M11.0195 0.5V4.5" stroke="#000001" stroke-linecap="round" stroke-linejoin="round"/>
<path d="M4.01953 2.5H9.01953" stroke="#000001" stroke-linecap="round" stroke-linejoin="round"/>
<path d="M6.9688 5.37011C7.01185 5.25924 7.0874 5.16396 7.18555 5.09678C7.2837 5.0296 7.39986 4.99365 7.5188 4.99365C7.63774 4.99365 7.7539 5.0296 7.85205 5.09678C7.9502 5.16396 8.02575 5.25924 8.0688 5.37011L8.7088 7.00011H10.4188C10.5306 7.00864 10.6378 7.04834 10.7282 7.1147C10.8186 7.18106 10.8886 7.27142 10.9302 7.37554C10.9719 7.47966 10.9835 7.59336 10.9638 7.70376C10.9441 7.81415 10.8939 7.91682 10.8188 8.00011L9.3088 9.36011L9.9488 10.6401C10.0067 10.7525 10.0264 10.8807 10.0047 11.0053C9.98304 11.1298 9.92127 11.2439 9.8288 11.3301C9.73696 11.4174 9.62021 11.474 9.49477 11.4919C9.36932 11.5098 9.24141 11.4882 9.1288 11.4301L7.5188 10.5501L5.9088 11.4301C5.79619 11.4882 5.66828 11.5098 5.54283 11.4919C5.41739 11.474 5.30064 11.4174 5.2088 11.3301C5.11633 11.2439 5.05456 11.1298 5.0329 11.0053C5.01124 10.8807 5.03087 10.7525 5.0888 10.6401L5.7288 9.36011L4.2188 8.00011C4.14372 7.91682 4.09348 7.81415 4.07378 7.70376C4.05408 7.59336 4.06572 7.47966 4.10737 7.37554C4.14901 7.27142 4.21901 7.18106 4.3094 7.1147C4.3998 7.04834 4.50699 7.00864 4.6188 7.00011H6.3288L6.9688 5.37011Z" stroke="#000001" stroke-linecap="round" stroke-linejoin="round"/>
</g>
<defs>
<clipPath id="clip0_6_1144">
<rect width="14" height="14" fill="white" transform="translate(0.519531)"/>
</clipPath>
</defs>
</svg>
