<svg width="14" height="14" viewBox="0 0 14 14" fill="none" xmlns="http://www.w3.org/2000/svg">
<g clip-path="url(#clip0_6_3623)">
<path d="M7 9C8.24264 9 9.25 7.99264 9.25 6.75C9.25 5.50736 8.24264 4.5 7 4.5C5.75736 4.5 4.75 5.50736 4.75 6.75C4.75 7.99264 5.75736 9 7 9Z" stroke="#000001" stroke-linecap="round" stroke-linejoin="round"/>
<path d="M11 13.5C10.6214 12.7654 10.0479 12.1493 9.34233 11.7192C8.63675 11.2891 7.82635 11.0615 7 11.0615C6.17365 11.0615 5.36325 11.2891 4.65767 11.7192C3.95209 12.1493 3.37857 12.7654 3 13.5" stroke="#000001" stroke-linecap="round" stroke-linejoin="round"/>
<path d="M11.9991 10.5596C12.7087 9.63399 13.1452 8.5283 13.2592 7.36755C13.3731 6.20681 13.16 5.03734 12.644 3.9914C12.1279 2.94546 11.3295 2.06479 10.339 1.44899C9.34844 0.83319 8.20539 0.506836 7.03907 0.506836C5.87274 0.506836 4.72969 0.83319 3.73918 1.44899C2.74867 2.06479 1.95024 2.94546 1.43417 3.9914C0.918108 5.03734 0.705008 6.20681 0.818975 7.36755C0.932942 8.5283 1.36943 9.63399 2.07907 10.5596" stroke="#000001" stroke-linecap="round" stroke-linejoin="round"/>
</g>
<defs>
<clipPath id="clip0_6_3623">
<rect width="14" height="14" fill="white"/>
</clipPath>
</defs>
</svg>
