<svg width="14" height="14" viewBox="0 0 14 14" fill="none" xmlns="http://www.w3.org/2000/svg">
<g clip-path="url(#clip0_6_1104)">
<path d="M8.5 6.5H9.5V11" stroke="#000001" stroke-linecap="round" stroke-linejoin="round"/>
<path d="M8.5 11H10.5" stroke="#000001" stroke-linecap="round" stroke-linejoin="round"/>
<path d="M1.5 2.5C1.23478 2.5 0.98043 2.60536 0.792893 2.79289C0.605357 2.98043 0.5 3.23478 0.5 3.5V12.5C0.5 12.7652 0.605357 13.0196 0.792893 13.2071C0.98043 13.3946 1.23478 13.5 1.5 13.5H12.5C12.7652 13.5 13.0196 13.3946 13.2071 13.2071C13.3946 13.0196 13.5 12.7652 13.5 12.5V3.5C13.5 3.23478 13.3946 2.98043 13.2071 2.79289C13.0196 2.60536 12.7652 2.5 12.5 2.5H10.5" stroke="#000001" stroke-linecap="round" stroke-linejoin="round"/>
<path d="M3.5 0.5V4.5" stroke="#000001" stroke-linecap="round" stroke-linejoin="round"/>
<path d="M10.5 0.5V4.5" stroke="#000001" stroke-linecap="round" stroke-linejoin="round"/>
<path d="M3.5 2.5H8.5" stroke="#000001" stroke-linecap="round" stroke-linejoin="round"/>
<path d="M3.5 6.5H6L4.5 8.5C4.5 8.5 6 8.5 6 9.5C6.02822 9.70359 6.00887 9.91095 5.94346 10.1058C5.87806 10.3007 5.76838 10.4777 5.62305 10.623C5.47771 10.7684 5.30066 10.8781 5.10581 10.9435C4.91095 11.0089 4.70359 11.0282 4.5 11H3.5" stroke="#000001" stroke-linecap="round" stroke-linejoin="round"/>
</g>
<defs>
<clipPath id="clip0_6_1104">
<rect width="14" height="14" fill="white"/>
</clipPath>
</defs>
</svg>
