<svg width="14" height="14" viewBox="0 0 14 14" fill="none" xmlns="http://www.w3.org/2000/svg">
<g clip-path="url(#clip0_6_1573)">
<path d="M9 9.5C11.4853 9.5 13.5 7.48528 13.5 5C13.5 2.51472 11.4853 0.5 9 0.5C6.51472 0.5 4.5 2.51472 4.5 5C4.5 7.48528 6.51472 9.5 9 9.5Z" stroke="#000001" stroke-linecap="round" stroke-linejoin="round"/>
<path d="M10.2495 3.67003C10.1265 3.48506 9.96397 3.32972 9.77365 3.2152C9.58333 3.10069 9.36995 3.02988 9.14893 3.00787C8.92791 2.98586 8.70476 3.01322 8.4956 3.08795C8.28644 3.16269 8.09648 3.28294 7.93945 3.44003" stroke="#000001" stroke-linecap="round" stroke-linejoin="round"/>
<path d="M0.5 13.5002L6.08 8.43018" stroke="#000001" stroke-linecap="round" stroke-linejoin="round"/>
</g>
<defs>
<clipPath id="clip0_6_1573">
<rect width="14" height="14" fill="white"/>
</clipPath>
</defs>
</svg>
