<svg width="15" height="14" viewBox="0 0 15 14" fill="none" xmlns="http://www.w3.org/2000/svg">
<g clip-path="url(#clip0_6_1248)">
<path d="M13.0195 0.5H4.01953C3.46725 0.5 3.01953 0.947715 3.01953 1.5V3.5C3.01953 4.05228 3.46725 4.5 4.01953 4.5H13.0195C13.5718 4.5 14.0195 4.05228 14.0195 3.5V1.5C14.0195 0.947715 13.5718 0.5 13.0195 0.5Z" stroke="#000001" stroke-linecap="round" stroke-linejoin="round"/>
<path d="M8.51953 9.5V8.5C8.51953 7.96957 8.30882 7.46086 7.93374 7.08579C7.55867 6.71071 7.04996 6.5 6.51953 6.5H3.01953C2.4891 6.5 1.98039 6.28929 1.60532 5.91421C1.23024 5.53914 1.01953 5.03043 1.01953 4.5V3.5C1.01953 3.23478 1.12489 2.98043 1.31242 2.79289C1.49996 2.60536 1.75431 2.5 2.01953 2.5H3.01953" stroke="#000001" stroke-linecap="round" stroke-linejoin="round"/>
<path d="M7.01953 13.5V10.5C7.01953 10.2348 7.12489 9.98043 7.31242 9.79289C7.49996 9.60536 7.75431 9.5 8.01953 9.5H9.01953C9.28475 9.5 9.5391 9.60536 9.72664 9.79289C9.91417 9.98043 10.0195 10.2348 10.0195 10.5V13.5" stroke="#000001" stroke-linecap="round" stroke-linejoin="round"/>
</g>
<defs>
<clipPath id="clip0_6_1248">
<rect width="14" height="14" fill="white" transform="translate(0.519531)"/>
</clipPath>
</defs>
</svg>
