<svg width="14" height="14" viewBox="0 0 14 14" fill="none" xmlns="http://www.w3.org/2000/svg">
<g clip-path="url(#clip0_6_4044)">
<path d="M13.1899 3.04987C13.3859 2.85146 13.4958 2.58378 13.4958 2.30487C13.4958 2.02595 13.3859 1.75828 13.1899 1.55987L12.4399 0.809867C12.2439 0.62854 11.9868 0.527813 11.7199 0.527813C11.4529 0.527813 11.1958 0.62854 10.9999 0.809867L6.99987 4.75987L3.04987 0.809867C2.85146 0.613837 2.58378 0.503906 2.30487 0.503906C2.02595 0.503906 1.75828 0.613837 1.55987 0.809867L0.809867 1.55987C0.613837 1.75828 0.503906 2.02595 0.503906 2.30487C0.503906 2.58378 0.613837 2.85146 0.809867 3.04987L4.80987 7.04987L0.809867 10.9999C0.613837 11.1983 0.503906 11.466 0.503906 11.7449C0.503906 12.0238 0.613837 12.2915 0.809867 12.4899L1.55987 13.2399C1.75828 13.4359 2.02595 13.5458 2.30487 13.5458C2.58378 13.5458 2.85146 13.4359 3.04987 13.2399L6.99987 9.23987L10.9999 13.1899C11.1983 13.3859 11.466 13.4958 11.7449 13.4958C12.0238 13.4958 12.2915 13.3859 12.4899 13.1899L13.2399 12.4399C13.4359 12.2415 13.5458 11.9738 13.5458 11.6949C13.5458 11.416 13.4359 11.1483 13.2399 10.9499L9.23987 6.99987L13.1899 3.04987Z" stroke="#000001" stroke-linecap="round" stroke-linejoin="round"/>
</g>
<defs>
<clipPath id="clip0_6_4044">
<rect width="14" height="14" fill="white"/>
</clipPath>
</defs>
</svg>
