<svg width="14" height="14" viewBox="0 0 14 14" fill="none" xmlns="http://www.w3.org/2000/svg">
<path d="M2.25 5.10003L6.74 0.610025C6.7736 0.574936 6.81396 0.547012 6.85865 0.527935C6.90333 0.508858 6.95141 0.499023 7 0.499023C7.04859 0.499023 7.09667 0.508858 7.14135 0.527935C7.18604 0.547012 7.2264 0.574936 7.26 0.610025L11.75 5.10003" stroke="#000001" stroke-linecap="round" stroke-linejoin="round"/>
<path d="M2.25 8.8999L6.74 13.3899C6.7736 13.425 6.81396 13.4529 6.85865 13.472C6.90333 13.4911 6.95141 13.5009 7 13.5009C7.04859 13.5009 7.09667 13.4911 7.14135 13.472C7.18604 13.4529 7.2264 13.425 7.26 13.3899L11.75 8.8999" stroke="#000001" stroke-linecap="round" stroke-linejoin="round"/>
</svg>
