<svg width="14" height="14" viewBox="0 0 14 14" fill="none" xmlns="http://www.w3.org/2000/svg">
<path d="M10.5 13.5H9C8.46957 13.5 7.96086 13.2893 7.58579 12.9142C7.21071 12.5391 7 12.0304 7 11.5C7 12.0304 6.78929 12.5391 6.41421 12.9142C6.03914 13.2893 5.53043 13.5 5 13.5H3.5" stroke="#000001" stroke-linecap="round" stroke-linejoin="round"/>
<path d="M10.5 0.5H9C8.46957 0.5 7.96086 0.710714 7.58579 1.08579C7.21071 1.46086 7 1.96957 7 2.5C7 1.96957 6.78929 1.46086 6.41421 1.08579C6.03914 0.710714 5.53043 0.5 5 0.5H3.5" stroke="#000001" stroke-linecap="round" stroke-linejoin="round"/>
<path d="M7 2.5V11.5" stroke="#000001" stroke-linecap="round" stroke-linejoin="round"/>
<path d="M4.5 8H9.5" stroke="#000001" stroke-linecap="round" stroke-linejoin="round"/>
</svg>
