<svg width="14" height="14" viewBox="0 0 14 14" fill="none" xmlns="http://www.w3.org/2000/svg">
<g clip-path="url(#clip0_6_4115)">
<path d="M12.5 13.54H3C2.60218 13.54 2.22064 13.382 1.93934 13.1007C1.65804 12.8194 1.5 12.4379 1.5 12.04C1.5 11.6422 1.65804 11.2607 1.93934 10.9794C2.22064 10.6981 2.60218 10.54 3 10.54H11.5C11.7652 10.54 12.0196 10.4347 12.2071 10.2471C12.3946 10.0596 12.5 9.80526 12.5 9.54004V1.54004C12.5 1.27482 12.3946 1.02047 12.2071 0.832932C12.0196 0.645396 11.7652 0.540039 11.5 0.540039H3C2.60901 0.5399 2.23342 0.692433 1.95324 0.965144C1.67305 1.23785 1.51043 1.60919 1.5 2.00004V12" stroke="#000001" stroke-linecap="round" stroke-linejoin="round"/>
<path d="M11.5 10.54V13.54" stroke="#000001" stroke-linecap="round" stroke-linejoin="round"/>
</g>
<defs>
<clipPath id="clip0_6_4115">
<rect width="14" height="14" fill="white"/>
</clipPath>
</defs>
</svg>
