<svg width="14" height="14" viewBox="0 0 14 14" fill="none" xmlns="http://www.w3.org/2000/svg">
<g clip-path="url(#clip0_6_1057)">
<path d="M1.91054 9.5L0.610537 12.05C0.522769 12.202 0.476563 12.3745 0.476562 12.55C0.476562 12.7255 0.522769 12.898 0.610537 13.05C0.702374 13.197 0.830856 13.3177 0.983378 13.4001C1.1359 13.4825 1.30722 13.5238 1.48054 13.52H12.4805C12.6539 13.5238 12.8252 13.4825 12.9777 13.4001C13.1302 13.3177 13.2587 13.197 13.3505 13.05C13.4383 12.898 13.4845 12.7255 13.4845 12.55C13.4845 12.3745 13.4383 12.202 13.3505 12.05L12.0905 9.5H1.91054Z" stroke="#000001" stroke-linecap="round" stroke-linejoin="round"/>
<path d="M5 2.5L7 0.5L9 2.5" stroke="#000001" stroke-linecap="round" stroke-linejoin="round"/>
<path d="M7 0.5V6.5" stroke="#000001" stroke-linecap="round" stroke-linejoin="round"/>
<path d="M3 4.5C2.73478 4.5 2.48043 4.60536 2.29289 4.79289C2.10536 4.98043 2 5.23478 2 5.5V9.5H12V5.5C12 5.23478 11.8946 4.98043 11.7071 4.79289C11.5196 4.60536 11.2652 4.5 11 4.5" stroke="#000001" stroke-linecap="round" stroke-linejoin="round"/>
</g>
<defs>
<clipPath id="clip0_6_1057">
<rect width="14" height="14" fill="white"/>
</clipPath>
</defs>
</svg>
