<svg width="15" height="14" viewBox="0 0 15 14" fill="none" xmlns="http://www.w3.org/2000/svg">
<g clip-path="url(#clip0_6_2005)">
<path d="M13 4.5H2C1.44772 4.5 1 4.94772 1 5.5V12.5C1 13.0523 1.44772 13.5 2 13.5H13C13.5523 13.5 14 13.0523 14 12.5V5.5C14 4.94772 13.5523 4.5 13 4.5Z" stroke="#000001" stroke-linecap="round" stroke-linejoin="round"/>
<path d="M1 8.5H14" stroke="#000001" stroke-linecap="round" stroke-linejoin="round"/>
<path d="M7.5 7.5V9.5" stroke="#000001" stroke-linecap="round" stroke-linejoin="round"/>
<path d="M10.5 4.5C10.5 3.70435 10.1839 2.94129 9.62132 2.37868C9.05871 1.81607 8.29565 1.5 7.5 1.5V1.5C6.70435 1.5 5.94129 1.81607 5.37868 2.37868C4.81607 2.94129 4.5 3.70435 4.5 4.5" stroke="#000001" stroke-linecap="round" stroke-linejoin="round"/>
</g>
<defs>
<clipPath id="clip0_6_2005">
<rect width="14" height="14" fill="white" transform="translate(0.5)"/>
</clipPath>
</defs>
</svg>
