<svg width="14" height="14" viewBox="0 0 14 14" fill="none" xmlns="http://www.w3.org/2000/svg">
<g clip-path="url(#clip0_6_1636)">
<path d="M12.5 0.5H4.5C3.94772 0.5 3.5 0.947715 3.5 1.5V9.5C3.5 10.0523 3.94772 10.5 4.5 10.5H12.5C13.0523 10.5 13.5 10.0523 13.5 9.5V1.5C13.5 0.947715 13.0523 0.5 12.5 0.5Z" stroke="#000001" stroke-linecap="round" stroke-linejoin="round"/>
<path d="M0.5 12.5C0.5 12.7652 0.605357 13.0196 0.792893 13.2071C0.98043 13.3946 1.23478 13.5 1.5 13.5" stroke="#000001" stroke-linecap="round" stroke-linejoin="round"/>
<path d="M4.5 13.5H6" stroke="#000001" stroke-linecap="round" stroke-linejoin="round"/>
<path d="M9 13.5H10.5" stroke="#000001" stroke-linecap="round" stroke-linejoin="round"/>
<path d="M0.5 8V9.5" stroke="#000001" stroke-linecap="round" stroke-linejoin="round"/>
<path d="M0.5 3.5V5" stroke="#000001" stroke-linecap="round" stroke-linejoin="round"/>
</g>
<defs>
<clipPath id="clip0_6_1636">
<rect width="14" height="14" fill="white"/>
</clipPath>
</defs>
</svg>
