<svg width="15" height="14" viewBox="0 0 15 14" fill="none" xmlns="http://www.w3.org/2000/svg">
<g clip-path="url(#clip0_6_1789)">
<path d="M1.40971 12.56L0.999708 5.56001C0.991183 5.4895 0.99778 5.41797 1.01906 5.3502C1.04034 5.28243 1.07582 5.21998 1.12312 5.16699C1.17043 5.11401 1.22849 5.07171 1.29342 5.04292C1.35836 5.01413 1.42868 4.9995 1.49971 5.00001H6.10971C6.22179 5.00071 6.33052 5.0383 6.41909 5.10699C6.50766 5.17568 6.57114 5.27163 6.59971 5.38001L6.99971 7.00001H13.4997C13.5689 6.99979 13.6373 7.01392 13.7008 7.04151C13.7642 7.0691 13.8212 7.10955 13.8682 7.16031C13.9152 7.21106 13.9511 7.27101 13.9738 7.33637C13.9964 7.40172 14.0052 7.47107 13.9997 7.54001L13.6097 12.54C13.5896 12.7911 13.4754 13.0254 13.29 13.1959C13.1046 13.3665 12.8616 13.4608 12.6097 13.46H2.40971C2.16094 13.4613 1.92064 13.3697 1.73573 13.2033C1.55082 13.0369 1.43458 12.8075 1.40971 12.56Z" stroke="#000001" stroke-linecap="round" stroke-linejoin="round"/>
<path d="M4 3V1C4 0.867392 4.05268 0.740215 4.14645 0.646447C4.24021 0.552678 4.36739 0.5 4.5 0.5H13C13.1326 0.5 13.2598 0.552678 13.3536 0.646447C13.4473 0.740215 13.5 0.867392 13.5 1V5" stroke="#000001" stroke-linecap="round" stroke-linejoin="round"/>
<path d="M8 3H11" stroke="#000001" stroke-linecap="round" stroke-linejoin="round"/>
</g>
<defs>
<clipPath id="clip0_6_1789">
<rect width="14" height="14" fill="white" transform="translate(0.5)"/>
</clipPath>
</defs>
</svg>
