<svg width="14" height="14" viewBox="0 0 14 14" fill="none" xmlns="http://www.w3.org/2000/svg">
<g clip-path="url(#clip0_6_1541)">
<path d="M0.5 13.5L2.5 11.5" stroke="#000001" stroke-linecap="round" stroke-linejoin="round"/>
<path d="M4.70986 12.2899C4.6169 12.3836 4.5063 12.458 4.38444 12.5087C4.26258 12.5595 4.13187 12.5857 3.99986 12.5857C3.86785 12.5857 3.73714 12.5595 3.61528 12.5087C3.49343 12.458 3.38282 12.3836 3.28986 12.2899L1.70986 10.7099C1.61613 10.6169 1.54174 10.5063 1.49097 10.3844C1.4402 10.2626 1.41406 10.1319 1.41406 9.99986C1.41406 9.86784 1.4402 9.73714 1.49097 9.61528C1.54174 9.49342 1.61613 9.38282 1.70986 9.28986L9.87986 1.11986C10.2777 0.722031 10.8173 0.498535 11.3799 0.498535C11.9425 0.498535 12.482 0.722031 12.8799 1.11986C13.2777 1.51768 13.5012 2.05725 13.5012 2.61986C13.5012 3.18246 13.2777 3.72203 12.8799 4.11986L4.70986 12.2899Z" stroke="#000001" stroke-linecap="round" stroke-linejoin="round"/>
<path d="M11.5 5.49986L7.21 1.20986C7.11704 1.11613 7.00644 1.04174 6.88458 0.990969C6.76272 0.940201 6.63201 0.914062 6.5 0.914062C6.36799 0.914062 6.23728 0.940201 6.11542 0.990969C5.99356 1.04174 5.88296 1.11613 5.79 1.20986L2.5 4.49986" stroke="#000001" stroke-linecap="round" stroke-linejoin="round"/>
</g>
<defs>
<clipPath id="clip0_6_1541">
<rect width="14" height="14" fill="white"/>
</clipPath>
</defs>
</svg>
