<svg width="15" height="14" viewBox="0 0 15 14" fill="none" xmlns="http://www.w3.org/2000/svg">
<g clip-path="url(#clip0_6_1603)">
<path d="M2.70898 4.93018L14.019 11.4502" stroke="#000001" stroke-linecap="round" stroke-linejoin="round"/>
<path d="M3.26953 5C4.51217 5 5.51953 3.99264 5.51953 2.75C5.51953 1.50736 4.51217 0.5 3.26953 0.5C2.02689 0.5 1.01953 1.50736 1.01953 2.75C1.01953 3.99264 2.02689 5 3.26953 5Z" stroke="#000001" stroke-linecap="round" stroke-linejoin="round"/>
<path d="M2.70898 9.0698L14.019 2.5498" stroke="#000001" stroke-linecap="round" stroke-linejoin="round"/>
<path d="M3.26953 13.5C4.51217 13.5 5.51953 12.4926 5.51953 11.25C5.51953 10.0074 4.51217 9 3.26953 9C2.02689 9 1.01953 10.0074 1.01953 11.25C1.01953 12.4926 2.02689 13.5 3.26953 13.5Z" stroke="#000001" stroke-linecap="round" stroke-linejoin="round"/>
</g>
<defs>
<clipPath id="clip0_6_1603">
<rect width="14" height="14" fill="white" transform="translate(0.519531)"/>
</clipPath>
</defs>
</svg>
