<svg width="14" height="14" viewBox="0 0 14 14" fill="none" xmlns="http://www.w3.org/2000/svg">
<g clip-path="url(#clip0_6_1404)">
<path d="M13.5 7H0.5C0.5 5.27609 1.18482 3.62279 2.40381 2.40381C3.62279 1.18482 5.27609 0.5 7 0.5C8.72391 0.5 10.3772 1.18482 11.5962 2.40381C12.8152 3.62279 13.5 5.27609 13.5 7Z" stroke="#000001" stroke-linecap="round" stroke-linejoin="round"/>
<path d="M1.05078 9.60986C1.24972 10.0728 1.50498 10.5094 1.81078 10.9099C2.10044 11.311 2.43606 11.6768 2.81078 11.9999" stroke="#000001" stroke-linecap="round" stroke-linejoin="round"/>
<path d="M13.0002 9.60986C12.8013 10.0728 12.546 10.5094 12.2402 10.9099C11.9506 11.311 11.615 11.6768 11.2402 11.9999" stroke="#000001" stroke-linecap="round" stroke-linejoin="round"/>
<path d="M5.5 13.3301C6.48715 13.5568 7.51285 13.5568 8.5 13.3301" stroke="#000001" stroke-linecap="round" stroke-linejoin="round"/>
</g>
<defs>
<clipPath id="clip0_6_1404">
<rect width="14" height="14" fill="white"/>
</clipPath>
</defs>
</svg>
