<svg width="14" height="14" viewBox="0 0 14 14" fill="none" xmlns="http://www.w3.org/2000/svg">
<g clip-path="url(#clip0_6_3361)">
<path d="M7 8C8.38071 8 9.5 6.88071 9.5 5.5C9.5 4.11929 8.38071 3 7 3C5.61929 3 4.5 4.11929 4.5 5.5C4.5 6.88071 5.61929 8 7 8Z" stroke="#000001" stroke-linecap="round" stroke-linejoin="round"/>
<path d="M2.73047 11.8996C3.17671 11.1671 3.80388 10.5618 4.55168 10.1417C5.29947 9.72162 6.14276 9.50098 7.00047 9.50098C7.85818 9.50098 8.70146 9.72162 9.44926 10.1417C10.1971 10.5618 10.8242 11.1671 11.2705 11.8996" stroke="#000001" stroke-linecap="round" stroke-linejoin="round"/>
<path d="M7 13.5C10.5899 13.5 13.5 10.5899 13.5 7C13.5 3.41015 10.5899 0.5 7 0.5C3.41015 0.5 0.5 3.41015 0.5 7C0.5 10.5899 3.41015 13.5 7 13.5Z" stroke="#000001" stroke-linecap="round" stroke-linejoin="round"/>
</g>
<defs>
<clipPath id="clip0_6_3361">
<rect width="14" height="14" fill="white"/>
</clipPath>
</defs>
</svg>
