<svg width="14" height="14" viewBox="0 0 14 14" fill="none" xmlns="http://www.w3.org/2000/svg">
<g clip-path="url(#clip0_6_3847)">
<path d="M7.46929 6.89959C7.32097 6.964 7.161 6.99724 6.99929 6.99724C6.83759 6.99724 6.67762 6.964 6.52929 6.89959L0.829294 4.25959C0.736735 4.21291 0.658952 4.14145 0.604606 4.05317C0.55026 3.96489 0.521484 3.86326 0.521484 3.75959C0.521484 3.65593 0.55026 3.5543 0.604606 3.46602C0.658952 3.37774 0.736735 3.30628 0.829294 3.25959L6.52929 0.599595C6.67762 0.535188 6.83759 0.501953 6.99929 0.501953C7.161 0.501953 7.32097 0.535188 7.46929 0.599595L13.1693 3.23959C13.2619 3.28628 13.3396 3.35774 13.394 3.44602C13.4483 3.5343 13.4771 3.63593 13.4771 3.73959C13.4771 3.84326 13.4483 3.94489 13.394 4.03317C13.3396 4.12145 13.2619 4.19291 13.1693 4.23959L7.46929 6.89959Z" stroke="#000001" stroke-linecap="round" stroke-linejoin="round"/>
<path d="M13.5 7.34961L7.4 10.1596C7.26972 10.219 7.12819 10.2498 6.985 10.2498C6.84181 10.2498 6.70028 10.219 6.57 10.1596L0.5 7.34961" stroke="#000001" stroke-linecap="round" stroke-linejoin="round"/>
<path d="M13.5 10.5996L7.4 13.4096C7.26972 13.469 7.12819 13.4998 6.985 13.4998C6.84181 13.4998 6.70028 13.469 6.57 13.4096L0.5 10.5996" stroke="#000001" stroke-linecap="round" stroke-linejoin="round"/>
</g>
<defs>
<clipPath id="clip0_6_3847">
<rect width="14" height="14" fill="white"/>
</clipPath>
</defs>
</svg>
