<svg width="14" height="14" viewBox="0 0 14 14" fill="none" xmlns="http://www.w3.org/2000/svg">
<path d="M13.2294 6.33C13.3952 6.51375 13.487 6.75248 13.487 7C13.487 7.24752 13.3952 7.48625 13.2294 7.67C12.1794 8.8 9.78936 11 6.99936 11C4.20936 11 1.81936 8.8 0.769358 7.67C0.603518 7.48625 0.511719 7.24752 0.511719 7C0.511719 6.75248 0.603518 6.51375 0.769358 6.33C1.81936 5.2 4.20936 3 6.99936 3C9.78936 3 12.1794 5.2 13.2294 6.33Z" stroke="#000001" stroke-linecap="round" stroke-linejoin="round"/>
<path d="M7 9C8.10457 9 9 8.10457 9 7C9 5.89543 8.10457 5 7 5C5.89543 5 5 5.89543 5 7C5 8.10457 5.89543 9 7 9Z" stroke="#000001" stroke-linecap="round" stroke-linejoin="round"/>
</svg>
