<svg width="14" height="14" viewBox="0 0 14 14" fill="none" xmlns="http://www.w3.org/2000/svg">
<g clip-path="url(#clip0_6_3771)">
<path d="M2.5 13.5H1.5C1.23478 13.5 0.98043 13.3946 0.792893 13.2071C0.605357 13.0196 0.5 12.7652 0.5 12.5V11.5" stroke="#000001" stroke-linecap="round" stroke-linejoin="round"/>
<path d="M9.5 13.5H5.5" stroke="#000001" stroke-linecap="round" stroke-linejoin="round"/>
<path d="M0.5 8.5V5.5" stroke="#000001" stroke-linecap="round" stroke-linejoin="round"/>
<path d="M13.5 13.5V0.5" stroke="#000001" stroke-linecap="round" stroke-linejoin="round"/>
<path d="M7 8.5V5.5" stroke="#000001" stroke-linecap="round" stroke-linejoin="round"/>
<path d="M5.5 7H8.5" stroke="#000001" stroke-linecap="round" stroke-linejoin="round"/>
<path d="M0.5 7H2.5" stroke="#000001" stroke-linecap="round" stroke-linejoin="round"/>
<path d="M2.5 0.5H1.5C1.23478 0.5 0.98043 0.605357 0.792893 0.792893C0.605357 0.98043 0.5 1.23478 0.5 1.5V2.5" stroke="#000001" stroke-linecap="round" stroke-linejoin="round"/>
<path d="M9.5 0.5H5.5" stroke="#000001" stroke-linecap="round" stroke-linejoin="round"/>
<path d="M7 13.5V11.5" stroke="#000001" stroke-linecap="round" stroke-linejoin="round"/>
<path d="M7 2.5V0.5" stroke="#000001" stroke-linecap="round" stroke-linejoin="round"/>
</g>
<defs>
<clipPath id="clip0_6_3771">
<rect width="14" height="14" fill="white"/>
</clipPath>
</defs>
</svg>
