<svg width="14" height="14" viewBox="0 0 14 14" fill="none" xmlns="http://www.w3.org/2000/svg">
<g clip-path="url(#clip0_6_3857)">
<path d="M13.5 13.5H0.5" stroke="#000001" stroke-linecap="round" stroke-linejoin="round"/>
<path d="M8.5 5.5V10C8.5 10.5523 8.94772 11 9.5 11H11.5C12.0523 11 12.5 10.5523 12.5 10V5.5C12.5 4.94772 12.0523 4.5 11.5 4.5H9.5C8.94772 4.5 8.5 4.94772 8.5 5.5Z" stroke="#000001" stroke-linecap="round" stroke-linejoin="round"/>
<path d="M1.5 1.5L1.5 10C1.5 10.5523 1.94772 11 2.5 11H4.5C5.05228 11 5.5 10.5523 5.5 10L5.5 1.5C5.5 0.947715 5.05228 0.5 4.5 0.5H2.5C1.94772 0.5 1.5 0.947715 1.5 1.5Z" stroke="#000001" stroke-linecap="round" stroke-linejoin="round"/>
</g>
<defs>
<clipPath id="clip0_6_3857">
<rect width="14" height="14" fill="white"/>
</clipPath>
</defs>
</svg>
