<svg width="14" height="14" viewBox="0 0 14 14" fill="none" xmlns="http://www.w3.org/2000/svg">
<g clip-path="url(#clip0_6_4220)">
<path d="M7 3.5V6.5" stroke="#000001" stroke-linecap="round" stroke-linejoin="round"/>
<path d="M7 10C7.27614 10 7.5 9.77614 7.5 9.5C7.5 9.22386 7.27614 9 7 9C6.72386 9 6.5 9.22386 6.5 9.5C6.5 9.77614 6.72386 10 7 10Z" stroke="#000001" stroke-linecap="round" stroke-linejoin="round"/>
<path d="M6.24382 0.812816L0.813245 6.2434C0.395384 6.66126 0.395384 7.33874 0.813245 7.7566L6.24382 13.1872C6.66169 13.605 7.33917 13.605 7.75703 13.1872L13.1876 7.7566C13.6055 7.33874 13.6055 6.66126 13.1876 6.2434L7.75703 0.812816C7.33917 0.394955 6.66169 0.394955 6.24382 0.812816Z" stroke="#000001" stroke-linecap="round" stroke-linejoin="round"/>
</g>
<defs>
<clipPath id="clip0_6_4220">
<rect width="14" height="14" fill="white"/>
</clipPath>
</defs>
</svg>
