<svg width="15" height="14" viewBox="0 0 15 14" fill="none" xmlns="http://www.w3.org/2000/svg">
<path d="M12.0191 8.5H3.0191L2.2591 12.3C2.23048 12.4453 2.23447 12.5951 2.27078 12.7386C2.3071 12.8821 2.37484 13.0158 2.4691 13.13C2.56215 13.2447 2.67946 13.3374 2.8126 13.4014C2.94574 13.4653 3.09139 13.499 3.2391 13.5H11.7991C11.9468 13.499 12.0925 13.4653 12.2256 13.4014C12.3587 13.3374 12.476 13.2447 12.5691 13.13C12.6634 13.0158 12.7311 12.8821 12.7674 12.7386C12.8037 12.5951 12.8077 12.4453 12.7791 12.3L12.0191 8.5Z" stroke="#000001" stroke-linecap="round" stroke-linejoin="round"/>
<path d="M12.0195 5.5C12.2847 5.5 12.5391 5.60536 12.7266 5.79289C12.9142 5.98043 13.0195 6.23478 13.0195 6.5V8.5H2.01953V6.5C2.01953 6.23478 2.12489 5.98043 2.31242 5.79289C2.49996 5.60536 2.75431 5.5 3.01953 5.5H4.51953C4.78475 5.5 5.0391 5.39464 5.22664 5.20711C5.41417 5.01957 5.51953 4.76522 5.51953 4.5V2.5C5.51953 1.96957 5.73024 1.46086 6.10532 1.08579C6.48039 0.710714 6.9891 0.5 7.51953 0.5C8.04996 0.5 8.55867 0.710714 8.93374 1.08579C9.30882 1.46086 9.51953 1.96957 9.51953 2.5V4.5C9.51953 4.76522 9.62489 5.01957 9.81242 5.20711C9.99996 5.39464 10.2543 5.5 10.5195 5.5H12.0195Z" stroke="#000001" stroke-linecap="round" stroke-linejoin="round"/>
<path d="M9.01953 13.5V11" stroke="#000001" stroke-linecap="round" stroke-linejoin="round"/>
</svg>
