<svg width="14" height="14" viewBox="0 0 14 14" fill="none" xmlns="http://www.w3.org/2000/svg">
<g clip-path="url(#clip0_6_2166)">
<path d="M13.2793 9.38977L9.38928 13.2798C9.24866 13.4202 9.05803 13.4991 8.85928 13.4991C8.66053 13.4991 8.46991 13.4202 8.32928 13.2798L0.609281 5.55977C0.57049 5.52269 0.54048 5.4774 0.521448 5.42722C0.502415 5.37705 0.494842 5.32325 0.499281 5.26977L1.08928 1.43977C1.09409 1.3485 1.13251 1.26225 1.19714 1.19763C1.26176 1.133 1.34802 1.09458 1.43928 1.08977L5.26928 0.499769C5.32276 0.49533 5.37656 0.502904 5.42673 0.521936C5.47691 0.540969 5.5222 0.570978 5.55928 0.609769L13.2793 8.32977C13.4197 8.47039 13.4986 8.66102 13.4986 8.85977C13.4986 9.05852 13.4197 9.24914 13.2793 9.38977V9.38977Z" stroke="#000001" stroke-linecap="round" stroke-linejoin="round"/>
<path d="M4.10938 4.60986C4.38552 4.60986 4.60938 4.38601 4.60938 4.10986C4.60938 3.83372 4.38552 3.60986 4.10938 3.60986C3.83323 3.60986 3.60938 3.83372 3.60938 4.10986C3.60938 4.38601 3.83323 4.60986 4.10938 4.60986Z" stroke="#000001" stroke-linecap="round" stroke-linejoin="round"/>
</g>
<defs>
<clipPath id="clip0_6_2166">
<rect width="14" height="14" fill="white"/>
</clipPath>
</defs>
</svg>
