<svg width="14" height="14" viewBox="0 0 14 14" fill="none" xmlns="http://www.w3.org/2000/svg">
<g clip-path="url(#clip0_6_3222)">
<path d="M3.25 11C3.11193 11 3 10.8881 3 10.75C3 10.6119 3.11193 10.5 3.25 10.5" stroke="#000001" stroke-linecap="round" stroke-linejoin="round"/>
<path d="M3.25 11C3.38807 11 3.5 10.8881 3.5 10.75C3.5 10.6119 3.38807 10.5 3.25 10.5" stroke="#000001" stroke-linecap="round" stroke-linejoin="round"/>
<path d="M7.25 11C7.11193 11 7 10.8881 7 10.75C7 10.6119 7.11193 10.5 7.25 10.5" stroke="#000001" stroke-linecap="round" stroke-linejoin="round"/>
<path d="M7.25 11C7.38807 11 7.5 10.8881 7.5 10.75C7.5 10.6119 7.38807 10.5 7.25 10.5" stroke="#000001" stroke-linecap="round" stroke-linejoin="round"/>
<path d="M10.75 11C10.6119 11 10.5 10.8881 10.5 10.75C10.5 10.6119 10.6119 10.5 10.75 10.5" stroke="#000001" stroke-linecap="round" stroke-linejoin="round"/>
<path d="M10.75 11C10.8881 11 11 10.8881 11 10.75C11 10.6119 10.8881 10.5 10.75 10.5" stroke="#000001" stroke-linecap="round" stroke-linejoin="round"/>
<path d="M12.75 13.5C12.6119 13.5 12.5 13.3881 12.5 13.25C12.5 13.1119 12.6119 13 12.75 13" stroke="#000001" stroke-linecap="round" stroke-linejoin="round"/>
<path d="M12.75 13.5C12.8881 13.5 13 13.3881 13 13.25C13 13.1119 12.8881 13 12.75 13" stroke="#000001" stroke-linecap="round" stroke-linejoin="round"/>
<path d="M9 13.5C8.86193 13.5 8.75 13.3881 8.75 13.25C8.75 13.1119 8.86193 13 9 13" stroke="#000001" stroke-linecap="round" stroke-linejoin="round"/>
<path d="M9 13.5C9.13807 13.5 9.25 13.3881 9.25 13.25C9.25 13.1119 9.13807 13 9 13" stroke="#000001" stroke-linecap="round" stroke-linejoin="round"/>
<path d="M5 13.5C4.86193 13.5 4.75 13.3881 4.75 13.25C4.75 13.1119 4.86193 13 5 13" stroke="#000001" stroke-linecap="round" stroke-linejoin="round"/>
<path d="M5 13.5C5.13807 13.5 5.25 13.3881 5.25 13.25C5.25 13.1119 5.13807 13 5 13" stroke="#000001" stroke-linecap="round" stroke-linejoin="round"/>
<path d="M1.25 13.5C1.11193 13.5 1 13.3881 1 13.25C1 13.1119 1.11193 13 1.25 13" stroke="#000001" stroke-linecap="round" stroke-linejoin="round"/>
<path d="M1.25 13.5C1.38807 13.5 1.5 13.3881 1.5 13.25C1.5 13.1119 1.38807 13 1.25 13" stroke="#000001" stroke-linecap="round" stroke-linejoin="round"/>
<path d="M10.5002 8C11.1632 8 11.7991 7.73661 12.268 7.26777C12.7368 6.79892 13.0002 6.16304 13.0002 5.5C13.0002 4.83696 12.7368 4.20107 12.268 3.73223C11.7991 3.26339 11.1632 3 10.5002 3C9.92995 3.0019 9.37694 3.19563 8.93018 3.55C8.7973 2.85062 8.46808 2.20351 7.98101 1.68432C7.49394 1.16512 6.86915 0.795297 6.17967 0.618068C5.49019 0.440839 4.76451 0.463529 4.08745 0.683485C3.41038 0.903442 2.80992 1.31158 2.35624 1.86018C1.90256 2.40879 1.61441 3.0752 1.52547 3.78152C1.43654 4.48784 1.55049 5.20488 1.85401 5.84883C2.15753 6.49278 2.63808 7.03703 3.23948 7.41796C3.84088 7.7989 4.53829 8.00077 5.25018 8H10.5002Z" stroke="#000001" stroke-linecap="round" stroke-linejoin="round"/>
</g>
<defs>
<clipPath id="clip0_6_3222">
<rect width="14" height="14" fill="white"/>
</clipPath>
</defs>
</svg>
