<svg width="14" height="14" viewBox="0 0 14 14" fill="none" xmlns="http://www.w3.org/2000/svg">
<g clip-path="url(#clip0_6_2399)">
<path d="M2.18075 5.44C2.30999 5.53202 2.41548 5.65346 2.48851 5.79431C2.56154 5.93515 2.60002 6.09135 2.60075 6.25C2.62102 6.39508 2.60557 6.54291 2.55574 6.68067C2.50591 6.81842 2.4232 6.94193 2.31481 7.04047C2.20642 7.13901 2.07561 7.2096 1.93375 7.24611C1.79188 7.28263 1.64325 7.28396 1.50075 7.25C0.540749 7 0.0907491 5.57 1.00075 3.25" stroke="#000001" stroke-linecap="round" stroke-linejoin="round"/>
<path d="M5.70036 5.44C5.83145 5.53092 5.93888 5.65189 6.01369 5.7928C6.08849 5.93371 6.1285 6.09048 6.13036 6.25C6.15063 6.39508 6.13518 6.54291 6.08535 6.68067C6.03552 6.81842 5.95282 6.94193 5.84442 7.04047C5.73603 7.13901 5.60522 7.2096 5.46336 7.24611C5.32149 7.28263 5.17286 7.28396 5.03036 7.25C4.03036 7.06 3.62036 5.59 4.50036 3.25" stroke="#000001" stroke-linecap="round" stroke-linejoin="round"/>
<path d="M11.8212 8.56011C11.692 8.46809 11.5865 8.34664 11.5135 8.2058C11.4404 8.06496 11.402 7.90876 11.4012 7.75011C11.381 7.60503 11.3964 7.45719 11.4462 7.31944C11.4961 7.18169 11.5788 7.05818 11.6872 6.95964C11.7956 6.8611 11.9264 6.79051 12.0682 6.75399C12.2101 6.71748 12.3587 6.71615 12.5012 6.75011C13.5012 6.94011 13.9112 8.41011 13.0212 10.7501" stroke="#000001" stroke-linecap="round" stroke-linejoin="round"/>
<path d="M8.29998 8.56011C8.1689 8.46918 8.06146 8.34822 7.98666 8.2073C7.91185 8.06639 7.87185 7.90963 7.86998 7.75011C7.84972 7.60503 7.86517 7.45719 7.915 7.31944C7.96483 7.18169 8.04753 7.05818 8.15592 6.95964C8.26432 6.8611 8.39512 6.79051 8.53699 6.75399C8.67885 6.71748 8.82749 6.71615 8.96998 6.75011C9.96998 6.94011 10.38 8.41011 9.49998 10.7501" stroke="#000001" stroke-linecap="round" stroke-linejoin="round"/>
</g>
<defs>
<clipPath id="clip0_6_2399">
<rect width="14" height="14" fill="white"/>
</clipPath>
</defs>
</svg>
