<svg width="15" height="14" viewBox="0 0 15 14" fill="none" xmlns="http://www.w3.org/2000/svg">
<path d="M13 10C13 10.2652 12.8946 10.5196 12.7071 10.7071C12.5196 10.8946 12.2652 11 12 11H5.5C5.23478 11 4.98043 10.8946 4.79289 10.7071C4.60536 10.5196 4.5 10.2652 4.5 10V1.5C4.5 1.23478 4.60536 0.98043 4.79289 0.792893C4.98043 0.605357 5.23478 0.5 5.5 0.5H10L13 3.5V10Z" stroke="#000001" stroke-linecap="round" stroke-linejoin="round"/>
<path d="M10 13.5H3C2.73478 13.5 2.48043 13.3946 2.29289 13.2071C2.10536 13.0196 2 12.7652 2 12.5V3.5" stroke="#000001" stroke-linecap="round" stroke-linejoin="round"/>
</svg>
