<svg width="14" height="14" viewBox="0 0 14 14" fill="none" xmlns="http://www.w3.org/2000/svg">
<g clip-path="url(#clip0_6_2198)">
<path d="M5.00084 9.42987C4.58233 9.7885 4.05191 9.99006 3.50084 9.99987C3.09726 10.0386 2.6901 9.98757 2.30853 9.85049C1.92696 9.71342 1.58043 9.49367 1.29374 9.20697C1.00705 8.92028 0.787296 8.57375 0.65022 8.19218C0.513143 7.81061 0.462134 7.40346 0.500845 6.99987C0.462134 6.59628 0.513143 6.18912 0.65022 5.80756C0.787296 5.42599 1.00705 5.07945 1.29374 4.79276C1.58043 4.50607 1.92696 4.28632 2.30853 4.14924C2.6901 4.01217 3.09726 3.96116 3.50084 3.99987C6.25084 3.99987 7.75084 9.99987 10.5008 9.99987C10.9044 10.0386 11.3116 9.98757 11.6932 9.85049C12.0747 9.71342 12.4213 9.49367 12.708 9.20697C12.9946 8.92028 13.2144 8.57375 13.3515 8.19218C13.4885 7.81061 13.5396 7.40346 13.5008 6.99987C13.5396 6.59628 13.4885 6.18912 13.3515 5.80756C13.2144 5.42599 12.9946 5.07945 12.708 4.79276C12.4213 4.50607 12.0747 4.28632 11.6932 4.14924C11.3116 4.01217 10.9044 3.96116 10.5008 3.99987C9.96709 4.02103 9.45613 4.22189 9.05085 4.56987" stroke="#000001" stroke-linecap="round" stroke-linejoin="round"/>
</g>
<defs>
<clipPath id="clip0_6_2198">
<rect width="14" height="14" fill="white"/>
</clipPath>
</defs>
</svg>
