<svg width="14" height="14" viewBox="0 0 14 14" fill="none" xmlns="http://www.w3.org/2000/svg">
<g clip-path="url(#clip0_6_2170)">
<path d="M6.87109 9.5C9.35638 9.5 11.3711 7.48528 11.3711 5C11.3711 2.51472 9.35638 0.5 6.87109 0.5C4.38581 0.5 2.37109 2.51472 2.37109 5C2.37109 7.48528 4.38581 9.5 6.87109 9.5Z" stroke="#000001" stroke-linecap="round" stroke-linejoin="round"/>
<path d="M6.87109 7C7.97566 7 8.87109 6.10457 8.87109 5C8.87109 3.89543 7.97566 3 6.87109 3C5.76652 3 4.87109 3.89543 4.87109 5C4.87109 6.10457 5.76652 7 6.87109 7Z" stroke="#000001" stroke-linecap="round" stroke-linejoin="round"/>
<path d="M6.00038 9.42L5.12038 13.12C5.10297 13.1903 5.07077 13.2561 5.02594 13.313C4.98111 13.3699 4.92467 13.4166 4.86038 13.45C4.79253 13.4795 4.71935 13.4946 4.64538 13.4946C4.57142 13.4946 4.49824 13.4795 4.43038 13.45L1.11038 12C1.04074 11.9671 0.979468 11.9188 0.931153 11.8588C0.882838 11.7988 0.848741 11.7287 0.83142 11.6536C0.814099 11.5786 0.814005 11.5005 0.831145 11.4254C0.848285 11.3503 0.882214 11.2801 0.930384 11.22L3.50038 8" stroke="#000001" stroke-linecap="round" stroke-linejoin="round"/>
<path d="M8 9.37006L8.9 13.1201C8.9179 13.1916 8.95138 13.2582 8.99806 13.3153C9.04474 13.3723 9.10345 13.4184 9.17 13.4501C9.23599 13.4799 9.30758 13.4953 9.38 13.4953C9.45242 13.4953 9.52401 13.4799 9.59 13.4501L12.89 12.0001C12.9607 11.9675 13.0228 11.919 13.0714 11.8582C13.12 11.7974 13.1538 11.7262 13.17 11.6501C13.189 11.5756 13.1898 11.4977 13.1724 11.4229C13.155 11.3481 13.1199 11.2785 13.07 11.2201L10.39 7.81006" stroke="#000001" stroke-linecap="round" stroke-linejoin="round"/>
</g>
<defs>
<clipPath id="clip0_6_2170">
<rect width="14" height="14" fill="white"/>
</clipPath>
</defs>
</svg>
