<svg width="15" height="14" viewBox="0 0 15 14" fill="none" xmlns="http://www.w3.org/2000/svg">
<g clip-path="url(#clip0_6_1609)">
<path d="M9.01953 0.670069C8.03239 0.44331 7.00668 0.44331 6.01953 0.670069" stroke="#000001" stroke-linecap="round" stroke-linejoin="round"/>
<path d="M4.11023 1.47021C3.68119 1.73639 3.2822 2.04821 2.92023 2.40021C2.56822 2.76218 2.25641 3.16117 1.99023 3.59021" stroke="#000001" stroke-linecap="round" stroke-linejoin="round"/>
<path d="M1.1896 5.5C0.962842 6.48715 0.962842 7.51285 1.1896 8.5" stroke="#000001" stroke-linecap="round" stroke-linejoin="round"/>
<path d="M1.99023 10.4102C2.25641 10.8392 2.56822 11.2382 2.92023 11.6002C3.2822 11.9522 3.68119 12.264 4.11023 12.5302" stroke="#000001" stroke-linecap="round" stroke-linejoin="round"/>
<path d="M6.01953 13.3301C7.00668 13.5568 8.03239 13.5568 9.01953 13.3301" stroke="#000001" stroke-linecap="round" stroke-linejoin="round"/>
<path d="M10.9297 12.5302C11.3587 12.264 11.7577 11.9522 12.1197 11.6002C12.4717 11.2382 12.7835 10.8392 13.0497 10.4102" stroke="#000001" stroke-linecap="round" stroke-linejoin="round"/>
<path d="M13.8496 8.5C14.0764 7.51285 14.0764 6.48715 13.8496 5.5" stroke="#000001" stroke-linecap="round" stroke-linejoin="round"/>
<path d="M13.0497 3.59021C12.7835 3.16117 12.4717 2.76218 12.1197 2.40021C11.7577 2.04821 11.3587 1.73639 10.9297 1.47021" stroke="#000001" stroke-linecap="round" stroke-linejoin="round"/>
</g>
<defs>
<clipPath id="clip0_6_1609">
<rect width="14" height="14" fill="white" transform="translate(0.519531)"/>
</clipPath>
</defs>
</svg>
