<svg width="15" height="14" viewBox="0 0 15 14" fill="none" xmlns="http://www.w3.org/2000/svg">
<path d="M2.75 5.00003L7.24 0.610025C7.2736 0.574936 7.31396 0.547012 7.35865 0.527935C7.40333 0.508858 7.45141 0.499023 7.5 0.499023C7.54859 0.499023 7.59667 0.508858 7.64135 0.527935C7.68604 0.547012 7.7264 0.574936 7.76 0.610025L12.25 5.00003" stroke="#000001" stroke-linecap="round" stroke-linejoin="round"/>
<path d="M2.75 9L7.24 13.39C7.2736 13.4251 7.31396 13.453 7.35865 13.4721C7.40333 13.4912 7.45141 13.501 7.5 13.501C7.54859 13.501 7.59667 13.4912 7.64135 13.4721C7.68604 13.453 7.7264 13.4251 7.76 13.39L12.25 9" stroke="#000001" stroke-linecap="round" stroke-linejoin="round"/>
</svg>
