<svg width="15" height="14" viewBox="0 0 15 14" fill="none" xmlns="http://www.w3.org/2000/svg">
<g clip-path="url(#clip0_6_2229)">
<path d="M9.5 2.25L13.89 6.74C13.9251 6.7736 13.953 6.81396 13.9721 6.85865C13.9912 6.90333 14.001 6.95141 14.001 7C14.001 7.04859 13.9912 7.09667 13.9721 7.14135C13.953 7.18604 13.9251 7.2264 13.89 7.26L9.5 11.75" stroke="#000001" stroke-linecap="round" stroke-linejoin="round"/>
<path d="M5.49905 2.25L1.10905 6.74C1.07396 6.7736 1.04604 6.81396 1.02696 6.85865C1.00788 6.90333 0.998047 6.95141 0.998047 7C0.998047 7.04859 1.00788 7.09667 1.02696 7.14135C1.04604 7.18604 1.07396 7.2264 1.10905 7.26L5.49905 11.75" stroke="#000001" stroke-linecap="round" stroke-linejoin="round"/>
</g>
<defs>
<clipPath id="clip0_6_2229">
<rect width="14" height="14" fill="white" transform="translate(0.5)"/>
</clipPath>
</defs>
</svg>
