<svg width="15" height="14" viewBox="0 0 15 14" fill="none" xmlns="http://www.w3.org/2000/svg">
<g clip-path="url(#clip0_6_1489)">
<path d="M9.33029 12.07C8.87854 12.5217 8.34224 12.8801 7.752 13.1246C7.16176 13.3691 6.52915 13.4949 5.89029 13.4949C4.60003 13.4949 3.36263 12.9823 2.45029 12.07C1.53794 11.1577 1.02539 9.92025 1.02539 8.63C1.02539 7.33975 1.53794 6.10234 2.45029 5.19L7.14029 0.5L9.33029 2.69L5.03029 7C4.75388 7.33984 4.61332 7.7701 4.63577 8.20758C4.65823 8.64506 4.84212 9.05867 5.15187 9.36842C5.46162 9.67817 5.87523 9.86205 6.3127 9.88451C6.75018 9.90697 7.18044 9.7664 7.52029 9.49L11.8203 5.19L14.0203 7.38L9.33029 12.07Z" stroke="#000001" stroke-linecap="round" stroke-linejoin="round"/>
<path d="M9.71094 7.31006L11.9009 9.50006" stroke="#000001" stroke-linecap="round" stroke-linejoin="round"/>
<path d="M5.01953 2.62012L7.20953 4.81012" stroke="#000001" stroke-linecap="round" stroke-linejoin="round"/>
</g>
<defs>
<clipPath id="clip0_6_1489">
<rect width="14" height="14" fill="white" transform="translate(0.519531)"/>
</clipPath>
</defs>
</svg>
