<svg width="15" height="14" viewBox="0 0 15 14" fill="none" xmlns="http://www.w3.org/2000/svg">
<g clip-path="url(#clip0_6_1560)">
<path d="M12.9803 1.54006C12.6531 1.2099 12.2636 0.947826 11.8346 0.768978C11.4055 0.590129 10.9452 0.498047 10.4803 0.498047C10.0155 0.498047 9.55518 0.590129 9.12609 0.768978C8.697 0.947826 8.30758 1.2099 7.98032 1.54006L3.39032 6.13006C2.93556 6.5841 2.6386 7.17216 2.54319 7.80766C2.44777 8.44316 2.55894 9.0925 2.86032 9.66006L1.31032 11.2101C1.12407 11.3974 1.01953 11.6509 1.01953 11.9151C1.01953 12.1792 1.12407 12.4327 1.31032 12.6201L1.90032 13.2101C2.08769 13.3963 2.34114 13.5009 2.60532 13.5009C2.86951 13.5009 3.12296 13.3963 3.31032 13.2101L4.86032 11.6601C5.42789 11.9614 6.07723 12.0726 6.71273 11.9772C7.34822 11.8818 7.93629 11.5848 8.39032 11.1301L12.9803 6.54006C13.3105 6.21281 13.5726 5.82339 13.7514 5.3943C13.9303 4.96521 14.0223 4.50494 14.0223 4.04006C14.0223 3.57519 13.9303 3.11492 13.7514 2.68583C13.5726 2.25674 13.3105 1.86732 12.9803 1.54006V1.54006Z" stroke="#000001" stroke-linecap="round" stroke-linejoin="round"/>
<path d="M5.01953 1.5L13.0195 9.5" stroke="#000001" stroke-linecap="round" stroke-linejoin="round"/>
</g>
<defs>
<clipPath id="clip0_6_1560">
<rect width="14" height="14" fill="white" transform="translate(0.519531)"/>
</clipPath>
</defs>
</svg>
