<svg width="14" height="14" viewBox="0 0 14 14" fill="none" xmlns="http://www.w3.org/2000/svg">
<g clip-path="url(#clip0_6_3417)">
<path d="M7 8C8.38071 8 9.5 6.88071 9.5 5.5C9.5 4.11929 8.38071 3 7 3C5.61929 3 4.5 4.11929 4.5 5.5C4.5 6.88071 5.61929 8 7 8Z" stroke="#000001" stroke-linecap="round" stroke-linejoin="round"/>
<path d="M2.09961 13.5001C2.32912 12.3698 2.94234 11.3537 3.83535 10.6238C4.72836 9.89385 5.84625 9.49512 6.99961 9.49512C8.15297 9.49512 9.27086 9.89385 10.1639 10.6238C11.0569 11.3537 11.6701 12.3698 11.8996 13.5001" stroke="#000001" stroke-linecap="round" stroke-linejoin="round"/>
<path d="M12.5 0.5H1.5C0.947715 0.5 0.5 0.947715 0.5 1.5V12.5C0.5 13.0523 0.947715 13.5 1.5 13.5H12.5C13.0523 13.5 13.5 13.0523 13.5 12.5V1.5C13.5 0.947715 13.0523 0.5 12.5 0.5Z" stroke="#000001" stroke-linecap="round" stroke-linejoin="round"/>
</g>
<defs>
<clipPath id="clip0_6_3417">
<rect width="14" height="14" fill="white"/>
</clipPath>
</defs>
</svg>
