<svg width="15" height="14" viewBox="0 0 15 14" fill="none" xmlns="http://www.w3.org/2000/svg">
<path d="M4.75 11.5L5.25 10.5" stroke="#000001" stroke-linecap="round" stroke-linejoin="round"/>
<path d="M9.25 11.5L9.75 10.5" stroke="#000001" stroke-linecap="round" stroke-linejoin="round"/>
<path d="M6.5 13.5L7 12.5" stroke="#000001" stroke-linecap="round" stroke-linejoin="round"/>
<path d="M2 13.5L2.5 12.5" stroke="#000001" stroke-linecap="round" stroke-linejoin="round"/>
<path d="M11 13.5L11.5 12.5" stroke="#000001" stroke-linecap="round" stroke-linejoin="round"/>
<path d="M11.0002 8C11.6632 8 12.2991 7.73661 12.768 7.26777C13.2368 6.79892 13.5002 6.16304 13.5002 5.5C13.5002 4.83696 13.2368 4.20107 12.768 3.73223C12.2991 3.26339 11.6632 3 11.0002 3C10.4299 3.0019 9.87694 3.19563 9.43018 3.55C9.2973 2.85062 8.96808 2.20351 8.48101 1.68432C7.99394 1.16512 7.36915 0.795297 6.67967 0.618068C5.99019 0.440839 5.26451 0.463529 4.58744 0.683485C3.91038 0.903442 3.30992 1.31158 2.85624 1.86018C2.40256 2.40879 2.11441 3.0752 2.02547 3.78152C1.93654 4.48784 2.05049 5.20488 2.35401 5.84883C2.65753 6.49278 3.13808 7.03703 3.73948 7.41796C4.34088 7.7989 5.03829 8.00077 5.75018 8H11.0002Z" stroke="#000001" stroke-linecap="round" stroke-linejoin="round"/>
</svg>
