<svg width="14" height="14" viewBox="0 0 14 14" fill="none" xmlns="http://www.w3.org/2000/svg">
<g clip-path="url(#clip0_6_1665)">
<path d="M13.5 3.5H0.5V6.5H13.5V3.5Z" stroke="#000001" stroke-linecap="round" stroke-linejoin="round"/>
<path d="M3 0.5H11C11.1326 0.5 11.2598 0.552678 11.3536 0.646447C11.4473 0.740215 11.5 0.867392 11.5 1V3.5H2.5V1C2.5 0.867392 2.55268 0.740215 2.64645 0.646447C2.74021 0.552678 2.86739 0.5 3 0.5Z" stroke="#000001" stroke-linecap="round" stroke-linejoin="round"/>
<path d="M3 9.5C3.82843 9.5 4.5 8.82843 4.5 8C4.5 7.17157 3.82843 6.5 3 6.5C2.17157 6.5 1.5 7.17157 1.5 8C1.5 8.82843 2.17157 9.5 3 9.5Z" stroke="#000001" stroke-linecap="round" stroke-linejoin="round"/>
<path d="M11 9.5C11.8284 9.5 12.5 8.82843 12.5 8C12.5 7.17157 11.8284 6.5 11 6.5C10.1716 6.5 9.5 7.17157 9.5 8C9.5 8.82843 10.1716 9.5 11 9.5Z" stroke="#000001" stroke-linecap="round" stroke-linejoin="round"/>
<path d="M2.5 9.41016V12.5002C2.5 12.7654 2.60536 13.0197 2.79289 13.2073C2.98043 13.3948 3.23478 13.5002 3.5 13.5002H10.5C10.7652 13.5002 11.0196 13.3948 11.2071 13.2073C11.3946 13.0197 11.5 12.7654 11.5 12.5002V9.41016" stroke="#000001" stroke-linecap="round" stroke-linejoin="round"/>
<path d="M2.5 9.5H11.5" stroke="#000001" stroke-linecap="round" stroke-linejoin="round"/>
</g>
<defs>
<clipPath id="clip0_6_1665">
<rect width="14" height="14" fill="white"/>
</clipPath>
</defs>
</svg>
