<svg width="14" height="14" viewBox="0 0 14 14" fill="none" xmlns="http://www.w3.org/2000/svg">
<g clip-path="url(#clip0_6_1973)">
<path d="M12.5 0.5H1.5C0.947715 0.5 0.5 0.947715 0.5 1.5V12.5C0.5 13.0523 0.947715 13.5 1.5 13.5H12.5C13.0523 13.5 13.5 13.0523 13.5 12.5V1.5C13.5 0.947715 13.0523 0.5 12.5 0.5Z" stroke="#000001" stroke-linecap="round" stroke-linejoin="round"/>
<path d="M3 4.5H8" stroke="#000001" stroke-linecap="round" stroke-linejoin="round"/>
<path d="M9.5 6C10.3284 6 11 5.32843 11 4.5C11 3.67157 10.3284 3 9.5 3C8.67157 3 8 3.67157 8 4.5C8 5.32843 8.67157 6 9.5 6Z" stroke="#000001" stroke-linecap="round" stroke-linejoin="round"/>
<path d="M11 9.5H8" stroke="#000001" stroke-linecap="round" stroke-linejoin="round"/>
<path d="M5 9.5H3" stroke="#000001" stroke-linecap="round" stroke-linejoin="round"/>
<path d="M6.5 11C7.32843 11 8 10.3284 8 9.5C8 8.67157 7.32843 8 6.5 8C5.67157 8 5 8.67157 5 9.5C5 10.3284 5.67157 11 6.5 11Z" stroke="#000001" stroke-linecap="round" stroke-linejoin="round"/>
</g>
<defs>
<clipPath id="clip0_6_1973">
<rect width="14" height="14" fill="white"/>
</clipPath>
</defs>
</svg>
