<svg width="14" height="14" viewBox="0 0 14 14" fill="none" xmlns="http://www.w3.org/2000/svg">
<g clip-path="url(#clip0_6_4204)">
<path d="M8.92078 1.25C9.45808 1.65297 9.85497 2.21479 10.0552 2.85586C10.2555 3.49694 10.249 4.18477 10.0366 4.82193C9.82418 5.45909 9.4167 6.01327 8.87185 6.40597C8.327 6.79868 7.67241 7.01 7.00078 7.01C6.32916 7.01 5.67456 6.79868 5.12971 6.40597C4.58486 6.01327 4.17738 5.45909 3.96499 4.82193C3.75261 4.18477 3.74608 3.49694 3.94634 2.85586C4.14659 2.21479 4.54348 1.65297 5.08078 1.25" stroke="#000001" stroke-linecap="round" stroke-linejoin="round"/>
<path d="M0.5 9.17016C0.579261 8.50297 0.866515 7.87765 1.32104 7.38285C1.77557 6.88805 2.37431 6.54887 3.03239 6.41339C3.69047 6.27791 4.37449 6.353 4.98751 6.62802C5.60052 6.90304 6.11142 7.36404 6.44778 7.94566C6.78414 8.52728 6.9289 9.20002 6.86153 9.86851C6.79416 10.537 6.51809 11.1673 6.07244 11.6702C5.6268 12.173 5.03419 12.5228 4.37863 12.6699C3.72307 12.8171 3.03781 12.7542 2.42 12.4902" stroke="#000001" stroke-linecap="round" stroke-linejoin="round"/>
<path d="M11.5794 12.49C10.9635 12.7516 10.2809 12.8128 9.62831 12.6651C8.97568 12.5173 8.38603 12.1681 7.94279 11.6668C7.49955 11.1655 7.22517 10.5376 7.15847 9.87176C7.09177 9.20595 7.23612 8.53603 7.57111 7.95678C7.9061 7.37753 8.41476 6.91828 9.02511 6.64403C9.63547 6.36977 10.3166 6.29439 10.9722 6.42855C11.6277 6.56271 12.2245 6.89961 12.678 7.3916C13.1316 7.88358 13.4189 8.50573 13.4994 9.17001" stroke="#000001" stroke-linecap="round" stroke-linejoin="round"/>
</g>
<defs>
<clipPath id="clip0_6_4204">
<rect width="14" height="14" fill="white"/>
</clipPath>
</defs>
</svg>
