<svg width="15" height="14" viewBox="0 0 15 14" fill="none" xmlns="http://www.w3.org/2000/svg">
<g clip-path="url(#clip0_6_1839)">
<path d="M14 6C14 5.60218 13.842 5.22064 13.5607 4.93934C13.2794 4.65804 12.8978 4.5 12.5 4.5H7.5L6.06 1.5H2.5C2.10218 1.5 1.72064 1.65804 1.43934 1.93934C1.15804 2.22064 1 2.60218 1 3V11C1 11.3978 1.15804 11.7794 1.43934 12.0607C1.72064 12.342 2.10218 12.5 2.5 12.5H12.5C12.8978 12.5 13.2794 12.342 13.5607 12.0607C13.842 11.7794 14 11.3978 14 11V6Z" stroke="#000001" stroke-linecap="round" stroke-linejoin="round"/>
</g>
<defs>
<clipPath id="clip0_6_1839">
<rect width="14" height="14" fill="white" transform="translate(0.5)"/>
</clipPath>
</defs>
</svg>
