<svg width="14" height="14" viewBox="0 0 14 14" fill="none" xmlns="http://www.w3.org/2000/svg">
<g clip-path="url(#clip0_6_2461)">
<path d="M3.5 10.78L6.64 3.44996C6.66961 3.37889 6.7196 3.31817 6.78367 3.27546C6.84773 3.23275 6.923 3.20996 7 3.20996C7.077 3.20996 7.15227 3.23275 7.21633 3.27546C7.2804 3.31817 7.33039 3.37889 7.36 3.44996L10.5 10.78" stroke="#000001" stroke-linecap="round" stroke-linejoin="round"/>
<path d="M4.68945 8H9.30945" stroke="#000001" stroke-linecap="round" stroke-linejoin="round"/>
<path d="M12.5 0.5H1.5C0.947715 0.5 0.5 0.947715 0.5 1.5V12.5C0.5 13.0523 0.947715 13.5 1.5 13.5H12.5C13.0523 13.5 13.5 13.0523 13.5 12.5V1.5C13.5 0.947715 13.0523 0.5 12.5 0.5Z" stroke="#000001" stroke-linecap="round" stroke-linejoin="round"/>
</g>
<defs>
<clipPath id="clip0_6_2461">
<rect width="14" height="14" fill="white"/>
</clipPath>
</defs>
</svg>
