<svg width="14" height="14" viewBox="0 0 14 14" fill="none" xmlns="http://www.w3.org/2000/svg">
<g clip-path="url(#clip0_6_3595)">
<path d="M8.53898 9.70025L10.539 7.70025L12.659 5.58025C13.2208 5.01775 13.5363 4.25525 13.5363 3.46025C13.5363 2.66525 13.2208 1.90275 12.659 1.34025V1.34025C12.0965 0.778449 11.334 0.462891 10.539 0.462891C9.74398 0.462891 8.98149 0.778449 8.41898 1.34025L6.99898 2.76025L5.45898 4.30025" stroke="#000001" stroke-linecap="round" stroke-linejoin="round"/>
<path d="M3.49931 6.25977L1.37931 8.37977C0.817511 8.94227 0.501953 9.70476 0.501953 10.4998C0.501953 11.2948 0.817511 12.0573 1.37931 12.6198V12.6198C1.94181 13.1816 2.70431 13.4971 3.49931 13.4971C4.29432 13.4971 5.05681 13.1816 5.61931 12.6198L6.61931 11.6198" stroke="#000001" stroke-linecap="round" stroke-linejoin="round"/>
<path d="M4.16992 2.0498L9.82992 11.9498" stroke="#000001" stroke-linecap="round" stroke-linejoin="round"/>
</g>
<defs>
<clipPath id="clip0_6_3595">
<rect width="14" height="14" fill="white"/>
</clipPath>
</defs>
</svg>
