<svg width="15" height="14" viewBox="0 0 15 14" fill="none" xmlns="http://www.w3.org/2000/svg">
<path d="M10.8791 3.48003L8.00914 0.610025C7.97554 0.574936 7.93518 0.547012 7.89049 0.527935C7.84581 0.508858 7.79773 0.499023 7.74914 0.499023C7.70056 0.499023 7.65247 0.508858 7.60779 0.527935C7.56311 0.547012 7.52275 0.574936 7.48914 0.610025L4.61914 3.48003" stroke="#000001" stroke-linecap="round" stroke-linejoin="round"/>
<path d="M10.8791 10.52L8.00914 13.39C7.97554 13.4251 7.93518 13.453 7.89049 13.4721C7.84581 13.4912 7.79773 13.501 7.74914 13.501C7.70056 13.501 7.65247 13.4912 7.60779 13.4721C7.56311 13.453 7.52275 13.4251 7.48914 13.39L4.61914 10.52" stroke="#000001" stroke-linecap="round" stroke-linejoin="round"/>
<path d="M7.75 8.25C8.44036 8.25 9 7.69036 9 7C9 6.30964 8.44036 5.75 7.75 5.75C7.05964 5.75 6.5 6.30964 6.5 7C6.5 7.69036 7.05964 8.25 7.75 8.25Z" stroke="#000001" stroke-linecap="round" stroke-linejoin="round"/>
</svg>
