<svg width="14" height="14" viewBox="0 0 14 14" fill="none" xmlns="http://www.w3.org/2000/svg">
<g clip-path="url(#clip0_6_2011)">
<path d="M13.4309 3.58996C13.4116 3.48517 13.3704 3.38561 13.3101 3.29774C13.2498 3.20988 13.1717 3.13568 13.0809 3.07996L11.0809 5.07996C10.9876 5.17674 10.8758 5.25373 10.752 5.30631C10.6283 5.35889 10.4953 5.38599 10.3609 5.38599C10.2265 5.38599 10.0934 5.35889 9.96971 5.30631C9.846 5.25373 9.73416 5.17674 9.64088 5.07996L8.88088 4.39996C8.69765 4.21303 8.59502 3.96171 8.59502 3.69996C8.59502 3.43821 8.69765 3.18689 8.88088 2.99996L10.8809 0.999961C10.8373 0.897498 10.7717 0.805872 10.6887 0.731567C10.6058 0.657261 10.5075 0.602091 10.4009 0.569961C9.70305 0.430801 8.98017 0.490369 8.31454 0.741884C7.64891 0.993399 7.06727 1.42675 6.63584 1.99261C6.20441 2.55847 5.94053 3.2341 5.87424 3.94257C5.80795 4.65104 5.94191 5.36389 6.26088 5.99996L0.800876 11.41C0.70563 11.5031 0.629951 11.6143 0.578283 11.7371C0.526615 11.8599 0.5 11.9918 0.5 12.125C0.5 12.2582 0.526615 12.39 0.578283 12.5128C0.629951 12.6356 0.70563 12.7468 0.800876 12.84L1.16088 13.2C1.25401 13.2952 1.36523 13.3709 1.48801 13.4226C1.6108 13.4742 1.74266 13.5008 1.87588 13.5008C2.00909 13.5008 2.14096 13.4742 2.26374 13.4226C2.38652 13.3709 2.49774 13.2952 2.59088 13.2L8.05088 7.74996C8.68712 8.05309 9.39497 8.17381 10.0957 8.09868C10.7965 8.02356 11.4626 7.75555 12.0202 7.32445C12.5777 6.89334 13.0047 6.31605 13.2538 5.65675C13.5028 4.99746 13.5641 4.28201 13.4309 3.58996V3.58996Z" stroke="#000001" stroke-linecap="round" stroke-linejoin="round"/>
</g>
<defs>
<clipPath id="clip0_6_2011">
<rect width="14" height="14" fill="white"/>
</clipPath>
</defs>
</svg>
