<svg width="14" height="14" viewBox="0 0 14 14" fill="none" xmlns="http://www.w3.org/2000/svg">
<g clip-path="url(#clip0_6_2748)">
<path d="M7 8.5C7.82843 8.5 8.5 7.82843 8.5 7C8.5 6.17157 7.82843 5.5 7 5.5C6.17157 5.5 5.5 6.17157 5.5 7C5.5 7.82843 6.17157 8.5 7 8.5Z" stroke="#000001" stroke-linecap="round" stroke-linejoin="round"/>
<path d="M9 0.5H13C13.1326 0.5 13.2598 0.552678 13.3536 0.646447C13.4473 0.740215 13.5 0.867392 13.5 1V5" stroke="#000001" stroke-linecap="round" stroke-linejoin="round"/>
<path d="M5 13.5H1C0.867392 13.5 0.740215 13.4473 0.646447 13.3536C0.552678 13.2598 0.5 13.1326 0.5 13V9" stroke="#000001" stroke-linecap="round" stroke-linejoin="round"/>
</g>
<defs>
<clipPath id="clip0_6_2748">
<rect width="14" height="14" fill="white"/>
</clipPath>
</defs>
</svg>
