<svg width="15" height="14" viewBox="0 0 15 14" fill="none" xmlns="http://www.w3.org/2000/svg">
<g clip-path="url(#clip0_6_3187)">
<path d="M5 11.5L5.5 10.5" stroke="#000001" stroke-linecap="round" stroke-linejoin="round"/>
<path d="M9.5 11.5L10 10.5" stroke="#000001" stroke-linecap="round" stroke-linejoin="round"/>
<path d="M6.75 13.5L7.25 12.5" stroke="#000001" stroke-linecap="round" stroke-linejoin="round"/>
<path d="M2.25 13.5L2.75 12.5" stroke="#000001" stroke-linecap="round" stroke-linejoin="round"/>
<path d="M11.25 13.5L11.75 12.5" stroke="#000001" stroke-linecap="round" stroke-linejoin="round"/>
<path d="M11.7495 8.00014C12.1048 8.00119 12.4563 7.92648 12.7804 7.781C13.1046 7.63552 13.394 7.42261 13.6295 7.15647C13.8649 6.89033 14.0408 6.57706 14.1456 6.23756C14.2504 5.89806 14.2817 5.54011 14.2372 5.18759C14.1928 4.83506 14.0738 4.49606 13.888 4.19317C13.7022 3.89028 13.4541 3.63046 13.16 3.43104C12.8659 3.23162 12.5327 3.09718 12.1826 3.03667C11.8325 2.97616 11.4735 2.99098 11.1295 3.08014C10.9296 2.33656 10.4901 1.67965 9.87905 1.21116C9.268 0.742678 8.5195 0.48877 7.74952 0.48877C6.97954 0.48877 6.23105 0.742678 5.61999 1.21116C5.00893 1.67965 4.56941 2.33656 4.36952 3.08014C4.02558 2.99098 3.66658 2.97616 3.31646 3.03667C2.96633 3.09718 2.63313 3.23162 2.33906 3.43104C2.04498 3.63046 1.7968 3.89028 1.61104 4.19317C1.42529 4.49606 1.30623 4.83506 1.2618 5.18759C1.21738 5.54011 1.24861 5.89806 1.35342 6.23756C1.45822 6.57706 1.63419 6.89033 1.86959 7.15647C2.105 7.42261 2.39443 7.63552 2.71859 7.781C3.04276 7.92648 3.39421 8.00119 3.74952 8.00014H11.7495Z" stroke="#000001" stroke-linecap="round" stroke-linejoin="round"/>
</g>
<defs>
<clipPath id="clip0_6_3187">
<rect width="14" height="14" fill="white" transform="translate(0.75)"/>
</clipPath>
</defs>
</svg>
