<svg width="14" height="14" viewBox="0 0 14 14" fill="none" xmlns="http://www.w3.org/2000/svg">
<g clip-path="url(#clip0_6_1221)">
<path d="M12.9991 6.81013L7.0491 12.8101C6.81824 13.0454 6.5428 13.2322 6.23889 13.3598C5.93498 13.4873 5.6087 13.553 5.2791 13.553C4.94951 13.553 4.62322 13.4873 4.31931 13.3598C4.0154 13.2322 3.73996 13.0454 3.5091 12.8101L1.7291 11.0001C1.26313 10.5268 1.00195 9.88931 1.00195 9.22513C1.00195 8.56096 1.26313 7.92342 1.7291 7.45013L8.0691 1.09013C8.25503 0.902675 8.47623 0.753886 8.71995 0.652349C8.96367 0.550812 9.22508 0.498535 9.4891 0.498535C9.75313 0.498535 10.0145 0.550812 10.2583 0.652349C10.502 0.753886 10.7232 0.902675 10.9091 1.09013L11.6191 1.80013C11.8066 1.98606 11.9553 2.20726 12.0569 2.45098C12.1584 2.6947 12.2107 2.95611 12.2107 3.22013C12.2107 3.48416 12.1584 3.74557 12.0569 3.98928C11.9553 4.233 11.8066 4.45421 11.6191 4.64013L5.9991 10.2801C5.90614 10.3739 5.79554 10.4483 5.67368 10.499C5.55182 10.5498 5.42111 10.5759 5.2891 10.5759C5.15709 10.5759 5.02638 10.5498 4.90452 10.499C4.78267 10.4483 4.67206 10.3739 4.5791 10.2801L4.2291 9.92013C4.13537 9.82717 4.06098 9.71657 4.01021 9.59471C3.95944 9.47285 3.9333 9.34214 3.9333 9.21013C3.9333 9.07812 3.95944 8.94741 4.01021 8.82555C4.06098 8.7037 4.13537 8.59309 4.2291 8.50013L7.9991 4.76013" stroke="#000001" stroke-linecap="round" stroke-linejoin="round"/>
</g>
<defs>
<clipPath id="clip0_6_1221">
<rect width="14" height="14" fill="white"/>
</clipPath>
</defs>
</svg>
