<svg width="15" height="14" viewBox="0 0 15 14" fill="none" xmlns="http://www.w3.org/2000/svg">
<g clip-path="url(#clip0_6_1688)">
<path d="M8.01953 8.99994L5.01953 9.53994L5.51953 6.49994L11.2495 0.789939C11.3425 0.696211 11.4531 0.621816 11.575 0.571048C11.6968 0.520279 11.8275 0.494141 11.9595 0.494141C12.0915 0.494141 12.2222 0.520279 12.3441 0.571048C12.466 0.621816 12.5766 0.696211 12.6695 0.789939L13.7295 1.84994C13.8233 1.9429 13.8977 2.0535 13.9484 2.17536C13.9992 2.29722 14.0253 2.42793 14.0253 2.55994C14.0253 2.69195 13.9992 2.82266 13.9484 2.94452C13.8977 3.06637 13.8233 3.17698 13.7295 3.26994L8.01953 8.99994Z" stroke="#000001" stroke-linecap="round" stroke-linejoin="round"/>
<path d="M12.5195 9.5V12.5C12.5195 12.7652 12.4142 13.0196 12.2266 13.2071C12.0391 13.3946 11.7847 13.5 11.5195 13.5H2.01953C1.75431 13.5 1.49996 13.3946 1.31242 13.2071C1.12489 13.0196 1.01953 12.7652 1.01953 12.5V3C1.01953 2.73478 1.12489 2.48043 1.31242 2.29289C1.49996 2.10536 1.75431 2 2.01953 2H5.01953" stroke="#000001" stroke-linecap="round" stroke-linejoin="round"/>
</g>
<defs>
<clipPath id="clip0_6_1688">
<rect width="14" height="14" fill="white" transform="translate(0.519531)"/>
</clipPath>
</defs>
</svg>
