<svg width="14" height="14" viewBox="0 0 14 14" fill="none" xmlns="http://www.w3.org/2000/svg">
<path d="M10.5 4.75H11.5C11.6326 4.75 11.7598 4.80268 11.8536 4.89645C11.9473 4.99021 12 5.11739 12 5.25V12.75C12 12.8826 11.9473 13.0098 11.8536 13.1036C11.7598 13.1973 11.6326 13.25 11.5 13.25H2.5C2.36739 13.25 2.24021 13.1973 2.14645 13.1036C2.05268 13.0098 2 12.8826 2 12.75V5.25C2 5.11739 2.05268 4.99021 2.14645 4.89645C2.24021 4.80268 2.36739 4.75 2.5 4.75H3.5" stroke="#000001" stroke-linecap="round" stroke-linejoin="round"/>
<path d="M7 0.75V8.75" stroke="#000001" stroke-linecap="round" stroke-linejoin="round"/>
<path d="M5 6.75L7 8.75L9 6.75" stroke="#000001" stroke-linecap="round" stroke-linejoin="round"/>
</svg>
