<svg width="14" height="14" viewBox="0 0 14 14" fill="none" xmlns="http://www.w3.org/2000/svg">
<g clip-path="url(#clip0_6_3548)">
<path d="M1.5 6H2.5C2.63261 6 2.75979 6.05268 2.85355 6.14645C2.94732 6.24021 3 6.36739 3 6.5V9C3 9.13261 2.94732 9.25979 2.85355 9.35355C2.75979 9.44732 2.63261 9.5 2.5 9.5H1.5C1.23478 9.5 0.98043 9.39464 0.792893 9.20711C0.605357 9.01957 0.5 8.76522 0.5 8.5V7C0.5 6.73478 0.605357 6.48043 0.792893 6.29289C0.98043 6.10536 1.23478 6 1.5 6V6Z" stroke="#000001" stroke-linecap="round" stroke-linejoin="round"/>
<path d="M12.5 9.5H11.5C11.3674 9.5 11.2402 9.44732 11.1464 9.35355C11.0527 9.25979 11 9.13261 11 9V6.5C11 6.36739 11.0527 6.24021 11.1464 6.14645C11.2402 6.05268 11.3674 6 11.5 6H12.5C12.7652 6 13.0196 6.10536 13.2071 6.29289C13.3946 6.48043 13.5 6.73478 13.5 7V8.5C13.5 8.76522 13.3946 9.01957 13.2071 9.20711C13.0196 9.39464 12.7652 9.5 12.5 9.5V9.5Z" stroke="#000001" stroke-linecap="round" stroke-linejoin="round"/>
<path d="M9.5 12.25C10.0304 12.25 10.5391 12.0393 10.9142 11.6642C11.2893 11.2891 11.5 10.7804 11.5 10.25V9.5" stroke="#000001" stroke-linecap="round" stroke-linejoin="round"/>
<path d="M8.25 11C8.58152 11 8.89946 11.1317 9.13388 11.3661C9.3683 11.6005 9.5 11.9185 9.5 12.25C9.5 12.5815 9.3683 12.8995 9.13388 13.1339C8.89946 13.3683 8.58152 13.5 8.25 13.5H6.75C6.41848 13.5 6.10054 13.3683 5.86612 13.1339C5.6317 12.8995 5.5 12.5815 5.5 12.25C5.5 11.9185 5.6317 11.6005 5.86612 11.3661C6.10054 11.1317 6.41848 11 6.75 11H8.25Z" stroke="#000001" stroke-linecap="round" stroke-linejoin="round"/>
<path d="M2.5 6V5C2.5 3.80653 2.97411 2.66193 3.81802 1.81802C4.66193 0.974106 5.80653 0.5 7 0.5C8.19347 0.5 9.33807 0.974106 10.182 1.81802C11.0259 2.66193 11.5 3.80653 11.5 5V6" stroke="#000001" stroke-linecap="round" stroke-linejoin="round"/>
<path d="M5.5 4V5.5" stroke="#000001" stroke-linecap="round" stroke-linejoin="round"/>
<path d="M8.5 4V5.5" stroke="#000001" stroke-linecap="round" stroke-linejoin="round"/>
<path d="M5.5 7.5C5.5 8.83 8.5 8.83 8.5 7.5" stroke="#000001" stroke-linecap="round" stroke-linejoin="round"/>
</g>
<defs>
<clipPath id="clip0_6_3548">
<rect width="14" height="14" fill="white"/>
</clipPath>
</defs>
</svg>
