<svg width="15" height="14" viewBox="0 0 15 14" fill="none" xmlns="http://www.w3.org/2000/svg">
<path d="M6.7493 7C6.74151 5.78472 6.41746 4.59241 5.80904 3.54038C5.20061 2.48834 4.32877 1.61283 3.2793 1C4.06273 0.675752 4.90144 0.505972 5.7493 0.5C7.4732 0.5 9.1265 1.18482 10.3455 2.40381C11.5645 3.62279 12.2493 5.27609 12.2493 7C12.2493 8.72391 11.5645 10.3772 10.3455 11.5962C9.1265 12.8152 7.4732 13.5 5.7493 13.5C4.90144 13.494 4.06273 13.3242 3.2793 13C4.32877 12.3872 5.20061 11.5117 5.80904 10.4596C6.41746 9.40759 6.74151 8.21528 6.7493 7V7Z" stroke="#000001" stroke-linecap="round" stroke-linejoin="round"/>
</svg>
