<svg width="14" height="14" viewBox="0 0 14 14" fill="none" xmlns="http://www.w3.org/2000/svg">
<path d="M11.9999 7C11.9999 8.72391 11.3151 10.3772 10.0961 11.5962C8.87709 12.8152 7.22379 13.5 5.49989 13.5C5.1007 13.4995 4.70239 13.4627 4.30989 13.39C2.81841 11.5946 2.00195 9.33407 2.00195 7C2.00195 4.66593 2.81841 2.40538 4.30989 0.61C4.70239 0.537313 5.1007 0.500494 5.49989 0.5C6.35348 0.5 7.19871 0.668127 7.98733 0.994783C8.77594 1.32144 9.4925 1.80023 10.0961 2.40381C10.6997 3.00739 11.1784 3.72394 11.5051 4.51256C11.8318 5.30117 11.9999 6.14641 11.9999 7Z" stroke="#000001" stroke-linecap="round" stroke-linejoin="round"/>
</svg>
