<svg width="14" height="14" viewBox="0 0 14 14" fill="none" xmlns="http://www.w3.org/2000/svg">
<g clip-path="url(#clip0_6_3837)">
<path d="M0.5 0.5V13.5" stroke="#000001" stroke-linecap="round" stroke-linejoin="round"/>
<path d="M8.5 1.5H4C3.44772 1.5 3 1.94772 3 2.5V4.5C3 5.05228 3.44772 5.5 4 5.5H8.5C9.05228 5.5 9.5 5.05228 9.5 4.5V2.5C9.5 1.94772 9.05228 1.5 8.5 1.5Z" stroke="#000001" stroke-linecap="round" stroke-linejoin="round"/>
<path d="M12.5 8.5H4C3.44772 8.5 3 8.94772 3 9.5V11.5C3 12.0523 3.44772 12.5 4 12.5H12.5C13.0523 12.5 13.5 12.0523 13.5 11.5V9.5C13.5 8.94772 13.0523 8.5 12.5 8.5Z" stroke="#000001" stroke-linecap="round" stroke-linejoin="round"/>
</g>
<defs>
<clipPath id="clip0_6_3837">
<rect width="14" height="14" fill="white"/>
</clipPath>
</defs>
</svg>
