<svg width="15" height="14" viewBox="0 0 15 14" fill="none" xmlns="http://www.w3.org/2000/svg">
<g clip-path="url(#clip0_6_2104)">
<path d="M13.9998 6.91992C13.9901 8.03108 13.7375 9.12668 13.2598 10.1299" stroke="#000001" stroke-linecap="round" stroke-linejoin="round"/>
<path d="M7.5 13.4199C6.64641 13.4199 5.80117 13.2518 5.01256 12.9251C4.22394 12.5985 3.50739 12.1197 2.90381 11.5161C1.68482 10.2971 1 8.64383 1 6.91992" stroke="#000001" stroke-linecap="round" stroke-linejoin="round"/>
<path d="M9.5 8.91992L7.5 6.41992H4.5" stroke="#000001" stroke-linecap="round" stroke-linejoin="round"/>
<path d="M12.5 12.9199C13.3284 12.9199 14 12.2483 14 11.4199C14 10.5915 13.3284 9.91992 12.5 9.91992C11.6716 9.91992 11 10.5915 11 11.4199C11 12.2483 11.6716 12.9199 12.5 12.9199Z" stroke="#000001" stroke-linecap="round" stroke-linejoin="round"/>
<path d="M1.41992 4.52C1.63786 3.97536 1.93068 3.46376 2.28992 3" stroke="#000001" stroke-linecap="round" stroke-linejoin="round"/>
<path d="M4.2207 1.28008C4.78426 0.954662 5.39484 0.718528 6.0307 0.580078" stroke="#000001" stroke-linecap="round" stroke-linejoin="round"/>
<path d="M13.5809 4.52C13.363 3.97536 13.0702 3.46376 12.7109 3" stroke="#000001" stroke-linecap="round" stroke-linejoin="round"/>
<path d="M10.7807 1.28008C10.2171 0.954662 9.60657 0.718528 8.9707 0.580078" stroke="#000001" stroke-linecap="round" stroke-linejoin="round"/>
</g>
<defs>
<clipPath id="clip0_6_2104">
<rect width="14" height="14" fill="white" transform="translate(0.5)"/>
</clipPath>
</defs>
</svg>
