<svg width="14" height="14" viewBox="0 0 14 14" fill="none" xmlns="http://www.w3.org/2000/svg">
<g clip-path="url(#clip0_6_4022)">
<path d="M13.5 6.5C13.5 6.23478 13.3946 5.98043 13.2071 5.79289C13.0196 5.60536 12.7652 5.5 12.5 5.5H8.5V1.5C8.5 1.23478 8.39464 0.98043 8.20711 0.792893C8.01957 0.605357 7.76522 0.5 7.5 0.5H6.5C6.23478 0.5 5.98043 0.605357 5.79289 0.792893C5.60536 0.98043 5.5 1.23478 5.5 1.5V5.5H1.5C1.23478 5.5 0.98043 5.60536 0.792893 5.79289C0.605357 5.98043 0.5 6.23478 0.5 6.5V7.5C0.5 7.76522 0.605357 8.01957 0.792893 8.20711C0.98043 8.39464 1.23478 8.5 1.5 8.5H5.5V12.5C5.5 12.7652 5.60536 13.0196 5.79289 13.2071C5.98043 13.3946 6.23478 13.5 6.5 13.5H7.5C7.76522 13.5 8.01957 13.3946 8.20711 13.2071C8.39464 13.0196 8.5 12.7652 8.5 12.5V8.5H12.5C12.7652 8.5 13.0196 8.39464 13.2071 8.20711C13.3946 8.01957 13.5 7.76522 13.5 7.5V6.5Z" stroke="#000001" stroke-linecap="round" stroke-linejoin="round"/>
</g>
<defs>
<clipPath id="clip0_6_4022">
<rect width="14" height="14" fill="white"/>
</clipPath>
</defs>
</svg>
