<svg width="14" height="14" viewBox="0 0 14 14" fill="none" xmlns="http://www.w3.org/2000/svg">
<g clip-path="url(#clip0_6_1257)">
<path d="M11.5004 6.00004H12.5004C12.6435 5.99882 12.7851 6.0283 12.9157 6.08648C13.0464 6.14465 13.163 6.23018 13.2578 6.33728C13.3526 6.44439 13.4233 6.57057 13.4651 6.70733C13.507 6.84409 13.519 6.98823 13.5004 7.13004L12.7704 12.63C12.7387 12.8721 12.6195 13.0943 12.4353 13.2545C12.2511 13.4148 12.0146 13.5021 11.7704 13.5H2.23044C1.98628 13.5021 1.7498 13.4148 1.56559 13.2545C1.38138 13.0943 1.26217 12.8721 1.23044 12.63L0.510439 7.13004C0.491957 6.98907 0.503745 6.84578 0.545018 6.70973C0.586291 6.57368 0.656101 6.448 0.749789 6.34106C0.843478 6.23412 0.958892 6.14839 1.08833 6.08959C1.21777 6.03078 1.35827 6.00025 1.50044 6.00004H2.50044" stroke="#000001" stroke-linecap="round" stroke-linejoin="round"/>
<path d="M10.46 13.5L8.33 4H8.75C9.21413 4 9.65925 3.81563 9.98744 3.48744C10.3156 3.15925 10.5 2.71413 10.5 2.25C10.5 1.78587 10.3156 1.34075 9.98744 1.01256C9.65925 0.684374 9.21413 0.5 8.75 0.5H5.25C4.78587 0.5 4.34075 0.684374 4.01256 1.01256C3.68437 1.34075 3.5 1.78587 3.5 2.25C3.5 2.71413 3.68437 3.15925 4.01256 3.48744C4.34075 3.81563 4.78587 4 5.25 4H5.66L3.54 13.5" stroke="#000001" stroke-linecap="round" stroke-linejoin="round"/>
</g>
<defs>
<clipPath id="clip0_6_1257">
<rect width="14" height="14" fill="white"/>
</clipPath>
</defs>
</svg>
