<svg width="15" height="14" viewBox="0 0 15 14" fill="none" xmlns="http://www.w3.org/2000/svg">
<path d="M8.75 7C8.75471 5.78763 9.07421 4.59726 9.67723 3.54548C10.2803 2.4937 11.1461 1.61657 12.19 1C11.4159 0.679515 10.5877 0.509809 9.75 0.5C8.02609 0.5 6.37279 1.18482 5.15381 2.40381C3.93482 3.62279 3.25 5.27609 3.25 7C3.25 8.72391 3.93482 10.3772 5.15381 11.5962C6.37279 12.8152 8.02609 13.5 9.75 13.5C10.5979 13.494 11.4366 13.3242 12.22 13C11.1705 12.3872 10.2987 11.5117 9.69026 10.4596C9.08183 9.40759 8.75779 8.21528 8.75 7V7Z" stroke="#000001" stroke-linecap="round" stroke-linejoin="round"/>
</svg>
