<svg width="15" height="14" viewBox="0 0 15 14" fill="none" xmlns="http://www.w3.org/2000/svg">
<g clip-path="url(#clip0_6_3305)">
<path d="M8.11 13.4302C7.87833 13.5196 7.62168 13.5196 7.39 13.4302V13.4302C5.58227 12.7362 4.0276 11.5101 2.93135 9.91397C1.83509 8.31779 1.24883 6.42661 1.25 4.49023V1.49023C1.25 1.22502 1.35536 0.970664 1.54289 0.783128C1.73043 0.595591 1.98479 0.490234 2.25 0.490234H13.25C13.5152 0.490234 13.7696 0.595591 13.9571 0.783128C14.1446 0.970664 14.25 1.22502 14.25 1.49023V4.49023C14.2512 6.42661 13.6649 8.31779 12.5687 9.91397C11.4724 11.5101 9.91773 12.7362 8.11 13.4302V13.4302Z" stroke="#000001" stroke-linecap="round" stroke-linejoin="round"/>
</g>
<defs>
<clipPath id="clip0_6_3305">
<rect width="14" height="14" fill="white" transform="translate(0.75)"/>
</clipPath>
</defs>
</svg>
