<svg width="14" height="14" viewBox="0 0 14 14" fill="none" xmlns="http://www.w3.org/2000/svg">
<path d="M6.5 12.5007L9.64 5.17066C9.66961 5.09959 9.7196 5.03887 9.78367 4.99616C9.84773 4.95346 9.923 4.93066 10 4.93066C10.077 4.93066 10.1523 4.95346 10.2163 4.99616C10.2804 5.03887 10.3304 5.09959 10.36 5.17066L13.5 12.5007" stroke="#000001" stroke-linecap="round" stroke-linejoin="round"/>
<path d="M7.91016 9.20996H12.0902" stroke="#000001" stroke-linecap="round" stroke-linejoin="round"/>
<path d="M0.5 12.5003L5.07 1.84027C5.1191 1.75057 5.19142 1.67573 5.27939 1.62359C5.36737 1.57145 5.46774 1.54395 5.57 1.54395C5.67226 1.54395 5.77264 1.57145 5.86061 1.62359C5.94858 1.67573 6.0209 1.75057 6.07 1.84027L7 3.94027" stroke="#000001" stroke-linecap="round" stroke-linejoin="round"/>
<path d="M2.55078 7.7207H5.00078" stroke="#000001" stroke-linecap="round" stroke-linejoin="round"/>
</svg>
