<svg width="14" height="14" viewBox="0 0 14 14" fill="none" xmlns="http://www.w3.org/2000/svg">
<g clip-path="url(#clip0_6_1578)">
<path d="M2.5 8.5H11.5C11.7652 8.5 12.0196 8.60536 12.2071 8.79289C12.3946 8.98043 12.5 9.23478 12.5 9.5V13.5H1.5V9.5C1.5 9.23478 1.60536 8.98043 1.79289 8.79289C1.98043 8.60536 2.23478 8.5 2.5 8.5V8.5Z" stroke="#000001" stroke-linecap="round" stroke-linejoin="round"/>
<path d="M1.5 9.5C1.23478 9.5 0.98043 9.39464 0.792893 9.20711C0.605357 9.01957 0.5 8.76522 0.5 8.5V6.5C0.5 6.23478 0.605357 5.98043 0.792893 5.79289C0.98043 5.60536 1.23478 5.5 1.5 5.5H12.5C12.7652 5.5 13.0196 5.60536 13.2071 5.79289C13.3946 5.98043 13.5 6.23478 13.5 6.5V8.5C13.5 8.76522 13.3946 9.01957 13.2071 9.20711C13.0196 9.39464 12.7652 9.5 12.5 9.5" stroke="#000001" stroke-linecap="round" stroke-linejoin="round"/>
<path d="M11 0.5H3V5.5H11V0.5Z" stroke="#000001" stroke-linecap="round" stroke-linejoin="round"/>
<path d="M4 11H10" stroke="#000001" stroke-linecap="round" stroke-linejoin="round"/>
</g>
<defs>
<clipPath id="clip0_6_1578">
<rect width="14" height="14" fill="white"/>
</clipPath>
</defs>
</svg>
