<svg width="14" height="14" viewBox="0 0 14 14" fill="none" xmlns="http://www.w3.org/2000/svg">
<g clip-path="url(#clip0_6_3526)">
<path d="M7.36 13.4C7.12832 13.4894 6.87168 13.4894 6.64 13.4V13.4C4.83386 12.7037 3.28075 11.477 2.18486 9.88136C1.08896 8.28571 0.501603 6.39577 0.5 4.46004V1.54004C0.5 1.27482 0.605357 1.02047 0.792893 0.832932C0.98043 0.645396 1.23478 0.540039 1.5 0.540039H12.5C12.7652 0.540039 13.0196 0.645396 13.2071 0.832932C13.3946 1.02047 13.5 1.27482 13.5 1.54004V4.46004C13.4984 6.39577 12.911 8.28571 11.8151 9.88136C10.7193 11.477 9.16614 12.7037 7.36 13.4V13.4Z" stroke="#000001" stroke-linecap="round" stroke-linejoin="round"/>
<path d="M7 6.54004C7.82843 6.54004 8.5 5.86847 8.5 5.04004C8.5 4.21161 7.82843 3.54004 7 3.54004C6.17157 3.54004 5.5 4.21161 5.5 5.04004C5.5 5.86847 6.17157 6.54004 7 6.54004Z" stroke="#000001" stroke-linecap="round" stroke-linejoin="round"/>
<path d="M7 9.04004V6.54004" stroke="#000001" stroke-linecap="round" stroke-linejoin="round"/>
</g>
<defs>
<clipPath id="clip0_6_3526">
<rect width="14" height="14" fill="white"/>
</clipPath>
</defs>
</svg>
