<svg width="14" height="14" viewBox="0 0 14 14" fill="none" xmlns="http://www.w3.org/2000/svg">
<g clip-path="url(#clip0_6_3983)">
<path d="M13.5 10.5V12.5C13.5 12.7652 13.3946 13.0196 13.2071 13.2071C13.0196 13.3946 12.7652 13.5 12.5 13.5H10.5" stroke="#000001" stroke-linecap="round" stroke-linejoin="round"/>
<path d="M10.5 0.5H12.5C12.7652 0.5 13.0196 0.605357 13.2071 0.792893C13.3946 0.98043 13.5 1.23478 13.5 1.5V3.5" stroke="#000001" stroke-linecap="round" stroke-linejoin="round"/>
<path d="M0.5 3.5V1.5C0.5 1.23478 0.605357 0.98043 0.792893 0.792893C0.98043 0.605357 1.23478 0.5 1.5 0.5H3.5" stroke="#000001" stroke-linecap="round" stroke-linejoin="round"/>
<path d="M3.5 13.5H1.5C1.23478 13.5 0.98043 13.3946 0.792893 13.2071C0.605357 13.0196 0.5 12.7652 0.5 12.5V10.5" stroke="#000001" stroke-linecap="round" stroke-linejoin="round"/>
<path d="M7 6.5C8.10457 6.5 9 5.60457 9 4.5C9 3.39543 8.10457 2.5 7 2.5C5.89543 2.5 5 3.39543 5 4.5C5 5.60457 5.89543 6.5 7 6.5Z" stroke="#000001" stroke-linecap="round" stroke-linejoin="round"/>
<path d="M10.1598 10.5001C9.87547 9.90292 9.4277 9.39855 8.86843 9.04543C8.30916 8.6923 7.66127 8.50488 6.99984 8.50488C6.33842 8.50488 5.69053 8.6923 5.13126 9.04543C4.57198 9.39855 4.12422 9.90292 3.83984 10.5001" stroke="#000001" stroke-linecap="round" stroke-linejoin="round"/>
</g>
<defs>
<clipPath id="clip0_6_3983">
<rect width="14" height="14" fill="white"/>
</clipPath>
</defs>
</svg>
