<svg width="14" height="14" viewBox="0 0 14 14" fill="none" xmlns="http://www.w3.org/2000/svg">
<path d="M11 3.5C11 2.70435 10.6839 1.94129 10.1213 1.37868C9.55871 0.81607 8.79565 0.5 8 0.5H4C3.73478 0.5 3.48043 0.605357 3.29289 0.792893C3.10536 0.98043 3 1.23478 3 1.5V6.5H8C8.79565 6.5 9.55871 6.18393 10.1213 5.62132C10.6839 5.05871 11 4.29565 11 3.5Z" stroke="#000001" stroke-linecap="round" stroke-linejoin="round"/>
<path d="M12 10C12 10.9283 11.6313 11.8185 10.9749 12.4749C10.3185 13.1313 9.42826 13.5 8.5 13.5H4C3.73478 13.5 3.48043 13.3946 3.29289 13.2071C3.10536 13.0196 3 12.7652 3 12.5V6.5H8.5C9.42826 6.5 10.3185 6.86875 10.9749 7.52513C11.6313 8.1815 12 9.07174 12 10Z" stroke="#000001" stroke-linecap="round" stroke-linejoin="round"/>
</svg>
