<svg width="15" height="14" viewBox="0 0 15 14" fill="none" xmlns="http://www.w3.org/2000/svg">
<g clip-path="url(#clip0_6_3309)">
<path d="M13.75 6.94C13.7406 7.98112 13.4432 8.99932 12.8908 9.88182C12.3383 10.7643 11.5524 11.4767 10.62 11.94L7.75001 13.5L4.88001 12C3.93853 11.5321 3.14656 10.8104 2.59349 9.91631C2.04043 9.02221 1.74827 7.99133 1.75001 6.94V1.5C1.75001 1.23478 1.85536 0.98043 2.0429 0.792893C2.23044 0.605357 2.48479 0.5 2.75001 0.5H12.75C13.0152 0.5 13.2696 0.605357 13.4571 0.792893C13.6447 0.98043 13.75 1.23478 13.75 1.5V6.94Z" stroke="#000001" stroke-linecap="round" stroke-linejoin="round"/>
<path d="M6.24995 7.99995C6.24995 8.39778 6.40799 8.77931 6.68929 9.06061C6.9706 9.34192 7.35213 9.49995 7.74995 9.49995C7.95076 9.51489 8.15242 9.48633 8.34119 9.41623C8.52995 9.34614 8.70138 9.23614 8.84376 9.09376C8.98614 8.95138 9.09614 8.77995 9.16624 8.59119C9.23633 8.40242 9.26489 8.20076 9.24995 7.99995C9.24995 6.49995 6.24995 6.49995 6.24995 4.99995C6.23501 4.79915 6.26357 4.59748 6.33367 4.40872C6.40377 4.21995 6.51376 4.04853 6.65614 3.90614C6.79853 3.76376 6.96995 3.65377 7.15872 3.58367C7.34748 3.51357 7.54915 3.48501 7.74995 3.49995C8.14778 3.49995 8.52931 3.65799 8.81061 3.93929C9.09192 4.2206 9.24995 4.60213 9.24995 4.99995" stroke="#000001" stroke-linecap="round" stroke-linejoin="round"/>
<path d="M7.75 3.5V2.5" stroke="#000001" stroke-linecap="round" stroke-linejoin="round"/>
<path d="M7.75 10.5V9.5" stroke="#000001" stroke-linecap="round" stroke-linejoin="round"/>
</g>
<defs>
<clipPath id="clip0_6_3309">
<rect width="14" height="14" fill="white" transform="translate(0.75)"/>
</clipPath>
</defs>
</svg>
