<svg width="14" height="14" viewBox="0 0 14 14" fill="none" xmlns="http://www.w3.org/2000/svg">
<g clip-path="url(#clip0_6_2072)">
<path d="M7 0.5C8.28558 0.5 9.54229 0.881218 10.6112 1.59545C11.6801 2.30968 12.5133 3.32484 13.0052 4.51256C13.4972 5.70028 13.6259 7.00721 13.3751 8.26809C13.1243 9.52896 12.5052 10.6872 11.5962 11.5962C10.6872 12.5052 9.52897 13.1243 8.26809 13.3751C7.00722 13.6259 5.70028 13.4972 4.51256 13.0052C3.32484 12.5132 2.30968 11.6801 1.59545 10.6112C0.881223 9.54229 0.500004 8.28558 0.500004 7C0.497944 5.13797 1.21436 3.34694 2.5 2" stroke="#000001" stroke-linecap="round" stroke-linejoin="round"/>
<path d="M0.5 2.5L2.5 2L3 4" stroke="#000001" stroke-linecap="round" stroke-linejoin="round"/>
<path d="M7 3.5V7.5L9.6 8.8" stroke="#000001" stroke-linecap="round" stroke-linejoin="round"/>
</g>
<defs>
<clipPath id="clip0_6_2072">
<rect width="14" height="14" fill="white"/>
</clipPath>
</defs>
</svg>
