<svg width="14" height="14" viewBox="0 0 14 14" fill="none" xmlns="http://www.w3.org/2000/svg">
<g clip-path="url(#clip0_6_3842)">
<path d="M13.5 0.5V13.5" stroke="#000001" stroke-linecap="round" stroke-linejoin="round"/>
<path d="M5.5 5.5L10 5.5C10.5523 5.5 11 5.05228 11 4.5V2.5C11 1.94772 10.5523 1.5 10 1.5L5.5 1.5C4.94772 1.5 4.5 1.94772 4.5 2.5V4.5C4.5 5.05228 4.94772 5.5 5.5 5.5Z" stroke="#000001" stroke-linecap="round" stroke-linejoin="round"/>
<path d="M1.5 12.5L10 12.5C10.5523 12.5 11 12.0523 11 11.5V9.5C11 8.94772 10.5523 8.5 10 8.5L1.5 8.5C0.947715 8.5 0.5 8.94772 0.5 9.5V11.5C0.5 12.0523 0.947715 12.5 1.5 12.5Z" stroke="#000001" stroke-linecap="round" stroke-linejoin="round"/>
</g>
<defs>
<clipPath id="clip0_6_3842">
<rect width="14" height="14" fill="white"/>
</clipPath>
</defs>
</svg>
