<svg width="15" height="14" viewBox="0 0 15 14" fill="none" xmlns="http://www.w3.org/2000/svg">
<g clip-path="url(#clip0_6_1892)">
<path d="M6.8791 0.789355L4.29109 3.37737C3.90057 3.76789 3.90057 4.40106 4.29109 4.79158L9.70753 10.208C10.0981 10.5985 10.7312 10.5985 11.1217 10.208L13.7098 7.62001C14.1003 7.22948 14.1003 6.59632 13.7098 6.20579L8.29332 0.789355C7.90279 0.398831 7.26963 0.398831 6.8791 0.789355Z" stroke="#000001" stroke-linecap="round" stroke-linejoin="round"/>
<path d="M1.41031 11.09C1.14509 11.3552 0.996094 11.7149 0.996094 12.09C0.996094 12.4651 1.14509 12.8248 1.41031 13.09C1.67552 13.3552 2.03523 13.5042 2.41031 13.5042C2.78538 13.5042 3.14509 13.3552 3.41031 13.09L8.00031 8.5L6.00031 6.5L1.41031 11.09Z" stroke="#000001" stroke-linecap="round" stroke-linejoin="round"/>
</g>
<defs>
<clipPath id="clip0_6_1892">
<rect width="14" height="14" fill="white" transform="translate(0.5)"/>
</clipPath>
</defs>
</svg>
