<svg width="14" height="14" viewBox="0 0 14 14" fill="none" xmlns="http://www.w3.org/2000/svg">
<g clip-path="url(#clip0_6_1948)">
<path d="M5.22919 2.25L5.65919 1.14C5.73171 0.952064 5.85929 0.790411 6.02524 0.676212C6.19118 0.562014 6.38775 0.500595 6.58919 0.5H7.40919C7.61063 0.500595 7.80719 0.562014 7.97314 0.676212C8.13908 0.790411 8.26667 0.952064 8.33919 1.14L8.76919 2.25L10.2292 3.09L11.4092 2.91C11.6057 2.88333 11.8056 2.91567 11.9837 3.00292C12.1618 3.09017 12.3099 3.22838 12.4092 3.4L12.8092 4.1C12.9117 4.27435 12.9589 4.47568 12.9446 4.67742C12.9303 4.87916 12.8552 5.07183 12.7292 5.23L11.9992 6.16V7.84L12.7492 8.77C12.8752 8.92817 12.9503 9.12084 12.9646 9.32258C12.9789 9.52432 12.9317 9.72565 12.8292 9.9L12.4292 10.6C12.3299 10.7716 12.1818 10.9098 12.0037 10.9971C11.8256 11.0843 11.6257 11.1167 11.4292 11.09L10.2492 10.91L8.78919 11.75L8.35919 12.86C8.28667 13.0479 8.15908 13.2096 7.99314 13.3238C7.82719 13.438 7.63063 13.4994 7.42919 13.5H6.58919C6.38775 13.4994 6.19118 13.438 6.02524 13.3238C5.85929 13.2096 5.73171 13.0479 5.65919 12.86L5.22919 11.75L3.76919 10.91L2.58919 11.09C2.3927 11.1167 2.19273 11.0843 2.01467 10.9971C1.83661 10.9098 1.68851 10.7716 1.58919 10.6L1.18919 9.9C1.08669 9.72565 1.03946 9.52432 1.05375 9.32258C1.06803 9.12084 1.14315 8.92817 1.26919 8.77L1.99919 7.84V6.16L1.24919 5.23C1.12315 5.07183 1.04803 4.87916 1.03375 4.67742C1.01946 4.47568 1.06669 4.27435 1.16919 4.1L1.56919 3.4C1.66851 3.22838 1.81661 3.09017 1.99467 3.00292C2.17273 2.91567 2.3727 2.88333 2.56919 2.91L3.74919 3.09L5.22919 2.25Z" stroke="#000001" stroke-linecap="round" stroke-linejoin="round"/>
<path d="M7 10C8.65685 10 10 8.65685 10 7C10 5.34315 8.65685 4 7 4C5.34315 4 4 5.34315 4 7C4 8.65685 5.34315 10 7 10Z" stroke="#000001" stroke-linecap="round" stroke-linejoin="round"/>
<path d="M7 4V7H10" stroke="#000001" stroke-linecap="round" stroke-linejoin="round"/>
<path d="M6.99891 7L4.87891 9.12" stroke="#000001" stroke-linecap="round" stroke-linejoin="round"/>
</g>
<defs>
<clipPath id="clip0_6_1948">
<rect width="14" height="14" fill="white"/>
</clipPath>
</defs>
</svg>
