<svg width="14" height="14" viewBox="0 0 14 14" fill="none" xmlns="http://www.w3.org/2000/svg">
<g clip-path="url(#clip0_6_3614)">
<path d="M12.84 12.0699L1.17 7.99993C0.979586 7.9335 0.813707 7.81104 0.694137 7.64864C0.574567 7.48624 0.506894 7.29148 0.5 7.08993V5.99993C0.500824 5.79321 0.56569 5.59183 0.685674 5.42349C0.805657 5.25516 0.974861 5.12814 1.17 5.05993L12.84 0.999929C12.9149 0.97462 12.9948 0.967445 13.073 0.978991C13.1513 0.990537 13.2256 1.02048 13.29 1.06635C13.3545 1.11222 13.4071 1.17272 13.4436 1.24288C13.4801 1.31304 13.4994 1.39085 13.5 1.46993V11.5999C13.4994 11.679 13.4801 11.7568 13.4436 11.827C13.4071 11.8971 13.3545 11.9576 13.29 12.0035C13.2256 12.0494 13.1513 12.0793 13.073 12.0909C12.9948 12.1024 12.9149 12.0952 12.84 12.0699Z" stroke="#000001" stroke-linecap="round" stroke-linejoin="round"/>
<path d="M8.48 10.5702C8.39581 11.2648 8.05 11.9012 7.513 12.3498C6.976 12.7984 6.28819 13.0254 5.58967 12.9846C4.89114 12.9438 4.23444 12.6383 3.7533 12.1302C3.27216 11.6222 3.00277 10.9499 3 10.2502V8.66016" stroke="#000001" stroke-linecap="round" stroke-linejoin="round"/>
</g>
<defs>
<clipPath id="clip0_6_3614">
<rect width="14" height="14" fill="white"/>
</clipPath>
</defs>
</svg>
