<svg width="14" height="14" viewBox="0 0 14 14" fill="none" xmlns="http://www.w3.org/2000/svg">
<path d="M10.5 5H11.5C11.6326 5 11.7598 5.05268 11.8536 5.14645C11.9473 5.24021 12 5.36739 12 5.5V13C12 13.1326 11.9473 13.2598 11.8536 13.3536C11.7598 13.4473 11.6326 13.5 11.5 13.5H2.5C2.36739 13.5 2.24021 13.4473 2.14645 13.3536C2.05268 13.2598 2 13.1326 2 13V5.5C2 5.36739 2.05268 5.24021 2.14645 5.14645C2.24021 5.05268 2.36739 5 2.5 5H3.5" stroke="#000001" stroke-linecap="round" stroke-linejoin="round"/>
<path d="M7 7.5V0.5" stroke="#000001" stroke-linecap="round" stroke-linejoin="round"/>
<path d="M5 2.5L7 0.5L9 2.5" stroke="#000001" stroke-linecap="round" stroke-linejoin="round"/>
</svg>
