<svg width="14" height="14" viewBox="0 0 14 14" fill="none" xmlns="http://www.w3.org/2000/svg">
<g clip-path="url(#clip0_6_3442)">
<path d="M3.25 6C4.76878 6 6 4.76878 6 3.25C6 1.73122 4.76878 0.5 3.25 0.5C1.73122 0.5 0.5 1.73122 0.5 3.25C0.5 4.76878 1.73122 6 3.25 6Z" stroke="#000001" stroke-linecap="round" stroke-linejoin="round"/>
<path d="M10.75 6C12.2688 6 13.5 4.76878 13.5 3.25C13.5 1.73122 12.2688 0.5 10.75 0.5C9.23122 0.5 8 1.73122 8 3.25C8 4.76878 9.23122 6 10.75 6Z" stroke="#000001" stroke-linecap="round" stroke-linejoin="round"/>
<path d="M3.25 13.5C4.76878 13.5 6 12.2688 6 10.75C6 9.23122 4.76878 8 3.25 8C1.73122 8 0.5 9.23122 0.5 10.75C0.5 12.2688 1.73122 13.5 3.25 13.5Z" stroke="#000001" stroke-linecap="round" stroke-linejoin="round"/>
<path d="M10.75 13.5C12.2688 13.5 13.5 12.2688 13.5 10.75C13.5 9.23122 12.2688 8 10.75 8C9.23122 8 8 9.23122 8 10.75C8 12.2688 9.23122 13.5 10.75 13.5Z" stroke="#000001" stroke-linecap="round" stroke-linejoin="round"/>
</g>
<defs>
<clipPath id="clip0_6_3442">
<rect width="14" height="14" fill="white"/>
</clipPath>
</defs>
</svg>
