<svg width="14" height="14" viewBox="0 0 14 14" fill="none" xmlns="http://www.w3.org/2000/svg">
<path d="M11 5.5H3C2.44772 5.5 2 5.94772 2 6.5V12.5C2 13.0523 2.44772 13.5 3 13.5H11C11.5523 13.5 12 13.0523 12 12.5V6.5C12 5.94772 11.5523 5.5 11 5.5Z" stroke="#000001" stroke-linecap="round" stroke-linejoin="round"/>
<path d="M9.47 1.53003C9.14799 1.20204 8.7635 0.941904 8.33927 0.764996C7.91503 0.588087 7.45964 0.497993 7 0.500034C6.07174 0.500034 5.1815 0.868783 4.52513 1.52516C3.86875 2.18154 3.5 3.07178 3.5 4.00003V5.50003" stroke="#000001" stroke-linecap="round" stroke-linejoin="round"/>
<path d="M7 10C7.27614 10 7.5 9.77614 7.5 9.5C7.5 9.22386 7.27614 9 7 9C6.72386 9 6.5 9.22386 6.5 9.5C6.5 9.77614 6.72386 10 7 10Z" stroke="#000001" stroke-linecap="round" stroke-linejoin="round"/>
</svg>
