<svg width="15" height="14" viewBox="0 0 15 14" fill="none" xmlns="http://www.w3.org/2000/svg">
<g clip-path="url(#clip0_6_3075)">
<path d="M4.22905 3.87012L1.35905 6.74012C1.32396 6.77372 1.29604 6.81408 1.27696 6.85877C1.25788 6.90345 1.24805 6.95153 1.24805 7.00012C1.24805 7.0487 1.25788 7.09679 1.27696 7.14147C1.29604 7.18615 1.32396 7.22651 1.35905 7.26012L4.22905 10.1301" stroke="#000001" stroke-linecap="round" stroke-linejoin="round"/>
<path d="M11.2695 3.87012L14.1395 6.74012C14.1746 6.77372 14.2025 6.81408 14.2216 6.85877C14.2407 6.90345 14.2505 6.95153 14.2505 7.00012C14.2505 7.0487 14.2407 7.09679 14.2216 7.14147C14.2025 7.18615 14.1746 7.22651 14.1395 7.26012L11.2695 10.1301" stroke="#000001" stroke-linecap="round" stroke-linejoin="round"/>
<path d="M7.75 13.5V0.5" stroke="#000001" stroke-linecap="round" stroke-linejoin="round"/>
</g>
<defs>
<clipPath id="clip0_6_3075">
<rect width="14" height="14" fill="white" transform="translate(0.75)"/>
</clipPath>
</defs>
</svg>
