<svg width="14" height="14" viewBox="0 0 14 14" fill="none" xmlns="http://www.w3.org/2000/svg">
<g clip-path="url(#clip0_6_4006)">
<path d="M3 5.18018V9.32018" stroke="#000001" stroke-linecap="round" stroke-linejoin="round"/>
<path d="M7 5.18018V9.32018" stroke="#000001" stroke-linecap="round" stroke-linejoin="round"/>
<path d="M5 6.07031V8.43031" stroke="#000001" stroke-linecap="round" stroke-linejoin="round"/>
<path d="M11 5.18018V9.32018" stroke="#000001" stroke-linecap="round" stroke-linejoin="round"/>
<path d="M9 6.07031V8.43031" stroke="#000001" stroke-linecap="round" stroke-linejoin="round"/>
<path d="M0.5 4V1.5C0.5 1.23478 0.605357 0.98043 0.792893 0.792893C0.98043 0.605357 1.23478 0.5 1.5 0.5H4" stroke="#000001" stroke-linecap="round" stroke-linejoin="round"/>
<path d="M13.5 4V1.5C13.5 1.23478 13.3946 0.98043 13.2071 0.792893C13.0196 0.605357 12.7652 0.5 12.5 0.5H10" stroke="#000001" stroke-linecap="round" stroke-linejoin="round"/>
<path d="M0.5 10V12.5C0.5 12.7652 0.605357 13.0196 0.792893 13.2071C0.98043 13.3946 1.23478 13.5 1.5 13.5H4" stroke="#000001" stroke-linecap="round" stroke-linejoin="round"/>
<path d="M13.5 10V12.5C13.5 12.7652 13.3946 13.0196 13.2071 13.2071C13.0196 13.3946 12.7652 13.5 12.5 13.5H10" stroke="#000001" stroke-linecap="round" stroke-linejoin="round"/>
</g>
<defs>
<clipPath id="clip0_6_4006">
<rect width="14" height="14" fill="white"/>
</clipPath>
</defs>
</svg>
