<svg width="14" height="14" viewBox="0 0 14 14" fill="none" xmlns="http://www.w3.org/2000/svg">
<g clip-path="url(#clip0_6_3867)">
<path d="M13.5 0.5H0.5" stroke="#000001" stroke-linecap="round" stroke-linejoin="round"/>
<path d="M12.5 8.5V4C12.5 3.44772 12.0523 3 11.5 3H9.5C8.94772 3 8.5 3.44772 8.5 4V8.5C8.5 9.05228 8.94772 9.5 9.5 9.5H11.5C12.0523 9.5 12.5 9.05228 12.5 8.5Z" stroke="#000001" stroke-linecap="round" stroke-linejoin="round"/>
<path d="M5.5 12.5L5.5 4C5.5 3.44772 5.05228 3 4.5 3H2.5C1.94772 3 1.5 3.44772 1.5 4L1.5 12.5C1.5 13.0523 1.94772 13.5 2.5 13.5H4.5C5.05228 13.5 5.5 13.0523 5.5 12.5Z" stroke="#000001" stroke-linecap="round" stroke-linejoin="round"/>
</g>
<defs>
<clipPath id="clip0_6_3867">
<rect width="14" height="14" fill="white"/>
</clipPath>
</defs>
</svg>
