<svg width="14" height="14" viewBox="0 0 14 14" fill="none" xmlns="http://www.w3.org/2000/svg">
<path d="M7 8.5C7.82843 8.5 8.5 7.82843 8.5 7C8.5 6.17157 7.82843 5.5 7 5.5C6.17157 5.5 5.5 6.17157 5.5 7C5.5 7.82843 6.17157 8.5 7 8.5Z" stroke="#000001" stroke-linecap="round" stroke-linejoin="round"/>
<path d="M12.25 8.25C12.9404 8.25 13.5 7.69036 13.5 7C13.5 6.30964 12.9404 5.75 12.25 5.75C11.5596 5.75 11 6.30964 11 7C11 7.69036 11.5596 8.25 12.25 8.25Z" stroke="#000001" stroke-linecap="round" stroke-linejoin="round"/>
<path d="M1.75 8.25C2.44036 8.25 3 7.69036 3 7C3 6.30964 2.44036 5.75 1.75 5.75C1.05964 5.75 0.5 6.30964 0.5 7C0.5 7.69036 1.05964 8.25 1.75 8.25Z" stroke="#000001" stroke-linecap="round" stroke-linejoin="round"/>
</svg>
