<svg width="15" height="14" viewBox="0 0 15 14" fill="none" xmlns="http://www.w3.org/2000/svg">
<path d="M9.25 9V2C9.25 1.60218 9.09196 1.22064 8.81066 0.93934C8.52936 0.658035 8.14782 0.5 7.75 0.5V0.5C7.35218 0.5 6.97064 0.658035 6.68934 0.93934C6.40804 1.22064 6.25 1.60218 6.25 2V9C5.83024 9.31482 5.52017 9.75374 5.36372 10.2546C5.20727 10.7554 5.21237 11.2928 5.37829 11.7906C5.54422 12.2883 5.86256 12.7213 6.28822 13.0281C6.71389 13.3349 7.22529 13.5 7.75 13.5C8.27471 13.5 8.78611 13.3349 9.21178 13.0281C9.63744 12.7213 9.95578 12.2883 10.1217 11.7906C10.2876 11.2928 10.2927 10.7554 10.1363 10.2546C9.97983 9.75374 9.66976 9.31482 9.25 9Z" stroke="#000001" stroke-linecap="round" stroke-linejoin="round"/>
</svg>
