<svg width="14" height="14" viewBox="0 0 14 14" fill="none" xmlns="http://www.w3.org/2000/svg">
<g clip-path="url(#clip0_6_2176)">
<path d="M3.36914 8.14976L5.90914 12.2098C6.00758 12.3702 6.1459 12.5025 6.31063 12.5936C6.47537 12.6847 6.66089 12.7316 6.84914 12.7298C6.9974 12.7351 7.14523 12.7107 7.28389 12.6579C7.42255 12.6052 7.54923 12.5252 7.65644 12.4226C7.76365 12.3201 7.84921 12.1971 7.90807 12.0609C7.96693 11.9247 7.9979 11.7781 7.99914 11.6298V8.71976H12.3891C12.5514 8.7145 12.7106 8.67496 12.8565 8.60375C13.0023 8.53254 13.1314 8.43126 13.2353 8.30658C13.3392 8.1819 13.4156 8.03663 13.4593 7.88034C13.503 7.72405 13.5132 7.56027 13.4891 7.39976L12.6891 2.23976C12.655 1.964 12.5214 1.71019 12.3133 1.52605C12.1052 1.3419 11.837 1.2401 11.5591 1.23976H4.99914C4.68686 1.23854 4.37863 1.31046 4.09914 1.44976L3.37914 1.80976" stroke="#000001" stroke-linecap="round" stroke-linejoin="round"/>
<path d="M3.36914 8.14984V1.83984" stroke="#000001" stroke-linecap="round" stroke-linejoin="round"/>
<path d="M1 1.83984H3.37V8.14984H1C0.867392 8.14984 0.740215 8.09717 0.646447 8.0034C0.552678 7.90963 0.5 7.78245 0.5 7.64984V2.33984C0.5 2.20724 0.552678 2.08006 0.646447 1.98629C0.740215 1.89252 0.867392 1.83984 1 1.83984V1.83984Z" stroke="#000001" stroke-linecap="round" stroke-linejoin="round"/>
</g>
<defs>
<clipPath id="clip0_6_2176">
<rect width="14" height="14" fill="white"/>
</clipPath>
</defs>
</svg>
