<svg width="14" height="14" viewBox="0 0 14 14" fill="none" xmlns="http://www.w3.org/2000/svg">
<g clip-path="url(#clip0_6_2047)">
<path d="M7 11C9.20914 11 11 9.20914 11 7C11 4.79086 9.20914 3 7 3C4.79086 3 3 4.79086 3 7C3 9.20914 4.79086 11 7 11Z" stroke="#000001" stroke-linecap="round" stroke-linejoin="round"/>
<path d="M7 5.5V7H8.5" stroke="#000001" stroke-linecap="round" stroke-linejoin="round"/>
<path d="M12.5 0.5H1.5C0.947715 0.5 0.5 0.947715 0.5 1.5V12.5C0.5 13.0523 0.947715 13.5 1.5 13.5H12.5C13.0523 13.5 13.5 13.0523 13.5 12.5V1.5C13.5 0.947715 13.0523 0.5 12.5 0.5Z" stroke="#000001" stroke-linecap="round" stroke-linejoin="round"/>
</g>
<defs>
<clipPath id="clip0_6_2047">
<rect width="14" height="14" fill="white"/>
</clipPath>
</defs>
</svg>
