<svg width="14" height="14" viewBox="0 0 14 14" fill="none" xmlns="http://www.w3.org/2000/svg">
<path d="M12.5 3.5H1.5C0.947715 3.5 0.5 3.94772 0.5 4.5V9.5C0.5 10.0523 0.947715 10.5 1.5 10.5H12.5C13.0523 10.5 13.5 10.0523 13.5 9.5V4.5C13.5 3.94772 13.0523 3.5 12.5 3.5Z" stroke="#000001" stroke-linecap="round" stroke-linejoin="round"/>
<path d="M3.5 7.5C3.77614 7.5 4 7.27614 4 7C4 6.72386 3.77614 6.5 3.5 6.5C3.22386 6.5 3 6.72386 3 7C3 7.27614 3.22386 7.5 3.5 7.5Z" stroke="#000001" stroke-linecap="round" stroke-linejoin="round"/>
<path d="M6.5 7.5C6.77614 7.5 7 7.27614 7 7C7 6.72386 6.77614 6.5 6.5 6.5C6.22386 6.5 6 6.72386 6 7C6 7.27614 6.22386 7.5 6.5 7.5Z" stroke="#000001" stroke-linecap="round" stroke-linejoin="round"/>
<path d="M9.5 8H11" stroke="#000001" stroke-linecap="round" stroke-linejoin="round"/>
</svg>
