<svg width="15" height="14" viewBox="0 0 15 14" fill="none" xmlns="http://www.w3.org/2000/svg">
<g clip-path="url(#clip0_6_1744)">
<path d="M6 13.5H2C1.73478 13.5 1.48043 13.3946 1.29289 13.2071C1.10536 13.0196 1 12.7652 1 12.5V2.5C1 2.23478 1.10536 1.98043 1.29289 1.79289C1.48043 1.60536 1.73478 1.5 2 1.5H3.5" stroke="#000001" stroke-linecap="round" stroke-linejoin="round"/>
<path d="M8.5 1.5H10C10.2652 1.5 10.5196 1.60536 10.7071 1.79289C10.8946 1.98043 11 2.23478 11 2.5V4.5" stroke="#000001" stroke-linecap="round" stroke-linejoin="round"/>
<path d="M7.5 0.5H4.5C3.94772 0.5 3.5 0.947715 3.5 1.5V2C3.5 2.55228 3.94772 3 4.5 3H7.5C8.05228 3 8.5 2.55228 8.5 2V1.5C8.5 0.947715 8.05228 0.5 7.5 0.5Z" stroke="#000001" stroke-linecap="round" stroke-linejoin="round"/>
<path d="M10.75 13.5C12.5449 13.5 14 12.0449 14 10.25C14 8.45507 12.5449 7 10.75 7C8.95507 7 7.5 8.45507 7.5 10.25C7.5 12.0449 8.95507 13.5 10.75 13.5Z" stroke="#000001" stroke-linecap="round" stroke-linejoin="round"/>
<path d="M8.44922 12.5502L13.0492 7.9502" stroke="#000001" stroke-linecap="round" stroke-linejoin="round"/>
</g>
<defs>
<clipPath id="clip0_6_1744">
<rect width="14" height="14" fill="white" transform="translate(0.5)"/>
</clipPath>
</defs>
</svg>
