<svg width="14" height="14" viewBox="0 0 14 14" fill="none" xmlns="http://www.w3.org/2000/svg">
<g clip-path="url(#clip0_6_2432)">
<path d="M13.5 13.5H0.999954C0.901241 13.4995 0.804883 13.4698 0.723023 13.4146C0.641162 13.3595 0.577464 13.2813 0.539954 13.19C0.499109 13.0999 0.487754 12.9991 0.507505 12.9022C0.527257 12.8052 0.577107 12.717 0.649953 12.65L5.93995 7.35C6.03157 7.25654 6.08288 7.13088 6.08288 7C6.08288 6.86912 6.03157 6.74346 5.93995 6.65L0.649953 1.35C0.577107 1.28303 0.527257 1.19478 0.507505 1.09781C0.487754 1.00085 0.499109 0.90013 0.539954 0.81C0.577464 0.71869 0.641162 0.640527 0.723023 0.585361C0.804883 0.530194 0.901241 0.500493 0.999954 0.5H13.5" stroke="#000001" stroke-linecap="round" stroke-linejoin="round"/>
</g>
<defs>
<clipPath id="clip0_6_2432">
<rect width="14" height="14" fill="white"/>
</clipPath>
</defs>
</svg>
