<svg width="14" height="14" viewBox="0 0 14 14" fill="none" xmlns="http://www.w3.org/2000/svg">
<g clip-path="url(#clip0_6_4104)">
<path d="M13.5 9.54004C13.5 9.27482 13.3946 9.02047 13.2071 8.83293C13.0196 8.6454 12.7652 8.54004 12.5 8.54004H9.5V9.54004H4.5V8.54004H1.5C1.23478 8.54004 0.98043 8.6454 0.792893 8.83293C0.605357 9.02047 0.5 9.27482 0.5 9.54004V12.54C0.5 12.8053 0.605357 13.0596 0.792893 13.2471C0.98043 13.4347 1.23478 13.54 1.5 13.54H12.5C12.7652 13.54 13.0196 13.4347 13.2071 13.2471C13.3946 13.0596 13.5 12.8053 13.5 12.54V9.54004Z" stroke="#000001" stroke-linecap="round" stroke-linejoin="round"/>
<path d="M1.5 5.54004H12.5" stroke="#000001" stroke-linecap="round" stroke-linejoin="round"/>
<path d="M1.5 2.54004H12.5" stroke="#000001" stroke-linecap="round" stroke-linejoin="round"/>
</g>
<defs>
<clipPath id="clip0_6_4104">
<rect width="14" height="14" fill="white"/>
</clipPath>
</defs>
</svg>
