<svg width="15" height="14" viewBox="0 0 15 14" fill="none" xmlns="http://www.w3.org/2000/svg">
<g clip-path="url(#clip0_6_3315)">
<path d="M8.11001 13.4299C7.87833 13.5193 7.62168 13.5193 7.39001 13.4299V13.4299C5.58228 12.7359 4.0276 11.5098 2.93135 9.91364C1.83509 8.31746 1.24883 6.42628 1.25001 4.48991V1.87991C1.24946 1.77041 1.28417 1.66364 1.349 1.57539C1.41383 1.48715 1.50535 1.42211 1.61001 1.38991C5.61688 0.200109 9.88313 0.200109 13.89 1.38991C13.9947 1.42211 14.0862 1.48715 14.151 1.57539C14.2158 1.66364 14.2506 1.77041 14.25 1.87991V4.48991C14.2512 6.42628 13.6649 8.31746 12.5687 9.91364C11.4724 11.5098 9.91774 12.7359 8.11001 13.4299V13.4299Z" stroke="#000001" stroke-linecap="round" stroke-linejoin="round"/>
</g>
<defs>
<clipPath id="clip0_6_3315">
<rect width="14" height="14" fill="white" transform="translate(0.75)"/>
</clipPath>
</defs>
</svg>
