<svg width="15" height="14" viewBox="0 0 15 14" fill="none" xmlns="http://www.w3.org/2000/svg">
<path d="M10 1.5H11.5C11.7652 1.5 12.0196 1.60536 12.2071 1.79289C12.3946 1.98043 12.5 2.23478 12.5 2.5V12.5C12.5 12.7652 12.3946 13.0196 12.2071 13.2071C12.0196 13.3946 11.7652 13.5 11.5 13.5H3.5C3.23478 13.5 2.98043 13.3946 2.79289 13.2071C2.60536 13.0196 2.5 12.7652 2.5 12.5V2.5C2.5 2.23478 2.60536 1.98043 2.79289 1.79289C2.98043 1.60536 3.23478 1.5 3.5 1.5H5" stroke="#000001" stroke-linecap="round" stroke-linejoin="round"/>
<path d="M9 0.5H6C5.44772 0.5 5 0.947715 5 1.5V2C5 2.55228 5.44772 3 6 3H9C9.55228 3 10 2.55228 10 2V1.5C10 0.947715 9.55228 0.5 9 0.5Z" stroke="#000001" stroke-linecap="round" stroke-linejoin="round"/>
</svg>
