<svg width="15" height="14" viewBox="0 0 15 14" fill="none" xmlns="http://www.w3.org/2000/svg">
<g clip-path="url(#clip0_6_3307)">
<path d="M8.67 13.21L8.08 13.44C7.86723 13.5198 7.63277 13.5198 7.42 13.44L6.83 13.21C5.33558 12.6241 4.05196 11.6022 3.146 10.2772C2.24003 8.95211 1.75363 7.38516 1.75 5.78V3C2.88249 3.1614 4.03755 3.01437 5.0935 2.57439C6.14944 2.13442 7.06717 1.41779 7.75 0.5C9 2.32 11.07 3.18 13.75 3V5.78C13.7464 7.38516 13.26 8.95211 12.354 10.2772C11.448 11.6022 10.1644 12.6241 8.67 13.21V13.21Z" stroke="#000001" stroke-linecap="round" stroke-linejoin="round"/>
</g>
<defs>
<clipPath id="clip0_6_3307">
<rect width="14" height="14" fill="white" transform="translate(0.75)"/>
</clipPath>
</defs>
</svg>
