<svg width="15" height="14" viewBox="0 0 15 14" fill="none" xmlns="http://www.w3.org/2000/svg">
<g clip-path="url(#clip0_6_1986)">
<path d="M1 1.5L1 12.5C1 13.0523 1.44772 13.5 2 13.5H13C13.5523 13.5 14 13.0523 14 12.5V1.5C14 0.947715 13.5523 0.5 13 0.5H2C1.44772 0.5 1 0.947715 1 1.5Z" stroke="#000001" stroke-linecap="round" stroke-linejoin="round"/>
<path d="M5 11V6" stroke="#000001" stroke-linecap="round" stroke-linejoin="round"/>
<path d="M5 6C5.82843 6 6.5 5.32843 6.5 4.5C6.5 3.67157 5.82843 3 5 3C4.17157 3 3.5 3.67157 3.5 4.5C3.5 5.32843 4.17157 6 5 6Z" stroke="#000001" stroke-linecap="round" stroke-linejoin="round"/>
<path d="M10 3V6" stroke="#000001" stroke-linecap="round" stroke-linejoin="round"/>
<path d="M10 9V11" stroke="#000001" stroke-linecap="round" stroke-linejoin="round"/>
<path d="M10 9C10.8284 9 11.5 8.32843 11.5 7.5C11.5 6.67157 10.8284 6 10 6C9.17157 6 8.5 6.67157 8.5 7.5C8.5 8.32843 9.17157 9 10 9Z" stroke="#000001" stroke-linecap="round" stroke-linejoin="round"/>
</g>
<defs>
<clipPath id="clip0_6_1986">
<rect width="14" height="14" fill="white" transform="translate(0.5)"/>
</clipPath>
</defs>
</svg>
