<svg width="15" height="14" viewBox="0 0 15 14" fill="none" xmlns="http://www.w3.org/2000/svg">
<path d="M12.25 9V2C12.25 1.60218 12.092 1.22064 11.8107 0.93934C11.5294 0.658035 11.1478 0.5 10.75 0.5V0.5C10.3522 0.5 9.97064 0.658035 9.68934 0.93934C9.40804 1.22064 9.25 1.60218 9.25 2V9C8.83024 9.31482 8.52017 9.75374 8.36372 10.2546C8.20727 10.7554 8.21237 11.2928 8.37829 11.7906C8.54422 12.2883 8.86256 12.7213 9.28822 13.0281C9.71389 13.3349 10.2253 13.5 10.75 13.5C11.2747 13.5 11.7861 13.3349 12.2118 13.0281C12.6374 12.7213 12.9558 12.2883 13.1217 11.7906C13.2876 11.2928 13.2927 10.7554 13.1363 10.2546C12.9798 9.75374 12.6698 9.31482 12.25 9Z" stroke="#000001" stroke-linecap="round" stroke-linejoin="round"/>
<path d="M2.25 2.5H5.5" stroke="#000001" stroke-linecap="round" stroke-linejoin="round"/>
</svg>
