<svg width="14" height="14" viewBox="0 0 14 14" fill="none" xmlns="http://www.w3.org/2000/svg">
<path d="M13.5 10.5V4.5C13.5 3.94772 13.0523 3.5 12.5 3.5H10.5C9.94772 3.5 9.5 3.94772 9.5 4.5V10.5C9.5 11.0523 9.94772 11.5 10.5 11.5H12.5C13.0523 11.5 13.5 11.0523 13.5 10.5Z" stroke="#000001" stroke-linecap="round" stroke-linejoin="round"/>
<path d="M4.5 11.5L4.5 2.5C4.5 1.94772 4.05228 1.5 3.5 1.5L1.5 1.5C0.947715 1.5 0.5 1.94772 0.5 2.5L0.5 11.5C0.5 12.0523 0.947715 12.5 1.5 12.5H3.5C4.05228 12.5 4.5 12.0523 4.5 11.5Z" stroke="#000001" stroke-linecap="round" stroke-linejoin="round"/>
<path d="M9.5 7H4.5" stroke="#000001" stroke-linecap="round" stroke-linejoin="round"/>
</svg>
