<svg width="14" height="14" viewBox="0 0 14 14" fill="none" xmlns="http://www.w3.org/2000/svg">
<g clip-path="url(#clip0_6_3558)">
<path d="M2.5 7.5H3.5C3.76522 7.5 4.01957 7.60536 4.20711 7.79289C4.39464 7.98043 4.5 8.23478 4.5 8.5V12.5C4.5 12.7652 4.39464 13.0196 4.20711 13.2071C4.01957 13.3946 3.76522 13.5 3.5 13.5H1.5C1.23478 13.5 0.98043 13.3946 0.792893 13.2071C0.605357 13.0196 0.5 12.7652 0.5 12.5V7C0.5 5.27609 1.18482 3.62279 2.40381 2.40381C3.62279 1.18482 5.27609 0.5 7 0.5C8.72391 0.5 10.3772 1.18482 11.5962 2.40381C12.8152 3.62279 13.5 5.27609 13.5 7V12.5C13.5 12.7652 13.3946 13.0196 13.2071 13.2071C13.0196 13.3946 12.7652 13.5 12.5 13.5H10.5C10.2348 13.5 9.98043 13.3946 9.79289 13.2071C9.60536 13.0196 9.5 12.7652 9.5 12.5V8.5C9.5 8.23478 9.60536 7.98043 9.79289 7.79289C9.98043 7.60536 10.2348 7.5 10.5 7.5H11.5" stroke="#000001" stroke-linecap="round" stroke-linejoin="round"/>
</g>
<defs>
<clipPath id="clip0_6_3558">
<rect width="14" height="14" fill="white"/>
</clipPath>
</defs>
</svg>
