<svg width="15" height="14" viewBox="0 0 15 14" fill="none" xmlns="http://www.w3.org/2000/svg">
<path d="M12.0195 8V12.5C12.0195 12.7652 11.9142 13.0196 11.7266 13.2071C11.5391 13.3946 11.2847 13.5 11.0195 13.5H4.01953C3.75431 13.5 3.49996 13.3946 3.31242 13.2071C3.12489 13.0196 3.01953 12.7652 3.01953 12.5V8C3.01953 7.33696 3.28292 6.70107 3.75176 6.23223C4.22061 5.76339 4.85649 5.5 5.51953 5.5H9.51953C10.1826 5.5 10.8185 5.76339 11.2873 6.23223C11.7561 6.70107 12.0195 7.33696 12.0195 8V8Z" stroke="#000001" stroke-linecap="round" stroke-linejoin="round"/>
<path d="M8.01953 0.5H7.01953L5.51953 5.5H9.51953L8.01953 0.5Z" stroke="#000001" stroke-linecap="round" stroke-linejoin="round"/>
<path d="M5.51953 11H9.51953" stroke="#000001" stroke-linecap="round" stroke-linejoin="round"/>
<path d="M3.01953 8.5H12.0195" stroke="#000001" stroke-linecap="round" stroke-linejoin="round"/>
</svg>
