<svg width="14" height="14" viewBox="0 0 14 14" fill="none" xmlns="http://www.w3.org/2000/svg">
<path d="M10.2503 0.5C10.1465 0.500607 10.0451 0.531112 9.95819 0.587865C9.87129 0.644617 9.80258 0.725211 9.7603 0.82L8.1703 4.18C8.13467 4.26277 8.07815 4.33486 8.00628 4.3892C7.9344 4.44354 7.84964 4.47828 7.7603 4.49L4.2203 5C4.11272 5.01731 4.01219 5.06457 3.93023 5.13637C3.84827 5.20817 3.78819 5.30161 3.75688 5.40598C3.72557 5.51034 3.7243 5.62142 3.7532 5.72648C3.7821 5.83154 3.84001 5.92633 3.9203 6L6.4803 8.63C6.54441 8.69489 6.59231 8.77398 6.62011 8.86086C6.64791 8.94774 6.65482 9.03995 6.6403 9.13L6.0003 12.83C5.98211 12.9321 5.99261 13.0372 6.03062 13.1336C6.06864 13.23 6.13268 13.314 6.21561 13.3762C6.29855 13.4384 6.39712 13.4764 6.50035 13.4859C6.60358 13.4954 6.70742 13.476 6.8003 13.43L10.0003 11.69C10.0804 11.6469 10.1694 11.623 10.2603 11.62L10.2503 0.5Z" stroke="#000001" stroke-linecap="round" stroke-linejoin="round"/>
</svg>
