<svg width="16" height="17" viewBox="0 0 16 17" fill="none" xmlns="http://www.w3.org/2000/svg">
<path d="M7.99967 15.1668C11.6816 15.1668 14.6663 12.1821 14.6663 8.50016C14.6663 4.81826 11.6816 1.8335 7.99967 1.8335C4.31778 1.8335 1.33301 4.81826 1.33301 8.50016C1.33301 12.1821 4.31778 15.1668 7.99967 15.1668Z" stroke="#FBF0EA" stroke-width="1.5"/>
<path d="M4.66699 6.08604H7.66699M7.66699 6.08604H9.66699M7.66699 6.08604V5.1665M11.3337 6.08604H9.66699M9.66699 6.08604C9.31533 7.34357 8.57892 8.5323 7.73839 9.57704M7.73839 9.57704C7.04239 10.4421 6.27503 11.2084 5.59557 11.8332M7.73839 9.57704C7.30986 9.07457 6.70986 8.26157 6.53842 7.89377M7.73839 9.57704L9.02413 10.9136" stroke="#FBF0EA" stroke-width="1.5" stroke-linecap="round" stroke-linejoin="round"/>
</svg>
