<svg width="16" height="17" viewBox="0 0 16 17" fill="none" xmlns="http://www.w3.org/2000/svg">
<path d="M9.07847 14.7446C8.7894 15.0153 8.40293 15.1666 8.00073 15.1666C7.59853 15.1666 7.21213 15.0153 6.923 14.7446C4.27535 12.2506 0.727174 9.46458 2.45751 5.41975C3.39309 3.23275 5.63889 1.83331 8.00073 1.83331C10.3626 1.83331 12.6084 3.23275 13.544 5.41975C15.2721 9.45951 11.7327 12.2592 9.07847 14.7446Z" stroke="#585858" stroke-width="1.5"/>
<path d="M10.3337 7.83333C10.3337 9.122 9.28899 10.1667 8.00033 10.1667C6.71166 10.1667 5.66699 9.122 5.66699 7.83333C5.66699 6.54467 6.71166 5.5 8.00033 5.5C9.28899 5.5 10.3337 6.54467 10.3337 7.83333Z" stroke="#585858" stroke-width="1.5"/>
</svg>
