<svg width="16" height="16" viewBox="0 0 16 16" fill="none" xmlns="http://www.w3.org/2000/svg">
<path d="M12.0003 12C12.8301 12.2829 13.3337 12.6546 13.3337 13.0617C13.3337 13.9481 10.9459 14.6667 8.00033 14.6667C5.05481 14.6667 2.66699 13.9481 2.66699 13.0617C2.66699 12.6546 3.17051 12.2829 4.00033 12" stroke="#A05223" stroke-width="1.5" stroke-linecap="round"/>
<path d="M10 6.33325C10 7.43785 9.1046 8.33325 8 8.33325C6.8954 8.33325 6 7.43785 6 6.33325C6 5.22869 6.8954 4.33325 8 4.33325C9.1046 4.33325 10 5.22869 10 6.33325Z" stroke="#A05223" stroke-width="1.5"/>
<path d="M8 1.33325C10.7059 1.33325 13 3.6186 13 6.39118C13 9.20792 10.6685 11.1846 8.515 12.5287C8.35807 12.6191 8.1806 12.6666 8 12.6666C7.8194 12.6666 7.64193 12.6191 7.485 12.5287C5.3355 11.1715 3 9.21765 3 6.39118C3 3.6186 5.29413 1.33325 8 1.33325Z" stroke="#A05223" stroke-width="1.5"/>
</svg>
