<svg width="16" height="17" viewBox="0 0 16 17" fill="none" xmlns="http://www.w3.org/2000/svg">
<path fill-rule="evenodd" clip-rule="evenodd" d="M8.00033 1.1665C5.79119 1.1665 4.00033 2.95736 4.00033 5.1665V6.19043C3.55473 6.44769 3.19213 6.82898 2.95764 7.2892C2.66699 7.85963 2.66699 8.60636 2.66699 10.0998V11.5665C2.66699 13.06 2.66699 13.8067 2.95764 14.3771C3.2133 14.8789 3.62125 15.2869 4.12302 15.5425C4.69345 15.8332 5.44019 15.8332 6.93366 15.8332H9.06699C10.5605 15.8332 11.3072 15.8332 11.8776 15.5425C12.3794 15.2869 12.7873 14.8789 13.043 14.3771C13.3337 13.8067 13.3337 13.06 13.3337 11.5665V10.0998C13.3337 8.60636 13.3337 7.85963 13.043 7.2892C12.8085 6.82898 12.4459 6.44769 12.0003 6.19043V5.1665C12.0003 2.95737 10.2095 1.1665 8.00033 1.1665ZM9.06699 7.1665H6.93366C6.16492 7.1665 5.66856 7.16754 5.29077 7.19841C4.92856 7.228 4.79426 7.27824 4.72834 7.31183C4.47746 7.43966 4.27348 7.64363 4.14565 7.89452C4.11206 7.96044 4.06182 8.09473 4.03223 8.45695C4.00136 8.83473 4.00033 9.3311 4.00033 10.0998V11.5665C4.00033 12.3352 4.00136 12.8316 4.03223 13.2094C4.06182 13.5716 4.11206 13.7059 4.14565 13.7718C4.27348 14.0227 4.47746 14.2267 4.72834 14.3545C4.79426 14.3881 4.92856 14.4383 5.29077 14.4679C5.66856 14.4988 6.16492 14.4998 6.93366 14.4998H9.06699C9.83573 14.4998 10.3321 14.4988 10.7099 14.4679C11.0721 14.4383 11.2064 14.3881 11.2723 14.3545C11.5232 14.2267 11.7272 14.0227 11.855 13.7718C11.8886 13.7059 11.9388 13.5716 11.9684 13.2094C11.9993 12.8316 12.0003 12.3352 12.0003 11.5665V10.0998C12.0003 9.3311 11.9993 8.83473 11.9684 8.45695C11.9388 8.09473 11.8886 7.96044 11.855 7.89452C11.7272 7.64363 11.5232 7.43966 11.2723 7.31183C11.2064 7.27824 11.0721 7.228 10.7099 7.19841C10.3321 7.16754 9.83573 7.1665 9.06699 7.1665ZM10.667 5.83317V5.1665C10.667 3.69374 9.47308 2.49984 8.00033 2.49984C6.52757 2.49984 5.33366 3.69374 5.33366 5.1665V5.83317H10.667Z" fill="#E4DAD7"/>
</svg>
