<svg width="15" height="14" viewBox="0 0 15 14" fill="none" xmlns="http://www.w3.org/2000/svg">
<g clip-path="url(#clip0_6_4753)">
<path d="M4 9.5H11" stroke="#000001" stroke-linecap="round" stroke-linejoin="round"/>
<path d="M7.5 13.5C11.0899 13.5 14 10.5899 14 7C14 3.41015 11.0899 0.5 7.5 0.5C3.91015 0.5 1 3.41015 1 7C1 10.5899 3.91015 13.5 7.5 13.5Z" stroke="#000001" stroke-linecap="round" stroke-linejoin="round"/>
<path d="M5.29961 5.4C5.18915 5.4 5.09961 5.31046 5.09961 5.2C5.09961 5.08954 5.18915 5 5.29961 5" stroke="#000001" stroke-linecap="round" stroke-linejoin="round"/>
<path d="M5.30078 5.4C5.41124 5.4 5.50078 5.31046 5.50078 5.2C5.50078 5.08954 5.41124 5 5.30078 5" stroke="#000001" stroke-linecap="round" stroke-linejoin="round"/>
<path d="M9.7 5.4C9.58954 5.4 9.5 5.31046 9.5 5.2C9.5 5.08954 9.58954 5 9.7 5" stroke="#000001" stroke-linecap="round" stroke-linejoin="round"/>
<path d="M9.69922 5.4C9.80968 5.4 9.89922 5.31046 9.89922 5.2C9.89922 5.08954 9.80968 5 9.69922 5" stroke="#000001" stroke-linecap="round" stroke-linejoin="round"/>
</g>
<defs>
<clipPath id="clip0_6_4753">
<rect width="14" height="14" fill="white" transform="translate(0.5)"/>
</clipPath>
</defs>
</svg>
