<svg width="15" height="14" viewBox="0 0 15 14" fill="none" xmlns="http://www.w3.org/2000/svg">
<g clip-path="url(#clip0_6_4782)">
<path d="M10.5488 6.99993C10.5487 7.59113 10.374 8.16912 10.0465 8.66133C9.71902 9.15353 9.2534 9.538 8.70813 9.76646C8.16286 9.99492 7.56224 10.0572 6.9817 9.94542C6.40117 9.83366 5.86659 9.55286 5.44511 9.13829C5.02363 8.72372 4.73404 8.19386 4.6127 7.61525C4.49136 7.03664 4.54368 6.43507 4.76309 5.8861C4.98251 5.33713 5.35924 4.86522 5.84596 4.52964C6.33269 4.19407 6.90771 4.00978 7.49883 3.99993C7.89698 3.99329 8.29247 4.06599 8.66224 4.21378C9.03201 4.36157 9.36865 4.58149 9.65255 4.86073C9.93644 5.13997 10.1619 5.47294 10.3158 5.84021C10.4697 6.20749 10.5489 6.60172 10.5488 6.99993V6.99993Z" stroke="#000001" stroke-linecap="round" stroke-linejoin="round"/>
<path d="M10.5495 7V8.3C10.5495 11.79 16.0195 8.5 13.1495 3.76C12.5715 2.77305 11.7467 1.95349 10.7561 1.3819C9.76547 0.810318 8.64314 0.50639 7.49946 0.5C6.53862 0.502967 5.5904 0.718914 4.72303 1.1323C3.85566 1.54568 3.09073 2.14622 2.48329 2.89068C1.87585 3.63514 1.44101 4.50502 1.21007 5.43769C0.979133 6.37036 0.95784 7.34264 1.14773 8.28452C1.33761 9.22641 1.73395 10.1145 2.30822 10.8848C2.88248 11.6552 3.62039 12.2886 4.46883 12.7396C5.31727 13.1905 6.25513 13.4478 7.21491 13.4928C8.17469 13.5379 9.13253 13.3695 10.0195 13" stroke="#000001" stroke-linecap="round" stroke-linejoin="round"/>
</g>
<defs>
<clipPath id="clip0_6_4782">
<rect width="14" height="14" fill="white" transform="translate(0.5)"/>
</clipPath>
</defs>
</svg>
