<svg width="15" height="14" viewBox="0 0 15 14" fill="none" xmlns="http://www.w3.org/2000/svg">
<g clip-path="url(#clip0_6_4733)">
<path d="M4.5 8C4.5 8 5 9.5 7.5 9.5C10 9.5 10.5 8 10.5 8" stroke="#000001" stroke-linecap="round" stroke-linejoin="round"/>
<path d="M14 7C14 8.72391 13.3152 10.3772 12.0962 11.5962C10.8772 12.8152 9.22391 13.5 7.5 13.5C5.77609 13.5 4.12279 12.8152 2.90381 11.5962C1.68482 10.3772 1 8.72391 1 7V0.5H14V7Z" stroke="#000001" stroke-linecap="round" stroke-linejoin="round"/>
<path d="M5.5 5C5.5 4.73478 5.39464 4.48043 5.20711 4.29289C5.01957 4.10536 4.76522 4 4.5 4C4.23478 4 3.98043 4.10536 3.79289 4.29289C3.60536 4.48043 3.5 4.73478 3.5 5" stroke="#000001" stroke-linecap="round" stroke-linejoin="round"/>
<path d="M11.5 5C11.5 4.73478 11.3946 4.48043 11.2071 4.29289C11.0196 4.10536 10.7652 4 10.5 4C10.2348 4 9.98043 4.10536 9.79289 4.29289C9.60536 4.48043 9.5 4.73478 9.5 5" stroke="#000001" stroke-linecap="round" stroke-linejoin="round"/>
</g>
<defs>
<clipPath id="clip0_6_4733">
<rect width="14" height="14" fill="white" transform="translate(0.5)"/>
</clipPath>
</defs>
</svg>
