<svg width="15" height="14" viewBox="0 0 15 14" fill="none" xmlns="http://www.w3.org/2000/svg">
<g clip-path="url(#clip0_6_4747)">
<path d="M14 7C14 8.72391 13.3152 10.3772 12.0962 11.5962C10.8772 12.8152 9.22391 13.5 7.5 13.5C5.77609 13.5 4.12279 12.8152 2.90381 11.5962C1.68482 10.3772 1 8.72391 1 7V0.5H14V7Z" stroke="#000001" stroke-linecap="round" stroke-linejoin="round"/>
<path d="M4.5 9.5C4.5 9.5 5 8 7.5 8C10 8 10.5 9.5 10.5 9.5" stroke="#000001" stroke-linecap="round" stroke-linejoin="round"/>
<path d="M5.5 4.5C5.5 4.76522 5.39464 5.01957 5.20711 5.20711C5.01957 5.39464 4.76522 5.5 4.5 5.5C4.23478 5.5 3.98043 5.39464 3.79289 5.20711C3.60536 5.01957 3.5 4.76522 3.5 4.5" stroke="#000001" stroke-linecap="round" stroke-linejoin="round"/>
<path d="M11.5 4.5C11.5 4.76522 11.3946 5.01957 11.2071 5.20711C11.0196 5.39464 10.7652 5.5 10.5 5.5C10.2348 5.5 9.98043 5.39464 9.79289 5.20711C9.60536 5.01957 9.5 4.76522 9.5 4.5" stroke="#000001" stroke-linecap="round" stroke-linejoin="round"/>
</g>
<defs>
<clipPath id="clip0_6_4747">
<rect width="14" height="14" fill="white" transform="translate(0.5)"/>
</clipPath>
</defs>
</svg>
