<svg width="15" height="14" viewBox="0 0 15 14" fill="none" xmlns="http://www.w3.org/2000/svg">
<g clip-path="url(#clip0_6_4739)">
<path d="M7.5 13.5C11.0899 13.5 14 10.5899 14 7C14 3.41015 11.0899 0.5 7.5 0.5C3.91015 0.5 1 3.41015 1 7C1 10.5899 3.91015 13.5 7.5 13.5Z" stroke="#000001" stroke-linecap="round" stroke-linejoin="round"/>
<path d="M4.19922 10.4999C4.69922 8.69987 6.59922 7.59987 8.49922 8.09987C9.59922 8.39987 10.4992 9.29987 10.8992 10.4999" stroke="#000001" stroke-linecap="round" stroke-linejoin="round"/>
<path d="M5.29961 5.5001C5.18915 5.5001 5.09961 5.41055 5.09961 5.3001C5.09961 5.18964 5.18915 5.1001 5.29961 5.1001" stroke="#000001" stroke-linecap="round" stroke-linejoin="round"/>
<path d="M5.30078 5.5001C5.41124 5.5001 5.50078 5.41055 5.50078 5.3001C5.50078 5.18964 5.41124 5.1001 5.30078 5.1001" stroke="#000001" stroke-linecap="round" stroke-linejoin="round"/>
<path d="M9.7 5.5001C9.58954 5.5001 9.5 5.41055 9.5 5.3001C9.5 5.18964 9.58954 5.1001 9.7 5.1001" stroke="#000001" stroke-linecap="round" stroke-linejoin="round"/>
<path d="M9.69922 5.5001C9.80968 5.5001 9.89922 5.41055 9.89922 5.3001C9.89922 5.18964 9.80968 5.1001 9.69922 5.1001" stroke="#000001" stroke-linecap="round" stroke-linejoin="round"/>
</g>
<defs>
<clipPath id="clip0_6_4739">
<rect width="14" height="14" fill="white" transform="translate(0.5)"/>
</clipPath>
</defs>
</svg>
