<svg width="15" height="14" viewBox="0 0 15 14" fill="none" xmlns="http://www.w3.org/2000/svg">
<g clip-path="url(#clip0_6_4761)">
<path d="M6.3204 10.9999L8.5004 13.1699C8.63416 13.307 8.80139 13.4068 8.98555 13.4594C9.16971 13.512 9.36441 13.5156 9.5504 13.4699C9.73755 13.4264 9.91036 13.3355 10.0522 13.2059C10.1941 13.0763 10.3002 12.9124 10.3604 12.7299L13.9404 1.9999C14.0151 1.79885 14.0305 1.58058 13.9848 1.37102C13.9391 1.16147 13.8342 0.969449 13.6825 0.817787C13.5309 0.666125 13.3388 0.5612 13.1293 0.515484C12.9197 0.469768 12.7014 0.485183 12.5004 0.559898L1.7704 4.1399C1.58165 4.20437 1.41354 4.31807 1.28345 4.46926C1.15336 4.62046 1.066 4.80364 1.0304 4.9999C0.99366 5.17839 1.00184 5.36321 1.0542 5.53776C1.10657 5.7123 1.20148 5.87111 1.3304 5.9999L4.0704 8.7399L3.9804 12.2099L6.3204 10.9999Z" stroke="#000001" stroke-linecap="round" stroke-linejoin="round"/>
<path d="M13.6203 0.779785L4.07031 8.73979" stroke="#000001" stroke-linecap="round" stroke-linejoin="round"/>
</g>
<defs>
<clipPath id="clip0_6_4761">
<rect width="14" height="14" fill="white" transform="translate(0.5)"/>
</clipPath>
</defs>
</svg>
