<svg width="15" height="14" viewBox="0 0 15 14" fill="none" xmlns="http://www.w3.org/2000/svg">
<g clip-path="url(#clip0_6_4713)">
<path d="M4 7.5C4.27614 7.5 4.5 7.27614 4.5 7C4.5 6.72386 4.27614 6.5 4 6.5C3.72386 6.5 3.5 6.72386 3.5 7C3.5 7.27614 3.72386 7.5 4 7.5Z" stroke="#000001" stroke-linecap="round" stroke-linejoin="round"/>
<path d="M7.25 7.5C7.52614 7.5 7.75 7.27614 7.75 7C7.75 6.72386 7.52614 6.5 7.25 6.5C6.97386 6.5 6.75 6.72386 6.75 7C6.75 7.27614 6.97386 7.5 7.25 7.5Z" stroke="#000001" stroke-linecap="round" stroke-linejoin="round"/>
<path d="M10.5 7.5C10.7761 7.5 11 7.27614 11 7C11 6.72386 10.7761 6.5 10.5 6.5C10.2239 6.5 10 6.72386 10 7C10 7.27614 10.2239 7.5 10.5 7.5Z" stroke="#000001" stroke-linecap="round" stroke-linejoin="round"/>
<path d="M7.5 0.500001C6.32424 0.500367 5.1706 0.81964 4.16194 1.42381C3.15329 2.02799 2.3274 2.89444 1.77223 3.93088C1.21707 4.96732 0.953431 6.13493 1.00939 7.30936C1.06535 8.48378 1.43881 9.62104 2.09 10.6L1 13.5L4.65 12.84C5.52891 13.2695 6.49342 13.4951 7.47165 13.4999C8.44987 13.5048 9.41657 13.2888 10.2997 12.868C11.1828 12.4472 11.9596 11.8325 12.5721 11.0698C13.1846 10.307 13.617 9.41586 13.8371 8.46271C14.0573 7.50957 14.0594 6.51903 13.8434 5.56493C13.6275 4.61083 13.1989 3.71779 12.5898 2.95237C11.9806 2.18694 11.2065 1.56889 10.3253 1.14427C9.44399 0.719652 8.47824 0.499424 7.5 0.500001V0.500001Z" stroke="#000001" stroke-linecap="round" stroke-linejoin="round"/>
</g>
<defs>
<clipPath id="clip0_6_4713">
<rect width="14" height="14" fill="white" transform="translate(0.5)"/>
</clipPath>
</defs>
</svg>
