<svg width="16" height="17" viewBox="0 0 16 17" fill="none" xmlns="http://www.w3.org/2000/svg">
<path d="M14.4741 6.75807C14.5604 7.09667 14.6168 7.44767 14.64 7.80807C14.6758 8.36193 14.6758 8.93553 14.64 9.48947C14.4572 12.3199 12.2359 14.5745 9.44723 14.7601C8.49583 14.8233 7.50256 14.8232 6.55309 14.7601C6.22613 14.7383 5.86976 14.6602 5.56283 14.5337C5.22134 14.3929 5.05056 14.3225 4.96379 14.3332C4.87701 14.3439 4.75109 14.4368 4.49928 14.6227C4.05528 14.9503 3.49594 15.1857 2.66645 15.1655C2.247 15.1553 2.03728 15.1501 1.94339 14.9899C1.8495 14.8297 1.96643 14.6079 2.2003 14.1644C2.52465 13.5493 2.73017 12.8451 2.41877 12.2808C1.88245 11.4749 1.42689 10.5203 1.36032 9.48947C1.32455 8.93553 1.32455 8.36193 1.36032 7.80807C1.5431 4.97759 3.76442 2.72299 6.55309 2.53747C6.81056 2.52034 7.07129 2.50785 7.33349 2.5" stroke="#6D6D6D" stroke-width="1.5" stroke-linecap="round" stroke-linejoin="round"/>
<path d="M5.6665 10.4998H10.3332M5.6665 7.1665H7.99984" stroke="#6D6D6D" stroke-width="1.5" stroke-linecap="round" stroke-linejoin="round"/>
<path d="M14.6668 3.50016H9.3335M14.6668 3.50016C14.6668 3.03334 13.3373 2.16118 13.0002 1.8335M14.6668 3.50016C14.6668 3.96698 13.3373 4.83914 13.0002 5.16683" stroke="#6D6D6D" stroke-width="1.5" stroke-linecap="round" stroke-linejoin="round"/>
</svg>
