<svg width="17" height="16" viewBox="0 0 17 16" fill="none" xmlns="http://www.w3.org/2000/svg">
<path d="M6.16699 9.66659H10.8337M6.16699 6.33325H8.50033" stroke="#403E3E" stroke-width="1.5" stroke-linecap="round" stroke-linejoin="round"/>
<path d="M9.94674 13.9271C12.7354 13.7417 14.9567 11.4889 15.1395 8.66068C15.1753 8.10721 15.1753 7.53402 15.1395 6.98055C14.9567 4.15233 12.7354 1.8995 9.94674 1.71413C8.99534 1.65089 8.00207 1.65102 7.05261 1.71413C4.26393 1.8995 2.04261 4.15233 1.85983 6.98055C1.82407 7.53402 1.82407 8.10721 1.85983 8.66068C1.92641 9.69075 2.38196 10.6445 2.91828 11.4498C3.22968 12.0136 3.02417 12.7173 2.69981 13.3319C2.46595 13.7751 2.34901 13.9967 2.4429 14.1568C2.53679 14.3169 2.74651 14.322 3.16596 14.3322C3.99545 14.3524 4.55479 14.1172 4.99879 13.7898C5.25061 13.6041 5.37652 13.5113 5.4633 13.5006C5.55007 13.4899 5.72085 13.5603 6.06235 13.7009C6.36927 13.8273 6.72565 13.9053 7.05261 13.9271C8.00207 13.9902 8.99534 13.9903 9.94674 13.9271Z" stroke="#403E3E" stroke-width="1.5" stroke-linejoin="round"/>
</svg>
