<svg width="15" height="14" viewBox="0 0 15 14" fill="none" xmlns="http://www.w3.org/2000/svg">
<g clip-path="url(#clip0_6_4508)">
<path d="M6.5 3H4.5C3.94772 3 3.5 3.44772 3.5 4V6C3.5 6.55228 3.94772 7 4.5 7H6.5C7.05228 7 7.5 6.55228 7.5 6V4C7.5 3.44772 7.05228 3 6.5 3Z" stroke="#000001" stroke-linecap="round" stroke-linejoin="round"/>
<path d="M3.5 0.5H2C1.73478 0.5 1.48043 0.605357 1.29289 0.792893C1.10536 0.98043 1 1.23478 1 1.5V3" stroke="#000001" stroke-linecap="round" stroke-linejoin="round"/>
<path d="M11.5 0.5H13C13.2652 0.5 13.5196 0.605357 13.7071 0.792893C13.8946 0.98043 14 1.23478 14 1.5V3" stroke="#000001" stroke-linecap="round" stroke-linejoin="round"/>
<path d="M3.5 13.5H2C1.73478 13.5 1.48043 13.3946 1.29289 13.2071C1.10536 13.0196 1 12.7652 1 12.5V11" stroke="#000001" stroke-linecap="round" stroke-linejoin="round"/>
<path d="M11.5 13.5H13C13.2652 13.5 13.5196 13.3946 13.7071 13.2071C13.8946 13.0196 14 12.7652 14 12.5V11" stroke="#000001" stroke-linecap="round" stroke-linejoin="round"/>
<path d="M3.5 9.5V11H5" stroke="#000001" stroke-linecap="round" stroke-linejoin="round"/>
<path d="M7.5 11V9.5H6" stroke="#000001" stroke-linecap="round" stroke-linejoin="round"/>
<path d="M11.5 4.5H10V3" stroke="#000001" stroke-linecap="round" stroke-linejoin="round"/>
<path d="M11.5 8V6.5H10" stroke="#000001" stroke-linecap="round" stroke-linejoin="round"/>
<path d="M10 9.5V11H11.5" stroke="#000001" stroke-linecap="round" stroke-linejoin="round"/>
</g>
<defs>
<clipPath id="clip0_6_4508">
<rect width="14" height="14" fill="white" transform="translate(0.5)"/>
</clipPath>
</defs>
</svg>
