<svg width="15" height="14" viewBox="0 0 15 14" fill="none" xmlns="http://www.w3.org/2000/svg">
<g clip-path="url(#clip0_6_4321)">
<path d="M13 2.5H2C1.44772 2.5 1 2.94772 1 3.5V10.5C1 11.0523 1.44772 11.5 2 11.5H13C13.5523 11.5 14 11.0523 14 10.5V3.5C14 2.94772 13.5523 2.5 13 2.5Z" stroke="#000001" stroke-linecap="round" stroke-linejoin="round"/>
<path d="M7.5 8.5C8.32843 8.5 9 7.82843 9 7C9 6.17157 8.32843 5.5 7.5 5.5C6.67157 5.5 6 6.17157 6 7C6 7.82843 6.67157 8.5 7.5 8.5Z" stroke="#000001" stroke-linecap="round" stroke-linejoin="round"/>
<path d="M3.5 5H4" stroke="#000001" stroke-linecap="round" stroke-linejoin="round"/>
<path d="M11 9H11.5" stroke="#000001" stroke-linecap="round" stroke-linejoin="round"/>
</g>
<defs>
<clipPath id="clip0_6_4321">
<rect width="14" height="14" fill="white" transform="translate(0.5)"/>
</clipPath>
</defs>
</svg>
