<svg width="15" height="14" viewBox="0 0 15 14" fill="none" xmlns="http://www.w3.org/2000/svg">
<g clip-path="url(#clip0_6_4357)">
<path d="M7 12.5C10.3137 12.5 13 9.81371 13 6.5C13 3.18629 10.3137 0.5 7 0.5C3.68629 0.5 1 3.18629 1 6.5C1 9.81371 3.68629 12.5 7 12.5Z" stroke="#000001" stroke-linecap="round" stroke-linejoin="round"/>
<path d="M11.2402 10.7402L14.0002 13.5002" stroke="#000001" stroke-linecap="round" stroke-linejoin="round"/>
<path d="M7 4V2.5" stroke="#000001" stroke-linecap="round" stroke-linejoin="round"/>
<path d="M5.5 8C5.5 8.75 6.17 9 7 9C7.83 9 8.5 9 8.5 8C8.5 6.5 5.5 6.5 5.5 5C5.5 4 6.17 4 7 4C7.83 4 8.5 4.38 8.5 5" stroke="#000001" stroke-linecap="round" stroke-linejoin="round"/>
<path d="M7 9V10.5" stroke="#000001" stroke-linecap="round" stroke-linejoin="round"/>
</g>
<defs>
<clipPath id="clip0_6_4357">
<rect width="14" height="14" fill="white" transform="translate(0.5)"/>
</clipPath>
</defs>
</svg>
