<svg width="15" height="14" viewBox="0 0 15 14" fill="none" xmlns="http://www.w3.org/2000/svg">
<path d="M8.29008 6.45C8.85498 6.41755 9.38642 6.17157 9.77672 5.7619C10.167 5.35224 10.387 4.80952 10.3921 4.24371C10.3972 3.67791 10.187 3.13132 9.80411 2.71471C9.42123 2.29809 8.8943 2.0426 8.33008 2H4.89008C4.67525 2 4.46923 2.08534 4.31732 2.23724C4.16542 2.38915 4.08008 2.59517 4.08008 2.81V10.9C4.08008 11.1148 4.16542 11.3209 4.31732 11.4728C4.46923 11.6247 4.67525 11.71 4.89008 11.71H8.29008C8.9876 11.71 9.65655 11.4329 10.1498 10.9397C10.643 10.4465 10.9201 9.77752 10.9201 9.08C10.9201 8.38248 10.643 7.71353 10.1498 7.22031C9.65655 6.72709 8.9876 6.45 8.29008 6.45V6.45Z" stroke="#000001" stroke-linecap="round" stroke-linejoin="round"/>
<path d="M5.63086 2V0.5" stroke="#000001" stroke-linecap="round" stroke-linejoin="round"/>
<path d="M8.13086 2V0.5" stroke="#000001" stroke-linecap="round" stroke-linejoin="round"/>
<path d="M5.63086 13.5V12" stroke="#000001" stroke-linecap="round" stroke-linejoin="round"/>
<path d="M8.13086 13.5V12" stroke="#000001" stroke-linecap="round" stroke-linejoin="round"/>
<path d="M8.33008 6.4502H4.08008" stroke="#000001" stroke-linecap="round" stroke-linejoin="round"/>
</svg>
