<svg width="15" height="14" viewBox="0 0 15 14" fill="none" xmlns="http://www.w3.org/2000/svg">
<g clip-path="url(#clip0_6_4421)">
<path d="M9.56 5.42V5.06C9.56 4.64626 9.39564 4.24947 9.10309 3.95691C8.81053 3.66436 8.41374 3.5 8 3.5V3.5C7.58626 3.5 7.18947 3.66436 6.89691 3.95691C6.60436 4.24947 6.44 4.64626 6.44 5.06V8.06L5.5 9.5H9.56" stroke="#000001" stroke-linecap="round" stroke-linejoin="round"/>
<path d="M5 6.62012H7.88" stroke="#000001" stroke-linecap="round" stroke-linejoin="round"/>
<path d="M7.5 13.5C11.0899 13.5 14 10.5899 14 7C14 3.41015 11.0899 0.5 7.5 0.5C3.91015 0.5 1 3.41015 1 7C1 10.5899 3.91015 13.5 7.5 13.5Z" stroke="#000001" stroke-linecap="round" stroke-linejoin="round"/>
</g>
<defs>
<clipPath id="clip0_6_4421">
<rect width="14" height="14" fill="white" transform="translate(0.5)"/>
</clipPath>
</defs>
</svg>
