<svg width="15" height="14" viewBox="0 0 15 14" fill="none" xmlns="http://www.w3.org/2000/svg">
<g clip-path="url(#clip0_6_4533)">
<path d="M13 0.5H2C1.44772 0.5 1 0.947715 1 1.5V11C1 11.5523 1.44772 12 2 12H13C13.5523 12 14 11.5523 14 11V1.5C14 0.947715 13.5523 0.5 13 0.5Z" stroke="#000001" stroke-linecap="round" stroke-linejoin="round"/>
<path d="M9 8C9.9665 8 10.75 7.2165 10.75 6.25C10.75 5.2835 9.9665 4.5 9 4.5C8.0335 4.5 7.25 5.2835 7.25 6.25C7.25 7.2165 8.0335 8 9 8Z" stroke="#000001" stroke-linecap="round" stroke-linejoin="round"/>
<path d="M9 3.25V4.5" stroke="#000001" stroke-linecap="round" stroke-linejoin="round"/>
<path d="M9 8V9.25" stroke="#000001" stroke-linecap="round" stroke-linejoin="round"/>
<path d="M12 6.25H10.75" stroke="#000001" stroke-linecap="round" stroke-linejoin="round"/>
<path d="M7.25 6.25H6" stroke="#000001" stroke-linecap="round" stroke-linejoin="round"/>
<path d="M11.1202 4.12988L10.2402 5.00988" stroke="#000001" stroke-linecap="round" stroke-linejoin="round"/>
<path d="M7.76086 7.49023L6.88086 8.37023" stroke="#000001" stroke-linecap="round" stroke-linejoin="round"/>
<path d="M11.1202 8.37023L10.2402 7.49023" stroke="#000001" stroke-linecap="round" stroke-linejoin="round"/>
<path d="M7.76086 5.00988L6.88086 4.12988" stroke="#000001" stroke-linecap="round" stroke-linejoin="round"/>
<path d="M3.5 4.5V8" stroke="#000001" stroke-linecap="round" stroke-linejoin="round"/>
<path d="M2.5 12V13.5" stroke="#000001" stroke-linecap="round" stroke-linejoin="round"/>
<path d="M12 12V13.5" stroke="#000001" stroke-linecap="round" stroke-linejoin="round"/>
</g>
<defs>
<clipPath id="clip0_6_4533">
<rect width="14" height="14" fill="white" transform="translate(0.5)"/>
</clipPath>
</defs>
</svg>
