<svg width="15" height="14" viewBox="0 0 15 14" fill="none" xmlns="http://www.w3.org/2000/svg">
<g clip-path="url(#clip0_6_4520)">
<path d="M13.749 9.35994L9.85897 13.2499C9.71834 13.3904 9.52772 13.4693 9.32897 13.4693C9.13022 13.4693 8.93959 13.3904 8.79897 13.2499L2.28897 6.73994C2.25018 6.70286 2.22017 6.65757 2.20114 6.6074C2.1821 6.55722 2.17453 6.50343 2.17897 6.44994L2.76897 2.60994C2.77585 2.52206 2.81388 2.43952 2.87621 2.37719C2.93854 2.31485 3.02108 2.27682 3.10897 2.26994L6.94897 1.67994C7.00245 1.67551 7.05625 1.68308 7.10642 1.70211C7.1566 1.72114 7.20188 1.75115 7.23897 1.78994L13.749 8.29994C13.8894 8.44057 13.9683 8.63119 13.9683 8.82994C13.9683 9.0287 13.8894 9.21932 13.749 9.35994V9.35994Z" stroke="#000001" stroke-linecap="round" stroke-linejoin="round"/>
<path d="M4.5293 4.02979L1.0293 0.529785" stroke="#000001" stroke-linecap="round" stroke-linejoin="round"/>
</g>
<defs>
<clipPath id="clip0_6_4520">
<rect width="14" height="14" fill="white" transform="translate(0.5)"/>
</clipPath>
</defs>
</svg>
