<svg width="15" height="14" viewBox="0 0 15 14" fill="none" xmlns="http://www.w3.org/2000/svg">
<g clip-path="url(#clip0_6_4298)">
<path d="M12.5 7.5V5.5C12.5 5.23478 12.3946 4.98043 12.2071 4.79289C12.0196 4.60536 11.7652 4.5 11.5 4.5H2C1.73478 4.5 1.48043 4.60536 1.29289 4.79289C1.10536 4.98043 1 5.23478 1 5.5V12.5C1 12.7652 1.10536 13.0196 1.29289 13.2071C1.48043 13.3946 1.73478 13.5 2 13.5H11.5C11.7652 13.5 12.0196 13.3946 12.2071 13.2071C12.3946 13.0196 12.5 12.7652 12.5 12.5V10" stroke="#000001" stroke-linecap="round" stroke-linejoin="round"/>
<path d="M4.33984 1.99983L10.0098 0.519828C10.0736 0.501876 10.1402 0.49702 10.2059 0.505553C10.2715 0.514085 10.3348 0.535829 10.3918 0.569473C10.4488 0.603117 10.4984 0.647963 10.5376 0.701303C10.5768 0.754644 10.6048 0.815374 10.6198 0.879828L10.8998 1.99983" stroke="#000001" stroke-linecap="round" stroke-linejoin="round"/>
<path d="M13.5 7.5H11C10.7239 7.5 10.5 7.72386 10.5 8V9.5C10.5 9.77614 10.7239 10 11 10H13.5C13.7761 10 14 9.77614 14 9.5V8C14 7.72386 13.7761 7.5 13.5 7.5Z" stroke="#000001" stroke-linecap="round" stroke-linejoin="round"/>
</g>
<defs>
<clipPath id="clip0_6_4298">
<rect width="14" height="14" fill="white" transform="translate(0.5)"/>
</clipPath>
</defs>
</svg>
