<svg width="15" height="14" viewBox="0 0 15 14" fill="none" xmlns="http://www.w3.org/2000/svg">
<g clip-path="url(#clip0_6_4376)">
<path d="M13 6.5H2C1.44772 6.5 1 6.94772 1 7.5V12.5C1 13.0523 1.44772 13.5 2 13.5H13C13.5523 13.5 14 13.0523 14 12.5V7.5C14 6.94772 13.5523 6.5 13 6.5Z" stroke="#000001" stroke-linecap="round" stroke-linejoin="round"/>
<path d="M4 2V4" stroke="#000001" stroke-linecap="round" stroke-linejoin="round"/>
<path d="M7.5 0.5V4" stroke="#000001" stroke-linecap="round" stroke-linejoin="round"/>
<path d="M11 2V4" stroke="#000001" stroke-linecap="round" stroke-linejoin="round"/>
<path d="M7.5 11.5C8.32843 11.5 9 10.8284 9 10C9 9.17157 8.32843 8.5 7.5 8.5C6.67157 8.5 6 9.17157 6 10C6 10.8284 6.67157 11.5 7.5 11.5Z" stroke="#000001" stroke-linecap="round" stroke-linejoin="round"/>
</g>
<defs>
<clipPath id="clip0_6_4376">
<rect width="14" height="14" fill="white" transform="translate(0.5)"/>
</clipPath>
</defs>
</svg>
