<svg width="15" height="14" viewBox="0 0 15 14" fill="none" xmlns="http://www.w3.org/2000/svg">
<g clip-path="url(#clip0_6_4410)">
<path d="M9.00067 9.8C8.68388 9.93228 8.34396 10.0003 8.00067 10C7.23838 9.96625 6.52065 9.63138 6.00505 9.0689C5.48945 8.50643 5.21813 7.76234 5.25067 7C5.21813 6.23766 5.48945 5.49357 6.00505 4.93109C6.52065 4.36862 7.23838 4.03375 8.00067 4C8.27899 4.00174 8.55545 4.04557 8.82067 4.13" stroke="#000001" stroke-linecap="round" stroke-linejoin="round"/>
<path d="M4 6H7" stroke="#000001" stroke-linecap="round" stroke-linejoin="round"/>
<path d="M4 8H7" stroke="#000001" stroke-linecap="round" stroke-linejoin="round"/>
<path d="M7.5 13.5C11.0899 13.5 14 10.5899 14 7C14 3.41015 11.0899 0.5 7.5 0.5C3.91015 0.5 1 3.41015 1 7C1 10.5899 3.91015 13.5 7.5 13.5Z" stroke="#000001" stroke-linecap="round" stroke-linejoin="round"/>
</g>
<defs>
<clipPath id="clip0_6_4410">
<rect width="14" height="14" fill="white" transform="translate(0.5)"/>
</clipPath>
</defs>
</svg>
