<svg width="15" height="14" viewBox="0 0 15 14" fill="none" xmlns="http://www.w3.org/2000/svg">
<g clip-path="url(#clip0_6_4391)">
<path d="M8.37906 6.65992C8.56065 6.66257 8.74095 6.62909 8.90948 6.56143C9.07801 6.49377 9.23141 6.39328 9.36075 6.2658C9.4901 6.13832 9.5928 5.98639 9.6629 5.81886C9.73299 5.65133 9.76908 5.47153 9.76906 5.28992V5.28992C9.76906 4.92658 9.62472 4.57811 9.3678 4.32119C9.11087 4.06426 8.76241 3.91992 8.39906 3.91992H6.28906C6.15645 3.91992 6.02928 3.9726 5.93551 4.06637C5.84174 4.16014 5.78906 4.28731 5.78906 4.41992V9.41992C5.78906 9.55253 5.84174 9.67971 5.93551 9.77348C6.02928 9.86724 6.15645 9.91992 6.28906 9.91992H8.37906C8.80871 9.91992 9.22077 9.74924 9.52458 9.44543C9.82838 9.14163 9.99906 8.72957 9.99906 8.29992C9.99906 7.87027 9.82838 7.45822 9.52458 7.15441C9.22077 6.8506 8.80871 6.67992 8.37906 6.67992V6.65992Z" stroke="#000001" stroke-linecap="round" stroke-linejoin="round"/>
<path d="M8.39906 6.66016H5.78906" stroke="#000001" stroke-linecap="round" stroke-linejoin="round"/>
<path d="M6.73828 3.92V3" stroke="#000001" stroke-linecap="round" stroke-linejoin="round"/>
<path d="M8.2793 3.92V3" stroke="#000001" stroke-linecap="round" stroke-linejoin="round"/>
<path d="M6.73828 10.9999V9.8999" stroke="#000001" stroke-linecap="round" stroke-linejoin="round"/>
<path d="M8.2793 10.9999V9.8999" stroke="#000001" stroke-linecap="round" stroke-linejoin="round"/>
<path d="M7.5 13.5C11.0899 13.5 14 10.5899 14 7C14 3.41015 11.0899 0.5 7.5 0.5C3.91015 0.5 1 3.41015 1 7C1 10.5899 3.91015 13.5 7.5 13.5Z" stroke="#000001" stroke-linecap="round" stroke-linejoin="round"/>
</g>
<defs>
<clipPath id="clip0_6_4391">
<rect width="14" height="14" fill="white" transform="translate(0.5)"/>
</clipPath>
</defs>
</svg>
