<svg width="15" height="14" viewBox="0 0 15 14" fill="none" xmlns="http://www.w3.org/2000/svg">
<g clip-path="url(#clip0_6_4342)">
<path d="M7.5 4.5V3" stroke="#000001" stroke-linecap="round" stroke-linejoin="round"/>
<path d="M6 8.5C6 9.25 6.67 9.5 7.5 9.5C8.33 9.5 9 9.5 9 8.5C9 7 6 7 6 5.5C6 4.5 6.67 4.5 7.5 4.5C8.33 4.5 9 4.88 9 5.5" stroke="#000001" stroke-linecap="round" stroke-linejoin="round"/>
<path d="M7.5 9.5V11" stroke="#000001" stroke-linecap="round" stroke-linejoin="round"/>
<path d="M7.5 13.5C11.0899 13.5 14 10.5899 14 7C14 3.41015 11.0899 0.5 7.5 0.5C3.91015 0.5 1 3.41015 1 7C1 10.5899 3.91015 13.5 7.5 13.5Z" stroke="#000001" stroke-linecap="round" stroke-linejoin="round"/>
</g>
<defs>
<clipPath id="clip0_6_4342">
<rect width="14" height="14" fill="white" transform="translate(0.5)"/>
</clipPath>
</defs>
</svg>
