<svg width="15" height="14" viewBox="0 0 15 14" fill="none" xmlns="http://www.w3.org/2000/svg">
<g clip-path="url(#clip0_6_4315)">
<path d="M13 0.5H2C1.44772 0.5 1 0.947715 1 1.5V7.5C1 8.05228 1.44772 8.5 2 8.5H13C13.5523 8.5 14 8.05228 14 7.5V1.5C14 0.947715 13.5523 0.5 13 0.5Z" stroke="#000001" stroke-linecap="round" stroke-linejoin="round"/>
<path d="M7.5 6C8.32843 6 9 5.32843 9 4.5C9 3.67157 8.32843 3 7.5 3C6.67157 3 6 3.67157 6 4.5C6 5.32843 6.67157 6 7.5 6Z" stroke="#000001" stroke-linecap="round" stroke-linejoin="round"/>
<path d="M2 11H13" stroke="#000001" stroke-linecap="round" stroke-linejoin="round"/>
<path d="M3 13.5H12" stroke="#000001" stroke-linecap="round" stroke-linejoin="round"/>
</g>
<defs>
<clipPath id="clip0_6_4315">
<rect width="14" height="14" fill="white" transform="translate(0.5)"/>
</clipPath>
</defs>
</svg>
