<svg width="15" height="14" viewBox="0 0 15 14" fill="none" xmlns="http://www.w3.org/2000/svg">
<g clip-path="url(#clip0_6_4303)">
<path d="M8.5 3.02L14 0.5" stroke="#000001" stroke-linecap="round" stroke-linejoin="round"/>
<path d="M8.5 3.02002L14 4.50002" stroke="#000001" stroke-linecap="round" stroke-linejoin="round"/>
<path d="M7 13.5001C10.5 13.5001 13 12.2601 13 9.50014C13 6.50014 11.5 4.50014 8.5 3.00014L9.68 1.47014C9.73094 1.3723 9.75615 1.26311 9.75326 1.15285C9.75036 1.04259 9.71945 0.934871 9.66343 0.839849C9.60742 0.744827 9.52815 0.665621 9.43308 0.60969C9.33801 0.553758 9.23027 0.52294 9.12 0.520137H4.88C4.76238 0.517901 4.64636 0.547628 4.54431 0.606148C4.44226 0.664667 4.358 0.749786 4.30052 0.852427C4.24304 0.955069 4.21449 1.07139 4.21792 1.18898C4.22135 1.30657 4.25663 1.42102 4.32 1.52014L5.5 3.00014C2.5 4.52014 1 6.52014 1 9.52014C1 12.2601 3.5 13.5001 7 13.5001Z" stroke="#000001" stroke-linecap="round" stroke-linejoin="round"/>
</g>
<defs>
<clipPath id="clip0_6_4303">
<rect width="14" height="14" fill="white" transform="translate(0.5)"/>
</clipPath>
</defs>
</svg>
