<svg width="15" height="14" viewBox="0 0 15 14" fill="none" xmlns="http://www.w3.org/2000/svg">
<g clip-path="url(#clip0_6_4308)">
<path d="M7.5 10.02V11.03" stroke="#000001" stroke-linecap="round" stroke-linejoin="round"/>
<path d="M7.5 5.01025V5.95025" stroke="#000001" stroke-linecap="round" stroke-linejoin="round"/>
<path d="M7.5 13.4902C11 13.4902 13.5 12.2502 13.5 9.49021C13.5 6.49021 12 4.49021 9 2.99021L10.18 1.47021C10.2399 1.37049 10.2725 1.25668 10.2743 1.14033C10.276 1.02399 10.247 0.909237 10.1902 0.807712C10.1333 0.706188 10.0506 0.621498 9.95051 0.562228C9.85038 0.502958 9.73636 0.471215 9.62 0.470215H5.38C5.26364 0.471215 5.14962 0.502958 5.04949 0.562228C4.94935 0.621498 4.86667 0.706188 4.80982 0.807712C4.75296 0.909237 4.72396 1.02399 4.72575 1.14033C4.72754 1.25668 4.76005 1.37049 4.82 1.47021L6 3.00021C3 4.51021 1.5 6.51021 1.5 9.51021C1.5 12.2502 4 13.4902 7.5 13.4902Z" stroke="#000001" stroke-linecap="round" stroke-linejoin="round"/>
<path d="M6.50055 9.56034C6.62256 9.70518 6.77613 9.82014 6.94948 9.89641C7.12282 9.97268 7.31133 10.0082 7.50055 10.0003C7.78975 10.0201 8.07534 9.92687 8.29726 9.74038C8.51919 9.55389 8.66016 9.28862 8.69055 9.00034C8.66016 8.71206 8.51919 8.44679 8.29726 8.2603C8.07534 8.07381 7.78975 7.98063 7.50055 8.00034C7.21134 8.02006 6.92576 7.92687 6.70383 7.74038C6.48191 7.55389 6.34093 7.28862 6.31055 7.00034C6.33849 6.71105 6.47879 6.44426 6.70129 6.25728C6.9238 6.0703 7.21077 5.97805 7.50055 6.00034C7.68643 5.98897 7.87253 6.01895 8.04544 6.08811C8.21835 6.15728 8.37378 6.26391 8.50055 6.40034" stroke="#000001" stroke-linecap="round" stroke-linejoin="round"/>
</g>
<defs>
<clipPath id="clip0_6_4308">
<rect width="14" height="14" fill="white" transform="translate(0.5)"/>
</clipPath>
</defs>
</svg>
