<svg width="15" height="14" viewBox="0 0 15 14" fill="none" xmlns="http://www.w3.org/2000/svg">
<g clip-path="url(#clip0_6_4332)">
<path d="M9.5 7.5C11.9853 7.5 14 6.60457 14 5.5C14 4.39543 11.9853 3.5 9.5 3.5C7.01472 3.5 5 4.39543 5 5.5C5 6.60457 7.01472 7.5 9.5 7.5Z" stroke="#000001" stroke-linecap="round" stroke-linejoin="round"/>
<path d="M5 5.5V11.5C5 12.6 7 13.5 9.5 13.5C12 13.5 14 12.6 14 11.5V5.5" stroke="#000001" stroke-linecap="round" stroke-linejoin="round"/>
<path d="M14 8.5C14 9.6 12 10.5 9.5 10.5C7 10.5 5 9.6 5 8.5" stroke="#000001" stroke-linecap="round" stroke-linejoin="round"/>
<path d="M9.4 1.49999C8.23149 0.778863 6.87133 0.430103 5.5 0.499987C3.01 0.499987 1 1.39999 1 2.49999C1 3.08999 1.58 3.61999 2.5 3.99999" stroke="#000001" stroke-linecap="round" stroke-linejoin="round"/>
<path d="M2.5 10C1.58 9.62 1 9.09 1 8.5V2.5" stroke="#000001" stroke-linecap="round" stroke-linejoin="round"/>
<path d="M2.5 7C1.58 6.62 1 6.09 1 5.5" stroke="#000001" stroke-linecap="round" stroke-linejoin="round"/>
</g>
<defs>
<clipPath id="clip0_6_4332">
<rect width="14" height="14" fill="white" transform="translate(0.5)"/>
</clipPath>
</defs>
</svg>
