<svg width="15" height="14" viewBox="0 0 15 14" fill="none" xmlns="http://www.w3.org/2000/svg">
<g clip-path="url(#clip0_6_4349)">
<path d="M9 0.5H2C1.73478 0.5 1.48043 0.605357 1.29289 0.792893C1.10536 0.98043 1 1.23478 1 1.5V12.5C1 12.7652 1.10536 13.0196 1.29289 13.2071C1.48043 13.3946 1.73478 13.5 2 13.5H13C13.2652 13.5 13.5196 13.3946 13.7071 13.2071C13.8946 13.0196 14 12.7652 14 12.5V5.5L9 0.5Z" stroke="#000001" stroke-linecap="round" stroke-linejoin="round"/>
<path d="M9 5V0.5L14 5.5H9.5C9.36739 5.5 9.24021 5.44732 9.14645 5.35355C9.05268 5.25979 9 5.13261 9 5Z" stroke="#000001" stroke-linecap="round" stroke-linejoin="round"/>
<path d="M5 4.5V3" stroke="#000001" stroke-linecap="round" stroke-linejoin="round"/>
<path d="M3.5 8.5C3.5 9.25 4.17 9.5 5 9.5C5.83 9.5 6.5 9.5 6.5 8.5C6.5 7 3.5 7 3.5 5.5C3.5 4.5 4.17 4.5 5 4.5C5.83 4.5 6.5 4.88 6.5 5.5" stroke="#000001" stroke-linecap="round" stroke-linejoin="round"/>
<path d="M5 9.5V11" stroke="#000001" stroke-linecap="round" stroke-linejoin="round"/>
<path d="M9 9.5H12" stroke="#000001" stroke-linecap="round" stroke-linejoin="round"/>
</g>
<defs>
<clipPath id="clip0_6_4349">
<rect width="14" height="14" fill="white" transform="translate(0.5)"/>
</clipPath>
</defs>
</svg>
