<svg width="15" height="15" viewBox="0 0 15 15" fill="none" xmlns="http://www.w3.org/2000/svg">
<g clip-path="url(#clip0_6_5820)">
<path d="M6.84812 10.8301V12.8301C6.84553 12.9052 6.81384 12.9765 6.75973 13.0287C6.70562 13.0809 6.63334 13.1101 6.55813 13.1101H4.45812C4.11283 13.0519 3.80026 12.8708 3.57812 12.6001" stroke="#000001" stroke-linecap="round" stroke-linejoin="round"/>
<path d="M3.57766 12.6098C3.57766 12.6098 2.48766 11.6598 5.01766 9.12984H6.14766L4.45766 6.33984H1.34766L2.19766 7.42984C2.19766 7.42984 1.62766 7.52984 1.62766 8.31984C1.92663 9.88477 2.59519 11.3556 3.57766 12.6098V12.6098Z" stroke="#000001" stroke-linecap="round" stroke-linejoin="round"/>
<path d="M11.1973 7.1198L12.6773 6.1198C12.7103 6.1052 12.7461 6.09766 12.7823 6.09766C12.8184 6.09766 12.8542 6.1052 12.8873 6.1198C12.9259 6.12432 12.963 6.13745 12.9959 6.15821C13.0288 6.17898 13.0566 6.20686 13.0773 6.2398L14.2273 7.9598C14.296 8.09808 14.3317 8.25039 14.3317 8.4048C14.3317 8.55921 14.296 8.71152 14.2273 8.8498" stroke="#000001" stroke-linecap="round" stroke-linejoin="round"/>
<path d="M14.2673 8.75C14.2673 8.75 13.9473 10.05 10.6373 9.75V8.88L8.69727 11.42L10.5373 14.25L10.6373 12.92C10.6373 12.92 11.0073 13.37 11.6373 12.92C12.6938 11.652 13.5782 10.2498 14.2673 8.75V8.75Z" stroke="#000001" stroke-linecap="round" stroke-linejoin="round"/>
<path d="M5.19784 5.03L3.84784 4.41C3.78125 4.3756 3.72995 4.31751 3.70404 4.24719C3.67813 4.17686 3.67949 4.09938 3.70784 4.03L4.84784 1.75C4.924 1.61501 5.03049 1.49957 5.15892 1.4128C5.28734 1.32603 5.43418 1.27029 5.58784 1.25" stroke="#000001" stroke-linecap="round" stroke-linejoin="round"/>
<path d="M5.58789 1.24961C5.58789 1.24961 6.81789 1.24961 8.37789 4.24961L7.56789 5.24961H10.9279L12.1179 2.10961L10.7179 2.53961C10.6975 2.32264 10.619 2.11519 10.4905 1.93918C10.362 1.76316 10.1883 1.62511 9.98789 1.53961C9.29863 1.31143 8.57302 1.2131 7.84789 1.24961H5.58789Z" stroke="#000001" stroke-linecap="round" stroke-linejoin="round"/>
</g>
<defs>
<clipPath id="clip0_6_5820">
<rect width="14" height="14" fill="white" transform="translate(0.847656 0.75)"/>
</clipPath>
</defs>
</svg>
