<svg width="15" height="15" viewBox="0 0 15 15" fill="none" xmlns="http://www.w3.org/2000/svg">
<g clip-path="url(#clip0_6_5841)">
<path d="M10.8477 5.75V7.75C10.8477 8.01522 10.953 8.26957 11.1405 8.45711C11.3281 8.64464 11.5824 8.75 11.8477 8.75H12.3477C12.8781 8.75 13.3868 8.53929 13.7619 8.16421C14.1369 7.78914 14.3477 7.28043 14.3477 6.75V3.75C14.3477 3.48478 14.2423 3.23043 14.0548 3.04289C13.8672 2.85536 13.6129 2.75 13.3477 2.75H11.8477C11.5312 2.7497 11.2193 2.6743 10.9377 2.53C9.9829 2.03174 8.92451 1.76457 7.84766 1.75C6.76403 1.76144 5.69843 2.0287 4.73766 2.53C4.46116 2.66893 4.15704 2.74411 3.84766 2.75H2.34766C2.08244 2.75 1.82809 2.85536 1.64055 3.04289C1.45301 3.23043 1.34766 3.48478 1.34766 3.75V6.75C1.34766 7.28043 1.55837 7.78914 1.93344 8.16421C2.30852 8.53929 2.81722 8.75 3.34766 8.75H3.84766C4.11287 8.75 4.36723 8.64464 4.55476 8.45711C4.7423 8.26957 4.84766 8.01522 4.84766 7.75V5.75" stroke="#000001" stroke-linecap="round" stroke-linejoin="round"/>
<path d="M12.3477 8.75L12.0377 10.32C11.847 11.2912 11.3249 12.1659 10.5606 12.7947C9.79632 13.4235 8.83736 13.7673 7.84766 13.7673C6.85796 13.7673 5.89899 13.4235 5.13472 12.7947C4.37045 12.1659 3.84834 11.2912 3.65766 10.32L3.34766 8.75" stroke="#000001" stroke-linecap="round" stroke-linejoin="round"/>
<path d="M7.34766 10.75H8.34766" stroke="#000001" stroke-linecap="round" stroke-linejoin="round"/>
</g>
<defs>
<clipPath id="clip0_6_5841">
<rect width="14" height="14" fill="white" transform="translate(0.847656 0.75)"/>
</clipPath>
</defs>
</svg>
