<svg width="15" height="15" viewBox="0 0 15 15" fill="none" xmlns="http://www.w3.org/2000/svg">
<g clip-path="url(#clip0_6_5898)">
<path d="M10.0977 14.25H6.09766L5.59766 10.25H10.5977L10.0977 14.25Z" stroke="#000001" stroke-linecap="round" stroke-linejoin="round"/>
<path d="M12.9772 6.82008C12.7727 6.99801 12.5343 7.13254 12.2763 7.2155C12.0183 7.29846 11.7461 7.32812 11.4763 7.30268C11.2065 7.27724 10.9447 7.19723 10.7067 7.06751C10.4688 6.93778 10.2597 6.76105 10.0921 6.54804C9.92456 6.33504 9.80205 6.0902 9.73201 5.82839C9.66197 5.56659 9.64587 5.29328 9.68468 5.02506C9.7235 4.75685 9.81642 4.49932 9.95781 4.26811C10.0992 4.0369 10.2861 3.83684 10.5072 3.68008C11.3672 3.00008 14.0972 3.40008 14.0972 3.40008C14.0972 3.40008 13.8472 6.14008 12.9772 6.82008Z" stroke="#000001" stroke-linecap="round" stroke-linejoin="round"/>
<path d="M10.0977 6.39C9.51949 6.86373 9.04396 7.45034 8.70009 8.11401C8.35622 8.77767 8.15124 9.50446 8.09766 10.25C8.09766 7.25 6.59766 5.25 4.09766 3.75" stroke="#000001" stroke-linecap="round" stroke-linejoin="round"/>
<path d="M2.51723 5.7499C3.00683 6.17041 3.63721 6.39048 4.28216 6.36604C4.92711 6.34159 5.53902 6.07444 5.9954 5.61807C6.45177 5.16169 6.71892 4.54978 6.74337 3.90483C6.76781 3.25988 6.54774 2.6295 6.12723 2.13989C5.12723 1.14989 1.59723 1.24989 1.59723 1.24989C1.59723 1.24989 1.51723 4.7499 2.51723 5.7499Z" stroke="#000001" stroke-linecap="round" stroke-linejoin="round"/>
</g>
<defs>
<clipPath id="clip0_6_5898">
<rect width="14" height="14" fill="white" transform="translate(0.847656 0.75)"/>
</clipPath>
</defs>
</svg>
