<svg width="15" height="15" viewBox="0 0 15 15" fill="none" xmlns="http://www.w3.org/2000/svg">
<g clip-path="url(#clip0_6_5941)">
<path d="M14.3477 14.25C14.3477 14.25 10.3477 12.25 10.3477 9.25H5.34766C5.34766 12.25 1.34766 14.25 1.34766 14.25" stroke="#000001" stroke-linecap="round" stroke-linejoin="round"/>
<path d="M11.3477 6.25019C11.8781 6.25019 12.3868 6.03948 12.7619 5.66441C13.1369 5.28933 13.3477 4.78063 13.3477 4.25019C13.3477 3.71976 13.1369 3.21105 12.7619 2.83598C12.3868 2.46091 11.8781 2.25019 11.3477 2.25019C10.8977 2.24997 10.4609 2.40146 10.1077 2.68019C9.90519 2.25208 9.58528 1.89028 9.18518 1.63691C8.78507 1.38354 8.32124 1.24902 7.84766 1.24902C7.37408 1.24902 6.91024 1.38354 6.51014 1.63691C6.11003 1.89028 5.79013 2.25208 5.58766 2.68019C5.23446 2.40146 4.79759 2.24997 4.34766 2.25019C3.81722 2.25019 3.30852 2.46091 2.93344 2.83598C2.55837 3.21105 2.34766 3.71976 2.34766 4.25019C2.34766 4.78063 2.55837 5.28933 2.93344 5.66441C3.30852 6.03948 3.81722 6.25019 4.34766 6.25019" stroke="#000001" stroke-linecap="round" stroke-linejoin="round"/>
<path d="M6.34766 5.25V9.25" stroke="#000001" stroke-linecap="round" stroke-linejoin="round"/>
<path d="M9.34766 5.25V9.25" stroke="#000001" stroke-linecap="round" stroke-linejoin="round"/>
</g>
<defs>
<clipPath id="clip0_6_5941">
<rect width="14" height="14" fill="white" transform="translate(0.847656 0.75)"/>
</clipPath>
</defs>
</svg>
