<svg width="15" height="15" viewBox="0 0 15 15" fill="none" xmlns="http://www.w3.org/2000/svg">
<g clip-path="url(#clip0_6_5926)">
<path d="M12.4176 8.59046C12.523 8.89251 12.5544 9.21542 12.5092 9.53211C12.4639 9.84879 12.3434 10.15 12.1576 10.4105C11.9726 10.6703 11.7281 10.8821 11.4446 11.0283C11.161 11.1744 10.8466 11.2506 10.5276 11.2505H5.16764C4.84864 11.2506 4.53425 11.1744 4.25069 11.0283C3.96714 10.8821 3.72265 10.6703 3.53764 10.4105C3.3519 10.15 3.23136 9.84879 3.18612 9.53211C3.14088 9.21542 3.17226 8.89251 3.27764 8.59046L5.18764 3.14046C5.38149 2.58977 5.74149 2.11282 6.21794 1.77543C6.69439 1.43803 7.26382 1.25684 7.84764 1.25684C8.43145 1.25684 9.00088 1.43803 9.47733 1.77543C9.95379 2.11282 10.3138 2.58977 10.5076 3.14046L12.4176 8.59046Z" stroke="#000001" stroke-linecap="round" stroke-linejoin="round"/>
<path d="M6.34766 7.25L7.84766 8.75V14.25" stroke="#000001" stroke-linecap="round" stroke-linejoin="round"/>
<path d="M7.84766 8.75L9.34766 7.25" stroke="#000001" stroke-linecap="round" stroke-linejoin="round"/>
</g>
<defs>
<clipPath id="clip0_6_5926">
<rect width="14" height="14" fill="white" transform="translate(0.847656 0.75)"/>
</clipPath>
</defs>
</svg>
