<svg width="15" height="15" viewBox="0 0 15 15" fill="none" xmlns="http://www.w3.org/2000/svg">
<g clip-path="url(#clip0_6_5936)">
<path d="M11.3477 4.24971C11.2216 3.42245 10.8032 2.66777 10.1684 2.12247C9.53368 1.57717 8.72456 1.27734 7.88773 1.27734C7.05091 1.27734 6.24178 1.57717 5.60702 2.12247C4.97227 2.66777 4.55389 3.42245 4.42773 4.24971C3.63208 4.24971 2.86902 4.56578 2.30641 5.12839C1.7438 5.691 1.42773 6.45406 1.42773 7.24971C1.42773 8.04536 1.7438 8.80842 2.30641 9.37103C2.86902 9.93364 3.63208 10.2497 4.42773 10.2497C4.80147 10.2534 5.17213 10.182 5.51773 10.0397C5.79678 10.4161 6.16011 10.7219 6.57862 10.9326C6.99713 11.1434 7.45917 11.2531 7.92773 11.2531C8.3963 11.2531 8.85834 11.1434 9.27685 10.9326C9.69536 10.7219 10.0587 10.4161 10.3377 10.0397C10.6833 10.182 11.054 10.2534 11.4277 10.2497C12.2234 10.2497 12.9864 9.93364 13.5491 9.37103C14.1117 8.80842 14.4277 8.04536 14.4277 7.24971C14.4277 6.45406 14.1117 5.691 13.5491 5.12839C12.9864 4.56578 12.2234 4.24971 11.4277 4.24971H11.3477Z" stroke="#000001" stroke-linecap="round" stroke-linejoin="round"/>
<path d="M6.34766 7.25L7.84766 8.75V14.25" stroke="#000001" stroke-linecap="round" stroke-linejoin="round"/>
<path d="M7.84766 8.75L9.34766 7.25" stroke="#000001" stroke-linecap="round" stroke-linejoin="round"/>
</g>
<defs>
<clipPath id="clip0_6_5936">
<rect width="14" height="14" fill="white" transform="translate(0.847656 0.75)"/>
</clipPath>
</defs>
</svg>
