<svg width="15" height="15" viewBox="0 0 15 15" fill="none" xmlns="http://www.w3.org/2000/svg">
<g clip-path="url(#clip0_6_5882)">
<path d="M9.84766 14.25H5.84766L4.84766 10.25H10.8477L9.84766 14.25Z" stroke="#000001" stroke-linecap="round" stroke-linejoin="round"/>
<path d="M11.1581 3.63996C11.1067 3.47089 11.0224 3.31365 10.91 3.17729C10.7976 3.04093 10.6594 2.92814 10.5032 2.84542C10.3471 2.7627 10.1761 2.71168 10.0002 2.6953C9.82424 2.67892 9.6468 2.69749 9.47806 2.74996C9.35642 2.7882 9.24164 2.84559 9.13806 2.91996C9.17007 2.79919 9.18687 2.6749 9.18806 2.54996C9.18806 2.19457 9.04688 1.85374 8.79559 1.60244C8.54429 1.35114 8.20345 1.20996 7.84806 1.20996C7.49267 1.20996 7.15184 1.35114 6.90054 1.60244C6.64924 1.85374 6.50806 2.19457 6.50806 2.54996C6.49279 2.67282 6.49279 2.7971 6.50806 2.91996C6.41985 2.84997 6.32223 2.79274 6.21806 2.74996C5.88122 2.64273 5.51564 2.67294 5.20097 2.83402C4.8863 2.9951 4.64803 3.274 4.53806 3.60996C4.48374 3.77604 4.46293 3.95125 4.47685 4.12544C4.49076 4.29962 4.53912 4.46931 4.61912 4.62465C4.69912 4.78 4.80917 4.91792 4.94288 5.03041C5.0766 5.1429 5.23132 5.22773 5.39806 5.27996C5.51728 5.32006 5.64228 5.34033 5.76806 5.33996C5.60301 5.47061 5.47105 5.63831 5.3829 5.82947C5.29474 6.02063 5.25286 6.22987 5.26065 6.44024C5.26844 6.6506 5.32568 6.85617 5.42774 7.04028C5.5298 7.2244 5.67379 7.38188 5.84806 7.49996C6.13589 7.70795 6.49451 7.79317 6.84514 7.73692C7.19577 7.68067 7.50973 7.48754 7.71806 7.19996C7.77962 7.09804 7.82357 6.98648 7.84806 6.86996C7.88792 6.98981 7.94888 7.10156 8.02806 7.19996C8.23639 7.48754 8.55035 7.68067 8.90098 7.73692C9.25161 7.79317 9.61023 7.70795 9.89806 7.49996C10.0618 7.3749 10.1946 7.21375 10.2859 7.02903C10.3773 6.84432 10.4248 6.64103 10.4248 6.43496C10.4248 6.22889 10.3773 6.0256 10.2859 5.84089C10.1946 5.65618 10.0618 5.49502 9.89806 5.36996C10.0238 5.37033 10.1488 5.35006 10.2681 5.30996C10.4375 5.26088 10.5954 5.17833 10.7324 5.06719C10.8694 4.95605 10.9827 4.81858 11.0657 4.66289C11.1487 4.50721 11.1996 4.33648 11.2155 4.16078C11.2313 3.98508 11.2118 3.80799 11.1581 3.63996V3.63996Z" stroke="#000001" stroke-linecap="round" stroke-linejoin="round"/>
<path d="M7.84766 6.87012V10.2501" stroke="#000001" stroke-linecap="round" stroke-linejoin="round"/>
</g>
<defs>
<clipPath id="clip0_6_5882">
<rect width="14" height="14" fill="white" transform="translate(0.847656 0.75)"/>
</clipPath>
</defs>
</svg>
