<svg width="15" height="15" viewBox="0 0 15 15" fill="none" xmlns="http://www.w3.org/2000/svg">
<g clip-path="url(#clip0_6_5887)">
<path d="M12.3477 8.25L11.4877 13.41C11.4493 13.6466 11.3273 13.8616 11.1437 14.0158C10.9602 14.17 10.7273 14.2531 10.4877 14.25H5.19766C4.95797 14.2531 4.72514 14.17 4.54159 14.0158C4.35805 13.8616 4.23599 13.6466 4.19766 13.41L3.34766 8.25H12.3477Z" stroke="#000001" stroke-linecap="round" stroke-linejoin="round"/>
<path d="M4.84776 1.44043C4.37909 1.80063 3.9999 2.26416 3.73972 2.79492C3.47954 3.32568 3.34541 3.90934 3.34776 4.50043C3.31537 5.46163 3.66575 6.39641 4.32197 7.0995C4.97819 7.80259 5.88661 8.21653 6.84776 8.25043C7.16628 8.25022 7.48302 8.20305 7.78776 8.11043L4.84776 1.44043Z" stroke="#000001" stroke-linecap="round" stroke-linejoin="round"/>
<path d="M10.8482 1.44043C11.3169 1.80063 11.6961 2.26416 11.9562 2.79492C12.2164 3.32568 12.3506 3.90934 12.3482 4.50043C12.3806 5.46163 12.0302 6.39641 11.374 7.0995C10.7178 7.80259 9.80936 8.21653 8.8482 8.25043C8.52969 8.25022 8.21295 8.20305 7.9082 8.11043L10.8482 1.44043Z" stroke="#000001" stroke-linecap="round" stroke-linejoin="round"/>
<path d="M5.84766 3.75L7.84766 1.25L9.84766 3.75" stroke="#000001" stroke-linecap="round" stroke-linejoin="round"/>
</g>
<defs>
<clipPath id="clip0_6_5887">
<rect width="14" height="14" fill="white" transform="translate(0.847656 0.75)"/>
</clipPath>
</defs>
</svg>
