<svg width="15" height="15" viewBox="0 0 15 15" fill="none" xmlns="http://www.w3.org/2000/svg">
<g clip-path="url(#clip0_6_5846)">
<path d="M7.84766 9.49953C8.67608 9.49953 9.34766 8.83244 9.34766 8.00953C9.34766 7.18663 8.67608 6.51953 7.84766 6.51953C7.01923 6.51953 6.34766 7.18663 6.34766 8.00953C6.34766 8.83244 7.01923 9.49953 7.84766 9.49953Z" stroke="#000001" stroke-linecap="round" stroke-linejoin="round"/>
<path d="M14.2178 6.08996C14.0052 5.44318 13.5445 4.90723 12.9371 4.59975C12.3296 4.29227 11.625 4.2384 10.9778 4.44996C10.7468 4.51542 10.5275 4.61665 10.3278 4.74996C10.3925 4.51877 10.4261 4.28001 10.4278 4.03996C10.4278 3.3557 10.156 2.69947 9.67216 2.21563C9.18831 1.73178 8.53208 1.45996 7.84782 1.45996C7.16356 1.45996 6.50733 1.73178 6.02349 2.21563C5.53964 2.69947 5.26782 3.3557 5.26782 4.03996C5.26956 4.28001 5.30319 4.51877 5.36782 4.74996C5.16878 4.61314 4.94942 4.50852 4.71782 4.43996C4.39805 4.33556 4.06085 4.29516 3.72547 4.32108C3.39009 4.347 3.0631 4.43872 2.76317 4.59101C2.46323 4.74329 2.19623 4.95317 1.97741 5.20864C1.75858 5.46412 1.59222 5.76019 1.48782 6.07996C1.38342 6.39973 1.34303 6.73693 1.36894 7.07231C1.39486 7.40769 1.48658 7.73468 1.63887 8.03462C1.79116 8.33455 2.00103 8.60155 2.2565 8.82037C2.51198 9.0392 2.80805 9.20556 3.12782 9.30996C3.36204 9.37912 3.60383 9.41942 3.84782 9.42996C3.66144 9.57944 3.49359 9.75066 3.34782 9.93996C3.14873 10.211 3.00544 10.5189 2.92628 10.8458C2.84712 11.1726 2.83367 11.512 2.88669 11.8441C2.93972 12.1762 3.05817 12.4945 3.23518 12.7804C3.41218 13.0664 3.64422 13.3144 3.91782 13.51C4.47071 13.9095 5.1589 14.0748 5.83293 13.9699C6.50697 13.8651 7.11243 13.4986 7.51782 12.95C7.65849 12.7539 7.76968 12.5383 7.84782 12.31C7.92907 12.5389 8.04364 12.7545 8.18782 12.95C8.59322 13.4986 9.19868 13.8651 9.87271 13.9699C10.5467 14.0748 11.2349 13.9095 11.7878 13.51C12.0614 13.3144 12.2935 13.0664 12.4705 12.7804C12.6475 12.4945 12.7659 12.1762 12.819 11.8441C12.872 11.512 12.8585 11.1726 12.7794 10.8458C12.7002 10.5189 12.5569 10.211 12.3578 9.93996C12.2121 9.75066 12.0442 9.57944 11.8578 9.42996C12.0984 9.41861 12.3368 9.37832 12.5678 9.30996C12.8882 9.20784 13.1853 9.04334 13.4418 8.82595C13.6984 8.60856 13.9095 8.34257 14.0628 8.04328C14.2162 7.744 14.3088 7.41734 14.3354 7.0821C14.362 6.74687 14.3221 6.40969 14.2178 6.08996V6.08996Z" stroke="#000001" stroke-linecap="round" stroke-linejoin="round"/>
</g>
<defs>
<clipPath id="clip0_6_5846">
<rect width="14" height="14" fill="white" transform="translate(0.847656 0.75)"/>
</clipPath>
</defs>
</svg>
