<svg width="15" height="15" viewBox="0 0 15 15" fill="none" xmlns="http://www.w3.org/2000/svg">
<g clip-path="url(#clip0_6_5859)">
<path d="M12.3567 6.13009C14.3567 8.95009 12.8267 12.1801 12.0867 13.4401C11.9782 13.6163 11.8324 13.7667 11.6597 13.8807C11.487 13.9947 11.2914 14.0696 11.0867 14.1001C9.63669 14.3501 6.02669 14.6301 4.08669 11.8101C2.17669 9.15009 2.25669 4.47009 2.42669 2.24009C2.4334 2.07395 2.47946 1.91178 2.5611 1.76692C2.64273 1.62206 2.7576 1.49866 2.89625 1.40688C3.0349 1.31509 3.19337 1.25755 3.35861 1.23899C3.52385 1.22042 3.69113 1.24137 3.84669 1.30009C5.99669 1.92009 10.4767 3.47009 12.3567 6.13009Z" stroke="#000001" stroke-linecap="round" stroke-linejoin="round"/>
<path d="M5.61719 5.2002C7.90771 7.89946 9.91804 10.8245 11.6172 13.9302" stroke="#000001" stroke-linecap="round" stroke-linejoin="round"/>
</g>
<defs>
<clipPath id="clip0_6_5859">
<rect width="14" height="14" fill="white" transform="translate(0.847656 0.75)"/>
</clipPath>
</defs>
</svg>
