<svg width="15" height="15" viewBox="0 0 15 15" fill="none" xmlns="http://www.w3.org/2000/svg">
<g clip-path="url(#clip0_6_5830)">
<path d="M12.3477 3.25C12.3477 2.71957 12.1369 2.21086 11.7619 1.83579C11.3868 1.46071 10.8781 1.25 10.3477 1.25C9.81722 1.25 9.30852 1.46071 8.93344 1.83579C8.55837 2.21086 8.34766 2.71957 8.34766 3.25C8.34989 3.77958 8.56207 4.28665 8.93766 4.66L4.75766 8.84C4.38431 8.46441 3.87723 8.25223 3.34766 8.25C2.81722 8.25 2.30852 8.46071 1.93344 8.83579C1.55837 9.21086 1.34766 9.71957 1.34766 10.25C1.34766 10.7804 1.55837 11.2891 1.93344 11.6642C2.30852 12.0393 2.81722 12.25 3.34766 12.25C3.34766 12.7804 3.55837 13.2891 3.93344 13.6642C4.30852 14.0393 4.81722 14.25 5.34766 14.25C5.87809 14.25 6.3868 14.0393 6.76187 13.6642C7.13694 13.2891 7.34766 12.7804 7.34766 12.25C7.34542 11.7204 7.13324 11.2134 6.75766 10.84L10.9377 6.66C11.311 7.03559 11.8181 7.24777 12.3477 7.25C12.8781 7.25 13.3868 7.03929 13.7619 6.66421C14.1369 6.28914 14.3477 5.78043 14.3477 5.25C14.3477 4.71957 14.1369 4.21086 13.7619 3.83579C13.3868 3.46071 12.8781 3.25 12.3477 3.25Z" stroke="#000001" stroke-linecap="round" stroke-linejoin="round"/>
</g>
<defs>
<clipPath id="clip0_6_5830">
<rect width="14" height="14" fill="white" transform="translate(0.847656 0.75)"/>
</clipPath>
</defs>
</svg>
