<svg width="15" height="15" viewBox="0 0 15 15" fill="none" xmlns="http://www.w3.org/2000/svg">
<g clip-path="url(#clip0_6_5863)">
<path d="M12.1568 4.89958C12.1568 3.89958 12.1568 2.89958 12.0868 2.23958C12.0873 2.07783 12.0486 1.91836 11.9739 1.77486C11.8993 1.63135 11.7909 1.5081 11.6582 1.41567C11.5254 1.32324 11.3723 1.26439 11.2118 1.24417C11.0513 1.22395 10.8883 1.24297 10.7368 1.29958C8.57676 1.91958 4.16677 3.46958 2.31677 6.12958C0.316765 8.94958 1.85676 12.1796 2.58676 13.4396C2.69313 13.6177 2.83827 13.7695 3.0114 13.8838C3.18453 13.998 3.38119 14.0718 3.58677 14.0996C4.50754 14.2655 5.44799 14.2925 6.37677 14.1796" stroke="#000001" stroke-linecap="round" stroke-linejoin="round"/>
<path d="M5.84641 9.3291C4.83972 10.8126 3.91177 12.3481 3.06641 13.9291" stroke="#000001" stroke-linecap="round" stroke-linejoin="round"/>
<path d="M11.5177 14.22C11.4078 14.2597 11.2875 14.2597 11.1777 14.22C10.3437 13.8896 9.62808 13.3165 9.12352 12.5748C8.61896 11.8331 8.34867 10.957 8.34766 10.06V8.20999C8.34888 8.1465 8.36295 8.08393 8.38902 8.02603C8.41509 7.96814 8.45263 7.91613 8.49935 7.87314C8.54608 7.83015 8.60103 7.79707 8.6609 7.7759C8.72076 7.75474 8.78429 7.74592 8.84766 7.74999H13.8477C13.9689 7.75254 14.0844 7.80182 14.1701 7.88754C14.2558 7.97326 14.3051 8.08879 14.3077 8.20999V10.06C14.3098 10.9524 14.0454 11.8252 13.5484 12.5663C13.0513 13.3075 12.3442 13.8833 11.5177 14.22Z" stroke="#000001" stroke-linecap="round" stroke-linejoin="round"/>
</g>
<defs>
<clipPath id="clip0_6_5863">
<rect width="14" height="14" fill="white" transform="translate(0.847656 0.75)"/>
</clipPath>
</defs>
</svg>
