<svg width="24" height="25" viewBox="0 0 24 25" fill="none" xmlns="http://www.w3.org/2000/svg">
<rect y="0.5" width="24" height="24" rx="12" fill="#454545"/>
<path fill-rule="evenodd" clip-rule="evenodd" d="M6.50008 10.8333C6.50008 7.79569 8.96251 5.33325 12.0001 5.33325C15.0376 5.33325 17.5001 7.79569 17.5001 10.8333V12.281C17.5001 12.502 17.5879 12.7139 17.7441 12.8703L18.6869 13.8131C18.7807 13.9068 18.8334 14.034 18.8334 14.1666V15.0879C18.8334 15.525 18.5873 15.9431 18.1669 16.1323C17.0731 16.6246 15.0161 17.3333 12.0001 17.3333C8.98406 17.3333 6.92708 16.6246 5.83329 16.1323C5.41279 15.9431 5.16675 15.525 5.16675 15.0879V14.1666C5.16675 14.034 5.21943 13.9068 5.31319 13.8131L6.256 12.8703C6.41228 12.7139 6.50008 12.502 6.50008 12.281V10.8333Z" fill="#F6F6F6"/>
<path d="M14.4546 18.2918C14.5493 18.4977 14.4941 18.749 14.3076 18.8944C13.6869 19.3788 12.8771 19.6662 12 19.6662C11.1229 19.6662 10.3131 19.3788 9.69244 18.8944C9.50601 18.749 9.45079 18.4977 9.54544 18.2918C9.57547 18.2264 9.64897 18.199 9.72019 18.2087C10.0816 18.2582 11.2212 18.4054 12 18.4054C12.7788 18.4054 13.9185 18.2582 14.2799 18.2087C14.3511 18.199 14.4246 18.2264 14.4546 18.2918Z" fill="#F6F6F6"/>
</svg>
