<svg width="16" height="16" viewBox="0 0 16 16" fill="none" xmlns="http://www.w3.org/2000/svg">
<path d="M9.66083 10.3333H9.66683M6.3335 10.3333H6.33948" stroke="#585858" stroke-width="2" stroke-linecap="round" stroke-linejoin="round"/>
<path d="M2.84504 12.5631C2.99496 13.6767 3.91726 14.549 5.03961 14.6006C5.98402 14.644 6.94337 14.6667 7.99984 14.6667C9.0563 14.6667 10.0156 14.644 10.96 14.6006C12.0824 14.549 13.0047 13.6767 13.1546 12.5631C13.2525 11.8365 13.3332 11.0917 13.3332 10.3333C13.3332 9.57493 13.2525 8.8302 13.1546 8.10353C13.0047 6.99 12.0824 6.11766 10.96 6.06606C10.0156 6.02265 9.0563 6 7.99984 6C6.94337 6 5.98402 6.02265 5.03961 6.06606C3.91726 6.11766 2.99496 6.99 2.84504 8.10353C2.7472 8.8302 2.6665 9.57493 2.6665 10.3333C2.6665 11.0917 2.7472 11.8365 2.84504 12.5631Z" stroke="#585858" stroke-width="1.5"/>
<path d="M5 5.99992V4.33325C5 2.6764 6.34315 1.33325 8 1.33325C9.65687 1.33325 11 2.6764 11 4.33325V5.99992" stroke="#585858" stroke-width="1.5" stroke-linecap="round" stroke-linejoin="round"/>
</svg>
