<svg width="16" height="17" viewBox="0 0 16 17" fill="none" xmlns="http://www.w3.org/2000/svg">
<path d="M2.51858 8.46176C1.88656 7.3597 1.5814 6.45982 1.39739 5.54764C1.12524 4.19855 1.74804 2.8807 2.77975 2.03981C3.2158 1.68442 3.71565 1.80584 3.9735 2.26843L4.55562 3.31277C5.01702 4.14054 5.24772 4.55442 5.20196 4.99322C5.15621 5.43202 4.84508 5.7894 4.22281 6.50417L2.51858 8.46176ZM2.51858 8.46176C3.79784 10.6924 5.80539 12.701 8.03856 13.9818M8.03856 13.9818C9.14063 14.6138 10.0405 14.919 10.9527 15.103C12.3018 15.3751 13.6196 14.7523 14.4605 13.7206C14.8159 13.2846 14.6945 12.7847 14.2319 12.5268L13.1876 11.9447C12.3598 11.4833 11.9459 11.2526 11.5071 11.2984C11.0683 11.3441 10.7109 11.6552 9.99616 12.2775L8.03856 13.9818Z" stroke="#BAB8B9" stroke-width="1.5" stroke-linejoin="round"/>
<path d="M13.3335 2.5V7.16667M9.3335 2.5V7.16667" stroke="#BAB8B9" stroke-width="1.5" stroke-linecap="round"/>
</svg>
