<svg width="15" height="15" viewBox="0 0 15 15" fill="none" xmlns="http://www.w3.org/2000/svg">
<g clip-path="url(#clip0_6_5981)">
<path d="M9.60732 13.7497C10.2231 14.147 10.957 14.3201 11.6855 14.24C12.4139 14.1599 13.0926 13.8314 13.6073 13.3097L14.0573 12.8697C14.2546 12.6679 14.3651 12.3969 14.3651 12.1147C14.3651 11.8325 14.2546 11.5615 14.0573 11.3597L12.1473 9.4697C11.9472 9.27305 11.6779 9.16285 11.3973 9.16285C11.1168 9.16285 10.8474 9.27305 10.6473 9.4697V9.4697C10.4455 9.66698 10.1745 9.77745 9.89232 9.77745C9.61011 9.77745 9.33911 9.66698 9.13732 9.4697L6.13732 6.4697C6.03724 6.37108 5.95777 6.25354 5.90352 6.12393C5.84928 5.99431 5.82134 5.85521 5.82134 5.7147C5.82134 5.57419 5.84928 5.43509 5.90352 5.30547C5.95777 5.17586 6.03724 5.05832 6.13732 4.9597V4.9597C6.33397 4.7596 6.44417 4.49026 6.44417 4.2097C6.44417 3.92914 6.33397 3.6598 6.13732 3.4597L4.23732 1.5597C4.03553 1.36242 3.76453 1.25195 3.48232 1.25195C3.20011 1.25195 2.92911 1.36242 2.72732 1.5597L2.28732 2.0097C1.76566 2.52444 1.43715 3.2031 1.35702 3.93157C1.27689 4.66003 1.45003 5.39387 1.84732 6.0097C3.91736 9.06043 6.55126 11.6875 9.60732 13.7497V13.7497Z" stroke="#000001" stroke-linecap="round" stroke-linejoin="round"/>
</g>
<defs>
<clipPath id="clip0_6_5981">
<rect width="14" height="14" fill="white" transform="translate(0.847656 0.75)"/>
</clipPath>
</defs>
</svg>
