<svg width="15" height="15" viewBox="0 0 15 15" fill="none" xmlns="http://www.w3.org/2000/svg">
<g clip-path="url(#clip0_6_6003)">
<path d="M4.23672 11.36H2.78672C2.42424 11.3299 2.08634 11.1645 1.84004 10.8969C1.59374 10.6292 1.45703 10.2788 1.45703 9.91504C1.45703 9.5513 1.59374 9.20085 1.84004 8.93319C2.08634 8.66553 2.42424 8.50022 2.78672 8.47004H5.08672L6.56672 6.99004L2.50672 4.49004C2.19416 4.29682 1.96661 3.99214 1.87009 3.63758C1.77356 3.28302 1.81524 2.90504 1.98672 2.58004C2.06242 2.39404 2.17542 2.22553 2.31875 2.08489C2.46209 1.94425 2.63272 1.83447 2.82012 1.76232C3.00752 1.69017 3.20772 1.65718 3.40836 1.66539C3.609 1.6736 3.80584 1.72283 3.98672 1.81004L9.28672 4.26004L11.8467 1.67004C12.1225 1.39421 12.4966 1.23926 12.8867 1.23926C13.2768 1.23926 13.6509 1.39421 13.9267 1.67004C14.2025 1.94587 14.3575 2.31996 14.3575 2.71004C14.3575 3.10012 14.2025 3.47421 13.9267 3.75004L11.3367 6.31004L13.7867 11.66C13.8673 11.8382 13.9113 12.0307 13.9161 12.2262C13.9208 12.4217 13.8863 12.6161 13.8145 12.798C13.7426 12.9799 13.635 13.1455 13.498 13.285C13.361 13.4245 13.1973 13.535 13.0167 13.61C12.6917 13.7815 12.3137 13.8232 11.9592 13.7267C11.6046 13.6301 11.2999 13.4026 11.1067 13.09L8.60672 9.03004L7.12672 10.51V12.81C7.09654 13.1725 6.93123 13.5104 6.66357 13.7567C6.39591 14.003 6.04546 14.1397 5.68172 14.1397C5.31798 14.1397 4.96753 14.003 4.69987 13.7567C4.43221 13.5104 4.2669 13.1725 4.23672 12.81V11.36Z" stroke="#000001" stroke-linecap="round" stroke-linejoin="round"/>
</g>
<defs>
<clipPath id="clip0_6_6003">
<rect width="14" height="14" fill="white" transform="translate(0.847656 0.75)"/>
</clipPath>
</defs>
</svg>
