<svg width="17" height="16" viewBox="0 0 17 16" fill="none" xmlns="http://www.w3.org/2000/svg">
<path d="M10.5 6C10.5 4.89543 9.6046 4 8.5 4C7.3954 4 6.5 4.89543 6.5 6C6.5 7.1046 7.3954 8 8.5 8C9.6046 8 10.5 7.1046 10.5 6Z" stroke="#403E3E" stroke-width="1.5" stroke-linecap="round" stroke-linejoin="round"/>
<path d="M15.1663 7.99992C15.1663 4.31802 12.1815 1.33325 8.49967 1.33325C4.81777 1.33325 1.83301 4.31802 1.83301 7.99992C1.83301 11.6818 4.81777 14.6666 8.49967 14.6666C12.1815 14.6666 15.1663 11.6818 15.1663 7.99992Z" stroke="#403E3E" stroke-width="1.5" stroke-linecap="round" stroke-linejoin="round"/>
<path d="M11.8337 11.3333C11.8337 9.4924 10.3413 8 8.50033 8C6.65938 8 5.16699 9.4924 5.16699 11.3333" stroke="#403E3E" stroke-width="1.5" stroke-linecap="round" stroke-linejoin="round"/>
</svg>
