<svg width="14" height="15" viewBox="0 0 14 15" fill="none" xmlns="http://www.w3.org/2000/svg">
<g clip-path="url(#clip0_6_4981)">
<path d="M5.5 13.25H1.5C1.23478 13.25 0.98043 13.1446 0.792893 12.9571C0.605357 12.7696 0.5 12.5152 0.5 12.25V2.25C0.5 1.98478 0.605357 1.73043 0.792893 1.54289C0.98043 1.35536 1.23478 1.25 1.5 1.25H12.5C12.7652 1.25 13.0196 1.35536 13.2071 1.54289C13.3946 1.73043 13.5 1.98478 13.5 2.25V7.25" stroke="#000001" stroke-linecap="round" stroke-linejoin="round"/>
<path d="M0.5 4.25H13.5" stroke="#000001" stroke-linecap="round" stroke-linejoin="round"/>
<path d="M9.5 12.75C10.8807 12.75 12 11.6307 12 10.25C12 8.86929 10.8807 7.75 9.5 7.75C8.11929 7.75 7 8.86929 7 10.25C7 11.6307 8.11929 12.75 9.5 12.75Z" stroke="#000001" stroke-linecap="round" stroke-linejoin="round"/>
<path d="M11.2695 12.0195L13.4995 14.2495" stroke="#000001" stroke-linecap="round" stroke-linejoin="round"/>
</g>
<defs>
<clipPath id="clip0_6_4981">
<rect width="14" height="14" fill="white" transform="translate(0 0.75)"/>
</clipPath>
</defs>
</svg>
