<svg width="14" height="15" viewBox="0 0 14 15" fill="none" xmlns="http://www.w3.org/2000/svg">
<path d="M2.16992 3.91969C2.70198 3.5643 3.31016 3.33902 3.94535 3.26205C4.58054 3.18508 5.22493 3.25858 5.82647 3.47662C6.42801 3.69465 6.96984 4.05111 7.4082 4.51719C7.84656 4.98328 8.16915 5.54592 8.34992 6.15969C8.69246 5.8074 9.11628 5.54464 9.58415 5.3945C10.052 5.24436 10.5496 5.21143 11.0332 5.29863C11.5167 5.38582 11.9715 5.59045 12.3574 5.89454C12.7434 6.19864 13.0488 6.59288 13.2467 7.04262C13.4446 7.49236 13.529 7.98383 13.4925 8.47384C13.456 8.96385 13.2997 9.43739 13.0374 9.85285C12.775 10.2683 12.4146 10.613 11.9879 10.8565C11.5611 11.1001 11.0811 11.2351 10.5899 11.2497L9.58992 11.2997" stroke="#000001" stroke-linecap="round" stroke-linejoin="round"/>
<path d="M0.750008 5.84961C0.583719 6.2976 0.499048 6.77176 0.500008 7.24961C0.500008 8.31048 0.921436 9.32789 1.67158 10.078C2.42173 10.8282 3.43914 11.2496 4.50001 11.2496H6.00001" stroke="#000001" stroke-linecap="round" stroke-linejoin="round"/>
<path d="M0.5 2.25L11.5 13.25" stroke="#000001" stroke-linecap="round" stroke-linejoin="round"/>
</svg>
