<svg width="14" height="15" viewBox="0 0 14 15" fill="none" xmlns="http://www.w3.org/2000/svg">
<g clip-path="url(#clip0_6_5046)">
<path d="M2.13086 14.1299C2.95929 14.1299 3.63086 13.4583 3.63086 12.6299C3.63086 11.8015 2.95929 11.1299 2.13086 11.1299C1.30243 11.1299 0.630859 11.8015 0.630859 12.6299C0.630859 13.4583 1.30243 14.1299 2.13086 14.1299Z" stroke="#000001" stroke-linecap="round" stroke-linejoin="round"/>
<path d="M13.3809 12.8701C13.3809 11.3599 13.0834 9.8645 12.5055 8.46926C11.9275 7.07401 11.0805 5.80626 10.0126 4.73839C8.94471 3.67052 7.67696 2.82343 6.28172 2.2455C4.88647 1.66757 3.39106 1.37012 1.88086 1.37012" stroke="#000001" stroke-linecap="round" stroke-linejoin="round"/>
<path d="M2.12109 6.12988C2.97469 6.12988 3.81992 6.29801 4.60854 6.62467C5.39715 6.95132 6.11371 7.43011 6.71729 8.03369C7.32087 8.63727 7.79966 9.35382 8.12631 10.1424C8.45297 10.9311 8.62109 11.7763 8.62109 12.6299" stroke="#000001" stroke-linecap="round" stroke-linejoin="round"/>
</g>
<defs>
<clipPath id="clip0_6_5046">
<rect width="14" height="14" fill="white" transform="translate(0 0.75)"/>
</clipPath>
</defs>
</svg>
