<svg width="14" height="15" viewBox="0 0 14 15" fill="none" xmlns="http://www.w3.org/2000/svg">
<g clip-path="url(#clip0_6_5082)">
<path d="M6.5 8.25V14.25" stroke="#000001" stroke-linecap="round" stroke-linejoin="round"/>
<path d="M4.5 10.25L6.5 8.25L8.5 10.25" stroke="#000001" stroke-linecap="round" stroke-linejoin="round"/>
<path d="M12 8.85001C12.3714 8.6357 12.6926 8.34424 12.9419 7.99529C13.1911 7.64633 13.3627 7.248 13.445 6.82713C13.5273 6.40626 13.5184 5.97265 13.4189 5.55551C13.3194 5.13838 13.1316 4.74742 12.8682 4.409C12.6049 4.07058 12.272 3.79255 11.8921 3.59367C11.5121 3.39478 11.094 3.27966 10.6658 3.25606C10.2376 3.23247 9.80934 3.30095 9.40986 3.45688C9.01038 3.61281 8.64897 3.85258 8.35 4.16001C8.08784 3.22985 7.49778 2.42604 6.68892 1.8972C5.88006 1.36835 4.90708 1.15023 3.94986 1.28314C2.99264 1.41605 2.11591 1.89102 1.48173 2.62024C0.847555 3.34945 0.498823 4.28361 0.500003 5.25001C0.500712 6.15913 0.811092 7.04089 1.38 7.75001" stroke="#000001" stroke-linecap="round" stroke-linejoin="round"/>
</g>
<defs>
<clipPath id="clip0_6_5082">
<rect width="14" height="14" fill="white" transform="translate(0 0.75)"/>
</clipPath>
</defs>
</svg>
