<svg width="14" height="15" viewBox="0 0 14 15" fill="none" xmlns="http://www.w3.org/2000/svg">
<g clip-path="url(#clip0_6_5068)">
<path d="M10.5006 9.25C10.9959 9.25036 11.4836 9.12808 11.9201 8.89407C12.3567 8.66007 12.7285 8.32161 13.0024 7.90893C13.2762 7.49624 13.4437 7.02216 13.4898 6.529C13.5358 6.03584 13.4591 5.53895 13.2663 5.08268C13.0736 4.6264 12.7709 4.22495 12.3853 3.91415C11.9996 3.60334 11.543 3.39286 11.0562 3.30149C10.5694 3.21012 10.0675 3.2407 9.59542 3.3905C9.12331 3.54031 8.69564 3.80467 8.35058 4.16C8.14781 3.44405 7.74935 2.79885 7.19999 2.29693C6.65063 1.79502 5.97216 1.4563 5.24086 1.31884C4.50955 1.18138 3.75439 1.25064 3.06029 1.51884C2.36618 1.78703 1.76065 2.24352 1.31176 2.83698C0.862868 3.43045 0.58842 4.13737 0.519266 4.87827C0.450112 5.61916 0.588996 6.36466 0.920303 7.03095C1.25161 7.69724 1.76221 8.2579 2.39469 8.64992C3.02717 9.04193 3.75646 9.24974 4.50058 9.25" stroke="#000001" stroke-linecap="round" stroke-linejoin="round"/>
<path d="M7.5 14.25V8.25" stroke="#000001" stroke-linecap="round" stroke-linejoin="round"/>
<path d="M5.5 12.25L7.5 14.25L9.5 12.25" stroke="#000001" stroke-linecap="round" stroke-linejoin="round"/>
</g>
<defs>
<clipPath id="clip0_6_5068">
<rect width="14" height="14" fill="white" transform="translate(0 0.75)"/>
</clipPath>
</defs>
</svg>
