<svg width="16" height="17" viewBox="0 0 16 17" fill="none" xmlns="http://www.w3.org/2000/svg">
<path d="M5.09058 2.9396C5.45093 3.29156 5.6652 3.76653 5.69058 4.2696L7.52058 2.4496C7.58343 2.37914 7.66047 2.32276 7.74663 2.28415C7.8328 2.24554 7.92616 2.22559 8.02058 2.22559C8.115 2.22559 8.20836 2.24554 8.29453 2.28415C8.38069 2.32276 8.45773 2.37914 8.52058 2.4496L10.0006 3.9896C9.79038 4.09153 9.59792 4.22659 9.43058 4.3896C9.0744 4.7813 8.8827 5.2951 8.89526 5.82438C8.90782 6.35366 9.12368 6.85778 9.49804 7.23214C9.8724 7.6065 10.3765 7.82236 10.9058 7.83492C11.4351 7.84748 11.9489 7.65578 12.3406 7.2996C12.5036 7.13226 12.6386 6.93981 12.7406 6.7296L14.3006 8.2696C14.371 8.33245 14.4274 8.40949 14.466 8.49566C14.5046 8.58183 14.5246 8.67518 14.5246 8.7696C14.5246 8.86403 14.5046 8.95738 14.466 9.04355C14.4274 9.12972 14.371 9.20675 14.3006 9.2696L12.4806 11.0596C12.8748 11.0834 13.2537 11.2206 13.5718 11.4547C13.8899 11.6887 14.1336 12.0097 14.2736 12.3789C14.4137 12.7482 14.4441 13.15 14.3612 13.5361C14.2783 13.9222 14.0857 14.2762 13.8064 14.5554C13.5272 14.8347 13.1732 15.0273 12.7871 15.1102C12.401 15.1931 11.9991 15.1627 11.6299 15.0226C11.2606 14.8826 10.9397 14.6389 10.7057 14.3208C10.4716 14.0027 10.3344 13.6238 10.3106 13.2296L8.48058 15.0496C8.41773 15.1201 8.34069 15.1765 8.25453 15.2151C8.16836 15.2537 8.075 15.2736 7.98058 15.2736C7.88616 15.2736 7.7928 15.2537 7.70663 15.2151C7.62047 15.1765 7.54343 15.1201 7.48058 15.0496L6.00058 13.5096C6.21079 13.4077 6.40324 13.2726 6.57058 13.1096C6.95647 12.7211 7.17221 12.1951 7.17033 11.6475C7.16846 11.0999 6.94912 10.5755 6.56058 10.1896C6.17204 9.80371 5.64612 9.58798 5.09851 9.58985C4.5509 9.59173 4.02647 9.81106 3.64058 10.1996C3.47757 10.3669 3.34251 10.5594 3.24058 10.7696L1.70058 9.2296C1.63012 9.16675 1.57373 9.08972 1.53513 9.00355C1.49652 8.91738 1.47656 8.82403 1.47656 8.7296C1.47656 8.63518 1.49652 8.54183 1.53513 8.45566C1.57373 8.36949 1.63012 8.29246 1.70058 8.2296L3.52058 6.4396C3.01751 6.41422 2.54254 6.19995 2.19058 5.8396C1.80602 5.45504 1.58997 4.93346 1.58997 4.3896C1.58997 3.84575 1.80602 3.32417 2.19058 2.9396C2.57514 2.55504 3.09673 2.33899 3.64058 2.33899C4.18444 2.33899 4.70602 2.55504 5.09058 2.9396V2.9396Z" stroke="#000001" stroke-linecap="round" stroke-linejoin="round"/>
</svg>
