<svg width="14" height="15" viewBox="0 0 14 15" fill="none" xmlns="http://www.w3.org/2000/svg">
<g clip-path="url(#clip0_6_4950)">
<path d="M1.5 14.25C1.23478 14.25 0.98043 14.1446 0.792893 13.9571C0.605357 13.7696 0.5 13.5152 0.5 13.25V2.25C0.5 1.98478 0.605357 1.73043 0.792893 1.54289C0.98043 1.35536 1.23478 1.25 1.5 1.25H12.5C12.7652 1.25 13.0196 1.35536 13.2071 1.54289C13.3946 1.73043 13.5 1.98478 13.5 2.25V13.25C13.5 13.5152 13.3946 13.7696 13.2071 13.9571C13.0196 14.1446 12.7652 14.25 12.5 14.25" stroke="#000001" stroke-linecap="round" stroke-linejoin="round"/>
<path d="M0.5 4.25H13.5" stroke="#000001" stroke-linecap="round" stroke-linejoin="round"/>
<path d="M6.44927 8.11962C6.49232 8.00875 6.56787 7.91347 6.66602 7.84629C6.76417 7.77911 6.88033 7.74316 6.99927 7.74316C7.11821 7.74316 7.23437 7.77911 7.33252 7.84629C7.43067 7.91347 7.50622 8.00875 7.54927 8.11962L8.18927 9.74962H9.89927C10.0111 9.75815 10.1183 9.79785 10.2087 9.86421C10.2991 9.93057 10.3691 10.0209 10.4107 10.125C10.4524 10.2292 10.464 10.3429 10.4443 10.4533C10.4246 10.5637 10.3744 10.6663 10.2993 10.7496L8.78927 12.1096L9.42927 13.3896C9.4872 13.502 9.50683 13.6302 9.48517 13.7548C9.46351 13.8793 9.40174 13.9934 9.30927 14.0796C9.21743 14.1669 9.10068 14.2235 8.97524 14.2414C8.84979 14.2593 8.72188 14.2377 8.60927 14.1796L6.99927 13.2996L5.38927 14.1796C5.27666 14.2377 5.14875 14.2593 5.0233 14.2414C4.89786 14.2235 4.78111 14.1669 4.68927 14.0796C4.5968 13.9934 4.53503 13.8793 4.51337 13.7548C4.49171 13.6302 4.51134 13.502 4.56927 13.3896L5.20927 12.1096L3.69927 10.7496C3.62419 10.6663 3.57395 10.5637 3.55425 10.4533C3.53455 10.3429 3.54619 10.2292 3.58784 10.125C3.62948 10.0209 3.69948 9.93057 3.78987 9.86421C3.88027 9.79785 3.98746 9.75815 4.09927 9.74962H5.80927L6.44927 8.11962Z" stroke="#000001" stroke-linecap="round" stroke-linejoin="round"/>
</g>
<defs>
<clipPath id="clip0_6_4950">
<rect width="14" height="14" fill="white" transform="translate(0 0.75)"/>
</clipPath>
</defs>
</svg>
