<svg width="14" height="15" viewBox="0 0 14 15" fill="none" xmlns="http://www.w3.org/2000/svg">
<path d="M7 13.25C9.48528 13.25 11.5 11.2353 11.5 8.75C11.5 6.26472 9.48528 4.25 7 4.25C4.51472 4.25 2.5 6.26472 2.5 8.75C2.5 11.2353 4.51472 13.25 7 13.25Z" stroke="#000001" stroke-linecap="round" stroke-linejoin="round"/>
<path d="M2.5 8.75H0.5" stroke="#000001" stroke-linecap="round" stroke-linejoin="round"/>
<path d="M0.5 12.2498C0.998979 12.2513 1.49237 12.1448 1.94633 11.9376C2.40029 11.7305 2.80408 11.4276 3.13 11.0498" stroke="#000001" stroke-linecap="round" stroke-linejoin="round"/>
<path d="M3.13 6.45001C2.80408 6.07218 2.40029 5.76931 1.94633 5.56218C1.49237 5.35505 0.998979 5.24856 0.5 5.25001" stroke="#000001" stroke-linecap="round" stroke-linejoin="round"/>
<path d="M11.5 8.75H13.5" stroke="#000001" stroke-linecap="round" stroke-linejoin="round"/>
<path d="M13.4991 12.2498C13.0002 12.2513 12.5068 12.1448 12.0528 11.9376C11.5989 11.7305 11.1951 11.4276 10.8691 11.0498" stroke="#000001" stroke-linecap="round" stroke-linejoin="round"/>
<path d="M10.8691 6.45001C11.1951 6.07218 11.5989 5.76931 12.0528 5.56218C12.5068 5.35505 13.0002 5.24856 13.4991 5.25001" stroke="#000001" stroke-linecap="round" stroke-linejoin="round"/>
<path d="M8.24023 4.42C8.62287 4.20143 8.94094 3.88561 9.16221 3.50453C9.38348 3.12345 9.50009 2.69066 9.50023 2.25" stroke="#000001" stroke-linecap="round" stroke-linejoin="round"/>
<path d="M4.5 2.25C4.50014 2.69066 4.61676 3.12345 4.83803 3.50453C5.0593 3.88561 5.37736 4.20143 5.76 4.42" stroke="#000001" stroke-linecap="round" stroke-linejoin="round"/>
<path d="M2.60938 7.75H11.3894" stroke="#000001" stroke-linecap="round" stroke-linejoin="round"/>
</svg>
