<svg width="14" height="15" viewBox="0 0 14 15" fill="none" xmlns="http://www.w3.org/2000/svg">
<g clip-path="url(#clip0_6_5039)">
<path d="M12.5 1.25H1.5C0.947715 1.25 0.5 1.69772 0.5 2.25V13.25C0.5 13.8023 0.947715 14.25 1.5 14.25H12.5C13.0523 14.25 13.5 13.8023 13.5 13.25V2.25C13.5 1.69772 13.0523 1.25 12.5 1.25Z" stroke="#000001" stroke-linecap="round" stroke-linejoin="round"/>
<path d="M4 11.25C4.27614 11.25 4.5 11.0261 4.5 10.75C4.5 10.4739 4.27614 10.25 4 10.25C3.72386 10.25 3.5 10.4739 3.5 10.75C3.5 11.0261 3.72386 11.25 4 11.25Z" stroke="#000001" stroke-linecap="round" stroke-linejoin="round"/>
<path d="M4.5 7.25C5.29565 7.25 6.05871 7.56607 6.62132 8.12868C7.18393 8.69129 7.5 9.45435 7.5 10.25" stroke="#000001" stroke-linecap="round" stroke-linejoin="round"/>
<path d="M4.5 4.25C6.0913 4.25 7.61742 4.88214 8.74264 6.00736C9.86786 7.13258 10.5 8.6587 10.5 10.25" stroke="#000001" stroke-linecap="round" stroke-linejoin="round"/>
</g>
<defs>
<clipPath id="clip0_6_5039">
<rect width="14" height="14" fill="white" transform="translate(0 0.75)"/>
</clipPath>
</defs>
</svg>
