<svg width="14" height="15" viewBox="0 0 14 15" fill="none" xmlns="http://www.w3.org/2000/svg">
<g clip-path="url(#clip0_6_4987)">
<path d="M1.5 14.25C1.23478 14.25 0.98043 14.1446 0.792893 13.9571C0.605357 13.7696 0.5 13.5152 0.5 13.25V2.25C0.5 1.98478 0.605357 1.73043 0.792893 1.54289C0.98043 1.35536 1.23478 1.25 1.5 1.25H12.5C12.7652 1.25 13.0196 1.35536 13.2071 1.54289C13.3946 1.73043 13.5 1.98478 13.5 2.25V13.25C13.5 13.5152 13.3946 13.7696 13.2071 13.9571C13.0196 14.1446 12.7652 14.25 12.5 14.25" stroke="#000001" stroke-linecap="round" stroke-linejoin="round"/>
<path d="M0.5 4.25H13.5" stroke="#000001" stroke-linecap="round" stroke-linejoin="round"/>
<path d="M7 7.25V8.75" stroke="#000001" stroke-linecap="round" stroke-linejoin="round"/>
<path d="M3.9707 9L5.2707 9.75" stroke="#000001" stroke-linecap="round" stroke-linejoin="round"/>
<path d="M3.9707 12.5L5.2707 11.75" stroke="#000001" stroke-linecap="round" stroke-linejoin="round"/>
<path d="M7 14.25V12.75" stroke="#000001" stroke-linecap="round" stroke-linejoin="round"/>
<path d="M10.0305 12.5L8.73047 11.75" stroke="#000001" stroke-linecap="round" stroke-linejoin="round"/>
<path d="M10.0305 9L8.73047 9.75" stroke="#000001" stroke-linecap="round" stroke-linejoin="round"/>
<path d="M7 12.75C8.10457 12.75 9 11.8546 9 10.75C9 9.64543 8.10457 8.75 7 8.75C5.89543 8.75 5 9.64543 5 10.75C5 11.8546 5.89543 12.75 7 12.75Z" stroke="#000001" stroke-linecap="round" stroke-linejoin="round"/>
</g>
<defs>
<clipPath id="clip0_6_4987">
<rect width="14" height="14" fill="white" transform="translate(0 0.75)"/>
</clipPath>
</defs>
</svg>
