<svg width="14" height="15" viewBox="0 0 14 15" fill="none" xmlns="http://www.w3.org/2000/svg">
<g clip-path="url(#clip0_6_4963)">
<path d="M6.43953 14.2502C7.63799 14.2502 8.60953 13.2786 8.60953 12.0802C8.60953 10.8817 7.63799 9.91016 6.43953 9.91016C5.24107 9.91016 4.26953 10.8817 4.26953 12.0802C4.26953 13.2786 5.24107 14.2502 6.43953 14.2502Z" stroke="#000001" stroke-linecap="round" stroke-linejoin="round"/>
<path d="M8 10.5499L11.86 6.68987C11.8934 6.65631 11.9332 6.62968 11.9769 6.61151C12.0207 6.59334 12.0676 6.58398 12.115 6.58398C12.1624 6.58398 12.2093 6.59334 12.2531 6.61151C12.2968 6.62968 12.3366 6.65631 12.37 6.68987L13.5 7.83987" stroke="#000001" stroke-linecap="round" stroke-linejoin="round"/>
<path d="M10.4492 8.12012L11.4692 9.14012" stroke="#000001" stroke-linecap="round" stroke-linejoin="round"/>
<path d="M2 13.25H1.5C1.23478 13.25 0.98043 13.1446 0.792893 12.9571C0.605357 12.7696 0.5 12.5152 0.5 12.25V2.25C0.5 1.98478 0.605357 1.73043 0.792893 1.54289C0.98043 1.35536 1.23478 1.25 1.5 1.25H12.5C12.7652 1.25 13.0196 1.35536 13.2071 1.54289C13.3946 1.73043 13.5 1.98478 13.5 2.25V4.75" stroke="#000001" stroke-linecap="round" stroke-linejoin="round"/>
<path d="M0.5 4.25H13.5" stroke="#000001" stroke-linecap="round" stroke-linejoin="round"/>
</g>
<defs>
<clipPath id="clip0_6_4963">
<rect width="14" height="14" fill="white" transform="translate(0 0.75)"/>
</clipPath>
</defs>
</svg>
