<svg width="14" height="15" viewBox="0 0 14 15" fill="none" xmlns="http://www.w3.org/2000/svg">
<g clip-path="url(#clip0_6_4998)">
<path d="M3.5 14.25H1.5C1.23478 14.25 0.98043 14.1446 0.792893 13.9571C0.605357 13.7696 0.5 13.5152 0.5 13.25V2.25C0.5 1.98478 0.605357 1.73043 0.792893 1.54289C0.98043 1.35536 1.23478 1.25 1.5 1.25H12.5C12.7652 1.25 13.0196 1.35536 13.2071 1.54289C13.3946 1.73043 13.5 1.98478 13.5 2.25V13.25C13.5 13.5152 13.3946 13.7696 13.2071 13.9571C13.0196 14.1446 12.7652 14.25 12.5 14.25H10.5" stroke="#000001" stroke-linecap="round" stroke-linejoin="round"/>
<path d="M0.5 4.25H13.5" stroke="#000001" stroke-linecap="round" stroke-linejoin="round"/>
<path d="M7 7.25V10.75" stroke="#000001" stroke-linecap="round" stroke-linejoin="round"/>
<path d="M7 14.25C7.27614 14.25 7.5 14.0261 7.5 13.75C7.5 13.4739 7.27614 13.25 7 13.25C6.72386 13.25 6.5 13.4739 6.5 13.75C6.5 14.0261 6.72386 14.25 7 14.25Z" stroke="#000001" stroke-linecap="round" stroke-linejoin="round"/>
</g>
<defs>
<clipPath id="clip0_6_4998">
<rect width="14" height="14" fill="white" transform="translate(0 0.75)"/>
</clipPath>
</defs>
</svg>
