<svg width="14" height="15" viewBox="0 0 14 15" fill="none" xmlns="http://www.w3.org/2000/svg">
<g clip-path="url(#clip0_6_5056)">
<path d="M10.5006 11.75C10.9959 11.7504 11.4836 11.6281 11.9201 11.3941C12.3567 11.1601 12.7285 10.8216 13.0024 10.4089C13.2762 9.99624 13.4437 9.52216 13.4898 9.029C13.5358 8.53584 13.4591 8.03895 13.2663 7.58268C13.0736 7.1264 12.7709 6.72495 12.3853 6.41415C11.9996 6.10334 11.543 5.89286 11.0562 5.80149C10.5694 5.71012 10.0675 5.7407 9.59542 5.8905C9.12331 6.04031 8.69564 6.30467 8.35058 6.66C8.14781 5.94405 7.74935 5.29885 7.19999 4.79693C6.65063 4.29502 5.97216 3.9563 5.24086 3.81884C4.50955 3.68138 3.75439 3.75064 3.06029 4.01884C2.36618 4.28703 1.76065 4.74352 1.31176 5.33698C0.862868 5.93045 0.58842 6.63737 0.519266 7.37827C0.450112 8.11916 0.588996 8.86466 0.920303 9.53095C1.25161 10.1972 1.76221 10.7579 2.39469 11.1499C3.02717 11.5419 3.75646 11.7497 4.50058 11.75H10.5006Z" stroke="#000001" stroke-linecap="round" stroke-linejoin="round"/>
</g>
<defs>
<clipPath id="clip0_6_5056">
<rect width="14" height="14" fill="white" transform="translate(0 0.75)"/>
</clipPath>
</defs>
</svg>
