<svg width="14" height="15" viewBox="0 0 14 15" fill="none" xmlns="http://www.w3.org/2000/svg">
<g clip-path="url(#clip0_6_5087)">
<path d="M10.5006 14.25C10.9959 14.2504 11.4836 14.1281 11.9201 13.8941C12.3567 13.6601 12.7285 13.3216 13.0024 12.9089C13.2762 12.4962 13.4437 12.0222 13.4898 11.529C13.5358 11.0358 13.4591 10.5389 13.2663 10.0827C13.0736 9.6264 12.7709 9.22495 12.3853 8.91415C11.9996 8.60334 11.543 8.39286 11.0562 8.30149C10.5694 8.21012 10.0675 8.2407 9.59542 8.3905C9.12331 8.54031 8.69564 8.80467 8.35058 9.16C8.14781 8.44405 7.74935 7.79885 7.19999 7.29693C6.65063 6.79502 5.97216 6.4563 5.24086 6.31884C4.50955 6.18138 3.75439 6.25064 3.06029 6.51884C2.36618 6.78703 1.76065 7.24352 1.31176 7.83698C0.862868 8.43045 0.58842 9.13737 0.519266 9.87827C0.450112 10.6192 0.588996 11.3647 0.920303 12.0309C1.25161 12.6972 1.76221 13.2579 2.39469 13.6499C3.02717 14.0419 3.75646 14.2497 4.50058 14.25H10.5006Z" stroke="#000001" stroke-linecap="round" stroke-linejoin="round"/>
<path d="M10.4805 1.94965C9.37283 1.4821 8.18274 1.24121 6.98047 1.24121C5.77819 1.24121 4.58811 1.4821 3.48047 1.94965" stroke="#000001" stroke-linecap="round" stroke-linejoin="round"/>
<path d="M9.18031 4.11003C7.76662 3.62999 6.23401 3.62999 4.82031 4.11003" stroke="#000001" stroke-linecap="round" stroke-linejoin="round"/>
</g>
<defs>
<clipPath id="clip0_6_5087">
<rect width="14" height="14" fill="white" transform="translate(0 0.75)"/>
</clipPath>
</defs>
</svg>
