<svg width="14" height="15" viewBox="0 0 14 15" fill="none" xmlns="http://www.w3.org/2000/svg">
<g clip-path="url(#clip0_6_5063)">
<path d="M11.9992 8.85021C12.3707 8.6359 12.6919 8.34444 12.9411 7.99549C13.1904 7.64654 13.3619 7.2482 13.4442 6.82733C13.5265 6.40647 13.5176 5.97285 13.4181 5.55572C13.3186 5.13858 13.1308 4.74762 12.8675 4.4092C12.6041 4.07078 12.2712 3.79275 11.8913 3.59387C11.5114 3.39498 11.0932 3.27986 10.665 3.25627C10.2368 3.23267 9.80857 3.30115 9.40909 3.45708C9.00961 3.61301 8.64821 3.85278 8.34924 4.16021C8.18803 3.5898 7.90207 3.06234 7.51203 2.616C7.12199 2.16965 6.63762 1.81557 6.09396 1.57936C5.55031 1.34315 4.96095 1.23072 4.36851 1.25021C3.77608 1.26969 3.19538 1.4206 2.66842 1.69202C2.14146 1.96344 1.6814 2.34859 1.32154 2.8196C0.961667 3.29061 0.710979 3.83572 0.587603 4.41549C0.464228 4.99526 0.471249 5.59521 0.608158 6.17193C0.745068 6.74866 1.00844 7.28775 1.37924 7.75021" stroke="#000001" stroke-linecap="round" stroke-linejoin="round"/>
<path d="M3.5 10.25L5.5 8.25V14.25" stroke="#000001" stroke-linecap="round" stroke-linejoin="round"/>
<path d="M10.5 12.25L8.5 14.25V8.25" stroke="#000001" stroke-linecap="round" stroke-linejoin="round"/>
</g>
<defs>
<clipPath id="clip0_6_5063">
<rect width="14" height="14" fill="white" transform="translate(0 0.75)"/>
</clipPath>
</defs>
</svg>
