<svg width="220" height="220" viewBox="0 0 220 220" fill="none" xmlns="http://www.w3.org/2000/svg">
<path d="M220 168.256H0V168.366H220V168.256Z" fill="#EBEBEB"/>
<path d="M170.918 171.561H156.345V171.671H170.918V171.561Z" fill="#EBEBEB"/>
<path d="M132.88 175.283H113.507V175.393H132.88V175.283Z" fill="#EBEBEB"/>
<path d="M191.066 175.644H171.362V175.754H191.066V175.644Z" fill="#EBEBEB"/>
<path d="M42.6276 171.451H23.624V171.561H42.6276V171.451Z" fill="#EBEBEB"/>
<path d="M49.3331 171.451H46.5479V171.561H49.3331V171.451Z" fill="#EBEBEB"/>
<path d="M99.6069 173.308H58.3877V173.418H99.6069V173.308Z" fill="#EBEBEB"/>
<path d="M104.28 148.632H19.3205C18.6549 148.631 18.017 148.366 17.5468 147.895C17.0766 147.424 16.8125 146.785 16.8125 146.12V26.6906C16.8183 26.0288 17.0849 25.3961 17.5545 24.9298C18.0241 24.4635 18.6587 24.2013 19.3205 24.2002H104.28C104.946 24.2002 105.585 24.4649 106.057 24.9361C106.528 25.4072 106.793 26.0463 106.793 26.7126V146.12C106.793 146.786 106.528 147.425 106.057 147.896C105.585 148.368 104.946 148.632 104.28 148.632ZM19.3205 24.2882C18.6841 24.2894 18.0742 24.543 17.6246 24.9934C17.175 25.4438 16.9225 26.0542 16.9225 26.6906V146.12C16.9225 146.756 17.175 147.367 17.6246 147.817C18.0742 148.267 18.6841 148.521 19.3205 148.522H104.28C104.917 148.521 105.527 148.268 105.978 147.817C106.428 147.367 106.681 146.757 106.683 146.12V26.6906C106.681 26.0538 106.428 25.4434 105.978 24.9931C105.527 24.5428 104.917 24.2894 104.28 24.2882H19.3205Z" fill="#EBEBEB"/>
<path d="M199.457 148.632H114.493C113.827 148.631 113.189 148.366 112.718 147.895C112.247 147.424 111.982 146.786 111.98 146.12V26.6906C111.987 26.0284 112.255 25.3957 112.725 24.9295C113.196 24.4634 113.831 24.2013 114.493 24.2002H199.457C200.118 24.2025 200.751 24.4652 201.22 24.9314C201.689 25.3975 201.955 26.0296 201.96 26.6906V146.12C201.96 146.785 201.697 147.422 201.228 147.893C200.758 148.364 200.122 148.63 199.457 148.632ZM114.493 24.2882C113.856 24.2894 113.246 24.5428 112.795 24.9931C112.345 25.4434 112.092 26.0538 112.09 26.6906V146.12C112.092 146.757 112.345 147.367 112.795 147.817C113.246 148.268 113.856 148.521 114.493 148.522H199.457C200.094 148.521 200.704 148.268 201.154 147.817C201.605 147.367 201.858 146.757 201.859 146.12V26.6906C201.858 26.0538 201.605 25.4434 201.154 24.9931C200.704 24.5428 200.094 24.2894 199.457 24.2882H114.493Z" fill="#EBEBEB"/>
<path d="M150.357 110.432H191.479V34.8264H150.357V110.432Z" fill="#E6E6E6"/>
<path d="M145.667 110.432H190.357V34.8264H145.667V110.432Z" fill="#F0F0F0"/>
<path d="M186.617 106.683V38.5664H149.415V106.683H186.617Z" fill="white"/>
<path d="M56.008 37.8843H23.624V75.5219H56.008V37.8843Z" fill="#E0E0E0"/>
<path d="M57.9431 37.8843H24.7188V75.5219H57.9431V37.8843Z" fill="#F5F5F5"/>
<path d="M55.1582 72.556V40.8496H27.4998L27.4998 72.556H55.1582Z" fill="white"/>
<path d="M101.433 59.8535H69.0488V97.4911H101.433V59.8535Z" fill="#E0E0E0"/>
<path d="M103.369 59.8535H70.1445V97.4911H103.369V59.8535Z" fill="#F5F5F5"/>
<path d="M100.584 94.5296V62.8232H72.9256V94.5296H100.584Z" fill="white"/>
<path d="M82.9176 128.836C82.6976 128.836 82.4776 128.836 82.2488 128.858C80.8449 128.959 79.4807 129.369 78.2535 130.058C77.0264 130.747 75.9667 131.699 75.1503 132.845C74.3339 133.992 73.7809 135.304 73.5308 136.689C73.2808 138.074 73.3399 139.498 73.704 140.857C74.7467 144.915 75.2497 149.093 75.2 153.283V165.488C75.2 165.699 75.2416 165.908 75.3223 166.102C75.4031 166.297 75.5214 166.474 75.6706 166.622C75.8198 166.771 75.9969 166.889 76.1917 166.969C76.3866 167.05 76.5953 167.091 76.806 167.09H115.526V128.836H82.9176Z" fill="#F0F0F0"/>
<path d="M125.079 138.38C125.023 135.942 124.037 133.618 122.321 131.885C120.606 130.152 118.292 129.142 115.855 129.062C113.418 128.982 111.042 129.839 109.217 131.455C107.392 133.072 106.255 135.326 106.04 137.755C105.974 138.801 106.078 139.85 106.348 140.862C107.388 144.92 107.891 149.098 107.844 153.287V165.493C107.844 165.918 108.013 166.325 108.313 166.625C108.613 166.926 109.021 167.094 109.445 167.094H121.677C122.102 167.094 122.51 166.926 122.81 166.625C123.11 166.325 123.279 165.918 123.279 165.493V152.574C123.243 148.643 123.74 144.725 124.757 140.928C124.979 140.097 125.087 139.24 125.079 138.38Z" fill="#F5F5F5"/>
<path d="M102.393 143.867H67.624V167.095H102.393V143.867Z" fill="#F0F0F0"/>
<path d="M72.0276 110.968H39.934C35.9432 110.968 33.2328 114.202 33.8796 118.189L38.8868 149.116H85.4256L80.4184 118.189C79.7716 114.202 76.014 110.968 72.0276 110.968Z" fill="#EBEBEB"/>
<path d="M81.4655 110.968H48.6767C44.8795 110.968 42.3011 114.048 42.9171 117.841L47.9815 149.116H94.5159L89.4515 117.841C88.8355 114.048 85.2627 110.968 81.4655 110.968Z" fill="#F5F5F5"/>
<path d="M69.8982 141.746H101.948C102.503 141.746 103.036 141.967 103.429 142.36C103.822 142.752 104.042 143.285 104.042 143.84V149.12C104.042 149.676 103.822 150.209 103.429 150.601C103.036 150.994 102.503 151.215 101.948 151.215H69.8982C69.7325 151.215 69.5736 151.149 69.4564 151.032C69.3393 150.915 69.2734 150.756 69.2734 150.59V142.371C69.2734 142.205 69.3393 142.046 69.4564 141.929C69.5736 141.812 69.7325 141.746 69.8982 141.746Z" fill="#EBEBEB"/>
<path d="M35.4593 128.836C35.2393 128.836 35.0193 128.836 34.7905 128.858C32.4948 129.032 30.3385 130.027 28.7167 131.661C27.0949 133.295 26.1161 135.458 25.9597 137.755C25.8936 138.801 25.9977 139.85 26.2677 140.862C27.3104 144.92 27.8134 149.098 27.7637 153.287V165.493C27.7637 165.918 27.9324 166.325 28.2328 166.625C28.5332 166.926 28.9405 167.094 29.3653 167.094H68.0853V128.836H35.4593Z" fill="#F0F0F0"/>
<path d="M77.6204 138.38C77.6189 137.023 77.3276 135.681 76.7662 134.445C76.2047 133.209 75.3859 132.107 74.3644 131.213C73.343 130.319 72.1425 129.653 70.8432 129.26C69.5438 128.867 68.1755 128.756 66.8298 128.934C65.484 129.112 64.1917 129.575 63.0393 130.293C61.8869 131.01 60.901 131.966 60.1473 133.095C59.3936 134.224 58.8896 135.501 58.6689 136.84C58.4482 138.179 58.5159 139.551 58.8676 140.862C59.9081 144.92 60.4111 149.098 60.3636 153.287V165.493C60.3636 165.918 60.5323 166.325 60.8327 166.625C61.133 166.926 61.5404 167.095 61.9652 167.095H74.1972C74.622 167.095 75.0293 166.926 75.3297 166.625C75.63 166.325 75.7988 165.918 75.7988 165.493V152.575C75.7635 148.644 76.2593 144.726 77.2728 140.928C77.5051 140.099 77.6221 139.241 77.6204 138.38Z" fill="#F5F5F5"/>
<path d="M114.84 168.256H36.1421C35.834 168.256 35.5385 168.134 35.3207 167.916C35.1029 167.698 34.9805 167.403 34.9805 167.095H116.02C116.02 167.249 115.989 167.401 115.93 167.543C115.87 167.685 115.783 167.814 115.673 167.922C115.564 168.03 115.433 168.116 115.29 168.173C115.147 168.23 114.994 168.259 114.84 168.256Z" fill="#E0E0E0"/>
<path d="M199.646 150.353H180.708V151.906H199.646V150.353Z" fill="#E6E6E6"/>
<path d="M144.988 168.256H148.486V132.498H144.988V168.256Z" fill="#E6E6E6"/>
<path d="M132.88 151.91H180.708V150.357H132.88V151.91Z" fill="#F5F5F5"/>
<path d="M199.646 158.858H180.708V160.411H199.646V158.858Z" fill="#E6E6E6"/>
<path d="M132.88 160.411H180.708V158.858H132.88V160.411Z" fill="#F5F5F5"/>
<path d="M199.646 133.347H180.708V134.9H199.646V133.347Z" fill="#E6E6E6"/>
<path d="M132.88 134.904H180.708V133.351H132.88V134.904Z" fill="#F5F5F5"/>
<path d="M199.646 141.852H180.708V143.405H199.646V141.852Z" fill="#E6E6E6"/>
<path d="M132.88 143.405H180.708V141.852H132.88V143.405Z" fill="#F5F5F5"/>
<path d="M192.816 168.256H196.314V132.498H192.816V168.256Z" fill="#E6E6E6"/>
<path d="M177.21 168.256H180.708V132.498H177.21V168.256Z" fill="#F5F5F5"/>
<path d="M132.88 168.256H136.378V132.498H132.88V168.256Z" fill="#F5F5F5"/>
<path d="M167.279 132.08H169.149V111.228H167.279V132.08Z" fill="#E6E6E6"/>
<path d="M167.521 132.062H168.049V111.21H167.521V132.062Z" fill="#F0F0F0"/>
<path d="M161.287 133.346H175.12C175.12 132.88 174.935 132.432 174.605 132.102C174.275 131.772 173.827 131.586 173.36 131.586H163.033C162.567 131.586 162.119 131.772 161.789 132.102C161.459 132.432 161.273 132.88 161.273 133.346H161.287Z" fill="#F0F0F0"/>
<path d="M165.093 132.832H165.792C165.897 132.832 165.981 132.747 165.981 132.643V131.186C165.981 131.082 165.897 130.997 165.792 130.997H165.093C164.988 130.997 164.903 131.082 164.903 131.186V132.643C164.903 132.747 164.988 132.832 165.093 132.832Z" fill="#F0F0F0"/>
<path d="M159.839 116.16H176.59L174.988 102.802C174.899 102.047 174.536 101.352 173.968 100.846C173.401 100.341 172.668 100.062 171.908 100.061H164.529C163.77 100.064 163.038 100.344 162.471 100.849C161.904 101.353 161.54 102.048 161.449 102.802L159.839 116.16Z" fill="#F5F5F5"/>
<path d="M110 188.127C157.116 188.127 195.312 185.897 195.312 183.146C195.312 180.395 157.116 178.165 110 178.165C62.8838 178.165 24.6885 180.395 24.6885 183.146C24.6885 185.897 62.8838 188.127 110 188.127Z" fill="#F5F5F5"/>
<path d="M130.112 71.4426L129.958 71.9618L129.818 72.4018C129.721 72.6966 129.615 72.9694 129.51 73.251C129.298 73.801 129.07 74.3378 128.819 74.8702C128.331 75.9289 127.78 76.9574 127.169 77.9502C126.865 78.4474 126.544 78.927 126.218 79.4066C125.893 79.8862 125.545 80.3482 125.18 80.8014C124.464 81.7177 123.696 82.5918 122.879 83.4194L122.707 83.5954C122.47 83.8383 122.19 84.0339 121.88 84.1718C120.963 84.5729 119.967 84.7581 118.967 84.713C118.097 84.666 117.242 84.4648 116.442 84.119C115.771 83.8357 115.137 83.4723 114.554 83.0366C114.031 82.6544 113.535 82.2353 113.071 81.7826C112.228 80.939 111.468 80.0167 110.801 79.0282C110.475 78.553 110.176 78.0646 109.89 77.5718C109.604 77.079 109.358 76.5863 109.089 76.0187C108.914 75.6488 108.873 75.2295 108.974 74.8328C109.075 74.4362 109.31 74.087 109.64 73.8453C109.971 73.6037 110.375 73.4846 110.783 73.5086C111.192 73.5327 111.579 73.6983 111.879 73.977L111.993 74.0826L113.067 75.0682C113.432 75.4026 113.806 75.7238 114.18 76.0318C114.888 76.6327 115.638 77.1826 116.424 77.6774C117.039 78.0872 117.721 78.3851 118.439 78.5574C118.622 78.609 118.815 78.609 118.998 78.5574C119.058 78.5305 119.108 78.484 119.139 78.4255L118.127 79.191C118.686 78.4342 119.227 77.6686 119.724 76.8766C120.221 76.0846 120.696 75.2662 121.141 74.4434C121.585 73.6206 121.994 72.7715 122.373 71.9223C122.566 71.4823 122.738 71.0686 122.914 70.6462L123.354 69.4934L123.477 69.1766C123.828 68.3651 124.472 67.7154 125.281 67.3569C126.089 66.9984 127.003 66.9573 127.84 67.2418C128.677 67.5262 129.377 68.1154 129.799 68.8922C130.222 69.6689 130.337 70.5763 130.121 71.4338L130.112 71.4426Z" fill="#263238"/>
<path d="M110.334 76.0405L107.359 75.0065L106.734 70.9321C106.734 70.9321 111.72 72.2521 111.698 74.6545L110.334 76.0405Z" fill="#CE7A63"/>
<path d="M127.855 54.815C125.915 54.133 123.235 51.8098 124.287 48.8046C125.087 46.5254 128.053 46.323 129.219 47.005C130.385 47.687 130.433 46.2878 131.925 45.751C133.417 45.2142 134.468 46.565 135.225 47.2734C135.982 47.9818 136.866 47.445 137.988 47.4934C139.11 47.5418 139.911 49.0114 139.286 50.085C138.186 51.9682 140.003 53.165 138.626 54.6346C136.598 56.7686 138.186 58.863 135.326 60.9882C133.588 62.2906 128.651 59.9014 127.855 54.815Z" fill="#263238"/>
<path d="M127.82 56.8039C127.747 56.847 127.666 56.8726 127.582 56.8787C127.436 56.8909 127.292 56.8451 127.18 56.7511C127.067 56.6572 126.997 56.5227 126.984 56.3771C126.887 55.5039 127.001 54.6202 127.316 53.8002C127.632 52.9802 128.139 52.2479 128.796 51.6647C128.853 51.6194 128.919 51.5859 128.989 51.5663C129.059 51.5466 129.132 51.5411 129.204 51.5501C129.276 51.5591 129.346 51.5825 129.409 51.6188C129.472 51.6551 129.527 51.7036 129.571 51.7615C129.616 51.8181 129.65 51.883 129.67 51.9526C129.69 52.0222 129.696 52.095 129.688 52.167C129.68 52.2389 129.657 52.3086 129.622 52.3719C129.587 52.4352 129.54 52.4909 129.483 52.5359C128.969 53.0037 128.574 53.5876 128.331 54.2389C128.089 54.8903 128.005 55.5902 128.088 56.2803C128.097 56.384 128.077 56.4881 128.029 56.5807C127.982 56.6733 127.909 56.7506 127.82 56.8039Z" fill="#263238"/>
<path d="M124.656 67.0427C124.656 67.0427 120.753 77.0307 124.458 95.6427H142.151C142.274 92.9279 140.567 79.6795 143.185 66.8843C141.228 66.5082 139.25 66.2583 137.262 66.1363C134.758 65.991 132.247 65.991 129.742 66.1363C128.026 66.3047 126.325 66.6078 124.656 67.0427Z" fill="white"/>
<path d="M136.519 57.6396C136.043 60.0596 135.573 64.4948 137.262 66.1096C137.262 66.1096 134.429 68.4064 131.45 70.7296C130.791 70.1717 130.288 69.4532 129.989 68.6438C129.69 67.8345 129.605 66.9615 129.743 66.1096C132.44 65.4672 132.383 63.4697 131.903 61.5821L136.519 57.6396Z" fill="#CE7A63"/>
<path opacity="0.2" d="M134.64 59.2632L131.907 61.5952C132.024 62.0274 132.102 62.4692 132.14 62.9152C133.02 63.7512 134.587 61.6348 134.697 60.5568C134.755 60.1256 134.735 59.6875 134.64 59.2632Z" fill="black"/>
<path d="M136.487 53.5698C136.61 56.8522 136.848 58.7662 135.37 60.6098C133.139 63.373 128.968 62.2774 127.868 59.0962C126.878 56.2362 126.842 51.3522 129.909 49.7418C130.582 49.3831 131.335 49.2024 132.098 49.2166C132.86 49.2308 133.606 49.4396 134.265 49.823C134.924 50.2065 135.474 50.752 135.863 51.4077C136.252 52.0634 136.467 52.8076 136.487 53.5698Z" fill="#CE7A63"/>
<path d="M136.4 56.606C135.498 58.366 134.459 52.8 134.723 51.8716C131.533 52.7516 126.64 52.4612 127.019 50.2348C127.459 47.7224 130.38 47.6256 133.619 47.9336C138.965 48.4484 137.376 54.6964 136.4 56.606Z" fill="#263238"/>
<path d="M134.82 56.918C134.737 56.9228 134.654 56.9077 134.578 56.874C134.511 56.8449 134.451 56.8028 134.4 56.7503C134.35 56.6979 134.31 56.6359 134.283 56.5681C134.257 56.5003 134.244 56.4279 134.245 56.355C134.247 56.2822 134.262 56.2104 134.292 56.1436C134.624 55.3309 135.147 54.6098 135.817 54.041C136.486 53.4721 137.282 53.0721 138.137 52.8744C138.28 52.8487 138.427 52.8805 138.547 52.963C138.666 53.0454 138.749 53.1717 138.775 53.3144C138.799 53.457 138.766 53.6031 138.684 53.7221C138.602 53.8411 138.477 53.9236 138.335 53.9524C137.658 54.1199 137.031 54.4468 136.506 54.9061C135.981 55.3654 135.573 55.9435 135.317 56.5924C135.275 56.6893 135.205 56.7717 135.117 56.8296C135.029 56.8874 134.925 56.9182 134.82 56.918Z" fill="#263238"/>
<path d="M138.124 55.8798C137.95 56.6703 137.493 57.3699 136.839 57.8466C135.981 58.445 135.304 57.7102 135.326 56.6762C135.348 55.7478 135.823 54.3222 136.782 54.1374C137.741 53.9526 138.34 54.9074 138.124 55.8798Z" fill="#CE7A63"/>
<path d="M122.663 178.803C122.253 178.904 121.844 178.944 121.668 178.803C121.623 178.761 121.592 178.707 121.58 178.647C121.567 178.587 121.573 178.525 121.598 178.468C121.613 178.418 121.638 178.371 121.672 178.331C121.706 178.291 121.748 178.258 121.796 178.235C122.293 177.958 123.556 178.319 123.613 178.336C123.629 178.34 123.644 178.35 123.654 178.363C123.664 178.376 123.67 178.392 123.67 178.409C123.67 178.426 123.664 178.442 123.654 178.455C123.644 178.468 123.629 178.478 123.613 178.482C123.306 178.616 122.988 178.723 122.663 178.803ZM122.011 178.306C121.962 178.317 121.915 178.335 121.871 178.358C121.842 178.372 121.816 178.392 121.795 178.416C121.773 178.44 121.757 178.469 121.747 178.499C121.712 178.609 121.747 178.649 121.769 178.671C121.967 178.842 122.777 178.649 123.353 178.416C122.917 178.293 122.462 178.256 122.011 178.306Z" fill="#263238"/>
<path d="M123.609 178.473H123.578C123.138 178.398 122.223 177.892 122.196 177.513C122.196 177.425 122.227 177.302 122.429 177.232C122.574 177.183 122.732 177.192 122.869 177.258C123.353 177.491 123.639 178.336 123.653 178.372C123.66 178.383 123.664 178.397 123.664 178.411C123.664 178.425 123.66 178.439 123.653 178.451C123.641 178.462 123.625 178.47 123.609 178.473ZM122.526 177.364H122.482C122.346 177.408 122.35 177.465 122.355 177.483C122.355 177.711 123.015 178.125 123.463 178.266C123.343 177.912 123.116 177.604 122.812 177.386C122.722 177.347 122.621 177.339 122.526 177.364Z" fill="#263238"/>
<path d="M128.418 179.52L125.104 180.008L125.21 172.414L128.523 171.93L128.418 179.52Z" fill="#CE7A63"/>
<path d="M124.608 178.046H128.95C129.014 178.044 129.077 178.066 129.125 178.108C129.174 178.149 129.206 178.207 129.214 178.27L129.654 181.196C129.663 181.27 129.656 181.344 129.634 181.415C129.612 181.485 129.575 181.55 129.526 181.605C129.477 181.661 129.417 181.705 129.349 181.735C129.282 181.766 129.209 181.781 129.135 181.782C127.837 181.76 125.972 181.685 124.339 181.685C122.434 181.685 120.722 181.786 118.487 181.786C117.136 181.786 116.886 180.506 117.444 180.299C119.944 179.362 121.281 179.203 123.811 178.301C124.061 178.173 124.33 178.086 124.608 178.046Z" fill="#263238"/>
<path opacity="0.2" d="M125.211 172.418L125.153 176.33L128.471 175.841L128.528 171.93L125.211 172.418Z" fill="black"/>
<path d="M126.72 178.279C126.698 176.875 127.138 174.618 123.64 176C121.554 176.818 124.384 179.225 124.384 179.225L126.72 178.279Z" fill="#263238"/>
<path d="M124.458 95.6294C124.458 95.6294 122.698 122.28 123.195 131.758C123.679 140.738 123.952 166.214 124.013 172.898C124.016 173.101 124.062 173.301 124.147 173.486C124.233 173.67 124.357 173.834 124.511 173.967C124.665 174.099 124.845 174.198 125.04 174.255C125.235 174.313 125.44 174.329 125.641 174.301L127.982 173.985C128.295 173.942 128.584 173.798 128.807 173.575C129.03 173.351 129.173 173.061 129.214 172.748C130.728 160.952 132.527 142.753 132.919 133.012C133.359 121.893 136.096 95.6118 136.096 95.6118L124.458 95.6294Z" fill="#92E3A9"/>
<path opacity="0.2" d="M124.458 95.6294C124.458 95.6294 122.698 122.28 123.195 131.758C123.679 140.738 123.952 166.214 124.013 172.898C124.016 173.101 124.062 173.301 124.147 173.486C124.233 173.67 124.357 173.834 124.511 173.967C124.665 174.099 124.845 174.198 125.04 174.255C125.235 174.313 125.44 174.329 125.641 174.301L127.982 173.985C128.295 173.942 128.584 173.798 128.807 173.575C129.03 173.351 129.173 173.061 129.214 172.748C130.728 160.952 132.527 142.753 132.919 133.012C133.359 121.893 136.096 95.6118 136.096 95.6118L124.458 95.6294Z" fill="white"/>
<path d="M146.546 178.367C146.163 178.538 145.767 178.653 145.565 178.534C145.513 178.502 145.473 178.455 145.45 178.399C145.427 178.342 145.423 178.28 145.437 178.222C145.442 178.168 145.458 178.117 145.485 178.07C145.511 178.024 145.548 177.984 145.591 177.953C146.031 177.592 147.351 177.724 147.395 177.729C147.411 177.73 147.427 177.736 147.439 177.746C147.452 177.757 147.461 177.77 147.466 177.786C147.469 177.801 147.468 177.817 147.462 177.832C147.457 177.847 147.447 177.86 147.435 177.87C147.154 178.061 146.856 178.228 146.546 178.367ZM145.816 177.993C145.77 178.015 145.728 178.041 145.688 178.072C145.661 178.09 145.638 178.115 145.622 178.143C145.605 178.171 145.594 178.202 145.591 178.235C145.591 178.345 145.618 178.384 145.644 178.398C145.868 178.534 146.63 178.195 147.158 177.87C146.706 177.824 146.251 177.866 145.816 177.993Z" fill="#263238"/>
<path d="M147.399 177.878C146.959 177.878 145.965 177.548 145.872 177.179C145.85 177.095 145.872 176.968 146.053 176.862C146.119 176.824 146.192 176.799 146.267 176.79C146.343 176.781 146.42 176.788 146.493 176.809C147.012 176.954 147.447 177.729 147.465 177.764C147.472 177.776 147.475 177.79 147.475 177.804C147.475 177.817 147.472 177.831 147.465 177.843C147.457 177.853 147.447 177.861 147.436 177.867C147.424 177.873 147.412 177.877 147.399 177.878ZM146.136 176.998H146.097C145.973 177.069 145.987 177.122 145.991 177.139C146.048 177.359 146.757 177.654 147.223 177.716C147.043 177.386 146.765 177.122 146.427 176.959C146.336 176.935 146.24 176.942 146.154 176.981L146.136 176.998Z" fill="#263238"/>
<path d="M152.53 178.072L149.406 179.133L147.334 171.789L150.454 170.729L152.53 178.072Z" fill="#CE7A63"/>
<path opacity="0.2" d="M132.668 105.16C131.757 108.807 131.999 123.965 132.941 132.51C133.165 127.507 133.799 119.794 134.441 112.71L132.668 105.16Z" fill="black"/>
<path d="M148.204 177.351L152.481 176.581C152.545 176.568 152.612 176.578 152.669 176.609C152.726 176.641 152.77 176.691 152.794 176.752L153.916 179.524C153.943 179.591 153.955 179.664 153.95 179.737C153.946 179.809 153.925 179.88 153.89 179.943C153.854 180.006 153.805 180.061 153.745 180.103C153.686 180.144 153.618 180.172 153.546 180.184C152.266 180.395 150.409 180.651 148.803 180.941C146.928 181.28 146.915 181.381 144.715 181.786C143.395 182.028 142.828 180.826 143.325 180.523C145.56 179.168 145.195 179.075 147.465 177.746C147.687 177.572 147.937 177.438 148.204 177.351Z" fill="#263238"/>
<path opacity="0.2" d="M147.334 171.793L148.403 175.577L151.527 174.517L150.458 170.733L147.334 171.793Z" fill="black"/>
<path d="M130.736 95.6294C130.736 95.6294 133.016 122.285 134.771 131.758C136.461 140.875 144.104 166.843 146.356 172.744C146.487 173.088 146.746 173.369 147.079 173.527C147.412 173.685 147.793 173.709 148.143 173.593L150.4 172.858C150.732 172.75 151.012 172.524 151.19 172.224C151.367 171.923 151.429 171.569 151.364 171.226C149.12 159.641 145.547 142.709 144.658 133.012C143.642 121.893 142.15 95.6118 142.15 95.6118L130.736 95.6294Z" fill="#92E3A9"/>
<path opacity="0.2" d="M130.736 95.6294C130.736 95.6294 133.016 122.285 134.771 131.758C136.461 140.875 144.104 166.843 146.356 172.744C146.487 173.088 146.746 173.369 147.079 173.527C147.412 173.685 147.793 173.709 148.143 173.593L150.4 172.858C150.732 172.75 151.012 172.524 151.19 172.224C151.367 171.923 151.429 171.569 151.364 171.226C149.12 159.641 145.547 142.709 144.658 133.012C143.642 121.893 142.15 95.6118 142.15 95.6118L130.736 95.6294Z" fill="white"/>
<path d="M131.634 54.969C131.66 55.2374 131.541 55.4662 131.365 55.4838C131.189 55.5014 131.031 55.299 131.005 55.0438C130.978 54.7886 131.097 54.551 131.273 54.5334C131.449 54.5158 131.607 54.705 131.634 54.969Z" fill="#263238"/>
<path d="M128.634 55.2683C128.66 55.5323 128.541 55.7611 128.365 55.7787C128.189 55.7963 128.031 55.5939 128.005 55.3387C127.978 55.0835 128.097 54.8415 128.273 54.8239C128.449 54.8063 128.607 54.9999 128.634 55.2683Z" fill="#263238"/>
<path d="M129.602 55.3032C129.365 56.1469 129.012 56.9539 128.555 57.7012C128.749 57.8126 128.966 57.8802 129.189 57.8992C129.413 57.9182 129.638 57.8882 129.848 57.8112L129.602 55.3032Z" fill="#BA4D3C"/>
<path d="M130.68 58.4715C130.66 58.4728 130.64 58.4662 130.624 58.4531C130.608 58.4399 130.598 58.4214 130.596 58.4011C130.595 58.3907 130.596 58.3802 130.599 58.3701C130.602 58.36 130.607 58.3506 130.613 58.3424C130.62 58.3342 130.628 58.3274 130.637 58.3224C130.646 58.3174 130.656 58.3142 130.667 58.3131C130.998 58.2886 131.318 58.1861 131.602 58.014C131.885 57.842 132.124 57.6052 132.299 57.3231C132.308 57.3045 132.325 57.2904 132.345 57.2839C132.364 57.2773 132.386 57.2787 132.405 57.2879C132.422 57.2981 132.436 57.3145 132.442 57.334C132.449 57.3535 132.448 57.3747 132.44 57.3935C132.254 57.7009 131.997 57.9593 131.691 58.1469C131.385 58.3345 131.038 58.4458 130.68 58.4715Z" fill="#263238"/>
<path d="M132.44 53.9128C132.416 53.9148 132.391 53.9115 132.369 53.9031C132.346 53.8948 132.325 53.8815 132.308 53.8644C132.18 53.7126 132.018 53.5935 131.835 53.517C131.652 53.4404 131.454 53.4087 131.256 53.4244C131.215 53.4308 131.174 53.421 131.14 53.3972C131.106 53.3734 131.083 53.3373 131.076 53.2968C131.072 53.2765 131.072 53.2557 131.077 53.2356C131.081 53.2154 131.09 53.1964 131.102 53.1796C131.113 53.1628 131.129 53.1485 131.146 53.1376C131.164 53.1268 131.183 53.1195 131.203 53.1164C131.449 53.0906 131.696 53.1239 131.926 53.2135C132.156 53.303 132.36 53.4462 132.523 53.6312C132.539 53.6456 132.551 53.6629 132.559 53.6822C132.568 53.7015 132.572 53.7223 132.572 53.7434C132.572 53.7644 132.568 53.7852 132.559 53.8045C132.551 53.8238 132.539 53.8412 132.523 53.8556C132.502 53.8824 132.473 53.9023 132.44 53.9128Z" fill="#263238"/>
<path d="M127.181 54.3354C127.158 54.34 127.134 54.34 127.111 54.3354C127.073 54.3181 127.044 54.2868 127.029 54.2481C127.014 54.2095 127.015 54.1666 127.032 54.1286C127.127 53.8994 127.276 53.6964 127.466 53.5365C127.655 53.3765 127.881 53.2642 128.123 53.209C128.145 53.2014 128.168 53.1987 128.191 53.201C128.213 53.2032 128.236 53.2105 128.255 53.2222C128.275 53.2339 128.292 53.2497 128.305 53.2687C128.318 53.2876 128.327 53.3092 128.331 53.3318C128.335 53.3545 128.334 53.3778 128.328 53.4C128.322 53.4222 128.311 53.4428 128.296 53.4604C128.281 53.478 128.263 53.4922 128.242 53.502C128.221 53.5118 128.199 53.5169 128.176 53.517C127.984 53.5636 127.807 53.6549 127.658 53.7834C127.509 53.9119 127.392 54.0739 127.318 54.2562C127.304 54.2805 127.284 54.3006 127.26 54.3146C127.236 54.3285 127.209 54.3357 127.181 54.3354Z" fill="#263238"/>
<path d="M137.719 65.5596C139.444 65.5596 143.602 65.652 144.007 67.192C144.412 68.732 143.967 71.2268 143.418 72.692C144.227 74.9272 143.967 78.2272 143.198 79.2568C144.042 81.7472 143.492 83.582 142.977 84.462C143.382 85.452 143.747 88.2768 143.127 89.6672C143.637 91.6472 144.223 94.9472 143.307 95.6116C142.062 96.4916 138.749 96.9316 136.408 96.3772C134.067 95.8228 134.987 91.0972 135.167 89.9972C134.142 88.642 135.242 84.572 135.242 84.572C134.727 83.4368 135.497 79.182 135.497 79.182C134.877 78.1568 135.682 72.582 135.682 72.582C135.013 71.4644 134.723 65.5596 137.719 65.5596Z" fill="#263238"/>
<path d="M125.052 66.5849C126.407 65.9865 130.948 64.8997 130.068 66.0965C128.792 67.8345 129.575 69.6649 128.818 71.8165C129.487 73.8713 129.258 77.2285 128.638 78.4165C129.189 80.1401 129.133 82.0004 128.479 83.6877C128.809 84.5677 129.113 87.3265 128.598 88.8577C129.038 90.7233 129.372 94.4853 128.598 95.3345C128.041 95.9485 127.302 96.3688 126.489 96.5341C125.677 96.6995 124.832 96.6014 124.079 96.2541C123.001 95.8141 122.522 92.2149 123.054 90.9741C122.007 88.6905 122.86 85.3069 122.86 85.3069C121.848 83.5469 122.632 79.8553 122.632 79.8553C121.628 76.5817 122.86 72.9605 122.86 72.9605C122.319 71.9793 122.891 67.5397 125.052 66.5849Z" fill="#263238"/>
<path d="M128.04 66.9897C127.859 66.856 127.713 66.6823 127.611 66.4823C127.51 66.2822 127.456 66.0613 127.454 65.8369C127.451 65.6865 127.477 65.5369 127.532 65.3967C127.586 65.2566 127.668 65.1286 127.773 65.0202C127.877 64.9118 128.002 64.8251 128.14 64.7652C128.278 64.7052 128.426 64.6732 128.576 64.6709C129.092 64.7137 129.592 64.8635 130.046 65.1109C130.737 65.4497 130.992 65.7621 131.023 66.2725C131.054 66.7829 129.795 68.5781 129.104 68.1513C128.414 67.7245 128.427 67.4297 128.04 66.9897Z" fill="#263238"/>
<path opacity="0.2" d="M141.389 73.2817C141.732 71.7989 142.604 71.9309 143.47 72.5381L143.409 72.7097C144.218 74.9449 143.959 78.2449 143.189 79.2745C143.237 79.4153 143.281 79.5561 143.321 79.7145C142.243 78.6585 140.747 76.0801 141.389 73.2817Z" fill="black"/>
<path d="M141.539 76.9028L138.613 78.2404L138.327 87.6916L130.376 92.8132L139.277 96.0076L141.693 105.146L144.623 103.813L146.26 88.906L141.539 76.9028Z" fill="#92E3A9"/>
<path opacity="0.3" d="M141.539 76.9028L138.613 78.2404L138.327 87.6916L130.376 92.8132L139.277 96.0076L141.693 105.146L144.623 103.813L146.26 88.906L141.539 76.9028Z" fill="black"/>
<path d="M159.851 96.8612L156.921 98.1988L147.479 97.6708L151.43 95.0044L159.851 96.8612Z" fill="#92E3A9"/>
<path opacity="0.3" d="M159.851 96.8612L156.921 98.1988L147.479 97.6708L151.43 95.0044L159.851 96.8612Z" fill="black"/>
<path d="M141.539 76.9028L148.869 82.878L157.947 80.2292L154.528 89.0468L159.852 96.8612L150.409 96.3332L144.623 103.813L142.203 94.67L133.307 91.4756L141.253 86.354L141.539 76.9028Z" fill="#92E3A9"/>
<path d="M146.145 95.6909L146.079 98.6785L149.599 98.4805C149.599 98.4805 150.074 96.6105 148.05 95.3081L146.145 95.6909Z" fill="#CE7A63"/>
<path d="M147.21 101.67L149.647 100.267L149.604 98.4805L146.079 98.6785L147.21 101.67Z" fill="#CE7A63"/>
<path d="M144.126 67.1042C144.412 67.3682 144.627 67.5706 144.865 67.8038C145.103 68.037 145.305 68.2438 145.551 68.4902C145.991 68.9522 146.431 69.4274 146.871 69.907C147.732 70.8914 148.541 71.9194 149.296 72.987C150.093 74.1024 150.801 75.2795 151.412 76.507C152.148 77.9282 152.619 79.4713 152.803 81.061C152.83 81.2961 152.843 81.5327 152.842 81.7694V82.139V82.3942L152.767 83.393C152.688 84.0486 152.609 84.713 152.499 85.3334C152.295 86.5884 152.028 87.8323 151.698 89.0602C151.065 91.4743 150.226 93.8296 149.19 96.1002C149.021 96.4826 148.722 96.7923 148.345 96.9738C147.968 97.1554 147.539 97.1969 147.135 97.0911C146.73 96.9852 146.377 96.7388 146.138 96.396C145.898 96.0532 145.789 95.6364 145.829 95.2202V95.1498C146.018 92.8266 146.269 90.4594 146.396 88.1626C146.484 87.0098 146.519 85.8702 146.546 84.757C146.546 84.1982 146.546 83.6526 146.546 83.107L146.511 82.315V82.1214V82.0378C146.502 81.9754 146.488 81.9136 146.471 81.853C146.242 81.0789 145.911 80.3389 145.485 79.653C144.949 78.7756 144.362 77.9308 143.725 77.123C143.061 76.2782 142.348 75.4378 141.609 74.6106C141.239 74.197 140.857 73.7922 140.478 73.383L139.906 72.7802L139.365 72.2214L139.277 72.129C138.65 71.4688 138.303 70.5911 138.309 69.6803C138.315 68.7696 138.674 67.8966 139.31 67.245C139.946 66.5933 140.81 66.2136 141.721 66.1857C142.631 66.1578 143.517 66.4839 144.192 67.0954L144.126 67.1042Z" fill="#263238"/>
<path d="M139.04 66.6027C139.48 66.5411 139.594 65.5115 139.242 64.8427C138.956 64.2927 137.922 64.3675 136.998 64.6051C136.254 64.7708 135.543 65.0561 134.89 65.4499C133.958 65.9647 134.296 66.5851 134.512 67.0735C134.728 67.5619 135.137 68.6839 136.017 68.0899C136.897 67.4959 138.424 66.6951 139.04 66.6027Z" fill="#263238"/>
<path d="M150.136 177.157C150.07 175.754 150.439 173.488 146.985 174.957C144.922 175.837 147.821 178.16 147.821 178.16L150.136 177.157Z" fill="#263238"/>
<path d="M106.876 67.76H111.601C111.732 67.7648 111.859 67.8094 111.965 67.888C112.07 67.9666 112.149 68.0755 112.191 68.2L114.664 77C114.68 77.0513 114.683 77.1056 114.674 77.1586C114.665 77.2115 114.643 77.2616 114.611 77.3046C114.579 77.3475 114.537 77.3822 114.489 77.4058C114.44 77.4293 114.387 77.4411 114.334 77.44H109.604C109.473 77.4332 109.348 77.3877 109.244 77.3093C109.14 77.2309 109.061 77.1232 109.018 77L106.546 68.2C106.528 68.1487 106.524 68.094 106.533 68.0407C106.541 67.9873 106.563 67.9368 106.595 67.8935C106.628 67.8503 106.67 67.8155 106.719 67.7923C106.768 67.769 106.821 67.7579 106.876 67.76Z" fill="#92E3A9"/>
<path d="M109.449 73.6908L108.459 70.2456L106.734 70.932L107.359 75.0064L109.449 73.6908Z" fill="#CE7A63"/>
<path opacity="0.3" d="M111.98 68.0767C112.026 68.0795 112.071 68.0966 112.107 68.1258C112.143 68.155 112.17 68.1947 112.182 68.2395L114.659 76.9999C114.667 77.0179 114.67 77.0377 114.668 77.0572C114.665 77.0767 114.658 77.0953 114.647 77.1112C114.635 77.1271 114.62 77.1398 114.602 77.148C114.584 77.1563 114.565 77.1598 114.545 77.1583C114.499 77.1564 114.455 77.1401 114.418 77.1117C114.382 77.0833 114.356 77.0441 114.343 76.9999L111.874 68.2263C111.87 68.2094 111.869 68.1917 111.872 68.1745C111.875 68.1572 111.882 68.1409 111.892 68.1266C111.902 68.1123 111.915 68.1004 111.93 68.0918C111.945 68.0832 111.962 68.078 111.98 68.0767Z" fill="black"/>
<path d="M53.9304 33.5718H50.5996V34.0118H53.9304V33.5718Z" fill="#92E3A9"/>
<path d="M38.2798 38.5614H37.8398C37.841 37.2422 38.364 35.9771 39.2948 35.0422C40.2255 34.1074 41.4883 33.5788 42.8074 33.5718H48.7914V34.0118H42.8074C41.605 34.0187 40.4541 34.501 39.6059 35.3533C38.7577 36.2057 38.281 37.3589 38.2798 38.5614Z" fill="#92E3A9"/>
<path d="M94.7583 35.1118H42.8075C40.9048 35.1118 39.3623 36.6543 39.3623 38.557V47.1106C39.3623 49.0133 40.9048 50.5558 42.8075 50.5558H94.7583C96.661 50.5558 98.2035 49.0133 98.2035 47.1106V38.557C98.2035 36.6543 96.661 35.1118 94.7583 35.1118Z" fill="#92E3A9"/>
<path d="M61.7535 40.5063L62.5103 42.0375L64.2043 42.2839L62.9767 43.4763L63.2671 45.1659L61.7535 44.3695L60.2399 45.1659L60.5303 43.4763L59.3027 42.2839L60.9967 42.0375L61.7535 40.5063Z" fill="white"/>
<path d="M68.6266 40.5063L69.3834 42.0375L71.0774 42.2839L69.8498 43.4763L70.1402 45.1659L68.6266 44.3695L67.113 45.1659L67.4034 43.4763L66.1758 42.2839L67.8698 42.0375L68.6266 40.5063Z" fill="white"/>
<path d="M75.4996 40.5063L76.2564 42.0375L77.9504 42.2839L76.7272 43.4763L77.0132 45.1659L75.4996 44.3695L73.986 45.1659L74.2764 43.4763L73.0488 42.2839L74.7428 42.0375L75.4996 40.5063Z" fill="white"/>
<path d="M82.3727 40.5063L83.1295 42.0375L84.8235 42.2839L83.6003 43.4763L83.8863 45.1659L82.3727 44.3695L80.8591 45.1659L81.1495 43.4763L79.9219 42.2839L81.6159 42.0375L82.3727 40.5063Z" fill="white"/>
<path opacity="0.3" d="M89.2452 41.5007L89.606 42.2355C89.6383 42.2993 89.6856 42.3543 89.7439 42.3957C89.8021 42.4371 89.8696 42.4637 89.9404 42.4731L90.75 42.5919L90.1648 43.1639C90.1139 43.2134 90.0757 43.2744 90.0535 43.3419C90.0313 43.4093 90.0257 43.4811 90.0372 43.5511L90.1736 44.3607L89.452 43.9999C89.3874 43.969 89.3169 43.9525 89.2452 43.9515C89.1749 43.9513 89.1055 43.9679 89.0428 43.9999L88.3168 44.3827L88.44 43.5599C88.4516 43.4899 88.446 43.4181 88.4238 43.3507C88.4016 43.2832 88.3634 43.2222 88.3124 43.1727L87.7272 42.6007L88.5368 42.4819C88.6097 42.4734 88.6792 42.4468 88.7392 42.4045C88.7991 42.3623 88.8475 42.3057 88.88 42.2399L89.2408 41.5051M89.2408 40.5107L88.484 42.0419L86.79 42.2883L88.0176 43.4851L87.7272 45.1703L89.2408 44.3739L90.7544 45.1703L90.464 43.4851L91.6916 42.2883L89.9976 42.0419L89.2408 40.5107Z" fill="white"/>
<path opacity="0.2" d="M50.094 48.1181C53.0125 48.1181 55.3784 45.7522 55.3784 42.8337C55.3784 39.9152 53.0125 37.5493 50.094 37.5493C47.1755 37.5493 44.8096 39.9152 44.8096 42.8337C44.8096 45.7522 47.1755 48.1181 50.094 48.1181Z" fill="white"/>
<path d="M54.4586 42.8337C54.4597 43.8046 54.1368 44.7482 53.5409 45.5147C52.945 46.2813 52.1103 46.8271 51.1691 47.0656C50.2279 47.304 49.234 47.2215 48.345 46.8312C47.456 46.4408 46.7227 45.7648 46.2614 44.9105C45.9128 44.2739 45.7311 43.5594 45.7334 42.8337C45.7694 41.7006 46.2448 40.626 47.059 39.8372C47.8732 39.0485 48.9624 38.6074 50.096 38.6074C51.2296 38.6074 52.3188 39.0485 53.133 39.8372C53.9472 40.626 54.4226 41.7006 54.4586 42.8337Z" fill="white"/>
<path d="M53.9309 44.9106C53.5579 45.6027 53.0045 46.181 52.3294 46.5841C51.6542 46.9872 50.8826 47.2 50.0963 47.2C49.31 47.2 48.5384 46.9872 47.8633 46.5841C47.1882 46.181 46.6347 45.6027 46.2617 44.9106C47.397 44.1529 48.7314 43.7485 50.0963 43.7485C51.4613 43.7485 52.7956 44.1529 53.9309 44.9106Z" fill="#263238"/>
<path d="M52.039 41.3598C52.039 41.7445 51.925 42.1205 51.7113 42.4403C51.4976 42.7601 51.1938 43.0094 50.8385 43.1566C50.4831 43.3038 50.0921 43.3423 49.7148 43.2673C49.3375 43.1922 48.991 43.007 48.719 42.735C48.447 42.463 48.2618 42.1165 48.1868 41.7392C48.1117 41.362 48.1503 40.971 48.2975 40.6156C48.4446 40.2602 48.6939 39.9565 49.0137 39.7428C49.3336 39.5291 49.7096 39.415 50.0942 39.415C50.61 39.415 51.1047 39.6199 51.4694 39.9847C51.8341 40.3494 52.039 40.844 52.039 41.3598Z" fill="#FFC3BD"/>
<path d="M91.1765 88.7832H82.3721V89.2232H91.1765V88.7832Z" fill="#92E3A9"/>
<path d="M94.7583 72.2388H42.8075C40.9048 72.2388 39.3623 73.7812 39.3623 75.684V84.2376C39.3623 86.1403 40.9048 87.6828 42.8075 87.6828H94.7583C96.661 87.6828 98.2035 86.1403 98.2035 84.2376V75.684C98.2035 73.7812 96.661 72.2388 94.7583 72.2388Z" fill="#92E3A9"/>
<path d="M61.7535 77.6289L62.5103 79.1645L64.2043 79.4065L62.9767 80.6033L63.2671 82.2885L61.7535 81.4921L60.2399 82.2885L60.5303 80.6033L59.3027 79.4065L60.9967 79.1645L61.7535 77.6289Z" fill="white"/>
<path d="M68.6266 77.6289L69.3834 79.1645L71.0774 79.4065L69.8498 80.6033L70.1402 82.2885L68.6266 81.4921L67.113 82.2885L67.4034 80.6033L66.1758 79.4065L67.8698 79.1645L68.6266 77.6289Z" fill="white"/>
<path d="M75.4996 77.6289L76.2564 79.1645L77.9504 79.4065L76.7272 80.6033L77.0132 82.2885L75.4996 81.4921L73.986 82.2885L74.2764 80.6033L73.0488 79.4065L74.7428 79.1645L75.4996 77.6289Z" fill="white"/>
<path d="M82.3727 77.6289L83.1295 79.1645L84.8235 79.4065L83.6003 80.6033L83.8863 82.2885L82.3727 81.4921L80.8591 82.2885L81.1495 80.6033L79.9219 79.4065L81.6159 79.1645L82.3727 77.6289Z" fill="white"/>
<path d="M89.2447 77.6289L90.0015 79.1645L91.6955 79.4065L90.4723 80.6033L90.7583 82.2885L89.2447 81.4921L87.7311 82.2885L88.0215 80.6033L86.7939 79.4065L88.4879 79.1645L89.2447 77.6289Z" fill="white"/>
<path opacity="0.2" d="M53.833 83.6971C55.8966 81.6334 55.8966 78.2875 53.833 76.2238C51.7693 74.1601 48.4234 74.1601 46.3597 76.2238C44.296 78.2875 44.296 81.6334 46.3597 83.6971C48.4234 85.7608 51.7693 85.7608 53.833 83.6971Z" fill="white"/>
<path d="M54.4586 79.9567C54.4607 80.928 54.1385 81.8723 53.5429 82.6396C52.9474 83.4069 52.1127 83.9535 51.1713 84.1925C50.2298 84.4315 49.2355 84.3494 48.346 83.9591C47.4566 83.5687 46.7229 82.8926 46.2614 82.0379C45.9128 81.3998 45.7311 80.6839 45.7334 79.9567C45.7694 78.8237 46.2448 77.749 47.059 76.9603C47.8732 76.1715 48.9624 75.7305 50.096 75.7305C51.2296 75.7305 52.3188 76.1715 53.133 76.9603C53.9472 77.749 54.4226 78.8237 54.4586 79.9567Z" fill="white"/>
<path opacity="0.5" d="M53.9309 82.038C53.5569 82.729 53.0031 83.306 52.3281 83.7082C51.6531 84.1103 50.882 84.3226 50.0963 84.3226C49.3106 84.3226 48.5395 84.1103 47.8645 83.7082C47.1895 83.306 46.6358 82.729 46.2617 82.038C47.397 81.2803 48.7314 80.876 50.0963 80.876C51.4613 80.876 52.7956 81.2803 53.9309 82.038Z" fill="#92E3A9"/>
<path d="M52.039 78.4648C52.0399 78.8496 51.9266 79.2261 51.7134 79.5465C51.5002 79.8669 51.1968 80.1168 50.8415 80.2647C50.4862 80.4126 50.095 80.4517 49.7175 80.3772C49.34 80.3026 48.993 80.1178 48.7206 79.846C48.4482 79.5741 48.2625 79.2276 48.1871 78.8502C48.1117 78.4729 48.15 78.0816 48.297 77.726C48.4441 77.3704 48.6934 77.0664 49.0133 76.8525C49.3332 76.6386 49.7094 76.5244 50.0942 76.5244C50.6092 76.5244 51.1032 76.7287 51.4678 77.0925C51.8324 77.4562 52.0378 77.9498 52.039 78.4648Z" fill="#FFB573"/>
<path d="M94.7583 53.6753H42.8075C40.9048 53.6753 39.3623 55.2178 39.3623 57.1205V65.6741C39.3623 67.5768 40.9048 69.1193 42.8075 69.1193H94.7583C96.661 69.1193 98.2035 67.5768 98.2035 65.6741V57.1205C98.2035 55.2178 96.661 53.6753 94.7583 53.6753Z" fill="#92E3A9"/>
<path d="M96.6062 62.7173L92.9102 69.1193H102.15L96.6062 62.7173Z" fill="#92E3A9"/>
<path d="M61.7535 59.0654L62.5103 60.601L64.2043 60.8474L62.9767 62.0398L63.2671 63.725L61.7535 62.9286L60.2399 63.725L60.5303 62.0398L59.3027 60.8474L60.9967 60.601L61.7535 59.0654Z" fill="white"/>
<path d="M68.6266 59.0654L69.3834 60.601L71.0774 60.8474L69.8498 62.0398L70.1402 63.725L68.6266 62.9286L67.113 63.725L67.4034 62.0398L66.1758 60.8474L67.8698 60.601L68.6266 59.0654Z" fill="white"/>
<path opacity="0.3" d="M75.4991 60.0598L75.8599 60.7946C75.8916 60.8592 75.9387 60.9151 75.997 60.9573C76.0553 60.9995 76.1231 61.0267 76.1943 61.0366L76.9995 61.1598L76.4143 61.7318C76.3634 61.7813 76.3252 61.8423 76.303 61.9098C76.2808 61.9772 76.2752 62.049 76.2868 62.119L76.4231 62.9286L75.7015 62.5458C75.638 62.5115 75.567 62.4934 75.4947 62.493C75.4238 62.4928 75.3541 62.511 75.2923 62.5458L74.5663 62.9286L74.7027 62.119C74.7143 62.049 74.7087 61.9772 74.6865 61.9098C74.6643 61.8423 74.6261 61.7813 74.5752 61.7318L73.9899 61.1598L74.7995 61.041C74.8708 61.0311 74.9386 61.0039 74.9969 60.9617C75.0552 60.9195 75.1022 60.8636 75.1339 60.799L75.4947 60.0642M75.4947 59.0698L74.7379 60.6054L73.0439 60.8518L74.2715 62.0442L73.9811 63.7294L75.4947 62.933L77.0083 63.7294L76.7179 62.0442L77.9455 60.8518L76.2515 60.6054L75.4947 59.0698Z" fill="white"/>
<path opacity="0.3" d="M82.3727 60.0598L82.7335 60.7946C82.7652 60.8592 82.8122 60.9151 82.8705 60.9573C82.9288 60.9995 82.9966 61.0267 83.0679 61.0366L83.8775 61.1554L83.2923 61.7274C83.2413 61.7769 83.2031 61.8379 83.1809 61.9054C83.1587 61.9728 83.1531 62.0446 83.1647 62.1146L83.3011 62.9242L82.5795 62.5414C82.5159 62.5071 82.4449 62.489 82.3727 62.4886C82.3018 62.4884 82.232 62.5066 82.1703 62.5414L81.4443 62.9242L81.5807 62.1146C81.5922 62.0446 81.5866 61.9728 81.5644 61.9054C81.5422 61.8379 81.504 61.7769 81.4531 61.7274L80.8679 61.1554L81.6775 61.0366C81.7488 61.0267 81.8165 60.9995 81.8748 60.9573C81.9331 60.9151 81.9802 60.8592 82.0119 60.7946L82.3727 60.0598ZM82.3727 59.0654L81.6159 60.601L79.9219 60.8474L81.1495 62.0398L80.8591 63.725L82.3727 62.9286L83.8863 63.725L83.6003 62.0398L84.8279 60.8474L83.1339 60.601L82.3771 59.0654H82.3727Z" fill="white"/>
<path opacity="0.3" d="M89.2447 60.0598L89.6055 60.7946C89.6372 60.8592 89.6843 60.9151 89.7426 60.9573C89.8009 60.9995 89.8687 61.0267 89.9399 61.0366L90.7495 61.1554L90.1643 61.7274C90.1134 61.7769 90.0752 61.8379 90.053 61.9054C90.0308 61.9728 90.0252 62.0446 90.0368 62.1146L90.1731 62.9242L89.4515 62.5414C89.388 62.5071 89.317 62.489 89.2447 62.4886C89.1738 62.4884 89.1041 62.5066 89.0423 62.5414L88.3163 62.9242L88.4527 62.1146C88.4643 62.0446 88.4587 61.9728 88.4365 61.9054C88.4143 61.8379 88.3761 61.7769 88.3252 61.7274L87.7399 61.1554L88.5495 61.0366C88.6208 61.0267 88.6886 60.9995 88.7469 60.9573C88.8052 60.9151 88.8522 60.8592 88.8839 60.7946L89.2447 60.0598ZM89.2447 59.0654L88.4879 60.601L86.7939 60.8474L88.0215 62.0398L87.7311 63.725L89.2447 62.9286L90.7583 63.725L90.4679 62.0398L91.6955 60.8474L90.0015 60.601L89.2447 59.0654Z" fill="white"/>
<path opacity="0.2" d="M50.094 66.6816C53.0125 66.6816 55.3784 64.3157 55.3784 61.3972C55.3784 58.4787 53.0125 56.1128 50.094 56.1128C47.1755 56.1128 44.8096 58.4787 44.8096 61.3972C44.8096 64.3157 47.1755 66.6816 50.094 66.6816Z" fill="white"/>
<path d="M54.4588 61.3974C54.46 62.3684 54.137 63.3119 53.5411 64.0785C52.9452 64.8451 52.1105 65.3909 51.1693 65.6293C50.2281 65.8678 49.2343 65.7853 48.3452 65.3949C47.4562 65.0045 46.723 64.3286 46.2616 63.4742C45.913 62.8377 45.7313 62.1232 45.7336 61.3974C45.7151 60.8128 45.8142 60.2305 46.0251 59.685C46.2359 59.1395 46.5543 58.6419 46.9613 58.2218C47.3682 57.8018 47.8554 57.4678 48.394 57.2397C48.9325 57.0116 49.5114 56.894 50.0962 56.894C50.6811 56.894 51.26 57.0116 51.7985 57.2397C52.3371 57.4678 52.8243 57.8018 53.2312 58.2218C53.6382 58.6419 53.9565 59.1395 54.1674 59.685C54.3783 60.2305 54.4774 60.8128 54.4588 61.3974Z" fill="white"/>
<path d="M53.9309 63.474C53.5569 64.165 53.0031 64.742 52.3281 65.1442C51.6531 65.5463 50.882 65.7586 50.0963 65.7586C49.3106 65.7586 48.5395 65.5463 47.8645 65.1442C47.1895 64.742 46.6358 64.165 46.2617 63.474C47.397 62.7164 48.7314 62.312 50.0963 62.312C51.4613 62.312 52.7956 62.7164 53.9309 63.474Z" fill="#92E3A9"/>
<path d="M52.039 59.9057C52.039 60.2904 51.925 60.6664 51.7113 60.9862C51.4976 61.306 51.1938 61.5553 50.8385 61.7025C50.4831 61.8497 50.0921 61.8882 49.7148 61.8132C49.3375 61.7381 48.991 61.5529 48.719 61.2809C48.447 61.0089 48.2618 60.6624 48.1868 60.2852C48.1117 59.9079 48.1503 59.5169 48.2975 59.1615C48.4446 58.8061 48.6939 58.5024 49.0137 58.2887C49.3336 58.075 49.7096 57.9609 50.0942 57.9609C50.3498 57.9604 50.6029 58.0103 50.8391 58.1078C51.0754 58.2053 51.29 58.3486 51.4707 58.5293C51.6514 58.71 51.7946 58.9246 51.8922 59.1608C51.9897 59.397 52.0396 59.6502 52.039 59.9057Z" fill="#B55B52"/>
</svg>
