<svg width="16" height="16" viewBox="0 0 16 16" fill="none" xmlns="http://www.w3.org/2000/svg">
<path fill-rule="evenodd" clip-rule="evenodd" d="M7.11814 1.96976C7.55474 1.12141 8.77861 1.12141 9.21521 1.96976L10.6862 4.82838C10.7106 4.87581 10.7565 4.90883 10.8095 4.9172L14.0071 5.42153C14.9555 5.57111 15.3334 6.72203 14.6552 7.39549L12.3661 9.66849C12.3282 9.70616 12.3107 9.75943 12.3191 9.81196L12.8237 12.9843C12.9732 13.9245 11.9833 14.6361 11.127 14.2041L8.24301 12.7491C8.19508 12.7249 8.13828 12.7249 8.09034 12.7491L5.20636 14.2041C4.35004 14.6361 3.36017 13.9245 3.5097 12.9843L4.01424 9.81196C4.02259 9.75943 4.00512 9.70616 3.9672 9.66849L1.67813 7.39549C0.999963 6.72203 1.37788 5.57111 2.32628 5.42153L5.52379 4.9172C5.57688 4.90883 5.62272 4.87581 5.64714 4.82838L7.11814 1.96976Z" fill="#FFC300"/>
</svg>
