<svg width="15" height="15" viewBox="0 0 15 15" fill="none" xmlns="http://www.w3.org/2000/svg">
<g clip-path="url(#clip0_6_6074)">
<path d="M6.05855 7.75C6.05853 6.29649 6.63388 4.90207 7.65885 3.87148C8.68382 2.84089 10.0751 2.25793 11.5286 2.25C10.5452 1.63062 9.41368 1.28623 8.25197 1.25271C7.09026 1.21918 5.94081 1.49773 4.92333 2.05937C3.90585 2.621 3.05756 3.44516 2.46681 4.44601C1.87606 5.44687 1.56445 6.58781 1.56445 7.75C1.56445 8.9122 1.87606 10.0531 2.46681 11.054C3.05756 12.0548 3.90585 12.879 4.92333 13.4406C5.94081 14.0023 7.09026 14.2808 8.25197 14.2473C9.41368 14.2138 10.5452 13.8694 11.5286 13.25C10.0751 13.2421 8.68382 12.6591 7.65885 11.6285C6.63388 10.5979 6.05853 9.20351 6.05855 7.75V7.75Z" stroke="#000001" stroke-linecap="round" stroke-linejoin="round"/>
<path d="M11.419 4.79004L12.329 6.60004H14.139L12.779 8.00004L13.209 10L11.419 9.00004L9.70898 10L10.069 8.00004L8.70898 6.60004H10.519L11.419 4.79004Z" stroke="#000001" stroke-linecap="round" stroke-linejoin="round"/>
</g>
<defs>
<clipPath id="clip0_6_6074">
<rect width="14" height="14" fill="white" transform="translate(0.847656 0.75)"/>
</clipPath>
</defs>
</svg>
