<svg width="17" height="16" viewBox="0 0 17 16" fill="none" xmlns="http://www.w3.org/2000/svg">
<path d="M11.833 12.0001V10.6667" stroke="#403E3E" stroke-width="1.5" stroke-linecap="round"/>
<path d="M8.5 12V10" stroke="#403E3E" stroke-width="1.5" stroke-linecap="round"/>
<path d="M5.16699 12.0001V8.66675" stroke="#403E3E" stroke-width="1.5" stroke-linecap="round"/>
<path d="M4.5 4.66675C6.63137 6.84561 9.32253 7.38761 11.9275 6.66131M10.9587 5.64763L12.3411 6.32567C12.5051 6.40609 12.5493 6.59227 12.44 6.74155L11.5179 8.00008" stroke="#403E3E" stroke-width="1.5" stroke-linecap="round" stroke-linejoin="round"/>
<path d="M2.16699 8.00008C2.16699 5.01452 2.16699 3.52174 3.09449 2.59424C4.02199 1.66675 5.51477 1.66675 8.50033 1.66675C11.4859 1.66675 12.9787 1.66675 13.9062 2.59424C14.8337 3.52174 14.8337 5.01452 14.8337 8.00008C14.8337 10.9856 14.8337 12.4784 13.9062 13.4059C12.9787 14.3334 11.4859 14.3334 8.50033 14.3334C5.51477 14.3334 4.02199 14.3334 3.09449 13.4059C2.16699 12.4784 2.16699 10.9856 2.16699 8.00008Z" stroke="#403E3E" stroke-width="1.5" stroke-linejoin="round"/>
</svg>
