<svg width="292" height="292" viewBox="0 0 292 292" fill="none" xmlns="http://www.w3.org/2000/svg">
<path d="M292 223.322H0V223.468H292V223.322Z" fill="#EBEBEB"/>
<path d="M226.855 227.708H207.513V227.854H226.855V227.708Z" fill="#EBEBEB"/>
<path d="M176.368 232.648H150.654V232.794H176.368V232.648Z" fill="#EBEBEB"/>
<path d="M253.596 233.127H227.445V233.273H253.596V233.127Z" fill="#EBEBEB"/>
<path d="M56.5779 227.562H31.355V227.708H56.5779V227.562Z" fill="#EBEBEB"/>
<path d="M65.478 227.562H61.7812V227.708H65.478V227.562Z" fill="#EBEBEB"/>
<path d="M132.206 230.026H77.4966V230.172H132.206V230.026Z" fill="#EBEBEB"/>
<path d="M138.408 197.275H25.6433C24.7599 197.274 23.9132 196.922 23.2891 196.297C22.665 195.671 22.3145 194.824 22.3145 193.941V35.4256C22.3221 34.5472 22.6761 33.7074 23.2993 33.0885C23.9226 32.4696 24.7649 32.1216 25.6433 32.1201H138.408C139.292 32.1201 140.14 32.4714 140.766 33.0968C141.391 33.7222 141.742 34.5704 141.742 35.4548V193.941C141.742 194.825 141.391 195.673 140.766 196.299C140.14 196.924 139.292 197.275 138.408 197.275ZM25.6433 32.2369C24.7986 32.2385 23.989 32.5751 23.3923 33.1729C22.7956 33.7707 22.4605 34.5809 22.4605 35.4256V193.941C22.4605 194.785 22.7956 195.596 23.3923 196.193C23.989 196.791 24.7986 197.128 25.6433 197.129H138.408C139.253 197.128 140.063 196.791 140.661 196.194C141.258 195.596 141.595 194.786 141.596 193.941V35.4256C141.595 34.5804 141.258 33.7702 140.661 33.1726C140.063 32.5749 139.253 32.2385 138.408 32.2369H25.6433Z" fill="#EBEBEB"/>
<path d="M264.733 197.275H151.963C151.079 197.274 150.231 196.922 149.606 196.297C148.981 195.672 148.629 194.825 148.628 193.941V35.4256C148.637 34.5467 148.992 33.7069 149.617 33.0882C150.241 32.4694 151.084 32.1216 151.963 32.1201H264.733C265.61 32.1232 266.451 32.4718 267.073 33.0906C267.695 33.7093 268.048 34.5482 268.056 35.4256V193.941C268.056 194.823 267.706 195.669 267.083 196.294C266.461 196.92 265.615 197.272 264.733 197.275ZM151.963 32.2369C151.117 32.2385 150.307 32.5749 149.71 33.1726C149.112 33.7702 148.775 34.5804 148.774 35.4256V193.941C148.775 194.786 149.112 195.596 149.71 196.194C150.307 196.791 151.117 197.128 151.963 197.129H264.733C265.578 197.128 266.388 196.791 266.986 196.194C267.584 195.596 267.92 194.786 267.922 193.941V35.4256C267.92 34.5804 267.584 33.7702 266.986 33.1726C266.388 32.5749 265.578 32.2385 264.733 32.2369H151.963Z" fill="#EBEBEB"/>
<path d="M199.564 146.572H254.145V46.2235H199.564V146.572Z" fill="#E6E6E6"/>
<path d="M193.339 146.572H252.656V46.2235L193.339 46.2235V146.572Z" fill="#F0F0F0"/>
<path d="M247.692 141.597V51.1875H198.315V141.597H247.692Z" fill="white"/>
<path d="M74.3374 50.2827H31.355V100.238H74.3374V50.2827Z" fill="#E0E0E0"/>
<path d="M76.9069 50.2827H32.8091V100.238H76.9069V50.2827Z" fill="#F5F5F5"/>
<path d="M73.2104 96.3018V54.2188H36.5002V96.3018H73.2104Z" fill="white"/>
<path d="M134.629 79.4414H91.647V129.397H134.629V79.4414Z" fill="#E0E0E0"/>
<path d="M137.199 79.4414H93.1011V129.397H137.199V79.4414Z" fill="#F5F5F5"/>
<path d="M133.502 125.467V83.3838H96.7922V125.467H133.502Z" fill="white"/>
<path d="M110.055 171.001C109.763 171.001 109.471 171.001 109.167 171.03C107.304 171.164 105.493 171.707 103.864 172.622C102.236 173.537 100.829 174.8 99.7457 176.322C98.662 177.843 97.9281 179.586 97.5962 181.424C97.2643 183.262 97.3428 185.151 97.826 186.956C99.2099 192.342 99.8775 197.887 99.8116 203.448V219.648C99.8116 219.928 99.8668 220.205 99.974 220.463C100.081 220.721 100.238 220.956 100.436 221.153C100.634 221.351 100.869 221.507 101.128 221.614C101.386 221.72 101.664 221.775 101.943 221.774H153.335V171.001H110.055Z" fill="#F0F0F0"/>
<path d="M166.014 183.668C165.94 180.432 164.631 177.348 162.354 175.048C160.077 172.748 157.006 171.407 153.771 171.301C150.536 171.195 147.384 172.331 144.961 174.477C142.538 176.623 141.029 179.615 140.744 182.839C140.656 184.226 140.794 185.619 141.153 186.962C142.534 192.349 143.201 197.893 143.138 203.454V219.654C143.138 220.218 143.362 220.759 143.761 221.157C144.16 221.556 144.7 221.78 145.264 221.78H161.499C162.063 221.78 162.604 221.556 163.002 221.157C163.401 220.759 163.625 220.218 163.625 219.654V202.508C163.577 197.29 164.237 192.09 165.587 187.049C165.881 185.947 166.024 184.809 166.014 183.668Z" fill="#F5F5F5"/>
<path d="M135.903 190.951H89.7549V221.78H135.903V190.951Z" fill="#F0F0F0"/>
<path d="M95.6007 147.285H53.0038C47.7069 147.285 44.1095 151.578 44.9679 156.869L51.6139 197.918H113.384L106.738 156.869C105.879 151.578 100.892 147.285 95.6007 147.285Z" fill="#EBEBEB"/>
<path d="M108.128 147.285H64.608C59.5681 147.285 56.1459 151.373 56.9635 156.407L63.6853 197.918H125.449L118.727 156.407C117.91 151.373 113.168 147.285 108.128 147.285Z" fill="#F5F5F5"/>
<path d="M92.7741 188.136H135.313C136.05 188.136 136.757 188.429 137.278 188.95C137.8 189.471 138.093 190.178 138.093 190.916V197.924C138.093 198.661 137.8 199.368 137.278 199.889C136.757 200.411 136.05 200.703 135.313 200.703H92.7741C92.5542 200.703 92.3432 200.616 92.1877 200.461C92.0322 200.305 91.9448 200.094 91.9448 199.874V188.965C91.9448 188.745 92.0322 188.534 92.1877 188.379C92.3432 188.223 92.5542 188.136 92.7741 188.136Z" fill="#EBEBEB"/>
<path d="M47.0643 171.001C46.7723 171.001 46.4803 171.001 46.1766 171.03C43.1297 171.26 40.2677 172.581 38.1151 174.75C35.9624 176.918 34.6633 179.79 34.4558 182.839C34.3681 184.226 34.5061 185.619 34.8646 186.962C36.2485 192.348 36.9161 197.893 36.8502 203.454V219.654C36.8502 220.218 37.0741 220.759 37.4728 221.157C37.8714 221.556 38.4121 221.78 38.9759 221.78H90.3679V171.001H47.0643Z" fill="#F0F0F0"/>
<path d="M103.023 183.668C103.021 181.866 102.635 180.086 101.89 178.445C101.144 176.805 100.058 175.342 98.7019 174.156C97.3462 172.969 95.7528 172.085 94.0282 171.563C92.3036 171.042 90.4875 170.894 88.7013 171.13C86.9151 171.367 85.1999 171.982 83.6704 172.934C82.1408 173.886 80.8322 175.154 79.8318 176.653C78.8315 178.151 78.1625 179.846 77.8696 181.624C77.5767 183.402 77.6666 185.222 78.1333 186.962C79.5144 192.349 80.1819 197.893 80.1189 203.454V219.654C80.1189 220.218 80.3429 220.759 80.7415 221.157C81.1402 221.556 81.6809 221.78 82.2447 221.78H98.4799C99.0437 221.78 99.5844 221.556 99.983 221.157C100.382 220.759 100.606 220.218 100.606 219.654V202.508C100.559 197.29 101.217 192.091 102.562 187.049C102.87 185.949 103.026 184.811 103.023 183.668Z" fill="#F5F5F5"/>
<path d="M152.424 223.322H47.97C47.5611 223.322 47.1689 223.159 46.8798 222.87C46.5907 222.581 46.4282 222.189 46.4282 221.78H153.989C153.989 221.984 153.949 222.187 153.87 222.375C153.791 222.564 153.675 222.735 153.53 222.878C153.384 223.022 153.211 223.135 153.021 223.211C152.832 223.287 152.629 223.325 152.424 223.322Z" fill="#E0E0E0"/>
<path d="M264.984 199.559H239.849V201.62H264.984V199.559Z" fill="#E6E6E6"/>
<path d="M192.44 223.322H197.083V175.86H192.44V223.322Z" fill="#E6E6E6"/>
<path d="M176.368 201.626H239.849V199.564H176.368V201.626Z" fill="#F5F5F5"/>
<path d="M264.984 210.848H239.849V212.909H264.984V210.848Z" fill="#E6E6E6"/>
<path d="M176.368 212.909H239.849V210.848H176.368V212.909Z" fill="#F5F5F5"/>
<path d="M264.984 176.987H239.849V179.049H264.984V176.987Z" fill="#E6E6E6"/>
<path d="M176.368 179.055H239.849V176.993H176.368V179.055Z" fill="#F5F5F5"/>
<path d="M264.984 188.276H239.849V190.337H264.984V188.276Z" fill="#E6E6E6"/>
<path d="M176.368 190.337H239.849V188.276H176.368V190.337Z" fill="#F5F5F5"/>
<path d="M255.921 223.322H260.563V175.86H255.921V223.322Z" fill="#E6E6E6"/>
<path d="M235.206 223.322H239.849V175.86H235.206V223.322Z" fill="#F5F5F5"/>
<path d="M176.368 223.322H181.011V175.86H176.368V223.322Z" fill="#F5F5F5"/>
<path d="M222.025 175.305H224.507V147.629H222.025V175.305Z" fill="#E6E6E6"/>
<path d="M222.346 175.282H223.047V147.606H222.346V175.282Z" fill="#F0F0F0"/>
<path d="M214.071 176.987H232.432C232.432 176.368 232.186 175.774 231.748 175.336C231.31 174.897 230.716 174.651 230.096 174.651H216.39C215.77 174.651 215.176 174.897 214.738 175.336C214.3 175.774 214.054 176.368 214.054 176.987H214.071Z" fill="#F0F0F0"/>
<path d="M219.123 176.304H220.051C220.19 176.304 220.302 176.191 220.302 176.053V174.12C220.302 173.981 220.19 173.868 220.051 173.868H219.123C218.984 173.868 218.871 173.981 218.871 174.12V176.053C218.871 176.191 218.984 176.304 219.123 176.304Z" fill="#F0F0F0"/>
<path d="M212.15 154.176H234.383L232.257 136.446C232.138 135.444 231.657 134.521 230.904 133.851C230.15 133.18 229.177 132.809 228.169 132.808H218.375C217.368 132.812 216.396 133.184 215.643 133.854C214.891 134.524 214.408 135.445 214.287 136.446L212.15 154.176Z" fill="#F5F5F5"/>
<path d="M146 249.695C208.536 249.695 259.232 246.735 259.232 243.084C259.232 239.433 208.536 236.473 146 236.473C83.4637 236.473 32.7681 239.433 32.7681 243.084C32.7681 246.735 83.4637 249.695 146 249.695Z" fill="#F5F5F5"/>
<path d="M172.695 94.824L172.49 95.5131L172.303 96.0971C172.175 96.4884 172.035 96.8505 171.894 97.2243C171.614 97.9543 171.31 98.6667 170.978 99.3734C170.33 100.778 169.598 102.144 168.788 103.461C168.385 104.121 167.958 104.758 167.526 105.394C167.094 106.031 166.633 106.644 166.148 107.246C165.197 108.462 164.178 109.622 163.094 110.72L162.866 110.954C162.552 111.276 162.179 111.536 161.768 111.719C160.551 112.251 159.229 112.497 157.902 112.437C156.747 112.375 155.612 112.108 154.55 111.649C153.66 111.273 152.818 110.791 152.044 110.212C151.35 109.705 150.692 109.149 150.076 108.548C148.958 107.428 147.948 106.204 147.063 104.892C146.631 104.261 146.234 103.613 145.854 102.959C145.474 102.305 145.147 101.651 144.791 100.898C144.559 100.407 144.505 99.8502 144.638 99.3237C144.772 98.7973 145.085 98.3338 145.523 98.0131C145.961 97.6923 146.497 97.5343 147.04 97.5662C147.582 97.5981 148.096 97.8179 148.494 98.1879L148.645 98.328L150.07 99.6362C150.555 100.08 151.052 100.506 151.548 100.915C152.488 101.713 153.483 102.442 154.526 103.099C155.342 103.643 156.248 104.039 157.201 104.267C157.444 104.336 157.7 104.336 157.943 104.267C158.023 104.232 158.089 104.17 158.13 104.092L156.786 105.108C157.528 104.104 158.246 103.088 158.906 102.036C159.566 100.985 160.197 99.899 160.787 98.8069C161.377 97.7148 161.92 96.5877 162.422 95.4606C162.679 94.8766 162.907 94.3276 163.14 93.767L163.724 92.2369L163.888 91.8164C164.354 90.7393 165.209 89.877 166.281 89.4012C167.354 88.9253 168.567 88.8708 169.678 89.2483C170.79 89.6259 171.718 90.4079 172.279 91.4388C172.84 92.4698 172.993 93.6741 172.706 94.8123L172.695 94.824Z" fill="#263238"/>
<path d="M146.444 100.927L142.496 99.5543L141.667 94.1465C141.667 94.1465 148.283 95.8985 148.254 99.0871L146.444 100.927Z" fill="#CE7A63"/>
<path d="M169.698 72.7548C167.123 71.8496 163.566 68.766 164.962 64.7773C166.025 61.7522 169.961 61.4836 171.509 62.3888C173.056 63.294 173.121 61.4369 175.1 60.7244C177.08 60.0119 178.476 61.8048 179.48 62.745C180.485 63.6853 181.659 62.9728 183.148 63.037C184.637 63.1013 185.7 65.0518 184.871 66.4768C183.411 68.9763 185.823 70.5648 183.995 72.5153C181.302 75.3477 183.411 78.1276 179.615 80.9483C177.308 82.6769 170.755 79.5058 169.698 72.7548Z" fill="#263238"/>
<path d="M169.652 75.3943C169.556 75.4515 169.448 75.4855 169.336 75.4936C169.143 75.5099 168.951 75.449 168.802 75.3243C168.653 75.1996 168.56 75.0212 168.542 74.8279C168.413 73.6689 168.565 72.496 168.984 71.4076C169.402 70.3193 170.076 69.3473 170.948 68.5732C171.024 68.5131 171.11 68.4687 171.203 68.4426C171.296 68.4164 171.393 68.4092 171.489 68.4211C171.585 68.4331 171.677 68.4641 171.761 68.5123C171.844 68.5604 171.918 68.6249 171.976 68.7017C172.036 68.7768 172.081 68.863 172.107 68.9553C172.134 69.0477 172.142 69.1444 172.131 69.2399C172.12 69.3354 172.091 69.4278 172.044 69.5118C171.997 69.5959 171.934 69.6698 171.859 69.7295C171.177 70.3504 170.653 71.1254 170.331 71.9899C170.009 72.8544 169.898 73.7834 170.008 74.6994C170.02 74.837 169.992 74.9751 169.93 75.098C169.867 75.2209 169.77 75.3236 169.652 75.3943Z" fill="#263238"/>
<path d="M165.453 88.9839C165.453 88.9839 160.273 102.241 165.19 126.944H188.673C188.836 123.341 186.57 105.756 190.045 88.7737C187.449 88.2744 184.823 87.9428 182.185 87.7809C178.86 87.588 175.528 87.588 172.204 87.7809C169.926 88.0043 167.668 88.4066 165.453 88.9839Z" fill="white"/>
<path d="M181.197 76.5039C180.567 79.7159 179.942 85.6026 182.184 87.7459C182.184 87.7459 178.423 90.7944 174.47 93.8779C173.596 93.1373 172.928 92.1838 172.532 91.1095C172.135 90.0352 172.022 88.8766 172.204 87.7459C175.784 86.8933 175.708 84.2419 175.071 81.7366L181.197 76.5039Z" fill="#CE7A63"/>
<path opacity="0.2" d="M178.704 78.6592L175.077 81.7544C175.232 82.3281 175.336 82.9144 175.387 83.5064C176.555 84.616 178.634 81.8069 178.78 80.3761C178.857 79.8039 178.831 79.2224 178.704 78.6592Z" fill="black"/>
<path d="M181.157 71.1021C181.32 75.4587 181.636 77.9991 179.673 80.4461C176.712 84.1136 171.176 82.6595 169.716 78.4371C168.402 74.6411 168.355 68.1587 172.426 66.0213C173.319 65.5453 174.319 65.3054 175.33 65.3243C176.342 65.3432 177.332 65.6202 178.207 66.1292C179.081 66.6381 179.812 67.3621 180.328 68.2325C180.844 69.1028 181.129 70.0906 181.157 71.1021Z" fill="#CE7A63"/>
<path d="M181.04 75.1318C179.843 77.4678 178.464 70.0802 178.815 68.8479C174.581 70.0159 168.087 69.6305 168.589 66.6755C169.173 63.3408 173.051 63.2123 177.349 63.6211C184.445 64.3044 182.336 72.5972 181.04 75.1318Z" fill="#263238"/>
<path d="M178.943 75.5465C178.833 75.5528 178.723 75.5328 178.622 75.4881C178.533 75.4494 178.453 75.3936 178.386 75.3239C178.319 75.2543 178.267 75.1721 178.231 75.082C178.196 74.992 178.179 74.8959 178.181 74.7992C178.183 74.7026 178.204 74.6072 178.242 74.5186C178.684 73.4399 179.378 72.4829 180.266 71.7279C181.155 70.9729 182.211 70.4419 183.347 70.1795C183.536 70.1454 183.732 70.1876 183.89 70.297C184.049 70.4064 184.158 70.5741 184.193 70.7635C184.224 70.9528 184.181 71.1467 184.072 71.3046C183.963 71.4625 183.797 71.5721 183.609 71.6103C182.711 71.8325 181.878 72.2666 181.181 72.8761C180.484 73.4857 179.943 74.2531 179.603 75.1143C179.547 75.2429 179.455 75.3523 179.338 75.4291C179.221 75.5059 179.083 75.5467 178.943 75.5465Z" fill="#263238"/>
<path d="M183.329 74.168C183.099 75.2173 182.492 76.1458 181.624 76.7785C180.485 77.5727 179.586 76.5975 179.615 75.2251C179.644 73.9928 180.275 72.1007 181.548 71.8554C182.821 71.6101 183.615 72.8774 183.329 74.168Z" fill="#CE7A63"/>
<path d="M162.807 237.32C162.264 237.454 161.721 237.507 161.487 237.32C161.428 237.265 161.386 237.193 161.37 237.113C161.353 237.034 161.361 236.951 161.394 236.876C161.414 236.809 161.447 236.747 161.493 236.694C161.538 236.64 161.594 236.597 161.657 236.567C162.317 236.199 163.993 236.678 164.069 236.701C164.09 236.706 164.109 236.719 164.123 236.736C164.137 236.754 164.144 236.775 164.144 236.797C164.144 236.82 164.137 236.841 164.123 236.859C164.109 236.876 164.09 236.888 164.069 236.894C163.661 237.072 163.239 237.215 162.807 237.32ZM161.943 236.66C161.878 236.675 161.815 236.699 161.756 236.73C161.717 236.749 161.683 236.775 161.655 236.807C161.627 236.839 161.606 236.877 161.592 236.917C161.546 237.063 161.592 237.116 161.622 237.145C161.884 237.373 162.959 237.116 163.724 236.806C163.145 236.643 162.54 236.594 161.943 236.66Z" fill="#263238"/>
<path d="M164.063 236.882H164.022C163.438 236.783 162.224 236.111 162.188 235.609C162.188 235.492 162.229 235.329 162.498 235.235C162.69 235.17 162.899 235.182 163.082 235.27C163.724 235.58 164.104 236.701 164.122 236.748C164.131 236.764 164.137 236.782 164.137 236.8C164.137 236.819 164.131 236.837 164.122 236.853C164.105 236.868 164.085 236.878 164.063 236.882ZM162.626 235.41H162.568C162.387 235.469 162.393 235.545 162.399 235.568C162.399 235.872 163.275 236.421 163.87 236.608C163.711 236.138 163.409 235.73 163.006 235.44C162.886 235.388 162.753 235.378 162.626 235.41Z" fill="#263238"/>
<path d="M170.446 238.272L166.048 238.92L166.189 228.841L170.586 228.198L170.446 238.272Z" fill="#CE7A63"/>
<path d="M165.389 236.316H171.153C171.238 236.313 171.32 236.342 171.385 236.397C171.45 236.452 171.492 236.529 171.503 236.613L172.087 240.497C172.099 240.594 172.089 240.693 172.06 240.787C172.031 240.88 171.982 240.967 171.917 241.04C171.852 241.113 171.772 241.172 171.682 241.212C171.593 241.253 171.496 241.274 171.398 241.274C169.675 241.245 167.199 241.145 165.032 241.145C162.504 241.145 160.232 241.28 157.265 241.28C155.472 241.28 155.139 239.58 155.881 239.306C159.198 238.062 160.974 237.851 164.332 236.654C164.663 236.484 165.02 236.369 165.389 236.316Z" fill="#263238"/>
<path opacity="0.2" d="M166.189 228.846L166.113 234.038L170.516 233.39L170.592 228.198L166.189 228.846Z" fill="black"/>
<path d="M168.192 236.625C168.163 234.762 168.747 231.766 164.104 233.6C161.336 234.686 165.091 237.881 165.091 237.881L168.192 236.625Z" fill="#263238"/>
<path d="M165.19 126.927C165.19 126.927 162.854 162.3 163.514 174.879C164.156 186.798 164.518 220.612 164.6 229.483C164.604 229.753 164.664 230.019 164.778 230.263C164.892 230.508 165.056 230.725 165.261 230.901C165.465 231.078 165.704 231.208 165.963 231.285C166.222 231.362 166.494 231.382 166.761 231.346L169.868 230.925C170.283 230.869 170.667 230.678 170.963 230.381C171.258 230.085 171.448 229.699 171.503 229.284C173.512 213.627 175.901 189.473 176.42 176.543C177.004 161.786 180.637 126.903 180.637 126.903L165.19 126.927Z" fill="#D56D2E"/>
<path opacity="0.2" d="M165.19 126.927C165.19 126.927 162.854 162.3 163.514 174.879C164.156 186.798 164.518 220.612 164.6 229.483C164.604 229.753 164.664 230.019 164.778 230.263C164.892 230.508 165.056 230.725 165.261 230.901C165.465 231.078 165.704 231.208 165.963 231.285C166.222 231.362 166.494 231.382 166.761 231.346L169.868 230.925C170.283 230.869 170.667 230.678 170.963 230.381C171.258 230.085 171.448 229.699 171.503 229.284C173.512 213.627 175.901 189.473 176.42 176.543C177.004 161.786 180.637 126.903 180.637 126.903L165.19 126.927Z" fill="white"/>
<path d="M194.507 236.742C193.999 236.97 193.473 237.122 193.204 236.964C193.136 236.922 193.083 236.859 193.052 236.784C193.022 236.71 193.016 236.628 193.035 236.549C193.041 236.479 193.063 236.41 193.098 236.349C193.134 236.287 193.182 236.234 193.24 236.193C193.824 235.714 195.575 235.89 195.634 235.895C195.655 235.897 195.676 235.905 195.693 235.919C195.709 235.932 195.721 235.951 195.727 235.971C195.732 235.992 195.73 236.013 195.723 236.033C195.716 236.052 195.703 236.07 195.686 236.082C195.314 236.337 194.919 236.558 194.507 236.742ZM193.537 236.246C193.477 236.275 193.421 236.31 193.368 236.351C193.332 236.375 193.302 236.407 193.28 236.445C193.258 236.482 193.244 236.524 193.24 236.567C193.24 236.713 193.275 236.766 193.31 236.783C193.607 236.964 194.618 236.514 195.319 236.082C194.72 236.022 194.115 236.077 193.537 236.246Z" fill="#263238"/>
<path d="M195.64 236.094C195.056 236.094 193.736 235.656 193.613 235.165C193.584 235.054 193.613 234.885 193.853 234.745C193.94 234.694 194.037 234.661 194.137 234.649C194.238 234.637 194.34 234.646 194.437 234.675C195.126 234.867 195.704 235.895 195.727 235.942C195.736 235.958 195.741 235.976 195.741 235.994C195.741 236.013 195.736 236.031 195.727 236.047C195.717 236.06 195.703 236.071 195.688 236.079C195.673 236.087 195.657 236.092 195.64 236.094ZM193.964 234.926H193.911C193.748 235.019 193.765 235.089 193.771 235.113C193.847 235.405 194.787 235.796 195.406 235.878C195.167 235.441 194.798 235.09 194.349 234.873C194.229 234.841 194.101 234.851 193.987 234.902L193.964 234.926Z" fill="#263238"/>
<path d="M202.449 236.35L198.303 237.758L195.552 228.011L199.693 226.604L202.449 236.35Z" fill="#CE7A63"/>
<path opacity="0.2" d="M176.088 139.576C174.879 144.418 175.2 164.536 176.45 175.878C176.748 169.238 177.589 159 178.441 149.598L176.088 139.576Z" fill="black"/>
<path d="M196.708 235.393L202.385 234.371C202.47 234.354 202.558 234.368 202.634 234.409C202.709 234.451 202.768 234.518 202.799 234.599L204.289 238.278C204.325 238.367 204.341 238.463 204.335 238.56C204.329 238.656 204.301 238.75 204.254 238.834C204.207 238.918 204.142 238.99 204.063 239.046C203.984 239.101 203.893 239.138 203.798 239.154C202.099 239.434 199.634 239.773 197.503 240.158C195.015 240.608 194.997 240.742 192.077 241.28C190.325 241.601 189.572 240.006 190.232 239.603C193.199 237.805 192.714 237.682 195.727 235.918C196.021 235.687 196.353 235.509 196.708 235.393Z" fill="#263238"/>
<path opacity="0.2" d="M195.552 228.017L196.971 233.039L201.118 231.632L199.699 226.609L195.552 228.017Z" fill="black"/>
<path d="M173.524 126.927C173.524 126.927 176.549 162.305 178.879 174.879C181.122 186.979 191.266 221.447 194.256 229.279C194.43 229.736 194.773 230.108 195.215 230.318C195.657 230.528 196.163 230.559 196.627 230.406L199.623 229.43C200.063 229.287 200.436 228.987 200.671 228.588C200.907 228.19 200.989 227.719 200.902 227.264C197.923 211.887 193.181 189.415 192.002 176.543C190.653 161.786 188.673 126.903 188.673 126.903L173.524 126.927Z" fill="#D56D2E"/>
<path opacity="0.2" d="M173.524 126.927C173.524 126.927 176.549 162.305 178.879 174.879C181.122 186.979 191.266 221.447 194.256 229.279C194.43 229.736 194.773 230.108 195.215 230.318C195.657 230.528 196.163 230.559 196.627 230.406L199.623 229.43C200.063 229.287 200.436 228.987 200.671 228.588C200.907 228.19 200.989 227.719 200.902 227.264C197.923 211.887 193.181 189.415 192.002 176.543C190.653 161.786 188.673 126.903 188.673 126.903L173.524 126.927Z" fill="white"/>
<path d="M174.715 72.9591C174.75 73.3153 174.592 73.619 174.359 73.6423C174.125 73.6657 173.915 73.3971 173.88 73.0583C173.845 72.7196 174.003 72.4043 174.236 72.3809C174.47 72.3575 174.68 72.6087 174.715 72.9591Z" fill="#263238"/>
<path d="M170.732 73.3565C170.767 73.7069 170.609 74.0105 170.376 74.0339C170.142 74.0572 169.932 73.7886 169.897 73.4499C169.862 73.1112 170.02 72.79 170.253 72.7666C170.487 72.7433 170.697 73.0002 170.732 73.3565Z" fill="#263238"/>
<path d="M172.017 73.4028C171.702 74.5227 171.235 75.5937 170.627 76.5856C170.885 76.7335 171.173 76.8232 171.469 76.8484C171.766 76.8736 172.064 76.8338 172.344 76.7316L172.017 73.4028Z" fill="#BA4D3C"/>
<path d="M173.448 77.6076C173.421 77.6093 173.394 77.6005 173.373 77.5831C173.353 77.5657 173.34 77.5411 173.337 77.5142C173.335 77.5004 173.336 77.4864 173.34 77.473C173.344 77.4596 173.35 77.4471 173.359 77.4363C173.368 77.4254 173.378 77.4164 173.391 77.4097C173.403 77.403 173.416 77.3989 173.43 77.3974C173.869 77.3648 174.295 77.2288 174.671 77.0004C175.048 76.772 175.365 76.4578 175.597 76.0834C175.609 76.0587 175.631 76.04 175.657 76.0313C175.683 76.0225 175.712 76.0245 175.737 76.0367C175.761 76.0502 175.778 76.072 175.787 76.0979C175.796 76.1237 175.794 76.1518 175.784 76.1768C175.537 76.5849 175.196 76.9278 174.79 77.1767C174.383 77.4257 173.923 77.5735 173.448 77.6076Z" fill="#263238"/>
<path d="M175.784 71.5575C175.751 71.5602 175.719 71.5558 175.689 71.5447C175.659 71.5336 175.631 71.5161 175.608 71.4933C175.439 71.2918 175.224 71.1338 174.981 71.0322C174.739 70.9306 174.475 70.8885 174.213 70.9093C174.159 70.9178 174.103 70.9049 174.059 70.8732C174.014 70.8416 173.983 70.7938 173.973 70.7399C173.968 70.713 173.969 70.6854 173.974 70.6587C173.98 70.632 173.991 70.6067 174.007 70.5844C174.023 70.5621 174.043 70.5431 174.066 70.5287C174.09 70.5143 174.116 70.5047 174.143 70.5005C174.468 70.4663 174.797 70.5105 175.102 70.6294C175.406 70.7482 175.678 70.9383 175.895 71.1838C175.915 71.2029 175.931 71.2259 175.942 71.2516C175.953 71.2772 175.959 71.3048 175.959 71.3327C175.959 71.3606 175.953 71.3882 175.942 71.4138C175.931 71.4394 175.915 71.4625 175.895 71.4816C175.866 71.5172 175.827 71.5436 175.784 71.5575Z" fill="#263238"/>
<path d="M168.805 72.118C168.774 72.1242 168.743 72.1242 168.712 72.118C168.662 72.0951 168.623 72.0535 168.603 72.0022C168.584 71.9509 168.585 71.894 168.607 71.8436C168.733 71.5394 168.931 71.27 169.183 71.0577C169.435 70.8454 169.734 70.6963 170.055 70.623C170.084 70.613 170.114 70.6093 170.145 70.6124C170.175 70.6154 170.205 70.625 170.231 70.6405C170.257 70.656 170.28 70.6771 170.297 70.7022C170.314 70.7273 170.326 70.7559 170.331 70.786C170.336 70.8161 170.335 70.847 170.327 70.8765C170.319 70.9059 170.305 70.9333 170.285 70.9567C170.265 70.9801 170.241 70.9989 170.213 71.0119C170.186 71.0249 170.156 71.0317 170.125 71.0318C169.871 71.0937 169.636 71.2149 169.438 71.3854C169.24 71.556 169.085 71.771 168.986 72.0129C168.968 72.0451 168.942 72.0719 168.91 72.0904C168.878 72.1089 168.842 72.1185 168.805 72.118Z" fill="#263238"/>
<path d="M182.792 87.0161C185.081 87.0161 190.6 87.1388 191.137 89.1828C191.675 91.2268 191.085 94.538 190.355 96.4828C191.429 99.4495 191.085 103.829 190.063 105.196C191.184 108.501 190.454 110.937 189.771 112.105C190.308 113.419 190.793 117.168 189.969 119.013C190.647 121.641 191.423 126.021 190.209 126.903C188.556 128.071 184.159 128.655 181.052 127.919C177.945 127.184 179.165 120.911 179.405 119.451C178.044 117.653 179.504 112.251 179.504 112.251C178.821 110.744 179.843 105.097 179.843 105.097C179.019 103.736 180.088 96.3368 180.088 96.3368C179.2 94.8534 178.815 87.0161 182.792 87.0161Z" fill="#263238"/>
<path d="M165.978 88.3766C167.777 87.5823 173.804 86.1398 172.636 87.7283C170.942 90.0351 171.982 92.4646 170.977 95.3203C171.865 98.0476 171.561 102.504 170.738 104.08C171.469 106.368 171.395 108.837 170.528 111.077C170.966 112.245 171.369 115.906 170.685 117.939C171.269 120.415 171.713 125.408 170.685 126.535C169.945 127.35 168.965 127.908 167.886 128.127C166.808 128.347 165.687 128.217 164.688 127.756C163.257 127.172 162.62 122.395 163.327 120.748C161.937 117.717 163.07 113.226 163.07 113.226C161.727 110.89 162.766 105.99 162.766 105.99C161.435 101.645 163.07 96.8387 163.07 96.8387C162.352 95.5364 163.111 89.6438 165.978 88.3766Z" fill="#263238"/>
<path d="M169.944 88.9141C169.704 88.7367 169.51 88.5061 169.375 88.2406C169.24 87.9751 169.169 87.6818 169.167 87.384C169.162 87.1844 169.197 86.9859 169.27 86.7998C169.342 86.6138 169.451 86.4439 169.589 86.3C169.728 86.1562 169.893 86.0411 170.076 85.9616C170.259 85.882 170.456 85.8395 170.656 85.8364C171.34 85.8932 172.004 86.0921 172.607 86.4204C173.524 86.8701 173.862 87.2847 173.903 87.9622C173.944 88.6396 172.274 91.0223 171.357 90.4559C170.44 89.8894 170.458 89.4981 169.944 88.9141Z" fill="#263238"/>
<path opacity="0.2" d="M187.663 97.2651C188.118 95.297 189.274 95.4722 190.425 96.2782L190.343 96.5059C191.418 99.4726 191.073 103.853 190.051 105.219C190.115 105.406 190.174 105.593 190.226 105.803C188.796 104.402 186.81 100.979 187.663 97.2651Z" fill="black"/>
<path d="M187.861 102.072L183.977 103.847L183.598 116.391L173.045 123.189L184.859 127.429L188.065 139.559L191.955 137.789L194.127 118.003L187.861 102.072Z" fill="#D56D2E"/>
<path opacity="0.3" d="M187.861 102.072L183.977 103.847L183.598 116.391L173.045 123.189L184.859 127.429L188.065 139.559L191.955 137.789L194.127 118.003L187.861 102.072Z" fill="black"/>
<path d="M212.167 128.562L208.278 130.337L195.745 129.636L200.989 126.097L212.167 128.562Z" fill="#D56D2E"/>
<path opacity="0.3" d="M212.167 128.562L208.278 130.337L195.745 129.636L200.989 126.097L212.167 128.562Z" fill="black"/>
<path d="M187.861 102.072L197.59 110.002L209.638 106.487L205.1 118.19L212.167 128.562L199.634 127.861L191.955 137.789L188.743 125.654L176.934 121.414L187.481 114.616L187.861 102.072Z" fill="#D56D2E"/>
<path d="M193.975 127.009L193.888 130.974L198.56 130.711C198.56 130.711 199.19 128.229 196.504 126.5L193.975 127.009Z" fill="#CE7A63"/>
<path d="M195.389 134.945L198.624 133.082L198.566 130.711L193.888 130.974L195.389 134.945Z" fill="#CE7A63"/>
<path d="M191.295 89.066C191.674 89.4164 191.961 89.685 192.276 89.9945C192.591 90.304 192.86 90.5785 193.187 90.9056C193.771 91.5188 194.355 92.1495 194.939 92.786C196.081 94.0926 197.155 95.4571 198.157 96.874C199.215 98.3545 200.155 99.9168 200.966 101.546C201.942 103.432 202.568 105.48 202.811 107.59C202.847 107.903 202.865 108.217 202.864 108.531V109.021V109.36L202.765 110.686C202.66 111.556 202.554 112.438 202.408 113.261C202.138 114.927 201.783 116.578 201.345 118.208C200.505 121.412 199.392 124.538 198.017 127.552C197.792 128.059 197.395 128.47 196.895 128.711C196.395 128.952 195.825 129.007 195.289 128.867C194.752 128.726 194.283 128.399 193.965 127.944C193.647 127.489 193.502 126.936 193.555 126.384V126.29C193.806 123.207 194.139 120.065 194.308 117.016C194.425 115.486 194.472 113.974 194.507 112.496C194.507 111.754 194.507 111.03 194.507 110.306L194.46 109.255V108.998V108.887C194.448 108.804 194.431 108.722 194.408 108.642C194.104 107.614 193.664 106.632 193.099 105.722C192.388 104.557 191.608 103.436 190.763 102.364C189.882 101.242 188.935 100.127 187.954 99.029C187.464 98.48 186.956 97.9428 186.453 97.3996L185.694 96.5996L184.976 95.8579L184.859 95.7352C184.026 94.859 183.566 93.694 183.574 92.4852C183.582 91.2764 184.058 90.1178 184.903 89.2528C185.747 88.3879 186.894 87.8839 188.103 87.8469C189.311 87.8099 190.487 88.2427 191.382 89.0543L191.295 89.066Z" fill="#263238"/>
<path d="M184.544 88.4002C185.128 88.3185 185.28 86.9519 184.813 86.0642C184.433 85.3342 183.061 85.4335 181.834 85.7489C180.847 85.9688 179.902 86.3475 179.037 86.8701C177.799 87.5534 178.248 88.3769 178.535 89.0251C178.821 89.6733 179.364 91.1625 180.532 90.3741C181.7 89.5857 183.726 88.5229 184.544 88.4002Z" fill="#263238"/>
<path d="M199.272 235.136C199.185 233.273 199.675 230.265 195.091 232.216C192.352 233.384 196.2 236.467 196.2 236.467L199.272 235.136Z" fill="#263238"/>
<path d="M141.853 89.9359H148.126C148.3 89.9422 148.468 90.0014 148.608 90.1058C148.748 90.2101 148.852 90.3545 148.908 90.5199L152.19 102.2C152.212 102.268 152.216 102.34 152.204 102.41C152.192 102.481 152.164 102.547 152.121 102.604C152.078 102.661 152.022 102.707 151.958 102.738C151.894 102.77 151.824 102.785 151.752 102.784H145.474C145.301 102.775 145.135 102.714 144.997 102.61C144.858 102.506 144.754 102.363 144.697 102.2L141.415 90.5199C141.393 90.4518 141.387 90.3792 141.398 90.3084C141.41 90.2375 141.438 90.1705 141.481 90.1131C141.524 90.0557 141.581 90.0095 141.646 89.9787C141.71 89.9478 141.782 89.9331 141.853 89.9359Z" fill="#D56D2E"/>
<path d="M145.27 97.8086L143.956 93.2358L141.667 94.1469L142.496 99.5547L145.27 97.8086Z" fill="#CE7A63"/>
<path opacity="0.3" d="M148.628 90.3564C148.689 90.3602 148.748 90.383 148.796 90.4217C148.844 90.4604 148.879 90.5131 148.896 90.5725L152.184 102.2C152.194 102.224 152.198 102.25 152.195 102.276C152.192 102.302 152.183 102.327 152.167 102.348C152.152 102.369 152.132 102.386 152.108 102.397C152.084 102.408 152.058 102.412 152.032 102.41C151.971 102.408 151.912 102.386 151.864 102.348C151.816 102.311 151.781 102.259 151.764 102.2L148.487 90.555C148.481 90.5326 148.48 90.5091 148.484 90.4863C148.488 90.4634 148.497 90.4417 148.511 90.4227C148.524 90.4038 148.542 90.388 148.562 90.3765C148.582 90.3651 148.604 90.3582 148.628 90.3564Z" fill="black"/>
<path d="M71.581 44.5591H67.1602V45.1431H71.581V44.5591Z" fill="#D56D2E"/>
<path d="M50.8081 51.1816H50.2241C50.2256 49.4307 50.9199 47.7516 52.1552 46.5108C53.3905 45.27 55.0666 44.5683 56.8175 44.5591H64.7599V45.1431H56.8175C55.2215 45.1523 53.6939 45.7924 52.5681 46.9237C51.4423 48.055 50.8096 49.5856 50.8081 51.1816Z" fill="#D56D2E"/>
<path d="M125.77 46.603H56.8173C54.2919 46.603 52.2446 48.6503 52.2446 51.1757V62.5287C52.2446 65.0541 54.2919 67.1014 56.8173 67.1014H125.77C128.296 67.1014 130.343 65.0541 130.343 62.5287V51.1757C130.343 48.6503 128.296 46.603 125.77 46.603Z" fill="#D56D2E"/>
<path d="M81.9643 53.7627L82.9688 55.795L85.2172 56.1221L83.5878 57.7047L83.9733 59.9473L81.9643 58.8902L79.9553 59.9473L80.3408 57.7047L78.7114 56.1221L80.9598 55.795L81.9643 53.7627Z" fill="white"/>
<path d="M91.0864 53.7627L92.0909 55.795L94.3393 56.1221L92.7099 57.7047L93.0953 59.9473L91.0864 58.8902L89.0774 59.9473L89.4629 57.7047L87.8335 56.1221L90.0819 55.795L91.0864 53.7627Z" fill="white"/>
<path d="M100.208 53.7627L101.213 55.795L103.461 56.1221L101.838 57.7047L102.217 59.9473L100.208 58.8902L98.1995 59.9473L98.5849 57.7047L96.9556 56.1221L99.204 55.795L100.208 53.7627Z" fill="white"/>
<path d="M109.331 53.7627L110.335 55.795L112.583 56.1221L110.96 57.7047L111.339 59.9473L109.331 58.8902L107.322 59.9473L107.707 57.7047L106.078 56.1221L108.326 55.795L109.331 53.7627Z" fill="white"/>
<path opacity="0.3" d="M118.453 55.0826L118.932 56.0578C118.975 56.1425 119.038 56.2155 119.115 56.2704C119.192 56.3254 119.282 56.3606 119.376 56.3732L120.45 56.5309L119.674 57.2901C119.606 57.3557 119.555 57.4367 119.526 57.5262C119.496 57.6157 119.489 57.711 119.504 57.804L119.685 58.8786L118.728 58.3997C118.642 58.3586 118.548 58.3366 118.453 58.3354C118.36 58.3351 118.268 58.3571 118.184 58.3997L117.221 58.9078L117.384 57.8157C117.4 57.7227 117.392 57.6274 117.363 57.5379C117.333 57.4484 117.283 57.3674 117.215 57.3018L116.438 56.5426L117.513 56.3849C117.609 56.3735 117.702 56.3382 117.781 56.2821C117.861 56.226 117.925 56.1509 117.968 56.0637L118.447 55.0884M118.447 53.7686L117.443 55.8009L115.194 56.1279L116.824 57.7164L116.438 59.9531L118.447 58.8961L120.456 59.9531L120.071 57.7164L121.7 56.1279L119.452 55.8009L118.447 53.7686Z" fill="white"/>
<path opacity="0.2" d="M66.4885 63.8661C70.3621 63.8661 73.5023 60.7259 73.5023 56.8522C73.5023 52.9786 70.3621 49.8384 66.4885 49.8384C62.6148 49.8384 59.4746 52.9786 59.4746 56.8522C59.4746 60.7259 62.6148 63.8661 66.4885 63.8661Z" fill="white"/>
<path d="M72.2819 56.852C72.2834 58.1408 71.8547 59.3931 71.0639 60.4106C70.273 61.4281 69.1651 62.1525 67.9158 62.469C66.6666 62.7855 65.3475 62.676 64.1675 62.1578C62.9876 61.6396 62.0143 60.7425 61.402 59.6085C60.9392 58.7637 60.6981 57.8153 60.7012 56.852C60.749 55.3482 61.38 53.9219 62.4606 52.875C63.5413 51.8281 64.9869 51.2427 66.4916 51.2427C67.9962 51.2427 69.4418 51.8281 70.5225 52.875C71.6032 53.9219 72.2342 55.3482 72.2819 56.852Z" fill="white"/>
<path d="M71.581 59.6087C71.0859 60.5274 70.3513 61.295 69.4553 61.83C68.5592 62.365 67.535 62.6475 66.4914 62.6475C65.4478 62.6475 64.4236 62.365 63.5276 61.83C62.6315 61.295 61.897 60.5274 61.4019 59.6087C62.9087 58.6031 64.6798 58.0664 66.4914 58.0664C68.3031 58.0664 70.0741 58.6031 71.581 59.6087Z" fill="#263238"/>
<path d="M69.0698 54.8957C69.0698 55.4063 68.9184 55.9053 68.6348 56.3298C68.3511 56.7543 67.948 57.0852 67.4763 57.2805C67.0047 57.4759 66.4856 57.527 65.9849 57.4274C65.4842 57.3278 65.0243 57.082 64.6633 56.721C64.3023 56.36 64.0564 55.9 63.9568 55.3993C63.8572 54.8986 63.9083 54.3796 64.1037 53.9079C64.2991 53.4363 64.6299 53.0331 65.0544 52.7495C65.4789 52.4658 65.978 52.3145 66.4885 52.3145C67.1731 52.3145 67.8297 52.5864 68.3137 53.0705C68.7978 53.5546 69.0698 54.2111 69.0698 54.8957Z" fill="#FFC3BD"/>
<path d="M121.016 117.839H109.331V118.423H121.016V117.839Z" fill="#D56D2E"/>
<path d="M125.77 95.8809H56.8173C54.2919 95.8809 52.2446 97.9281 52.2446 100.454V111.807C52.2446 114.332 54.2919 116.379 56.8173 116.379H125.77C128.296 116.379 130.343 114.332 130.343 111.807V100.454C130.343 97.9281 128.296 95.8809 125.77 95.8809Z" fill="#D56D2E"/>
<path d="M81.9643 103.035L82.9688 105.073L85.2172 105.395L83.5878 106.983L83.9733 109.22L81.9643 108.163L79.9553 109.22L80.3408 106.983L78.7114 105.395L80.9598 105.073L81.9643 103.035Z" fill="white"/>
<path d="M91.0864 103.035L92.0909 105.073L94.3393 105.395L92.7099 106.983L93.0953 109.22L91.0864 108.163L89.0774 109.22L89.4629 106.983L87.8335 105.395L90.0819 105.073L91.0864 103.035Z" fill="white"/>
<path d="M100.208 103.035L101.213 105.073L103.461 105.395L101.838 106.983L102.217 109.22L100.208 108.163L98.1995 109.22L98.5849 106.983L96.9556 105.395L99.204 105.073L100.208 103.035Z" fill="white"/>
<path d="M109.331 103.035L110.335 105.073L112.583 105.395L110.96 106.983L111.339 109.22L109.331 108.163L107.322 109.22L107.707 106.983L106.078 105.395L108.326 105.073L109.331 103.035Z" fill="white"/>
<path d="M118.453 103.035L119.458 105.073L121.706 105.395L120.082 106.983L120.462 109.22L118.453 108.163L116.444 109.22L116.83 106.983L115.2 105.395L117.449 105.073L118.453 103.035Z" fill="white"/>
<path opacity="0.2" d="M71.4518 111.089C74.1909 108.35 74.1909 103.909 71.4518 101.17C68.7128 98.4308 64.2719 98.4308 61.5328 101.17C58.7937 103.909 58.7937 108.35 61.5328 111.089C64.2718 113.828 68.7128 113.828 71.4518 111.089Z" fill="white"/>
<path d="M72.2819 106.125C72.2847 107.414 71.857 108.667 71.0666 109.685C70.2761 110.704 69.1683 111.429 67.9187 111.747C66.6691 112.064 65.3494 111.955 64.1688 111.437C62.9883 110.919 62.0145 110.021 61.402 108.887C60.9392 108.04 60.6982 107.09 60.7012 106.125C60.749 104.621 61.38 103.194 62.4606 102.147C63.5413 101.101 64.9869 100.515 66.4916 100.515C67.9962 100.515 69.4418 101.101 70.5225 102.147C71.6032 103.194 72.2342 104.621 72.2819 106.125Z" fill="white"/>
<path opacity="0.5" d="M71.581 108.887C71.0845 109.804 70.3495 110.57 69.4536 111.103C68.5577 111.637 67.5343 111.919 66.4914 111.919C65.4486 111.919 64.4251 111.637 63.5292 111.103C62.6333 110.57 61.8983 109.804 61.4019 108.887C62.9087 107.881 64.6798 107.344 66.4914 107.344C68.3031 107.344 70.0741 107.881 71.581 108.887Z" fill="#D56D2E"/>
<path d="M69.0698 104.145C69.0709 104.656 68.9205 105.155 68.6376 105.58C68.3547 106.006 67.9519 106.337 67.4804 106.534C67.0088 106.73 66.4896 106.782 65.9885 106.683C65.4874 106.584 65.0269 106.339 64.6653 105.978C64.3038 105.617 64.0573 105.157 63.9573 104.656C63.8572 104.155 63.908 103.636 64.1032 103.164C64.2984 102.692 64.6292 102.289 65.0538 102.005C65.4784 101.721 65.9777 101.569 66.4885 101.569C67.1721 101.569 67.8278 101.84 68.3117 102.323C68.7956 102.806 69.0682 103.461 69.0698 104.145Z" fill="#FFB573"/>
<path d="M125.77 71.2422H56.8173C54.2919 71.2422 52.2446 73.2895 52.2446 75.8149V87.1679C52.2446 89.6933 54.2919 91.7406 56.8173 91.7406H125.77C128.296 91.7406 130.343 89.6933 130.343 87.1679V75.8149C130.343 73.2895 128.296 71.2422 125.77 71.2422Z" fill="#D56D2E"/>
<path d="M128.223 83.2432L123.317 91.7404H135.581L128.223 83.2432Z" fill="#D56D2E"/>
<path d="M81.9643 78.396L82.9688 80.4342L85.2172 80.7612L83.5878 82.3438L83.9733 84.5806L81.9643 83.5235L79.9553 84.5806L80.3408 82.3438L78.7114 80.7612L80.9598 80.4342L81.9643 78.396Z" fill="white"/>
<path d="M91.0864 78.396L92.0909 80.4342L94.3393 80.7612L92.7099 82.3438L93.0953 84.5806L91.0864 83.5235L89.0774 84.5806L89.4629 82.3438L87.8335 80.7612L90.0819 80.4342L91.0864 78.396Z" fill="white"/>
<path opacity="0.3" d="M100.209 79.7159L100.688 80.6911C100.73 80.7769 100.792 80.851 100.87 80.907C100.947 80.963 101.037 80.9992 101.132 81.0123L102.2 81.1759L101.424 81.9351C101.356 82.0007 101.305 82.0817 101.276 82.1712C101.246 82.2607 101.239 82.356 101.254 82.449L101.435 83.5235L100.478 83.0155C100.393 82.9699 100.299 82.9459 100.203 82.9454C100.109 82.9451 100.016 82.9692 99.9344 83.0155L98.9708 83.5235L99.1519 82.449C99.1672 82.356 99.1598 82.2607 99.1303 82.1712C99.1008 82.0817 99.0501 82.0007 98.9825 81.9351L98.2058 81.1759L99.2804 81.0182C99.375 81.005 99.4649 80.9689 99.5423 80.9129C99.6197 80.8569 99.6821 80.7827 99.7242 80.697L100.203 79.7217M100.203 78.4019L99.1986 80.44L96.9502 80.7671L98.5796 82.3497L98.1941 84.5864L100.203 83.5294L102.212 84.5864L101.827 82.3497L103.456 80.7671L101.208 80.44L100.203 78.4019Z" fill="white"/>
<path opacity="0.3" d="M109.331 79.7158L109.809 80.6911C109.851 80.7769 109.914 80.851 109.991 80.907C110.069 80.963 110.159 80.9992 110.253 81.0123L111.328 81.17L110.551 81.9292C110.483 81.9948 110.433 82.0759 110.403 82.1654C110.374 82.2548 110.366 82.3501 110.382 82.4431L110.563 83.5177L109.605 83.0096C109.521 82.9641 109.426 82.94 109.331 82.9395C109.236 82.9392 109.144 82.9634 109.062 83.0096L108.098 83.5177L108.279 82.4431C108.295 82.3501 108.287 82.2548 108.258 82.1654C108.228 82.0759 108.178 81.9948 108.11 81.9292L107.333 81.17L108.408 81.0123C108.502 80.9992 108.592 80.963 108.67 80.907C108.747 80.851 108.81 80.7769 108.852 80.6911L109.331 79.7158ZM109.331 78.396L108.326 80.4342L106.078 80.7612L107.707 82.3438L107.322 84.5806L109.331 83.5235L111.339 84.5806L110.96 82.3438L112.589 80.7612L110.341 80.4342L109.336 78.396H109.331Z" fill="white"/>
<path opacity="0.3" d="M118.453 79.7158L118.932 80.6911C118.974 80.7769 119.036 80.851 119.114 80.907C119.191 80.963 119.281 80.9992 119.376 81.0123L120.45 81.17L119.674 81.9292C119.606 81.9948 119.555 82.0759 119.526 82.1654C119.496 82.2548 119.489 82.3501 119.504 82.4431L119.685 83.5177L118.728 83.0096C118.643 82.9641 118.549 82.94 118.453 82.9395C118.359 82.9392 118.266 82.9634 118.184 83.0096L117.221 83.5177L117.402 82.4431C117.417 82.3501 117.41 82.2548 117.38 82.1654C117.351 82.0759 117.3 81.9948 117.233 81.9292L116.456 81.17L117.53 81.0123C117.625 80.9992 117.715 80.963 117.792 80.907C117.87 80.851 117.932 80.7769 117.974 80.6911L118.453 79.7158ZM118.453 78.396L117.449 80.4342L115.2 80.7612L116.83 82.3438L116.444 84.5806L118.453 83.5235L120.462 84.5806L120.077 82.3438L121.706 80.7612L119.458 80.4342L118.453 78.396Z" fill="white"/>
<path opacity="0.2" d="M66.4885 88.5052C70.3621 88.5052 73.5023 85.365 73.5023 81.4914C73.5023 77.6177 70.3621 74.4775 66.4885 74.4775C62.6148 74.4775 59.4746 77.6177 59.4746 81.4914C59.4746 85.365 62.6148 88.5052 66.4885 88.5052Z" fill="white"/>
<path d="M72.2819 81.4913C72.2834 82.7801 71.8547 84.0324 71.0638 85.0499C70.2729 86.0674 69.1651 86.7918 67.9158 87.1083C66.6666 87.4248 65.3474 87.3153 64.1675 86.7971C62.9875 86.279 62.0143 85.3818 61.402 84.2478C60.9392 83.403 60.6981 82.4546 60.7012 81.4913C60.6765 80.7155 60.8081 79.9426 61.088 79.2185C61.3679 78.4945 61.7904 77.8341 62.3305 77.2765C62.8707 76.719 63.5173 76.2757 64.2321 75.9729C64.9469 75.6702 65.7153 75.5142 66.4915 75.5142C67.2678 75.5142 68.0361 75.6702 68.7509 75.9729C69.4657 76.2757 70.1124 76.719 70.6525 77.2765C71.1926 77.8341 71.6152 78.4945 71.8951 79.2185C72.175 79.9426 72.3065 80.7155 72.2819 81.4913Z" fill="white"/>
<path d="M71.581 84.2479C71.0845 85.165 70.3495 85.9309 69.4536 86.4646C68.5577 86.9984 67.5343 87.2802 66.4914 87.2802C65.4486 87.2802 64.4251 86.9984 63.5292 86.4646C62.6333 85.9309 61.8983 85.165 61.4019 84.2479C62.9087 83.2422 64.6798 82.7056 66.4914 82.7056C68.3031 82.7056 70.0741 83.2422 71.581 84.2479Z" fill="#D56D2E"/>
<path d="M69.0698 79.5115C69.0698 80.022 68.9184 80.5211 68.6348 80.9455C68.3511 81.37 67.948 81.7009 67.4763 81.8963C67.0047 82.0916 66.4856 82.1427 65.9849 82.0431C65.4842 81.9436 65.0243 81.6977 64.6633 81.3367C64.3023 80.9757 64.0564 80.5158 63.9568 80.015C63.8572 79.5143 63.9083 78.9953 64.1037 78.5237C64.2991 78.052 64.6299 77.6488 65.0544 77.3652C65.4789 77.0816 65.978 76.9302 66.4885 76.9302C66.8277 76.9294 67.1637 76.9957 67.4772 77.1251C67.7908 77.2546 68.0756 77.4447 68.3155 77.6845C68.5553 77.9244 68.7454 78.2092 68.8749 78.5227C69.0043 78.8363 69.0706 79.1723 69.0698 79.5115Z" fill="#B55B52"/>
</svg>
