<svg width="12" height="15" viewBox="0 0 12 15" fill="none" xmlns="http://www.w3.org/2000/svg">
<path d="M9.5999 5.2335V3.50016C9.5999 2.02736 8.40604 0.833496 6.93324 0.833496H5.06657C3.59377 0.833496 2.3999 2.02736 2.3999 3.50016V5.2335C3.1999 5.2335 3.73324 5.67723 3.73324 6.4335V9.50016H8.26657V6.4335C8.26657 5.67723 8.7999 5.2335 9.5999 5.2335Z" fill="#585858"/>
<path d="M10.6665 5.7666C10.8433 5.7666 11.0129 5.83684 11.1379 5.96186C11.2629 6.08689 11.3332 6.25646 11.3332 6.43327V9.49994H8.79984V6.43327C8.79984 6.25646 8.87008 6.08689 8.9951 5.96186C9.12012 5.83684 9.28969 5.7666 9.4665 5.7666H10.6665ZM11.3332 10.0333H0.666504V10.2999C0.666504 11.0363 1.26344 11.6333 1.99984 11.6333H9.99984C10.7362 11.6333 11.3332 11.0363 11.3332 10.2999V10.0333ZM3.19984 6.43327C3.19984 6.25646 3.1296 6.08689 3.00458 5.96186C2.87955 5.83684 2.70998 5.7666 2.53317 5.7666H1.33317C1.15636 5.7666 0.98679 5.83684 0.861766 5.96186C0.736742 6.08689 0.666504 6.25646 0.666504 6.43327V9.49994H3.19984V6.43327ZM1.59984 13.4999V12.1237C1.72877 12.1517 1.8625 12.1666 1.99984 12.1666H3.4665V13.4999C3.4665 13.5875 3.44926 13.6742 3.41576 13.7551C3.38225 13.8359 3.33315 13.9094 3.27124 13.9713C3.20934 14.0332 3.13584 14.0824 3.05496 14.1159C2.97408 14.1494 2.88739 14.1666 2.79984 14.1666H2.2665C2.08969 14.1666 1.92012 14.0964 1.7951 13.9713C1.67008 13.8463 1.59984 13.6767 1.59984 13.4999ZM8.39984 13.4999V12.1666H9.99984C10.0904 12.1666 10.1794 12.1602 10.2665 12.1477V13.4999C10.2665 13.6767 10.1963 13.8463 10.0712 13.9713C9.94622 14.0964 9.77665 14.1666 9.59984 14.1666H9.0665C8.88969 14.1666 8.72012 14.0964 8.5951 13.9713C8.47008 13.8463 8.39984 13.6767 8.39984 13.4999Z" fill="#585858"/>
</svg>
