<svg width="16" height="16" viewBox="0 0 16 16" fill="none" xmlns="http://www.w3.org/2000/svg">
<g clip-path="url(#clip0_194_4882)">
<path d="M10.8724 2.92279C10.4784 2.92279 10.2813 2.92279 10.1018 2.8562C10.0769 2.84694 10.0524 2.83677 10.0282 2.82568C9.85416 2.74586 9.7149 2.60656 9.43623 2.32794C8.79496 1.68668 8.47436 1.36604 8.07983 1.33648C8.02683 1.3325 7.9735 1.3325 7.9205 1.33648C7.52596 1.36604 7.2053 1.68668 6.56406 2.32794C6.28545 2.60656 6.14614 2.74586 5.97214 2.82568C5.94798 2.83677 5.9234 2.84694 5.89848 2.8562C5.719 2.92279 5.52198 2.92279 5.12797 2.92279H5.05529C4.05002 2.92279 3.54738 2.92279 3.23509 3.23509C2.92279 3.54738 2.92279 4.05002 2.92279 5.05529V5.12797C2.92279 5.52198 2.92279 5.719 2.8562 5.89848C2.84694 5.9234 2.83677 5.94798 2.82568 5.97214C2.74586 6.14614 2.60656 6.28545 2.32794 6.56406C1.68668 7.2053 1.36604 7.52596 1.33648 7.9205C1.3325 7.9735 1.3325 8.02683 1.33648 8.07983C1.36604 8.47436 1.68668 8.79496 2.32794 9.43623C2.60656 9.7149 2.74586 9.85416 2.82568 10.0282C2.83677 10.0524 2.84694 10.0769 2.8562 10.1018C2.92279 10.2813 2.92279 10.4784 2.92279 10.8724V10.945C2.92279 11.9503 2.92279 12.453 3.23509 12.7652C3.54738 13.0776 4.05002 13.0776 5.05529 13.0776H5.12797C5.52198 13.0776 5.719 13.0776 5.89848 13.1442C5.9234 13.1534 5.94798 13.1636 5.97214 13.1746C6.14614 13.2545 6.28545 13.3938 6.56406 13.6724C7.2053 14.3136 7.52596 14.6343 7.9205 14.6638C7.9735 14.6678 8.02676 14.6678 8.07983 14.6638C8.47436 14.6343 8.79496 14.3136 9.43623 13.6724C9.7149 13.3938 9.85416 13.2545 10.0282 13.1746C10.0524 13.1636 10.0769 13.1534 10.1018 13.1442C10.2813 13.0776 10.4784 13.0776 10.8724 13.0776H10.945C11.9503 13.0776 12.453 13.0776 12.7652 12.7652C13.0776 12.453 13.0776 11.9503 13.0776 10.945V10.8724C13.0776 10.4784 13.0776 10.2813 13.1442 10.1018C13.1534 10.0769 13.1636 10.0524 13.1746 10.0282C13.2545 9.85416 13.3938 9.7149 13.6724 9.43623C14.3136 8.79496 14.6343 8.47436 14.6638 8.07983C14.6678 8.02676 14.6678 7.9735 14.6638 7.9205C14.6343 7.52596 14.3136 7.2053 13.6724 6.56406C13.3938 6.28545 13.2545 6.14614 13.1746 5.97214C13.1636 5.94798 13.1534 5.9234 13.1442 5.89848C13.0776 5.719 13.0776 5.52198 13.0776 5.12797V5.05529C13.0776 4.05002 13.0776 3.54738 12.7652 3.23509C12.453 2.92279 11.9503 2.92279 10.945 2.92279H10.8724Z" stroke="#585858" stroke-width="1.5"/>
<path d="M10.3332 7.99984C10.3332 9.2885 9.2885 10.3332 7.99984 10.3332C6.71117 10.3332 5.6665 9.2885 5.6665 7.99984C5.6665 6.71117 6.71117 5.6665 7.99984 5.6665C9.2885 5.6665 10.3332 6.71117 10.3332 7.99984Z" stroke="#585858" stroke-width="1.5"/>
</g>
<defs>
<clipPath id="clip0_194_4882">
<rect width="16" height="16" fill="white"/>
</clipPath>
</defs>
</svg>
