<svg width="15" height="15" viewBox="0 0 15 15" fill="none" xmlns="http://www.w3.org/2000/svg">
<g clip-path="url(#clip0_6_6029)">
<path d="M6.34766 6.25H3.34766C2.81722 6.25 2.30852 6.46071 1.93344 6.83579C1.55837 7.21086 1.34766 7.71957 1.34766 8.25V12.25H2.84766" stroke="#000001" stroke-linecap="round" stroke-linejoin="round"/>
<path d="M13.3477 12.25H14.3477V5.25C14.3477 4.98478 14.2423 4.73043 14.0548 4.54289C13.8672 4.35536 13.6129 4.25 13.3477 4.25H7.34766C7.08244 4.25 6.82809 4.35536 6.64055 4.54289C6.45301 4.73043 6.34766 4.98478 6.34766 5.25V10.93" stroke="#000001" stroke-linecap="round" stroke-linejoin="round"/>
<path d="M6.84766 12.25H9.34766" stroke="#000001" stroke-linecap="round" stroke-linejoin="round"/>
<path d="M4.84766 14.25C5.95223 14.25 6.84766 13.3546 6.84766 12.25C6.84766 11.1454 5.95223 10.25 4.84766 10.25C3.74309 10.25 2.84766 11.1454 2.84766 12.25C2.84766 13.3546 3.74309 14.25 4.84766 14.25Z" stroke="#000001" stroke-linecap="round" stroke-linejoin="round"/>
<path d="M11.3477 14.25C12.4522 14.25 13.3477 13.3546 13.3477 12.25C13.3477 11.1454 12.4522 10.25 11.3477 10.25C10.2431 10.25 9.34766 11.1454 9.34766 12.25C9.34766 13.3546 10.2431 14.25 11.3477 14.25Z" stroke="#000001" stroke-linecap="round" stroke-linejoin="round"/>
</g>
<defs>
<clipPath id="clip0_6_6029">
<rect width="14" height="14" fill="white" transform="translate(0.847656 0.75)"/>
</clipPath>
</defs>
</svg>
