<svg width="15" height="15" viewBox="0 0 15 15" fill="none" xmlns="http://www.w3.org/2000/svg">
<g clip-path="url(#clip0_6_6036)">
<path d="M6.84766 14.2397C7.39994 14.2397 7.84766 13.792 7.84766 13.2397C7.84766 12.6875 7.39994 12.2397 6.84766 12.2397C6.29537 12.2397 5.84766 12.6875 5.84766 13.2397C5.84766 13.792 6.29537 14.2397 6.84766 14.2397Z" stroke="#000001" stroke-linecap="round" stroke-linejoin="round"/>
<path d="M11.3477 14.2397C11.8999 14.2397 12.3477 13.792 12.3477 13.2397C12.3477 12.6875 11.8999 12.2397 11.3477 12.2397C10.7954 12.2397 10.3477 12.6875 10.3477 13.2397C10.3477 13.792 10.7954 14.2397 11.3477 14.2397Z" stroke="#000001" stroke-linecap="round" stroke-linejoin="round"/>
<path d="M9.22724 4.27982C9.07378 3.66336 8.77569 3.09232 8.35766 2.61397C7.93963 2.13561 7.41368 1.7637 6.82334 1.52903C6.233 1.29435 5.59526 1.20366 4.9629 1.26445C4.33054 1.32525 3.72176 1.53579 3.18694 1.87864C2.65213 2.22149 2.20667 2.68679 1.88743 3.23603C1.5682 3.78527 1.38437 4.40264 1.35117 5.03705C1.31797 5.67145 1.43635 6.30464 1.69651 6.8842C1.95667 7.46376 2.35113 7.97302 2.84724 8.36982" stroke="#000001" stroke-linecap="round" stroke-linejoin="round"/>
<path d="M5.34766 5.25977L6.84766 3.75977" stroke="#000001" stroke-linecap="round" stroke-linejoin="round"/>
<path d="M7.34766 10.25V9.25H5.84766C5.31722 9.25 4.80852 9.46071 4.43344 9.83579C4.05837 10.2109 3.84766 10.7196 3.84766 11.25V13.25" stroke="#000001" stroke-linecap="round" stroke-linejoin="round"/>
<path d="M14.3477 13.2397V8.23975C14.3477 7.97453 14.2423 7.72018 14.0548 7.53264C13.8672 7.3451 13.6129 7.23975 13.3477 7.23975H8.34766C8.08244 7.23975 7.82809 7.3451 7.64055 7.53264C7.45301 7.72018 7.34766 7.97453 7.34766 8.23975V10.2397" stroke="#000001" stroke-linecap="round" stroke-linejoin="round"/>
</g>
<defs>
<clipPath id="clip0_6_6036">
<rect width="14" height="14" fill="white" transform="translate(0.847656 0.75)"/>
</clipPath>
</defs>
</svg>
