<svg width="15" height="15" viewBox="0 0 15 15" fill="none" xmlns="http://www.w3.org/2000/svg">
<g clip-path="url(#clip0_6_6005)">
<path d="M13.3477 1.25H2.34766C1.79537 1.25 1.34766 1.69772 1.34766 2.25V13.25C1.34766 13.8023 1.79537 14.25 2.34766 14.25H13.3477C13.8999 14.25 14.3477 13.8023 14.3477 13.25V2.25C14.3477 1.69772 13.8999 1.25 13.3477 1.25Z" stroke="#000001" stroke-linecap="round" stroke-linejoin="round"/>
<path d="M9.84766 1.25V6.25C9.84766 6.38261 9.79498 6.50979 9.70121 6.60355C9.60744 6.69732 9.48026 6.75 9.34766 6.75H6.34766C6.21505 6.75 6.08787 6.69732 5.9941 6.60355C5.90033 6.50979 5.84766 6.38261 5.84766 6.25V1.25" stroke="#000001" stroke-linecap="round" stroke-linejoin="round"/>
<path d="M9.34766 11.75H11.8477" stroke="#000001" stroke-linecap="round" stroke-linejoin="round"/>
</g>
<defs>
<clipPath id="clip0_6_6005">
<rect width="14" height="14" fill="white" transform="translate(0.847656 0.75)"/>
</clipPath>
</defs>
</svg>
