<svg width="15" height="14" viewBox="0 0 15 14" fill="none" xmlns="http://www.w3.org/2000/svg">
<g clip-path="url(#clip0_6_4486)">
<path d="M13 3.5H2C1.44772 3.5 1 3.94772 1 4.5V12.5C1 13.0523 1.44772 13.5 2 13.5H13C13.5523 13.5 14 13.0523 14 12.5V4.5C14 3.94772 13.5523 3.5 13 3.5Z" stroke="#000001" stroke-linecap="round" stroke-linejoin="round"/>
<path d="M5.5 0.5H9.5C9.76522 0.5 10.0196 0.605357 10.2071 0.792893C10.3946 0.98043 10.5 1.23478 10.5 1.5V3.5H4.5V1.5C4.5 1.23478 4.60536 0.98043 4.79289 0.792893C4.98043 0.605357 5.23478 0.5 5.5 0.5Z" stroke="#000001" stroke-linecap="round" stroke-linejoin="round"/>
<path d="M4 7H11" stroke="#000001" stroke-linecap="round" stroke-linejoin="round"/>
<path d="M4 10H11" stroke="#000001" stroke-linecap="round" stroke-linejoin="round"/>
</g>
<defs>
<clipPath id="clip0_6_4486">
<rect width="14" height="14" fill="white" transform="translate(0.5)"/>
</clipPath>
</defs>
</svg>
