<svg width="15" height="14" viewBox="0 0 15 14" fill="none" xmlns="http://www.w3.org/2000/svg">
<g clip-path="url(#clip0_6_4555)">
<path d="M2 8.5V13C2 13.1326 2.05268 13.2598 2.14645 13.3536C2.24021 13.4473 2.36739 13.5 2.5 13.5H12.5C12.6326 13.5 12.7598 13.4473 12.8536 13.3536C12.9473 13.2598 13 13.1326 13 13V8.5" stroke="#000001" stroke-linecap="round" stroke-linejoin="round"/>
<path d="M8.5 8.5V13.5" stroke="#000001" stroke-linecap="round" stroke-linejoin="round"/>
<path d="M2 10H8.5" stroke="#000001" stroke-linecap="round" stroke-linejoin="round"/>
<path d="M1 4L2.5 0.5H12.5L14 4H1Z" stroke="#000001" stroke-linecap="round" stroke-linejoin="round"/>
<path d="M5.2507 4V5C5.2507 5.53043 5.03999 6.03914 4.66492 6.41421C4.28984 6.78929 3.78114 7 3.2507 7H2.9707C2.44027 7 1.93156 6.78929 1.55649 6.41421C1.18142 6.03914 0.970703 5.53043 0.970703 5V4" stroke="#000001" stroke-linecap="round" stroke-linejoin="round"/>
<path d="M9.75 4V5C9.75 5.53043 9.53929 6.03914 9.16421 6.41421C8.78914 6.78929 8.28043 7 7.75 7H7.25C6.71957 7 6.21086 6.78929 5.83579 6.41421C5.46071 6.03914 5.25 5.53043 5.25 5V4" stroke="#000001" stroke-linecap="round" stroke-linejoin="round"/>
<path d="M14 4V5C14 5.53043 13.7893 6.03914 13.4142 6.41421C13.0391 6.78929 12.5304 7 12 7H11.75C11.2196 7 10.7109 6.78929 10.3358 6.41421C9.96071 6.03914 9.75 5.53043 9.75 5V4" stroke="#000001" stroke-linecap="round" stroke-linejoin="round"/>
</g>
<defs>
<clipPath id="clip0_6_4555">
<rect width="14" height="14" fill="white" transform="translate(0.5)"/>
</clipPath>
</defs>
</svg>
