<svg width="15" height="14" viewBox="0 0 15 14" fill="none" xmlns="http://www.w3.org/2000/svg">
<g clip-path="url(#clip0_6_4673)">
<path d="M7.5 13.5C11.0899 13.5 14 10.5899 14 7C14 3.41015 11.0899 0.5 7.5 0.5C3.91015 0.5 1 3.41015 1 7C1 10.5899 3.91015 13.5 7.5 13.5Z" stroke="#000001" stroke-linecap="round" stroke-linejoin="round"/>
<path d="M7.5 0.5V13.5" stroke="#000001" stroke-linecap="round" stroke-linejoin="round"/>
<path d="M2.59961 11.27C3.33235 10.8239 3.93799 10.1968 4.3583 9.449C4.77862 8.70119 4.99947 7.85782 4.99961 6.99998C4.99947 6.14214 4.77862 5.29877 4.3583 4.55096C3.93799 3.80315 3.33235 3.17606 2.59961 2.72998" stroke="#000001" stroke-linecap="round" stroke-linejoin="round"/>
<path d="M12.4006 2.72998C11.6681 3.17622 11.0627 3.80339 10.6427 4.55119C10.2226 5.29899 10.002 6.14227 10.002 6.99998C10.002 7.85769 10.2226 8.70097 10.6427 9.44877C11.0627 10.1966 11.6681 10.8237 12.4006 11.27" stroke="#000001" stroke-linecap="round" stroke-linejoin="round"/>
</g>
<defs>
<clipPath id="clip0_6_4673">
<rect width="14" height="14" fill="white" transform="translate(0.5)"/>
</clipPath>
</defs>
</svg>
