<svg width="15" height="14" viewBox="0 0 15 14" fill="none" xmlns="http://www.w3.org/2000/svg">
<g clip-path="url(#clip0_6_4619)">
<path d="M13.8602 6.62C13.8773 6.48042 13.8648 6.33881 13.8234 6.2044C13.7821 6.07 13.7128 5.94583 13.6202 5.84C13.5265 5.73333 13.4112 5.64784 13.2818 5.58922C13.1525 5.53059 13.0122 5.50018 12.8702 5.5H2.13022C1.98824 5.50018 1.84792 5.53059 1.7186 5.58922C1.58928 5.64784 1.47393 5.73333 1.38022 5.84C1.28762 5.94583 1.21839 6.07 1.17703 6.2044C1.13568 6.33881 1.12314 6.48042 1.14022 6.62L1.89022 12.62C1.9197 12.8639 2.03793 13.0884 2.22237 13.2507C2.40681 13.413 2.64454 13.5018 2.89022 13.5H12.1302C12.3759 13.5018 12.6136 13.413 12.7981 13.2507C12.9825 13.0884 13.1007 12.8639 13.1302 12.62L13.8602 6.62Z" stroke="#000001" stroke-linecap="round" stroke-linejoin="round"/>
<path d="M3 5.5V5C3 3.80653 3.47411 2.66193 4.31802 1.81802C5.16193 0.974106 6.30653 0.5 7.5 0.5C8.69347 0.5 9.83807 0.974106 10.682 1.81802C11.5259 2.66193 12 3.80653 12 5V5.5" stroke="#000001" stroke-linecap="round" stroke-linejoin="round"/>
<path d="M5.5 8.5V10.5" stroke="#000001" stroke-linecap="round" stroke-linejoin="round"/>
<path d="M9.5 8.5V10.5" stroke="#000001" stroke-linecap="round" stroke-linejoin="round"/>
</g>
<defs>
<clipPath id="clip0_6_4619">
<rect width="14" height="14" fill="white" transform="translate(0.5)"/>
</clipPath>
</defs>
</svg>
