<svg width="15" height="14" viewBox="0 0 15 14" fill="none" xmlns="http://www.w3.org/2000/svg">
<g clip-path="url(#clip0_6_4584)">
<path d="M13.9995 0.5H11.4995L10.6295 9.15C10.5934 9.38845 10.4722 9.6058 10.2885 9.762C10.1047 9.9182 9.87068 10.0027 9.62952 10H3.32952C3.11145 10.0114 2.89565 9.95107 2.71508 9.82829C2.53451 9.7055 2.3991 9.52698 2.32952 9.32L0.999518 5.32C0.949929 5.16962 0.936763 5.0096 0.961102 4.85314C0.985442 4.69667 1.04659 4.54822 1.13952 4.42C1.23633 4.28368 1.36577 4.17381 1.51601 4.10043C1.66625 4.02706 1.83249 3.99253 1.99952 4H11.1495" stroke="#000001" stroke-linecap="round" stroke-linejoin="round"/>
<path d="M3.5 13.5C3.77614 13.5 4 13.2761 4 13C4 12.7239 3.77614 12.5 3.5 12.5C3.22386 12.5 3 12.7239 3 13C3 13.2761 3.22386 13.5 3.5 13.5Z" stroke="#000001" stroke-linecap="round" stroke-linejoin="round"/>
<path d="M10 13.5C10.2761 13.5 10.5 13.2761 10.5 13C10.5 12.7239 10.2761 12.5 10 12.5C9.72386 12.5 9.5 12.7239 9.5 13C9.5 13.2761 9.72386 13.5 10 13.5Z" stroke="#000001" stroke-linecap="round" stroke-linejoin="round"/>
</g>
<defs>
<clipPath id="clip0_6_4584">
<rect width="14" height="14" fill="white" transform="translate(0.5)"/>
</clipPath>
</defs>
</svg>
