<svg width="15" height="14" viewBox="0 0 15 14" fill="none" xmlns="http://www.w3.org/2000/svg">
<path d="M13.3795 12.39C13.3953 12.5303 13.3811 12.6723 13.338 12.8068C13.295 12.9412 13.2239 13.065 13.1295 13.17C13.0349 13.2748 12.9191 13.3585 12.7899 13.4153C12.6606 13.4722 12.5208 13.5011 12.3795 13.5H2.61952C2.4783 13.5011 2.33844 13.4722 2.20917 13.4153C2.0799 13.3585 1.96414 13.2748 1.86952 13.17C1.77515 13.065 1.70409 12.9412 1.661 12.8068C1.61791 12.6723 1.60377 12.5303 1.61952 12.39L2.49952 4.5H12.4995L13.3795 12.39Z" stroke="#000001" stroke-linecap="round" stroke-linejoin="round"/>
<path d="M5 4.5V3C5 2.33696 5.26339 1.70107 5.73223 1.23223C6.20107 0.763392 6.83696 0.5 7.5 0.5C8.16304 0.5 8.79893 0.763392 9.26777 1.23223C9.73661 1.70107 10 2.33696 10 3V4.5" stroke="#000001" stroke-linecap="round" stroke-linejoin="round"/>
</svg>
