<svg width="15" height="14" viewBox="0 0 15 14" fill="none" xmlns="http://www.w3.org/2000/svg">
<g clip-path="url(#clip0_6_4596)">
<path d="M4.25 4.5L4.5 5.5" stroke="#000001" stroke-linecap="round" stroke-linejoin="round"/>
<path d="M7.75 4.5L7.5 5.5" stroke="#000001" stroke-linecap="round" stroke-linejoin="round"/>
<path d="M2.32012 7.5H10.5001L11.5001 2.5H1.50012C1.42699 2.50027 1.35481 2.51657 1.28867 2.54777C1.22253 2.57896 1.16403 2.62429 1.11731 2.68055C1.07059 2.7368 1.03677 2.80263 1.01825 2.87337C0.999733 2.94412 0.996957 3.01806 1.01012 3.09L1.83012 7.09C1.84925 7.20565 1.90921 7.31062 1.99911 7.38584C2.08901 7.46107 2.20291 7.50157 2.32012 7.5V7.5Z" stroke="#000001" stroke-linecap="round" stroke-linejoin="round"/>
<path d="M11.5 2.5L11.92 0.9C11.9431 0.787064 12.0044 0.68556 12.0937 0.612669C12.183 0.539778 12.2947 0.499976 12.41 0.5H14" stroke="#000001" stroke-linecap="round" stroke-linejoin="round"/>
<path d="M10.5 7.5L10.08 9.6C10.0569 9.71294 9.99558 9.81444 9.90629 9.88733C9.817 9.96022 9.70527 10 9.59 10H3.5" stroke="#000001" stroke-linecap="round" stroke-linejoin="round"/>
<path d="M4 13.5C4.27614 13.5 4.5 13.2761 4.5 13C4.5 12.7239 4.27614 12.5 4 12.5C3.72386 12.5 3.5 12.7239 3.5 13C3.5 13.2761 3.72386 13.5 4 13.5Z" stroke="#000001" stroke-linecap="round" stroke-linejoin="round"/>
<path d="M9 13.5C9.27614 13.5 9.5 13.2761 9.5 13C9.5 12.7239 9.27614 12.5 9 12.5C8.72386 12.5 8.5 12.7239 8.5 13C8.5 13.2761 8.72386 13.5 9 13.5Z" stroke="#000001" stroke-linecap="round" stroke-linejoin="round"/>
</g>
<defs>
<clipPath id="clip0_6_4596">
<rect width="14" height="14" fill="white" transform="translate(0.5)"/>
</clipPath>
</defs>
</svg>
