<svg width="15" height="14" viewBox="0 0 15 14" fill="none" xmlns="http://www.w3.org/2000/svg">
<g clip-path="url(#clip0_6_4614)">
<path d="M12.7795 6.0002H2.21946C2.06948 5.99717 1.92074 6.02791 1.78425 6.09016C1.64777 6.15241 1.52703 6.24457 1.431 6.35982C1.33496 6.47506 1.26608 6.61043 1.22947 6.75591C1.19285 6.90138 1.18943 7.05323 1.21946 7.2002L2.31946 12.7002C2.36622 12.9295 2.49189 13.1351 2.67461 13.2813C2.85733 13.4275 3.08552 13.5049 3.31946 13.5002H11.6795C11.9134 13.5049 12.1416 13.4275 12.3243 13.2813C12.507 13.1351 12.6327 12.9295 12.6795 12.7002L13.7795 7.2002C13.8095 7.05323 13.8061 6.90138 13.7695 6.75591C13.7328 6.61043 13.664 6.47506 13.5679 6.35982C13.4719 6.24457 13.3512 6.15241 13.2147 6.09016C13.0782 6.02791 12.9294 5.99717 12.7795 6.0002Z" stroke="#000001" stroke-linecap="round" stroke-linejoin="round"/>
<path d="M9.5 2.5L11.5 6" stroke="#000001" stroke-linecap="round" stroke-linejoin="round"/>
<path d="M3.5 6L5.5 2.5" stroke="#000001" stroke-linecap="round" stroke-linejoin="round"/>
</g>
<defs>
<clipPath id="clip0_6_4614">
<rect width="14" height="14" fill="white" transform="translate(0.5)"/>
</clipPath>
</defs>
</svg>
