<svg width="15" height="14" viewBox="0 0 15 14" fill="none" xmlns="http://www.w3.org/2000/svg">
<g clip-path="url(#clip0_6_4700)">
<path d="M10.5 1.5H4.5C3.94772 1.5 3.5 1.94772 3.5 2.5V7.5C3.5 8.05228 3.94772 8.5 4.5 8.5H10.5C11.0523 8.5 11.5 8.05228 11.5 7.5V2.5C11.5 1.94772 11.0523 1.5 10.5 1.5Z" stroke="#000001" stroke-linecap="round" stroke-linejoin="round"/>
<path d="M3.5 4.5H2C1.73478 4.5 1.48043 4.60536 1.29289 4.79289C1.10536 4.98043 1 5.23478 1 5.5V10C1 10.2652 1.10536 10.5196 1.29289 10.7071C1.48043 10.8946 1.73478 11 2 11H13C13.2652 11 13.5196 10.8946 13.7071 10.7071C13.8946 10.5196 14 10.2652 14 10V5.5C14 5.23478 13.8946 4.98043 13.7071 4.79289C13.5196 4.60536 13.2652 4.5 13 4.5H11.5" stroke="#000001" stroke-linecap="round" stroke-linejoin="round"/>
<path d="M4.5 11L4 13.5" stroke="#000001" stroke-linecap="round" stroke-linejoin="round"/>
<path d="M10.5 11L11 13.5" stroke="#000001" stroke-linecap="round" stroke-linejoin="round"/>
</g>
<defs>
<clipPath id="clip0_6_4700">
<rect width="14" height="14" fill="white" transform="translate(0.5)"/>
</clipPath>
</defs>
</svg>
