<svg width="15" height="14" viewBox="0 0 15 14" fill="none" xmlns="http://www.w3.org/2000/svg">
<g clip-path="url(#clip0_6_4477)">
<path d="M11.7709 13.5H3.23089C2.94866 13.5017 2.66927 13.4437 2.41108 13.3297C2.15288 13.2157 1.92173 13.0484 1.73283 12.8387C1.54392 12.629 1.40153 12.3817 1.31502 12.1131C1.22851 11.8445 1.19984 11.5605 1.23089 11.28L1.90089 5.39002C1.92808 5.1443 2.04533 4.91736 2.23 4.753C2.41467 4.58864 2.65368 4.49852 2.90089 4.50002H12.1009C12.3481 4.49852 12.5871 4.58864 12.7718 4.753C12.9565 4.91736 13.0737 5.1443 13.1009 5.39002L13.7509 11.28C13.7818 11.5589 13.7536 11.8411 13.6683 12.1083C13.583 12.3756 13.4424 12.6219 13.2556 12.8313C13.0689 13.0406 12.8402 13.2084 12.5844 13.3236C12.3286 13.4388 12.0514 13.4989 11.7709 13.5Z" stroke="#000001" stroke-linecap="round" stroke-linejoin="round"/>
<path d="M3.5 4.5C3.5 3.43913 3.92143 2.42172 4.67157 1.67157C5.42172 0.921427 6.43913 0.5 7.5 0.5C8.56087 0.5 9.57828 0.921427 10.3284 1.67157C11.0786 2.42172 11.5 3.43913 11.5 4.5" stroke="#000001" stroke-linecap="round" stroke-linejoin="round"/>
<path d="M5 7.5H10" stroke="#000001" stroke-linecap="round" stroke-linejoin="round"/>
</g>
<defs>
<clipPath id="clip0_6_4477">
<rect width="14" height="14" fill="white" transform="translate(0.5)"/>
</clipPath>
</defs>
</svg>
