<svg width="15" height="14" viewBox="0 0 15 14" fill="none" xmlns="http://www.w3.org/2000/svg">
<path d="M11.5 0.5H3.5C2.94772 0.5 2.5 0.947715 2.5 1.5V12.5C2.5 13.0523 2.94772 13.5 3.5 13.5H11.5C12.0523 13.5 12.5 13.0523 12.5 12.5V1.5C12.5 0.947715 12.0523 0.5 11.5 0.5Z" stroke="#000001" stroke-linecap="round" stroke-linejoin="round"/>
<path d="M10 3H5V8H10V3Z" stroke="#000001" stroke-linecap="round" stroke-linejoin="round"/>
<path d="M7.5 11.25C7.77614 11.25 8 11.0261 8 10.75C8 10.4739 7.77614 10.25 7.5 10.25C7.22386 10.25 7 10.4739 7 10.75C7 11.0261 7.22386 11.25 7.5 11.25Z" stroke="#000001" stroke-linecap="round" stroke-linejoin="round"/>
</svg>
