<svg width="15" height="14" viewBox="0 0 15 14" fill="none" xmlns="http://www.w3.org/2000/svg">
<path d="M10 3.5L11.5 5L13.5 3L11 0.5H4L1.5 3L3.5 5L5 3.5V7C5 8.35 3.38 9.3 3.06 12.4C3.04569 12.5387 3.06054 12.6788 3.1036 12.8114C3.14665 12.944 3.21695 13.0662 3.31 13.17C3.40349 13.2736 3.51763 13.3565 3.64508 13.4133C3.77253 13.4701 3.91046 13.4997 4.05 13.5H10.95C11.0895 13.4997 11.2275 13.4701 11.3549 13.4133C11.4824 13.3565 11.5965 13.2736 11.69 13.17C11.783 13.0662 11.8534 12.944 11.8964 12.8114C11.9395 12.6788 11.9543 12.5387 11.94 12.4C11.62 9.3 10 8.35 10 7V3.5Z" stroke="#000001" stroke-linecap="round" stroke-linejoin="round"/>
<path d="M5 6.25C5.79175 6.58169 6.64158 6.75251 7.5 6.75251C8.35842 6.75251 9.20825 6.58169 10 6.25" stroke="#000001" stroke-linecap="round" stroke-linejoin="round"/>
</svg>
