<svg width="15" height="14" viewBox="0 0 15 14" fill="none" xmlns="http://www.w3.org/2000/svg">
<g clip-path="url(#clip0_6_4605)">
<path d="M12.8594 6.00004H2.13935C1.99634 5.99882 1.85473 6.0283 1.72407 6.08648C1.59342 6.14465 1.47677 6.23018 1.38199 6.33728C1.28721 6.44439 1.2165 6.57057 1.17465 6.70733C1.13279 6.84409 1.12075 6.98823 1.13935 7.13004L1.86935 12.63C1.90108 12.8721 2.02029 13.0943 2.2045 13.2545C2.38871 13.4148 2.62519 13.5021 2.86935 13.5H12.1094C12.3535 13.5021 12.59 13.4148 12.7742 13.2545C12.9584 13.0943 13.0776 12.8721 13.1094 12.63L13.8394 7.13004C13.8577 6.9899 13.8462 6.84746 13.8055 6.71211C13.7648 6.57675 13.6959 6.45156 13.6033 6.34479C13.5107 6.23801 13.3965 6.15208 13.2683 6.09265C13.1401 6.03323 13.0007 6.00166 12.8594 6.00004Z" stroke="#000001" stroke-linecap="round" stroke-linejoin="round"/>
<path d="M5 8.5V11" stroke="#000001" stroke-linecap="round" stroke-linejoin="round"/>
<path d="M7.5 8.5V11" stroke="#000001" stroke-linecap="round" stroke-linejoin="round"/>
<path d="M10 8.5V11" stroke="#000001" stroke-linecap="round" stroke-linejoin="round"/>
<path d="M9.97852 1.54004C10.5775 1.64353 11.1264 1.93983 11.5415 2.38388C11.9567 2.82792 12.2155 3.39542 12.2785 4.00004L12.4985 6.00004" stroke="#000001" stroke-linecap="round" stroke-linejoin="round"/>
<path d="M2.5 6.00006L2.72 4.00006C2.78712 3.39902 3.04772 2.83607 3.46255 2.39599C3.87738 1.95591 4.42397 1.66254 5.02 1.56006" stroke="#000001" stroke-linecap="round" stroke-linejoin="round"/>
<path d="M10 1.75C10 1.91415 9.96767 2.0767 9.90485 2.22835C9.84203 2.38001 9.74996 2.51781 9.63388 2.63388C9.51781 2.74996 9.38001 2.84203 9.22835 2.90485C9.0767 2.96767 8.91415 3 8.75 3H6.25C5.91848 3 5.60054 2.8683 5.36612 2.63388C5.1317 2.39946 5 2.08152 5 1.75C5 1.41848 5.1317 1.10054 5.36612 0.866117C5.60054 0.631696 5.91848 0.5 6.25 0.5H8.75C9.08152 0.5 9.39946 0.631696 9.63388 0.866117C9.8683 1.10054 10 1.41848 10 1.75V1.75Z" stroke="#000001" stroke-linecap="round" stroke-linejoin="round"/>
</g>
<defs>
<clipPath id="clip0_6_4605">
<rect width="14" height="14" fill="white" transform="translate(0.5)"/>
</clipPath>
</defs>
</svg>
