<svg width="15" height="14" viewBox="0 0 15 14" fill="none" xmlns="http://www.w3.org/2000/svg">
<g clip-path="url(#clip0_6_4679)">
<path d="M2 7.5H3C3.26522 7.5 3.51957 7.60536 3.70711 7.79289C3.89464 7.98043 4 8.23478 4 8.5V13.5H1V8.5C1 8.23478 1.10536 7.98043 1.29289 7.79289C1.48043 7.60536 1.73478 7.5 2 7.5V7.5Z" stroke="#000001" stroke-linecap="round" stroke-linejoin="round"/>
<path d="M12 7.5H13C13.2652 7.5 13.5196 7.60536 13.7071 7.79289C13.8946 7.98043 14 8.23478 14 8.5V13.5H11V8.5C11 8.23478 11.1054 7.98043 11.2929 7.79289C11.4804 7.60536 11.7348 7.5 12 7.5V7.5Z" stroke="#000001" stroke-linecap="round" stroke-linejoin="round"/>
<path d="M4 13.5H11" stroke="#000001" stroke-linecap="round" stroke-linejoin="round"/>
<path d="M3 7.5V5.5C3 4.70435 3.31607 3.94129 3.87868 3.37868C4.44129 2.81607 5.20435 2.5 6 2.5H9C9.79565 2.5 10.5587 2.81607 11.1213 3.37868C11.6839 3.94129 12 4.70435 12 5.5V7.5" stroke="#000001" stroke-linecap="round" stroke-linejoin="round"/>
<path d="M4 9.5H11" stroke="#000001" stroke-linecap="round" stroke-linejoin="round"/>
</g>
<defs>
<clipPath id="clip0_6_4679">
<rect width="14" height="14" fill="white" transform="translate(0.5)"/>
</clipPath>
</defs>
</svg>
