<svg width="15" height="14" viewBox="0 0 15 14" fill="none" xmlns="http://www.w3.org/2000/svg">
<g clip-path="url(#clip0_6_4631)">
<path d="M11.1409 1.53955H3.86095C3.69311 1.54416 3.52871 1.5882 3.38105 1.66811C3.23339 1.74802 3.1066 1.86156 3.01095 1.99955L1.19095 4.51955C1.0558 4.71052 0.988311 4.94116 0.999181 5.17487C1.01005 5.40857 1.09866 5.63195 1.25095 5.80955L6.71095 12.0996C6.80442 12.22 6.9242 12.3175 7.06112 12.3845C7.19804 12.4516 7.34849 12.4864 7.50095 12.4864C7.65341 12.4864 7.80385 12.4516 7.94077 12.3845C8.0777 12.3175 8.19747 12.22 8.29095 12.0996L13.7509 5.80955C13.9032 5.63195 13.9918 5.40857 14.0027 5.17487C14.0136 4.94116 13.9461 4.71052 13.8109 4.51955L11.9909 1.99955C11.8953 1.86156 11.7685 1.74802 11.6208 1.66811C11.4732 1.5882 11.3088 1.54416 11.1409 1.53955V1.53955Z" stroke="#000001" stroke-linecap="round" stroke-linejoin="round"/>
<path d="M6.98102 1.52979L4.54102 5.30979L7.50102 12.4598" stroke="#000001" stroke-linecap="round" stroke-linejoin="round"/>
<path d="M8.05 1.52979L10.48 5.30979L7.5 12.4598" stroke="#000001" stroke-linecap="round" stroke-linejoin="round"/>
<path d="M1.02148 5.30957H13.9815" stroke="#000001" stroke-linecap="round" stroke-linejoin="round"/>
</g>
<defs>
<clipPath id="clip0_6_4631">
<rect width="14" height="14" fill="white" transform="translate(0.5)"/>
</clipPath>
</defs>
</svg>
