<svg width="15" height="14" viewBox="0 0 15 14" fill="none" xmlns="http://www.w3.org/2000/svg">
<path d="M4 6.5V12.5C4 12.7652 4.10536 13.0196 4.29289 13.2071C4.48043 13.3946 4.73478 13.5 5 13.5H10C10.2652 13.5 10.5196 13.3946 10.7071 13.2071C10.8946 13.0196 11 12.7652 11 12.5V6.5" stroke="#000001" stroke-linecap="round" stroke-linejoin="round"/>
<path d="M11 6.5V4.5C11 4.23478 10.8946 3.98043 10.7071 3.79289C10.5196 3.60536 10.2652 3.5 10 3.5C9.73478 3.5 9.48043 3.39464 9.29289 3.20711C9.10536 3.01957 9 2.76522 9 2.5V2C9 1.60218 8.84196 1.22064 8.56066 0.93934C8.27936 0.658035 7.89782 0.5 7.5 0.5C7.10218 0.5 6.72064 0.658035 6.43934 0.93934C6.15804 1.22064 6 1.60218 6 2V2.5C6 2.76522 5.89464 3.01957 5.70711 3.20711C5.51957 3.39464 5.26522 3.5 5 3.5C4.73478 3.5 4.48043 3.60536 4.29289 3.79289C4.10536 3.98043 4 4.23478 4 4.5V6.5" stroke="#000001" stroke-linecap="round" stroke-linejoin="round"/>
<path d="M3 6.5H12" stroke="#000001" stroke-linecap="round" stroke-linejoin="round"/>
<path d="M8 9.5H11" stroke="#000001" stroke-linecap="round" stroke-linejoin="round"/>
</svg>
