<?xml version='1.0' encoding='utf-8'?>
<svg xmlns="http://www.w3.org/2000/svg" width="12" height="12" viewBox="0 0 12 12" fill="none">
<g clip-path="url(#clip0_472_667)">
<path d="M6.8638 1.72209L7.7437 3.49644C7.8637 3.74343 8.18365 3.98035 8.45365 4.02571L10.0485 4.29287C11.0684 4.46426 11.3083 5.2103 10.5734 5.94625L9.33355 7.19635C9.12355 7.40805 9.0086 7.81635 9.07355 8.10875L9.42855 9.65625C9.7085 10.8811 9.06355 11.355 7.9887 10.7148L6.49385 9.8226C6.2239 9.6613 5.77895 9.6613 5.50395 9.8226L4.00913 10.7148C2.93925 11.355 2.28932 10.8761 2.56929 9.65625L2.92425 8.10875C2.98924 7.81635 2.87426 7.40805 2.66428 7.19635L1.42442 5.94625C0.6945 5.2103 0.929475 4.46426 1.94936 4.29287L3.54418 4.02571C3.80915 3.98035 4.12912 3.74343 4.2491 3.49644L5.129 1.72209C5.60895 0.759304 6.38885 0.759304 6.8638 1.72209Z" stroke="#FBBC05" stroke-linecap="round" stroke-linejoin="round" fill="#FBBC05" />
</g>
<defs>
<clipPath id="clip0_472_667">
<rect width="12" height="12" fill="white" />
</clipPath>
</defs>
</svg>