<svg width="16" height="17" viewBox="0 0 16 17" fill="none" xmlns="http://www.w3.org/2000/svg">
<path d="M11.3672 9.12305H9.19313C8.59812 9.12305 8.11426 9.6069 8.11426 10.2019V11.8693C8.11426 12.4643 8.59812 12.9481 9.19313 12.9481H11.3672C11.9622 12.9481 12.4461 12.4643 12.4461 11.8693V10.2019C12.4461 9.6069 11.9622 9.12305 11.3672 9.12305ZM11.6615 11.8693C11.6615 12.0327 11.5274 12.1635 11.3672 12.1635H9.19313C9.02966 12.1635 8.89889 12.0295 8.89889 11.8693V10.2019C8.89889 10.0385 9.03293 9.90768 9.19313 9.90768H11.3672C11.5307 9.90768 11.6615 10.0417 11.6615 10.2019V11.8693Z" fill="#F6F6F6"/>
<path d="M16 6.09217C16 6.02351 15.9837 5.95813 15.9477 5.89928L13.5676 1.71456C13.499 1.5936 13.3682 1.51514 13.2276 1.51514H2.7691C2.62852 1.51514 2.49775 1.59033 2.4291 1.71456L0.0523089 5.89928C0.0196159 5.95813 0 6.02351 0 6.09217C0 7.03046 0.56559 7.83471 1.37311 8.19107V15.0926C1.37311 15.3084 1.54965 15.4849 1.76543 15.4849H14.2313C14.4471 15.4849 14.6236 15.3084 14.6236 15.0926V8.24011C14.6236 8.22376 14.6236 8.21068 14.6204 8.19761C15.4311 7.84125 16 7.03373 16 6.09217ZM2.99796 2.30304H12.9988L14.859 5.57562H1.14099L2.99796 2.30304ZM11.387 6.35698C11.2628 7.06315 10.6449 7.59932 9.90274 7.59932C9.1606 7.59932 8.5427 7.06315 8.41847 6.35698H11.387ZM7.5848 6.35698C7.46056 7.06315 6.84266 7.59932 6.10053 7.59932C5.3584 7.59932 4.7405 7.06315 4.613 6.35698H7.5848ZM0.810789 6.35698H3.78259C3.65836 7.06315 3.03719 7.59932 2.29505 7.59932C1.55292 7.60259 0.935022 7.06315 0.810789 6.35698ZM6.59093 14.7003H4.3351V10.4665C4.3351 10.1592 4.58357 9.90745 4.89416 9.90745H6.03514C6.34246 9.90745 6.5942 10.1559 6.5942 10.4665V14.7003H6.59093ZM13.839 14.7003H7.37556V10.4665C7.37556 9.72764 6.77401 9.12282 6.03188 9.12282H4.89089C4.15202 9.12282 3.5472 9.72437 3.5472 10.4665V14.7035H2.15774V8.38396C2.20351 8.38723 2.24928 8.38723 2.29505 8.38723C3.08623 8.38723 3.78586 7.9851 4.19779 7.37374C4.60973 7.9851 5.30936 8.38723 6.10053 8.38723C6.8917 8.38723 7.58807 7.9851 8.00327 7.37374C8.4152 7.9851 9.11483 8.38723 9.90274 8.38723C10.6939 8.38723 11.3903 7.9851 11.8022 7.37374C12.2141 7.9851 12.9138 8.38723 13.7049 8.38723C13.7507 8.38723 13.7932 8.38396 13.839 8.38396V14.7003ZM13.7049 7.60259C12.9628 7.60259 12.3449 7.06642 12.2207 6.36025H15.1925C15.065 7.06315 14.4471 7.60259 13.7049 7.60259Z" fill="#F6F6F6"/>
</svg>
