<svg width="24" height="24" viewBox="0 0 24 24" fill="none" xmlns="http://www.w3.org/2000/svg">
<g clip-path="url(#clip0_77_957)">
<path d="M12 24C18.6274 24 24 18.6274 24 12C24 5.37258 18.6274 0 12 0C5.37258 0 0 5.37258 0 12C0 18.6274 5.37258 24 12 24Z" fill="#635BFF"/>
<path d="M18.3204 12.0879C18.3204 11.1891 17.8849 10.4796 17.0529 10.4796C16.2208 10.4796 15.7115 11.1889 15.7115 12.0809C15.7115 13.1377 16.3085 13.6716 17.1647 13.6716C17.5826 13.6716 17.8985 13.5779 18.1373 13.4433V12.7402C17.8985 12.8595 17.6248 12.9333 17.2772 12.9333C16.9366 12.9333 16.6345 12.814 16.5961 12.3996H18.3131C18.3133 12.3546 18.3204 12.1721 18.3204 12.0879ZM16.586 11.7544C16.586 11.3576 16.8283 11.1919 17.0496 11.1919C17.2638 11.1919 17.4921 11.356 17.4921 11.7544H16.586ZM14.3562 10.4796C14.1 10.4787 13.8534 10.5769 13.668 10.7536L13.6223 10.5359H12.8489V14.63L13.7266 14.4439L13.7301 13.4501C13.8565 13.5415 14.0426 13.6714 14.3517 13.6714C14.9803 13.6714 15.5526 13.1658 15.5526 12.0528C15.5498 11.0344 14.9705 10.4796 14.3562 10.4796ZM14.1452 12.8989C13.938 12.8989 13.8152 12.825 13.7308 12.7348L13.7273 11.4321C13.8187 11.3304 13.9451 11.2601 14.1452 11.2601C14.4647 11.2601 14.6859 11.6182 14.6859 12.0783C14.6862 12.5478 14.4684 12.8989 14.1455 12.8989H14.1452ZM11.6419 10.2725L12.5231 10.0829V9.37012L11.6419 9.55621V10.2725ZM11.6419 10.5394H12.5231V13.6118H11.6419V10.5394ZM10.6973 10.7991L10.6406 10.5394H9.88264V13.6116H10.7604V11.5294C10.9676 11.2589 11.3187 11.3082 11.4274 11.3468V10.5394C11.3154 10.4972 10.9045 10.4199 10.6973 10.7991ZM8.94163 9.77746L8.08592 9.96098L8.08241 12.7735C8.08241 13.2931 8.47217 13.6758 8.99178 13.6758C9.27959 13.6758 9.4903 13.6231 9.60631 13.56V12.8464C9.49405 12.8921 8.93928 13.0536 8.93928 12.5339V11.2873H9.60631V10.5394H8.93811L8.94163 9.77746ZM6.56811 11.4312C6.56811 11.2943 6.68038 11.2416 6.86647 11.2416C7.17021 11.248 7.4683 11.3249 7.73717 11.4664V10.6407C7.46022 10.5316 7.16483 10.4769 6.86717 10.4796C6.15444 10.4796 5.6803 10.8518 5.6803 11.4734C5.6803 12.4425 7.01459 12.2881 7.01459 12.7057C7.01459 12.8672 6.87397 12.92 6.67756 12.92C6.38624 12.92 6.01381 12.8007 5.71897 12.6387V13.4745C6.02164 13.6055 6.34777 13.6736 6.67756 13.6746C7.40788 13.6746 7.90991 13.313 7.90991 12.6844C7.90592 11.6384 6.56811 11.8245 6.56811 11.4312Z" fill="white"/>
</g>
<defs>
<clipPath id="clip0_77_957">
<rect width="24" height="24" fill="white"/>
</clipPath>
</defs>
</svg>
