<svg width="155" height="102" viewBox="0 0 155 102" fill="none" xmlns="http://www.w3.org/2000/svg">
<path d="M72.1298 4.71055C74.8454 2.08398 79.1546 2.08398 81.8702 4.71055C83.7981 6.57534 86.6217 7.1755 89.1414 6.25611C92.6906 4.96114 96.6272 6.71385 98.0397 10.2179C99.0425 12.7056 101.378 14.4023 104.054 14.5873C107.823 14.8478 110.706 18.0502 110.571 21.8258C110.476 24.5063 111.919 27.0062 114.288 28.2636C117.625 30.0346 118.957 34.1329 117.298 37.5272C116.12 39.937 116.422 42.8078 118.075 44.9202C120.403 47.8954 119.953 52.181 117.057 54.6071C115.001 56.3296 114.109 59.075 114.76 61.677C115.677 65.3421 113.522 69.0739 109.89 70.1124C107.311 70.8497 105.379 72.9949 104.915 75.6367C104.262 79.3579 100.776 81.8907 97.0354 81.362C94.3795 80.9866 91.7425 82.1607 90.2443 84.3855C88.1342 87.5193 83.9192 88.4152 80.7169 86.4107C78.4433 84.9875 75.5567 84.9875 73.2831 86.4107C70.0808 88.4152 65.8658 87.5193 63.7557 84.3855C62.2575 82.1607 59.6205 80.9866 56.9646 81.362C53.2238 81.8907 49.7376 79.3579 49.0845 75.6367C48.6208 72.9949 46.6893 70.8497 44.1104 70.1124C40.4779 69.0739 38.3233 65.3421 39.2402 61.677C39.8912 59.075 38.9992 56.3296 36.9431 54.6071C34.047 52.181 33.5966 47.8954 35.9249 44.9202C37.578 42.8078 37.8797 39.937 36.702 37.5272C35.0431 34.1329 36.3747 30.0346 39.7119 28.2636C42.0812 27.0062 43.5245 24.5063 43.4288 21.8258C43.2939 18.0502 46.1773 14.8478 49.9463 14.5873C52.6222 14.4023 54.9575 12.7056 55.9603 10.2179C57.3728 6.71385 61.3094 4.96114 64.8586 6.25611C67.3783 7.1755 70.2019 6.57534 72.1298 4.71055Z" fill="#D56D2F"/>
<path d="M56.5 46L69.2929 58.7929C69.6834 59.1834 70.3166 59.1834 70.7071 58.7929L97.5 32" stroke="white" stroke-width="4"/>
<path opacity="0.4" d="M146.751 49.2753C147.169 49.6794 147.831 49.6794 148.249 49.2753C148.546 48.9884 148.98 48.8961 149.368 49.0375C149.914 49.2367 150.52 48.9671 150.737 48.428C150.891 48.0453 151.25 47.7843 151.662 47.7558C152.242 47.7157 152.686 47.223 152.665 46.6422C152.65 46.2298 152.872 45.8452 153.237 45.6518C153.75 45.3793 153.955 44.7488 153.7 44.2266C153.519 43.8558 153.565 43.4142 153.819 43.0892C154.177 42.6315 154.108 41.9722 153.663 41.5989C153.346 41.3339 153.209 40.9115 153.309 40.5112C153.45 39.9474 153.119 39.3732 152.56 39.2135C152.163 39.1 151.866 38.77 151.795 38.3636C151.694 37.7911 151.158 37.4014 150.582 37.4828C150.174 37.5405 149.768 37.3599 149.538 37.0176C149.213 36.5355 148.564 36.3977 148.072 36.7061C147.722 36.925 147.278 36.925 146.928 36.7061C146.436 36.3977 145.787 36.5355 145.462 37.0176C145.232 37.3599 144.826 37.5405 144.418 37.4828C143.842 37.4014 143.306 37.7911 143.205 38.3636C143.134 38.77 142.837 39.1 142.44 39.2135C141.881 39.3732 141.55 39.9474 141.691 40.5112C141.791 40.9115 141.654 41.3339 141.337 41.5989C140.892 41.9722 140.823 42.6315 141.181 43.0892C141.435 43.4142 141.481 43.8558 141.3 44.2266C141.045 44.7488 141.25 45.3793 141.763 45.6518C142.128 45.8452 142.35 46.2298 142.335 46.6422C142.314 47.223 142.758 47.7157 143.338 47.7558C143.75 47.7843 144.109 48.0453 144.263 48.428C144.48 48.9671 145.086 49.2367 145.632 49.0375C146.02 48.8961 146.454 48.9884 146.751 49.2753Z" fill="#D56D2F"/>
<path opacity="0.4" d="M6.75074 24.2753C7.16852 24.6794 7.83148 24.6794 8.24926 24.2753C8.54587 23.9884 8.98026 23.8961 9.36791 24.0375C9.91393 24.2367 10.5196 23.9671 10.7369 23.428C10.8912 23.0453 11.2504 22.7843 11.6621 22.7558C12.242 22.7157 12.6856 22.223 12.6648 21.6422C12.6501 21.2298 12.8721 20.8452 13.2366 20.6518C13.75 20.3793 13.9549 19.7488 13.6997 19.2266C13.5185 18.8558 13.5649 18.4142 13.8192 18.0892C14.1774 17.6315 14.1081 16.9722 13.6626 16.5989C13.3463 16.3339 13.209 15.9115 13.3092 15.5112C13.4503 14.9474 13.1188 14.3732 12.5599 14.2135C12.1632 14.1 11.866 13.77 11.7947 13.3636C11.6942 12.7911 11.1579 12.4014 10.5824 12.4828C10.1738 12.5405 9.76807 12.3599 9.53759 12.0176C9.21296 11.5355 8.56449 11.3977 8.07183 11.7061C7.72205 11.925 7.27795 11.925 6.92817 11.7061C6.43551 11.3977 5.78704 11.5355 5.46241 12.0176C5.23193 12.3599 4.82623 12.5405 4.41763 12.4828C3.84212 12.4014 3.30578 12.7911 3.20531 13.3636C3.13398 13.77 2.83682 14.1 2.44006 14.2135C1.88122 14.3732 1.54974 14.9474 1.6908 15.5112C1.79095 15.9115 1.65372 16.3339 1.3374 16.5989C0.891852 16.9722 0.822554 17.6315 1.18076 18.0892C1.43507 18.4142 1.48149 18.8558 1.3003 19.2266C1.04509 19.7488 1.24996 20.3793 1.76337 20.6518C2.12788 20.8452 2.34992 21.2298 2.33519 21.6422C2.31445 22.223 2.75805 22.7157 3.33789 22.7558C3.74957 22.7843 4.10885 23.0453 4.26313 23.428C4.48043 23.9671 5.08607 24.2367 5.63208 24.0375C6.01974 23.8961 6.45413 23.9884 6.75074 24.2753Z" fill="#D56D2F"/>
<path opacity="0.4" d="M93.6254 6.63765C93.8343 6.83969 94.1657 6.83969 94.3746 6.63765C94.5229 6.4942 94.7401 6.44804 94.934 6.51876C95.207 6.61837 95.5098 6.48355 95.6184 6.21401C95.6956 6.02265 95.8752 5.89213 96.0811 5.8779C96.371 5.85786 96.5928 5.61152 96.5824 5.32109C96.575 5.1149 96.6861 4.9226 96.8683 4.82588C97.125 4.68965 97.2275 4.3744 97.0998 4.11329C97.0093 3.92792 97.0325 3.70709 97.1596 3.5446C97.3387 3.31574 97.3041 2.98608 97.0813 2.79945C96.9231 2.66695 96.8545 2.45577 96.9046 2.25561C96.9751 1.97369 96.8094 1.68662 96.53 1.60674C96.3316 1.55002 96.183 1.38501 96.1473 1.18179C96.0971 0.89555 95.8289 0.700713 95.5412 0.741387C95.3369 0.770265 95.134 0.67995 95.0188 0.508805C94.8565 0.267746 94.5322 0.198828 94.2859 0.353026C94.111 0.462502 93.889 0.462502 93.7141 0.353026C93.4678 0.198828 93.1435 0.267746 92.9812 0.508805C92.866 0.67995 92.6631 0.770265 92.4588 0.741387C92.1711 0.700713 91.9029 0.89555 91.8527 1.18179C91.817 1.38501 91.6684 1.55002 91.47 1.60674C91.1906 1.68662 91.0249 1.97369 91.0954 2.25561C91.1455 2.45577 91.0769 2.66695 90.9187 2.79945C90.6959 2.98608 90.6613 3.31574 90.8404 3.5446C90.9675 3.70709 90.9907 3.92792 90.9002 4.11329C90.7725 4.3744 90.875 4.68965 91.1317 4.82588C91.3139 4.9226 91.425 5.1149 91.4176 5.32109C91.4072 5.61152 91.629 5.85786 91.9189 5.8779C92.1248 5.89213 92.3044 6.02265 92.3816 6.21401C92.4902 6.48355 92.793 6.61837 93.066 6.51876C93.2599 6.44804 93.4771 6.4942 93.6254 6.63765Z" fill="#D56D2F"/>
<path opacity="0.4" d="M22.4113 101.431C22.7396 101.748 23.2604 101.748 23.5887 101.431C23.8218 101.205 24.1631 101.133 24.4676 101.244C24.8967 101.4 25.3725 101.188 25.5433 100.765C25.6645 100.464 25.9468 100.259 26.2702 100.237C26.7258 100.205 27.0744 99.8181 27.0581 99.3617C27.0465 99.0377 27.221 98.7355 27.5074 98.5835C27.9107 98.3694 28.0717 97.8741 27.8712 97.4637C27.7288 97.1724 27.7653 96.8254 27.9651 96.5701C28.2466 96.2104 28.1921 95.6924 27.842 95.3991C27.5935 95.1909 27.4857 94.8591 27.5644 94.5445C27.6752 94.1015 27.4148 93.6504 26.9757 93.5249C26.6639 93.4358 26.4304 93.1764 26.3744 92.8571C26.2955 92.4073 25.874 92.1011 25.4219 92.165C25.1008 92.2104 24.7821 92.0685 24.601 91.7996C24.3459 91.4207 23.8364 91.3124 23.4493 91.5548C23.1745 91.7268 22.8255 91.7268 22.5507 91.5548C22.1636 91.3124 21.6541 91.4207 21.399 91.7996C21.2179 92.0685 20.8992 92.2104 20.5781 92.165C20.126 92.1011 19.7045 92.4073 19.6256 92.8571C19.5696 93.1764 19.3361 93.4358 19.0243 93.5249C18.5852 93.6504 18.3248 94.1015 18.4356 94.5445C18.5143 94.8591 18.4065 95.1909 18.158 95.3991C17.8079 95.6924 17.7534 96.2104 18.0349 96.5701C18.2347 96.8254 18.2712 97.1724 18.1288 97.4637C17.9283 97.8741 18.0893 98.3694 18.4926 98.5835C18.779 98.7355 18.9535 99.0377 18.9419 99.3617C18.9256 99.8181 19.2742 100.205 19.7298 100.237C20.0532 100.259 20.3355 100.464 20.4567 100.765C20.6275 101.188 21.1033 101.4 21.5324 101.244C21.8369 101.133 22.1782 101.205 22.4113 101.431Z" fill="#D56D2F"/>
<path opacity="0.4" d="M17.6254 56.6376C17.8343 56.8397 18.1657 56.8397 18.3746 56.6376C18.5229 56.4942 18.7401 56.448 18.934 56.5188C19.207 56.6184 19.5098 56.4836 19.6184 56.214C19.6956 56.0226 19.8752 55.8921 20.0811 55.8779C20.371 55.8579 20.5928 55.6115 20.5824 55.3211C20.575 55.1149 20.6861 54.9226 20.8683 54.8259C21.125 54.6896 21.2275 54.3744 21.0998 54.1133C21.0093 53.9279 21.0325 53.7071 21.1596 53.5446C21.3387 53.3157 21.3041 52.9861 21.0813 52.7995C20.9231 52.667 20.8545 52.4558 20.9046 52.2556C20.9751 51.9737 20.8094 51.6866 20.53 51.6067C20.3316 51.55 20.183 51.385 20.1473 51.1818C20.0971 50.8955 19.8289 50.7007 19.5412 50.7414C19.3369 50.7703 19.134 50.6799 19.0188 50.5088C18.8565 50.2677 18.5322 50.1988 18.2859 50.353C18.111 50.4625 17.889 50.4625 17.7141 50.353C17.4678 50.1988 17.1435 50.2677 16.9812 50.5088C16.866 50.68 16.6631 50.7703 16.4588 50.7414C16.1711 50.7007 15.9029 50.8955 15.8527 51.1818C15.817 51.385 15.6684 51.55 15.47 51.6067C15.1906 51.6866 15.0249 51.9737 15.0954 52.2556C15.1455 52.4558 15.0769 52.667 14.9187 52.7995C14.6959 52.9861 14.6613 53.3157 14.8404 53.5446C14.9675 53.7071 14.9907 53.9279 14.9002 54.1133C14.7725 54.3744 14.875 54.6896 15.1317 54.8259C15.3139 54.9226 15.425 55.1149 15.4176 55.3211C15.4072 55.6115 15.629 55.8579 15.9189 55.8779C16.1248 55.8921 16.3044 56.0226 16.3816 56.214C16.4902 56.4836 16.793 56.6184 17.066 56.5188C17.2599 56.448 17.4771 56.4942 17.6254 56.6376Z" fill="#D56D2F"/>
</svg>
