<svg width="16" height="16" viewBox="0 0 16 16" fill="none" xmlns="http://www.w3.org/2000/svg">
<path d="M6.88889 13.7777H14.2222C15.204 13.7777 16 12.9817 16 11.7777V9.11106H6.88889V13.7777ZM14.2222 2.22217H6.88889V6.88883H16V3.99995C16 3.52845 15.8127 3.07626 15.4793 2.74287C15.1459 2.40947 14.6937 2.22217 14.2222 2.22217ZM4.66667 2.22217H1.77778C1.30651 2.22217 0.85453 2.40929 0.52117 2.7424C0.187811 3.07551 0.000353449 3.52735 0 3.99861L0 6.88883H4.66667V2.22217ZM0 9.11106V11.7795C0.000888889 12.9826 0.796444 13.7777 1.77778 13.7777H4.66667V9.11106H0Z" fill="#006AA7"/>
<path d="M6.88889 2.22217H4.66667V6.88883H0V9.11106H4.66667V13.7777H6.88889V9.11106H16V6.88883H6.88889V2.22217Z" fill="#FECC00"/>
</svg>
