<svg width="16" height="17" viewBox="0 0 16 17" fill="none" xmlns="http://www.w3.org/2000/svg">
<path d="M12.9998 2.1665C13.7362 2.1665 14.3332 2.76346 14.3332 3.49984V13.4998C14.3332 14.2362 13.7362 14.8332 12.9998 14.8332H2.99984C2.26346 14.8332 1.6665 14.2362 1.6665 13.4998V3.49984C1.6665 2.76346 2.26346 2.1665 2.99984 2.1665H12.9998Z" stroke="#6D6D6D" stroke-width="1.5" stroke-linejoin="round"/>
<path d="M10.6668 9.8335C11.035 9.8335 11.3335 10.132 11.3335 10.5002V11.1668C11.3335 11.535 11.035 11.8335 10.6668 11.8335H10.0002C9.63196 11.8335 9.3335 11.535 9.3335 11.1668V10.5002C9.3335 10.132 9.63196 9.8335 10.0002 9.8335H10.6668Z" stroke="#6D6D6D" stroke-width="1.5"/>
<path d="M5.99984 5.1665C6.36802 5.1665 6.6665 5.46498 6.6665 5.83317V6.49984C6.6665 6.86802 6.36802 7.1665 5.99984 7.1665H5.33317C4.96498 7.1665 4.6665 6.86802 4.6665 6.49984V5.83317C4.6665 5.46498 4.96498 5.1665 5.33317 5.1665H5.99984Z" stroke="#6D6D6D" stroke-width="1.5"/>
<path d="M5 10.8335H9.33333" stroke="#6D6D6D" stroke-width="1.5" stroke-linecap="round" stroke-linejoin="round"/>
<path d="M7 6.1665H11.3333" stroke="#6D6D6D" stroke-width="1.5" stroke-linecap="round" stroke-linejoin="round"/>
</svg>
