<svg width="15" height="15" viewBox="0 0 15 15" fill="none" xmlns="http://www.w3.org/2000/svg">
<g clip-path="url(#clip0_6_6439)">
<path d="M3.84851 2.68004L5.22851 3.22004C5.32308 3.25473 5.40364 3.3195 5.45784 3.4044C5.51203 3.48931 5.53686 3.58965 5.52851 3.69004L5.34851 5.49004L11.1885 6.84004C11.6728 6.91738 12.1343 7.09948 12.5409 7.37363C12.9475 7.64777 13.2894 8.00735 13.5427 8.42727C13.796 8.8472 13.9546 9.31734 14.0074 9.80488C14.0602 10.2924 14.006 10.7856 13.8485 11.25C13.8035 11.3612 13.7369 11.4624 13.6527 11.5478C13.5684 11.6332 13.4681 11.7011 13.3575 11.7475C13.2469 11.794 13.1282 11.8181 13.0083 11.8186C12.8883 11.819 12.7694 11.7957 12.6585 11.75L9.20851 10.4L8.84851 10.27L6.84851 11.61C6.77969 11.6549 6.70121 11.6828 6.61952 11.6915C6.53782 11.7002 6.45523 11.6894 6.37851 11.66L4.84851 11.05C4.76738 11.0186 4.69585 10.9666 4.64099 10.8991C4.58613 10.8315 4.54984 10.7509 4.5357 10.665C4.52156 10.5792 4.53007 10.4911 4.56037 10.4096C4.59068 10.328 4.64174 10.2558 4.70851 10.2L5.98851 9.14004L5.75851 9.05004L2.38851 7.75004C2.27532 7.70993 2.1713 7.64759 2.08258 7.56667C1.99385 7.48575 1.92222 7.38789 1.8719 7.27886C1.82158 7.16983 1.79358 7.05183 1.78957 6.93181C1.78555 6.81179 1.80559 6.69219 1.84851 6.58004L3.28851 2.92004C3.33285 2.8155 3.41588 2.73216 3.52025 2.68743C3.62462 2.6427 3.74223 2.64005 3.84851 2.68004Z" stroke="#000001" stroke-linecap="round" stroke-linejoin="round"/>
<path d="M1.34766 14.25H14.3477" stroke="#000001" stroke-linecap="round" stroke-linejoin="round"/>
</g>
<defs>
<clipPath id="clip0_6_6439">
<rect width="14" height="14" fill="white" transform="translate(0.847656 0.75)"/>
</clipPath>
</defs>
</svg>
