<svg width="15" height="15" viewBox="0 0 15 15" fill="none" xmlns="http://www.w3.org/2000/svg">
<g clip-path="url(#clip0_6_6478)">
<path d="M3.84766 14V6.5" stroke="#000001" stroke-linecap="round" stroke-linejoin="round"/>
<path d="M6.34766 14V8.5" stroke="#000001" stroke-linecap="round" stroke-linejoin="round"/>
<path d="M9.34766 14V8.5" stroke="#000001" stroke-linecap="round" stroke-linejoin="round"/>
<path d="M11.8477 14V6.5" stroke="#000001" stroke-linecap="round" stroke-linejoin="round"/>
<path d="M11.847 1.5H3.84699C3.39621 1.49977 2.95376 1.62142 2.56646 1.85208C2.17917 2.08275 1.86145 2.41383 1.64693 2.8103C1.43241 3.20676 1.32908 3.65385 1.34788 4.10424C1.36667 4.55463 1.5069 4.99155 1.7537 5.36877C2.00051 5.74598 2.34471 6.04944 2.74988 6.24703C3.15504 6.44463 3.6061 6.52899 4.05529 6.4912C4.50448 6.45341 4.9351 6.29487 5.30156 6.03236C5.66802 5.76985 5.95668 5.41315 6.13699 5H9.55699C9.7373 5.41315 10.026 5.76985 10.3924 6.03236C10.7589 6.29487 11.1895 6.45341 11.6387 6.4912C12.0879 6.52899 12.5389 6.44463 12.9441 6.24703C13.3493 6.04944 13.6935 5.74598 13.9403 5.36877C14.1871 4.99155 14.3273 4.55463 14.3461 4.10424C14.3649 3.65385 14.2616 3.20676 14.0471 2.8103C13.8325 2.41383 13.5148 2.08275 13.1275 1.85208C12.7402 1.62142 12.2978 1.49977 11.847 1.5V1.5Z" stroke="#000001" stroke-linecap="round" stroke-linejoin="round"/>
</g>
<defs>
<clipPath id="clip0_6_6478">
<rect width="14" height="14" fill="white" transform="translate(0.847656 0.75)"/>
</clipPath>
</defs>
</svg>
