<svg width="15" height="15" viewBox="0 0 15 15" fill="none" xmlns="http://www.w3.org/2000/svg">
<g clip-path="url(#clip0_6_6394)">
<path d="M13.5977 3.50001H11.9877C11.8764 3.49944 11.7682 3.53675 11.681 3.60582C11.5938 3.67488 11.5326 3.77158 11.5077 3.88001L10.9977 5.88001L5.99766 4.88001C5.46563 4.77567 4.91715 4.78985 4.39122 4.92154C3.8653 5.05323 3.37485 5.2992 2.95477 5.64195C2.5347 5.98469 2.1953 6.41579 1.96074 6.90459C1.72618 7.39339 1.60221 7.92786 1.59766 8.47001C1.59766 8.73522 1.70301 8.98958 1.89055 9.17711C2.07809 9.36465 2.33244 9.47001 2.59766 9.47001H6.99766L7.99766 11.05C8.17836 11.3317 8.42685 11.5635 8.72036 11.7242C9.01387 11.8849 9.34302 11.9694 9.67766 11.97H10.7777C10.8632 11.9693 10.9471 11.9467 11.0213 11.9044C11.0956 11.862 11.1578 11.8014 11.2019 11.7281C11.2461 11.6549 11.2707 11.5716 11.2734 11.4861C11.2762 11.4007 11.257 11.3159 11.2177 11.24L10.3377 9.50001H13.0977C13.3629 9.50001 13.6172 9.39465 13.8048 9.20711C13.9923 9.01958 14.0977 8.76522 14.0977 8.50001V4.00001C14.0977 3.8674 14.045 3.74022 13.9512 3.64645C13.8574 3.55268 13.7303 3.50001 13.5977 3.50001Z" stroke="#000001" stroke-linecap="round" stroke-linejoin="round"/>
</g>
<defs>
<clipPath id="clip0_6_6394">
<rect width="14" height="14" fill="white" transform="translate(0.847656 0.75)"/>
</clipPath>
</defs>
</svg>
