<svg width="15" height="15" viewBox="0 0 15 15" fill="none" xmlns="http://www.w3.org/2000/svg">
<g clip-path="url(#clip0_6_6732)">
<path d="M11.8477 5.25C12.9522 5.25 13.8477 4.35457 13.8477 3.25C13.8477 2.14543 12.9522 1.25 11.8477 1.25C10.7431 1.25 9.84766 2.14543 9.84766 3.25C9.84766 4.35457 10.7431 5.25 11.8477 5.25Z" stroke="#000001" stroke-linecap="round" stroke-linejoin="round"/>
<path d="M11.8477 7.25C9.34766 7.25 9.34766 14.25 9.34766 14.25H14.3477C14.3477 14.25 14.3477 7.25 11.8477 7.25Z" stroke="#000001" stroke-linecap="round" stroke-linejoin="round"/>
<path d="M3.84766 5.25C4.95223 5.25 5.84766 4.35457 5.84766 3.25C5.84766 2.14543 4.95223 1.25 3.84766 1.25C2.74309 1.25 1.84766 2.14543 1.84766 3.25C1.84766 4.35457 2.74309 5.25 3.84766 5.25Z" stroke="#000001" stroke-linecap="round" stroke-linejoin="round"/>
<path d="M3.84766 14.25C1.34766 14.25 1.34766 7.25 1.34766 7.25H6.34766C6.34766 7.25 6.34766 14.25 3.84766 14.25Z" stroke="#000001" stroke-linecap="round" stroke-linejoin="round"/>
</g>
<defs>
<clipPath id="clip0_6_6732">
<rect width="14" height="14" fill="white" transform="translate(0.847656 0.75)"/>
</clipPath>
</defs>
</svg>
