<svg width="15" height="15" viewBox="0 0 15 15" fill="none" xmlns="http://www.w3.org/2000/svg">
<g clip-path="url(#clip0_6_6651)">
<path d="M6.8469 1.80016C6.95304 1.63073 7.10049 1.49104 7.2754 1.39421C7.45032 1.29738 7.64697 1.24658 7.8469 1.24658C8.04683 1.24658 8.24349 1.29738 8.4184 1.39421C8.59332 1.49104 8.74077 1.63073 8.8469 1.80016L10.7869 4.87016L13.3169 5.18016C13.5267 5.20361 13.7262 5.28387 13.8938 5.41231C14.0613 5.54075 14.1907 5.71248 14.2678 5.90901C14.345 6.10553 14.3671 6.31939 14.3317 6.52754C14.2963 6.73568 14.2047 6.93021 14.0669 7.09016L11.9569 9.51016L12.6369 12.8602C12.6795 13.0787 12.6589 13.3049 12.5774 13.5122C12.4959 13.7194 12.357 13.8991 12.1769 14.0302C11.9946 14.1588 11.7797 14.2336 11.5569 14.2459C11.3342 14.2583 11.1124 14.2078 10.9169 14.1002L7.8469 12.4202L4.7769 14.1002C4.58144 14.2078 4.35966 14.2583 4.13686 14.2459C3.91407 14.2336 3.69924 14.1588 3.5169 14.0302C3.33683 13.8991 3.19789 13.7194 3.11641 13.5122C3.03492 13.3049 3.01428 13.0787 3.0569 12.8602L3.7369 9.51016L1.6269 7.09016C1.48909 6.93021 1.39754 6.73568 1.36213 6.52754C1.32672 6.31939 1.34879 6.10553 1.42596 5.90901C1.50313 5.71248 1.63248 5.54075 1.80005 5.41231C1.96762 5.28387 2.16708 5.20361 2.3769 5.18016L4.9069 4.87016L6.8469 1.80016Z" stroke="#000001" stroke-linecap="round" stroke-linejoin="round"/>
<path d="M6.34766 6.27002H8.34766C8.61287 6.27002 8.86723 6.37538 9.05476 6.56291C9.2423 6.75045 9.34766 7.0048 9.34766 7.27002V9.27002C9.34766 9.53524 9.2423 9.78959 9.05476 9.97713C8.86723 10.1647 8.61287 10.27 8.34766 10.27H6.34766" stroke="#000001" stroke-linecap="round" stroke-linejoin="round"/>
<path d="M9.34766 8.27002H6.34766" stroke="#000001" stroke-linecap="round" stroke-linejoin="round"/>
</g>
<defs>
<clipPath id="clip0_6_6651">
<rect width="14" height="14" fill="white" transform="translate(0.847656 0.75)"/>
</clipPath>
</defs>
</svg>
