<svg width="15" height="15" viewBox="0 0 15 15" fill="none" xmlns="http://www.w3.org/2000/svg">
<g clip-path="url(#clip0_6_6495)">
<path d="M11.7369 1.68C11.645 1.54753 11.5224 1.43925 11.3797 1.36438C11.2369 1.28951 11.0781 1.25027 10.9169 1.25H4.7769C4.61568 1.25027 4.45691 1.28951 4.31413 1.36438C4.17136 1.43925 4.04879 1.54753 3.9569 1.68L2.3569 3.99C2.22697 4.18679 2.17076 4.42317 2.1982 4.65739C2.22565 4.8916 2.33499 5.10858 2.5069 5.27L7.1769 9.99C7.36065 10.1558 7.59938 10.2476 7.8469 10.2476C8.09442 10.2476 8.33315 10.1558 8.5169 9.99L13.1869 5.27C13.3588 5.10858 13.4681 4.8916 13.4956 4.65739C13.523 4.42317 13.4668 4.18679 13.3369 3.99L11.7369 1.68Z" stroke="#000001" stroke-linecap="round" stroke-linejoin="round"/>
<path d="M7.84734 1.25L5.52734 4.69L7.70734 10.24" stroke="#000001" stroke-linecap="round" stroke-linejoin="round"/>
<path d="M7.84766 1.25L10.1677 4.69L7.98766 10.24" stroke="#000001" stroke-linecap="round" stroke-linejoin="round"/>
<path d="M2.19727 4.68994H13.4973" stroke="#000001" stroke-linecap="round" stroke-linejoin="round"/>
<path d="M13.8477 14.25C13.8477 13.7196 13.6369 13.2109 13.2619 12.8358C12.8868 12.4607 12.3781 12.25 11.8477 12.25H3.84766C3.31722 12.25 2.80852 12.4607 2.43344 12.8358C2.05837 13.2109 1.84766 13.7196 1.84766 14.25V14.25" stroke="#000001" stroke-linecap="round" stroke-linejoin="round"/>
</g>
<defs>
<clipPath id="clip0_6_6495">
<rect width="14" height="14" fill="white" transform="translate(0.847656 0.75)"/>
</clipPath>
</defs>
</svg>
