<svg width="15" height="15" viewBox="0 0 15 15" fill="none" xmlns="http://www.w3.org/2000/svg">
<g clip-path="url(#clip0_6_6459)">
<path d="M14.3477 14.23H13.8477C13.3172 14.23 12.8085 14.0193 12.4334 13.6442C12.0584 13.2691 11.8477 12.7604 11.8477 12.23C11.8477 12.7604 11.6369 13.2691 11.2619 13.6442C10.8868 14.0193 10.3781 14.23 9.84766 14.23C9.31722 14.23 8.80852 14.0193 8.43344 13.6442C8.05837 13.2691 7.84766 12.7604 7.84766 12.23C7.84766 12.7604 7.63694 13.2691 7.26187 13.6442C6.8868 14.0193 6.37809 14.23 5.84766 14.23C5.31722 14.23 4.80852 14.0193 4.43344 13.6442C4.05837 13.2691 3.84766 12.7604 3.84766 12.23C3.84766 12.7604 3.63694 13.2691 3.26187 13.6442C2.8868 14.0193 2.37809 14.23 1.84766 14.23H1.34766" stroke="#000001" stroke-linecap="round" stroke-linejoin="round"/>
<path d="M10.8472 10.2301C10.3322 9.6039 9.68484 9.09959 8.95174 8.75335C8.21864 8.40711 7.41794 8.22754 6.60719 8.22754C5.79643 8.22754 4.99574 8.40711 4.26264 8.75335C3.52953 9.09959 2.88221 9.6039 2.36719 10.2301" stroke="#000001" stroke-linecap="round" stroke-linejoin="round"/>
<path d="M7.34766 8.28022C7.40766 6.02022 8.09766 3.96021 9.59766 3.22021" stroke="#000001" stroke-linecap="round" stroke-linejoin="round"/>
<path d="M6.60742 1.3201C7.25565 1.19246 7.92815 1.31836 8.48631 1.67186C9.04446 2.02536 9.44574 2.57951 9.60742 3.2201" stroke="#000001" stroke-linecap="round" stroke-linejoin="round"/>
<path d="M13.2577 3.59026C12.7974 3.09329 12.1715 2.78145 11.4976 2.71332C10.8237 2.64519 10.1481 2.82546 9.59766 3.22026" stroke="#000001" stroke-linecap="round" stroke-linejoin="round"/>
<path d="M5.92773 4.29026C6.31958 3.71296 6.9004 3.2903 7.57024 3.09501C8.24007 2.89972 8.95703 2.94401 9.59773 3.22026C10.2404 3.37743 10.7968 3.77823 11.1495 4.33801C11.5021 4.89779 11.6234 5.57272 11.4877 6.22026" stroke="#000001" stroke-linecap="round" stroke-linejoin="round"/>
</g>
<defs>
<clipPath id="clip0_6_6459">
<rect width="14" height="14" fill="white" transform="translate(0.847656 0.75)"/>
</clipPath>
</defs>
</svg>
