<svg width="15" height="15" viewBox="0 0 15 15" fill="none" xmlns="http://www.w3.org/2000/svg">
<g clip-path="url(#clip0_6_6676)">
<path d="M4.84763 3.27993C4.79594 3.25009 4.73731 3.23438 4.67763 3.23438C4.61795 3.23438 4.55932 3.25009 4.50763 3.27993C4.47247 3.32005 4.45308 3.37158 4.45308 3.42493C4.45308 3.47827 4.47247 3.52981 4.50763 3.56993C5.50763 5.30993 5.76763 7.77993 4.33763 9.12993C3.78875 8.6842 3.34776 8.12013 3.04763 7.47993C2.51521 7.77462 2.07465 8.21079 1.77463 8.74023C1.47462 9.26966 1.32684 9.87175 1.34763 10.4799C1.37692 11.0073 1.51036 11.5236 1.74026 11.9992C1.97015 12.4747 2.29195 12.9 2.68708 13.2505C3.08221 13.601 3.54284 13.8698 4.0424 14.0413C4.54195 14.2128 5.07053 14.2838 5.59763 14.2499C6.13153 14.3011 6.67025 14.2411 7.17978 14.0736C7.6893 13.906 8.15856 13.6347 8.55793 13.2767C8.9573 12.9187 9.2781 12.4817 9.50008 11.9935C9.72206 11.5052 9.8404 10.9762 9.84763 10.4399C9.95763 7.90993 8.17763 4.74993 4.84763 3.27993Z" stroke="#000001" stroke-linecap="round" stroke-linejoin="round"/>
<path d="M7.71758 10.4399C7.71758 10.6627 7.67354 10.8833 7.58798 11.089C7.50243 11.2947 7.37705 11.4814 7.21906 11.6385C7.06107 11.7956 6.87358 11.9198 6.66738 12.0042C6.46119 12.0885 6.24035 12.1313 6.01758 12.1299" stroke="#000001" stroke-linecap="round" stroke-linejoin="round"/>
<path d="M12.3477 1.25L14.3477 3.25L12.3477 5.25" stroke="#000001" stroke-linecap="round" stroke-linejoin="round"/>
<path d="M14.3477 3.25H9.84766" stroke="#000001" stroke-linecap="round" stroke-linejoin="round"/>
</g>
<defs>
<clipPath id="clip0_6_6676">
<rect width="14" height="14" fill="white" transform="translate(0.847656 0.75)"/>
</clipPath>
</defs>
</svg>
