<svg width="15" height="15" viewBox="0 0 15 15" fill="none" xmlns="http://www.w3.org/2000/svg">
<g clip-path="url(#clip0_6_6396)">
<path d="M12.3477 1.25H3.34766C2.79537 1.25 2.34766 1.69772 2.34766 2.25V11.75C2.34766 12.3023 2.79537 12.75 3.34766 12.75H12.3477C12.8999 12.75 13.3477 12.3023 13.3477 11.75V2.25C13.3477 1.69772 12.8999 1.25 12.3477 1.25Z" stroke="#000001" stroke-linecap="round" stroke-linejoin="round"/>
<path d="M4.34766 12.75V14.25" stroke="#000001" stroke-linecap="round" stroke-linejoin="round"/>
<path d="M11.3477 12.75V14.25" stroke="#000001" stroke-linecap="round" stroke-linejoin="round"/>
<path d="M2.34766 7.75H13.3477" stroke="#000001" stroke-linecap="round" stroke-linejoin="round"/>
<path d="M4.84766 10.75C5.1238 10.75 5.34766 10.5261 5.34766 10.25C5.34766 9.97386 5.1238 9.75 4.84766 9.75C4.57151 9.75 4.34766 9.97386 4.34766 10.25C4.34766 10.5261 4.57151 10.75 4.84766 10.75Z" stroke="#000001" stroke-linecap="round" stroke-linejoin="round"/>
<path d="M10.8477 10.75C11.1238 10.75 11.3477 10.5261 11.3477 10.25C11.3477 9.97386 11.1238 9.75 10.8477 9.75C10.5715 9.75 10.3477 9.97386 10.3477 10.25C10.3477 10.5261 10.5715 10.75 10.8477 10.75Z" stroke="#000001" stroke-linecap="round" stroke-linejoin="round"/>
</g>
<defs>
<clipPath id="clip0_6_6396">
<rect width="14" height="14" fill="white" transform="translate(0.847656 0.75)"/>
</clipPath>
</defs>
</svg>
