<svg width="15" height="15" viewBox="0 0 15 15" fill="none" xmlns="http://www.w3.org/2000/svg">
<g clip-path="url(#clip0_6_6404)">
<path d="M13.3477 11.2499C13.6129 11.2499 13.8672 11.1445 14.0548 10.957C14.2423 10.7695 14.3477 10.5151 14.3477 10.2499V8.2499C14.3477 7.98468 14.2423 7.73032 14.0548 7.54279C13.8672 7.35525 13.6129 7.2499 13.3477 7.2499H11.8477L11.0777 4.92989C11.0081 4.72291 10.8727 4.5444 10.6921 4.42161C10.5115 4.29882 10.2957 4.23851 10.0777 4.2499H6.06766C5.84959 4.23851 5.63379 4.29882 5.45322 4.42161C5.27265 4.5444 5.13724 4.72291 5.06766 4.92989L4.34766 7.2499H2.34766C2.08244 7.2499 1.82809 7.35525 1.64055 7.54279C1.45301 7.73032 1.34766 7.98468 1.34766 8.2499V10.2499C1.34766 10.5151 1.45301 10.7695 1.64055 10.957C1.82809 11.1445 2.08244 11.2499 2.34766 11.2499" stroke="#000001" stroke-linecap="round" stroke-linejoin="round"/>
<path d="M4.34766 13.25C5.45223 13.25 6.34766 12.3546 6.34766 11.25C6.34766 10.1454 5.45223 9.25 4.34766 9.25C3.24309 9.25 2.34766 10.1454 2.34766 11.25C2.34766 12.3546 3.24309 13.25 4.34766 13.25Z" stroke="#000001" stroke-linecap="round" stroke-linejoin="round"/>
<path d="M11.3477 13.25C12.4522 13.25 13.3477 12.3546 13.3477 11.25C13.3477 10.1454 12.4522 9.25 11.3477 9.25C10.2431 9.25 9.34766 10.1454 9.34766 11.25C9.34766 12.3546 10.2431 13.25 11.3477 13.25Z" stroke="#000001" stroke-linecap="round" stroke-linejoin="round"/>
<path d="M6.34766 11.25H9.34766" stroke="#000001" stroke-linecap="round" stroke-linejoin="round"/>
<path d="M7.84766 4.25V2.25" stroke="#000001" stroke-linecap="round" stroke-linejoin="round"/>
</g>
<defs>
<clipPath id="clip0_6_6404">
<rect width="14" height="14" fill="white" transform="translate(0.847656 0.75)"/>
</clipPath>
</defs>
</svg>
