<svg width="15" height="15" viewBox="0 0 15 15" fill="none" xmlns="http://www.w3.org/2000/svg">
<g clip-path="url(#clip0_6_6327)">
<path d="M7.84766 14.25C11.4375 14.25 14.3477 11.3399 14.3477 7.75C14.3477 4.16015 11.4375 1.25 7.84766 1.25C4.25781 1.25 1.34766 4.16015 1.34766 7.75C1.34766 11.3399 4.25781 14.25 7.84766 14.25Z" stroke="#000001" stroke-linecap="round" stroke-linejoin="round"/>
<path d="M1.84766 10.2498H3.59766C4.06179 10.2498 4.5069 10.0655 4.83509 9.73726C5.16328 9.40907 5.34766 8.96395 5.34766 8.49982V6.99982C5.34766 6.5357 5.53203 6.09058 5.86022 5.76239C6.18841 5.4342 6.63353 5.24982 7.09766 5.24982C7.56179 5.24982 8.0069 5.06545 8.33509 4.73726C8.66328 4.40907 8.84766 3.96395 8.84766 3.49982V1.31982" stroke="#000001" stroke-linecap="round" stroke-linejoin="round"/>
<path d="M14.3477 7.65C13.847 7.39021 13.2917 7.25311 12.7277 7.25H10.5977C10.1335 7.25 9.68841 7.43437 9.36022 7.76256C9.03203 8.09075 8.84766 8.53587 8.84766 9C8.84766 9.46413 9.03203 9.90925 9.36022 10.2374C9.68841 10.5656 10.1335 10.75 10.5977 10.75C10.9292 10.75 11.2471 10.8817 11.4815 11.1161C11.716 11.3505 11.8477 11.6685 11.8477 12V12.87" stroke="#000001" stroke-linecap="round" stroke-linejoin="round"/>
</g>
<defs>
<clipPath id="clip0_6_6327">
<rect width="14" height="14" fill="white" transform="translate(0.847656 0.75)"/>
</clipPath>
</defs>
</svg>
