<svg width="15" height="15" viewBox="0 0 15 15" fill="none" xmlns="http://www.w3.org/2000/svg">
<g clip-path="url(#clip0_6_6428)">
<path d="M6.66764 6.82984C6.43539 6.28462 6.32718 5.69461 6.35085 5.10246C6.37451 4.51031 6.52946 3.93082 6.80449 3.40588C7.07951 2.88094 7.46774 2.42367 7.94111 2.06713C8.41448 1.71058 8.96116 1.46368 9.54162 1.34426C10.1221 1.22484 10.7218 1.23589 11.2975 1.37662C11.8732 1.51734 12.4104 1.78423 12.8703 2.15797C13.3302 2.53171 13.7013 3.00298 13.9568 3.53769C14.2123 4.07241 14.3458 4.65722 14.3476 5.24984C14.3481 5.77528 14.2449 6.29565 14.0442 6.78123C13.8434 7.26681 13.549 7.70808 13.1776 8.07984" stroke="#000001" stroke-linecap="round" stroke-linejoin="round"/>
<path d="M10.3477 5.25L11.8477 3.75" stroke="#000001" stroke-linecap="round" stroke-linejoin="round"/>
<path d="M11.1077 9.90961L10.1077 9.56961C10.0254 9.53618 9.93329 9.53629 9.85106 9.56993C9.76883 9.60357 9.70303 9.66807 9.66775 9.74961L8.93775 10.8796L4.93775 8.87961C4.62666 8.70127 4.28072 8.59222 3.92359 8.55992C3.56647 8.52763 3.20658 8.57285 2.86854 8.69249C2.53051 8.81213 2.2223 9.00337 1.965 9.25313C1.7077 9.5029 1.50738 9.80528 1.37775 10.1396C1.35147 10.225 1.34227 10.3147 1.35067 10.4036C1.35906 10.4925 1.38489 10.5789 1.42668 10.6578C1.46847 10.7368 1.5254 10.8067 1.59421 10.8636C1.66303 10.9205 1.74238 10.9634 1.82775 10.9896L4.43775 11.8296L4.69775 11.9096L5.18775 13.5996C5.20349 13.6581 5.23373 13.7117 5.27569 13.7554C5.31764 13.7991 5.36994 13.8315 5.42775 13.8496L6.60775 14.2296C6.66891 14.2499 6.73431 14.2538 6.79746 14.2411C6.86062 14.2283 6.91936 14.1993 6.96785 14.1569C7.01634 14.1144 7.05291 14.0601 7.07394 13.9992C7.09497 13.9383 7.09973 13.8729 7.08775 13.8096L6.84775 12.6196L7.01775 12.6696L9.56775 13.4996C9.73486 13.5572 9.91797 13.5465 10.0772 13.4697C10.2364 13.3929 10.3588 13.2563 10.4177 13.0896L11.3177 10.3196C11.3406 10.2374 11.3317 10.1496 11.2928 10.0736C11.2539 9.99768 11.1878 9.93913 11.1077 9.90961Z" stroke="#000001" stroke-linecap="round" stroke-linejoin="round"/>
</g>
<defs>
<clipPath id="clip0_6_6428">
<rect width="14" height="14" fill="white" transform="translate(0.847656 0.75)"/>
</clipPath>
</defs>
</svg>
