<svg width="15" height="15" viewBox="0 0 15 15" fill="none" xmlns="http://www.w3.org/2000/svg">
<g clip-path="url(#clip0_6_6355)">
<path d="M7.84766 12.25C10.3329 12.25 12.3477 10.2353 12.3477 7.75C12.3477 5.26472 10.3329 3.25 7.84766 3.25C5.36237 3.25 3.34766 5.26472 3.34766 7.75C3.34766 10.2353 5.36237 12.25 7.84766 12.25Z" stroke="#000001" stroke-linecap="round" stroke-linejoin="round"/>
<path d="M7.84766 8.25C8.1238 8.25 8.34766 8.02614 8.34766 7.75C8.34766 7.47386 8.1238 7.25 7.84766 7.25C7.57151 7.25 7.34766 7.47386 7.34766 7.75C7.34766 8.02614 7.57151 8.25 7.84766 8.25Z" stroke="#000001" stroke-linecap="round" stroke-linejoin="round"/>
<path d="M7.84766 3.25V1.25" stroke="#000001" stroke-linecap="round" stroke-linejoin="round"/>
<path d="M7.84766 14.25V12.25" stroke="#000001" stroke-linecap="round" stroke-linejoin="round"/>
<path d="M12.3477 7.75H14.3477" stroke="#000001" stroke-linecap="round" stroke-linejoin="round"/>
<path d="M1.34766 7.75H3.34766" stroke="#000001" stroke-linecap="round" stroke-linejoin="round"/>
</g>
<defs>
<clipPath id="clip0_6_6355">
<rect width="14" height="14" fill="white" transform="translate(0.847656 0.75)"/>
</clipPath>
</defs>
</svg>
