<svg width="15" height="15" viewBox="0 0 15 15" fill="none" xmlns="http://www.w3.org/2000/svg">
<g clip-path="url(#clip0_6_6581)">
<path d="M13.3477 1.25H2.34766C1.79537 1.25 1.34766 1.69772 1.34766 2.25V13.25C1.34766 13.8023 1.79537 14.25 2.34766 14.25H13.3477C13.8999 14.25 14.3477 13.8023 14.3477 13.25V2.25C14.3477 1.69772 13.8999 1.25 13.3477 1.25Z" stroke="#000001" stroke-linecap="round" stroke-linejoin="round"/>
<path d="M7.84766 12.25C9.78065 12.25 11.3477 10.683 11.3477 8.75C11.3477 6.817 9.78065 5.25 7.84766 5.25C5.91466 5.25 4.34766 6.817 4.34766 8.75C4.34766 10.683 5.91466 12.25 7.84766 12.25Z" stroke="#000001" stroke-linecap="round" stroke-linejoin="round"/>
<path d="M1.34766 4.25H4.34766" stroke="#000001" stroke-linecap="round" stroke-linejoin="round"/>
<path d="M11.3477 4.25H14.3477" stroke="#000001" stroke-linecap="round" stroke-linejoin="round"/>
<path d="M7.84766 8.72021V12.2202" stroke="#000001" stroke-linecap="round" stroke-linejoin="round"/>
<path d="M4.84766 6.9502L7.84766 8.7202" stroke="#000001" stroke-linecap="round" stroke-linejoin="round"/>
<path d="M10.8477 6.9502L7.84766 8.7202" stroke="#000001" stroke-linecap="round" stroke-linejoin="round"/>
</g>
<defs>
<clipPath id="clip0_6_6581">
<rect width="14" height="14" fill="white" transform="translate(0.847656 0.75)"/>
</clipPath>
</defs>
</svg>
