<svg width="15" height="15" viewBox="0 0 15 15" fill="none" xmlns="http://www.w3.org/2000/svg">
<g clip-path="url(#clip0_6_6449)">
<path d="M14.0368 4.53L12.6668 4.09C12.5747 4.06128 12.4759 4.06224 12.3844 4.09275C12.2929 4.12326 12.2133 4.18177 12.1568 4.26L11.2168 5.75L6.0568 3.18C5.64994 2.9414 5.19588 2.79451 4.72635 2.74959C4.25683 2.70467 3.78316 2.76281 3.33843 2.91994C2.8937 3.07707 2.48865 3.3294 2.15156 3.65932C1.81446 3.98923 1.55347 4.38876 1.3868 4.83C1.31804 5.05279 1.34049 5.29375 1.44924 5.49999C1.55798 5.70624 1.74413 5.86089 1.9668 5.93L5.3568 7.03L5.6968 7.14L6.3368 9.33C6.35626 9.40566 6.39507 9.47495 6.44942 9.53106C6.50378 9.58717 6.5718 9.62816 6.6468 9.65L8.1868 10.15C8.26762 10.1849 8.35648 10.1969 8.44367 10.1848C8.53086 10.1726 8.61302 10.1366 8.68116 10.0809C8.7493 10.0251 8.80079 9.95172 8.83 9.86867C8.85922 9.78562 8.86503 9.69613 8.8468 9.61L8.5268 8.05L8.7468 8.12L12.0568 9.19C12.1638 9.22967 12.2775 9.24767 12.3915 9.24294C12.5055 9.23821 12.6174 9.21085 12.7207 9.16246C12.824 9.11406 12.9166 9.0456 12.9932 8.96105C13.0698 8.87651 13.1288 8.77757 13.1668 8.67L14.3268 5.07C14.3582 4.95996 14.3454 4.84201 14.2913 4.7412C14.2372 4.64039 14.1459 4.56463 14.0368 4.53V4.53Z" stroke="#000001" stroke-linecap="round" stroke-linejoin="round"/>
<path d="M1.34766 14.25H14.3477" stroke="#000001" stroke-linecap="round" stroke-linejoin="round"/>
</g>
<defs>
<clipPath id="clip0_6_6449">
<rect width="14" height="14" fill="white" transform="translate(0.847656 0.75)"/>
</clipPath>
</defs>
</svg>
