<svg width="15" height="15" viewBox="0 0 15 15" fill="none" xmlns="http://www.w3.org/2000/svg">
<g clip-path="url(#clip0_6_6529)">
<path d="M2.61766 9.25C1.79513 8.20734 1.34775 6.91804 1.34766 5.59V2.33C2.71839 1.62068 4.23927 1.25049 5.78266 1.25049C7.32605 1.25049 8.84692 1.62068 10.2177 2.33" stroke="#000001" stroke-linecap="round" stroke-linejoin="round"/>
<path d="M8.63762 14.1898C8.28767 14.2689 7.92395 14.2639 7.5763 14.1753C7.22865 14.0866 6.90696 13.9168 6.63762 13.6798V13.6798C5.70187 12.8731 5.00894 11.8221 4.63632 10.6442C4.26369 9.46625 4.22606 8.2079 4.52762 7.00982L5.25762 4.08982C6.8431 3.68771 8.50362 3.68553 10.0901 4.08348C11.6767 4.48142 13.1396 5.26703 14.3476 6.36982L13.6176 9.27982C13.3233 10.479 12.702 11.5729 11.8227 12.4398C10.9435 13.3067 9.84083 13.9125 8.63762 14.1898V14.1898Z" stroke="#000001" stroke-linecap="round" stroke-linejoin="round"/>
<path d="M6.45703 7.25982C6.58318 7.12781 6.74307 7.03285 6.91935 6.98525C7.09563 6.93766 7.28158 6.93924 7.45703 6.98982C7.62876 7.03022 7.78674 7.11533 7.91495 7.23651C8.04316 7.35769 8.13703 7.51064 8.18703 7.67982" stroke="#000001" stroke-linecap="round" stroke-linejoin="round"/>
<path d="M10.418 8.24992C10.5401 8.1187 10.6952 8.02271 10.8672 7.972C11.0391 7.92129 11.2215 7.91773 11.3953 7.96168C11.569 8.00564 11.7278 8.0955 11.855 8.22186C11.9821 8.34821 12.0729 8.50642 12.118 8.67992" stroke="#000001" stroke-linecap="round" stroke-linejoin="round"/>
</g>
<defs>
<clipPath id="clip0_6_6529">
<rect width="14" height="14" fill="white" transform="translate(0.847656 0.75)"/>
</clipPath>
</defs>
</svg>
