<svg width="15" height="15" viewBox="0 0 15 15" fill="none" xmlns="http://www.w3.org/2000/svg">
<g clip-path="url(#clip0_6_6656)">
<path d="M14.3477 10.75C14.3477 9.95435 14.0316 9.19129 13.469 8.62868C12.9064 8.06607 12.1433 7.75 11.3477 7.75H2.34766C2.08244 7.75 1.82809 7.85536 1.64055 8.04289C1.45301 8.23043 1.34766 8.48478 1.34766 8.75V12.75C1.34766 13.0152 1.45301 13.2696 1.64055 13.4571C1.82809 13.6446 2.08244 13.75 2.34766 13.75H11.3477C12.1433 13.75 12.9064 13.4339 13.469 12.8713C14.0316 12.3087 14.3477 11.5456 14.3477 10.75Z" stroke="#000001" stroke-linecap="round" stroke-linejoin="round"/>
<path d="M1.34766 10.75H10.3477" stroke="#000001" stroke-linecap="round" stroke-linejoin="round"/>
<path d="M4.34766 7.75C3.55201 7.75 2.78894 7.43393 2.22634 6.87132C1.66373 6.30871 1.34766 5.54565 1.34766 4.75C1.34766 3.95435 1.66373 3.19129 2.22634 2.62868C2.78894 2.06607 3.55201 1.75 4.34766 1.75H13.3477C13.6129 1.75 13.8672 1.85536 14.0548 2.04289C14.2423 2.23043 14.3477 2.48478 14.3477 2.75V6.75C14.3477 7.01522 14.2423 7.26957 14.0548 7.45711C13.8672 7.64464 13.6129 7.75 13.3477 7.75H11.4877" stroke="#000001" stroke-linecap="round" stroke-linejoin="round"/>
<path d="M14.3477 4.75H5.34766" stroke="#000001" stroke-linecap="round" stroke-linejoin="round"/>
</g>
<defs>
<clipPath id="clip0_6_6656">
<rect width="14" height="14" fill="white" transform="translate(0.847656 0.75)"/>
</clipPath>
</defs>
</svg>
