<svg width="15" height="15" viewBox="0 0 15 15" fill="none" xmlns="http://www.w3.org/2000/svg">
<g clip-path="url(#clip0_6_6422)">
<path d="M12.3477 4.75H3.34766C2.24309 4.75 1.34766 5.64543 1.34766 6.75V12.25C1.34766 13.3546 2.24309 14.25 3.34766 14.25H12.3477C13.4522 14.25 14.3477 13.3546 14.3477 12.25V6.75C14.3477 5.64543 13.4522 4.75 12.3477 4.75Z" stroke="#000001" stroke-linecap="round" stroke-linejoin="round"/>
<path d="M4.84766 14.25V4.75" stroke="#000001" stroke-linecap="round" stroke-linejoin="round"/>
<path d="M10.8477 14.25V4.75" stroke="#000001" stroke-linecap="round" stroke-linejoin="round"/>
<path d="M5.34766 4.75C5.34766 4.08696 5.61105 3.45107 6.07989 2.98223C6.54873 2.51339 7.18462 2.25 7.84766 2.25C8.5107 2.25 9.14658 2.51339 9.61542 2.98223C10.0843 3.45107 10.3477 4.08696 10.3477 4.75" stroke="#000001" stroke-linecap="round" stroke-linejoin="round"/>
</g>
<defs>
<clipPath id="clip0_6_6422">
<rect width="14" height="14" fill="white" transform="translate(0.847656 0.75)"/>
</clipPath>
</defs>
</svg>
