<svg width="15" height="15" viewBox="0 0 15 15" fill="none" xmlns="http://www.w3.org/2000/svg">
<g clip-path="url(#clip0_6_6513)">
<path d="M13.8477 4.98975H1.84766C1.57151 4.98975 1.34766 5.2136 1.34766 5.48975V13.4897C1.34766 13.7659 1.57151 13.9897 1.84766 13.9897H13.8477C14.1238 13.9897 14.3477 13.7659 14.3477 13.4897V5.48975C14.3477 5.2136 14.1238 4.98975 13.8477 4.98975Z" stroke="#000001" stroke-linecap="round" stroke-linejoin="round"/>
<path d="M5.09766 9.98975C5.78801 9.98975 6.34766 9.4301 6.34766 8.73975C6.34766 8.04939 5.78801 7.48975 5.09766 7.48975C4.4073 7.48975 3.84766 8.04939 3.84766 8.73975C3.84766 9.4301 4.4073 9.98975 5.09766 9.98975Z" stroke="#000001" stroke-linecap="round" stroke-linejoin="round"/>
<path d="M4.59766 13.9896L9.29766 9.98965C9.42991 9.87589 9.58341 9.78948 9.74927 9.73542C9.91512 9.68135 10.0901 9.66069 10.2639 9.67464C10.4378 9.68858 10.6072 9.73686 10.7623 9.81668C10.9175 9.8965 11.0552 10.0063 11.1677 10.1396L14.2377 13.8196" stroke="#000001" stroke-linecap="round" stroke-linejoin="round"/>
<path d="M4.34766 4.98979L7.09766 1.84979C7.1915 1.74339 7.30691 1.65817 7.43622 1.59979C7.56553 1.54142 7.70578 1.51123 7.84766 1.51123C7.98953 1.51123 8.12978 1.54142 8.25909 1.59979C8.3884 1.65817 8.50381 1.74339 8.59766 1.84979L11.3477 4.98979" stroke="#000001" stroke-linecap="round" stroke-linejoin="round"/>
</g>
<defs>
<clipPath id="clip0_6_6513">
<rect width="14" height="14" fill="white" transform="translate(0.847656 0.75)"/>
</clipPath>
</defs>
</svg>
