<svg width="15" height="15" viewBox="0 0 15 15" fill="none" xmlns="http://www.w3.org/2000/svg">
<g clip-path="url(#clip0_6_6433)">
<path d="M11.3477 9.24971C11.3476 10.0884 11.1366 10.9136 10.734 11.6494C10.3314 12.3852 9.75022 13.0078 9.04391 13.4601C8.33759 13.9124 7.52886 14.1797 6.69215 14.2375C5.85544 14.2953 5.01764 14.1417 4.25586 13.7908C3.49408 13.4399 2.8328 12.903 2.3329 12.2296C1.83299 11.5562 1.51052 10.7678 1.39517 9.93706C1.27982 9.10632 1.37529 8.25992 1.6728 7.47576C1.97031 6.69159 2.4603 5.99486 3.09766 5.44971" stroke="#000001" stroke-linecap="round" stroke-linejoin="round"/>
<path d="M6.12683 7.3999C6.02115 7.6181 5.96644 7.85746 5.96683 8.0999C5.9655 8.3012 6.00417 8.50075 6.08059 8.68698C6.15701 8.8732 6.26966 9.0424 6.41199 9.18474C6.55433 9.32708 6.72353 9.43973 6.90976 9.51614C7.09598 9.59256 7.29554 9.63123 7.49683 9.6299C7.70105 9.6299 7.8969 9.71103 8.0413 9.85543C8.18571 9.99983 8.26683 10.1957 8.26683 10.3999V13.8699" stroke="#000001" stroke-linecap="round" stroke-linejoin="round"/>
<path d="M1.41797 10.0201H3.26797C3.47355 10.0147 3.67811 10.0506 3.86959 10.1256C4.06108 10.2006 4.2356 10.3132 4.38286 10.4567C4.53013 10.6003 4.64716 10.7718 4.72704 10.9613C4.80692 11.1508 4.84804 11.3544 4.84797 11.5601V14.0101" stroke="#000001" stroke-linecap="round" stroke-linejoin="round"/>
<path d="M14.108 2.71974L13.108 2.37974C13.0377 2.35587 12.9615 2.35565 12.8911 2.37913C12.8207 2.4026 12.7599 2.44847 12.718 2.50974L11.988 3.63974L7.98796 1.63974C7.67183 1.45343 7.31842 1.3393 6.95303 1.3055C6.58763 1.27171 6.21929 1.3191 5.87434 1.44427C5.5294 1.56944 5.21639 1.76931 4.9577 2.02957C4.69901 2.28983 4.50104 2.60405 4.37796 2.94974C4.34404 3.03942 4.32947 3.13527 4.3352 3.23098C4.34093 3.32669 4.36684 3.4201 4.41123 3.5051C4.45561 3.59009 4.51747 3.66473 4.59274 3.72413C4.668 3.78353 4.75498 3.82633 4.84796 3.84974L7.45796 4.68974L7.71796 4.77974L8.20796 6.45974C8.2237 6.51824 8.25395 6.57182 8.2959 6.61552C8.33785 6.65922 8.39016 6.69163 8.44796 6.70974L9.62796 7.08974C9.68821 7.10937 9.75248 7.1132 9.81462 7.10086C9.87677 7.08852 9.9347 7.06043 9.98288 7.01928C10.0311 6.97813 10.0679 6.9253 10.0898 6.86585C10.1117 6.80639 10.1179 6.74231 10.108 6.67974L9.84796 5.42974H10.018L12.568 6.25974C12.7351 6.31735 12.9182 6.30658 13.0774 6.22979C13.2366 6.15299 13.359 6.01639 13.418 5.84974L14.318 3.07974C14.3279 3.00494 14.3126 2.92897 14.2746 2.86379C14.2366 2.79862 14.178 2.74794 14.108 2.71974Z" stroke="#000001" stroke-linecap="round" stroke-linejoin="round"/>
</g>
<defs>
<clipPath id="clip0_6_6433">
<rect width="14" height="14" fill="white" transform="translate(0.847656 0.75)"/>
</clipPath>
</defs>
</svg>
