<svg width="15" height="15" viewBox="0 0 15 15" fill="none" xmlns="http://www.w3.org/2000/svg">
<g clip-path="url(#clip0_6_6508)">
<path d="M14.3477 10.0102L10.5577 5.01015C10.4647 4.91643 10.3541 4.84203 10.2322 4.79126C10.1104 4.74049 9.97967 4.71436 9.84766 4.71436C9.71564 4.71436 9.58494 4.74049 9.46308 4.79126C9.34122 4.84203 9.23062 4.91643 9.13766 5.01015L1.34766 14.2502H14.3477" stroke="#000001" stroke-linecap="round" stroke-linejoin="round"/>
<path d="M5.53711 9.25L7.00711 10.25C7.17647 10.3706 7.37921 10.4354 7.58711 10.4354C7.79501 10.4354 7.99775 10.3706 8.16711 10.25L9.05711 9.58C9.23021 9.45018 9.44074 9.38 9.65711 9.38C9.87348 9.38 10.084 9.45018 10.2571 9.58L11.1471 10.25C11.3155 10.3683 11.5163 10.4318 11.7221 10.4318C11.9279 10.4318 12.1287 10.3683 12.2971 10.25L13.7771 9.25" stroke="#000001" stroke-linecap="round" stroke-linejoin="round"/>
<path d="M3.84766 6.25C5.22837 6.25 6.34766 5.13071 6.34766 3.75C6.34766 2.36929 5.22837 1.25 3.84766 1.25C2.46694 1.25 1.34766 2.36929 1.34766 3.75C1.34766 5.13071 2.46694 6.25 3.84766 6.25Z" stroke="#000001" stroke-linecap="round" stroke-linejoin="round"/>
</g>
<defs>
<clipPath id="clip0_6_6508">
<rect width="14" height="14" fill="white" transform="translate(0.847656 0.75)"/>
</clipPath>
</defs>
</svg>
