<svg width="15" height="15" viewBox="0 0 15 15" fill="none" xmlns="http://www.w3.org/2000/svg">
<g clip-path="url(#clip0_6_6519)">
<path d="M6.34766 11.25C6.34766 12.0456 6.66373 12.8087 7.22634 13.3713C7.78895 13.9339 8.55201 14.25 9.34766 14.25H11.3477C12.1433 14.25 12.9064 13.9339 13.469 13.3713C14.0316 12.8087 14.3477 12.0456 14.3477 11.25V1.25" stroke="#000001" stroke-linecap="round" stroke-linejoin="round"/>
<path d="M11.3477 6.25C11.3477 5.71957 11.1369 5.21086 10.7619 4.83579C10.3868 4.46071 9.87809 4.25 9.34766 4.25H3.34766C2.81722 4.25 2.30852 4.46071 1.93344 4.83579C1.55837 5.21086 1.34766 5.71957 1.34766 6.25V8.25C1.34766 8.78043 1.55837 9.28914 1.93344 9.66421C2.30852 10.0393 2.81722 10.25 3.34766 10.25H4.34766L5.51766 8.5C5.60913 8.36388 5.73268 8.25234 5.87742 8.17522C6.02217 8.0981 6.18365 8.05776 6.34766 8.05776C6.51166 8.05776 6.67315 8.0981 6.81789 8.17522C6.96263 8.25234 7.08618 8.36388 7.17766 8.5L8.34766 10.25H9.34766C9.87809 10.25 10.3868 10.0393 10.7619 9.66421C11.1369 9.28914 11.3477 8.78043 11.3477 8.25V6.25Z" stroke="#000001" stroke-linecap="round" stroke-linejoin="round"/>
</g>
<defs>
<clipPath id="clip0_6_6519">
<rect width="14" height="14" fill="white" transform="translate(0.847656 0.75)"/>
</clipPath>
</defs>
</svg>
