<svg width="15" height="15" viewBox="0 0 15 15" fill="none" xmlns="http://www.w3.org/2000/svg">
<g clip-path="url(#clip0_6_6417)">
<path d="M9.02789 6.8299C9.32829 6.11952 9.41691 5.33745 9.28307 4.57787C9.14923 3.81829 8.79865 3.11361 8.27355 2.54868C7.74844 1.98376 7.07121 1.5827 6.32342 1.3938C5.57564 1.2049 4.78918 1.23622 4.05878 1.48399C3.32838 1.73175 2.68519 2.1854 2.20667 2.79029C1.72816 3.39518 1.43472 4.12552 1.36171 4.89333C1.2887 5.66115 1.43923 6.4337 1.79517 7.11794C2.15111 7.80217 2.69728 8.36891 3.36789 8.7499" stroke="#000001" stroke-linecap="round" stroke-linejoin="round"/>
<path d="M5.34766 5.25L6.84766 3.75" stroke="#000001" stroke-linecap="round" stroke-linejoin="round"/>
<path d="M13.1477 7.83977L12.0877 8.12977C12.019 8.1509 11.9588 8.19325 11.9157 8.25074C11.8726 8.30823 11.8488 8.37791 11.8477 8.44977V9.74977L7.44773 10.2698C7.08771 10.2864 6.73564 10.3813 6.41602 10.5478C6.09641 10.7143 5.81693 10.9485 5.59705 11.2341C5.37718 11.5197 5.22218 11.8497 5.14285 12.2013C5.06352 12.5528 5.06178 12.9175 5.13773 13.2698C5.15961 13.3562 5.19876 13.4373 5.25283 13.5081C5.3069 13.579 5.37476 13.6382 5.45232 13.6821C5.52988 13.726 5.61554 13.7538 5.70412 13.7637C5.7927 13.7736 5.88237 13.7655 5.96773 13.7398L8.61773 13.0298L8.84773 13.0098L10.1777 14.1598C10.2243 14.1986 10.2792 14.2261 10.3383 14.24C10.3973 14.2538 10.4587 14.2538 10.5177 14.2398L11.7177 13.9098C11.781 13.8953 11.8392 13.8641 11.8861 13.8193C11.9331 13.7745 11.9671 13.7179 11.9845 13.6554C12.0019 13.5929 12.0021 13.5269 11.9851 13.4643C11.968 13.4017 11.9344 13.3448 11.8877 13.2998L11.0577 12.4198L11.2277 12.3698L13.8177 11.6698C13.9879 11.6271 14.1345 11.5194 14.2261 11.3698C14.3177 11.2203 14.347 11.0407 14.3077 10.8698L13.5477 8.05977C13.5202 7.98 13.4641 7.91331 13.3901 7.87265C13.3162 7.83199 13.2298 7.82027 13.1477 7.83977Z" stroke="#000001" stroke-linecap="round" stroke-linejoin="round"/>
</g>
<defs>
<clipPath id="clip0_6_6417">
<rect width="14" height="14" fill="white" transform="translate(0.847656 0.75)"/>
</clipPath>
</defs>
</svg>
