<svg width="15" height="15" viewBox="0 0 15 15" fill="none" xmlns="http://www.w3.org/2000/svg">
<g clip-path="url(#clip0_6_6610)">
<path d="M2.34766 10.25C2.89994 10.25 3.34766 9.57843 3.34766 8.75C3.34766 7.92157 2.89994 7.25 2.34766 7.25C1.79537 7.25 1.34766 7.92157 1.34766 8.75C1.34766 9.57843 1.79537 10.25 2.34766 10.25Z" stroke="#000001" stroke-linecap="round" stroke-linejoin="round"/>
<path d="M5.34766 5.75C5.89994 5.75 6.34766 5.07843 6.34766 4.25C6.34766 3.42157 5.89994 2.75 5.34766 2.75C4.79537 2.75 4.34766 3.42157 4.34766 4.25C4.34766 5.07843 4.79537 5.75 5.34766 5.75Z" stroke="#000001" stroke-linecap="round" stroke-linejoin="round"/>
<path d="M10.3477 5.75C10.8999 5.75 11.3477 5.07843 11.3477 4.25C11.3477 3.42157 10.8999 2.75 10.3477 2.75C9.79537 2.75 9.34766 3.42157 9.34766 4.25C9.34766 5.07843 9.79537 5.75 10.3477 5.75Z" stroke="#000001" stroke-linecap="round" stroke-linejoin="round"/>
<path d="M13.3477 10.25C13.8999 10.25 14.3477 9.57843 14.3477 8.75C14.3477 7.92157 13.8999 7.25 13.3477 7.25C12.7954 7.25 12.3477 7.92157 12.3477 8.75C12.3477 9.57843 12.7954 10.25 13.3477 10.25Z" stroke="#000001" stroke-linecap="round" stroke-linejoin="round"/>
<path d="M10.8477 10.75C10.8477 12.13 9.22766 12.75 7.84766 12.75C6.46766 12.75 4.84766 12.13 4.84766 10.75C4.84766 9.37 5.84766 7.25 7.84766 7.25C9.84766 7.25 10.8477 9.37 10.8477 10.75Z" stroke="#000001" stroke-linecap="round" stroke-linejoin="round"/>
</g>
<defs>
<clipPath id="clip0_6_6610">
<rect width="14" height="14" fill="white" transform="translate(0.847656 0.75)"/>
</clipPath>
</defs>
</svg>
