<svg width="15" height="15" viewBox="0 0 15 15" fill="none" xmlns="http://www.w3.org/2000/svg">
<g clip-path="url(#clip0_6_6332)">
<path d="M7.84766 14.25C11.4375 14.25 14.3477 11.3399 14.3477 7.75C14.3477 4.16015 11.4375 1.25 7.84766 1.25C4.25781 1.25 1.34766 4.16015 1.34766 7.75C1.34766 11.3399 4.25781 14.25 7.84766 14.25Z" stroke="#000001" stroke-linecap="round" stroke-linejoin="round"/>
<path d="M13.3281 4.25H9.32812C8.79769 4.25 8.28898 4.46071 7.91391 4.83579C7.53884 5.21086 7.32813 5.71957 7.32812 6.25C7.32813 6.78043 7.53884 7.28914 7.91391 7.66421C8.28898 8.03929 8.79769 8.25 9.32812 8.25C9.59334 8.25 9.8477 8.35536 10.0352 8.54289C10.2228 8.73043 10.3281 8.98478 10.3281 9.25V13.75" stroke="#000001" stroke-linecap="round" stroke-linejoin="round"/>
<path d="M1.42773 8.75H3.84773C4.37817 8.75 4.88688 8.96071 5.26195 9.33579C5.63702 9.71086 5.84773 10.2196 5.84773 10.75V13.94" stroke="#000001" stroke-linecap="round" stroke-linejoin="round"/>
</g>
<defs>
<clipPath id="clip0_6_6332">
<rect width="14" height="14" fill="white" transform="translate(0.847656 0.75)"/>
</clipPath>
</defs>
</svg>
