<svg width="15" height="15" viewBox="0 0 15 15" fill="none" xmlns="http://www.w3.org/2000/svg">
<g clip-path="url(#clip0_6_6671)">
<path d="M8.84766 5.25C9.95223 5.25 10.8477 4.35457 10.8477 3.25C10.8477 2.14543 9.95223 1.25 8.84766 1.25C7.74309 1.25 6.84766 2.14543 6.84766 3.25C6.84766 4.35457 7.74309 5.25 8.84766 5.25Z" stroke="#000001" stroke-linecap="round" stroke-linejoin="round"/>
<path d="M8.84766 5.25V9.25H11.8477C12.1129 9.25 12.3672 9.35536 12.5548 9.54289C12.7423 9.73043 12.8477 9.98478 12.8477 10.25V14.25" stroke="#000001" stroke-linecap="round" stroke-linejoin="round"/>
<path d="M6.34802 7.25C5.71623 7.25064 5.0964 7.42228 4.55427 7.74671C4.01214 8.07114 3.56794 8.53627 3.26879 9.09274C2.96964 9.64922 2.82669 10.2763 2.85511 10.9074C2.88353 11.5386 3.08225 12.1503 3.43021 12.6776C3.77817 13.2049 4.26237 13.6283 4.83146 13.9027C5.40055 14.1771 6.03331 14.2923 6.6626 14.2362C7.29188 14.18 7.89424 13.9546 8.40577 13.5838C8.9173 13.213 9.31891 12.7106 9.56802 12.13" stroke="#000001" stroke-linecap="round" stroke-linejoin="round"/>
</g>
<defs>
<clipPath id="clip0_6_6671">
<rect width="14" height="14" fill="white" transform="translate(0.847656 0.75)"/>
</clipPath>
</defs>
</svg>
