<svg width="15" height="15" viewBox="0 0 15 15" fill="none" xmlns="http://www.w3.org/2000/svg">
<g clip-path="url(#clip0_6_6617)">
<path d="M14.3477 14.25H13.8477C13.3172 14.25 12.8085 14.0393 12.4334 13.6642C12.0584 13.2891 11.8477 12.7804 11.8477 12.25C11.8477 12.7804 11.6369 13.2891 11.2619 13.6642C10.8868 14.0393 10.3781 14.25 9.84766 14.25C9.31722 14.25 8.80852 14.0393 8.43344 13.6642C8.05837 13.2891 7.84766 12.7804 7.84766 12.25C7.84766 12.7804 7.63694 13.2891 7.26187 13.6642C6.8868 14.0393 6.37809 14.25 5.84766 14.25C5.31722 14.25 4.80852 14.0393 4.43344 13.6642C4.05837 13.2891 3.84766 12.7804 3.84766 12.25C3.84766 12.7804 3.63694 13.2891 3.26187 13.6642C2.8868 14.0393 2.37809 14.25 1.84766 14.25H1.34766" stroke="#000001" stroke-linecap="round" stroke-linejoin="round"/>
<path d="M3.34766 3.25C3.34766 2.71957 3.55837 2.21086 3.93344 1.83579C4.30852 1.46071 4.81722 1.25 5.34766 1.25C5.87809 1.25 6.3868 1.46071 6.76187 1.83579C7.13694 2.21086 7.34766 2.71957 7.34766 3.25V10.25" stroke="#000001" stroke-linecap="round" stroke-linejoin="round"/>
<path d="M10.3477 1.25C10.8781 1.25 11.3868 1.46071 11.7619 1.83579C12.1369 2.21086 12.3477 2.71957 12.3477 3.25V10.25" stroke="#000001" stroke-linecap="round" stroke-linejoin="round"/>
<path d="M7.34766 5.25H12.3477" stroke="#000001" stroke-linecap="round" stroke-linejoin="round"/>
<path d="M7.34766 8.25H12.3477" stroke="#000001" stroke-linecap="round" stroke-linejoin="round"/>
</g>
<defs>
<clipPath id="clip0_6_6617">
<rect width="14" height="14" fill="white" transform="translate(0.847656 0.75)"/>
</clipPath>
</defs>
</svg>
