<svg width="15" height="15" viewBox="0 0 15 15" fill="none" xmlns="http://www.w3.org/2000/svg">
<g clip-path="url(#clip0_6_6573)">
<path d="M9.84766 3.75C9.84766 3.35444 9.73036 2.96776 9.5106 2.63886C9.29083 2.30996 8.97848 2.05362 8.61302 1.90224C8.24757 1.75087 7.84544 1.71126 7.45748 1.78843C7.06951 1.8656 6.71315 2.05608 6.43344 2.33579C6.15374 2.61549 5.96326 2.97186 5.88609 3.35982C5.80892 3.74778 5.84852 4.14992 5.9999 4.51537C6.15127 4.88082 6.40762 5.19318 6.73652 5.41294C7.06542 5.6327 7.45209 5.75 7.84766 5.75V6.75" stroke="#000001" stroke-linecap="round" stroke-linejoin="round"/>
<path d="M7.8479 6.75L1.8479 11.35C1.68856 11.4763 1.56054 11.6376 1.47381 11.8215C1.38708 12.0053 1.34399 12.2067 1.3479 12.41C1.3479 12.7654 1.48908 13.1062 1.74038 13.3575C1.99168 13.6088 2.33251 13.75 2.6879 13.75H13.0079C13.3633 13.75 13.7041 13.6088 13.9554 13.3575C14.2067 13.1062 14.3479 12.7654 14.3479 12.41C14.3518 12.2067 14.3087 12.0053 14.222 11.8215C14.1353 11.6376 14.0072 11.4763 13.8479 11.35L7.8479 6.75Z" stroke="#000001" stroke-linecap="round" stroke-linejoin="round"/>
</g>
<defs>
<clipPath id="clip0_6_6573">
<rect width="14" height="14" fill="white" transform="translate(0.847656 0.75)"/>
</clipPath>
</defs>
</svg>
