<svg width="16" height="17" viewBox="0 0 16 17" fill="none" xmlns="http://www.w3.org/2000/svg">
<path fill-rule="evenodd" clip-rule="evenodd" d="M5.52827 10.9716C5.78862 11.2319 6.21073 11.2319 6.47108 10.9716C6.73143 10.7112 6.73143 10.2891 6.47108 10.0288L3.60915 7.16683H9.99967C11.8406 7.16683 13.333 8.65921 13.333 10.5002C13.333 12.3411 11.8406 13.8335 9.99967 13.8335H8.33301C7.96482 13.8335 7.66634 14.132 7.66634 14.5002C7.66634 14.8684 7.96482 15.1668 8.33301 15.1668H9.99967C12.577 15.1668 14.6663 13.0775 14.6663 10.5002C14.6663 7.92283 12.577 5.8335 9.99967 5.8335H3.60915L6.47108 2.97157C6.73143 2.71122 6.73143 2.28911 6.47108 2.02876C6.21073 1.76841 5.78862 1.76841 5.52827 2.02876L1.52827 6.02876C1.26792 6.28911 1.26792 6.71122 1.52827 6.97157L5.52827 10.9716Z" fill="#FBF0EA"/>
</svg>
