<svg width="16" height="17" viewBox="0 0 16 17" fill="none" xmlns="http://www.w3.org/2000/svg">
<path d="M15.1657 7.46868V6.85073C15.1657 5.72072 14.3902 4.77084 13.3443 4.49866L13.3424 3.47979C13.3424 2.48545 12.5332 1.67627 11.5385 1.67627H11.4431L3.00063 4.29527C2.80835 4.30638 2.62592 4.35083 2.4546 4.41772H2.43259C1.09142 4.41772 0 5.50915 0 6.85073V12.8906C0 14.2319 1.09121 15.3236 2.43259 15.3236H12.7331C14.0742 15.3236 15.1657 14.2322 15.1657 12.8906V12.0873C15.6528 11.8987 16 11.4265 16 10.8734V8.68214C15.9998 8.1294 15.6528 7.65719 15.1657 7.46868ZM14.7417 10.8732C14.7417 10.8979 14.7222 10.9174 14.6974 10.9174H11.2919C11.2671 10.9174 11.2479 10.8979 11.2479 10.8732V8.68214C11.2479 8.65803 11.2676 8.63832 11.2919 8.63832H14.6974C14.7217 8.63832 14.7417 8.65803 14.7417 8.68214V10.8732ZM11.6163 2.94006C11.8807 2.9778 12.0843 3.20552 12.0843 3.48084L12.086 4.41793H6.85238L11.6163 2.94006ZM12.7331 14.0652H2.4328C1.78423 14.0652 1.25833 13.5391 1.25833 12.8904V6.85073C1.25833 6.20175 1.78423 5.67585 2.4328 5.67585H12.7331C13.3818 5.67585 13.9075 6.20175 13.9075 6.85073V7.38019H11.2919C10.5739 7.38019 9.98973 7.96417 9.98973 8.68214V10.8732C9.98973 11.5913 10.5739 12.1755 11.2919 12.1755H13.9075V12.8906C13.9075 13.5391 13.3818 14.0652 12.7331 14.0652Z" fill="#F6F6F6"/>
</svg>
